<?xml version="1.0" encoding="UTF-8"?>
<svg xmlns="http://www.w3.org/2000/svg" xmlns:xlink="http://www.w3.org/1999/xlink" width="360pt" height="345pt" viewBox="0 0 360 345" version="1.1">
<g id="surface173">
<path style=" stroke:none;fill-rule:evenodd;fill:rgb(99.998474%,99.998474%,99.998474%);fill-opacity:1;" d="M 7.875 200.871094 L 7.179688 202.835938 L 10.796875 205.527344 L 13.015625 207.71875 L 13.796875 208.5 L 20.332031 215.371094 L 22.140625 216.570313 L 22.589844 219.050781 L 22.980469 225.695313 L 23 227.171875 L 22.566406 226.953125 L 11.257813 215.535156 L 10.019531 215.121094 L 8.355469 217.683594 L 8.621094 218.492188 L 9.496094 218.855469 L 23.371094 232.730469 L 23.761719 238.980469 L 24.117188 242.1875 L 23.347656 241.804688 L 16.757813 234.964844 L 14.667969 233.570313 L 12.988281 236.046875 L 13.292969 237.363281 L 14.792969 238.113281 L 24.152344 247.578125 L 24.484375 250.5625 L 27.863281 250.898438 L 28.949219 252.09375 L 35.898438 257.644531 L 37.632813 272 L 39.75 285.976563 L 40.566406 286.222656 L 48.964844 284.894531 L 49.992188 284.570313 L 49.324219 279.988281 L 51.539063 281.464844 L 58.144531 286.679688 L 58.835938 288.050781 L 59.320313 291.34375 L 60.882813 302.285156 L 61.257813 303.925781 L 64.925781 303.335938 L 63.019531 290.488281 L 65.992188 292.410156 L 75.289063 299.808594 L 75.925781 305.410156 L 77.683594 316.351563 L 78.046875 318.800781 L 78.863281 319.046875 L 81.839844 318.507813 L 79.679688 303.339844 L 80.828125 303.769531 L 88.855469 309.902344 L 91.324219 327.796875 L 95.171875 327.390625 L 93.195313 313.554688 L 94.519531 314.292969 L 97.027344 316.351563 L 106.4375 323.410156 L 108.464844 337.59375 L 114.027344 337.070313 L 116.566406 336.476563 L 118.609375 336.105469 L 117.710938 329.636719 L 117.933594 329.636719 L 121.410156 330.535156 L 127.507813 331.785156 L 133.574219 332.429688 L 139.035156 333.15625 L 150.171875 332.957031 L 155.25 332.566406 L 158.945313 332.0625 L 165.558594 330.9375 L 173.007813 328.953125 L 179.105469 326.707031 L 184.34375 324.25 L 190.300781 320.414063 L 194.242188 317.308594 L 198.410156 313.136719 L 201.515625 309.195313 L 205.773438 302.832031 L 209.0625 297.046875 L 211.179688 292.714844 L 214.0625 285.089844 L 216.210938 279.035156 L 217.847656 272.40625 L 221.070313 259.398438 L 223.238281 248.164063 L 224.066406 240.742188 L 225.617188 227.84375 L 226.058594 223.5625 L 227.347656 209.257813 L 227.738281 208.476563 L 251.574219 207.726563 L 257.429688 206.992188 L 264.226563 206.347656 L 271.898438 205.035156 L 276.976563 204.226563 L 281.859375 202.835938 L 285.570313 201.449219 L 292.625 198.429688 L 295.75 196.867188 L 299.273438 194.53125 L 301.511719 192.714844 L 304.285156 189.621094 L 310.523438 182.066406 L 314.234375 175.863281 L 317.59375 169.339844 L 320.367188 162.089844 L 321.5 157.613281 L 323.03125 151.195313 L 324.203125 143.769531 L 324.984375 135.5625 L 325.617188 125.855469 L 324.859375 102.613281 L 327.96875 104.167969 L 340.472656 110.8125 L 347.332031 114.242188 L 350.316406 109.066406 L 351.460938 106.714844 L 351.820313 105.144531 L 347.324219 102.53125 L 335.941406 97.015625 L 335 94.59375 L 334.484375 91.515625 L 337.945313 93.152344 L 346.917969 98.292969 L 347.960938 97.960938 L 349.089844 95.324219 L 346.875 93.746094 L 333.125 86.414063 L 331.03125 78.738281 L 337.144531 81.941406 L 338.71875 82.324219 L 340.058594 79.746094 L 339.789063 78.9375 L 330.183594 74.210938 L 329.820313 73.464844 L 327.96875 73.101563 L 321.558594 69.898438 L 321.128906 68.609375 L 320.558594 62.550781 L 318.789063 50.199219 L 318.429688 49.53125 L 308.476563 50.773438 L 309.492188 58.410156 L 299.617188 51.113281 L 298.113281 39.183594 L 295.730469 38.898438 L 294.273438 39.476563 L 295.253906 47.613281 L 293.355469 46.441406 L 285.332031 40.34375 L 283.820313 29 L 280.050781 29.539063 L 280.972656 36.90625 L 279.6875 36.261719 L 274.675781 32.53125 L 269.3125 28.558594 L 267.816406 17.417969 L 267.203125 17.417969 L 264.019531 17.949219 L 264.953125 25.183594 L 264.449219 24.929688 L 253.25 16.460938 L 252.046875 7.132813 L 250.792969 6.894531 L 244.34375 7.84375 L 242.144531 8.175781 L 241.652344 11.75 L 242.058594 12.917969 L 242.585938 14.292969 L 243.945313 23.867188 L 243.710938 25.910156 L 228.128906 26.792969 L 215.410156 28.167969 L 203.558594 29.796875 L 197.34375 30.933594 L 190.386719 32.460938 L 183.585938 34.582031 L 177.464844 36.769531 L 170.710938 39.988281 L 164.726563 43.820313 L 159.75 47.929688 L 156.304688 52.042969 L 153.722656 55.910156 L 152.441406 57.847656 L 149.726563 64.90625 L 148.445313 68.890625 L 147.296875 74.332031 L 146.546875 80.167969 L 145.867188 85.214844 L 146.25 114.523438 L 145.972656 116.894531 L 146.460938 129.957031 L 146.652344 137.96875 L 146.070313 149.496094 L 145.75 151.296875 L 111.488281 151.644531 L 103.28125 152.035156 L 98.007813 152.59375 L 90.367188 153.210938 L 82.78125 154.496094 L 76.117188 156.089844 L 72.210938 156.890625 L 65.984375 159.5625 L 60.671875 162.585938 L 55.882813 166.066406 L 50.992188 171.199219 L 46.488281 177.097656 L 42.539063 183.582031 L 38.832031 192.675781 L 36.871094 198.535156 L 36.023438 203.609375 L 35.273438 205.960938 L 34.414063 213.535156 L 33.117188 212.886719 L 28.414063 209.003906 L 25 206.007813 L 15.523438 196.496094 L 12.570313 194.078125 L 11.613281 194.714844 Z M 27.296875 220.917969 L 26.515625 220.527344 L 26.886719 226.476563 L 27.285156 231.109375 L 31.929688 235.1875 L 34.253906 236.773438 L 33.4375 225.859375 Z M 28.078125 236.550781 L 27.472656 236.246094 L 27.472656 239.566406 L 28.011719 246.277344 L 29.816406 247.96875 L 35.425781 252.40625 L 35.09375 249.53125 L 34.285156 241.8125 Z M 54.585938 230.117188 L 44.132813 222.433594 L 44.472656 238.980469 L 44.867188 242.550781 L 51.449219 247.324219 L 54.226563 249.605469 L 55.019531 249.921875 L 55.601563 235.269531 L 55.324219 230.546875 Z M 46.050781 247.890625 L 45.253906 247.578125 L 45.132813 247.789063 L 45.773438 252.449219 L 46.453125 258.804688 L 46.878906 261.007813 L 55.804688 267.898438 L 56.472656 267.898438 L 55.5625 255.164063 Z M 48.789063 267.027344 L 47.375 266.320313 L 48.523438 274.742188 L 50.136719 276.101563 L 56.5625 280.878906 L 58.089844 281.644531 L 56.878906 273.144531 Z M 54.609375 225.78125 L 55.832031 226.394531 L 56.203125 225.359375 L 57.019531 219.566406 L 58.675781 211.441406 L 59.867188 207.527344 L 59.597656 206.722656 L 49.941406 199.515625 L 48.070313 198.398438 L 47.578125 198.644531 L 46.425781 203.421875 L 45.644531 207.328125 L 44.863281 212.800781 L 44.382813 217.652344 L 44.949219 218.5 Z M 71.417969 262.503906 L 72.226563 262.820313 L 72.019531 250.507813 L 72.480469 243.460938 L 59.769531 234.039063 L 58.984375 234.820313 L 59.382813 252.410156 L 60.101563 253.804688 Z M 59.710938 258.128906 L 59.621094 258.128906 L 60.3125 268.484375 L 60.84375 271.53125 L 73.234375 280.824219 L 72.375 267.699219 Z M 72.5625 182.980469 L 75.457031 180.25 L 74.863281 179.355469 L 65.214844 172.269531 L 63.195313 173.617188 L 57.332031 179.476563 L 54.636719 183.535156 L 51.648438 188.773438 L 49.03125 194.386719 L 60.070313 202.75 L 61.015625 203.378906 L 63.359375 197.355469 L 65.960938 192.480469 L 70.382813 185.625 Z M 61.664063 276.882813 L 61.324219 276.882813 L 62.347656 285.089844 L 66.019531 288.078125 L 72.570313 293.019531 L 74.65625 294.46875 L 74.742188 293.492188 L 73.742188 285.761719 Z M 64.820313 210.742188 L 63.207031 209.738281 L 62.835938 210.847656 L 62.140625 214.132813 L 60.503906 222.109375 L 59.6875 229.210938 L 59.453125 229.417969 L 72.214844 238.953125 L 73.023438 238.691406 L 73.785156 232.289063 L 75.359375 224.050781 L 76.570313 219.695313 L 76.066406 219.191406 Z M 85.585938 277.582031 L 76.40625 270.699219 L 77.109375 281.769531 L 77.628906 284.171875 L 84.6875 289.496094 L 86.589844 290.667969 Z M 77.3125 247.109375 L 76.511719 246.796875 L 75.914063 249.335938 L 76.121094 263.988281 L 76.144531 266.242188 L 76.945313 266.601563 L 85.640625 272.976563 L 85.671875 272 L 85.304688 261.839844 L 85.980469 254.058594 L 85.414063 253.210938 Z M 64.5 206.042969 L 77.707031 215.832031 L 80.492188 209.042969 L 83.605469 202.777344 L 87.648438 196.386719 L 89.039063 194.914063 L 91.472656 192.367188 L 90.503906 191.074219 L 79.25 182.710938 L 78.046875 182.996094 L 73.367188 188.484375 L 71.511719 191.464844 L 67.527344 197.949219 L 64.957031 203.613281 Z M 86.628906 295.371094 L 77.945313 289.003906 L 78.675781 296.226563 L 79.199219 298.117188 L 88.179688 304.765625 L 87.089844 295.738281 Z M 88.230469 171.332031 L 95.417969 168.984375 L 94.683594 168.253906 L 94.097656 167.863281 L 88.632813 163.90625 L 82.765625 164.734375 L 80.8125 165.535156 L 73.371094 167.78125 L 68.742188 169.546875 L 68.738281 170.324219 L 76.121094 176.066406 L 78.433594 177.523438 L 79.445313 176.851563 L 81.183594 175.199219 L 83.351563 174.113281 Z M 77.109375 235.269531 L 76.640625 242.316406 L 85.484375 248.824219 L 86.421875 249.1875 L 87.242188 242.300781 L 89.0625 235.199219 L 90.355469 230.582031 L 90.101563 229.722656 L 79.890625 222.179688 L 79.820313 222.765625 L 78.25 230.191406 Z M 101.476563 265.285156 L 89.777344 256.652344 L 89.207031 260.667969 L 89.410156 273.367188 L 89.808594 276.15625 L 101.109375 284.789063 L 102.664063 285.5625 L 102.101563 281.769531 L 102.488281 268.875 L 102.214844 265.71875 Z M 91.394531 281.859375 L 89.652344 280.785156 L 90.808594 294.058594 L 104.003906 303.847656 L 104.03125 303.257813 L 103.085938 295.25 L 102.648438 290.433594 Z M 82.515625 213.769531 L 81.019531 218.464844 L 86.332031 222.441406 L 91.339844 226.171875 L 91.789063 226.394531 L 94.207031 221.179688 L 96.636719 216.316406 L 97.648438 214.863281 L 102.5 208.304688 L 106.882813 204.027344 L 107.101563 203.597656 L 95.289063 194.738281 L 94.8125 194.5 L 92.621094 196.550781 L 91.058594 198.894531 L 86.753906 205.214844 L 84.175781 210.265625 Z M 91.753906 299.15625 L 91.40625 299.15625 L 91.949219 305.214844 L 92.542969 308.195313 L 104.632813 317.601563 L 105.6875 318 L 104.460938 308.730469 Z M 95.28125 233.441406 L 93.707031 232.738281 L 92.539063 237.058594 L 91.046875 244.296875 L 90.003906 250.507813 L 90.28125 252.492188 L 91.015625 252.925781 L 102.785156 261.609375 L 103.65625 253.242188 L 105.039063 247.1875 L 106.015625 244.0625 L 106.417969 241.910156 Z M 84.132813 178.21875 L 81.984375 179.585938 L 81.664063 180.214844 L 92.914063 188.640625 L 94.492188 189.3125 L 98.417969 186.140625 L 103.152344 183.34375 L 110.402344 180.582031 L 110.652344 180.078125 L 105.382813 176.191406 L 100.371094 172.464844 L 98.003906 172.15625 L 93.707031 173.75 L 87.152344 176.292969 Z M 118.300781 165.421875 L 120.777344 164.953125 L 120.5625 164.519531 L 117.167969 161.925781 L 115.976563 161.640625 L 106.015625 162.195313 L 100.15625 162.585938 L 95.855469 162.976563 L 94.378906 163.347656 L 94.597656 163.78125 L 100.203125 167.757813 L 110.175781 166.160156 Z M 119.183594 218.425781 L 122.03125 214.792969 L 110.488281 206.246094 L 109.347656 206.875 L 103.375 213.800781 L 100.742188 217.488281 L 97.671875 222.820313 L 95.03125 228.789063 L 107.605469 238.21875 L 110.660156 230.574219 L 113.65625 225.78125 L 115.449219 223.164063 Z M 120.4375 195.804688 L 128.09375 193.652344 L 128.410156 193.023438 L 115.613281 183.789063 L 113.636719 183.484375 L 107.382813 185.820313 L 101.628906 188.789063 L 97.722656 191.484375 L 97.507813 191.914063 L 110.058594 201.324219 L 114.003906 198.640625 Z M 115.226563 266.234375 L 112.722656 264.769531 L 112.46875 279.179688 L 114.417969 279.625 L 126.921875 278.855469 L 132.390625 277.277344 L 132.585938 277.277344 L 131.945313 276.632813 Z M 114.046875 286.566406 L 112.503906 285.792969 L 112.855469 288.609375 L 113.292969 293.425781 L 115.394531 293.882813 L 118.910156 294.273438 L 125.25 294.644531 L 124.859375 293.863281 Z M 115.003906 305.019531 L 114.144531 304.589844 L 114.683594 306.210938 L 116.695313 306.710938 Z M 124.578125 177.234375 L 135.769531 176.125 L 135.070313 175.425781 L 126.542969 168.964844 L 123.40625 168.648438 L 117.9375 169.394531 L 110.175781 170.070313 L 105.429688 170.988281 L 104.84375 170.988281 L 105.515625 171.996094 L 113.996094 178.125 L 115.609375 179.109375 Z M 115.589844 297.59375 L 113.691406 297.59375 L 114.144531 300.152344 L 125.277344 307.914063 L 125.945313 308.730469 L 128.679688 309.121094 L 132.585938 309.511719 L 142.160156 309.714844 L 146.351563 309.144531 L 146.566406 308.710938 L 137.277344 302.285156 L 131.234375 298.300781 L 130.046875 298.015625 L 119.496094 298.382813 Z M 121.441406 311.71875 L 115.011719 310.355469 L 116.125 318.695313 L 116.761719 318.695313 L 122.679688 320.398438 L 129.265625 321.816406 L 138.585938 322.742188 L 137.804688 321.960938 L 125.066406 312.664063 Z M 116.566406 306.972656 L 116.957031 306.972656 L 116.957031 306.582031 L 116.566406 306.582031 Z M 124.578125 266.335938 L 122.820313 266.335938 L 123.121094 266.941406 L 135.496094 274.628906 L 137.492188 275.625 L 141.4375 273.507813 L 145.3125 271.117188 L 147.9375 268.90625 L 148.640625 267.851563 L 141.792969 263.902344 L 140.578125 263.296875 L 138.058594 264.574219 L 135.597656 265.316406 L 132.351563 266.0625 L 128.875 266.726563 Z M 135.851563 205.628906 L 141.828125 203.285156 L 141.324219 202.777344 L 137.125 199.78125 L 132.789063 196.429688 L 127.3125 197.535156 L 123.316406 198.894531 L 119.441406 200.546875 L 115.582031 202.203125 L 113.527344 203.597656 L 113.753906 204.046875 L 124.835938 212.359375 L 128.054688 209.945313 L 131.804688 207.523438 Z M 146.675781 214.558594 L 146.070313 212.765625 L 140.121094 214.980469 L 136.242188 216.960938 L 133.535156 218.5625 L 131.699219 219.996094 L 126.8125 225.128906 L 124.242188 228.570313 L 121.910156 232.097656 L 118.457031 239.1875 L 116.675781 243.441406 L 115.59375 247.609375 L 114.234375 252.851563 L 114.480469 254.089844 L 118.707031 255.054688 L 122.269531 255.898438 L 130.046875 256.1875 L 132.371094 255.480469 L 135.46875 254.347656 L 138.351563 252.4375 L 140.960938 249.820313 L 144.433594 244.601563 L 145.589844 240.707031 L 146.070313 237.808594 L 146.460938 232.335938 Z M 126.902344 164.816406 L 139.511719 164.183594 L 138.949219 163.335938 L 136.609375 161.839844 L 122.679688 161.472656 L 123.460938 162.253906 Z M 133.171875 313.226563 L 132.195313 313.226563 L 132.839844 313.867188 L 145.203125 322.914063 L 156.621094 322.222656 L 161.785156 321.203125 L 163.566406 320.8125 L 163.761719 320.433594 L 159.550781 317.523438 L 151.507813 312.160156 L 146.414063 312.960938 L 141.378906 313.621094 Z M 147.078125 290.363281 L 150.757813 289 L 151.101563 288.34375 L 138.660156 280.710938 L 136.6875 280.03125 L 132.480469 281.34375 L 129.640625 282.042969 L 124.511719 282.890625 L 118.128906 283.332031 L 116.371094 283.527344 L 116.089844 283.742188 L 119.53125 286.15625 L 131.605469 294.128906 L 135.925781 293.605469 L 142.863281 291.890625 Z M 139.035156 191.300781 L 154.027344 190.054688 L 153.40625 189.125 L 140.621094 179.679688 L 130.828125 180.359375 L 127.117188 180.953125 L 124.570313 181.203125 L 120.089844 182.125 L 120.390625 182.925781 L 133.5625 192.480469 L 133.957031 192.480469 Z M 145.699219 168.554688 L 131.71875 168.078125 L 132.109375 168.859375 L 140.96875 175.375 L 149.585938 175.679688 L 154.332031 175.148438 L 153.828125 174.644531 Z M 164.011719 199.40625 L 165.996094 199.125 L 166.300781 198.894531 L 159.761719 193.96875 L 158.179688 193.671875 L 150.5625 194.238281 L 141.964844 195.019531 L 138.703125 195.355469 L 138.140625 195.914063 L 144.074219 200.023438 L 145.667969 201.527344 L 148.023438 201.863281 L 149.78125 201.273438 L 156.976563 200.1875 Z M 156.234375 247.140625 L 154.648438 246.742188 L 153.386719 249.707031 L 151.808594 252.449219 L 147.609375 258.222656 L 145.367188 259.847656 L 144.308594 261.253906 L 148.21875 263.207031 L 150.5625 264.769531 L 151.34375 265.160156 L 152.039063 263.773438 L 156.160156 258.277344 L 159.34375 252.71875 L 160.371094 249.722656 L 159.550781 248.945313 Z M 165.160156 277.023438 L 152.371094 269.964844 L 150.410156 271.535156 L 145.261719 275.613281 L 141.769531 278.058594 L 141.453125 278.296875 L 153.863281 285.960938 L 155.078125 286.566406 L 157.464844 284.847656 L 160.722656 282.550781 L 165.703125 277.570313 Z M 138.058594 297.007813 L 136.582031 297.378906 L 136.796875 297.8125 L 142.746094 301.894531 L 152.269531 308.109375 L 157.011719 306.972656 L 161.648438 305.152344 L 165.664063 303.203125 L 170.085938 300.691406 L 169.765625 300.046875 L 155.042969 291.023438 L 149.898438 293.453125 L 142.152344 296.089844 Z M 167.148438 115.023438 L 156.074219 108.855469 L 156.035156 111.398438 L 156.617188 118.988281 L 167.890625 125.410156 L 167.5625 119.40625 Z M 159.371094 92.757813 L 155.894531 91.132813 L 156.320313 104.785156 L 164.414063 109.332031 L 167.121094 110.546875 L 166.6875 96.910156 Z M 157.414063 123.632813 L 156.621094 123.316406 L 156.464844 123.90625 L 157 136.542969 L 166.382813 142.507813 L 167.5625 142.851563 L 167.921875 129.667969 L 164.03125 127.6875 Z M 158.984375 141.984375 L 156.988281 140.988281 L 156.621094 144.808594 L 156.617188 151.441406 L 163.652344 151.058594 L 167.167969 151.058594 L 167.757813 149.300781 L 167.484375 147.308594 L 163.066406 144.808594 Z M 157.316406 161.839844 L 142.609375 161.472656 L 143.527344 162.390625 L 144.222656 163 L 145.671875 164.007813 L 160.441406 164.507813 L 159.660156 163.335938 Z M 161.503906 233.902344 L 156.988281 231.644531 L 156.621094 235.464844 L 156.230469 239.761719 L 155.835938 242.105469 L 155.480469 242.78125 L 157.988281 244.0625 L 161.726563 245.929688 L 162.480469 243.671875 L 163.320313 240.683594 L 164.199219 236.054688 L 163.945313 235.242188 Z M 158.1875 215.878906 L 156.652344 215.425781 L 157.117188 227.472656 L 160.90625 229.671875 L 163.257813 230.820313 L 164.832031 231.210938 L 165.605469 224.914063 L 166.054688 220.476563 L 165.550781 219.972656 Z M 160.53125 68.953125 L 159.355469 68.609375 L 158.621094 71.082031 L 157.457031 76.285156 L 156.417969 82.480469 L 156.699219 87.207031 L 165.207031 92.113281 L 167.167969 92.835938 L 167.601563 91.394531 L 168.34375 84.984375 L 169.5625 79.675781 L 170.296875 77.207031 L 170.648438 75.371094 L 164.832031 71.6875 Z M 148.804688 179.175781 L 147.242188 179.585938 L 146.90625 179.835938 L 159.726563 189.441406 L 173.703125 189.917969 L 173.3125 189.136719 L 160.539063 179.515625 Z M 164.835938 251.808594 L 164.007813 251.472656 L 162.730469 254.410156 L 160.441406 258.679688 L 156.921875 263.828125 L 154.835938 267.054688 L 164.394531 272.3125 L 166.769531 273.820313 L 167.980469 274.207031 L 169.847656 271.277344 L 172.582031 265.804688 L 174.046875 263.015625 L 175.589844 257.542969 L 169.53125 254.144531 Z M 166.410156 168.554688 L 151.648438 168.078125 L 152.039063 168.859375 L 160.609375 175.054688 L 175.320313 175.425781 L 174.539063 174.644531 Z M 166.328125 216.382813 L 166.828125 209.375 L 158.964844 210.074219 L 157.011719 210.457031 L 156.664063 211.113281 L 165.585938 216.011719 Z M 178.839844 243.339844 L 167.863281 237.429688 L 165.851563 245.433594 L 165.324219 247.925781 L 169.320313 249.921875 L 174.1875 252.738281 L 176.546875 253.828125 L 177.074219 252.472656 Z M 161.363281 309.453125 L 156.5625 311.019531 L 157.066406 311.523438 L 164.628906 316.351563 L 168.730469 319.453125 L 174.601563 317.582031 L 177.476563 316.148438 L 182.84375 312.957031 L 185.835938 311.105469 L 186.140625 310.242188 L 183.9375 308.648438 L 174.207031 302.699219 L 173.40625 302.984375 L 169.925781 305.496094 L 166.800781 307.0625 Z M 160.851563 287.679688 L 158.855469 288.78125 L 159.070313 289.214844 L 162.460938 291.429688 L 172.640625 297.605469 L 174.222656 297.285156 L 177.414063 293.066406 L 179.539063 290.375 L 181.761719 286.449219 L 172.652344 281.109375 L 169.125 279.621094 L 166.777344 281.964844 L 166.382813 282.707031 Z M 180.59375 228.550781 L 169.898438 222.609375 L 169.457031 224.773438 L 168.546875 231.75 L 168.820313 233.738281 L 179.390625 239.371094 Z M 181.246094 104.886719 L 170.742188 99.34375 L 171.144531 113.007813 L 182.378906 119.121094 L 184.558594 120.582031 L 185.339844 120.972656 L 185.3125 119.992188 L 184.703125 107.164063 Z M 185.507813 124.980469 L 171.136719 117.316406 L 171.46875 121.363281 L 171.902344 127.734375 L 185.125 135.515625 L 185.90625 135.90625 L 185.535156 127.222656 Z M 178.914063 212.714844 L 171.078125 208.890625 L 170.6875 209.671875 L 170.296875 215.535156 L 169.933594 218.558594 L 178.871094 223.4375 L 180.945313 224.476563 L 181.527344 214.140625 Z M 162.636719 60.59375 L 160.722656 64.898438 L 169.476563 70.285156 L 171.453125 71.8125 L 172.25 72.113281 L 173.53125 69.566406 L 175.09375 66.4375 L 178.394531 62.183594 L 181.757813 58.710938 L 181.519531 58.234375 L 171.859375 51.804688 L 170.675781 52.128906 L 169.015625 53.585938 L 165.214844 57.277344 Z M 185.453125 139.886719 L 171.476563 131.855469 L 171.96875 145.804688 L 173.40625 146.832031 L 179.273438 150.339844 L 181.628906 150.660156 L 185.855469 150.125 Z M 172.347656 150.179688 L 171.46875 149.886719 L 171.273438 151.058594 L 173.226563 151.058594 Z M 175 78.300781 L 174.203125 77.988281 L 173.578125 78.960938 L 171.683594 87.949219 L 171.179688 95.398438 L 174.230469 97.035156 L 184.855469 102.878906 L 185.722656 94.59375 L 187.097656 89.710938 L 188.085938 86.75 Z M 167.953125 161.214844 L 163.597656 161.75 L 164.238281 162.390625 L 164.933594 163 L 166.378906 164.007813 L 178.503906 164.34375 L 178.757813 164.140625 L 174.90625 161.453125 Z M 174.59375 198.722656 L 185.203125 198.203125 L 184.695313 197.699219 L 179.296875 193.582031 L 173.421875 193.261719 L 165.910156 193.816406 L 166.476563 194.664063 L 171.453125 198.414063 Z M 171.347656 276.339844 L 183.171875 283.050781 L 183.601563 282.832031 L 186.167969 277.085938 L 187.359375 273.183594 L 189.925781 265.328125 L 179.675781 259.722656 L 178.867188 259.984375 L 177.703125 263.910156 L 174.539063 270.886719 L 171.578125 275.886719 Z M 180.726563 179.40625 L 166.054688 179.054688 L 166.835938 179.835938 L 178.835938 188.710938 L 180.894531 189.484375 L 194.414063 189.917969 L 194.023438 189.136719 L 185.976563 183.363281 Z M 179.730469 209.144531 L 181.824219 210.066406 L 181.824219 208.5 L 179.089844 208.5 Z M 190.964844 249.652344 L 182.402344 245.261719 L 181.824219 247.1875 L 180.652344 253.046875 L 180.226563 255.980469 L 190.558594 261.507813 L 191.0625 261 L 193.132813 251.207031 Z M 184.28125 168.484375 L 172.359375 168.078125 L 172.75 168.859375 L 181.320313 175.054688 L 193.242188 175.460938 L 192.851563 174.679688 Z M 187.507813 232.257813 L 184.214844 230.699219 L 183.394531 239.566406 L 182.894531 241.253906 L 193.757813 247.105469 L 194.914063 240.152344 L 195.363281 236.890625 L 194.855469 236.382813 Z M 192.5625 50.582031 L 199.992188 47.898438 L 200.3125 47.65625 L 192.179688 42.8125 L 188.660156 43.566406 L 182.605469 45.945313 L 180.058594 46.679688 L 175.375 49.070313 L 175.042969 49.714844 L 184.363281 55.742188 L 185.546875 55.390625 L 189.335938 52.804688 Z M 198.925781 69.917969 L 185.105469 60.835938 L 181.59375 64.203125 L 180.160156 66.042969 L 177.132813 70.757813 L 175.546875 74.332031 L 189.050781 83.039063 L 189.855469 82.761719 L 193.027344 77.449219 L 197.5625 71.964844 Z M 187.109375 289.328125 L 184.980469 288.542969 L 183.472656 291.558594 L 180.980469 295.046875 L 177.140625 299.742188 L 177.433594 300.550781 L 187.867188 307.046875 L 189.589844 307.828125 L 191.09375 305.574219 L 194.773438 301.316406 L 197.144531 297.417969 L 197.933594 295.617188 Z M 189.460938 218.1875 L 185.535156 216.316406 L 185.144531 219.441406 L 184.578125 225.109375 L 184.839844 226.707031 L 192.15625 230.863281 L 195.714844 232.640625 L 196.085938 230.382813 L 196.476563 226.867188 L 197.019531 222.769531 L 196.769531 221.957031 Z M 189.246094 193.457031 L 184.8125 193.125 L 185.59375 193.90625 L 190.59375 197.648438 L 205.355469 198.125 L 204.964844 197.34375 L 200.1875 193.847656 Z M 190.230469 109.980469 L 188.695313 109.527344 L 189.050781 120.1875 L 189.082031 123.214844 L 198.027344 128.078125 L 199.601563 128.785156 L 199.992188 122.925781 L 200.570313 118.039063 L 200.292969 115.667969 Z M 190.621094 127.957031 L 189.441406 127.613281 L 189.273438 128.59375 L 189.835938 138.164063 L 201.308594 144.808594 L 201.339844 144.21875 L 200.917969 141.476563 L 199.964844 133.371094 Z M 199.15625 147.679688 L 189.738281 142.460938 L 189.832031 149.859375 L 199.9375 148.460938 Z M 189.171875 100.082031 L 188.761719 105.167969 L 191.035156 106.414063 L 201.429688 112.105469 L 202.535156 107.488281 L 204.355469 102.851563 L 206.355469 98.523438 L 206.136719 98.089844 L 192.191406 89.253906 L 191.503906 89.144531 L 191.007813 90.101563 L 189.890625 94.929688 Z M 192.179688 164.34375 L 200.382813 163.953125 L 200.640625 163.75 L 195.703125 159.996094 L 192.960938 159.664063 L 188.855469 160.242188 L 183.777344 160.632813 L 180.738281 161.003906 L 180.953125 161.433594 L 184.351563 164.023438 Z M 194.917969 267.851563 L 193.285156 267.441406 L 191.636719 273.566406 L 190.03125 278.253906 L 186.96875 285.003906 L 189.09375 286.535156 L 199.78125 292.421875 L 203.746094 283.335938 L 206.71875 274.289063 L 203.894531 273.023438 Z M 207.394531 258.613281 L 196.785156 253.027344 L 194.523438 262.816406 L 194.164063 263.492188 L 204.667969 269.140625 L 207.859375 270.65625 L 210.308594 260.257813 Z M 195.289063 217.171875 L 197.269531 217.9375 L 198.011719 208.109375 L 195.304688 208.109375 L 185.925781 208.5 L 185.558594 212.316406 Z M 197.84375 295.640625 L 198.234375 295.640625 L 198.234375 295.25 L 197.84375 295.25 Z M 198.234375 294.859375 L 198.625 294.859375 L 198.625 294.46875 L 198.234375 294.46875 Z M 199.226563 179.515625 L 186.765625 179.054688 L 187.546875 179.835938 L 200.363281 189.441406 L 212.390625 189.917969 L 212 189.136719 Z M 202.75 240.847656 L 199.183594 239.066406 L 198.800781 240.066406 L 197.46875 247.773438 L 197.75 249.359375 L 208.1875 255.070313 L 210.933594 256.175781 L 211.324219 255.394531 L 211.910156 253.242188 L 212.796875 246.570313 Z M 209.957031 228.820313 L 200.753906 224.21875 L 200.265625 226.6875 L 199.601563 233.902344 L 199.25 234.957031 L 209.363281 240.605469 L 212.484375 242.175781 L 213.574219 242.59375 L 214.992188 231.707031 L 214.648438 231.359375 Z M 218.25 59.054688 L 218.53125 58.5 L 207.449219 52.09375 L 205.863281 50.96875 L 203.511719 50.621094 L 198.625 52.585938 L 196.082031 53.320313 L 192.121094 55.574219 L 188.125 58.15625 L 188.378906 58.664063 L 201.554688 67.410156 L 202.351563 67.121094 L 205.867188 64.25 L 209.890625 61.78125 L 214.847656 59.976563 Z M 207.011719 212.875 L 201.726563 210.050781 L 201.011719 220.050781 L 205.835938 222.65625 L 215.234375 227.257813 L 215.625 225.695313 L 216.210938 221.59375 L 215.960938 216.84375 Z M 193.5 84.039063 L 193.140625 85.609375 L 203.957031 92.699219 L 207.417969 94.785156 L 208.609375 94.488281 L 211.773438 89.847656 L 215.039063 85.605469 L 217.695313 82.949219 L 217.101563 82.058594 L 203.917969 73.214844 L 202.339844 72.515625 L 199.171875 75.523438 L 196.039063 79.890625 Z M 206.253906 118.960938 L 204.292969 118.234375 L 203.703125 122.730469 L 203.980469 131.363281 L 214.839844 137.414063 L 216.015625 137.773438 L 216.40625 131.128906 L 216.796875 126.441406 L 217.15625 124.984375 Z M 205.089844 136.136719 L 204.144531 135.769531 L 204.863281 144.222656 L 205.453125 147.21875 L 208.199219 146.78125 L 212.109375 145.605469 L 215.234375 144.417969 L 215.59375 141.785156 Z M 212.5 175.300781 L 214.929688 174.734375 L 214.363281 173.886719 L 205.871094 167.785156 L 200.382813 167.476563 L 190.675781 168.003906 L 190.621094 168.597656 L 199.292969 175.054688 Z M 220.351563 44.265625 L 226.566406 43.992188 L 226.882813 43.75 L 217.5625 38.207031 L 208.003906 39.496094 L 203.316406 40.277344 L 197.5625 41.417969 L 198.128906 42.265625 L 204.285156 45.992188 L 206.246094 46.324219 L 210.347656 45.359375 L 213.234375 45.035156 Z M 221.484375 161.21875 L 222.070313 161.21875 L 221.429688 160.574219 L 214.425781 155.457031 L 208.699219 157.09375 L 200.882813 158.660156 L 200.617188 159.195313 L 205.433594 162.890625 L 206.277344 163.457031 L 210.539063 162.828125 L 219.199219 161.75 Z M 206.441406 107.878906 L 204.925781 114.136719 L 211.910156 118.234375 L 217.476563 121.089844 L 218.164063 117.257813 L 219.53125 113.546875 L 221.742188 109.453125 L 222.085938 108.269531 L 219.101563 106.238281 L 210.15625 100.679688 L 209.347656 100.945313 L 208.785156 102.019531 Z M 216.71875 213.25 L 217.152344 208.5 L 207.613281 208.5 L 208.257813 209.144531 Z M 214.0625 193.265625 L 206.636719 193.652344 L 206.304688 193.90625 L 211.304688 197.648438 L 223.332031 198.125 L 222.941406 197.34375 L 217.980469 193.582031 Z M 220.351563 178.527344 L 205.464844 179.195313 L 205.132813 179.445313 L 217.949219 189.050781 L 226.957031 189.355469 L 233.402344 188.769531 L 233.097656 187.96875 Z M 209.070313 66.882813 L 205.332031 69.484375 L 205.941406 70.398438 L 217.9375 78.484375 L 220.3125 79.96875 L 221.496094 79.617188 L 226.570313 76.070313 L 229.886719 74.273438 L 233.519531 73.140625 L 236.765625 72.398438 L 240.132813 71.949219 L 240.351563 71.515625 L 224.230469 61.910156 L 218.621094 62.878906 L 213.335938 64.5625 Z M 212.980469 94.566406 L 211.539063 97.332031 L 212.546875 98.179688 L 224.816406 105.71875 L 226.261719 103.550781 L 231.09375 99.675781 L 236.613281 96.175781 L 236.90625 95.375 L 221.488281 85.046875 L 220.683594 85.324219 L 217.9375 88.039063 L 216.601563 89.710938 Z M 219.445313 165.679688 L 210.878906 166.828125 L 211.382813 167.332031 L 221.078125 174.582031 L 228.128906 174.121094 L 234.578125 173.136719 L 237.007813 172.765625 L 237.222656 172.335938 L 233.402344 169.816406 L 226.972656 164.660156 L 225.78125 164.367188 Z M 244.367188 106.320313 L 244.867188 103.320313 L 241.785156 104.863281 L 239.488281 106.613281 L 235.640625 109.019531 L 232.851563 112.09375 L 229.800781 116.105469 L 228.410156 119.191406 L 227.738281 122.144531 L 227.140625 125.074219 L 226.355469 137.394531 L 228.566406 135.554688 L 233.144531 129.957031 L 236.226563 125.484375 L 237.398438 123.140625 L 240.625 116.730469 L 242.8125 110.613281 Z M 238.875 57.472656 L 247.082031 57.082031 L 246.769531 56.144531 L 245.300781 55.410156 L 233.011719 47.703125 L 226.566406 47.507813 L 220.507813 48.09375 L 216.601563 48.484375 L 213.085938 48.875 L 210.933594 49.070313 L 210.589844 49.726563 L 224.214844 57.71875 L 226.957031 58.042969 Z M 219.628906 153.5 L 219 154.128906 L 226.945313 160.113281 L 231.199219 159.011719 L 237.160156 156.65625 L 242.78125 153.988281 L 246.027344 151.683594 L 246.964844 150.433594 L 237.519531 143.175781 L 235.945313 142.460938 L 231.734375 146.53125 L 224.996094 151.011719 L 222.273438 152.671875 Z M 242.390625 43.015625 L 245.949219 42.628906 L 245.222656 36.078125 L 230.082031 36.957031 L 225.589844 37.542969 L 224.5 37.90625 L 224.71875 38.34375 L 226.761719 39.691406 L 232.804688 43.28125 L 233.605469 43.554688 Z M 226.371094 193.066406 L 224.113281 193.4375 L 224.328125 193.867188 L 229.289063 197.628906 L 241.023438 197.957031 L 245.378906 197.421875 L 244.875 196.917969 L 239.882813 193.15625 L 238.269531 192.175781 L 233.011719 192.675781 Z M 241.414063 93.617188 L 247.089844 90.6875 L 247.832031 75.855469 L 239.851563 75.628906 L 235.183594 76.726563 L 232.9375 77.417969 L 227.300781 80.207031 L 224.328125 82.070313 L 224.113281 82.5 L 240.226563 93.304688 Z M 234.382813 177.25 L 226.011719 178.082031 L 226.28125 178.628906 L 239.066406 188.21875 L 247.667969 187.367188 L 250.207031 186.8125 L 254.253906 186.089844 L 254.785156 185.558594 L 242.210938 175.992188 L 241.023438 175.695313 L 239.265625 176.261719 Z M 236.140625 161.414063 L 231.464844 162.976563 L 231.75 163.78125 L 241.402344 171.058594 L 243.761719 171.394531 L 251.195313 168.707031 L 253.925781 167.910156 L 257.882813 165.65625 L 262.039063 163.011719 L 262.613281 162.148438 L 262.082031 161.734375 L 250.3125 153.046875 L 245.691406 156.617188 L 240.972656 159.398438 Z M 246.847656 51.882813 L 246.203125 46.726563 L 242.195313 46.726563 L 239.402344 47.253906 L 239.910156 47.761719 L 246.082031 51.503906 Z M 247.851563 69.585938 L 247.324219 61.058594 L 236.726563 61.574219 L 231.449219 61.574219 L 231.753906 62.183594 L 241.460938 68.09375 L 246.488281 71.003906 L 247.667969 71.34375 Z M 248.859375 127.136719 L 247.589844 126.5 L 243.5625 133.28125 L 239.65625 138.164063 L 238.578125 139.601563 L 249.550781 147.832031 L 251.226563 146.492188 L 255.15625 141.679688 L 258.414063 136.796875 L 259.195313 135.234375 L 258.414063 134.453125 Z M 264.367188 121.921875 L 253.175781 113.625 L 252.726563 113.851563 L 250.152344 120.375 L 249.382813 123.125 L 257.242188 129.175781 L 260.558594 131.496094 L 261.367188 131.226563 L 262.320313 129.371094 L 264.675781 123.511719 Z M 254.332031 21.628906 L 253.722656 21.328125 L 253.753906 21.914063 L 254.71875 28.8125 L 266.011719 37.433594 L 266.617188 37.738281 L 266.597656 37.152344 L 265.636719 30.273438 Z M 265.445313 195.800781 L 267.703125 195.429688 L 267.488281 195 L 259.390625 188.933594 L 254.503906 189.746094 L 252.355469 190.546875 L 244.304688 191.621094 L 244.648438 192.304688 L 248 194.570313 L 250.785156 196.835938 L 255.089844 197.167969 L 259.195313 196.582031 Z M 256.296875 34.503906 L 255.285156 33.832031 L 255.289063 35.199219 L 255.871094 38.910156 L 256.210938 41.90625 L 267.203125 50.242188 L 267.945313 50.242188 L 267.351563 43.789063 L 266.804688 42.484375 Z M 268.3125 108.128906 L 256.230469 99.164063 L 254.949219 105.152344 L 254.082031 109.835938 L 264.4375 117.558594 L 266.050781 118.558594 L 267.398438 113.742188 Z M 257.066406 47.03125 L 256.457031 46.726563 L 256.488281 47.316406 L 257.046875 51.804688 L 257.441406 54.097656 L 267.953125 62.074219 L 269.125 62.855469 L 268.769531 58.839844 L 268.371094 55.660156 Z M 258.640625 59.511719 L 257.46875 58.730469 L 257.828125 64.703125 L 258.269531 67.960938 L 267.957031 75.359375 L 269.894531 76.546875 L 269.550781 69 L 269.152344 67.492188 Z M 258.628906 72.820313 L 257.847656 72.429688 L 258.292969 82.914063 L 269.410156 91.21875 L 270.273438 90.351563 L 269.839844 81.28125 Z M 258.625 87.679688 L 257.636719 87.300781 L 256.867188 94.984375 L 267.171875 102.710938 L 268.976563 103.824219 L 269.679688 96.109375 Z M 253.136719 172.550781 L 246.4375 174.644531 L 246.941406 175.148438 L 259.773438 184.710938 L 266.890625 182.085938 L 271.699219 179.585938 L 273.867188 178.5 L 277.292969 175.914063 L 278.683594 174.175781 L 274.042969 170.597656 L 266.03125 164.753906 L 264.835938 165.421875 L 262.136719 167.925781 L 257.484375 170.332031 Z M 264.4375 158.984375 L 265.328125 159.578125 L 268.019531 157.03125 L 271.089844 152.921875 L 275.125 146.933594 L 262.574219 137.519531 L 262.066406 138.027344 L 257.789063 144.53125 L 254.046875 148.898438 L 253.296875 150.542969 Z M 275.785156 142.929688 L 276.976563 143.28125 L 278.390625 140.710938 L 280.722656 134.285156 L 268.242188 124.921875 L 265.117188 132.898438 L 264.363281 134.039063 L 264.578125 134.472656 Z M 281.25 48.765625 L 282.523438 49.402344 L 281.734375 42.292969 L 269.90625 33.515625 L 270.671875 40.425781 L 271.699219 41.449219 Z M 282.863281 54.441406 L 271.386719 45.960938 L 272.15625 53.628906 L 272.871094 54.347656 L 282.425781 61.664063 L 283.976563 62.4375 L 283.273438 55.421875 Z M 275.445313 113.433594 L 271.847656 110.890625 L 270.1875 117.65625 L 269.394531 121.195313 L 281.546875 130.308594 L 282.074219 130.046875 L 283.054688 126.636719 L 284.273438 119.980469 Z M 275.835938 61.074219 L 272.480469 58.839844 L 272.511719 59.429688 L 273.066406 64.308594 L 273.394531 66.121094 L 284.398438 74.46875 L 285.140625 74.46875 L 284.480469 67.59375 Z M 293.273438 186.050781 L 293.5625 185.25 L 282.445313 176.851563 L 281.25 177.152344 L 279.121094 179.390625 L 275.910156 181.714844 L 271.117188 184.707031 L 263.6875 187.398438 L 263.429688 187.605469 L 268.042969 191.167969 L 272.675781 194.429688 L 279.320313 192.902344 L 284.398438 190.933594 L 290.863281 187.59375 Z M 285.140625 79.433594 L 273.511719 70.816406 L 273.902344 79.804688 L 285.90625 88.675781 L 285.570313 81.113281 Z M 274.253906 99.402344 L 273.410156 99.074219 L 272.457031 106.710938 L 273.109375 107.171875 L 284.808594 115.804688 L 285.378906 112.570313 L 285.15625 107.382813 L 283.597656 106.601563 Z M 277.398438 86.867188 L 274.207031 84.738281 L 273.648438 87.953125 L 273.902344 94.652344 L 285.605469 103.308594 L 286.222656 93.410156 Z M 279.722656 150.207031 L 278.144531 149.515625 L 274.21875 155.269531 L 271.089844 159.179688 L 269.746094 160.632813 L 268.925781 162.265625 L 280.070313 170.699219 L 281.273438 171.378906 L 283.257813 169.535156 L 284.695313 167.695313 L 287.058594 163.800781 L 290.410156 158.285156 L 282.75 152.394531 Z M 283.8125 62.746094 L 284.203125 62.746094 L 284.203125 62.355469 L 283.8125 62.355469 Z M 284.417969 136.90625 L 283.988281 136.6875 L 280.640625 144.605469 L 280.261719 146.179688 L 291.417969 154.644531 L 292.140625 154.726563 L 295.570313 145.390625 Z M 287.148438 46.257813 L 286 45.828125 L 286.6875 52.085938 L 287.171875 53.054688 L 295.320313 59.316406 L 296.777344 60.046875 L 295.988281 53.164063 L 295.144531 52.390625 Z M 288.71875 58.753906 L 287.328125 58.058594 L 287.335938 59.035156 L 288.328125 65.964844 L 298.300781 73.363281 L 297.40625 65.269531 L 292.164063 61.3125 Z M 287.011719 125.480469 L 285.332031 133.285156 L 287.582031 134.898438 L 295.714844 140.976563 L 296.511719 141.289063 L 297.097656 139.921875 L 298.675781 130.847656 L 288.308594 122.949219 L 287.496094 123.210938 Z M 289.085938 70.953125 L 288.5 70.953125 L 288.53125 71.542969 L 289.085938 76.035156 L 289.558594 78.144531 L 297.261719 83.957031 L 299.441406 85.410156 L 299.410156 84.824219 L 298.855469 79.941406 L 298.527344 78.128906 Z M 299.984375 118.695313 L 289.457031 110.898438 L 289.085938 112.765625 L 288.503906 116.085938 L 288.753906 118.878906 L 299.1875 126.582031 Z M 291.464844 84.132813 L 289.523438 82.945313 L 289.96875 91.882813 L 299.617188 99.175781 L 300.222656 99.480469 L 300.183594 98.890625 L 299.59375 90.367188 Z M 291.464844 97.417969 L 289.523438 96.230469 L 289.96875 106.734375 L 299.617188 114.023438 L 300.222656 114.328125 L 300.378906 103.898438 Z M 294.1875 161.132813 L 293.386719 160.828125 L 291.765625 163.816406 L 289.183594 167.640625 L 285.289063 172.726563 L 284.628906 174.042969 L 295.710938 182.40625 L 296.511719 182.710938 L 298.894531 180.484375 L 300.710938 178.242188 L 304.660156 172.023438 L 305.671875 170.402344 L 305.414063 169.585938 Z M 300.050781 148.628906 L 298.835938 148.019531 L 297.457031 151.253906 L 295.234375 157.378906 L 307.527344 166.601563 L 309.265625 162.59375 L 311.0625 157.039063 Z M 300.832031 56.40625 L 300.171875 56.078125 L 301.109375 63.5625 L 311.109375 70.953125 L 311.140625 70.367188 L 309.796875 60.792969 L 308.625 61.183594 L 308.628906 61.921875 L 307.4375 61.648438 Z M 301.984375 68.609375 L 301.699219 68.609375 L 302.480469 76.640625 L 308.960938 81.25 L 311.738281 83.53125 L 312.640625 83.882813 L 311.628906 75.824219 Z M 302.785156 133.777344 L 302.34375 133.558594 L 301.984375 134.648438 L 300.808594 140.507813 L 299.921875 143.808594 L 300.136719 144.242188 L 311.347656 152.691406 L 312.078125 152.769531 L 313.066406 148.917969 L 313.972656 142.253906 Z M 303.566406 81.808594 L 302.792969 81.421875 L 303.15625 85.410156 L 303.554688 88.589844 L 313.292969 96.050781 L 313.84375 96.324219 L 313.175781 89.117188 Z M 305.53125 94.683594 L 303.589844 93.496094 L 303.9375 100.261719 L 304.335938 102.554688 L 311.730469 108.164063 L 314.820313 110.167969 L 314.488281 103.777344 L 314.441406 101.167969 Z M 304.722656 122.101563 L 303.546875 121.753906 L 302.960938 126.246094 L 303.253906 129.789063 L 312.902344 137.078125 L 314.488281 137.773438 L 314.878906 133.085938 L 315.074219 129.175781 L 314.183594 129.339844 Z M 305.125 107.605469 L 304.328125 107.292969 L 303.753906 114.914063 L 304.035156 117.285156 L 313.683594 124.574219 L 315.246094 125.355469 L 314.777344 114.886719 Z M 326.632813 76.53125 L 321.820313 74.132813 L 322.636719 80.65625 L 328.453125 83.828125 Z M 324.269531 85.734375 L 323.472656 85.410156 L 323.25 88.734375 L 323.835938 90.777344 L 331.207031 94.453125 L 329.808594 88.871094 L 328.359375 88.148438 Z M 334.21875 91.664063 L 334.609375 91.664063 L 334.609375 91.273438 L 334.21875 91.273438 Z M 334.21875 91.664063 "/>
</g>
</svg>
