<?xml version="1.0" encoding="UTF-8"?>
<svg xmlns="http://www.w3.org/2000/svg" xmlns:xlink="http://www.w3.org/1999/xlink" width="360pt" height="249pt" viewBox="0 0 360 249" version="1.1">
<g id="surface213">
<path style=" stroke:none;fill-rule:evenodd;fill:rgb(99.998474%,99.998474%,99.998474%);fill-opacity:1;" d="M 7.714844 240.925781 L 7.179688 240.925781 L 7.179688 241.460938 L 7.714844 241.460938 Z M 8.25 239.324219 L 7.714844 240.394531 L 8.78125 239.859375 L 9.316406 238.789063 Z M 9.851563 237.1875 L 9.316406 238.253906 L 10.386719 237.722656 L 10.921875 236.652344 Z M 11.453125 235.050781 L 10.921875 236.117188 L 11.988281 235.585938 L 12.523438 234.515625 Z M 15.730469 230.242188 L 15.195313 230.242188 L 15.195313 230.773438 L 15.730469 230.773438 Z M 16.261719 228.636719 L 15.730469 229.707031 L 16.796875 229.171875 L 17.332031 228.105469 Z M 17.867188 226.5 L 17.332031 227.570313 L 18.402344 227.035156 L 18.933594 225.964844 Z M 25.347656 217.417969 L 24.277344 217.953125 L 24.277344 218.484375 L 24.8125 218.484375 Z M 26.414063 215.8125 L 25.347656 216.347656 L 25.347656 216.882813 L 25.882813 216.882813 Z M 26.949219 214.210938 L 26.414063 215.28125 L 28.019531 214.210938 L 28.554688 213.140625 Z M 28.96875 211.777344 L 28.5 212.714844 L 29.914063 212.1875 L 33.535156 206.527344 L 38.050781 201.148438 L 37.742188 200.53125 L 38.707031 200.050781 L 39.683594 199.070313 L 39.347656 198.394531 L 40.484375 197.824219 L 41.109375 196.578125 L 42.566406 195.269531 L 43.414063 193.085938 L 45.75 190.453125 L 46.292969 189.042969 L 45.355469 189.511719 L 42.277344 194.113281 L 38.289063 198.953125 L 38.597656 199.570313 L 37.636719 200.050781 L 36.65625 201.03125 L 36.984375 201.683594 L 34.816406 203.300781 L 34.164063 205.128906 Z M 37.101563 201.386719 L 37.636719 201.386719 L 37.636719 200.851563 L 37.101563 200.851563 Z M 38.707031 199.25 L 39.238281 199.25 L 39.238281 198.714844 L 38.707031 198.714844 Z M 52.164063 182.4375 L 52.703125 181.03125 L 51.664063 181.550781 L 48.679688 186.027344 L 50.78125 184.449219 Z M 53.132813 180.015625 L 52.597656 180.015625 L 52.597656 180.546875 L 53.132813 180.546875 Z M 54.734375 178.410156 L 54.199219 179.480469 L 55.269531 178.945313 L 55.804688 177.878906 Z M 56.339844 176.273438 L 55.804688 177.34375 L 56.871094 176.808594 L 57.40625 175.738281 Z M 57.941406 174.671875 L 57.40625 174.671875 L 57.40625 175.207031 L 57.941406 175.207031 Z M 61.148438 169.328125 L 60.613281 170.394531 L 61.679688 169.863281 L 62.214844 168.792969 Z M 62.75 167.191406 L 62.214844 168.257813 L 63.285156 167.726563 L 63.820313 166.65625 Z M 68.539063 160.601563 L 68.207031 159.9375 L 69.964844 159.175781 L 70.230469 159.175781 L 69.804688 158.320313 L 70.765625 157.839844 L 71.746094 156.859375 L 71.300781 155.96875 L 72.367188 155.96875 L 72.902344 154.902344 L 71.832031 154.367188 L 72.261719 155.222656 L 71.300781 155.703125 L 70.320313 156.683594 L 70.65625 157.359375 L 68.882813 158.191406 L 67.144531 160.484375 L 67.453125 161.097656 L 66.488281 161.578125 L 64.976563 163.09375 L 65.421875 163.984375 L 64.085938 163.984375 L 64.058594 166.003906 L 64.886719 165.585938 L 64.460938 164.734375 L 65.421875 164.25 L 66.933594 162.738281 L 66.597656 162.0625 L 67.558594 161.578125 Z M 65.421875 163.449219 L 65.957031 163.449219 L 65.957031 162.914063 L 65.421875 162.914063 Z M 65.957031 162.914063 L 66.488281 162.914063 L 66.488281 162.382813 L 65.957031 162.382813 Z M 67.558594 160.777344 L 68.09375 160.777344 L 68.09375 160.246094 L 67.558594 160.246094 Z M 69.160156 159.175781 L 69.695313 159.175781 L 69.695313 158.640625 L 69.160156 158.640625 Z M 70.765625 157.039063 L 71.300781 157.039063 L 71.300781 156.503906 L 70.765625 156.503906 Z M 73.96875 152.765625 L 72.902344 154.367188 L 74.503906 153.296875 L 75.039063 152.230469 Z M 75.574219 150.625 L 75.039063 151.695313 L 76.109375 151.160156 L 76.640625 150.09375 Z M 76.707031 148.230469 L 76.863281 149.410156 L 78.246094 148.488281 L 77.816406 147.632813 L 79.3125 146.886719 L 78.898438 146.054688 L 79.847656 144.75 L 81.613281 143.464844 L 84.65625 139.40625 L 83.347656 140.058594 L 82.457031 140.214844 L 77.070313 147.132813 Z M 77.175781 148.488281 L 77.710938 148.488281 L 77.710938 147.953125 L 77.175781 147.953125 Z M 78.246094 146.886719 L 78.78125 146.886719 L 78.78125 146.351563 L 78.246094 146.351563 Z M 85.726563 137.800781 L 84.65625 138.335938 L 84.65625 138.871094 L 85.191406 138.871094 Z M 86.792969 134.597656 L 86.261719 135.664063 L 87.328125 135.132813 L 87.863281 134.0625 Z M 88.398438 132.460938 L 87.863281 133.527344 L 88.933594 132.992188 L 88.933594 132.460938 Z M 89.464844 130.855469 L 88.933594 131.925781 L 90.238281 131.269531 L 90.949219 131.152344 L 90.535156 130.320313 Z M 91.601563 129.253906 L 91.070313 130.320313 L 92.136719 129.789063 L 92.671875 128.71875 Z M 97.363281 122.066406 L 97.0625 121.46875 L 98.550781 120.972656 L 103.191406 115.035156 L 111.039063 103.960938 L 112.640625 101.289063 L 122.714844 88.40625 L 123.128906 87.574219 L 120.664063 89.546875 L 118.183594 92.691406 L 112.28125 101.148438 L 109.035156 105.382813 L 108.371094 106.636719 L 102.726563 114.242188 L 101.753906 113.757813 L 102.171875 114.585938 L 101.542969 115.789063 L 100.6875 115.359375 L 101.113281 116.214844 L 100.152344 116.695313 L 99.171875 117.675781 L 99.511719 118.351563 L 98.550781 118.835938 L 97.570313 119.8125 L 97.910156 120.492188 L 96.945313 120.972656 L 95.96875 121.949219 L 96.304688 122.628906 L 95.34375 123.109375 L 93.828125 124.621094 L 94.273438 125.511719 L 92.9375 125.511719 L 93.140625 126.839844 L 92.777344 128.132813 L 93.5 127.769531 L 95.710938 124.769531 Z M 93.207031 126.582031 L 93.742188 126.582031 L 93.742188 126.046875 L 93.207031 126.046875 Z M 94.273438 124.980469 L 94.808594 124.980469 L 94.808594 124.445313 L 94.273438 124.445313 Z M 94.808594 124.445313 L 95.34375 124.445313 L 95.34375 123.910156 L 94.808594 123.910156 Z M 95.34375 123.910156 L 95.878906 123.910156 L 95.878906 123.375 L 95.34375 123.375 Z M 96.414063 122.308594 L 96.945313 122.308594 L 96.945313 121.773438 L 96.414063 121.773438 Z M 98.015625 120.167969 L 98.550781 120.167969 L 98.550781 119.636719 L 98.015625 119.636719 Z M 98.550781 119.636719 L 99.085938 119.636719 L 99.085938 119.101563 L 98.550781 119.101563 Z M 99.617188 118.03125 L 100.152344 118.03125 L 100.152344 117.5 L 99.617188 117.5 Z M 100.152344 117.5 L 100.6875 117.5 L 100.6875 116.964844 L 100.152344 116.964844 Z M 123.664063 85.972656 L 123.128906 87.042969 L 124.199219 86.507813 L 124.730469 85.4375 Z M 125.265625 83.835938 L 124.730469 84.90625 L 125.800781 84.371094 L 126.335938 83.300781 Z M 126.867188 81.699219 L 126.335938 82.765625 L 127.402344 82.234375 L 127.9375 81.164063 Z M 128.472656 79.5625 L 127.9375 80.628906 L 129.007813 80.09375 L 129.539063 79.027344 Z M 130.074219 77.421875 L 129.539063 78.492188 L 130.609375 77.957031 L 131.144531 76.890625 Z M 134.347656 72.082031 L 131.144531 76.355469 L 132.746094 75.285156 L 135.953125 71.011719 Z M 138.722656 67.558594 L 139.265625 66.148438 L 138.167969 66.699219 L 135.863281 70.535156 L 137.332031 69.558594 Z M 139.691406 64.601563 L 139.160156 65.667969 L 140.226563 65.132813 L 140.761719 64.066406 Z M 140.949219 61.046875 L 141.777344 61.65625 L 140.960938 63.398438 L 142.140625 62.609375 L 143.929688 60.0625 L 143.585938 58.914063 L 144.347656 58.40625 L 149.121094 53.035156 L 152.382813 48.570313 L 151.980469 46.699219 L 154.121094 44.296875 L 155.320313 42.492188 L 153.273438 43.613281 L 145.449219 54.152344 L 144.382813 56.289063 L 143.847656 57.414063 Z M 141.828125 61.394531 L 142.363281 61.394531 L 142.363281 60.859375 L 141.828125 60.859375 Z M 142.363281 60.324219 L 142.898438 60.324219 L 142.898438 59.792969 L 142.363281 59.792969 Z M 142.898438 59.792969 L 143.433594 59.792969 L 143.433594 59.257813 L 142.898438 59.257813 Z M 150.378906 49.640625 L 150.914063 49.640625 L 150.914063 49.105469 L 150.378906 49.105469 Z M 150.914063 49.105469 L 151.449219 49.105469 L 151.449219 48.570313 L 150.914063 48.570313 Z M 151.449219 48.570313 L 151.980469 48.570313 L 151.980469 48.035156 L 151.449219 48.035156 Z M 155.617188 40.609375 L 155.082031 42.210938 L 156.363281 41.570313 L 156.898438 39.96875 Z M 157.324219 38.417969 L 156.792969 39.488281 L 157.859375 38.953125 L 158.394531 37.882813 Z M 159.222656 36.398438 L 158.394531 36.816406 L 158.632813 37.230469 L 159.460938 36.816406 Z M 160.78125 34.578125 L 162.1875 34.035156 L 161.601563 35.210938 L 162.90625 35.867188 L 162.859375 34.488281 L 163.738281 33.609375 L 164.71875 32.898438 L 164.273438 32.007813 L 165.339844 32.007813 L 166.410156 30.402344 L 165.234375 30.992188 L 165.796875 29.296875 L 166.941406 29.867188 L 167.476563 28.800781 L 166.300781 29.386719 L 166.867188 27.691406 L 168.011719 28.265625 L 169.082031 26.664063 L 167.277344 27.863281 L 168.441406 25.539063 L 170.976563 24.640625 L 174.304688 20.011719 L 173.996094 19.394531 L 175.492188 18.648438 L 175.066406 17.792969 L 176.027344 17.3125 L 177.214844 16.273438 L 177.417969 14.535156 L 175.492188 15.976563 L 175.921875 16.832031 L 174.425781 17.578125 L 174.839844 18.410156 L 173.476563 19.476563 L 170.964844 22.839844 L 169.972656 23.277344 L 169.4375 24.347656 L 168.609375 24.800781 L 163.214844 31.203125 L 163.585938 32.320313 L 160.90625 33.824219 L 159.460938 35.746094 Z M 162.132813 34.144531 L 162.667969 34.144531 L 162.667969 33.609375 L 162.132813 33.609375 Z M 162.132813 35.210938 L 162.667969 35.210938 L 162.667969 34.675781 L 162.132813 34.675781 Z M 162.667969 33.609375 L 163.738281 33.609375 L 163.738281 33.074219 L 162.667969 33.074219 Z M 163.738281 32.007813 L 164.273438 32.007813 L 164.273438 31.472656 L 163.738281 31.472656 Z M 163.738281 33.074219 L 164.273438 33.074219 L 164.273438 32.539063 L 163.738281 32.539063 Z M 164.804688 31.472656 L 165.339844 31.472656 L 165.339844 30.9375 L 164.804688 30.9375 Z M 170.148438 21.320313 L 169.613281 22.386719 L 170.683594 21.855469 L 171.21875 20.785156 Z M 171.753906 19.183594 L 171.21875 20.25 L 172.285156 19.714844 L 172.820313 18.648438 Z M 173.355469 17.046875 L 172.820313 18.113281 L 173.890625 17.578125 L 174.425781 16.511719 Z M 176.027344 16.511719 L 176.5625 16.511719 L 176.5625 15.976563 L 176.027344 15.976563 Z M 176.5625 15.976563 L 177.09375 15.976563 L 177.09375 15.441406 L 176.5625 15.441406 Z M 178.164063 12.769531 L 177.628906 13.839844 L 178.699219 13.304688 L 179.234375 12.234375 Z M 179.765625 10.632813 L 179.234375 11.703125 L 180.300781 11.167969 L 180.835938 10.097656 Z M 182.023438 8.199219 L 182.707031 10.097656 L 183.597656 10.097656 L 184.148438 11.753906 L 182.972656 11.167969 L 183.507813 12.234375 L 184.683594 11.648438 L 185.824219 13.929688 L 184.574219 13.304688 L 185.644531 14.90625 L 186.445313 14.90625 L 186.492188 16.125 L 188.09375 17.191406 L 188.09375 18.261719 L 189.800781 19.421875 L 189.332031 20.359375 L 191.710938 21.507813 L 190.589844 20.554688 L 190.988281 19.449219 L 189.089844 18.527344 L 189.074219 16.363281 L 187.46875 15.292969 L 187.394531 14.59375 L 184.960938 10.945313 L 184.492188 9.816406 L 182.199219 7.308594 L 181.371094 6.894531 Z M 187.503906 14.445313 L 185.511719 13.707031 L 186.714844 14.90625 L 187.246094 14.90625 Z M 186.457031 15.902344 L 188.449219 16.644531 L 187.246094 15.441406 L 186.714844 15.441406 Z M 188.316406 17.046875 L 188.851563 17.046875 L 188.851563 16.511719 L 188.316406 16.511719 Z M 188.316406 18.113281 L 188.851563 18.113281 L 188.851563 17.578125 L 188.316406 17.578125 Z M 189.917969 20.25 L 190.453125 20.25 L 190.453125 19.714844 L 189.917969 19.714844 Z M 192.058594 22.921875 L 190.988281 22.386719 L 191.523438 23.457031 L 192.589844 23.992188 Z M 197.398438 30.402344 L 196.8125 29.226563 L 198.515625 29.796875 L 197.507813 31.3125 L 198.46875 32.273438 L 199.296875 32.660156 L 199.316406 33.757813 L 200.917969 34.824219 L 200.917969 35.894531 L 202.625 37.054688 L 202.296875 37.707031 L 202.921875 38.328125 L 203.574219 38.003906 L 204.878906 39.753906 L 207.207031 42.503906 L 207.328125 43.910156 L 209.035156 45.070313 L 208.710938 45.71875 L 209.6875 46.699219 L 210.757813 46.96875 L 212.050781 47.117188 L 213.429688 48.035156 L 212.359375 46.433594 L 211.183594 47.019531 L 210.023438 44.695313 L 211.828125 45.898438 L 210.90625 44.519531 L 209.6875 44.296875 L 207.363281 43.949219 L 208.621094 42.691406 L 210.222656 43.761719 L 209.304688 42.378906 L 207.914063 42.363281 L 203.003906 36.761719 L 201.78125 36.066406 L 202.207031 35.210938 L 204.347656 36.816406 L 203.398438 34.917969 L 199.644531 30.1875 L 198.707031 29.75 L 198.691406 28.652344 L 197.085938 27.582031 L 197.085938 26.515625 L 195.484375 25.445313 L 195.484375 24.378906 L 193.777344 23.21875 L 194.195313 22.386719 L 192.589844 21.320313 L 193.246094 22.628906 L 193.421875 23.578125 L 194.550781 24.167969 L 193.660156 25.058594 L 192.589844 24.527344 L 193.660156 26.128906 L 194.460938 26.128906 L 194.507813 27.34375 L 196.210938 28.503906 L 195.796875 29.335938 Z M 195.519531 25.667969 L 193.527344 24.925781 L 194.726563 26.128906 L 195.261719 26.128906 Z M 194.726563 25.058594 L 195.261719 25.058594 L 195.261719 24.527344 L 194.726563 24.527344 Z M 194.472656 27.125 L 196.464844 27.863281 L 195.261719 26.664063 L 194.726563 26.664063 Z M 197.121094 26.734375 L 195.128906 25.996094 L 196.332031 27.195313 L 196.867188 27.195313 Z M 196.074219 28.191406 L 198.066406 28.933594 L 196.867188 27.730469 L 196.332031 27.730469 Z M 196.332031 29.335938 L 196.867188 29.335938 L 196.867188 28.800781 L 196.332031 28.800781 Z M 197.933594 29.335938 L 198.46875 29.335938 L 198.46875 28.800781 L 197.933594 28.800781 Z M 199.792969 31.546875 L 198.203125 30.9375 L 197.675781 31.398438 L 199.269531 32.007813 Z M 200.070313 31.472656 L 199.539063 30.402344 L 199.003906 30.402344 L 199.539063 31.472656 Z M 200.84375 32.660156 L 199.539063 32.007813 L 199.296875 32.421875 L 200.605469 33.074219 Z M 199.28125 33.535156 L 201.273438 34.277344 L 200.070313 33.074219 L 199.539063 33.074219 Z M 202.207031 35.210938 L 201.675781 34.144531 L 201.140625 34.144531 L 201.675781 35.210938 Z M 201.140625 35.746094 L 201.675781 35.746094 L 201.675781 35.210938 L 201.140625 35.210938 Z M 202.742188 37.882813 L 203.277344 37.882813 L 203.277344 37.347656 L 202.742188 37.347656 Z M 207.550781 40.019531 L 207.019531 40.019531 L 207.550781 41.089844 L 208.085938 41.089844 Z M 210.222656 46.433594 L 209.6875 45.363281 L 209.15625 45.363281 L 209.6875 46.433594 Z M 211.605469 48.421875 L 210.222656 47.5 L 211.144531 48.882813 L 212.359375 49.105469 L 213.652344 49.253906 L 215.03125 50.171875 L 214.113281 48.792969 L 212.894531 48.570313 Z M 217.246094 56.839844 L 218.550781 57.269531 L 218.550781 58.335938 L 220.152344 59.40625 L 220.152344 60.472656 L 221.757813 61.542969 L 221.757813 62.609375 L 223.460938 63.769531 L 223.046875 64.601563 L 223.878906 64.183594 L 225.839844 66.441406 L 229.949219 72.878906 L 231.375 73.832031 L 231.375 74.898438 L 233.082031 76.058594 L 232.664063 76.890625 L 233.734375 76.355469 L 234.683594 78.253906 L 236.109375 79.976563 L 236.855469 80.375 L 239.332031 83.75 L 240.679688 84.371094 L 240.265625 83.539063 L 233.304688 74.539063 L 232.371094 74.097656 L 232.351563 73 L 230.75 71.933594 L 230.75 70.863281 L 229.148438 69.796875 L 229.148438 68.726563 L 227.542969 67.65625 L 227.542969 66.589844 L 225.941406 65.519531 L 225.941406 64.453125 L 224.339844 63.382813 L 224.339844 62.316406 L 222.734375 61.246094 L 222.734375 60.175781 L 221.132813 59.109375 L 221.132813 58.039063 L 219.425781 56.878906 L 219.753906 56.230469 L 219.066406 55.398438 L 216.140625 54.371094 L 216.636719 53.378906 L 218.238281 54.449219 L 217.652344 53.273438 L 214.535156 52.234375 L 215.03125 51.242188 L 216.101563 51.777344 L 215.6875 50.945313 L 214.5 50.707031 L 213.207031 50.558594 L 211.828125 49.640625 L 212.746094 51.019531 Z M 214.738281 51.359375 L 213.429688 50.707031 L 213.964844 51.777344 L 214.5 51.777344 Z M 216.101563 53.914063 L 215.566406 52.84375 L 215.03125 52.84375 L 214.792969 53.257813 Z M 217.703125 56.050781 L 217.171875 54.980469 L 216.636719 54.980469 L 216.398438 55.398438 Z M 217.703125 56.585938 L 218.238281 56.585938 L 218.238281 56.050781 L 217.703125 56.050781 Z M 219.308594 56.585938 L 218.773438 55.515625 L 218.238281 55.515625 L 218 55.929688 Z M 220.082031 58.308594 L 218.773438 57.652344 L 218.535156 58.070313 L 219.839844 58.722656 Z M 221.148438 58.308594 L 219.839844 57.652344 L 220.375 58.722656 L 220.910156 58.722656 Z M 221.445313 60.859375 L 220.910156 59.792969 L 220.375 59.792969 L 220.136719 60.207031 Z M 222.753906 60.445313 L 221.445313 59.792969 L 221.207031 60.207031 L 222.511719 60.859375 Z M 223.285156 62.582031 L 221.980469 61.929688 L 221.738281 62.34375 L 223.046875 62.996094 Z M 224.117188 62.996094 L 223.582031 61.929688 L 223.046875 61.929688 L 223.582031 62.996094 Z M 225.71875 65.132813 L 225.183594 64.066406 L 224.652344 64.066406 L 224.410156 64.480469 Z M 227.320313 67.273438 L 226.789063 66.203125 L 226.253906 66.203125 L 226.015625 66.617188 Z M 228.925781 69.410156 L 228.390625 68.339844 L 227.855469 68.339844 L 227.617188 68.753906 Z M 230.765625 71.132813 L 229.460938 70.476563 L 229.992188 71.546875 L 230.527344 71.546875 Z M 229.738281 72.542969 L 231.730469 73.28125 L 230.527344 72.082031 L 229.992188 72.082031 Z M 231.597656 73.683594 L 232.132813 73.683594 L 232.132813 73.148438 L 231.597656 73.148438 Z M 232.90625 74.871094 L 231.597656 74.21875 L 232.132813 75.285156 L 232.664063 75.285156 Z M 240.457031 85.289063 L 239.078125 84.371094 L 239.996094 85.75 L 240.976563 85.851563 L 242.285156 86.507813 L 241.628906 85.199219 Z M 241.988281 87.160156 L 240.679688 86.507813 L 245.648438 93.132813 L 249.632813 98.566406 L 254.265625 105.347656 L 255.328125 105.355469 L 256.710938 106.277344 L 255.640625 104.675781 L 254.839844 104.675781 L 254.796875 103.457031 L 253.121094 102.316406 L 253.46875 101.199219 L 246.4375 92.144531 L 245.175781 91.167969 L 245.175781 90.097656 L 243.472656 88.941406 L 243.796875 88.289063 L 242.816406 87.308594 Z M 243.351563 88.644531 L 242.816406 87.574219 L 242.285156 87.574219 L 242.816406 88.644531 Z M 245.195313 90.367188 L 243.886719 89.714844 L 244.421875 90.78125 L 244.953125 90.78125 Z M 254.8125 103.726563 L 253.503906 103.070313 L 254.039063 104.140625 L 254.574219 104.140625 Z M 256.175781 106.8125 L 255.105469 106.277344 L 255.640625 107.347656 L 256.710938 107.878906 Z M 257.777344 108.949219 L 256.710938 108.414063 L 257.246094 109.484375 L 258.3125 110.019531 Z M 259.382813 111.085938 L 258.3125 110.550781 L 258.847656 111.621094 L 259.914063 112.15625 Z M 260.984375 113.222656 L 259.914063 112.6875 L 260.449219 113.757813 L 261.519531 114.292969 Z M 262.585938 115.359375 L 261.519531 114.828125 L 262.054688 115.894531 L 263.121094 116.429688 Z M 263.121094 113.757813 L 262.585938 113.757813 L 262.585938 114.292969 L 263.121094 114.292969 Z M 264.191406 115.359375 L 263.121094 114.828125 L 263.65625 115.894531 L 264.726563 116.429688 Z M 264.191406 117.5 L 263.121094 116.964844 L 263.65625 118.03125 L 264.726563 118.566406 Z M 265.792969 117.5 L 264.726563 116.964844 L 265.257813 118.03125 L 266.328125 118.566406 Z M 271.378906 127.230469 L 272.816406 127.765625 L 271.820313 126.269531 L 269.1875 123.03125 L 268.644531 121.59375 L 267.503906 121.023438 L 267.984375 120.0625 L 266.046875 119.1875 L 264.875 119.324219 L 265.792969 120.703125 L 266.863281 120.703125 L 266.328125 121.773438 L 269.3125 123.761719 Z M 267.652344 120.242188 L 265.660156 119.5 L 266.863281 120.703125 L 267.398438 120.703125 Z M 267.929688 122.308594 L 267.398438 121.238281 L 266.863281 121.238281 L 266.625 121.652344 Z M 273.007813 130.320313 L 275.011719 130.988281 L 273.988281 129.964844 L 274.34375 129.253906 L 272.960938 128.332031 Z M 273.273438 129.789063 L 273.808594 129.789063 L 273.808594 129.253906 L 273.273438 129.253906 Z M 275.410156 131.925781 L 274.34375 131.390625 L 274.878906 132.460938 L 275.945313 132.992188 Z M 277.015625 134.0625 L 275.945313 133.527344 L 276.480469 134.597656 L 277.546875 135.132813 Z M 278.617188 136.199219 L 277.546875 135.664063 L 278.082031 136.734375 L 279.152344 137.269531 Z M 284.789063 143.5625 L 283.855469 143.09375 L 284.386719 144.503906 L 289.570313 151.160156 L 290.371094 151.160156 L 289.957031 150.332031 Z M 293.578125 156.503906 L 293.042969 156.503906 L 293.042969 157.039063 L 293.578125 157.039063 Z M 294.929688 158.191406 L 293.578125 157.574219 L 293.992188 158.402344 L 302.554688 169.542969 L 303.492188 169.980469 L 303.507813 171.078125 L 305.113281 172.148438 L 305.113281 173.214844 L 306.816406 174.375 L 306.402344 175.207031 L 309.609375 177.34375 L 308.539063 175.738281 L 307.472656 175.738281 L 307.886719 174.910156 L 306.769531 172.859375 L 303.5625 168.585938 L 300.765625 164.933594 L 299.695313 164.398438 L 299.679688 163.300781 L 297.972656 162.144531 L 298.296875 161.492188 L 297.675781 160.867188 L 297.023438 161.195313 Z M 297.320313 161.847656 L 297.851563 161.847656 L 297.851563 161.3125 L 297.320313 161.3125 Z M 299.695313 163.570313 L 298.386719 162.914063 L 298.148438 163.332031 L 299.457031 163.984375 Z M 302.660156 169.328125 L 303.195313 169.328125 L 303.195313 168.792969 L 302.660156 168.792969 Z M 305.039063 171.050781 L 303.730469 170.394531 L 303.492188 170.8125 L 304.800781 171.464844 Z M 306.402344 173.601563 L 305.867188 172.535156 L 305.332031 172.535156 L 305.09375 172.949219 Z M 306.9375 175.207031 L 307.472656 175.207031 L 307.472656 174.671875 L 306.9375 174.671875 Z M 310.144531 177.878906 L 309.609375 177.878906 L 309.609375 178.410156 L 310.144531 178.410156 Z M 311.210938 178.410156 L 310.675781 178.410156 L 310.675781 178.945313 L 311.210938 178.945313 Z M 311.210938 179.480469 L 310.796875 180.308594 L 311.507813 180.429688 L 312.8125 181.082031 L 312.28125 180.015625 Z M 314.417969 182.6875 L 312.8125 181.617188 L 313.46875 182.925781 L 313.617188 183.753906 L 323.179688 196.738281 L 325.1875 198.242188 L 321.199219 192.628906 L 320.496094 191.410156 L 315.367188 184.585938 L 314.003906 183.515625 Z M 334.722656 210.472656 L 333.652344 209.9375 L 334.1875 211.003906 L 335.257813 211.539063 Z M 336.324219 212.609375 L 335.257813 212.074219 L 335.789063 213.140625 L 336.859375 213.675781 Z M 337.925781 214.746094 L 336.859375 214.210938 L 337.394531 215.28125 L 338.460938 215.8125 Z M 339.53125 216.882813 L 338.460938 216.347656 L 338.996094 217.417969 L 340.066406 217.953125 Z M 341.132813 219.019531 L 340.066406 218.484375 L 340.597656 219.554688 L 341.667969 220.089844 Z M 342.738281 221.15625 L 341.667969 220.621094 L 342.203125 221.691406 L 343.269531 222.226563 Z M 344.339844 223.292969 L 343.269531 222.761719 L 343.804688 223.828125 L 344.875 224.363281 Z M 345.941406 225.433594 L 344.875 224.898438 L 345.40625 225.964844 L 346.476563 226.5 Z M 347.546875 227.570313 L 346.476563 227.035156 L 347.011719 228.105469 L 348.078125 228.636719 Z M 349.148438 229.707031 L 348.078125 229.171875 L 348.613281 230.242188 L 349.683594 230.773438 Z M 350.75 231.84375 L 349.683594 231.308594 L 350.21875 232.378906 L 351.285156 232.914063 Z M 351.820313 233.445313 L 351.285156 233.445313 L 351.285156 233.980469 L 351.820313 233.980469 Z M 351.820313 233.445313 "/>
</g>
</svg>
