<svg version="1.1" xmlns="http://www.w3.org/2000/svg" xmlns:xlink="http://www.w3.org/1999/xlink" width="800" height="800"><defs/><g transform="scale(2,2)"><g id="background-2089380d"></g><g id="background-images-2089380d"/><g id="graphpaper-2089380d"><g id="axis-2089380d"><g><g><path fill="none" stroke="rgb(0,0,0)" class="dcg-svg-tickmark" paint-order="fill stroke markers" d="" stroke-opacity="1" stroke-miterlimit="2" stroke-width="1.5" stroke-dasharray=""/></g></g></g></g><g id="expressions-2089380d"><g id="sketch-2089380d"><title>Expression 99</title><path fill="#ffffff" stroke="none" class="dcg-svg-region" paint-order="stroke fill markers" d=" M 349.5 299.5 L 349.5 299.47999933330664 L 349.5 299.4599946658132 L 349.5 299.4399819935176 L 349.5 299.419957306009 L 349.5 299.3999165832489 L 349.5 299.37985579233737 L 349.5 299.359770884256 L 349.5 299.33965779058383 L 349.5 299.31951242018044 L 349.5 299.29933065582907 L 349.5 299.27910835083594 L 349.5 299.2588413255774 L 349.5 299.2385253639911 L 349.5 299.21815621000275 L 349.5 299.1977295638834 L 349.5 299.17724107852956 L 349.5 299.1566863556597 L 349.5 299.1360609419196 L 349.5 299.11536032488914 L 349.5 299.0945799289827 L 349.5 299.0737151112347 L 349.5 299.0527611569626 L 349.5 299.0317132752971 L 349.5 299.01056659457106 L 349.5 298.98931615755794 L 349.5 298.96795691654745 L 349.5 298.9464837282499 L 349.5 298.92489134851604 L 349.5 298.90317442686114 L 349.5 298.88132750078074 L 349.5 298.85934498984415 L 349.5 298.83722118955154 L 349.5 298.8149502649399 L 349.5 298.79252624392177 L 349.5 298.76994301033915 L 349.5 298.747194296716 L 349.5 298.7242736766883 L 349.5 298.7011745570935 L 349.5 298.6778901696956 L 349.5 298.6544135625237 L 349.5 298.6307375908002 L 349.5 298.60685490743083 L 349.5 298.58275795302893 L 349.5 298.5584389454448 L 349.5 298.53388986876683 L 349.5 298.5091024617609 L 349.5 298.48406820571023 L 349.5 298.4587783116175 L 349.5 298.4332237067256 L 349.5 298.4073950203124 L 349.5 298.3812825687101 L 349.5 298.3548763394966 L 349.5 298.328165974803 L 349.5 298.30114075367504 L 349.5 298.2737895734237 L 349.5 298.24610092989457 L 349.5 298.2180628965777 L 349.5 298.18966310247697 L 349.5 298.1608887086494 L 349.5 298.1317263833166 L 349.5 298.10216227544527 L 349.5 298.0721819866815 L 349.5 298.0417705415181 L 349.5 298.01091235555805 L 349.5 297.97959120173266 L 349.5 297.9477901743127 L 349.5 297.91549165054346 L 349.5 297.88267724971485 L 349.5 297.84932778946194 L 349.5 297.8154232390739 L 349.5 297.7809426695661 L 349.5 297.7458642002503 L 349.5 297.71016494150837 L 349.5 297.67382093345145 L 349.5 297.63680708011185 L 349.5 297.5990970787824 L 349.5 297.560663344077 L 349.5 297.5214769262468 L 348.12576333113327 295.667684441511 L 345.18219009757115 291.7429201300949 L 342.29524559122933 287.89366078830574 L 339.4627501552822 284.11700020704296 L 336.6826269676304 280.41016929017394 L 333.9528958786516 276.7705278382021 L 331.27166768280176 273.19555691040233 L 328.63713878872153 269.6828517182953 L 326.04758625574914 266.2301150076656 L 323.5013631676611 262.8351508902148 L 320.9968943170792 259.4958590894389 L 318.5326721763476 256.21022956846343 L 316.1072531328044 252.97633751040584 L 313.71925396829346 249.79233862439128 L 311.3673485644942 246.6564647526589 L 309.05026481721177 243.56701975628232 L 306.7667817441908 240.52237565892105 L 304.5157267722987 237.5209690297316 L 302.2959731910908 234.56129758812108 L 300.106437760829 231.64191701443872 L 297.94607846398674 228.76143795198226 L 295.8138923901496 225.91852318686614 L 293.7089137450183 223.1118849933577 L 291.6302119749468 220.34028263326238 L 289.57688999911386 217.60251999881848 L 287.54808254202965 214.89744338937288 L 285.5429545596362 212.22393941284827 L 283.5606997527636 209.58093300368475 L 281.6005391621715 206.96738554956204 L 279.6617198398288 204.3822931197717 L 277.743513591474 201.82468478863203 L 275.84521578585964 199.29362104781288 L 273.96614422640965 196.78819230187958 L 272.1056380813238 194.307517441765 L 270.2630568684394 191.8507424912525 L 268.43777949141884 189.41703932189176 L 266.62920332406543 187.0056044320872 L 264.8367433397883 184.61565778638445 L 263.05983128343917 182.24644171125223 L 261.2979148829258 179.89721984390104 L 259.55045709818233 177.5672761309098 L 257.8169354052307 175.255913873641 L 256.09684111321616 172.96245481762153 L 254.38967871243386 170.68623828324516 L 252.69496525149034 168.42662033532045 L 251.01222974185643 166.1829729891419 L 249.34101258817927 163.9546834509057 L 247.68086504281825 161.74115339042436 L 246.03134868316212 159.5417982442162 L 244.39203491037136 157.3560465471618 L 242.76250446826782 155.18333929102377 L 241.14234698116874 153.023129308225 L 239.53116050952858 150.87488067937142 L 237.92855112231777 148.73806816309036 L 236.33413248512554 146.612176646834 L 234.747525463027 144.4967006173693 L 233.16835773730892 142.39114364974523 L 231.5962634351917 140.29501791358894 L 230.0308827717317 138.20784369564223 L 228.47186170312716 136.12914893750286 L 226.91885159068872 134.05846878758496 L 225.37150887477003 131.99534516636004 L 223.8294947579868 129.93932634398237 L 222.29247489708115 127.88996652944155 L 220.76011910281687 125.84682547042246 L 219.23210104731447 123.80946806308594 L 217.70809797826107 121.77746397101475 L 216.18779043944778 119.75038725259702 L 214.67086199710968 117.72781599614626 L 213.15699897155963 115.70933196207949 L 211.6458901736232 113.69452023149762 L 210.13722664539785 111.68296886053048 L 208.63070140487005 109.6742685398267 L 207.12600919393793 107.66801225858393 L 205.62284622939586 105.6637949725278 L 204.12090995644613 103.6612132752615 L 202.61989880431094 101.65986507241456 L 201.11951194352375 99.65934925803168 L 199.61944904448347 97.65926539264461 L 198.11941003686002 99.34078661752 L 196.6190948694405 101.341206840746 L 195.11820327000828 103.34239563998898 L 193.61643450484587 105.34475399353886 L 192.11348713745247 107.34868381673004 L 190.60905878606403 109.35458828524798 L 189.1028458795606 111.36287216058588 L 187.59454341134136 113.37394211821152 L 186.08384469074022 115.38820707901306 L 184.57044109154964 117.40607854460052 L 183.05402179721048 119.42797093705269 L 181.5342735422161 121.45430194371187 L 180.01088034926792 123.48549286764273 L 178.4835232617063 125.5219689843916 L 176.95188007072719 127.56415990569707 L 175.41562503687865 129.61249995082846 L 173.8744286053142 131.66742852624776 L 172.3279571142603 133.72939051431962 L 170.7758724961354 135.79883667181946 L 169.21783197073393 137.87622403902145 L 167.65348772986422 139.96201636018105 L 166.08248661280305 142.05668451626258 L 164.50446977189833 144.1607069708022 L 162.9190723276225 146.27457022983668 L 161.3259230123416 148.39876931687786 L 159.72464380203124 150.53380826395835 L 158.11484953512814 152.68020061982915 L 156.49614751766447 154.83846997644739 L 154.86813711378448 157.009150514954 L 153.23040932069412 159.1927875724078 L 151.58254632703867 161.38993823061512 L 149.92412105364713 163.60117192847048 L 148.25469667551798 165.82707109930936 L 146.57382612385356 168.06823183486193 L 144.88105156687857 170.32526457749526 L 143.17590386809832 172.5987948425356 L 141.4579020205689 174.8894639725748 L 139.7265525556598 177.19792992578695 L 137.98134892469116 179.5248681004118 L 136.22177085172194 181.87097219770408 L 134.44728365565066 184.23695512579908 L 132.65733753966686 186.62354994711086 L 130.85136684595713 189.03151087205714 L 129.0287892734271 191.46161430209725 L 127.18900505604135 193.9146599252782 L 125.3313960992187 196.3914718677084 L 123.45532507153195 198.89289990462407 L 121.56013444876929 201.4198207349743 L 119.64514550719349 203.973139323742 L 117.70965726260783 206.55379031652288 L 115.75294535157984 209.1627395312269 L 113.7742608509038 211.8009855321283 L 111.77282903108029 214.46956129189294 L 109.74784803927147 217.16953594763802 L 107.69848750683083 219.90201665755887 L 105.6238870761294 222.66815056516077 L 103.52315484097299 225.46912687870264 L 101.39536569445355 228.30617907406196 L 99.2395595775735 231.18058722990202 L 97.05473962143988 234.09368050474683 L 94.8398701752225 237.04683976637 L 92.5938747114236 240.04150038476854 L 90.31563359928091 243.07915520095878 L 88.0039817363505 246.161357684866 L 85.65770602744277 249.28972529674297 L 83.27554269914617 252.4659430678051 L 80.85617443712356 255.6917674171686 L 78.39822733222385 258.96903022370157 L 75.90026762018114 262.2996431730918 L 73.36079819828295 265.6856024022894 L 70.77825490084373 269.12899346554167 L 68.15100251361547 272.6319966485127 L 65.4773305053833 276.1968926594889 L 62.755448452897475 279.82606872947 L 59.98348113297865 283.52202515602846 L 57.15946325304847 287.2873823292687 L 54.281333788478506 291.1248882820287 L 51.34692989194757 295.0374268107366 L 49.5 297.51516440414514 L 49.5 297.55447346604234 L 49.5 297.5930251024196 L 49.5 297.6308484882708 L 49.5 297.6679714206532 L 49.5 297.70442040133355 L 49.5 297.7402207136093 L 49.5 297.7753964937805 L 49.499999999999964 297.80997079770447 L 49.50000000000002 297.8439656628233 L 49.5 297.87740216602333 L 49.5 297.91030047764923 L 49.5 297.9426799119713 L 49.5 297.9745589743753 L 49.499999999999964 298.00595540552274 L 49.5 298.03688622270715 L 49.5 298.0673677586159 L 49.5 298.09741569768437 L 49.5 298.127045110219 L 49.5 298.15627048444924 L 49.5 298.1851057566544 L 49.5 298.2135643395023 L 49.50000000000002 298.2416591487229 L 49.5 298.2694026282336 L 49.5 298.2968067738205 L 49.5 298.3238831554752 L 49.5 298.3506429384761 L 49.5 298.37709690329876 L 49.5 298.4032554644331 L 49.5 298.42912868817723 L 49.5 298.4547263094779 L 49.5 298.4800577478748 L 49.5 298.50513212261 L 49.5 298.5299582669534 L 49.5 298.5545447417939 L 49.50000000000002 298.57889984854387 L 49.5 298.60303164139714 L 49.5 298.6269479389831 L 49.50000000000002 298.6506563354524 L 49.5 298.67416421103013 L 49.5 298.6974787420674 L 49.5 298.72060691062404 L 49.5 298.7435555136085 L 49.5 298.76633117150294 L 49.5 298.78894033669764 L 49.5 298.8113893014587 L 49.5 298.83368420555047 L 49.5 298.85583104353327 L 49.5 298.87783567175615 L 49.5 298.89970381506237 L 49.5 298.92144107322497 L 49.5 298.9430529271287 L 49.5 298.9645447447128 L 49.5 298.98592178669037 L 49.5 299.00718921205606 L 49.5 299.0283520833969 L 49.5 299.04941537201637 L 49.5 299.0703839628854 L 49.5 299.09126265942893 L 49.5 299.1120561881609 L 49.5 299.1327692031751 L 49.5 299.15340629050314 L 49.5 299.17397197234794 L 49.50000000000002 299.19447071120084 L 49.5 299.21490691385145 L 49.5 299.2352849352971 L 49.5 299.2556090825608 L 49.5 299.2758836184237 L 49.5 299.2961127650798 L 49.5 299.3163007077195 L 49.5 299.33645159804877 L 49.50000000000002 299.35656955775 L 49.5 299.37665868189094 L 49.5 299.3967230422879 L 49.5 299.4167666908287 L 49.50000000000002 299.43679366276194 L 49.50000000000002 299.4568079799572 L 49.5 299.47681365414303 L 49.5 299.49681469012717 L 49.5 299.51681508900526 L 49.5 299.5368188513631 L 49.5 299.5568299804782 L 49.499999999999964 299.57685248552576 L 49.5 299.5968903847947 L 49.5 299.61694770891916 L 49.5 299.63702850413154 L 49.5 299.65713683554134 L 49.5 299.6772767904469 L 49.5 299.69745248168556 L 49.5 299.7176680510267 L 49.5 299.7379276726158 L 49.5 299.75823555647446 L 49.5 299.7785959520624 L 49.5 299.799013151909 L 49.5 299.81949149532005 L 49.5 299.8400353721681 L 49.5 299.86064922677144 L 49.5 299.8813375618713 L 49.5 299.90210494271435 L 49.50000000000002 299.9229560012475 L 49.50000000000002 299.9438954404357 L 49.5 299.96492803870956 L 49.5 299.98605865455295 L 49.5 300.0072922312405 L 49.5 300.0286338017349 L 49.5 300.05008849375474 L 49.5 300.0716615350246 L 49.5 300.0933582587185 L 49.499999999999964 300.11518410911066 L 49.5 300.137144647445 L 49.50000000000002 300.1592455580402 L 49.5 300.18149265464206 L 49.50000000000002 300.20389188704155 L 49.5 300.22644934797387 L 49.5 300.2491712803172 L 49.5 300.2720640846095 L 49.5 300.2951343269039 L 49.499999999999964 300.3183887469839 L 49.5 300.34183426696086 L 49.5 300.3654780002803 L 49.5 300.3893272611588 L 49.5 300.41338957448454 L 49.5 300.43767268620627 L 49.5 300.4621845742465 L 49.5 300.4869334599698 L 49.50000000000002 300.51192782024503 L 49.5 300.53717640013906 L 49.5 300.56268822628397 L 49.5 300.5884726209642 L 49.5 300.6145392169698 L 49.5 300.6408979732697 L 49.5 300.6675591915595 L 49.5 300.694533533745 L 49.5 300.72183204042574 L 49.5 300.74946615044917 L 49.5 300.77744772161 L 49.50000000000002 300.8057890525779 L 49.5 300.8345029061401 L 49.499999999999964 300.86360253385544 L 49.5 300.8931017022229 L 49.5 300.9230147204771 L 49.5 300.953356470131 L 49.50000000000002 300.9841424363994 L 49.5 301.01538874164544 L 49.5 301.04711218100624 L 49.5 301.0793302603676 L 49.5 301.11206123687225 L 49.5 301.1453241621634 L 49.5 301.17913892858394 L 49.5 301.2135263185712 L 49.5 301.2485080575109 L 49.5 301.28410687033704 L 49.5 301.3203465421958 L 49.5 301.35725198351633 L 49.5 301.3948492998718 L 49.5 301.43316586704776 L 49.5 301.47223041177796 L 50.400049207745845 300.2999343896722 L 53.35284982835737 296.3628668955235 L 56.248664650799554 292.5017804656006 L 59.08969030961563 288.71374625384584 L 61.878019580603805 284.99597389252824 L 64.61564761566129 281.3458031791183 L 67.30447773782579 277.76069634956565 L 69.9463268324075 274.23823089012336 L 72.54293036680724 270.77609284425705 L 75.09594706864175 267.37207057514433 L 77.60696328913677 264.0240489478176 L 80.07749707634375 260.73000389820834 L 82.50900198058187 257.4879973592242 L 84.90287061254807 254.29617251660258 L 87.26043797278572 251.15274936961904 L 89.58298456960478 248.0560205738603 L 91.87173934111169 245.00434754518443 L 94.12788239569453 241.99615680574064 L 96.35254758413195 239.02993655449072 L 98.54682491541512 236.1042334461132 L 100.71176282739877 233.2176495634683 L 102.84837032250329 230.36883956999563 L 104.9576189778859 227.55650802948549 L 107.04044483875667 224.77940688165776 L 109.09775020284732 222.03633306287023 L 111.13040530341792 219.32612626210945 L 113.13924989763352 216.64766680315532 L 115.1250947666218 213.99987364450428 L 117.08872313305768 211.38170248925644 L 119.03089200168382 208.7921439977549 L 120.95233342778619 206.23022209628508 L 122.85375571827525 203.69499237563298 L 124.73584456969701 201.1855405737373 L 126.59926414718258 198.70098113708988 L 128.444658108071 196.24045585590534 L 130.27265057367683 193.80313256843087 L 132.08384705243387 191.38820393008817 L 133.87883531743074 188.99488624342567 L 135.65818624114385 186.62241834514157 L 137.42245458999247 184.27006054667672 L 139.1721797811624 181.93709362511677 L 140.90788660398863 179.6228178613485 L 142.63008590803463 177.3265521226205 L 144.3392752598744 175.04763298683415 L 146.03593957045135 172.7854139060649 L 147.72055169477642 170.5392644069648 L 149.3935730056129 168.3085693258495 L 151.05545394269996 166.09272807640005 L 152.70663453897026 163.89115394803966 L 154.34754492513315 161.7032734331558 L 155.97860581391072 159.52852558145239 L 157.6002289651439 157.36636137980815 L 159.2128176329125 155.21624315611663 L 160.8167669957537 153.0776440056617 L 162.41246457099766 150.95004723866978 L 164.0002906141898 148.83294584774694 L 165.58061850451304 146.7258419939826 L 167.15381511708085 144.62824651055888 L 168.72024118292103 142.539678422772 L 170.28025163743584 140.45966448341892 L 171.83419595808215 138.38773872255717 L 173.38241849198062 136.32344201069253 L 174.92525877413317 134.26632163448915 L 176.4630518368931 132.21593088414255 L 177.9961285113091 130.17182865158787 L 179.52481572093578 128.13357903875226 L 181.04943676868268 126.10075097508974 L 182.5703116172484 124.07291784366879 L 184.0877571636705 122.04965711510602 L 185.60208750850097 120.03054998866537 L 187.11361422010418 118.01518103986109 L 188.62264659455494 116.00313787392673 L 190.12949191160484 113.99401078452684 L 191.63445568717196 111.98739241710399 L 193.1378419227993 109.98287743626759 L 194.63995335251636 107.98006219664484 L 196.14109168753342 105.97854441662207 L 197.64155785918953 103.97792285441392 L 199.14165226057227 101.97779698590364 L 200.64167498721974 103.02223331629295 L 202.1419260773176 105.02256810309018 L 203.6427057517973 107.0236076690631 L 205.14431465474678 109.02575287299567 L 206.6470540945396 111.02940545938617 L 208.15122628609694 113.03496838146259 L 209.6571345946951 115.04284612626014 L 211.1650837817384 117.05344504231789 L 212.67538025292347 119.06717367056461 L 214.1883323092252 121.08444307896696 L 215.7042504011462 123.10566720152832 L 217.22344738667832 125.13126318223772 L 218.74623879344 127.1616517245867 L 220.27294308546 129.19725744728004 L 221.80388193509683 131.23850924679573 L 223.33938050059626 133.28584066746168 L 224.87976770980893 135.33969027974524 L 226.42537655060394 137.4005020674719 L 227.97654436854157 139.46872582472207 L 229.5336131723844 141.54481756317915 L 231.09692994805727 143.62923993074304 L 232.6668469816858 145.72246264224773 L 234.24372219237858 147.82496292317146 L 235.82791947544547 149.9372259672607 L 237.41980905678122 152.05974540904162 L 239.019767859176 154.19302381223469 L 240.62817988135978 156.33757317514636 L 242.24543659062314 158.49391545416424 L 243.87193732991184 160.6625831065491 L 245.50808974033086 162.8441196537745 L 247.15431020005852 165.0390802667447 L 248.8110242807199 167.24803237429316 L 250.47866722233508 169.47155629644678 L 252.15768442802536 171.71024590403383 L 253.84853197972714 173.96470930630284 L 255.55167717624767 176.23556956833022 L 257.2675990950745 178.52346546009932 L 258.99678917944567 180.82905223926093 L 260.73975185227926 183.15300246970563 L 262.4970051586703 185.49600687822706 L 264.2690814387748 187.8587752516997 L 266.05652803302195 190.2420373773626 L 267.85990802172785 192.64654402897045 L 269.6798010013273 195.0730680017697 L 271.51680389959375 197.52240519945832 L 273.371531832386 199.99537577651466 L 275.24461900463683 202.49282533951578 L 277.13671965849943 205.01562621133255 L 279.04850907177513 207.56467876236684 L 280.98068460998047 210.14091281330732 L 282.9339668356551 212.7452891142068 L 284.9091006787887 215.37880090505163 L 286.9068566725365 218.04247556338197 L 288.9280322587147 220.73737634495302 L 290.973453167914 223.46460422388535 L 293.0439748794495 226.22529983926603 L 295.1404841667822 229.0206455557096 L 297.26390073449164 231.85186764598882 L 299.41517895338137 234.72023860450852 L 301.595309700828 237.62707960110404 L 303.8053223140798 240.57376308543968 L 306.04628666485246 243.5617155531366 L 308.31931536427925 246.59242048570565 L 310.6255661080395 249.66742147738594 L 312.9662441723489 252.78832556313193 L 315.3426050724209 255.95680676322786 L 317.7559573960406 259.17460986138747 L 320.20766582601954 262.4435544346927 L 322.69915436654645 265.76553915539523 L 325.23190978982313 269.1425463864308 L 327.80748532089484 272.5766470945265 L 330.4275045802545 276.070006107006 L 333.09366580566564 279.6248877408875 L 335.8077463766992 283.2436618355989 L 338.5716076677682 286.928810223691 L 341.38720025797056 290.68293367729405 L 344.25656952887744 294.50875937183656 L 347.1818616845388 298.40914891271836 L 349.5 301.4911681044278 L 349.5 301.45173562141474 L 349.5 301.41306534351173 L 349.5 301.375127868224 L 349.5 301.33789518472753 L 349.5 301.30134059024857 L 349.5 301.2654386123479 L 349.5 301.23016493662664 L 349.5 301.19549633941585 L 349.5 301.16141062505255 L 349.5 301.1278865673794 L 349.5 301.0949038551381 L 349.5 301.0624430409565 L 349.5 301.0304854936536 L 349.5 300.9990133536128 L 349.5 300.9680094909927 L 349.5 300.93745746656595 L 349.5 300.90734149499366 L 349.5 300.8776464103572 L 349.5 300.8483576337879 L 349.5 300.81946114304156 L 349.5 300.7909434438849 L 349.5 300.76279154316376 L 349.5 300.734992923439 L 349.5 300.7075355190817 L 349.5 300.68040769372897 L 349.5 300.6535982190079 L 349.5 300.6270962544443 L 349.5 300.60089132847656 L 349.5 300.5749733205028 L 349.5 300.5493324438936 L 349.5 300.5239592299083 L 349.5 300.4988445124566 L 349.5 300.4739794136516 L 349.5 300.44935533010454 L 349.5 300.4249639199145 L 349.5 300.40079709030965 L 349.5 300.37684698589976 L 349.5 300.3531059775024 L 349.5 300.3295666515073 L 349.5 300.3062217997464 L 349.5 300.2830644098392 L 349.5 300.2600876559835 L 349.5 300.23728489016645 L 349.5 300.2146496337692 L 349.5 300.1921755695423 L 349.5 300.1698565339301 L 349.5 300.147686509722 L 349.5 300.1256596190128 L 349.5 300.1037701164527 L 349.5 300.0820123827695 L 349.5 300.0603809185476 L 349.5 300.0388703382479 L 349.5 300.0174753644539 L 349.5 299.9961908223313 L 349.5 299.9750116342865 L 349.5 299.95393281481336 L 349.5 299.932949465516 L 349.5 299.91205677029586 L 349.5 299.8912499906942 L 349.5 299.8705244613783 L 349.5 299.849875585763 L 349.5 299.82929883175836 L 349.5 299.8087897276341 L 349.5 299.7883438579937 L 349.5 299.7679568598489 L 349.5 299.74762441878795 L 349.5 299.72734226523016 L 349.5 299.7071061707592 L 349.5 299.68691194452833 L 349.5 299.6667554297319 L 349.5 299.64663250013524 L 349.5 299.6265390566581 L 349.5 299.60647102400446 L 349.5 299.5864243473337 L 349.5 299.566394988966 L 349.5 299.54637892511835 L 349.5 299.526372142663 L 349.5 299.50637063590506 L 349.5 299.5" fill-opacity="1"/><path fill="#ffffff" stroke="none" paint-order="stroke fill markers" d="" fill-opacity="1"/><g><path fill="none" stroke="#ffffff" class="dcg-svg-curve" paint-order="fill stroke markers" d=" M 349.5 299.5 L 349.5 299.5 L 349.5 299.47999933330664 L 349.5 299.4599946658132 L 349.5 299.4399819935176 L 349.5 299.419957306009 L 349.5 299.3999165832489 L 349.5 299.37985579233737 L 349.5 299.359770884256 L 349.5 299.33965779058383 L 349.5 299.31951242018044 L 349.5 299.29933065582907 L 349.5 299.27910835083594 L 349.5 299.2588413255774 L 349.5 299.2385253639911 L 349.5 299.21815621000275 L 349.5 299.1977295638834 L 349.5 299.17724107852956 L 349.5 299.1566863556597 L 349.5 299.1360609419196 L 349.5 299.11536032488914 L 349.5 299.0945799289827 L 349.5 299.0737151112347 L 349.5 299.0527611569626 L 349.5 299.0317132752971 L 349.5 299.01056659457106 L 349.5 298.98931615755794 L 349.5 298.96795691654745 L 349.5 298.9464837282499 L 349.5 298.92489134851604 L 349.5 298.90317442686114 L 349.5 298.88132750078074 L 349.5 298.85934498984415 L 349.5 298.83722118955154 L 349.5 298.8149502649399 L 349.5 298.79252624392177 L 349.5 298.76994301033915 L 349.5 298.747194296716 L 349.5 298.7242736766883 L 349.5 298.7011745570935 L 349.5 298.6778901696956 L 349.5 298.6544135625237 L 349.5 298.6307375908002 L 349.5 298.60685490743083 L 349.5 298.58275795302893 L 349.5 298.5584389454448 L 349.5 298.53388986876683 L 349.5 298.5091024617609 L 349.5 298.48406820571023 L 349.5 298.4587783116175 L 349.5 298.4332237067256 L 349.5 298.4073950203124 L 349.5 298.3812825687101 L 349.5 298.3548763394966 L 349.5 298.328165974803 L 349.5 298.30114075367504 L 349.5 298.2737895734237 L 349.5 298.24610092989457 L 349.5 298.2180628965777 L 349.5 298.18966310247697 L 349.5 298.1608887086494 L 349.5 298.1317263833166 L 349.5 298.10216227544527 L 349.5 298.0721819866815 L 349.5 298.0417705415181 L 349.5 298.01091235555805 L 349.5 297.97959120173266 L 349.5 297.9477901743127 L 349.5 297.91549165054346 L 349.5 297.88267724971485 L 349.5 297.84932778946194 L 349.5 297.8154232390739 L 349.5 297.7809426695661 L 349.5 297.7458642002503 L 349.5 297.71016494150837 L 349.5 297.67382093345145 L 349.5 297.63680708011185 L 349.5 297.5990970787824 L 349.5 297.560663344077 L 349.5 297.5214769262468 L 348.12576333113327 295.667684441511 L 345.18219009757115 291.7429201300949 L 342.29524559122933 287.89366078830574 L 339.4627501552822 284.11700020704296 L 336.6826269676304 280.41016929017394 L 333.9528958786516 276.7705278382021 L 331.27166768280176 273.19555691040233 L 328.63713878872153 269.6828517182953 L 326.04758625574914 266.2301150076656 L 323.5013631676611 262.8351508902148 L 320.9968943170792 259.4958590894389 L 318.5326721763476 256.21022956846343 L 316.1072531328044 252.97633751040584 L 313.71925396829346 249.79233862439128 L 311.3673485644942 246.6564647526589 L 309.05026481721177 243.56701975628232 L 306.7667817441908 240.52237565892105 L 304.5157267722987 237.5209690297316 L 302.2959731910908 234.56129758812108 L 300.106437760829 231.64191701443872 L 297.94607846398674 228.76143795198226 L 295.8138923901496 225.91852318686614 L 293.7089137450183 223.1118849933577 L 291.6302119749468 220.34028263326238 L 289.57688999911386 217.60251999881848 L 287.54808254202965 214.89744338937288 L 285.5429545596362 212.22393941284827 L 283.5606997527636 209.58093300368475 L 281.6005391621715 206.96738554956204 L 279.6617198398288 204.3822931197717 L 277.743513591474 201.82468478863203 L 275.84521578585964 199.29362104781288 L 273.96614422640965 196.78819230187958 L 272.1056380813238 194.307517441765 L 270.2630568684394 191.8507424912525 L 268.43777949141884 189.41703932189176 L 266.62920332406543 187.0056044320872 L 264.8367433397883 184.61565778638445 L 263.05983128343917 182.24644171125223 L 261.2979148829258 179.89721984390104 L 259.55045709818233 177.5672761309098 L 257.8169354052307 175.255913873641 L 256.09684111321616 172.96245481762153 L 254.38967871243386 170.68623828324516 L 252.69496525149034 168.42662033532045 L 251.01222974185643 166.1829729891419 L 249.34101258817927 163.9546834509057 L 247.68086504281825 161.74115339042436 L 246.03134868316212 159.5417982442162 L 244.39203491037136 157.3560465471618 L 242.76250446826782 155.18333929102377 L 241.14234698116874 153.023129308225 L 239.53116050952858 150.87488067937142 L 237.92855112231777 148.73806816309036 L 236.33413248512554 146.612176646834 L 234.747525463027 144.4967006173693 L 233.16835773730892 142.39114364974523 L 231.5962634351917 140.29501791358894 L 230.0308827717317 138.20784369564223 L 228.47186170312716 136.12914893750286 L 226.91885159068872 134.05846878758496 L 225.37150887477003 131.99534516636004 L 223.8294947579868 129.93932634398237 L 222.29247489708115 127.88996652944155 L 220.76011910281687 125.84682547042246 L 219.23210104731447 123.80946806308594 L 217.70809797826107 121.77746397101475 L 216.18779043944778 119.75038725259702 L 214.67086199710968 117.72781599614626 L 213.15699897155963 115.70933196207949 L 211.6458901736232 113.69452023149762 L 210.13722664539785 111.68296886053048 L 208.63070140487005 109.6742685398267 L 207.12600919393793 107.66801225858393 L 205.62284622939586 105.6637949725278 L 204.12090995644613 103.6612132752615 L 202.61989880431094 101.65986507241456 L 201.11951194352375 99.65934925803168 L 199.61944904448347 97.65926539264461 L 198.11941003686002 99.34078661752 L 196.6190948694405 101.341206840746 L 195.11820327000828 103.34239563998898 L 193.61643450484587 105.34475399353886 L 192.11348713745247 107.34868381673004 L 190.60905878606403 109.35458828524798 L 189.1028458795606 111.36287216058588 L 187.59454341134136 113.37394211821152 L 186.08384469074022 115.38820707901306 L 184.57044109154964 117.40607854460052 L 183.05402179721048 119.42797093705269 L 181.5342735422161 121.45430194371187 L 180.01088034926792 123.48549286764273 L 178.4835232617063 125.5219689843916 L 176.95188007072719 127.56415990569707 L 175.41562503687865 129.61249995082846 L 173.8744286053142 131.66742852624776 L 172.3279571142603 133.72939051431962 L 170.7758724961354 135.79883667181946 L 169.21783197073393 137.87622403902145 L 167.65348772986422 139.96201636018105 L 166.08248661280305 142.05668451626258 L 164.50446977189833 144.1607069708022 L 162.9190723276225 146.27457022983668 L 161.3259230123416 148.39876931687786 L 159.72464380203124 150.53380826395835 L 158.11484953512814 152.68020061982915 L 156.49614751766447 154.83846997644739 L 154.86813711378448 157.009150514954 L 153.23040932069412 159.1927875724078 L 151.58254632703867 161.38993823061512 L 149.92412105364713 163.60117192847048 L 148.25469667551798 165.82707109930936 L 146.57382612385356 168.06823183486193 L 144.88105156687857 170.32526457749526 L 143.17590386809832 172.5987948425356 L 141.4579020205689 174.8894639725748 L 139.7265525556598 177.19792992578695 L 137.98134892469116 179.5248681004118 L 136.22177085172194 181.87097219770408 L 134.44728365565066 184.23695512579908 L 132.65733753966686 186.62354994711086 L 130.85136684595713 189.03151087205714 L 129.0287892734271 191.46161430209725 L 127.18900505604135 193.9146599252782 L 125.3313960992187 196.3914718677084 L 123.45532507153195 198.89289990462407 L 121.56013444876929 201.4198207349743 L 119.64514550719349 203.973139323742 L 117.70965726260783 206.55379031652288 L 115.75294535157984 209.1627395312269 L 113.7742608509038 211.8009855321283 L 111.77282903108029 214.46956129189294 L 109.74784803927147 217.16953594763802 L 107.69848750683083 219.90201665755887 L 105.6238870761294 222.66815056516077 L 103.52315484097299 225.46912687870264 L 101.39536569445355 228.30617907406196 L 99.2395595775735 231.18058722990202 L 97.05473962143988 234.09368050474683 L 94.8398701752225 237.04683976637 L 92.5938747114236 240.04150038476854 L 90.31563359928091 243.07915520095878 L 88.0039817363505 246.161357684866 L 85.65770602744277 249.28972529674297 L 83.27554269914617 252.4659430678051 L 80.85617443712356 255.6917674171686 L 78.39822733222385 258.96903022370157 L 75.90026762018114 262.2996431730918 L 73.36079819828295 265.6856024022894 L 70.77825490084373 269.12899346554167 L 68.15100251361547 272.6319966485127 L 65.4773305053833 276.1968926594889 L 62.755448452897475 279.82606872947 L 59.98348113297865 283.52202515602846 L 57.15946325304847 287.2873823292687 L 54.281333788478506 291.1248882820287 L 51.34692989194757 295.0374268107366 L 49.5 297.51516440414514 L 49.5 297.55447346604234 L 49.5 297.5930251024196 L 49.5 297.6308484882708 L 49.5 297.6679714206532 L 49.5 297.70442040133355 L 49.5 297.7402207136093 L 49.5 297.7753964937805 L 49.499999999999964 297.80997079770447 L 49.50000000000002 297.8439656628233 L 49.5 297.87740216602333 L 49.5 297.91030047764923 L 49.5 297.9426799119713 L 49.5 297.9745589743753 L 49.499999999999964 298.00595540552274 L 49.5 298.03688622270715 L 49.5 298.0673677586159 L 49.5 298.09741569768437 L 49.5 298.127045110219 L 49.5 298.15627048444924 L 49.5 298.1851057566544 L 49.5 298.2135643395023 L 49.50000000000002 298.2416591487229 L 49.5 298.2694026282336 L 49.5 298.2968067738205 L 49.5 298.3238831554752 L 49.5 298.3506429384761 L 49.5 298.37709690329876 L 49.5 298.4032554644331 L 49.5 298.42912868817723 L 49.5 298.4547263094779 L 49.5 298.4800577478748 L 49.5 298.50513212261 L 49.5 298.5299582669534 L 49.5 298.5545447417939 L 49.50000000000002 298.57889984854387 L 49.5 298.60303164139714 L 49.5 298.6269479389831 L 49.50000000000002 298.6506563354524 L 49.5 298.67416421103013 L 49.5 298.6974787420674 L 49.5 298.72060691062404 L 49.5 298.7435555136085 L 49.5 298.76633117150294 L 49.5 298.78894033669764 L 49.5 298.8113893014587 L 49.5 298.83368420555047 L 49.5 298.85583104353327 L 49.5 298.87783567175615 L 49.5 298.89970381506237 L 49.5 298.92144107322497 L 49.5 298.9430529271287 L 49.5 298.9645447447128 L 49.5 298.98592178669037 L 49.5 299.00718921205606 L 49.5 299.0283520833969 L 49.5 299.04941537201637 L 49.5 299.0703839628854 L 49.5 299.09126265942893 L 49.5 299.1120561881609 L 49.5 299.1327692031751 L 49.5 299.15340629050314 L 49.5 299.17397197234794 L 49.50000000000002 299.19447071120084 L 49.5 299.21490691385145 L 49.5 299.2352849352971 L 49.5 299.2556090825608 L 49.5 299.2758836184237 L 49.5 299.2961127650798 L 49.5 299.3163007077195 L 49.5 299.33645159804877 L 49.50000000000002 299.35656955775 L 49.5 299.37665868189094 L 49.5 299.3967230422879 L 49.5 299.4167666908287 L 49.50000000000002 299.43679366276194 L 49.50000000000002 299.4568079799572 L 49.5 299.47681365414303 L 49.5 299.49681469012717 L 49.5 299.51681508900526 L 49.5 299.5368188513631 L 49.5 299.5568299804782 L 49.499999999999964 299.57685248552576 L 49.5 299.5968903847947 L 49.5 299.61694770891916 L 49.5 299.63702850413154 L 49.5 299.65713683554134 L 49.5 299.6772767904469 L 49.5 299.69745248168556 L 49.5 299.7176680510267 L 49.5 299.7379276726158 L 49.5 299.75823555647446 L 49.5 299.7785959520624 L 49.5 299.799013151909 L 49.5 299.81949149532005 L 49.5 299.8400353721681 L 49.5 299.86064922677144 L 49.5 299.8813375618713 L 49.5 299.90210494271435 L 49.50000000000002 299.9229560012475 L 49.50000000000002 299.9438954404357 L 49.5 299.96492803870956 L 49.5 299.98605865455295 L 49.5 300.0072922312405 L 49.5 300.0286338017349 L 49.5 300.05008849375474 L 49.5 300.0716615350246 L 49.5 300.0933582587185 L 49.499999999999964 300.11518410911066 L 49.5 300.137144647445 L 49.50000000000002 300.1592455580402 L 49.5 300.18149265464206 L 49.50000000000002 300.20389188704155 L 49.5 300.22644934797387 L 49.5 300.2491712803172 L 49.5 300.2720640846095 L 49.5 300.2951343269039 L 49.499999999999964 300.3183887469839 L 49.5 300.34183426696086 L 49.5 300.3654780002803 L 49.5 300.3893272611588 L 49.5 300.41338957448454 L 49.5 300.43767268620627 L 49.5 300.4621845742465 L 49.5 300.4869334599698 L 49.50000000000002 300.51192782024503 L 49.5 300.53717640013906 L 49.5 300.56268822628397 L 49.5 300.5884726209642 L 49.5 300.6145392169698 L 49.5 300.6408979732697 L 49.5 300.6675591915595 L 49.5 300.694533533745 L 49.5 300.72183204042574 L 49.5 300.74946615044917 L 49.5 300.77744772161 L 49.50000000000002 300.8057890525779 L 49.5 300.8345029061401 L 49.499999999999964 300.86360253385544 L 49.5 300.8931017022229 L 49.5 300.9230147204771 L 49.5 300.953356470131 L 49.50000000000002 300.9841424363994 L 49.5 301.01538874164544 L 49.5 301.04711218100624 L 49.5 301.0793302603676 L 49.5 301.11206123687225 L 49.5 301.1453241621634 L 49.5 301.17913892858394 L 49.5 301.2135263185712 L 49.5 301.2485080575109 L 49.5 301.28410687033704 L 49.5 301.3203465421958 L 49.5 301.35725198351633 L 49.5 301.3948492998718 L 49.5 301.43316586704776 L 49.5 301.47223041177796 L 50.400049207745845 300.2999343896722 L 53.35284982835737 296.3628668955235 L 56.248664650799554 292.5017804656006 L 59.08969030961563 288.71374625384584 L 61.878019580603805 284.99597389252824 L 64.61564761566129 281.3458031791183 L 67.30447773782579 277.76069634956565 L 69.9463268324075 274.23823089012336 L 72.54293036680724 270.77609284425705 L 75.09594706864175 267.37207057514433 L 77.60696328913677 264.0240489478176 L 80.07749707634375 260.73000389820834 L 82.50900198058187 257.4879973592242 L 84.90287061254807 254.29617251660258 L 87.26043797278572 251.15274936961904 L 89.58298456960478 248.0560205738603 L 91.87173934111169 245.00434754518443 L 94.12788239569453 241.99615680574064 L 96.35254758413195 239.02993655449072 L 98.54682491541512 236.1042334461132 L 100.71176282739877 233.2176495634683 L 102.84837032250329 230.36883956999563 L 104.9576189778859 227.55650802948549 L 107.04044483875667 224.77940688165776 L 109.09775020284732 222.03633306287023 L 111.13040530341792 219.32612626210945 L 113.13924989763352 216.64766680315532 L 115.1250947666218 213.99987364450428 L 117.08872313305768 211.38170248925644 L 119.03089200168382 208.7921439977549 L 120.95233342778619 206.23022209628508 L 122.85375571827525 203.69499237563298 L 124.73584456969701 201.1855405737373 L 126.59926414718258 198.70098113708988 L 128.444658108071 196.24045585590534 L 130.27265057367683 193.80313256843087 L 132.08384705243387 191.38820393008817 L 133.87883531743074 188.99488624342567 L 135.65818624114385 186.62241834514157 L 137.42245458999247 184.27006054667672 L 139.1721797811624 181.93709362511677 L 140.90788660398863 179.6228178613485 L 142.63008590803463 177.3265521226205 L 144.3392752598744 175.04763298683415 L 146.03593957045135 172.7854139060649 L 147.72055169477642 170.5392644069648 L 149.3935730056129 168.3085693258495 L 151.05545394269996 166.09272807640005 L 152.70663453897026 163.89115394803966 L 154.34754492513315 161.7032734331558 L 155.97860581391072 159.52852558145239 L 157.6002289651439 157.36636137980815 L 159.2128176329125 155.21624315611663 L 160.8167669957537 153.0776440056617 L 162.41246457099766 150.95004723866978 L 164.0002906141898 148.83294584774694 L 165.58061850451304 146.7258419939826 L 167.15381511708085 144.62824651055888 L 168.72024118292103 142.539678422772 L 170.28025163743584 140.45966448341892 L 171.83419595808215 138.38773872255717 L 173.38241849198062 136.32344201069253 L 174.92525877413317 134.26632163448915 L 176.4630518368931 132.21593088414255 L 177.9961285113091 130.17182865158787 L 179.52481572093578 128.13357903875226 L 181.04943676868268 126.10075097508974 L 182.5703116172484 124.07291784366879 L 184.0877571636705 122.04965711510602 L 185.60208750850097 120.03054998866537 L 187.11361422010418 118.01518103986109 L 188.62264659455494 116.00313787392673 L 190.12949191160484 113.99401078452684 L 191.63445568717196 111.98739241710399 L 193.1378419227993 109.98287743626759 L 194.63995335251636 107.98006219664484 L 196.14109168753342 105.97854441662207 L 197.64155785918953 103.97792285441392 L 199.14165226057227 101.97779698590364 L 200.64167498721974 103.02223331629295 L 202.1419260773176 105.02256810309018 L 203.6427057517973 107.0236076690631 L 205.14431465474678 109.02575287299567 L 206.6470540945396 111.02940545938617 L 208.15122628609694 113.03496838146259 L 209.6571345946951 115.04284612626014 L 211.1650837817384 117.05344504231789 L 212.67538025292347 119.06717367056461 L 214.1883323092252 121.08444307896696 L 215.7042504011462 123.10566720152832 L 217.22344738667832 125.13126318223772 L 218.74623879344 127.1616517245867 L 220.27294308546 129.19725744728004 L 221.80388193509683 131.23850924679573 L 223.33938050059626 133.28584066746168 L 224.87976770980893 135.33969027974524 L 226.42537655060394 137.4005020674719 L 227.97654436854157 139.46872582472207 L 229.5336131723844 141.54481756317915 L 231.09692994805727 143.62923993074304 L 232.6668469816858 145.72246264224773 L 234.24372219237858 147.82496292317146 L 235.82791947544547 149.9372259672607 L 237.41980905678122 152.05974540904162 L 239.019767859176 154.19302381223469 L 240.62817988135978 156.33757317514636 L 242.24543659062314 158.49391545416424 L 243.87193732991184 160.6625831065491 L 245.50808974033086 162.8441196537745 L 247.15431020005852 165.0390802667447 L 248.8110242807199 167.24803237429316 L 250.47866722233508 169.47155629644678 L 252.15768442802536 171.71024590403383 L 253.84853197972714 173.96470930630284 L 255.55167717624767 176.23556956833022 L 257.2675990950745 178.52346546009932 L 258.99678917944567 180.82905223926093 L 260.73975185227926 183.15300246970563 L 262.4970051586703 185.49600687822706 L 264.2690814387748 187.8587752516997 L 266.05652803302195 190.2420373773626 L 267.85990802172785 192.64654402897045 L 269.6798010013273 195.0730680017697 L 271.51680389959375 197.52240519945832 L 273.371531832386 199.99537577651466 L 275.24461900463683 202.49282533951578 L 277.13671965849943 205.01562621133255 L 279.04850907177513 207.56467876236684 L 280.98068460998047 210.14091281330732 L 282.9339668356551 212.7452891142068 L 284.9091006787887 215.37880090505163 L 286.9068566725365 218.04247556338197 L 288.9280322587147 220.73737634495302 L 290.973453167914 223.46460422388535 L 293.0439748794495 226.22529983926603 L 295.1404841667822 229.0206455557096 L 297.26390073449164 231.85186764598882 L 299.41517895338137 234.72023860450852 L 301.595309700828 237.62707960110404 L 303.8053223140798 240.57376308543968 L 306.04628666485246 243.5617155531366 L 308.31931536427925 246.59242048570565 L 310.6255661080395 249.66742147738594 L 312.9662441723489 252.78832556313193 L 315.3426050724209 255.95680676322786 L 317.7559573960406 259.17460986138747 L 320.20766582601954 262.4435544346927 L 322.69915436654645 265.76553915539523 L 325.23190978982313 269.1425463864308 L 327.80748532089484 272.5766470945265 L 330.4275045802545 276.070006107006 L 333.09366580566564 279.6248877408875 L 335.8077463766992 283.2436618355989 L 338.5716076677682 286.928810223691 L 341.38720025797056 290.68293367729405 L 344.25656952887744 294.50875937183656 L 347.1818616845388 298.40914891271836 L 349.5 301.4911681044278 L 349.5 301.45173562141474 L 349.5 301.41306534351173 L 349.5 301.375127868224 L 349.5 301.33789518472753 L 349.5 301.30134059024857 L 349.5 301.2654386123479 L 349.5 301.23016493662664 L 349.5 301.19549633941585 L 349.5 301.16141062505255 L 349.5 301.1278865673794 L 349.5 301.0949038551381 L 349.5 301.0624430409565 L 349.5 301.0304854936536 L 349.5 300.9990133536128 L 349.5 300.9680094909927 L 349.5 300.93745746656595 L 349.5 300.90734149499366 L 349.5 300.8776464103572 L 349.5 300.8483576337879 L 349.5 300.81946114304156 L 349.5 300.7909434438849 L 349.5 300.76279154316376 L 349.5 300.734992923439 L 349.5 300.7075355190817 L 349.5 300.68040769372897 L 349.5 300.6535982190079 L 349.5 300.6270962544443 L 349.5 300.60089132847656 L 349.5 300.5749733205028 L 349.5 300.5493324438936 L 349.5 300.5239592299083 L 349.5 300.4988445124566 L 349.5 300.4739794136516 L 349.5 300.44935533010454 L 349.5 300.4249639199145 L 349.5 300.40079709030965 L 349.5 300.37684698589976 L 349.5 300.3531059775024 L 349.5 300.3295666515073 L 349.5 300.3062217997464 L 349.5 300.2830644098392 L 349.5 300.2600876559835 L 349.5 300.23728489016645 L 349.5 300.2146496337692 L 349.5 300.1921755695423 L 349.5 300.1698565339301 L 349.5 300.147686509722 L 349.5 300.1256596190128 L 349.5 300.1037701164527 L 349.5 300.0820123827695 L 349.5 300.0603809185476 L 349.5 300.0388703382479 L 349.5 300.0174753644539 L 349.5 299.9961908223313 L 349.5 299.9750116342865 L 349.5 299.95393281481336 L 349.5 299.932949465516 L 349.5 299.91205677029586 L 349.5 299.8912499906942 L 349.5 299.8705244613783 L 349.5 299.849875585763 L 349.5 299.82929883175836 L 349.5 299.8087897276341 L 349.5 299.7883438579937 L 349.5 299.7679568598489 L 349.5 299.74762441878795 L 349.5 299.72734226523016 L 349.5 299.7071061707592 L 349.5 299.68691194452833 L 349.5 299.6667554297319 L 349.5 299.64663250013524 L 349.5 299.6265390566581 L 349.5 299.60647102400446 L 349.5 299.5864243473337 L 349.5 299.566394988966 L 349.5 299.54637892511835 L 349.5 299.526372142663 L 349.5 299.50637063590506 L 349.5 299.5" stroke-linecap="round" stroke-linejoin="round" stroke-miterlimit="10" stroke-width="2.5" stroke-opacity="1" stroke-dasharray=""/></g></g></g><g id="labels-2089380d"/></g></svg>