<svg version="1.1" xmlns="http://www.w3.org/2000/svg" xmlns:xlink="http://www.w3.org/1999/xlink" width="800" height="800"><defs/><g transform="scale(2,2)"><g id="background-d77dbeaa"></g><g id="background-images-d77dbeaa"/><g id="graphpaper-d77dbeaa"><g id="axis-d77dbeaa"><g><g><path fill="none" stroke="rgb(0,0,0)" class="dcg-svg-tickmark" paint-order="fill stroke markers" d="" stroke-opacity="1" stroke-miterlimit="2" stroke-width="1.5" stroke-dasharray=""/></g></g></g></g><g id="expressions-d77dbeaa"><g id="sketch-d77dbeaa"><title>Expression 99</title><path fill="#ffffff" stroke="none" class="dcg-svg-region" paint-order="stroke fill markers" d=" M 349.5 299.5 L 349.5 299.44199806658935 L 349.5 299.38398453085824 L 349.5 299.32594778120114 L 349.5 299.26787618742605 L 349.5 299.2097580914219 L 349.5 299.1515817977785 L 349.5 299.0933355643424 L 349.5 299.0350075926932 L 349.5 298.9765860185232 L 349.5 298.9180589019044 L 349.5 298.85941421742416 L 349.5 298.80063984417444 L 349.5 298.74172355557414 L 349.5 298.68265300900794 L 349.5 298.6234157352619 L 349.5 298.56399912773577 L 349.5 298.5043904314132 L 349.5 298.4445767315668 L 349.5 298.3845449421785 L 349.5 298.3242817940497 L 349.5 298.2637738225807 L 349.5 298.20300735519163 L 349.5 298.1419684983615 L 349.5 298.0806431242561 L 349.5 298.01901685691803 L 349.5 297.95707505798765 L 349.5 297.8948028119248 L 349.5 297.8321849106965 L 349.5 297.7692058378973 L 349.5 297.70584975226416 L 349.5 297.64210047054803 L 349.5 297.57794144969944 L 349.5 297.51335576832577 L 349.5 297.4483261073731 L 349.5 297.38283472998353 L 349.5 297.31686346047627 L 349.5 297.25039366239605 L 349.5 297.18340621557127 L 349.5 297.1158814921172 L 349.5 297.04779933131863 L 349.5 296.9791390133206 L 349.5 296.9098792315493 L 349.5 296.83999806378375 L 349.5 296.7694729417898 L 349.5 296.6982806194238 L 349.5 296.62639713910664 L 349.5 296.5537977965597 L 349.5 296.4804571036907 L 349.5 296.4063487495042 L 349.5 296.331445558906 L 349.5 296.2557194492593 L 349.5 296.1791413845403 L 349.5 296.1016813269289 L 349.5 296.0233081856575 L 349.5 295.94398976292877 L 349.5 295.8636926966944 L 349.5 295.78238240007533 L 349.5 295.7000229971832 L 349.5 295.61657725508326 L 349.5 295.5320065116182 L 349.5 295.4462705987911 L 349.5 295.3593277613764 L 349.5 295.2711345704024 L 349.5 295.18164583111843 L 349.5 295.0908144850247 L 349.5 294.99859150550674 L 349.5 294.9049257865761 L 349.5 294.8097640241731 L 349.5 294.71305058943966 L 349.5 294.6147273933142 L 349.5 294.51473374174174 L 349.5 294.413006180726 L 349.5 294.30947833037425 L 349.5 294.2040807070091 L 349.5 294.09674053232436 L 349.5 293.987381528469 L 349.5 293.87592369782334 L 349.5 293.7622830861157 L 348.12576333113327 291.86768444151096 L 345.18219009757115 287.94292013009493 L 342.29524559122933 284.0936607883058 L 339.4627501552822 280.31700020704295 L 336.6826269676304 276.6101692901739 L 333.9528958786516 272.97052783820214 L 331.27166768280176 269.3955569104023 L 328.63713878872153 265.8828517182953 L 326.04758625574914 262.43011500766556 L 323.5013631676611 259.0351508902148 L 320.9968943170792 255.69585908943895 L 318.5326721763476 252.41022956846342 L 316.1072531328044 249.17633751040586 L 313.71925396829346 245.9923386243913 L 311.3673485644942 242.85646475265892 L 309.05026481721177 239.76701975628237 L 306.7667817441908 236.72237565892107 L 304.5157267722987 233.72096902973158 L 302.2959731910908 230.7612975881211 L 300.106437760829 227.84191701443868 L 297.94607846398674 224.96143795198228 L 295.8138923901496 222.11852318686613 L 293.7089137450183 219.3118849933577 L 291.6302119749468 216.5402826332624 L 289.57688999911386 213.8025199988185 L 287.54808254202965 211.09744338937284 L 285.5429545596362 208.42393941284828 L 283.5606997527636 205.78093300368474 L 281.6005391621715 203.16738554956206 L 279.6617198398288 200.58229311977172 L 277.743513591474 198.02468478863204 L 275.84521578585964 195.4936210478129 L 273.96614422640965 192.98819230187954 L 272.1056380813238 190.507517441765 L 270.2630568684394 188.05074249125252 L 268.43777949141884 185.61703932189175 L 266.62920332406543 183.2056044320872 L 264.8367433397883 180.8156577863844 L 263.05983128343917 178.4464417112522 L 261.2979148829258 176.09721984390106 L 259.55045709818233 173.7672761309098 L 257.8169354052307 171.455913873641 L 256.09684111321616 169.16245481762155 L 254.38967871243386 166.88623828324518 L 252.69496525149034 164.6266203353204 L 251.01222974185643 162.3829729891419 L 249.34101258817927 160.15468345090574 L 247.68086504281825 157.94115339042438 L 246.03134868316212 155.74179824421623 L 244.39203491037136 153.55604654716177 L 242.76250446826782 151.38333929102376 L 241.14234698116874 149.22312930822503 L 239.53116050952858 147.07488067937143 L 237.92855112231777 144.93806816309038 L 236.33413248512554 142.81217664683402 L 234.747525463027 140.69670061736934 L 233.16835773730892 138.59114364974522 L 231.5962634351917 136.49501791358892 L 230.0308827717317 134.40784369564227 L 228.47186170312716 132.3291489375029 L 226.91885159068872 130.25846878758495 L 225.37150887477003 128.19534516636003 L 223.8294947579868 126.13932634398242 L 222.29247489708115 124.08996652944154 L 220.76011910281687 122.0468254704225 L 219.23210104731447 120.00946806308593 L 217.70809797826107 117.97746397101474 L 216.18779043944778 115.95038725259707 L 214.67086199710968 113.92781599614625 L 213.15699897155963 111.90933196207948 L 211.6458901736232 109.89452023149761 L 210.13722664539785 107.88296886053047 L 208.63070140487005 105.87426853982674 L 207.12600919393793 103.86801225858392 L 205.62284622939586 101.86379497252784 L 204.12090995644613 99.86121327526149 L 202.61989880431094 97.8598650724146 L 201.11951194352375 95.85934925803167 L 199.61944904448347 93.85926539264466 L 198.11941003686002 95.54078661751998 L 196.6190948694405 97.54120684074604 L 195.11820327000828 99.54239563998902 L 193.61643450484587 101.54475399353885 L 192.11348713745247 103.54868381673003 L 190.60905878606403 105.55458828524797 L 189.1028458795606 107.56287216058593 L 187.59454341134136 109.5739421182115 L 186.08384469074022 111.58820707901305 L 184.57044109154964 113.60607854460045 L 183.05402179721048 115.62797093705274 L 181.5342735422161 117.65430194371186 L 180.01088034926792 119.68549286764278 L 178.4835232617063 121.7219689843916 L 176.95188007072719 123.76415990569711 L 175.41562503687865 125.81249995082851 L 173.8744286053142 127.86742852624775 L 172.3279571142603 129.9293905143196 L 170.7758724961354 131.9988366718195 L 169.21783197073393 134.07622403902144 L 167.65348772986422 136.16201636018104 L 166.08248661280305 138.25668451626262 L 164.50446977189833 140.36070697080226 L 162.9190723276225 142.47457022983667 L 161.3259230123416 144.59876931687788 L 159.72464380203124 146.73380826395837 L 158.11484953512814 148.88020061982917 L 156.49614751766447 151.0384699764474 L 154.86813711378448 153.20915051495402 L 153.23040932069412 155.39278757240783 L 151.58254632703867 157.58993823061508 L 149.92412105364713 159.80117192847052 L 148.25469667551798 162.02707109930938 L 146.57382612385356 164.26823183486192 L 144.88105156687857 166.52526457749522 L 143.17590386809832 168.79879484253556 L 141.4579020205689 171.0894639725748 L 139.7265525556598 173.39792992578697 L 137.98134892469116 175.72486810041175 L 136.22177085172194 178.07097219770407 L 134.44728365565066 180.43695512579905 L 132.65733753966686 182.82354994711082 L 130.85136684595713 185.23151087205716 L 129.0287892734271 187.6616143020972 L 127.18900505604135 190.1146599252782 L 125.3313960992187 192.59147186770838 L 123.45532507153195 195.09289990462406 L 121.56013444876929 197.61982073497427 L 119.64514550719349 200.17313932374202 L 117.70965726260783 202.7537903165229 L 115.75294535157984 205.36273953122688 L 113.7742608509038 208.00098553212825 L 111.77282903108029 210.66956129189296 L 109.74784803927147 213.36953594763804 L 107.69848750683083 216.1020166575589 L 105.6238870761294 218.86815056516076 L 103.52315484097299 221.66912687870268 L 101.39536569445355 224.50617907406192 L 99.2395595775735 227.38058722990198 L 97.05473962143988 230.29368050474685 L 94.8398701752225 233.24683976636996 L 92.5938747114236 236.2415003847685 L 90.31563359928091 239.2791552009588 L 88.0039817363505 242.361357684866 L 85.65770602744277 245.489725296743 L 83.27554269914617 248.66594306780507 L 80.85617443712356 251.89176741716855 L 78.39822733222385 255.16903022370155 L 75.90026762018114 258.4996431730918 L 73.36079819828295 261.88560240228935 L 70.77825490084373 265.32899346554166 L 68.15100251361547 268.8319966485127 L 65.4773305053833 272.3968926594889 L 62.755448452897475 276.02606872947 L 59.98348113297865 279.7220251560285 L 57.15946325304847 283.4873823292687 L 54.281333788478506 287.3248882820286 L 51.34692989194757 291.23742681073657 L 49.5 293.7439767720209 L 49.5 293.8579730515228 L 49.5 293.9697727970169 L 49.5 294.07946061598517 L 49.5 294.1871171198942 L 49.5 294.2928191638673 L 49.5 294.3966400694668 L 49.5 294.49864983196335 L 49.499999999999964 294.59891531334284 L 49.50000000000002 294.69750042218755 L 49.5 294.79446628146763 L 49.5 294.8898713851827 L 49.5 294.9837717447168 L 49.5 295.07622102568854 L 49.499999999999964 295.16727067601585 L 49.5 295.2569700458507 L 49.5 295.3453664999862 L 49.5 295.43250552328465 L 49.5 295.5184308196351 L 49.5 295.6031844049027 L 49.5 295.68680669429784 L 49.5 295.76933658455664 L 49.50000000000002 295.8508115312964 L 49.5 295.9312676218773 L 49.5 296.0107396440794 L 49.5 296.0892611508781 L 49.5 296.1668645215806 L 49.5 296.2435810195664 L 49.5 296.31944084685574 L 49.5 296.394473195714 L 49.5 296.4687062974859 L 49.5 296.5421674688369 L 49.5 296.61488315556903 L 49.5 296.68687897416476 L 49.5 296.7581797512024 L 49.50000000000002 296.8288095607772 L 49.5 296.89879176005167 L 49.5 296.96814902305096 L 49.50000000000002 297.03690337281216 L 49.5 297.1050762119874 L 49.5 297.1726883519955 L 49.5 297.2397600408097 L 49.5 297.30631098946475 L 49.5 297.37236039735853 L 49.5 297.43792697642317 L 49.5 297.5030289742303 L 49.5 297.56768419609637 L 49.5 297.6319100262465 L 49.5 297.6957234480928 L 49.5 297.75914106368083 L 49.5 297.82217911235244 L 49.5 297.8848534886731 L 49.5 297.94717975966705 L 49.5 298.009173181402 L 49.5 298.0708487149626 L 49.5 298.132221041851 L 49.5 298.1933045788475 L 49.5 298.2541134923676 L 49.5 298.314661712344 L 49.5 298.37496294566665 L 49.5 298.4350306892077 L 49.5 298.4948782424591 L 49.5 298.55451871980904 L 49.50000000000002 298.6139650624825 L 49.5 298.6732300501692 L 49.5 298.7323263123615 L 49.5 298.7912663394263 L 49.5 298.8500624934287 L 49.5 298.9087270187314 L 49.5 298.96727205238653 L 49.5 299.0257096343414 L 49.50000000000002 299.08405171747495 L 49.5 299.14231017748375 L 49.5 299.20049682263493 L 49.5 299.2586234034033 L 49.50000000000002 299.31670162200965 L 49.50000000000002 299.3747431418759 L 49.5 299.43275959701486 L 49.5 299.49076260136883 L 49.5 299.54876375811523 L 49.5 299.606774668953 L 49.5 299.66480694338674 L 49.499999999999964 299.7228722080247 L 49.5 299.7809821159044 L 49.5 299.8391483558655 L 49.5 299.89738266198145 L 49.5 299.9556968230698 L 49.5 300.0141026922961 L 49.5 300.07261219688814 L 49.5 300.13123734797733 L 49.5 300.1899902505858 L 49.5 300.24888311377595 L 49.5 300.307928260981 L 49.5 300.3671381405359 L 49.5 300.4265253364282 L 49.5 300.4861025792875 L 49.5 300.54588275763706 L 49.5 300.6058789294268 L 49.5 300.6661043338715 L 49.50000000000002 300.7265724036177 L 49.50000000000002 300.78729677726363 L 49.5 300.84829131225786 L 49.5 300.9095700982036 L 49.5 300.9711474705974 L 49.5 301.0330380250311 L 49.5 301.09525663188873 L 49.5 301.1578184515713 L 49.5 301.2207389502838 L 49.499999999999964 301.2840339164208 L 49.5 301.3477194775905 L 49.50000000000002 301.41181211831656 L 49.5 301.47632869846205 L 49.50000000000002 301.5412864724205 L 49.5 301.60670310912417 L 49.5 301.67259671291987 L 49.5 301.7389858453676 L 49.5 301.8058895480214 L 49.499999999999964 301.8733273662532 L 49.5 301.94131937418666 L 49.5 302.00988620081284 L 49.5 302.07904905736075 L 49.5 302.14882976600524 L 49.5 302.21925078999834 L 49.5 302.2903352653148 L 49.5 302.3621070339125 L 49.50000000000002 302.4345906787107 L 49.5 302.5078115604032 L 49.5 302.58179585622344 L 49.5 302.65657060079604 L 49.5 302.73216372921235 L 49.5 302.8086041224821 L 49.5 302.88592165552257 L 49.5 302.9641472478605 L 49.5 303.0433129172347 L 49.5 303.1234518363025 L 49.5 303.2045983926689 L 49.50000000000002 303.28678825247596 L 49.5 303.37005842780627 L 49.499999999999964 303.45444734818074 L 49.5 303.5399949364465 L 49.5 303.6267426893836 L 49.5 303.71473376337985 L 49.50000000000002 303.8040130655582 L 49.5 303.89462735077177 L 49.5 303.9866253249181 L 49.5 304.0800577550661 L 49.5 304.17497758692946 L 49.5 304.2714400702738 L 49.5 304.36950289289337 L 49.5 304.4692263238565 L 49.5 304.5706733667814 L 49.5 304.6739099239775 L 49.5 304.7790049723679 L 49.5 304.88603075219726 L 49.5 304.9950629696282 L 49.5 305.1061810144385 L 49.5 305.21946819415604 L 50.400049207745845 304.09993438967217 L 53.35284982835737 300.1628668955235 L 56.248664650799554 296.3017804656006 L 59.08969030961563 292.51374625384585 L 61.878019580603805 288.79597389252825 L 64.61564761566129 285.1458031791183 L 67.30447773782579 281.56069634956566 L 69.9463268324075 278.0382308901234 L 72.54293036680724 274.576092844257 L 75.09594706864175 271.1720705751443 L 77.60696328913677 267.82404894781763 L 80.07749707634375 264.53000389820835 L 82.50900198058187 261.28799735922416 L 84.90287061254807 258.09617251660256 L 87.26043797278572 254.95274936961903 L 89.58298456960478 251.85602057386032 L 91.87173934111169 248.8043475451844 L 94.12788239569453 245.79615680574065 L 96.35254758413195 242.82993655449073 L 98.54682491541512 239.90423344611318 L 100.71176282739877 237.01764956346832 L 102.84837032250329 234.1688395699956 L 104.9576189778859 231.35650802948547 L 107.04044483875667 228.57940688165777 L 109.09775020284732 225.83633306287024 L 111.13040530341792 223.12612626210944 L 113.13924989763352 220.44766680315533 L 115.1250947666218 217.79987364450426 L 117.08872313305768 215.18170248925645 L 119.03089200168382 212.5921439977549 L 120.95233342778619 210.0302220962851 L 122.85375571827525 207.494992375633 L 124.73584456969701 204.98554057373732 L 126.59926414718258 202.50098113708992 L 128.444658108071 200.04045585590535 L 130.27265057367683 197.60313256843085 L 132.08384705243387 195.18820393008818 L 133.87883531743074 192.7948862434257 L 135.65818624114385 190.42241834514158 L 137.42245458999247 188.07006054667673 L 139.1721797811624 185.73709362511676 L 140.90788660398863 183.4228178613485 L 142.63008590803463 181.1265521226205 L 144.3392752598744 178.84763298683416 L 146.03593957045135 176.5854139060649 L 147.72055169477642 174.33926440696482 L 149.3935730056129 172.10856932584954 L 151.05545394269996 169.89272807640006 L 152.70663453897026 167.69115394803967 L 154.34754492513315 165.50327343315584 L 155.97860581391072 163.3285255814524 L 157.6002289651439 161.16636137980817 L 159.2128176329125 159.01624315611664 L 160.8167669957537 156.87764400566175 L 162.41246457099766 154.7500472386698 L 164.0002906141898 152.63294584774698 L 165.58061850451304 150.52584199398262 L 167.15381511708085 148.4282465105589 L 168.72024118292103 146.33967842277195 L 170.28025163743584 144.25966448341887 L 171.83419595808215 142.18773872255713 L 173.38241849198062 140.12344201069254 L 174.92525877413317 138.0663216344891 L 176.4630518368931 136.01593088414256 L 177.9961285113091 133.97182865158783 L 179.52481572093578 131.93357903875233 L 181.04943676868268 129.9007509750898 L 182.5703116172484 127.8729178436688 L 184.0877571636705 125.84965711510603 L 185.60208750850097 123.83054998866538 L 187.11361422010418 121.81518103986105 L 188.62264659455494 119.80313787392674 L 190.12949191160484 117.79401078452685 L 191.63445568717196 115.78739241710406 L 193.1378419227993 113.78287743626754 L 194.63995335251636 111.7800621966449 L 196.14109168753342 109.77854441662208 L 197.64155785918953 107.77792285441393 L 199.14165226057227 105.77779698590365 L 200.64167498721974 106.82223331629297 L 202.1419260773176 108.82256810309013 L 203.6427057517973 110.82360766906311 L 205.14431465474678 112.82575287299568 L 206.6470540945396 114.82940545938612 L 208.15122628609694 116.8349683814626 L 209.6571345946951 118.84284612626016 L 211.1650837817384 120.85344504231784 L 212.67538025292347 122.86717367056463 L 214.1883323092252 124.88444307896691 L 215.7042504011462 126.90566720152822 L 217.22344738667832 128.93126318223773 L 218.74623879344 130.96165172458666 L 220.27294308546 132.99725744728 L 221.80388193509683 135.0385092467958 L 223.33938050059626 137.08584066746164 L 224.87976770980893 139.1396902797452 L 226.42537655060394 141.20050206747192 L 227.97654436854157 143.26872582472203 L 229.5336131723844 145.34481756317916 L 231.09692994805727 147.42923993074302 L 232.6668469816858 149.52246264224777 L 234.24372219237858 151.6249629231715 L 235.82791947544547 153.73722596726063 L 237.41980905678122 155.85974540904164 L 239.019767859176 157.99302381223467 L 240.62817988135978 160.13757317514637 L 242.24543659062314 162.29391545416422 L 243.87193732991184 164.46258310654915 L 245.50808974033086 166.64411965377448 L 247.15431020005852 168.8390802667447 L 248.8110242807199 171.04803237429314 L 250.47866722233508 173.27155629644676 L 252.15768442802536 175.5102459040338 L 253.84853197972714 177.76470930630282 L 255.55167717624767 180.03556956833026 L 257.2675990950745 182.3234654600993 L 258.99678917944567 184.62905223926097 L 260.73975185227926 186.9530024697056 L 262.4970051586703 189.29600687822708 L 264.2690814387748 191.6587752516997 L 266.05652803302195 194.0420373773626 L 267.85990802172785 196.44654402897046 L 269.6798010013273 198.87306800176975 L 271.51680389959375 201.3224051994583 L 273.371531832386 203.79537577651467 L 275.24461900463683 206.2928253395158 L 277.13671965849943 208.81562621133256 L 279.04850907177513 211.36467876236682 L 280.98068460998047 213.94091281330734 L 282.9339668356551 216.5452891142068 L 284.9091006787887 219.17880090505162 L 286.9068566725365 221.84247556338198 L 288.9280322587147 224.53737634495303 L 290.973453167914 227.26460422388533 L 293.0439748794495 230.025299839266 L 295.1404841667822 232.8206455557096 L 297.26390073449164 235.6518676459888 L 299.41517895338137 238.52023860450853 L 301.595309700828 241.42707960110405 L 303.8053223140798 244.3737630854397 L 306.04628666485246 247.3617155531366 L 308.31931536427925 250.39242048570563 L 310.6255661080395 253.46742147738595 L 312.9662441723489 256.5883255631319 L 315.3426050724209 259.7568067632278 L 317.7559573960406 262.9746098613875 L 320.20766582601954 266.2435544346928 L 322.69915436654645 269.56553915539524 L 325.23190978982313 272.9425463864308 L 327.80748532089484 276.37664709452645 L 330.4275045802545 279.870006107006 L 333.09366580566564 283.4248877408875 L 335.8077463766992 287.0436618355989 L 338.5716076677682 290.72881022369097 L 341.38720025797056 294.48293367729406 L 344.25656952887744 298.3087593718366 L 347.1818616845388 302.2091489127184 L 349.5 305.2743875028405 L 349.5 305.1600333021027 L 349.5 305.04788949618404 L 349.5 304.93787081784967 L 349.5 304.8298960357098 L 349.5 304.7238877117208 L 349.5 304.61977197580893 L 349.5 304.5174783162172 L 349.5 304.4169393843059 L 349.5 304.3180908126525 L 349.5 304.22087104540026 L 349.5 304.12522117990056 L 349.5 304.0310848187738 L 349.5 303.9384079315954 L 349.5 303.84713872547707 L 349.5 303.7572275238787 L 349.5 303.6686266530413 L 349.5 303.5812903354815 L 349.5 303.4951745900361 L 349.5 303.4102371379848 L 349.5 303.3264373148205 L 349.5 303.2437359872662 L 349.5 303.16209547517485 L 349.5 303.08147947797306 L 349.5 303.001853005337 L 349.5 302.92318231181406 L 349.5 302.84543483512294 L 349.5 302.76857913788854 L 349.5 302.69258485258206 L 349.5 302.61742262945813 L 349.5 302.54306408729144 L 349.5 302.46948176673413 L 349.5 302.3966490861242 L 349.5 302.3245402995897 L 349.5 302.2531304573032 L 349.5 302.18239536775206 L 349.5 302.11231156189797 L 349.5 302.0428562591094 L 349.5 301.974007334757 L 349.5 301.90574328937123 L 349.5 301.8380432192647 L 349.5 301.77088678853374 L 349.5 301.7042542023522 L 349.5 301.63812618148273 L 349.5 301.57248393793066 L 349.5 301.50730915167276 L 349.5 301.44258394839727 L 349.5 301.37829087819375 L 349.5 301.31441289513725 L 349.5 301.2509333377129 L 349.5 301.18783591003154 L 349.5 301.12510466378797 L 349.5 301.0627239809187 L 349.5 301.0006785569163 L 349.5 300.93895338476074 L 349.5 300.87753373943076 L 349.5 300.8164051629588 L 349.5 300.75555344999634 L 349.5 300.6949646338579 L 349.5 300.63462497301316 L 349.5 300.57452093799697 L 349.5 300.5146391987127 L 349.5 300.45496661209927 L 349.5 300.3954902101391 L 349.5 300.33619718818187 L 349.5 300.2770748935618 L 349.5 300.21811081448504 L 349.5 300.1592925691675 L 349.5 300.1006078952016 L 349.5 300.0420446391321 L 349.5 299.9835907462224 L 349.5 299.9252342503921 L 349.5 299.8669632643084 L 349.5 299.80876596961303 L 349.5 299.7506306072677 L 349.5 299.6925454680014 L 349.5 299.6344988828432 L 349.5 299.5764792137227 L 349.5 299.5184748441247 L 349.5 299.5" fill-opacity="1"/><path fill="#ffffff" stroke="none" paint-order="stroke fill markers" d="" fill-opacity="1"/><g><path fill="none" stroke="#ffffff" class="dcg-svg-curve" paint-order="fill stroke markers" d=" M 349.5 299.5 L 349.5 299.5 L 349.5 299.44199806658935 L 349.5 299.38398453085824 L 349.5 299.32594778120114 L 349.5 299.26787618742605 L 349.5 299.2097580914219 L 349.5 299.1515817977785 L 349.5 299.0933355643424 L 349.5 299.0350075926932 L 349.5 298.9765860185232 L 349.5 298.9180589019044 L 349.5 298.85941421742416 L 349.5 298.80063984417444 L 349.5 298.74172355557414 L 349.5 298.68265300900794 L 349.5 298.6234157352619 L 349.5 298.56399912773577 L 349.5 298.5043904314132 L 349.5 298.4445767315668 L 349.5 298.3845449421785 L 349.5 298.3242817940497 L 349.5 298.2637738225807 L 349.5 298.20300735519163 L 349.5 298.1419684983615 L 349.5 298.0806431242561 L 349.5 298.01901685691803 L 349.5 297.95707505798765 L 349.5 297.8948028119248 L 349.5 297.8321849106965 L 349.5 297.7692058378973 L 349.5 297.70584975226416 L 349.5 297.64210047054803 L 349.5 297.57794144969944 L 349.5 297.51335576832577 L 349.5 297.4483261073731 L 349.5 297.38283472998353 L 349.5 297.31686346047627 L 349.5 297.25039366239605 L 349.5 297.18340621557127 L 349.5 297.1158814921172 L 349.5 297.04779933131863 L 349.5 296.9791390133206 L 349.5 296.9098792315493 L 349.5 296.83999806378375 L 349.5 296.7694729417898 L 349.5 296.6982806194238 L 349.5 296.62639713910664 L 349.5 296.5537977965597 L 349.5 296.4804571036907 L 349.5 296.4063487495042 L 349.5 296.331445558906 L 349.5 296.2557194492593 L 349.5 296.1791413845403 L 349.5 296.1016813269289 L 349.5 296.0233081856575 L 349.5 295.94398976292877 L 349.5 295.8636926966944 L 349.5 295.78238240007533 L 349.5 295.7000229971832 L 349.5 295.61657725508326 L 349.5 295.5320065116182 L 349.5 295.4462705987911 L 349.5 295.3593277613764 L 349.5 295.2711345704024 L 349.5 295.18164583111843 L 349.5 295.0908144850247 L 349.5 294.99859150550674 L 349.5 294.9049257865761 L 349.5 294.8097640241731 L 349.5 294.71305058943966 L 349.5 294.6147273933142 L 349.5 294.51473374174174 L 349.5 294.413006180726 L 349.5 294.30947833037425 L 349.5 294.2040807070091 L 349.5 294.09674053232436 L 349.5 293.987381528469 L 349.5 293.87592369782334 L 349.5 293.7622830861157 L 348.12576333113327 291.86768444151096 L 345.18219009757115 287.94292013009493 L 342.29524559122933 284.0936607883058 L 339.4627501552822 280.31700020704295 L 336.6826269676304 276.6101692901739 L 333.9528958786516 272.97052783820214 L 331.27166768280176 269.3955569104023 L 328.63713878872153 265.8828517182953 L 326.04758625574914 262.43011500766556 L 323.5013631676611 259.0351508902148 L 320.9968943170792 255.69585908943895 L 318.5326721763476 252.41022956846342 L 316.1072531328044 249.17633751040586 L 313.71925396829346 245.9923386243913 L 311.3673485644942 242.85646475265892 L 309.05026481721177 239.76701975628237 L 306.7667817441908 236.72237565892107 L 304.5157267722987 233.72096902973158 L 302.2959731910908 230.7612975881211 L 300.106437760829 227.84191701443868 L 297.94607846398674 224.96143795198228 L 295.8138923901496 222.11852318686613 L 293.7089137450183 219.3118849933577 L 291.6302119749468 216.5402826332624 L 289.57688999911386 213.8025199988185 L 287.54808254202965 211.09744338937284 L 285.5429545596362 208.42393941284828 L 283.5606997527636 205.78093300368474 L 281.6005391621715 203.16738554956206 L 279.6617198398288 200.58229311977172 L 277.743513591474 198.02468478863204 L 275.84521578585964 195.4936210478129 L 273.96614422640965 192.98819230187954 L 272.1056380813238 190.507517441765 L 270.2630568684394 188.05074249125252 L 268.43777949141884 185.61703932189175 L 266.62920332406543 183.2056044320872 L 264.8367433397883 180.8156577863844 L 263.05983128343917 178.4464417112522 L 261.2979148829258 176.09721984390106 L 259.55045709818233 173.7672761309098 L 257.8169354052307 171.455913873641 L 256.09684111321616 169.16245481762155 L 254.38967871243386 166.88623828324518 L 252.69496525149034 164.6266203353204 L 251.01222974185643 162.3829729891419 L 249.34101258817927 160.15468345090574 L 247.68086504281825 157.94115339042438 L 246.03134868316212 155.74179824421623 L 244.39203491037136 153.55604654716177 L 242.76250446826782 151.38333929102376 L 241.14234698116874 149.22312930822503 L 239.53116050952858 147.07488067937143 L 237.92855112231777 144.93806816309038 L 236.33413248512554 142.81217664683402 L 234.747525463027 140.69670061736934 L 233.16835773730892 138.59114364974522 L 231.5962634351917 136.49501791358892 L 230.0308827717317 134.40784369564227 L 228.47186170312716 132.3291489375029 L 226.91885159068872 130.25846878758495 L 225.37150887477003 128.19534516636003 L 223.8294947579868 126.13932634398242 L 222.29247489708115 124.08996652944154 L 220.76011910281687 122.0468254704225 L 219.23210104731447 120.00946806308593 L 217.70809797826107 117.97746397101474 L 216.18779043944778 115.95038725259707 L 214.67086199710968 113.92781599614625 L 213.15699897155963 111.90933196207948 L 211.6458901736232 109.89452023149761 L 210.13722664539785 107.88296886053047 L 208.63070140487005 105.87426853982674 L 207.12600919393793 103.86801225858392 L 205.62284622939586 101.86379497252784 L 204.12090995644613 99.86121327526149 L 202.61989880431094 97.8598650724146 L 201.11951194352375 95.85934925803167 L 199.61944904448347 93.85926539264466 L 198.11941003686002 95.54078661751998 L 196.6190948694405 97.54120684074604 L 195.11820327000828 99.54239563998902 L 193.61643450484587 101.54475399353885 L 192.11348713745247 103.54868381673003 L 190.60905878606403 105.55458828524797 L 189.1028458795606 107.56287216058593 L 187.59454341134136 109.5739421182115 L 186.08384469074022 111.58820707901305 L 184.57044109154964 113.60607854460045 L 183.05402179721048 115.62797093705274 L 181.5342735422161 117.65430194371186 L 180.01088034926792 119.68549286764278 L 178.4835232617063 121.7219689843916 L 176.95188007072719 123.76415990569711 L 175.41562503687865 125.81249995082851 L 173.8744286053142 127.86742852624775 L 172.3279571142603 129.9293905143196 L 170.7758724961354 131.9988366718195 L 169.21783197073393 134.07622403902144 L 167.65348772986422 136.16201636018104 L 166.08248661280305 138.25668451626262 L 164.50446977189833 140.36070697080226 L 162.9190723276225 142.47457022983667 L 161.3259230123416 144.59876931687788 L 159.72464380203124 146.73380826395837 L 158.11484953512814 148.88020061982917 L 156.49614751766447 151.0384699764474 L 154.86813711378448 153.20915051495402 L 153.23040932069412 155.39278757240783 L 151.58254632703867 157.58993823061508 L 149.92412105364713 159.80117192847052 L 148.25469667551798 162.02707109930938 L 146.57382612385356 164.26823183486192 L 144.88105156687857 166.52526457749522 L 143.17590386809832 168.79879484253556 L 141.4579020205689 171.0894639725748 L 139.7265525556598 173.39792992578697 L 137.98134892469116 175.72486810041175 L 136.22177085172194 178.07097219770407 L 134.44728365565066 180.43695512579905 L 132.65733753966686 182.82354994711082 L 130.85136684595713 185.23151087205716 L 129.0287892734271 187.6616143020972 L 127.18900505604135 190.1146599252782 L 125.3313960992187 192.59147186770838 L 123.45532507153195 195.09289990462406 L 121.56013444876929 197.61982073497427 L 119.64514550719349 200.17313932374202 L 117.70965726260783 202.7537903165229 L 115.75294535157984 205.36273953122688 L 113.7742608509038 208.00098553212825 L 111.77282903108029 210.66956129189296 L 109.74784803927147 213.36953594763804 L 107.69848750683083 216.1020166575589 L 105.6238870761294 218.86815056516076 L 103.52315484097299 221.66912687870268 L 101.39536569445355 224.50617907406192 L 99.2395595775735 227.38058722990198 L 97.05473962143988 230.29368050474685 L 94.8398701752225 233.24683976636996 L 92.5938747114236 236.2415003847685 L 90.31563359928091 239.2791552009588 L 88.0039817363505 242.361357684866 L 85.65770602744277 245.489725296743 L 83.27554269914617 248.66594306780507 L 80.85617443712356 251.89176741716855 L 78.39822733222385 255.16903022370155 L 75.90026762018114 258.4996431730918 L 73.36079819828295 261.88560240228935 L 70.77825490084373 265.32899346554166 L 68.15100251361547 268.8319966485127 L 65.4773305053833 272.3968926594889 L 62.755448452897475 276.02606872947 L 59.98348113297865 279.7220251560285 L 57.15946325304847 283.4873823292687 L 54.281333788478506 287.3248882820286 L 51.34692989194757 291.23742681073657 L 49.5 293.7439767720209 L 49.5 293.8579730515228 L 49.5 293.9697727970169 L 49.5 294.07946061598517 L 49.5 294.1871171198942 L 49.5 294.2928191638673 L 49.5 294.3966400694668 L 49.5 294.49864983196335 L 49.499999999999964 294.59891531334284 L 49.50000000000002 294.69750042218755 L 49.5 294.79446628146763 L 49.5 294.8898713851827 L 49.5 294.9837717447168 L 49.5 295.07622102568854 L 49.499999999999964 295.16727067601585 L 49.5 295.2569700458507 L 49.5 295.3453664999862 L 49.5 295.43250552328465 L 49.5 295.5184308196351 L 49.5 295.6031844049027 L 49.5 295.68680669429784 L 49.5 295.76933658455664 L 49.50000000000002 295.8508115312964 L 49.5 295.9312676218773 L 49.5 296.0107396440794 L 49.5 296.0892611508781 L 49.5 296.1668645215806 L 49.5 296.2435810195664 L 49.5 296.31944084685574 L 49.5 296.394473195714 L 49.5 296.4687062974859 L 49.5 296.5421674688369 L 49.5 296.61488315556903 L 49.5 296.68687897416476 L 49.5 296.7581797512024 L 49.50000000000002 296.8288095607772 L 49.5 296.89879176005167 L 49.5 296.96814902305096 L 49.50000000000002 297.03690337281216 L 49.5 297.1050762119874 L 49.5 297.1726883519955 L 49.5 297.2397600408097 L 49.5 297.30631098946475 L 49.5 297.37236039735853 L 49.5 297.43792697642317 L 49.5 297.5030289742303 L 49.5 297.56768419609637 L 49.5 297.6319100262465 L 49.5 297.6957234480928 L 49.5 297.75914106368083 L 49.5 297.82217911235244 L 49.5 297.8848534886731 L 49.5 297.94717975966705 L 49.5 298.009173181402 L 49.5 298.0708487149626 L 49.5 298.132221041851 L 49.5 298.1933045788475 L 49.5 298.2541134923676 L 49.5 298.314661712344 L 49.5 298.37496294566665 L 49.5 298.4350306892077 L 49.5 298.4948782424591 L 49.5 298.55451871980904 L 49.50000000000002 298.6139650624825 L 49.5 298.6732300501692 L 49.5 298.7323263123615 L 49.5 298.7912663394263 L 49.5 298.8500624934287 L 49.5 298.9087270187314 L 49.5 298.96727205238653 L 49.5 299.0257096343414 L 49.50000000000002 299.08405171747495 L 49.5 299.14231017748375 L 49.5 299.20049682263493 L 49.5 299.2586234034033 L 49.50000000000002 299.31670162200965 L 49.50000000000002 299.3747431418759 L 49.5 299.43275959701486 L 49.5 299.49076260136883 L 49.5 299.54876375811523 L 49.5 299.606774668953 L 49.5 299.66480694338674 L 49.499999999999964 299.7228722080247 L 49.5 299.7809821159044 L 49.5 299.8391483558655 L 49.5 299.89738266198145 L 49.5 299.9556968230698 L 49.5 300.0141026922961 L 49.5 300.07261219688814 L 49.5 300.13123734797733 L 49.5 300.1899902505858 L 49.5 300.24888311377595 L 49.5 300.307928260981 L 49.5 300.3671381405359 L 49.5 300.4265253364282 L 49.5 300.4861025792875 L 49.5 300.54588275763706 L 49.5 300.6058789294268 L 49.5 300.6661043338715 L 49.50000000000002 300.7265724036177 L 49.50000000000002 300.78729677726363 L 49.5 300.84829131225786 L 49.5 300.9095700982036 L 49.5 300.9711474705974 L 49.5 301.0330380250311 L 49.5 301.09525663188873 L 49.5 301.1578184515713 L 49.5 301.2207389502838 L 49.499999999999964 301.2840339164208 L 49.5 301.3477194775905 L 49.50000000000002 301.41181211831656 L 49.5 301.47632869846205 L 49.50000000000002 301.5412864724205 L 49.5 301.60670310912417 L 49.5 301.67259671291987 L 49.5 301.7389858453676 L 49.5 301.8058895480214 L 49.499999999999964 301.8733273662532 L 49.5 301.94131937418666 L 49.5 302.00988620081284 L 49.5 302.07904905736075 L 49.5 302.14882976600524 L 49.5 302.21925078999834 L 49.5 302.2903352653148 L 49.5 302.3621070339125 L 49.50000000000002 302.4345906787107 L 49.5 302.5078115604032 L 49.5 302.58179585622344 L 49.5 302.65657060079604 L 49.5 302.73216372921235 L 49.5 302.8086041224821 L 49.5 302.88592165552257 L 49.5 302.9641472478605 L 49.5 303.0433129172347 L 49.5 303.1234518363025 L 49.5 303.2045983926689 L 49.50000000000002 303.28678825247596 L 49.5 303.37005842780627 L 49.499999999999964 303.45444734818074 L 49.5 303.5399949364465 L 49.5 303.6267426893836 L 49.5 303.71473376337985 L 49.50000000000002 303.8040130655582 L 49.5 303.89462735077177 L 49.5 303.9866253249181 L 49.5 304.0800577550661 L 49.5 304.17497758692946 L 49.5 304.2714400702738 L 49.5 304.36950289289337 L 49.5 304.4692263238565 L 49.5 304.5706733667814 L 49.5 304.6739099239775 L 49.5 304.7790049723679 L 49.5 304.88603075219726 L 49.5 304.9950629696282 L 49.5 305.1061810144385 L 49.5 305.21946819415604 L 50.400049207745845 304.09993438967217 L 53.35284982835737 300.1628668955235 L 56.248664650799554 296.3017804656006 L 59.08969030961563 292.51374625384585 L 61.878019580603805 288.79597389252825 L 64.61564761566129 285.1458031791183 L 67.30447773782579 281.56069634956566 L 69.9463268324075 278.0382308901234 L 72.54293036680724 274.576092844257 L 75.09594706864175 271.1720705751443 L 77.60696328913677 267.82404894781763 L 80.07749707634375 264.53000389820835 L 82.50900198058187 261.28799735922416 L 84.90287061254807 258.09617251660256 L 87.26043797278572 254.95274936961903 L 89.58298456960478 251.85602057386032 L 91.87173934111169 248.8043475451844 L 94.12788239569453 245.79615680574065 L 96.35254758413195 242.82993655449073 L 98.54682491541512 239.90423344611318 L 100.71176282739877 237.01764956346832 L 102.84837032250329 234.1688395699956 L 104.9576189778859 231.35650802948547 L 107.04044483875667 228.57940688165777 L 109.09775020284732 225.83633306287024 L 111.13040530341792 223.12612626210944 L 113.13924989763352 220.44766680315533 L 115.1250947666218 217.79987364450426 L 117.08872313305768 215.18170248925645 L 119.03089200168382 212.5921439977549 L 120.95233342778619 210.0302220962851 L 122.85375571827525 207.494992375633 L 124.73584456969701 204.98554057373732 L 126.59926414718258 202.50098113708992 L 128.444658108071 200.04045585590535 L 130.27265057367683 197.60313256843085 L 132.08384705243387 195.18820393008818 L 133.87883531743074 192.7948862434257 L 135.65818624114385 190.42241834514158 L 137.42245458999247 188.07006054667673 L 139.1721797811624 185.73709362511676 L 140.90788660398863 183.4228178613485 L 142.63008590803463 181.1265521226205 L 144.3392752598744 178.84763298683416 L 146.03593957045135 176.5854139060649 L 147.72055169477642 174.33926440696482 L 149.3935730056129 172.10856932584954 L 151.05545394269996 169.89272807640006 L 152.70663453897026 167.69115394803967 L 154.34754492513315 165.50327343315584 L 155.97860581391072 163.3285255814524 L 157.6002289651439 161.16636137980817 L 159.2128176329125 159.01624315611664 L 160.8167669957537 156.87764400566175 L 162.41246457099766 154.7500472386698 L 164.0002906141898 152.63294584774698 L 165.58061850451304 150.52584199398262 L 167.15381511708085 148.4282465105589 L 168.72024118292103 146.33967842277195 L 170.28025163743584 144.25966448341887 L 171.83419595808215 142.18773872255713 L 173.38241849198062 140.12344201069254 L 174.92525877413317 138.0663216344891 L 176.4630518368931 136.01593088414256 L 177.9961285113091 133.97182865158783 L 179.52481572093578 131.93357903875233 L 181.04943676868268 129.9007509750898 L 182.5703116172484 127.8729178436688 L 184.0877571636705 125.84965711510603 L 185.60208750850097 123.83054998866538 L 187.11361422010418 121.81518103986105 L 188.62264659455494 119.80313787392674 L 190.12949191160484 117.79401078452685 L 191.63445568717196 115.78739241710406 L 193.1378419227993 113.78287743626754 L 194.63995335251636 111.7800621966449 L 196.14109168753342 109.77854441662208 L 197.64155785918953 107.77792285441393 L 199.14165226057227 105.77779698590365 L 200.64167498721974 106.82223331629297 L 202.1419260773176 108.82256810309013 L 203.6427057517973 110.82360766906311 L 205.14431465474678 112.82575287299568 L 206.6470540945396 114.82940545938612 L 208.15122628609694 116.8349683814626 L 209.6571345946951 118.84284612626016 L 211.1650837817384 120.85344504231784 L 212.67538025292347 122.86717367056463 L 214.1883323092252 124.88444307896691 L 215.7042504011462 126.90566720152822 L 217.22344738667832 128.93126318223773 L 218.74623879344 130.96165172458666 L 220.27294308546 132.99725744728 L 221.80388193509683 135.0385092467958 L 223.33938050059626 137.08584066746164 L 224.87976770980893 139.1396902797452 L 226.42537655060394 141.20050206747192 L 227.97654436854157 143.26872582472203 L 229.5336131723844 145.34481756317916 L 231.09692994805727 147.42923993074302 L 232.6668469816858 149.52246264224777 L 234.24372219237858 151.6249629231715 L 235.82791947544547 153.73722596726063 L 237.41980905678122 155.85974540904164 L 239.019767859176 157.99302381223467 L 240.62817988135978 160.13757317514637 L 242.24543659062314 162.29391545416422 L 243.87193732991184 164.46258310654915 L 245.50808974033086 166.64411965377448 L 247.15431020005852 168.8390802667447 L 248.8110242807199 171.04803237429314 L 250.47866722233508 173.27155629644676 L 252.15768442802536 175.5102459040338 L 253.84853197972714 177.76470930630282 L 255.55167717624767 180.03556956833026 L 257.2675990950745 182.3234654600993 L 258.99678917944567 184.62905223926097 L 260.73975185227926 186.9530024697056 L 262.4970051586703 189.29600687822708 L 264.2690814387748 191.6587752516997 L 266.05652803302195 194.0420373773626 L 267.85990802172785 196.44654402897046 L 269.6798010013273 198.87306800176975 L 271.51680389959375 201.3224051994583 L 273.371531832386 203.79537577651467 L 275.24461900463683 206.2928253395158 L 277.13671965849943 208.81562621133256 L 279.04850907177513 211.36467876236682 L 280.98068460998047 213.94091281330734 L 282.9339668356551 216.5452891142068 L 284.9091006787887 219.17880090505162 L 286.9068566725365 221.84247556338198 L 288.9280322587147 224.53737634495303 L 290.973453167914 227.26460422388533 L 293.0439748794495 230.025299839266 L 295.1404841667822 232.8206455557096 L 297.26390073449164 235.6518676459888 L 299.41517895338137 238.52023860450853 L 301.595309700828 241.42707960110405 L 303.8053223140798 244.3737630854397 L 306.04628666485246 247.3617155531366 L 308.31931536427925 250.39242048570563 L 310.6255661080395 253.46742147738595 L 312.9662441723489 256.5883255631319 L 315.3426050724209 259.7568067632278 L 317.7559573960406 262.9746098613875 L 320.20766582601954 266.2435544346928 L 322.69915436654645 269.56553915539524 L 325.23190978982313 272.9425463864308 L 327.80748532089484 276.37664709452645 L 330.4275045802545 279.870006107006 L 333.09366580566564 283.4248877408875 L 335.8077463766992 287.0436618355989 L 338.5716076677682 290.72881022369097 L 341.38720025797056 294.48293367729406 L 344.25656952887744 298.3087593718366 L 347.1818616845388 302.2091489127184 L 349.5 305.2743875028405 L 349.5 305.1600333021027 L 349.5 305.04788949618404 L 349.5 304.93787081784967 L 349.5 304.8298960357098 L 349.5 304.7238877117208 L 349.5 304.61977197580893 L 349.5 304.5174783162172 L 349.5 304.4169393843059 L 349.5 304.3180908126525 L 349.5 304.22087104540026 L 349.5 304.12522117990056 L 349.5 304.0310848187738 L 349.5 303.9384079315954 L 349.5 303.84713872547707 L 349.5 303.7572275238787 L 349.5 303.6686266530413 L 349.5 303.5812903354815 L 349.5 303.4951745900361 L 349.5 303.4102371379848 L 349.5 303.3264373148205 L 349.5 303.2437359872662 L 349.5 303.16209547517485 L 349.5 303.08147947797306 L 349.5 303.001853005337 L 349.5 302.92318231181406 L 349.5 302.84543483512294 L 349.5 302.76857913788854 L 349.5 302.69258485258206 L 349.5 302.61742262945813 L 349.5 302.54306408729144 L 349.5 302.46948176673413 L 349.5 302.3966490861242 L 349.5 302.3245402995897 L 349.5 302.2531304573032 L 349.5 302.18239536775206 L 349.5 302.11231156189797 L 349.5 302.0428562591094 L 349.5 301.974007334757 L 349.5 301.90574328937123 L 349.5 301.8380432192647 L 349.5 301.77088678853374 L 349.5 301.7042542023522 L 349.5 301.63812618148273 L 349.5 301.57248393793066 L 349.5 301.50730915167276 L 349.5 301.44258394839727 L 349.5 301.37829087819375 L 349.5 301.31441289513725 L 349.5 301.2509333377129 L 349.5 301.18783591003154 L 349.5 301.12510466378797 L 349.5 301.0627239809187 L 349.5 301.0006785569163 L 349.5 300.93895338476074 L 349.5 300.87753373943076 L 349.5 300.8164051629588 L 349.5 300.75555344999634 L 349.5 300.6949646338579 L 349.5 300.63462497301316 L 349.5 300.57452093799697 L 349.5 300.5146391987127 L 349.5 300.45496661209927 L 349.5 300.3954902101391 L 349.5 300.33619718818187 L 349.5 300.2770748935618 L 349.5 300.21811081448504 L 349.5 300.1592925691675 L 349.5 300.1006078952016 L 349.5 300.0420446391321 L 349.5 299.9835907462224 L 349.5 299.9252342503921 L 349.5 299.8669632643084 L 349.5 299.80876596961303 L 349.5 299.7506306072677 L 349.5 299.6925454680014 L 349.5 299.6344988828432 L 349.5 299.5764792137227 L 349.5 299.5184748441247 L 349.5 299.5" stroke-linecap="round" stroke-linejoin="round" stroke-miterlimit="10" stroke-width="2.5" stroke-opacity="1" stroke-dasharray=""/></g></g></g><g id="labels-d77dbeaa"/></g></svg>