<svg version="1.1" xmlns="http://www.w3.org/2000/svg" xmlns:xlink="http://www.w3.org/1999/xlink" width="800" height="800"><defs/><g transform="scale(2,2)"><g id="background-d16828b9"></g><g id="background-images-d16828b9"/><g id="graphpaper-d16828b9"><g id="axis-d16828b9"><g><g><path fill="none" stroke="rgb(0,0,0)" class="dcg-svg-tickmark" paint-order="fill stroke markers" d="" stroke-opacity="1" stroke-miterlimit="2" stroke-width="1.5" stroke-dasharray=""/></g></g></g></g><g id="expressions-d16828b9"><g id="sketch-d16828b9"><title>Expression 99</title><path fill="#ffffff" stroke="none" class="dcg-svg-region" paint-order="stroke fill markers" d=" M 349.5 299.5 L 349.5 299.403996799872 L 349.5 299.30797439590333 L 349.5 299.21191356888465 L 349.5 299.11579506884306 L 349.5 299.0195995995948 L 349.5 298.9233078032196 L 349.5 298.82690024442877 L 349.5 298.7303573948025 L 349.5 298.63365961686605 L 349.5 298.5367871479797 L 349.5 298.43972008401244 L 349.5 298.3424383627715 L 349.5 298.2449217471572 L 349.5 298.1471498080132 L 349.5 298.0491019066404 L 349.5 297.950757176942 L 349.5 297.8520945071666 L 349.5 297.7530925212141 L 349.5 297.6537295594678 L 349.5 297.55398365911674 L 349.5 297.45383253392663 L 349.5 297.35325355342064 L 349.5 297.25222372142593 L 349.5 297.1507196539411 L 349.5 297.04871755627806 L 349.5 296.94619319942785 L 349.5 296.8431218955997 L 349.5 296.739478472877 L 349.5 296.63523724893344 L 349.5 296.53037200374763 L 349.5 296.4248559512519 L 349.5 296.31866170984733 L 349.5 296.2117612717116 L 349.5 296.1041259708244 L 349.5 295.9957264496279 L 349.5 295.88653262423657 L 349.5 295.77651364810384 L 349.5 295.665637874049 L 349.5 295.55387281453875 L 349.5 295.44118510011367 L 349.5 295.32754043584106 L 349.5 295.2129035556679 L 349.5 295.0972381745387 L 349.5 294.98050693813485 L 349.5 294.8626713700809 L 349.5 294.7436918164523 L 349.5 294.6235273874091 L 349.5 294.5021358957639 L 349.5 294.37947379228285 L 349.5 294.25549609749964 L 349.5 294.13015632980853 L 349.5 294.003406429584 L 349.5 293.8751966790547 L 349.5 293.7454756176401 L 349.5 293.6141899524339 L 349.5 293.4812844634941 L 349.5 293.34670190357286 L 349.5 293.21038289188954 L 349.5 293.0722658015171 L 349.5 292.93228663991977 L 349.5 292.79037892213705 L 349.5 292.6464735360713 L 349.5 292.50049859928674 L 349.5 292.35237930667876 L 349.5 292.2020377683167 L 349.5 292.04939283670086 L 349.5 291.8943599226087 L 349.5 291.7368507986314 L 349.5 291.5767733894173 L 349.5 291.41403154755443 L 349.5 291.24852481391736 L 349.5 291.0801481612016 L 349.5 290.9087917192402 L 349.5 290.73434048056674 L 349.5 290.5566739845369 L 349.5 290.3756659781555 L 349.5 290.19118405156973 L 349.5 290.0030892459846 L 348.12576333113327 288.067684441511 L 345.18219009757115 284.1429201300949 L 342.29524559122933 280.2936607883057 L 339.4627501552822 276.51700020704294 L 336.6826269676304 272.8101692901739 L 333.9528958786516 269.17052783820213 L 331.27166768280176 265.59555691040237 L 328.63713878872153 262.08285171829533 L 326.04758625574914 258.63011500766555 L 323.5013631676611 255.23515089021475 L 320.9968943170792 251.8958590894389 L 318.5326721763476 248.61022956846344 L 316.1072531328044 245.37633751040582 L 313.71925396829346 242.19233862439128 L 311.3673485644942 239.0564647526589 L 309.05026481721177 235.96701975628233 L 306.7667817441908 232.92237565892106 L 304.5157267722987 229.9209690297316 L 302.2959731910908 226.96129758812108 L 300.106437760829 224.0419170144387 L 297.94607846398674 221.16143795198226 L 295.8138923901496 218.31852318686614 L 293.7089137450183 215.5118849933577 L 291.6302119749468 212.74028263326235 L 289.57688999911386 210.00251999881846 L 287.54808254202965 207.29744338937286 L 285.5429545596362 204.62393941284824 L 283.5606997527636 201.98093300368475 L 281.6005391621715 199.36738554956202 L 279.6617198398288 196.7822931197717 L 277.743513591474 194.224684788632 L 275.84521578585964 191.69362104781288 L 273.96614422640965 189.18819230187955 L 272.1056380813238 186.707517441765 L 270.2630568684394 184.25074249125248 L 268.43777949141884 181.81703932189177 L 266.62920332406543 179.40560443208722 L 264.8367433397883 177.01565778638442 L 263.05983128343917 174.6464417112522 L 261.2979148829258 172.29721984390105 L 259.55045709818233 169.9672761309098 L 257.8169354052307 167.655913873641 L 256.09684111321616 165.3624548176215 L 254.38967871243386 163.08623828324514 L 252.69496525149034 160.82662033532043 L 251.01222974185643 158.58297298914187 L 249.34101258817927 156.3546834509057 L 247.68086504281825 154.14115339042434 L 246.03134868316212 151.9417982442162 L 244.39203491037136 149.75604654716182 L 242.76250446826782 147.58333929102378 L 241.14234698116874 145.423129308225 L 239.53116050952858 143.2748806793714 L 237.92855112231777 141.13806816309034 L 236.33413248512554 139.012176646834 L 234.747525463027 136.89670061736933 L 233.16835773730892 134.7911436497452 L 231.5962634351917 132.6950179135889 L 230.0308827717317 130.60784369564226 L 228.47186170312716 128.5291489375029 L 226.91885159068872 126.45846878758493 L 225.37150887477003 124.39534516636002 L 223.8294947579868 122.3393263439824 L 222.29247489708115 120.28996652944153 L 220.76011910281687 118.2468254704225 L 219.23210104731447 116.20946806308592 L 217.70809797826107 114.17746397101473 L 216.18779043944778 112.150387252597 L 214.67086199710968 110.12781599614624 L 213.15699897155963 108.10933196207947 L 211.6458901736232 106.0945202314976 L 210.13722664539785 104.08296886053046 L 208.63070140487005 102.07426853982673 L 207.12600919393793 100.0680122585839 L 205.62284622939586 98.06379497252783 L 204.12090995644613 96.06121327526148 L 202.61989880431094 94.05986507241454 L 201.11951194352375 92.05934925803166 L 199.61944904448347 90.05926539264465 L 198.11941003686002 91.74078661751997 L 196.6190948694405 93.74120684074603 L 195.11820327000828 95.74239563998896 L 193.61643450484587 97.74475399353884 L 192.11348713745247 99.74868381673008 L 190.60905878606403 101.75458828524802 L 189.1028458795606 103.76287216058586 L 187.59454341134136 105.7739421182115 L 186.08384469074022 107.78820707901303 L 184.57044109154964 109.8060785446005 L 183.05402179721048 111.82797093705267 L 181.5342735422161 113.8543019437119 L 180.01088034926792 115.88549286764277 L 178.4835232617063 117.92196898439158 L 176.95188007072719 119.9641599056971 L 175.41562503687865 122.01249995082844 L 173.8744286053142 124.06742852624774 L 172.3279571142603 126.1293905143196 L 170.7758724961354 128.19883667181944 L 169.21783197073393 130.27622403902143 L 167.65348772986422 132.36201636018103 L 166.08248661280305 134.4566845162626 L 164.50446977189833 136.56070697080224 L 162.9190723276225 138.67457022983666 L 161.3259230123416 140.79876931687784 L 159.72464380203124 142.93380826395833 L 158.11484953512814 145.08020061982916 L 156.49614751766447 147.23846997644736 L 154.86813711378448 149.40915051495398 L 153.23040932069412 151.59278757240784 L 151.58254632703867 153.7899382306151 L 149.92412105364713 156.00117192847048 L 148.25469667551798 158.2270710993094 L 146.57382612385356 160.46823183486194 L 144.88105156687857 162.72526457749524 L 143.17590386809832 164.99879484253557 L 141.4579020205689 167.28946397257482 L 139.7265525556598 169.59792992578693 L 137.98134892469116 171.92486810041177 L 136.22177085172194 174.27097219770408 L 134.44728365565066 176.6369551257991 L 132.65733753966686 179.02354994711084 L 130.85136684595713 181.43151087205717 L 129.0287892734271 183.86161430209722 L 127.18900505604135 186.3146599252782 L 125.3313960992187 188.7914718677084 L 123.45532507153195 191.29289990462408 L 121.56013444876929 193.8198207349743 L 119.64514550719349 196.37313932374204 L 117.70965726260783 198.9537903165229 L 115.75294535157984 201.5627395312269 L 113.7742608509038 204.20098553212827 L 111.77282903108029 206.86956129189298 L 109.74784803927147 209.56953594763803 L 107.69848750683083 212.3020166575589 L 105.6238870761294 215.06815056516078 L 103.52315484097299 217.8691268787027 L 101.39536569445355 220.7061790740619 L 99.2395595775735 223.58058722990197 L 97.05473962143988 226.4936805047468 L 94.8398701752225 229.44683976636998 L 92.5938747114236 232.44150038476852 L 90.31563359928091 235.4791552009588 L 88.0039817363505 238.56135768486595 L 85.65770602744277 241.68972529674295 L 83.27554269914617 244.86594306780506 L 80.85617443712356 248.09176741716857 L 78.39822733222385 251.36903022370154 L 75.90026762018114 254.6996431730918 L 73.36079819828295 258.0856024022894 L 70.77825490084373 261.5289934655417 L 68.15100251361547 265.0319966485127 L 65.4773305053833 268.59689265948896 L 62.755448452897475 272.22606872947006 L 59.98348113297865 275.92202515602844 L 57.15946325304847 279.6873823292687 L 54.281333788478506 283.52488828202866 L 51.34692989194757 287.4374268107366 L 49.5 289.97278913989663 L 49.5 290.16147263700316 L 49.5 290.3465204916141 L 49.5 290.5280727436997 L 49.5 290.7062628191353 L 49.5 290.88121792640106 L 49.5 291.05305942532436 L 49.5 291.22190317014633 L 49.499999999999964 291.3878598289812 L 49.50000000000002 291.5510351815518 L 49.5 291.7115303969119 L 49.5 291.8694422927162 L 49.5 292.02486357746227 L 49.5 292.17788307700175 L 49.499999999999964 292.3285859465089 L 49.5 292.47705386899423 L 49.5 292.62336524135645 L 49.5 292.7675953488849 L 49.5 292.90981652905117 L 49.5 293.05009832535626 L 49.5 293.1885076319412 L 49.5 293.325108829611 L 49.50000000000002 293.4599639138699 L 49.5 293.59313261552103 L 49.5 293.7246725143383 L 49.5 293.85463914628093 L 49.5 293.9830861046851 L 49.5 294.11006513583413 L 49.5 294.2356262292785 L 49.5 294.35981770325077 L 49.5 294.48268628549386 L 49.5 294.604277189799 L 49.5 294.72463418852806 L 49.5 294.84379968137614 L 49.5 294.9618147606108 L 49.50000000000002 295.07871927301056 L 49.5 295.19455187870625 L 49.5 295.30935010711886 L 49.50000000000002 295.42315041017184 L 49.5 295.53598821294463 L 49.5 295.6478979619235 L 49.5 295.7589131709954 L 49.5 295.8690664653209 L 49.5 295.9783896232142 L 49.5 296.0869136161487 L 49.5 296.19466864700183 L 49.5 296.3016841866422 L 49.5 296.40798900895965 L 49.5 296.5136112244295 L 49.5 296.6185783122993 L 49.5 296.7229171514799 L 49.5 296.8266540502176 L 49.5 296.9298147746214 L 49.5 297.0324245761136 L 49.5 297.1345082178691 L 49.5 297.236090000305 L 49.5 297.33719378567866 L 49.5 297.4378430218498 L 49.5 297.53806076525893 L 49.5 297.6378697031723 L 49.5 297.7372921752403 L 49.5 297.83635019441505 L 49.5 297.9350654672702 L 49.50000000000002 298.03345941376426 L 49.5 298.13155318648694 L 49.5 298.229367689426 L 49.5 298.3269235962918 L 49.5 298.42424136843374 L 49.5 298.5213412723829 L 49.5 298.6182433970535 L 49.5 298.71496767063405 L 49.50000000000002 298.81153387719996 L 49.5 298.90796167307656 L 49.5 299.00427060298193 L 49.5 299.1004801159779 L 49.50000000000002 299.19660958125735 L 49.50000000000002 299.2926783037947 L 49.5 299.3887055398867 L 49.5 299.4847105126105 L 49.5 299.5807124272252 L 49.5 299.6767304865428 L 49.5 299.77278390629533 L 49.499999999999964 299.8688919305236 L 49.5 299.96507384701425 L 49.5 300.061349002812 L 49.5 300.15773681983137 L 49.5 300.25425681059824 L 49.5 300.35092859414533 L 49.5 300.4477719120907 L 49.5 300.544806644928 L 49.5 300.64205282855585 L 49.5 300.73953067107743 L 49.5 300.8372605698995 L 49.5 300.93526312916293 L 49.5 301.0335591775363 L 49.5 301.13216978640685 L 49.5 301.2311162885028 L 49.5 301.3304202969823 L 49.5 301.4301037250287 L 49.50000000000002 301.5301888059879 L 49.50000000000002 301.63069811409156 L 49.5 301.73165458580604 L 49.5 301.8330815418542 L 49.5 301.9350027099543 L 49.5 302.03744224832724 L 49.5 302.1404247700227 L 49.5 302.24397536811813 L 49.5 302.348119641849 L 49.499999999999964 302.45288372373096 L 49.5 302.558294307736 L 49.50000000000002 302.66437867859304 L 49.5 302.77116474228205 L 49.50000000000002 302.87868105779944 L 49.5 302.9869568702745 L 49.5 303.0960221455225 L 49.5 303.2059076061257 L 49.5 303.3166447691389 L 49.499999999999964 303.42826598552244 L 49.5 303.54080448141235 L 49.5 303.6542944013454 L 49.5 303.76877085356256 L 49.5 303.8842699575259 L 49.5 304.0008288937903 L 49.5 304.1184859563832 L 49.5 304.23728060785504 L 49.50000000000002 304.35725353717635 L 49.5 304.4784467206673 L 49.5 304.6009034861629 L 49.5 304.7246685806279 L 49.5 304.849788241455 L 49.5 304.9763102716946 L 49.5 305.10428411948567 L 49.5 305.23376096197603 L 49.5 305.36479379404363 L 49.5 305.4974375221558 L 49.5 305.6317490637279 L 49.50000000000002 305.76778745237397 L 49.5 305.90561394947247 L 49.499999999999964 306.045292162506 L 49.5 306.18688817067 L 49.5 306.3304706582901 L 49.5 306.4761110566287 L 49.50000000000002 306.62388369471705 L 49.5 306.77386595989805 L 49.5 306.92613846883 L 49.5 307.08078524976463 L 49.5 307.2378939369867 L 49.5 307.39755597838416 L 49.5 307.55986685720273 L 49.5 307.7249263291418 L 49.5 307.892838676052 L 49.5 308.0637129776179 L 49.5 308.2376634025399 L 49.5 308.41480952087824 L 49.5 308.59527663938456 L 49.5 308.77919616182925 L 49.5 308.9667059765342 L 50.400049207745845 307.89993438967224 L 53.35284982835737 303.9628668955235 L 56.248664650799554 300.10178046560054 L 59.08969030961563 296.31374625384586 L 61.878019580603805 292.59597389252826 L 64.61564761566129 288.9458031791183 L 67.30447773782579 285.3606963495656 L 69.9463268324075 281.8382308901233 L 72.54293036680724 278.376092844257 L 75.09594706864175 274.97207057514436 L 77.60696328913677 271.62404894781764 L 80.07749707634375 268.33000389820836 L 82.50900198058187 265.0879973592242 L 84.90287061254807 261.8961725166026 L 87.26043797278572 258.75274936961904 L 89.58298456960478 255.6560205738603 L 91.87173934111169 252.60434754518442 L 94.12788239569453 249.59615680574063 L 96.35254758413195 246.62993655449074 L 98.54682491541512 243.7042334461132 L 100.71176282739877 240.81764956346834 L 102.84837032250329 237.96883956999562 L 104.9576189778859 235.15650802948548 L 107.04044483875667 232.3794068816578 L 109.09775020284732 229.63633306287025 L 111.13040530341792 226.92612626210945 L 113.13924989763352 224.2476668031553 L 115.1250947666218 221.59987364450427 L 117.08872313305768 218.98170248925643 L 119.03089200168382 216.39214399775489 L 120.95233342778619 213.8302220962851 L 122.85375571827525 211.294992375633 L 124.73584456969701 208.7855405737373 L 126.59926414718258 206.3009811370899 L 128.444658108071 203.84045585590533 L 130.27265057367683 201.4031325684309 L 132.08384705243387 198.98820393008816 L 133.87883531743074 196.5948862434257 L 135.65818624114385 194.22241834514156 L 137.42245458999247 191.8700605466767 L 139.1721797811624 189.53709362511677 L 140.90788660398863 187.2228178613485 L 142.63008590803463 184.9265521226205 L 144.3392752598744 182.64763298683414 L 146.03593957045135 180.38541390606488 L 147.72055169477642 178.1392644069648 L 149.3935730056129 175.90856932584953 L 151.05545394269996 173.69272807640004 L 152.70663453897026 171.4911539480397 L 154.34754492513315 169.30327343315582 L 155.97860581391072 167.12852558145238 L 157.6002289651439 164.96636137980815 L 159.2128176329125 162.81624315611668 L 160.8167669957537 160.67764400566173 L 162.41246457099766 158.55004723866978 L 164.0002906141898 156.43294584774696 L 165.58061850451304 154.3258419939826 L 167.15381511708085 152.22824651055888 L 168.72024118292103 150.13967842277196 L 170.28025163743584 148.05966448341889 L 171.83419595808215 145.9877387225571 L 173.38241849198062 143.9234420106925 L 174.92525877413317 141.8663216344891 L 176.4630518368931 139.81593088414257 L 177.9961285113091 137.77182865158784 L 179.52481572093578 135.73357903875228 L 181.04943676868268 133.70075097508982 L 182.5703116172484 131.6729178436688 L 184.0877571636705 129.64965711510598 L 185.60208750850097 127.6305499886654 L 187.11361422010418 125.61518103986106 L 188.62264659455494 123.60313787392681 L 190.12949191160484 121.59401078452686 L 191.63445568717196 119.58739241710407 L 193.1378419227993 117.58287743626755 L 194.63995335251636 115.58006219664486 L 196.14109168753342 113.5785444166221 L 197.64155785918953 111.57792285441394 L 199.14165226057227 109.57779698590366 L 200.64167498721974 110.62223331629298 L 202.1419260773176 112.62256810309015 L 203.6427057517973 114.62360766906312 L 205.14431465474678 116.62575287299569 L 206.6470540945396 118.62940545938613 L 208.15122628609694 120.63496838146261 L 209.6571345946951 122.64284612626017 L 211.1650837817384 124.65344504231786 L 212.67538025292347 126.66717367056464 L 214.1883323092252 128.68444307896692 L 215.7042504011462 130.70566720152829 L 217.22344738667832 132.73126318223774 L 218.74623879344 134.76165172458667 L 220.27294308546 136.79725744728 L 221.80388193509683 138.8385092467958 L 223.33938050059626 140.8858406674617 L 224.87976770980893 142.93969027974526 L 226.42537655060394 145.00050206747193 L 227.97654436854157 147.06872582472207 L 229.5336131723844 149.14481756317917 L 231.09692994805727 151.22923993074306 L 232.6668469816858 153.32246264224776 L 234.24372219237858 155.42496292317145 L 235.82791947544547 157.53722596726067 L 237.41980905678122 159.65974540904162 L 239.019767859176 161.7930238122347 L 240.62817988135978 163.93757317514635 L 242.24543659062314 166.09391545416423 L 243.87193732991184 168.26258310654913 L 245.50808974033086 170.44411965377452 L 247.15431020005852 172.63908026674468 L 248.8110242807199 174.84803237429318 L 250.47866722233508 177.07155629644677 L 252.15768442802536 179.31024590403382 L 253.84853197972714 181.56470930630286 L 255.55167717624767 183.83556956833024 L 257.2675990950745 186.12346546009934 L 258.99678917944567 188.42905223926095 L 260.73975185227926 190.75300246970562 L 262.4970051586703 193.09600687822706 L 264.2690814387748 195.4587752516997 L 266.05652803302195 197.8420373773626 L 267.85990802172785 200.24654402897045 L 269.6798010013273 202.67306800176974 L 271.51680389959375 205.1224051994583 L 273.371531832386 207.59537577651466 L 275.24461900463683 210.09282533951577 L 277.13671965849943 212.61562621133254 L 279.04850907177513 215.16467876236683 L 280.98068460998047 217.74091281330732 L 282.9339668356551 220.3452891142068 L 284.9091006787887 222.97880090505163 L 286.9068566725365 225.642475563382 L 288.9280322587147 228.33737634495301 L 290.973453167914 231.06460422388534 L 293.0439748794495 233.82529983926602 L 295.1404841667822 236.6206455557096 L 297.26390073449164 239.4518676459888 L 299.41517895338137 242.32023860450855 L 301.595309700828 245.22707960110404 L 303.8053223140798 248.1737630854397 L 306.04628666485246 251.16171555313662 L 308.31931536427925 254.19242048570564 L 310.6255661080395 257.26742147738594 L 312.9662441723489 260.38832556313196 L 315.3426050724209 263.5568067632279 L 317.7559573960406 266.7746098613875 L 320.20766582601954 270.04355443469274 L 322.69915436654645 273.36553915539525 L 325.23190978982313 276.74254638643083 L 327.80748532089484 280.17664709452646 L 330.4275045802545 283.670006107006 L 333.09366580566564 287.22488774088754 L 335.8077463766992 290.84366183559894 L 338.5716076677682 294.52881022369104 L 341.38720025797056 298.28293367729407 L 344.25656952887744 302.1087593718365 L 347.1818616845388 306.0091489127184 L 349.5 309.0576069012533 L 349.5 308.86833098279067 L 349.5 308.68271364885635 L 349.5 308.50061376747533 L 349.5 308.3218968866921 L 349.5 308.1464348331931 L 349.5 307.97410533926995 L 349.5 307.8047916958078 L 349.5 307.63838242919604 L 349.5 307.4747710002523 L 349.5 307.3138555234211 L 349.5 307.155538504663 L 349.5 306.99972659659124 L 349.5 306.84633036953727 L 349.5 306.6952640973414 L 349.5 306.5464455567648 L 349.5 306.3997958395167 L 349.5 306.25523917596945 L 349.5 306.1127027697148 L 349.5 305.9721166421818 L 349.5 305.83341348659945 L 349.5 305.69652853064747 L 349.5 305.56139940718595 L 349.5 305.42796603250713 L 349.5 305.2961704915923 L 349.5 305.1659569298991 L 349.5 305.037271451238 L 349.5 304.9100620213328 L 349.5 304.78427837668767 L 349.5 304.65987193841346 L 349.5 304.5367957306893 L 349.5 304.41500430355995 L 349.5 304.2944536597918 L 349.5 304.17510118552775 L 349.5 304.0569055845018 L 349.5 303.9398268155896 L 349.5 303.8238260334863 L 349.5 303.7088655323189 L 349.5 303.59490869201164 L 349.5 303.4819199272351 L 349.5 303.36986463878293 L 349.5 303.25870916722823 L 349.5 303.1484207487209 L 349.5 303.0389674727991 L 349.5 302.9303182420921 L 349.5 302.8224427338032 L 349.5 302.7153113628645 L 349.5 302.6088952466655 L 349.5 302.50316617126157 L 349.5 302.3980965589731 L 349.5 302.29365943729357 L 349.5 302.18982840902834 L 349.5 302.08657762358956 L 349.5 301.9838817493786 L 349.5 301.88171594719023 L 349.5 301.78005584457514 L 349.5 301.67887751110425 L 349.5 301.5781574344767 L 349.5 301.4778724974201 L 349.5 301.3779999553321 L 349.5 301.2785174146157 L 349.5 301.1794028116624 L 349.5 301.0806343924402 L 349.5 300.98219069264394 L 349.5 300.88405051837003 L 349.5 300.7861929272747 L 349.5 300.68859721018214 L 349.5 300.5912428731049 L 349.5 300.4941096196441 L 349.5 300.39717733373595 L 349.5 300.3004260627129 L 349.5 300.20383600064895 L 349.5 300.10738747195876 L 349.5 300.0110609152216 L 349.5 299.9148368672017 L 349.5 299.81869594703693 L 349.5 299.72261884056803 L 349.5 299.6265862847824 L 349.5 299.5305790523443 L 349.5 299.5" fill-opacity="1"/><path fill="#ffffff" stroke="none" paint-order="stroke fill markers" d="" fill-opacity="1"/><g><path fill="none" stroke="#ffffff" class="dcg-svg-curve" paint-order="fill stroke markers" d=" M 349.5 299.5 L 349.5 299.5 L 349.5 299.403996799872 L 349.5 299.30797439590333 L 349.5 299.21191356888465 L 349.5 299.11579506884306 L 349.5 299.0195995995948 L 349.5 298.9233078032196 L 349.5 298.82690024442877 L 349.5 298.7303573948025 L 349.5 298.63365961686605 L 349.5 298.5367871479797 L 349.5 298.43972008401244 L 349.5 298.3424383627715 L 349.5 298.2449217471572 L 349.5 298.1471498080132 L 349.5 298.0491019066404 L 349.5 297.950757176942 L 349.5 297.8520945071666 L 349.5 297.7530925212141 L 349.5 297.6537295594678 L 349.5 297.55398365911674 L 349.5 297.45383253392663 L 349.5 297.35325355342064 L 349.5 297.25222372142593 L 349.5 297.1507196539411 L 349.5 297.04871755627806 L 349.5 296.94619319942785 L 349.5 296.8431218955997 L 349.5 296.739478472877 L 349.5 296.63523724893344 L 349.5 296.53037200374763 L 349.5 296.4248559512519 L 349.5 296.31866170984733 L 349.5 296.2117612717116 L 349.5 296.1041259708244 L 349.5 295.9957264496279 L 349.5 295.88653262423657 L 349.5 295.77651364810384 L 349.5 295.665637874049 L 349.5 295.55387281453875 L 349.5 295.44118510011367 L 349.5 295.32754043584106 L 349.5 295.2129035556679 L 349.5 295.0972381745387 L 349.5 294.98050693813485 L 349.5 294.8626713700809 L 349.5 294.7436918164523 L 349.5 294.6235273874091 L 349.5 294.5021358957639 L 349.5 294.37947379228285 L 349.5 294.25549609749964 L 349.5 294.13015632980853 L 349.5 294.003406429584 L 349.5 293.8751966790547 L 349.5 293.7454756176401 L 349.5 293.6141899524339 L 349.5 293.4812844634941 L 349.5 293.34670190357286 L 349.5 293.21038289188954 L 349.5 293.0722658015171 L 349.5 292.93228663991977 L 349.5 292.79037892213705 L 349.5 292.6464735360713 L 349.5 292.50049859928674 L 349.5 292.35237930667876 L 349.5 292.2020377683167 L 349.5 292.04939283670086 L 349.5 291.8943599226087 L 349.5 291.7368507986314 L 349.5 291.5767733894173 L 349.5 291.41403154755443 L 349.5 291.24852481391736 L 349.5 291.0801481612016 L 349.5 290.9087917192402 L 349.5 290.73434048056674 L 349.5 290.5566739845369 L 349.5 290.3756659781555 L 349.5 290.19118405156973 L 349.5 290.0030892459846 L 348.12576333113327 288.067684441511 L 345.18219009757115 284.1429201300949 L 342.29524559122933 280.2936607883057 L 339.4627501552822 276.51700020704294 L 336.6826269676304 272.8101692901739 L 333.9528958786516 269.17052783820213 L 331.27166768280176 265.59555691040237 L 328.63713878872153 262.08285171829533 L 326.04758625574914 258.63011500766555 L 323.5013631676611 255.23515089021475 L 320.9968943170792 251.8958590894389 L 318.5326721763476 248.61022956846344 L 316.1072531328044 245.37633751040582 L 313.71925396829346 242.19233862439128 L 311.3673485644942 239.0564647526589 L 309.05026481721177 235.96701975628233 L 306.7667817441908 232.92237565892106 L 304.5157267722987 229.9209690297316 L 302.2959731910908 226.96129758812108 L 300.106437760829 224.0419170144387 L 297.94607846398674 221.16143795198226 L 295.8138923901496 218.31852318686614 L 293.7089137450183 215.5118849933577 L 291.6302119749468 212.74028263326235 L 289.57688999911386 210.00251999881846 L 287.54808254202965 207.29744338937286 L 285.5429545596362 204.62393941284824 L 283.5606997527636 201.98093300368475 L 281.6005391621715 199.36738554956202 L 279.6617198398288 196.7822931197717 L 277.743513591474 194.224684788632 L 275.84521578585964 191.69362104781288 L 273.96614422640965 189.18819230187955 L 272.1056380813238 186.707517441765 L 270.2630568684394 184.25074249125248 L 268.43777949141884 181.81703932189177 L 266.62920332406543 179.40560443208722 L 264.8367433397883 177.01565778638442 L 263.05983128343917 174.6464417112522 L 261.2979148829258 172.29721984390105 L 259.55045709818233 169.9672761309098 L 257.8169354052307 167.655913873641 L 256.09684111321616 165.3624548176215 L 254.38967871243386 163.08623828324514 L 252.69496525149034 160.82662033532043 L 251.01222974185643 158.58297298914187 L 249.34101258817927 156.3546834509057 L 247.68086504281825 154.14115339042434 L 246.03134868316212 151.9417982442162 L 244.39203491037136 149.75604654716182 L 242.76250446826782 147.58333929102378 L 241.14234698116874 145.423129308225 L 239.53116050952858 143.2748806793714 L 237.92855112231777 141.13806816309034 L 236.33413248512554 139.012176646834 L 234.747525463027 136.89670061736933 L 233.16835773730892 134.7911436497452 L 231.5962634351917 132.6950179135889 L 230.0308827717317 130.60784369564226 L 228.47186170312716 128.5291489375029 L 226.91885159068872 126.45846878758493 L 225.37150887477003 124.39534516636002 L 223.8294947579868 122.3393263439824 L 222.29247489708115 120.28996652944153 L 220.76011910281687 118.2468254704225 L 219.23210104731447 116.20946806308592 L 217.70809797826107 114.17746397101473 L 216.18779043944778 112.150387252597 L 214.67086199710968 110.12781599614624 L 213.15699897155963 108.10933196207947 L 211.6458901736232 106.0945202314976 L 210.13722664539785 104.08296886053046 L 208.63070140487005 102.07426853982673 L 207.12600919393793 100.0680122585839 L 205.62284622939586 98.06379497252783 L 204.12090995644613 96.06121327526148 L 202.61989880431094 94.05986507241454 L 201.11951194352375 92.05934925803166 L 199.61944904448347 90.05926539264465 L 198.11941003686002 91.74078661751997 L 196.6190948694405 93.74120684074603 L 195.11820327000828 95.74239563998896 L 193.61643450484587 97.74475399353884 L 192.11348713745247 99.74868381673008 L 190.60905878606403 101.75458828524802 L 189.1028458795606 103.76287216058586 L 187.59454341134136 105.7739421182115 L 186.08384469074022 107.78820707901303 L 184.57044109154964 109.8060785446005 L 183.05402179721048 111.82797093705267 L 181.5342735422161 113.8543019437119 L 180.01088034926792 115.88549286764277 L 178.4835232617063 117.92196898439158 L 176.95188007072719 119.9641599056971 L 175.41562503687865 122.01249995082844 L 173.8744286053142 124.06742852624774 L 172.3279571142603 126.1293905143196 L 170.7758724961354 128.19883667181944 L 169.21783197073393 130.27622403902143 L 167.65348772986422 132.36201636018103 L 166.08248661280305 134.4566845162626 L 164.50446977189833 136.56070697080224 L 162.9190723276225 138.67457022983666 L 161.3259230123416 140.79876931687784 L 159.72464380203124 142.93380826395833 L 158.11484953512814 145.08020061982916 L 156.49614751766447 147.23846997644736 L 154.86813711378448 149.40915051495398 L 153.23040932069412 151.59278757240784 L 151.58254632703867 153.7899382306151 L 149.92412105364713 156.00117192847048 L 148.25469667551798 158.2270710993094 L 146.57382612385356 160.46823183486194 L 144.88105156687857 162.72526457749524 L 143.17590386809832 164.99879484253557 L 141.4579020205689 167.28946397257482 L 139.7265525556598 169.59792992578693 L 137.98134892469116 171.92486810041177 L 136.22177085172194 174.27097219770408 L 134.44728365565066 176.6369551257991 L 132.65733753966686 179.02354994711084 L 130.85136684595713 181.43151087205717 L 129.0287892734271 183.86161430209722 L 127.18900505604135 186.3146599252782 L 125.3313960992187 188.7914718677084 L 123.45532507153195 191.29289990462408 L 121.56013444876929 193.8198207349743 L 119.64514550719349 196.37313932374204 L 117.70965726260783 198.9537903165229 L 115.75294535157984 201.5627395312269 L 113.7742608509038 204.20098553212827 L 111.77282903108029 206.86956129189298 L 109.74784803927147 209.56953594763803 L 107.69848750683083 212.3020166575589 L 105.6238870761294 215.06815056516078 L 103.52315484097299 217.8691268787027 L 101.39536569445355 220.7061790740619 L 99.2395595775735 223.58058722990197 L 97.05473962143988 226.4936805047468 L 94.8398701752225 229.44683976636998 L 92.5938747114236 232.44150038476852 L 90.31563359928091 235.4791552009588 L 88.0039817363505 238.56135768486595 L 85.65770602744277 241.68972529674295 L 83.27554269914617 244.86594306780506 L 80.85617443712356 248.09176741716857 L 78.39822733222385 251.36903022370154 L 75.90026762018114 254.6996431730918 L 73.36079819828295 258.0856024022894 L 70.77825490084373 261.5289934655417 L 68.15100251361547 265.0319966485127 L 65.4773305053833 268.59689265948896 L 62.755448452897475 272.22606872947006 L 59.98348113297865 275.92202515602844 L 57.15946325304847 279.6873823292687 L 54.281333788478506 283.52488828202866 L 51.34692989194757 287.4374268107366 L 49.5 289.97278913989663 L 49.5 290.16147263700316 L 49.5 290.3465204916141 L 49.5 290.5280727436997 L 49.5 290.7062628191353 L 49.5 290.88121792640106 L 49.5 291.05305942532436 L 49.5 291.22190317014633 L 49.499999999999964 291.3878598289812 L 49.50000000000002 291.5510351815518 L 49.5 291.7115303969119 L 49.5 291.8694422927162 L 49.5 292.02486357746227 L 49.5 292.17788307700175 L 49.499999999999964 292.3285859465089 L 49.5 292.47705386899423 L 49.5 292.62336524135645 L 49.5 292.7675953488849 L 49.5 292.90981652905117 L 49.5 293.05009832535626 L 49.5 293.1885076319412 L 49.5 293.325108829611 L 49.50000000000002 293.4599639138699 L 49.5 293.59313261552103 L 49.5 293.7246725143383 L 49.5 293.85463914628093 L 49.5 293.9830861046851 L 49.5 294.11006513583413 L 49.5 294.2356262292785 L 49.5 294.35981770325077 L 49.5 294.48268628549386 L 49.5 294.604277189799 L 49.5 294.72463418852806 L 49.5 294.84379968137614 L 49.5 294.9618147606108 L 49.50000000000002 295.07871927301056 L 49.5 295.19455187870625 L 49.5 295.30935010711886 L 49.50000000000002 295.42315041017184 L 49.5 295.53598821294463 L 49.5 295.6478979619235 L 49.5 295.7589131709954 L 49.5 295.8690664653209 L 49.5 295.9783896232142 L 49.5 296.0869136161487 L 49.5 296.19466864700183 L 49.5 296.3016841866422 L 49.5 296.40798900895965 L 49.5 296.5136112244295 L 49.5 296.6185783122993 L 49.5 296.7229171514799 L 49.5 296.8266540502176 L 49.5 296.9298147746214 L 49.5 297.0324245761136 L 49.5 297.1345082178691 L 49.5 297.236090000305 L 49.5 297.33719378567866 L 49.5 297.4378430218498 L 49.5 297.53806076525893 L 49.5 297.6378697031723 L 49.5 297.7372921752403 L 49.5 297.83635019441505 L 49.5 297.9350654672702 L 49.50000000000002 298.03345941376426 L 49.5 298.13155318648694 L 49.5 298.229367689426 L 49.5 298.3269235962918 L 49.5 298.42424136843374 L 49.5 298.5213412723829 L 49.5 298.6182433970535 L 49.5 298.71496767063405 L 49.50000000000002 298.81153387719996 L 49.5 298.90796167307656 L 49.5 299.00427060298193 L 49.5 299.1004801159779 L 49.50000000000002 299.19660958125735 L 49.50000000000002 299.2926783037947 L 49.5 299.3887055398867 L 49.5 299.4847105126105 L 49.5 299.5807124272252 L 49.5 299.6767304865428 L 49.5 299.77278390629533 L 49.499999999999964 299.8688919305236 L 49.5 299.96507384701425 L 49.5 300.061349002812 L 49.5 300.15773681983137 L 49.5 300.25425681059824 L 49.5 300.35092859414533 L 49.5 300.4477719120907 L 49.5 300.544806644928 L 49.5 300.64205282855585 L 49.5 300.73953067107743 L 49.5 300.8372605698995 L 49.5 300.93526312916293 L 49.5 301.0335591775363 L 49.5 301.13216978640685 L 49.5 301.2311162885028 L 49.5 301.3304202969823 L 49.5 301.4301037250287 L 49.50000000000002 301.5301888059879 L 49.50000000000002 301.63069811409156 L 49.5 301.73165458580604 L 49.5 301.8330815418542 L 49.5 301.9350027099543 L 49.5 302.03744224832724 L 49.5 302.1404247700227 L 49.5 302.24397536811813 L 49.5 302.348119641849 L 49.499999999999964 302.45288372373096 L 49.5 302.558294307736 L 49.50000000000002 302.66437867859304 L 49.5 302.77116474228205 L 49.50000000000002 302.87868105779944 L 49.5 302.9869568702745 L 49.5 303.0960221455225 L 49.5 303.2059076061257 L 49.5 303.3166447691389 L 49.499999999999964 303.42826598552244 L 49.5 303.54080448141235 L 49.5 303.6542944013454 L 49.5 303.76877085356256 L 49.5 303.8842699575259 L 49.5 304.0008288937903 L 49.5 304.1184859563832 L 49.5 304.23728060785504 L 49.50000000000002 304.35725353717635 L 49.5 304.4784467206673 L 49.5 304.6009034861629 L 49.5 304.7246685806279 L 49.5 304.849788241455 L 49.5 304.9763102716946 L 49.5 305.10428411948567 L 49.5 305.23376096197603 L 49.5 305.36479379404363 L 49.5 305.4974375221558 L 49.5 305.6317490637279 L 49.50000000000002 305.76778745237397 L 49.5 305.90561394947247 L 49.499999999999964 306.045292162506 L 49.5 306.18688817067 L 49.5 306.3304706582901 L 49.5 306.4761110566287 L 49.50000000000002 306.62388369471705 L 49.5 306.77386595989805 L 49.5 306.92613846883 L 49.5 307.08078524976463 L 49.5 307.2378939369867 L 49.5 307.39755597838416 L 49.5 307.55986685720273 L 49.5 307.7249263291418 L 49.5 307.892838676052 L 49.5 308.0637129776179 L 49.5 308.2376634025399 L 49.5 308.41480952087824 L 49.5 308.59527663938456 L 49.5 308.77919616182925 L 49.5 308.9667059765342 L 50.400049207745845 307.89993438967224 L 53.35284982835737 303.9628668955235 L 56.248664650799554 300.10178046560054 L 59.08969030961563 296.31374625384586 L 61.878019580603805 292.59597389252826 L 64.61564761566129 288.9458031791183 L 67.30447773782579 285.3606963495656 L 69.9463268324075 281.8382308901233 L 72.54293036680724 278.376092844257 L 75.09594706864175 274.97207057514436 L 77.60696328913677 271.62404894781764 L 80.07749707634375 268.33000389820836 L 82.50900198058187 265.0879973592242 L 84.90287061254807 261.8961725166026 L 87.26043797278572 258.75274936961904 L 89.58298456960478 255.6560205738603 L 91.87173934111169 252.60434754518442 L 94.12788239569453 249.59615680574063 L 96.35254758413195 246.62993655449074 L 98.54682491541512 243.7042334461132 L 100.71176282739877 240.81764956346834 L 102.84837032250329 237.96883956999562 L 104.9576189778859 235.15650802948548 L 107.04044483875667 232.3794068816578 L 109.09775020284732 229.63633306287025 L 111.13040530341792 226.92612626210945 L 113.13924989763352 224.2476668031553 L 115.1250947666218 221.59987364450427 L 117.08872313305768 218.98170248925643 L 119.03089200168382 216.39214399775489 L 120.95233342778619 213.8302220962851 L 122.85375571827525 211.294992375633 L 124.73584456969701 208.7855405737373 L 126.59926414718258 206.3009811370899 L 128.444658108071 203.84045585590533 L 130.27265057367683 201.4031325684309 L 132.08384705243387 198.98820393008816 L 133.87883531743074 196.5948862434257 L 135.65818624114385 194.22241834514156 L 137.42245458999247 191.8700605466767 L 139.1721797811624 189.53709362511677 L 140.90788660398863 187.2228178613485 L 142.63008590803463 184.9265521226205 L 144.3392752598744 182.64763298683414 L 146.03593957045135 180.38541390606488 L 147.72055169477642 178.1392644069648 L 149.3935730056129 175.90856932584953 L 151.05545394269996 173.69272807640004 L 152.70663453897026 171.4911539480397 L 154.34754492513315 169.30327343315582 L 155.97860581391072 167.12852558145238 L 157.6002289651439 164.96636137980815 L 159.2128176329125 162.81624315611668 L 160.8167669957537 160.67764400566173 L 162.41246457099766 158.55004723866978 L 164.0002906141898 156.43294584774696 L 165.58061850451304 154.3258419939826 L 167.15381511708085 152.22824651055888 L 168.72024118292103 150.13967842277196 L 170.28025163743584 148.05966448341889 L 171.83419595808215 145.9877387225571 L 173.38241849198062 143.9234420106925 L 174.92525877413317 141.8663216344891 L 176.4630518368931 139.81593088414257 L 177.9961285113091 137.77182865158784 L 179.52481572093578 135.73357903875228 L 181.04943676868268 133.70075097508982 L 182.5703116172484 131.6729178436688 L 184.0877571636705 129.64965711510598 L 185.60208750850097 127.6305499886654 L 187.11361422010418 125.61518103986106 L 188.62264659455494 123.60313787392681 L 190.12949191160484 121.59401078452686 L 191.63445568717196 119.58739241710407 L 193.1378419227993 117.58287743626755 L 194.63995335251636 115.58006219664486 L 196.14109168753342 113.5785444166221 L 197.64155785918953 111.57792285441394 L 199.14165226057227 109.57779698590366 L 200.64167498721974 110.62223331629298 L 202.1419260773176 112.62256810309015 L 203.6427057517973 114.62360766906312 L 205.14431465474678 116.62575287299569 L 206.6470540945396 118.62940545938613 L 208.15122628609694 120.63496838146261 L 209.6571345946951 122.64284612626017 L 211.1650837817384 124.65344504231786 L 212.67538025292347 126.66717367056464 L 214.1883323092252 128.68444307896692 L 215.7042504011462 130.70566720152829 L 217.22344738667832 132.73126318223774 L 218.74623879344 134.76165172458667 L 220.27294308546 136.79725744728 L 221.80388193509683 138.8385092467958 L 223.33938050059626 140.8858406674617 L 224.87976770980893 142.93969027974526 L 226.42537655060394 145.00050206747193 L 227.97654436854157 147.06872582472207 L 229.5336131723844 149.14481756317917 L 231.09692994805727 151.22923993074306 L 232.6668469816858 153.32246264224776 L 234.24372219237858 155.42496292317145 L 235.82791947544547 157.53722596726067 L 237.41980905678122 159.65974540904162 L 239.019767859176 161.7930238122347 L 240.62817988135978 163.93757317514635 L 242.24543659062314 166.09391545416423 L 243.87193732991184 168.26258310654913 L 245.50808974033086 170.44411965377452 L 247.15431020005852 172.63908026674468 L 248.8110242807199 174.84803237429318 L 250.47866722233508 177.07155629644677 L 252.15768442802536 179.31024590403382 L 253.84853197972714 181.56470930630286 L 255.55167717624767 183.83556956833024 L 257.2675990950745 186.12346546009934 L 258.99678917944567 188.42905223926095 L 260.73975185227926 190.75300246970562 L 262.4970051586703 193.09600687822706 L 264.2690814387748 195.4587752516997 L 266.05652803302195 197.8420373773626 L 267.85990802172785 200.24654402897045 L 269.6798010013273 202.67306800176974 L 271.51680389959375 205.1224051994583 L 273.371531832386 207.59537577651466 L 275.24461900463683 210.09282533951577 L 277.13671965849943 212.61562621133254 L 279.04850907177513 215.16467876236683 L 280.98068460998047 217.74091281330732 L 282.9339668356551 220.3452891142068 L 284.9091006787887 222.97880090505163 L 286.9068566725365 225.642475563382 L 288.9280322587147 228.33737634495301 L 290.973453167914 231.06460422388534 L 293.0439748794495 233.82529983926602 L 295.1404841667822 236.6206455557096 L 297.26390073449164 239.4518676459888 L 299.41517895338137 242.32023860450855 L 301.595309700828 245.22707960110404 L 303.8053223140798 248.1737630854397 L 306.04628666485246 251.16171555313662 L 308.31931536427925 254.19242048570564 L 310.6255661080395 257.26742147738594 L 312.9662441723489 260.38832556313196 L 315.3426050724209 263.5568067632279 L 317.7559573960406 266.7746098613875 L 320.20766582601954 270.04355443469274 L 322.69915436654645 273.36553915539525 L 325.23190978982313 276.74254638643083 L 327.80748532089484 280.17664709452646 L 330.4275045802545 283.670006107006 L 333.09366580566564 287.22488774088754 L 335.8077463766992 290.84366183559894 L 338.5716076677682 294.52881022369104 L 341.38720025797056 298.28293367729407 L 344.25656952887744 302.1087593718365 L 347.1818616845388 306.0091489127184 L 349.5 309.0576069012533 L 349.5 308.86833098279067 L 349.5 308.68271364885635 L 349.5 308.50061376747533 L 349.5 308.3218968866921 L 349.5 308.1464348331931 L 349.5 307.97410533926995 L 349.5 307.8047916958078 L 349.5 307.63838242919604 L 349.5 307.4747710002523 L 349.5 307.3138555234211 L 349.5 307.155538504663 L 349.5 306.99972659659124 L 349.5 306.84633036953727 L 349.5 306.6952640973414 L 349.5 306.5464455567648 L 349.5 306.3997958395167 L 349.5 306.25523917596945 L 349.5 306.1127027697148 L 349.5 305.9721166421818 L 349.5 305.83341348659945 L 349.5 305.69652853064747 L 349.5 305.56139940718595 L 349.5 305.42796603250713 L 349.5 305.2961704915923 L 349.5 305.1659569298991 L 349.5 305.037271451238 L 349.5 304.9100620213328 L 349.5 304.78427837668767 L 349.5 304.65987193841346 L 349.5 304.5367957306893 L 349.5 304.41500430355995 L 349.5 304.2944536597918 L 349.5 304.17510118552775 L 349.5 304.0569055845018 L 349.5 303.9398268155896 L 349.5 303.8238260334863 L 349.5 303.7088655323189 L 349.5 303.59490869201164 L 349.5 303.4819199272351 L 349.5 303.36986463878293 L 349.5 303.25870916722823 L 349.5 303.1484207487209 L 349.5 303.0389674727991 L 349.5 302.9303182420921 L 349.5 302.8224427338032 L 349.5 302.7153113628645 L 349.5 302.6088952466655 L 349.5 302.50316617126157 L 349.5 302.3980965589731 L 349.5 302.29365943729357 L 349.5 302.18982840902834 L 349.5 302.08657762358956 L 349.5 301.9838817493786 L 349.5 301.88171594719023 L 349.5 301.78005584457514 L 349.5 301.67887751110425 L 349.5 301.5781574344767 L 349.5 301.4778724974201 L 349.5 301.3779999553321 L 349.5 301.2785174146157 L 349.5 301.1794028116624 L 349.5 301.0806343924402 L 349.5 300.98219069264394 L 349.5 300.88405051837003 L 349.5 300.7861929272747 L 349.5 300.68859721018214 L 349.5 300.5912428731049 L 349.5 300.4941096196441 L 349.5 300.39717733373595 L 349.5 300.3004260627129 L 349.5 300.20383600064895 L 349.5 300.10738747195876 L 349.5 300.0110609152216 L 349.5 299.9148368672017 L 349.5 299.81869594703693 L 349.5 299.72261884056803 L 349.5 299.6265862847824 L 349.5 299.5305790523443 L 349.5 299.5" stroke-linecap="round" stroke-linejoin="round" stroke-miterlimit="10" stroke-width="2.5" stroke-opacity="1" stroke-dasharray=""/></g></g></g><g id="labels-d16828b9"/></g></svg>