<svg version="1.1" xmlns="http://www.w3.org/2000/svg" xmlns:xlink="http://www.w3.org/1999/xlink" width="800" height="800"><defs/><g transform="scale(2,2)"><g id="background-83bc3779"></g><g id="background-images-83bc3779"/><g id="graphpaper-83bc3779"><g id="axis-83bc3779"><g><g><path fill="none" stroke="rgb(0,0,0)" class="dcg-svg-tickmark" paint-order="fill stroke markers" d="" stroke-opacity="1" stroke-miterlimit="2" stroke-width="1.5" stroke-dasharray=""/></g></g></g></g><g id="expressions-83bc3779"><g id="sketch-83bc3779"><title>Expression 99</title><path fill="#ffffff" stroke="none" class="dcg-svg-region" paint-order="stroke fill markers" d=" M 349.5 299.5 L 349.5 299.36599553315466 L 349.5 299.2319642609484 L 349.5 299.09787935656817 L 349.5 298.9637139502601 L 349.5 298.82944110776776 L 349.5 298.6950338086606 L 349.5 298.56046492451514 L 349.5 298.42570719691184 L 349.5 298.2907332152089 L 349.5 298.155515394055 L 349.5 298.02002595060065 L 349.5 297.8842368813685 L 349.5 297.7481199387402 L 349.5 297.61164660701843 L 349.5 297.47478807801883 L 349.5 297.3375152261482 L 349.5 297.1997985829201 L 349.5 297.06160831086135 L 349.5 296.9229141767572 L 349.5 296.7836855241838 L 349.5 296.6438912452726 L 349.5 296.50349975164966 L 349.5 296.36247894449036 L 349.5 296.22079618362613 L 349.5 296.0784182556381 L 349.5 295.93531134086805 L 349.5 295.7914409792746 L 349.5 295.6467720350575 L 349.5 295.5012686599696 L 349.5 295.35489425523105 L 349.5 295.2076114319558 L 349.5 295.05938196999523 L 349.5 294.9101667750975 L 349.5 294.75992583427575 L 349.5 294.6086181692723 L 349.5 294.45620178799686 L 349.5 294.30263363381164 L 349.5 294.1478695325268 L 349.5 293.9918641369603 L 349.5 293.83457086890866 L 349.5 293.6759418583615 L 349.5 293.51592787978643 L 349.5 293.35447828529357 L 349.5 293.19154093447986 L 349.5 293.02706212073787 L 349.5 292.860986493798 L 349.5 292.69325697825855 L 349.5 292.5238146878371 L 349.5 292.3525988350615 L 349.5 292.17954663609316 L 349.5 292.0045932103577 L 349.5 291.82767147462766 L 349.5 291.6487120311805 L 349.5 291.4676430496226 L 349.5 291.28439014193896 L 349.5 291.0988762302938 L 349.5 290.9110214070705 L 349.5 290.7207427865958 L 349.5 290.527954347951 L 349.5 290.33256676822134 L 349.5 290.13448724548294 L 349.5 289.9336193107662 L 349.5 289.729862628171 L 349.5 289.5231127822391 L 349.5 289.3132610516087 L 349.5 289.1001941678949 L 349.5 288.88379405864134 L 349.5 288.66393757308964 L 349.5 288.44049618939505 L 349.5 288.21333570179473 L 349.5 287.982315886093 L 349.5 287.74729014167724 L 349.5 287.50810510810607 L 349.5 287.2646002541244 L 349.5 287.01660743674944 L 349.5 286.763950427842 L 349.5 286.5064444053161 L 349.5 286.24389540585355 L 348.12576333113327 284.26768444151105 L 345.18219009757115 280.3429201300949 L 342.29524559122933 276.49366078830576 L 339.4627501552822 272.71700020704293 L 336.6826269676304 269.01016929017396 L 333.9528958786516 265.3705278382021 L 331.27166768280176 261.79555691040235 L 328.63713878872153 258.2828517182953 L 326.04758625574914 254.83011500766557 L 323.5013631676611 251.4351508902148 L 320.9968943170792 248.0958590894389 L 318.5326721763476 244.81022956846346 L 316.1072531328044 241.57633751040584 L 313.71925396829346 238.3923386243913 L 311.3673485644942 235.25646475265893 L 309.05026481721177 232.16701975628234 L 306.7667817441908 229.12237565892107 L 304.5157267722987 226.1209690297316 L 302.2959731910908 223.1612975881211 L 300.106437760829 220.24191701443874 L 297.94607846398674 217.36143795198228 L 295.8138923901496 214.51852318686616 L 293.7089137450183 211.71188499335773 L 291.6302119749468 208.94028263326237 L 289.57688999911386 206.20251999881847 L 287.54808254202965 203.4974433893729 L 285.5429545596362 200.82393941284826 L 283.5606997527636 198.18093300368477 L 281.6005391621715 195.56738554956203 L 279.6617198398288 192.98229311977173 L 277.743513591474 190.42468478863202 L 275.84521578585964 187.8936210478129 L 273.96614422640965 185.3881923018796 L 272.1056380813238 182.907517441765 L 270.2630568684394 180.45074249125253 L 268.43777949141884 178.0170393218918 L 266.62920332406543 175.60560443208723 L 264.8367433397883 173.21565778638444 L 263.05983128343917 170.84644171125223 L 261.2979148829258 168.49721984390106 L 259.55045709818233 166.1672761309098 L 257.8169354052307 163.85591387364101 L 256.09684111321616 161.56245481762153 L 254.38967871243386 159.28623828324515 L 252.69496525149034 157.02662033532044 L 251.01222974185643 154.78297298914188 L 249.34101258817927 152.5546834509057 L 247.68086504281825 150.34115339042435 L 246.03134868316212 148.1417982442162 L 244.39203491037136 145.95604654716183 L 242.76250446826782 143.7833392910238 L 241.14234698116874 141.62312930822503 L 239.53116050952858 139.47488067937144 L 237.92855112231777 137.33806816309038 L 236.33413248512554 135.212176646834 L 234.747525463027 133.09670061736932 L 233.16835773730892 130.99114364974525 L 231.5962634351917 128.89501791358896 L 230.0308827717317 126.80784369564225 L 228.47186170312716 124.72914893750288 L 226.91885159068872 122.65846878758492 L 225.37150887477003 120.59534516636 L 223.8294947579868 118.5393263439824 L 222.29247489708115 116.48996652944157 L 220.76011910281687 114.44682547042248 L 219.23210104731447 112.40946806308597 L 217.70809797826107 110.37746397101472 L 216.18779043944778 108.35038725259705 L 214.67086199710968 106.32781599614628 L 213.15699897155963 104.30933196207951 L 211.6458901736232 102.29452023149764 L 210.13722664539785 100.2829688605305 L 208.63070140487005 98.27426853982672 L 207.12600919393793 96.26801225858395 L 205.62284622939586 94.26379497252782 L 204.12090995644613 92.26121327526153 L 202.61989880431094 90.25986507241458 L 201.11951194352375 88.2593492580317 L 199.61944904448347 86.25926539264464 L 198.11941003686002 87.94078661752002 L 196.6190948694405 89.94120684074602 L 195.11820327000828 91.942395639989 L 193.61643450484587 93.94475399353882 L 192.11348713745247 95.94868381673007 L 190.60905878606403 97.95458828524795 L 189.1028458795606 99.9628721605859 L 187.59454341134136 101.97394211821154 L 186.08384469074022 103.98820707901302 L 184.57044109154964 106.00607854460048 L 183.05402179721048 108.02797093705271 L 181.5342735422161 110.05430194371183 L 180.01088034926792 112.08549286764276 L 178.4835232617063 114.12196898439163 L 176.95188007072719 116.16415990569709 L 175.41562503687865 118.21249995082849 L 173.8744286053142 120.26742852624773 L 172.3279571142603 122.32939051431964 L 170.7758724961354 124.39883667181948 L 169.21783197073393 126.47622403902142 L 167.65348772986422 128.56201636018102 L 166.08248661280305 130.6566845162626 L 164.50446977189833 132.76070697080223 L 162.9190723276225 134.87457022983665 L 161.3259230123416 136.99876931687788 L 159.72464380203124 139.13380826395837 L 158.11484953512814 141.28020061982915 L 156.49614751766447 143.43846997644738 L 154.86813711378448 145.60915051495402 L 153.23040932069412 147.79278757240783 L 151.58254632703867 149.9899382306151 L 149.92412105364713 152.2011719284705 L 148.25469667551798 154.42707109930936 L 146.57382612385356 156.66823183486196 L 144.88105156687857 158.92526457749526 L 143.17590386809832 161.1987948425356 L 141.4579020205689 163.48946397257478 L 139.7265525556598 165.79792992578695 L 137.98134892469116 168.1248681004118 L 136.22177085172194 170.47097219770404 L 134.44728365565066 172.8369551257991 L 132.65733753966686 175.22354994711085 L 130.85136684595713 177.63151087205713 L 129.0287892734271 180.0616143020972 L 127.18900505604135 182.5146599252782 L 125.3313960992187 184.9914718677084 L 123.45532507153195 187.49289990462404 L 121.56013444876929 190.01982073497427 L 119.64514550719349 192.57313932374203 L 117.70965726260783 195.15379031652287 L 115.75294535157984 197.7627395312269 L 113.7742608509038 200.4009855321283 L 111.77282903108029 203.06956129189294 L 109.74784803927147 205.76953594763805 L 107.69848750683083 208.5020166575589 L 105.6238870761294 211.2681505651608 L 103.52315484097299 214.06912687870266 L 101.39536569445355 216.90617907406192 L 99.2395595775735 219.78058722990198 L 97.05473962143988 222.69368050474685 L 94.8398701752225 225.64683976637 L 92.5938747114236 228.64150038476856 L 90.31563359928091 231.6791552009588 L 88.0039817363505 234.76135768486597 L 85.65770602744277 237.889725296743 L 83.27554269914617 241.06594306780508 L 80.85617443712356 244.2917674171686 L 78.39822733222385 247.56903022370156 L 75.90026762018114 250.89964317309182 L 73.36079819828295 254.28560240228938 L 70.77825490084373 257.7289934655417 L 68.15100251361547 261.23199664851273 L 65.4773305053833 264.7968926594889 L 62.755448452897475 268.42606872947 L 59.98348113297865 272.1220251560285 L 57.15946325304847 275.8873823292687 L 54.281333788478506 279.7248882820287 L 51.34692989194757 283.63742681073654 L 49.5 286.20160150777247 L 49.5 286.46497222248365 L 49.5 286.7232681862115 L 49.5 286.97668487141414 L 49.5 287.2254085183763 L 49.5 287.46961668893476 L 49.5 287.7094787811819 L 49.5 287.94515650832915 L 49.499999999999964 288.17680434461965 L 49.50000000000002 288.4045699409161 L 49.5 288.6285945123562 L 49.5 288.8490132002497 L 49.5 289.06595541020783 L 49.5 289.27954512831485 L 49.499999999999964 289.489901217002 L 49.5 289.69713769213786 L 49.5 289.9013639827267 L 49.5 290.10268517448515 L 49.5 290.30120223846734 L 49.5 290.49701224580986 L 49.5 290.6902085695846 L 49.5 290.88088107466535 L 49.50000000000002 291.06911629644344 L 49.5 291.25499760916483 L 49.5 291.4386053845972 L 49.5 291.6200171416838 L 49.5 291.7993076877897 L 49.5 291.9765492521018 L 49.5 292.1518116117012 L 49.5 292.32516221078754 L 49.5 292.4966662735019 L 49.5 292.6663869107611 L 49.5 292.8343852214871 L 49.5 293.0007203885875 L 49.5 293.1654497700193 L 49.50000000000002 293.3286289852439 L 49.5 293.4903119973608 L 49.5 293.6505511911867 L 49.50000000000002 293.8093974475315 L 49.5 293.9669002139019 L 49.5 294.12310757185156 L 49.5 294.27806630118107 L 49.5 294.4318219411771 L 49.5 294.5844188490698 L 49.5 294.73590025587424 L 49.5 294.88630831977343 L 49.5 295.0356841771881 L 49.5 295.1840679916728 L 49.5 295.3314990007661 L 49.5 295.47801556091775 L 49.5 295.62365519060734 L 49.5 295.7684546117621 L 49.5 295.9124497895757 L 49.5 296.05567597082523 L 49.5 296.19816772077564 L 49.5 296.3399589587591 L 49.5 296.4810829925098 L 49.5 296.621572551332 L 49.5 296.761459818174 L 49.5 296.9007764606781 L 49.5 297.039553661273 L 49.5 297.177822146371 L 49.5 297.31561221473123 L 49.50000000000002 297.4529537650459 L 49.5 297.5898763228047 L 49.5 297.7264090664905 L 49.5 297.8625808531573 L 49.5 297.9984202434387 L 49.5 298.13395552603447 L 49.5 298.26921474172053 L 49.5 298.4042257069267 L 49.50000000000002 298.539016036925 L 49.5 298.67361316866936 L 49.5 298.80804438332893 L 49.5 298.94233682855247 L 49.50000000000002 299.07651754050505 L 49.50000000000002 299.21061346571344 L 49.5 299.3446514827585 L 49.5 299.47865842385215 L 49.5 299.61266109633516 L 49.5 299.7466863041327 L 49.5 299.88076086920387 L 49.499999999999964 300.0149116530225 L 49.5 300.1491655781241 L 49.5 300.28354964975836 L 49.5 300.4180909776813 L 49.5 300.55281679812674 L 49.5 300.68775449599445 L 49.5 300.82293162729326 L 49.5 300.9583759418786 L 49.5 301.0941154065259 L 49.5 301.2301782283789 L 49.5 301.36659287881815 L 49.5 301.50338811779 L 49.5 301.64059301864444 L 49.5 301.7782369935263 L 49.5 301.9163498193684 L 49.5 302.0549616645378 L 49.5 302.1941031161859 L 49.50000000000002 302.33380520835817 L 49.50000000000002 302.4740994509195 L 49.5 302.61501785935434 L 49.5 302.75659298550477 L 49.5 302.89885794931115 L 49.5 303.04184647162344 L 49.5 303.18559290815676 L 49.5 303.33013228466484 L 49.5 303.47550033341423 L 49.499999999999964 303.6217335310411 L 49.5 303.76886913788144 L 49.50000000000002 303.9169452388694 L 49.5 304.066000786102 L 49.50000000000002 304.2160756431784 L 49.5 304.3672106314249 L 49.5 304.51944757812515 L 49.5 304.6728293668838 L 49.5 304.82739999025637 L 49.499999999999964 304.98320460479175 L 49.5 305.1402895886381 L 49.5 305.29870260187795 L 49.5 305.45849264976437 L 49.5 305.61971014904657 L 49.5 305.78240699758226 L 49.5 305.9466366474515 L 49.5 306.1124541817977 L 49.50000000000002 306.279916395642 L 49.5 306.4490818809315 L 49.5 306.6200111161024 L 49.5 306.79276656045977 L 49.5 306.96741275369754 L 49.5 307.144016420907 L 49.5 307.3226465834488 L 49.5 307.50337467609154 L 49.5 307.6862746708525 L 49.5 307.87142320800916 L 49.5 308.0588997347869 L 49.50000000000002 308.248786652272 L 49.5 308.44116947113866 L 49.499999999999964 308.63613697683127 L 49.5 308.83378140489356 L 49.5 309.0341986271966 L 49.5 309.2374883498776 L 49.50000000000002 309.44375432387585 L 49.5 309.6531045690244 L 49.5 309.8656516127419 L 49.5 310.08151274446305 L 49.5 310.300810287044 L 49.5 310.5236718864946 L 49.5 310.75023082151216 L 49.5 310.9806263344271 L 49.5 311.21500398532265 L 49.5 311.45351603125835 L 49.5 311.696321832712 L 49.5 311.9435882895592 L 49.5 312.19549030914095 L 49.5 312.45221130922005 L 49.5 312.71394375891225 L 50.400049207745845 311.6999343896722 L 53.35284982835737 307.7628668955235 L 56.248664650799554 303.9017804656006 L 59.08969030961563 300.1137462538459 L 61.878019580603805 296.3959738925283 L 64.61564761566129 292.7458031791183 L 67.30447773782579 289.1606963495656 L 69.9463268324075 285.63823089012334 L 72.54293036680724 282.176092844257 L 75.09594706864175 278.7720705751443 L 77.60696328913677 275.42404894781765 L 80.07749707634375 272.1300038982083 L 82.50900198058187 268.8879973592242 L 84.90287061254807 265.6961725166026 L 87.26043797278572 262.55274936961905 L 89.58298456960478 259.4560205738603 L 91.87173934111169 256.40434754518446 L 94.12788239569453 253.39615680574065 L 96.35254758413195 250.42993655449072 L 98.54682491541512 247.50423344611318 L 100.71176282739877 244.61764956346832 L 102.84837032250329 241.76883956999563 L 104.9576189778859 238.9565080294855 L 107.04044483875667 236.17940688165777 L 109.09775020284732 233.43633306287023 L 111.13040530341792 230.72612626210943 L 113.13924989763352 228.04766680315532 L 115.1250947666218 225.39987364450428 L 117.08872313305768 222.78170248925642 L 119.03089200168382 220.1921439977549 L 120.95233342778619 217.63022209628508 L 122.85375571827525 215.09499237563298 L 124.73584456969701 212.5855405737373 L 126.59926414718258 210.10098113708992 L 128.444658108071 207.64045585590532 L 130.27265057367683 205.20313256843087 L 132.08384705243387 202.78820393008814 L 133.87883531743074 200.39488624342567 L 135.65818624114385 198.02241834514155 L 137.42245458999247 195.6700605466767 L 139.1721797811624 193.33709362511675 L 140.90788660398863 191.02281786134853 L 142.63008590803463 188.7265521226205 L 144.3392752598744 186.44763298683418 L 146.03593957045135 184.18541390606487 L 147.72055169477642 181.93926440696478 L 149.3935730056129 179.7085693258495 L 151.05545394269996 177.49272807640008 L 152.70663453897026 175.29115394803964 L 154.34754492513315 173.1032734331558 L 155.97860581391072 170.92852558145236 L 157.6002289651439 168.76636137980813 L 159.2128176329125 166.6162431561166 L 160.8167669957537 164.47764400566172 L 162.41246457099766 162.35004723866976 L 164.0002906141898 160.23294584774692 L 165.58061850451304 158.12584199398265 L 167.15381511708085 156.0282465105589 L 168.72024118292103 153.939678422772 L 170.28025163743584 151.8596644834189 L 171.83419595808215 149.78773872255715 L 173.38241849198062 147.72344201069254 L 174.92525877413317 145.6663216344891 L 176.4630518368931 143.61593088414253 L 177.9961285113091 141.57182865158785 L 179.52481572093578 139.5335790387523 L 181.04943676868268 137.50075097508977 L 182.5703116172484 135.47291784366877 L 184.0877571636705 133.44965711510605 L 185.60208750850097 131.4305499886654 L 187.11361422010418 129.41518103986107 L 188.62264659455494 127.40313787392682 L 190.12949191160484 125.39401078452687 L 191.63445568717196 123.38739241710402 L 193.1378419227993 121.38287743626756 L 194.63995335251636 119.38006219664487 L 196.14109168753342 117.3785444166221 L 197.64155785918953 115.3779228544139 L 199.14165226057227 113.37779698590361 L 200.64167498721974 114.42223331629299 L 202.1419260773176 116.42256810309016 L 203.6427057517973 118.42360766906307 L 205.14431465474678 120.42575287299564 L 206.6470540945396 122.42940545938615 L 208.15122628609694 124.43496838146257 L 209.6571345946951 126.44284612626012 L 211.1650837817384 128.45344504231787 L 212.67538025292347 130.4671736705646 L 214.1883323092252 132.48444307896693 L 215.7042504011462 134.5056672015283 L 217.22344738667832 136.53126318223775 L 218.74623879344 138.56165172458668 L 220.27294308546 140.59725744728001 L 221.80388193509683 142.63850924679576 L 223.33938050059626 144.68584066746166 L 224.87976770980893 146.73969027974522 L 226.42537655060394 148.80050206747188 L 227.97654436854157 150.86872582472205 L 229.5336131723844 152.94481756317916 L 231.09692994805727 155.02923993074305 L 232.6668469816858 157.12246264224774 L 234.24372219237858 159.22496292317143 L 235.82791947544547 161.33722596726068 L 237.41980905678122 163.4597454090416 L 239.019767859176 165.59302381223466 L 240.62817988135978 167.73757317514634 L 242.24543659062314 169.89391545416422 L 243.87193732991184 172.0625831065491 L 245.50808974033086 174.2441196537745 L 247.15431020005852 176.43908026674467 L 248.8110242807199 178.64803237429317 L 250.47866722233508 180.87155629644676 L 252.15768442802536 183.1102459040338 L 253.84853197972714 185.36470930630284 L 255.55167717624767 187.63556956833023 L 257.2675990950745 189.92346546009932 L 258.99678917944567 192.22905223926094 L 260.73975185227926 194.5530024697056 L 262.4970051586703 196.89600687822704 L 264.2690814387748 199.2587752516997 L 266.05652803302195 201.64203737736258 L 267.85990802172785 204.04654402897043 L 269.6798010013273 206.47306800176972 L 271.51680389959375 208.9224051994583 L 273.371531832386 211.39537577651464 L 275.24461900463683 213.89282533951575 L 277.13671965849943 216.41562621133252 L 279.04850907177513 218.96467876236682 L 280.98068460998047 221.5409128133073 L 282.9339668356551 224.14528911420678 L 284.9091006787887 226.7788009050516 L 286.9068566725365 229.44247556338198 L 288.9280322587147 232.137376344953 L 290.973453167914 234.86460422388532 L 293.0439748794495 237.625299839266 L 295.1404841667822 240.42064555570957 L 297.26390073449164 243.2518676459888 L 299.41517895338137 246.12023860450853 L 301.595309700828 249.02707960110402 L 303.8053223140798 251.97376308543969 L 306.04628666485246 254.9617155531366 L 308.31931536427925 257.9924204857056 L 310.6255661080395 261.06742147738595 L 312.9662441723489 264.1883255631319 L 315.3426050724209 267.35680676322784 L 317.7559573960406 270.57460986138744 L 320.20766582601954 273.84355443469275 L 322.69915436654645 277.1655391553952 L 325.23190978982313 280.54254638643084 L 327.80748532089484 283.97664709452647 L 330.4275045802545 287.470006107006 L 333.09366580566564 291.0248877408875 L 335.8077463766992 294.6436618355989 L 338.5716076677682 298.328810223691 L 341.38720025797056 302.082933677294 L 344.25656952887744 305.90875937183654 L 347.1818616845388 309.80914891271834 L 349.5 312.84082629966605 L 349.5 312.5766286634787 L 349.5 312.3175378015286 L 349.5 312.06335671710104 L 349.5 311.8138977376744 L 349.5 311.56898195466533 L 349.5 311.32843870273103 L 349.5 311.09210507539836 L 349.5 310.8598254740861 L 349.5 310.6314511878522 L 349.5 310.406840001442 L 349.5 310.18585582942546 L 349.5 309.96836837440856 L 349.5 309.75425280747913 L 349.5 309.54338946920564 L 349.5 309.33566358965084 L 349.5 309.13096502599205 L 349.5 308.9291880164573 L 349.5 308.73023094939356 L 349.5 308.5339961463787 L 349.5 308.3403896583784 L 349.5 308.14932107402876 L 349.5 307.96070333919704 L 349.5 307.77445258704114 L 349.5 307.5904879778476 L 349.5 307.4087315479842 L 349.5 307.2291080673531 L 349.5 307.05154490477696 L 349.5 306.87597190079316 L 349.5 306.7023212473688 L 349.5 306.5305273740871 L 349.5 306.3605268403858 L 349.5 306.1922582334594 L 349.5 306.02566207146583 L 349.5 305.86068071170047 L 349.5 305.69725826342716 L 349.5 305.5353405050746 L 349.5 305.3748748055285 L 349.5 305.2158100492662 L 349.5 305.05809656509894 L 349.5 304.9016860583012 L 349.5 304.7465315459228 L 349.5 304.59258729508963 L 349.5 304.43980876411536 L 349.5 304.28815254625357 L 349.5 304.13757631593364 L 349.5 303.98803877733167 L 349.5 303.8394996151373 L 349.5 303.691919447386 L 349.5 303.5452597802333 L 349.5 303.39948296455566 L 349.5 303.2545521542687 L 349.5 303.11043126626043 L 349.5 302.967084941841 L 349.5 302.82447850961967 L 349.5 302.6825779497194 L 349.5 302.54134985924964 L 349.5 302.400761418957 L 349.5 302.26078036098215 L 349.5 302.121374937651 L 349.5 301.9825138912344 L 349.5 301.8441664246121 L 349.5 301.7063021727811 L 349.5 301.5688911751489 L 349.5 301.43190384855814 L 349.5 301.29531096098765 L 349.5 301.15908360587923 L 349.5 301.02319317704223 L 349.5 300.8876113440865 L 349.5 300.7523100283397 L 349.5 300.61726137920346 L 349.5 300.4824377509059 L 349.5 300.3478116796091 L 349.5 300.2133558608301 L 349.5 300.0790431271357 L 349.5 299.94484642607233 L 349.5 299.8107387982929 L 349.5 299.6766933558421 L 349.5 299.54268326056393 L 349.5 299.5" fill-opacity="1"/><path fill="#ffffff" stroke="none" paint-order="stroke fill markers" d="" fill-opacity="1"/><g><path fill="none" stroke="#ffffff" class="dcg-svg-curve" paint-order="fill stroke markers" d=" M 349.5 299.5 L 349.5 299.5 L 349.5 299.36599553315466 L 349.5 299.2319642609484 L 349.5 299.09787935656817 L 349.5 298.9637139502601 L 349.5 298.82944110776776 L 349.5 298.6950338086606 L 349.5 298.56046492451514 L 349.5 298.42570719691184 L 349.5 298.2907332152089 L 349.5 298.155515394055 L 349.5 298.02002595060065 L 349.5 297.8842368813685 L 349.5 297.7481199387402 L 349.5 297.61164660701843 L 349.5 297.47478807801883 L 349.5 297.3375152261482 L 349.5 297.1997985829201 L 349.5 297.06160831086135 L 349.5 296.9229141767572 L 349.5 296.7836855241838 L 349.5 296.6438912452726 L 349.5 296.50349975164966 L 349.5 296.36247894449036 L 349.5 296.22079618362613 L 349.5 296.0784182556381 L 349.5 295.93531134086805 L 349.5 295.7914409792746 L 349.5 295.6467720350575 L 349.5 295.5012686599696 L 349.5 295.35489425523105 L 349.5 295.2076114319558 L 349.5 295.05938196999523 L 349.5 294.9101667750975 L 349.5 294.75992583427575 L 349.5 294.6086181692723 L 349.5 294.45620178799686 L 349.5 294.30263363381164 L 349.5 294.1478695325268 L 349.5 293.9918641369603 L 349.5 293.83457086890866 L 349.5 293.6759418583615 L 349.5 293.51592787978643 L 349.5 293.35447828529357 L 349.5 293.19154093447986 L 349.5 293.02706212073787 L 349.5 292.860986493798 L 349.5 292.69325697825855 L 349.5 292.5238146878371 L 349.5 292.3525988350615 L 349.5 292.17954663609316 L 349.5 292.0045932103577 L 349.5 291.82767147462766 L 349.5 291.6487120311805 L 349.5 291.4676430496226 L 349.5 291.28439014193896 L 349.5 291.0988762302938 L 349.5 290.9110214070705 L 349.5 290.7207427865958 L 349.5 290.527954347951 L 349.5 290.33256676822134 L 349.5 290.13448724548294 L 349.5 289.9336193107662 L 349.5 289.729862628171 L 349.5 289.5231127822391 L 349.5 289.3132610516087 L 349.5 289.1001941678949 L 349.5 288.88379405864134 L 349.5 288.66393757308964 L 349.5 288.44049618939505 L 349.5 288.21333570179473 L 349.5 287.982315886093 L 349.5 287.74729014167724 L 349.5 287.50810510810607 L 349.5 287.2646002541244 L 349.5 287.01660743674944 L 349.5 286.763950427842 L 349.5 286.5064444053161 L 349.5 286.24389540585355 L 348.12576333113327 284.26768444151105 L 345.18219009757115 280.3429201300949 L 342.29524559122933 276.49366078830576 L 339.4627501552822 272.71700020704293 L 336.6826269676304 269.01016929017396 L 333.9528958786516 265.3705278382021 L 331.27166768280176 261.79555691040235 L 328.63713878872153 258.2828517182953 L 326.04758625574914 254.83011500766557 L 323.5013631676611 251.4351508902148 L 320.9968943170792 248.0958590894389 L 318.5326721763476 244.81022956846346 L 316.1072531328044 241.57633751040584 L 313.71925396829346 238.3923386243913 L 311.3673485644942 235.25646475265893 L 309.05026481721177 232.16701975628234 L 306.7667817441908 229.12237565892107 L 304.5157267722987 226.1209690297316 L 302.2959731910908 223.1612975881211 L 300.106437760829 220.24191701443874 L 297.94607846398674 217.36143795198228 L 295.8138923901496 214.51852318686616 L 293.7089137450183 211.71188499335773 L 291.6302119749468 208.94028263326237 L 289.57688999911386 206.20251999881847 L 287.54808254202965 203.4974433893729 L 285.5429545596362 200.82393941284826 L 283.5606997527636 198.18093300368477 L 281.6005391621715 195.56738554956203 L 279.6617198398288 192.98229311977173 L 277.743513591474 190.42468478863202 L 275.84521578585964 187.8936210478129 L 273.96614422640965 185.3881923018796 L 272.1056380813238 182.907517441765 L 270.2630568684394 180.45074249125253 L 268.43777949141884 178.0170393218918 L 266.62920332406543 175.60560443208723 L 264.8367433397883 173.21565778638444 L 263.05983128343917 170.84644171125223 L 261.2979148829258 168.49721984390106 L 259.55045709818233 166.1672761309098 L 257.8169354052307 163.85591387364101 L 256.09684111321616 161.56245481762153 L 254.38967871243386 159.28623828324515 L 252.69496525149034 157.02662033532044 L 251.01222974185643 154.78297298914188 L 249.34101258817927 152.5546834509057 L 247.68086504281825 150.34115339042435 L 246.03134868316212 148.1417982442162 L 244.39203491037136 145.95604654716183 L 242.76250446826782 143.7833392910238 L 241.14234698116874 141.62312930822503 L 239.53116050952858 139.47488067937144 L 237.92855112231777 137.33806816309038 L 236.33413248512554 135.212176646834 L 234.747525463027 133.09670061736932 L 233.16835773730892 130.99114364974525 L 231.5962634351917 128.89501791358896 L 230.0308827717317 126.80784369564225 L 228.47186170312716 124.72914893750288 L 226.91885159068872 122.65846878758492 L 225.37150887477003 120.59534516636 L 223.8294947579868 118.5393263439824 L 222.29247489708115 116.48996652944157 L 220.76011910281687 114.44682547042248 L 219.23210104731447 112.40946806308597 L 217.70809797826107 110.37746397101472 L 216.18779043944778 108.35038725259705 L 214.67086199710968 106.32781599614628 L 213.15699897155963 104.30933196207951 L 211.6458901736232 102.29452023149764 L 210.13722664539785 100.2829688605305 L 208.63070140487005 98.27426853982672 L 207.12600919393793 96.26801225858395 L 205.62284622939586 94.26379497252782 L 204.12090995644613 92.26121327526153 L 202.61989880431094 90.25986507241458 L 201.11951194352375 88.2593492580317 L 199.61944904448347 86.25926539264464 L 198.11941003686002 87.94078661752002 L 196.6190948694405 89.94120684074602 L 195.11820327000828 91.942395639989 L 193.61643450484587 93.94475399353882 L 192.11348713745247 95.94868381673007 L 190.60905878606403 97.95458828524795 L 189.1028458795606 99.9628721605859 L 187.59454341134136 101.97394211821154 L 186.08384469074022 103.98820707901302 L 184.57044109154964 106.00607854460048 L 183.05402179721048 108.02797093705271 L 181.5342735422161 110.05430194371183 L 180.01088034926792 112.08549286764276 L 178.4835232617063 114.12196898439163 L 176.95188007072719 116.16415990569709 L 175.41562503687865 118.21249995082849 L 173.8744286053142 120.26742852624773 L 172.3279571142603 122.32939051431964 L 170.7758724961354 124.39883667181948 L 169.21783197073393 126.47622403902142 L 167.65348772986422 128.56201636018102 L 166.08248661280305 130.6566845162626 L 164.50446977189833 132.76070697080223 L 162.9190723276225 134.87457022983665 L 161.3259230123416 136.99876931687788 L 159.72464380203124 139.13380826395837 L 158.11484953512814 141.28020061982915 L 156.49614751766447 143.43846997644738 L 154.86813711378448 145.60915051495402 L 153.23040932069412 147.79278757240783 L 151.58254632703867 149.9899382306151 L 149.92412105364713 152.2011719284705 L 148.25469667551798 154.42707109930936 L 146.57382612385356 156.66823183486196 L 144.88105156687857 158.92526457749526 L 143.17590386809832 161.1987948425356 L 141.4579020205689 163.48946397257478 L 139.7265525556598 165.79792992578695 L 137.98134892469116 168.1248681004118 L 136.22177085172194 170.47097219770404 L 134.44728365565066 172.8369551257991 L 132.65733753966686 175.22354994711085 L 130.85136684595713 177.63151087205713 L 129.0287892734271 180.0616143020972 L 127.18900505604135 182.5146599252782 L 125.3313960992187 184.9914718677084 L 123.45532507153195 187.49289990462404 L 121.56013444876929 190.01982073497427 L 119.64514550719349 192.57313932374203 L 117.70965726260783 195.15379031652287 L 115.75294535157984 197.7627395312269 L 113.7742608509038 200.4009855321283 L 111.77282903108029 203.06956129189294 L 109.74784803927147 205.76953594763805 L 107.69848750683083 208.5020166575589 L 105.6238870761294 211.2681505651608 L 103.52315484097299 214.06912687870266 L 101.39536569445355 216.90617907406192 L 99.2395595775735 219.78058722990198 L 97.05473962143988 222.69368050474685 L 94.8398701752225 225.64683976637 L 92.5938747114236 228.64150038476856 L 90.31563359928091 231.6791552009588 L 88.0039817363505 234.76135768486597 L 85.65770602744277 237.889725296743 L 83.27554269914617 241.06594306780508 L 80.85617443712356 244.2917674171686 L 78.39822733222385 247.56903022370156 L 75.90026762018114 250.89964317309182 L 73.36079819828295 254.28560240228938 L 70.77825490084373 257.7289934655417 L 68.15100251361547 261.23199664851273 L 65.4773305053833 264.7968926594889 L 62.755448452897475 268.42606872947 L 59.98348113297865 272.1220251560285 L 57.15946325304847 275.8873823292687 L 54.281333788478506 279.7248882820287 L 51.34692989194757 283.63742681073654 L 49.5 286.20160150777247 L 49.5 286.46497222248365 L 49.5 286.7232681862115 L 49.5 286.97668487141414 L 49.5 287.2254085183763 L 49.5 287.46961668893476 L 49.5 287.7094787811819 L 49.5 287.94515650832915 L 49.499999999999964 288.17680434461965 L 49.50000000000002 288.4045699409161 L 49.5 288.6285945123562 L 49.5 288.8490132002497 L 49.5 289.06595541020783 L 49.5 289.27954512831485 L 49.499999999999964 289.489901217002 L 49.5 289.69713769213786 L 49.5 289.9013639827267 L 49.5 290.10268517448515 L 49.5 290.30120223846734 L 49.5 290.49701224580986 L 49.5 290.6902085695846 L 49.5 290.88088107466535 L 49.50000000000002 291.06911629644344 L 49.5 291.25499760916483 L 49.5 291.4386053845972 L 49.5 291.6200171416838 L 49.5 291.7993076877897 L 49.5 291.9765492521018 L 49.5 292.1518116117012 L 49.5 292.32516221078754 L 49.5 292.4966662735019 L 49.5 292.6663869107611 L 49.5 292.8343852214871 L 49.5 293.0007203885875 L 49.5 293.1654497700193 L 49.50000000000002 293.3286289852439 L 49.5 293.4903119973608 L 49.5 293.6505511911867 L 49.50000000000002 293.8093974475315 L 49.5 293.9669002139019 L 49.5 294.12310757185156 L 49.5 294.27806630118107 L 49.5 294.4318219411771 L 49.5 294.5844188490698 L 49.5 294.73590025587424 L 49.5 294.88630831977343 L 49.5 295.0356841771881 L 49.5 295.1840679916728 L 49.5 295.3314990007661 L 49.5 295.47801556091775 L 49.5 295.62365519060734 L 49.5 295.7684546117621 L 49.5 295.9124497895757 L 49.5 296.05567597082523 L 49.5 296.19816772077564 L 49.5 296.3399589587591 L 49.5 296.4810829925098 L 49.5 296.621572551332 L 49.5 296.761459818174 L 49.5 296.9007764606781 L 49.5 297.039553661273 L 49.5 297.177822146371 L 49.5 297.31561221473123 L 49.50000000000002 297.4529537650459 L 49.5 297.5898763228047 L 49.5 297.7264090664905 L 49.5 297.8625808531573 L 49.5 297.9984202434387 L 49.5 298.13395552603447 L 49.5 298.26921474172053 L 49.5 298.4042257069267 L 49.50000000000002 298.539016036925 L 49.5 298.67361316866936 L 49.5 298.80804438332893 L 49.5 298.94233682855247 L 49.50000000000002 299.07651754050505 L 49.50000000000002 299.21061346571344 L 49.5 299.3446514827585 L 49.5 299.47865842385215 L 49.5 299.61266109633516 L 49.5 299.7466863041327 L 49.5 299.88076086920387 L 49.499999999999964 300.0149116530225 L 49.5 300.1491655781241 L 49.5 300.28354964975836 L 49.5 300.4180909776813 L 49.5 300.55281679812674 L 49.5 300.68775449599445 L 49.5 300.82293162729326 L 49.5 300.9583759418786 L 49.5 301.0941154065259 L 49.5 301.2301782283789 L 49.5 301.36659287881815 L 49.5 301.50338811779 L 49.5 301.64059301864444 L 49.5 301.7782369935263 L 49.5 301.9163498193684 L 49.5 302.0549616645378 L 49.5 302.1941031161859 L 49.50000000000002 302.33380520835817 L 49.50000000000002 302.4740994509195 L 49.5 302.61501785935434 L 49.5 302.75659298550477 L 49.5 302.89885794931115 L 49.5 303.04184647162344 L 49.5 303.18559290815676 L 49.5 303.33013228466484 L 49.5 303.47550033341423 L 49.499999999999964 303.6217335310411 L 49.5 303.76886913788144 L 49.50000000000002 303.9169452388694 L 49.5 304.066000786102 L 49.50000000000002 304.2160756431784 L 49.5 304.3672106314249 L 49.5 304.51944757812515 L 49.5 304.6728293668838 L 49.5 304.82739999025637 L 49.499999999999964 304.98320460479175 L 49.5 305.1402895886381 L 49.5 305.29870260187795 L 49.5 305.45849264976437 L 49.5 305.61971014904657 L 49.5 305.78240699758226 L 49.5 305.9466366474515 L 49.5 306.1124541817977 L 49.50000000000002 306.279916395642 L 49.5 306.4490818809315 L 49.5 306.6200111161024 L 49.5 306.79276656045977 L 49.5 306.96741275369754 L 49.5 307.144016420907 L 49.5 307.3226465834488 L 49.5 307.50337467609154 L 49.5 307.6862746708525 L 49.5 307.87142320800916 L 49.5 308.0588997347869 L 49.50000000000002 308.248786652272 L 49.5 308.44116947113866 L 49.499999999999964 308.63613697683127 L 49.5 308.83378140489356 L 49.5 309.0341986271966 L 49.5 309.2374883498776 L 49.50000000000002 309.44375432387585 L 49.5 309.6531045690244 L 49.5 309.8656516127419 L 49.5 310.08151274446305 L 49.5 310.300810287044 L 49.5 310.5236718864946 L 49.5 310.75023082151216 L 49.5 310.9806263344271 L 49.5 311.21500398532265 L 49.5 311.45351603125835 L 49.5 311.696321832712 L 49.5 311.9435882895592 L 49.5 312.19549030914095 L 49.5 312.45221130922005 L 49.5 312.71394375891225 L 50.400049207745845 311.6999343896722 L 53.35284982835737 307.7628668955235 L 56.248664650799554 303.9017804656006 L 59.08969030961563 300.1137462538459 L 61.878019580603805 296.3959738925283 L 64.61564761566129 292.7458031791183 L 67.30447773782579 289.1606963495656 L 69.9463268324075 285.63823089012334 L 72.54293036680724 282.176092844257 L 75.09594706864175 278.7720705751443 L 77.60696328913677 275.42404894781765 L 80.07749707634375 272.1300038982083 L 82.50900198058187 268.8879973592242 L 84.90287061254807 265.6961725166026 L 87.26043797278572 262.55274936961905 L 89.58298456960478 259.4560205738603 L 91.87173934111169 256.40434754518446 L 94.12788239569453 253.39615680574065 L 96.35254758413195 250.42993655449072 L 98.54682491541512 247.50423344611318 L 100.71176282739877 244.61764956346832 L 102.84837032250329 241.76883956999563 L 104.9576189778859 238.9565080294855 L 107.04044483875667 236.17940688165777 L 109.09775020284732 233.43633306287023 L 111.13040530341792 230.72612626210943 L 113.13924989763352 228.04766680315532 L 115.1250947666218 225.39987364450428 L 117.08872313305768 222.78170248925642 L 119.03089200168382 220.1921439977549 L 120.95233342778619 217.63022209628508 L 122.85375571827525 215.09499237563298 L 124.73584456969701 212.5855405737373 L 126.59926414718258 210.10098113708992 L 128.444658108071 207.64045585590532 L 130.27265057367683 205.20313256843087 L 132.08384705243387 202.78820393008814 L 133.87883531743074 200.39488624342567 L 135.65818624114385 198.02241834514155 L 137.42245458999247 195.6700605466767 L 139.1721797811624 193.33709362511675 L 140.90788660398863 191.02281786134853 L 142.63008590803463 188.7265521226205 L 144.3392752598744 186.44763298683418 L 146.03593957045135 184.18541390606487 L 147.72055169477642 181.93926440696478 L 149.3935730056129 179.7085693258495 L 151.05545394269996 177.49272807640008 L 152.70663453897026 175.29115394803964 L 154.34754492513315 173.1032734331558 L 155.97860581391072 170.92852558145236 L 157.6002289651439 168.76636137980813 L 159.2128176329125 166.6162431561166 L 160.8167669957537 164.47764400566172 L 162.41246457099766 162.35004723866976 L 164.0002906141898 160.23294584774692 L 165.58061850451304 158.12584199398265 L 167.15381511708085 156.0282465105589 L 168.72024118292103 153.939678422772 L 170.28025163743584 151.8596644834189 L 171.83419595808215 149.78773872255715 L 173.38241849198062 147.72344201069254 L 174.92525877413317 145.6663216344891 L 176.4630518368931 143.61593088414253 L 177.9961285113091 141.57182865158785 L 179.52481572093578 139.5335790387523 L 181.04943676868268 137.50075097508977 L 182.5703116172484 135.47291784366877 L 184.0877571636705 133.44965711510605 L 185.60208750850097 131.4305499886654 L 187.11361422010418 129.41518103986107 L 188.62264659455494 127.40313787392682 L 190.12949191160484 125.39401078452687 L 191.63445568717196 123.38739241710402 L 193.1378419227993 121.38287743626756 L 194.63995335251636 119.38006219664487 L 196.14109168753342 117.3785444166221 L 197.64155785918953 115.3779228544139 L 199.14165226057227 113.37779698590361 L 200.64167498721974 114.42223331629299 L 202.1419260773176 116.42256810309016 L 203.6427057517973 118.42360766906307 L 205.14431465474678 120.42575287299564 L 206.6470540945396 122.42940545938615 L 208.15122628609694 124.43496838146257 L 209.6571345946951 126.44284612626012 L 211.1650837817384 128.45344504231787 L 212.67538025292347 130.4671736705646 L 214.1883323092252 132.48444307896693 L 215.7042504011462 134.5056672015283 L 217.22344738667832 136.53126318223775 L 218.74623879344 138.56165172458668 L 220.27294308546 140.59725744728001 L 221.80388193509683 142.63850924679576 L 223.33938050059626 144.68584066746166 L 224.87976770980893 146.73969027974522 L 226.42537655060394 148.80050206747188 L 227.97654436854157 150.86872582472205 L 229.5336131723844 152.94481756317916 L 231.09692994805727 155.02923993074305 L 232.6668469816858 157.12246264224774 L 234.24372219237858 159.22496292317143 L 235.82791947544547 161.33722596726068 L 237.41980905678122 163.4597454090416 L 239.019767859176 165.59302381223466 L 240.62817988135978 167.73757317514634 L 242.24543659062314 169.89391545416422 L 243.87193732991184 172.0625831065491 L 245.50808974033086 174.2441196537745 L 247.15431020005852 176.43908026674467 L 248.8110242807199 178.64803237429317 L 250.47866722233508 180.87155629644676 L 252.15768442802536 183.1102459040338 L 253.84853197972714 185.36470930630284 L 255.55167717624767 187.63556956833023 L 257.2675990950745 189.92346546009932 L 258.99678917944567 192.22905223926094 L 260.73975185227926 194.5530024697056 L 262.4970051586703 196.89600687822704 L 264.2690814387748 199.2587752516997 L 266.05652803302195 201.64203737736258 L 267.85990802172785 204.04654402897043 L 269.6798010013273 206.47306800176972 L 271.51680389959375 208.9224051994583 L 273.371531832386 211.39537577651464 L 275.24461900463683 213.89282533951575 L 277.13671965849943 216.41562621133252 L 279.04850907177513 218.96467876236682 L 280.98068460998047 221.5409128133073 L 282.9339668356551 224.14528911420678 L 284.9091006787887 226.7788009050516 L 286.9068566725365 229.44247556338198 L 288.9280322587147 232.137376344953 L 290.973453167914 234.86460422388532 L 293.0439748794495 237.625299839266 L 295.1404841667822 240.42064555570957 L 297.26390073449164 243.2518676459888 L 299.41517895338137 246.12023860450853 L 301.595309700828 249.02707960110402 L 303.8053223140798 251.97376308543969 L 306.04628666485246 254.9617155531366 L 308.31931536427925 257.9924204857056 L 310.6255661080395 261.06742147738595 L 312.9662441723489 264.1883255631319 L 315.3426050724209 267.35680676322784 L 317.7559573960406 270.57460986138744 L 320.20766582601954 273.84355443469275 L 322.69915436654645 277.1655391553952 L 325.23190978982313 280.54254638643084 L 327.80748532089484 283.97664709452647 L 330.4275045802545 287.470006107006 L 333.09366580566564 291.0248877408875 L 335.8077463766992 294.6436618355989 L 338.5716076677682 298.328810223691 L 341.38720025797056 302.082933677294 L 344.25656952887744 305.90875937183654 L 347.1818616845388 309.80914891271834 L 349.5 312.84082629966605 L 349.5 312.5766286634787 L 349.5 312.3175378015286 L 349.5 312.06335671710104 L 349.5 311.8138977376744 L 349.5 311.56898195466533 L 349.5 311.32843870273103 L 349.5 311.09210507539836 L 349.5 310.8598254740861 L 349.5 310.6314511878522 L 349.5 310.406840001442 L 349.5 310.18585582942546 L 349.5 309.96836837440856 L 349.5 309.75425280747913 L 349.5 309.54338946920564 L 349.5 309.33566358965084 L 349.5 309.13096502599205 L 349.5 308.9291880164573 L 349.5 308.73023094939356 L 349.5 308.5339961463787 L 349.5 308.3403896583784 L 349.5 308.14932107402876 L 349.5 307.96070333919704 L 349.5 307.77445258704114 L 349.5 307.5904879778476 L 349.5 307.4087315479842 L 349.5 307.2291080673531 L 349.5 307.05154490477696 L 349.5 306.87597190079316 L 349.5 306.7023212473688 L 349.5 306.5305273740871 L 349.5 306.3605268403858 L 349.5 306.1922582334594 L 349.5 306.02566207146583 L 349.5 305.86068071170047 L 349.5 305.69725826342716 L 349.5 305.5353405050746 L 349.5 305.3748748055285 L 349.5 305.2158100492662 L 349.5 305.05809656509894 L 349.5 304.9016860583012 L 349.5 304.7465315459228 L 349.5 304.59258729508963 L 349.5 304.43980876411536 L 349.5 304.28815254625357 L 349.5 304.13757631593364 L 349.5 303.98803877733167 L 349.5 303.8394996151373 L 349.5 303.691919447386 L 349.5 303.5452597802333 L 349.5 303.39948296455566 L 349.5 303.2545521542687 L 349.5 303.11043126626043 L 349.5 302.967084941841 L 349.5 302.82447850961967 L 349.5 302.6825779497194 L 349.5 302.54134985924964 L 349.5 302.400761418957 L 349.5 302.26078036098215 L 349.5 302.121374937651 L 349.5 301.9825138912344 L 349.5 301.8441664246121 L 349.5 301.7063021727811 L 349.5 301.5688911751489 L 349.5 301.43190384855814 L 349.5 301.29531096098765 L 349.5 301.15908360587923 L 349.5 301.02319317704223 L 349.5 300.8876113440865 L 349.5 300.7523100283397 L 349.5 300.61726137920346 L 349.5 300.4824377509059 L 349.5 300.3478116796091 L 349.5 300.2133558608301 L 349.5 300.0790431271357 L 349.5 299.94484642607233 L 349.5 299.8107387982929 L 349.5 299.6766933558421 L 349.5 299.54268326056393 L 349.5 299.5" stroke-linecap="round" stroke-linejoin="round" stroke-miterlimit="10" stroke-width="2.5" stroke-opacity="1" stroke-dasharray=""/></g></g></g><g id="labels-83bc3779"/></g></svg>