<svg version="1.1" xmlns="http://www.w3.org/2000/svg" xmlns:xlink="http://www.w3.org/1999/xlink" width="800" height="800"><defs/><g transform="scale(2,2)"><g id="background-99431ee9"></g><g id="background-images-99431ee9"/><g id="graphpaper-99431ee9"><g id="axis-99431ee9"><g><g><path fill="none" stroke="rgb(0,0,0)" class="dcg-svg-tickmark" paint-order="fill stroke markers" d="" stroke-opacity="1" stroke-miterlimit="2" stroke-width="1.5" stroke-dasharray=""/></g></g></g></g><g id="expressions-99431ee9"><g id="sketch-99431ee9"><title>Expression 99</title><path fill="#ffffff" stroke="none" class="dcg-svg-region" paint-order="stroke fill markers" d=" M 349.5 299.5 L 349.5 299.3279942664373 L 349.5 299.1559541259935 L 349.5 298.9838451442517 L 349.5 298.8116328316771 L 349.5 298.6392826159407 L 349.5 298.4667598141017 L 349.5 298.2940296046015 L 349.5 298.12105699902116 L 349.5 297.94780681355167 L 349.5 297.77424364013024 L 349.5 297.60033181718893 L 349.5 297.42603539996554 L 349.5 297.2513181303233 L 349.5 297.0761434060237 L 349.5 296.90047424939735 L 349.5 296.72427327535434 L 349.5 296.5475026586736 L 349.5 296.3701241005086 L 349.5 296.19209879404656 L 349.5 296.01338738925085 L 349.5 295.8339499566185 L 349.5 295.6537459498786 L 349.5 295.4727341675548 L 349.5 295.29087271331116 L 349.5 295.1081189549982 L 349.5 294.92442948230826 L 349.5 294.7397600629495 L 349.5 294.554065597238 L 349.5 294.3673000710058 L 349.5 294.17941650671446 L 349.5 293.99036691265974 L 349.5 293.8001022301431 L 349.5 293.60857227848334 L 349.5 293.4157256977271 L 349.5 293.22150988891667 L 349.5 293.02587095175716 L 349.5 292.8287536195194 L 349.5 292.63010119100454 L 349.5 292.42985545938194 L 349.5 292.22795663770364 L 349.5 292.0243432808819 L 349.5 291.8189522039049 L 349.5 291.61171839604845 L 349.5 291.4025749308249 L 349.5 291.19145287139486 L 349.5 290.97828117114375 L 349.5 290.762986569108 L 349.5 290.54549347991036 L 349.5 290.3257238778401 L 349.5 290.1035971746868 L 349.5 289.87903009090695 L 349.5 289.6519365196713 L 349.5 289.4222273833063 L 349.5 289.1898104816052 L 349.5 288.9545903314441 L 349.5 288.7164679970936 L 349.5 288.4753409105681 L 349.5 288.23110268130205 L 349.5 287.9836428943848 L 349.5 287.73284689652286 L 349.5 287.47859556882884 L 349.5 287.22076508546104 L 349.5 286.95922665705535 L 349.5 286.6938462577994 L 349.5 286.42448433490074 L 349.5 286.15099549908894 L 349.5 285.87322819467397 L 349.5 285.5910243475479 L 349.5 285.30421898937277 L 349.5 285.01263985603504 L 349.5 284.7161069582686 L 349.5 284.41443212215285 L 349.5 284.10741849697195 L 349.5 283.79486002768203 L 349.5 283.47654088896195 L 349.5 283.1522348775286 L 349.5 282.82170475906236 L 349.5 282.4847015657224 L 348.12576333113327 280.467684441511 L 345.18219009757115 276.5429201300949 L 342.29524559122933 272.6936607883058 L 339.4627501552822 268.917000207043 L 336.6826269676304 265.21016929017395 L 333.9528958786516 261.5705278382021 L 331.27166768280176 257.99555691040234 L 328.63713878872153 254.4828517182953 L 326.04758625574914 251.0301150076656 L 323.5013631676611 247.63515089021482 L 320.9968943170792 244.29585908943892 L 318.5326721763476 241.01022956846342 L 316.1072531328044 237.77633751040588 L 313.71925396829346 234.59233862439132 L 311.3673485644942 231.45646475265895 L 309.05026481721177 228.36701975628236 L 306.7667817441908 225.3223756589211 L 304.5157267722987 222.3209690297316 L 302.2959731910908 219.36129758812112 L 300.106437760829 216.4419170144387 L 297.94607846398674 213.5614379519823 L 295.8138923901496 210.71852318686615 L 293.7089137450183 207.9118849933577 L 291.6302119749468 205.1402826332624 L 289.57688999911386 202.4025199988185 L 287.54808254202965 199.69744338937286 L 285.5429545596362 197.02393941284828 L 283.5606997527636 194.38093300368473 L 281.6005391621715 191.76738554956205 L 279.6617198398288 189.18229311977174 L 277.743513591474 186.62468478863204 L 275.84521578585964 184.09362104781292 L 273.96614422640965 181.58819230187956 L 272.1056380813238 179.10751744176503 L 270.2630568684394 176.65074249125254 L 268.43777949141884 174.21703932189175 L 266.62920332406543 171.8056044320872 L 264.8367433397883 169.41565778638443 L 263.05983128343917 167.0464417112522 L 261.2979148829258 164.69721984390108 L 259.55045709818233 162.36727613090983 L 257.8169354052307 160.05591387364103 L 256.09684111321616 157.76245481762155 L 254.38967871243386 155.48623828324517 L 252.69496525149034 153.22662033532043 L 251.01222974185643 150.9829729891419 L 249.34101258817927 148.7546834509057 L 247.68086504281825 146.54115339042434 L 246.03134868316212 144.3417982442162 L 244.39203491037136 142.1560465471618 L 242.76250446826782 139.98333929102375 L 241.14234698116874 137.82312930822496 L 239.53116050952858 135.67488067937143 L 237.92855112231777 133.53806816309032 L 236.33413248512554 131.41217664683398 L 234.747525463027 129.2967006173693 L 233.16835773730892 127.19114364974519 L 231.5962634351917 125.09501791358889 L 230.0308827717317 123.00784369564224 L 228.47186170312716 120.92914893750287 L 226.91885159068872 118.85846878758491 L 225.37150887477003 116.79534516636 L 223.8294947579868 114.73932634398238 L 222.29247489708115 112.6899665294415 L 220.76011910281687 110.64682547042247 L 219.23210104731447 108.6094680630859 L 217.70809797826107 106.57746397101471 L 216.18779043944778 104.55038725259703 L 214.67086199710968 102.52781599614622 L 213.15699897155963 100.50933196207944 L 211.6458901736232 98.49452023149757 L 210.13722664539785 96.48296886053043 L 208.63070140487005 94.47426853982671 L 207.12600919393793 92.46801225858388 L 205.62284622939586 90.46379497252781 L 204.12090995644613 88.46121327526146 L 202.61989880431094 86.45986507241457 L 201.11951194352375 84.45934925803164 L 199.61944904448347 82.45926539264462 L 198.11941003686002 84.14078661751995 L 196.6190948694405 86.14120684074601 L 195.11820327000828 88.14239563998899 L 193.61643450484587 90.14475399353881 L 192.11348713745247 92.14868381673006 L 190.60905878606403 94.154588285248 L 189.1028458795606 96.16287216058589 L 187.59454341134136 98.17394211821147 L 186.08384469074022 100.18820707901301 L 184.57044109154964 102.20607854460047 L 183.05402179721048 104.2279709370527 L 181.5342735422161 106.25430194371188 L 180.01088034926792 108.28549286764274 L 178.4835232617063 110.32196898439156 L 176.95188007072719 112.36415990569708 L 175.41562503687865 114.41249995082848 L 173.8744286053142 116.46742852624772 L 172.3279571142603 118.52939051431957 L 170.7758724961354 120.59883667181947 L 169.21783197073393 122.6762240390214 L 167.65348772986422 124.76201636018101 L 166.08248661280305 126.85668451626265 L 164.50446977189833 128.96070697080222 L 162.9190723276225 131.0745702298367 L 161.3259230123416 133.19876931687787 L 159.72464380203124 135.33380826395836 L 158.11484953512814 137.48020061982913 L 156.49614751766447 139.63846997644737 L 154.86813711378448 141.809150514954 L 153.23040932069412 143.99278757240785 L 151.58254632703867 146.1899382306151 L 149.92412105364713 148.4011719284705 L 148.25469667551798 150.62707109930938 L 146.57382612385356 152.86823183486192 L 144.88105156687857 155.12526457749524 L 143.17590386809832 157.39879484253558 L 141.4579020205689 159.6894639725748 L 139.7265525556598 161.997929925787 L 137.98134892469116 164.32486810041178 L 136.22177085172194 166.67097219770406 L 134.44728365565066 169.03695512579907 L 132.65733753966686 171.42354994711084 L 130.85136684595713 173.83151087205715 L 129.0287892734271 176.26161430209723 L 127.18900505604135 178.71465992527823 L 125.3313960992187 181.19147186770837 L 123.45532507153195 183.69289990462406 L 121.56013444876929 186.2198207349743 L 119.64514550719349 188.77313932374204 L 117.70965726260783 191.3537903165229 L 115.75294535157984 193.96273953122687 L 113.7742608509038 196.60098553212828 L 111.77282903108029 199.26956129189296 L 109.74784803927147 201.96953594763806 L 107.69848750683083 204.70201665755891 L 105.6238870761294 207.46815056516076 L 103.52315484097299 210.26912687870268 L 101.39536569445355 213.10617907406194 L 99.2395595775735 215.980587229902 L 97.05473962143988 218.89368050474687 L 94.8398701752225 221.84683976636998 L 92.5938747114236 224.84150038476852 L 90.31563359928091 227.87915520095882 L 88.0039817363505 230.961357684866 L 85.65770602744277 234.089725296743 L 83.27554269914617 237.2659430678051 L 80.85617443712356 240.49176741716857 L 78.39822733222385 243.76903022370158 L 75.90026762018114 247.0996431730918 L 73.36079819828295 250.4856024022894 L 70.77825490084373 253.9289934655417 L 68.15100251361547 257.4319966485127 L 65.4773305053833 260.99689265948894 L 62.755448452897475 264.62606872947003 L 59.98348113297865 268.3220251560285 L 57.15946325304847 272.08738232926873 L 54.281333788478506 275.92488828202863 L 51.34692989194757 279.8374268107366 L 49.5 282.43041387564824 L 49.5 282.7684718079641 L 49.5 283.1000158808087 L 49.5 283.4252969991286 L 49.5 283.74455421761735 L 49.5 284.0580154514685 L 49.5 284.3658981370395 L 49.5 284.6684098465121 L 49.499999999999964 284.96574886025803 L 49.50000000000002 285.2581047002804 L 49.5 285.54565862780044 L 49.5 285.82858410778323 L 49.5 286.10704724295334 L 49.5 286.38120717962806 L 49.499999999999964 286.6512164874951 L 49.5 286.9172215152814 L 49.5 287.17936272409696 L 49.5 287.4377750000855 L 49.5 287.69258794788334 L 49.5 287.94392616626334 L 49.5 288.1919095072281 L 49.5 288.43665331971977 L 49.50000000000002 288.6782686790169 L 49.5 288.9168626028086 L 49.5 289.15253825485615 L 49.5 289.3853951370867 L 49.5 289.61552927089417 L 49.5 289.84303336836945 L 49.5 290.067996994124 L 49.5 290.2905067183243 L 49.5 290.51064626150986 L 49.5 290.72849663172326 L 49.5 290.94413625444616 L 49.5 291.1576410957989 L 49.5 291.3690847794278 L 49.50000000000002 291.57853869747726 L 49.5 291.78607211601536 L 49.5 291.9917522752546 L 49.50000000000002 292.1956444848912 L 49.5 292.3978122148592 L 49.5 292.59831718177963 L 49.5 292.7972194313668 L 49.5 292.9945774170333 L 49.5 293.19044807492537 L 49.5 293.3848868955998 L 49.5 293.577947992545 L 49.5 293.769684167734 L 49.5 293.960146974386 L 49.5 294.1493867771028 L 49.5 294.3374528095362 L 49.5 294.5243932297348 L 49.5 294.7102551733065 L 49.5 294.89508480453 L 49.5 295.07892736553686 L 49.5 295.2618272236822 L 49.5 295.4438279172132 L 49.5 295.62497219934096 L 49.5 295.8053020808143 L 49.5 295.984858871089 L 49.5 296.1636832181838 L 49.5 296.34181514730557 L 49.5 296.51929409832695 L 49.5 296.6961589621924 L 49.50000000000002 296.8724481163276 L 49.5 297.04819945912243 L 49.5 297.22345044355495 L 49.5 297.3982381100228 L 49.5 297.57259911844375 L 49.5 297.74656977968607 L 49.5 297.92018608638756 L 49.5 298.0934837432194 L 49.50000000000002 298.26649819664993 L 49.5 298.43926466426217 L 49.5 298.61181816367593 L 49.5 298.7841935411271 L 49.50000000000002 298.95642549975275 L 49.50000000000002 299.1285486276322 L 49.5 299.3005974256303 L 49.5 299.4726063350938 L 49.5 299.6446097654451 L 49.5 299.81664212172257 L 49.5 299.9887378321124 L 49.499999999999964 300.1609313755214 L 49.5 300.3332573092339 L 49.5 300.5057502967047 L 49.5 300.6784451355312 L 49.5 300.85137678565525 L 49.5 301.0245803978437 L 49.5 301.1980913424958 L 49.5 301.37194523882926 L 49.5 301.5461779844959 L 49.5 301.7208257856804 L 49.5 301.8959251877367 L 49.5 302.071513106417 L 49.5 302.2476268597526 L 49.5 302.4243042006457 L 49.5 302.6015833502341 L 49.5 302.7795030320933 L 49.5 302.95810250734314 L 49.50000000000002 303.1374216107284 L 49.50000000000002 303.31750078774735 L 49.5 303.4983811329026 L 49.5 303.6801044291554 L 49.5 303.86271318866807 L 49.5 304.0462506949197 L 49.5 304.2307610462908 L 49.5 304.4162892012116 L 49.5 304.6028810249795 L 49.499999999999964 304.7905833383512 L 49.5 304.979443968027 L 49.50000000000002 305.16951179914577 L 49.5 305.360836829922 L 49.50000000000002 305.55347022855733 L 49.5 305.7474643925752 L 49.5 305.9428730107278 L 49.5 306.1397511276419 L 49.5 306.3381552113739 L 49.499999999999964 306.538143224061 L 49.5 306.73977469586384 L 49.5 306.9431108024105 L 49.5 307.14821444596623 L 49.5 307.3551503405672 L 49.5 307.5639851013743 L 49.5 307.7747873385199 L 49.5 307.98762775574033 L 49.50000000000002 308.2025792541076 L 49.5 308.41971704119567 L 49.5 308.63911874604185 L 49.5 308.8608645402917 L 49.5 309.0850372659402 L 49.5 309.31172257011946 L 49.5 309.5410090474119 L 49.5 309.77298839020705 L 49.5 310.00775554766153 L 49.5 310.24540889386253 L 49.5 310.4860504058459 L 49.50000000000002 310.72978585217 L 49.5 310.97672499280486 L 49.499999999999964 311.22698179115656 L 49.5 311.4806746391171 L 49.5 311.7379265961031 L 49.5 311.99886564312646 L 49.50000000000002 312.2636249530347 L 49.5 312.53234317815065 L 49.5 312.80516475665377 L 49.5 313.0822402391616 L 49.5 313.36372663710125 L 49.5 313.649787794605 L 49.5 313.9405947858216 L 49.5 314.2363263397124 L 49.5 314.53716929459324 L 49.5 314.84331908489884 L 49.5 315.154980262884 L 49.5 315.47236705824014 L 49.5 315.79570397889734 L 49.5 316.1252264566108 L 49.5 316.46118154129033 L 50.400049207745845 315.4999343896722 L 53.35284982835737 311.5628668955235 L 56.248664650799554 307.70178046560056 L 59.08969030961563 303.91374625384583 L 61.878019580603805 300.19597389252823 L 64.61564761566129 296.54580317911825 L 67.30447773782579 292.96069634956564 L 69.9463268324075 289.43823089012335 L 72.54293036680724 285.976092844257 L 75.09594706864175 282.5720705751443 L 77.60696328913677 279.2240489478176 L 80.07749707634375 275.9300038982083 L 82.50900198058187 272.68799735922414 L 84.90287061254807 269.49617251660254 L 87.26043797278572 266.352749369619 L 89.58298456960478 263.25602057386027 L 91.87173934111169 260.2043475451844 L 94.12788239569453 257.19615680574066 L 96.35254758413195 254.22993655449073 L 98.54682491541512 251.3042334461132 L 100.71176282739877 248.4176495634683 L 102.84837032250329 245.56883956999562 L 104.9576189778859 242.75650802948547 L 107.04044483875667 239.97940688165775 L 109.09775020284732 237.23633306287024 L 111.13040530341792 234.52612626210944 L 113.13924989763352 231.8476668031553 L 115.1250947666218 229.19987364450427 L 117.08872313305768 226.58170248925643 L 119.03089200168382 223.99214399775488 L 120.95233342778619 221.4302220962851 L 122.85375571827525 218.89499237563297 L 124.73584456969701 216.3855405737373 L 126.59926414718258 213.9009811370899 L 128.444658108071 211.44045585590533 L 130.27265057367683 209.00313256843089 L 132.08384705243387 206.58820393008816 L 133.87883531743074 204.19488624342566 L 135.65818624114385 201.82241834514156 L 137.42245458999247 199.47006054667673 L 139.1721797811624 197.13709362511673 L 140.90788660398863 194.8228178613485 L 142.63008590803463 192.52655212262047 L 144.3392752598744 190.24763298683416 L 146.03593957045135 187.9854139060649 L 147.72055169477642 185.73926440696482 L 149.3935730056129 183.50856932584952 L 151.05545394269996 181.29272807640007 L 152.70663453897026 179.09115394803968 L 154.34754492513315 176.90327343315582 L 155.97860581391072 174.7285255814524 L 157.6002289651439 172.56636137980814 L 159.2128176329125 170.41624315611665 L 160.8167669957537 168.27764400566173 L 162.41246457099766 166.1500472386698 L 164.0002906141898 164.03294584774696 L 165.58061850451304 161.92584199398263 L 167.15381511708085 159.82824651055887 L 168.72024118292103 157.73967842277193 L 170.28025163743584 155.65966448341885 L 171.83419595808215 153.58773872255713 L 173.38241849198062 151.52344201069252 L 174.92525877413317 149.46632163448913 L 176.4630518368931 147.41593088414254 L 177.9961285113091 145.37182865158783 L 179.52481572093578 143.3335790387523 L 181.04943676868268 141.30075097508978 L 182.5703116172484 139.27291784366884 L 184.0877571636705 137.249657115106 L 185.60208750850097 135.23054998866542 L 187.11361422010418 133.21518103986108 L 188.62264659455494 131.20313787392678 L 190.12949191160484 129.19401078452682 L 191.63445568717196 127.18739241710404 L 193.1378419227993 125.18287743626757 L 194.63995335251636 123.18006219664488 L 196.14109168753342 121.17854441662212 L 197.64155785918953 119.17792285441396 L 199.14165226057227 117.17779698590368 L 200.64167498721974 118.222233316293 L 202.1419260773176 120.22256810309017 L 203.6427057517973 122.22360766906314 L 205.14431465474678 124.22575287299571 L 206.6470540945396 126.22940545938616 L 208.15122628609694 128.23496838146264 L 209.6571345946951 130.2428461262602 L 211.1650837817384 132.25344504231788 L 212.67538025292347 134.26717367056466 L 214.1883323092252 136.28444307896694 L 215.7042504011462 138.30566720152825 L 217.22344738667832 140.33126318223776 L 218.74623879344 142.3616517245867 L 220.27294308546 144.39725744728003 L 221.80388193509683 146.43850924679577 L 223.33938050059626 148.4858406674617 L 224.87976770980893 150.5396902797452 L 226.42537655060394 152.60050206747192 L 227.97654436854157 154.66872582472203 L 229.5336131723844 156.74481756317914 L 231.09692994805727 158.82923993074306 L 232.6668469816858 160.92246264224775 L 234.24372219237858 163.02496292317147 L 235.82791947544547 165.13722596726063 L 237.41980905678122 167.25974540904164 L 239.019767859176 169.39302381223465 L 240.62817988135978 171.53757317514635 L 242.24543659062314 173.6939154541642 L 243.87193732991184 175.86258310654912 L 245.50808974033086 178.0441196537745 L 247.15431020005852 180.2390802667447 L 248.8110242807199 182.44803237429312 L 250.47866722233508 184.67155629644674 L 252.15768442802536 186.9102459040338 L 253.84853197972714 189.16470930630283 L 255.55167717624767 191.43556956833024 L 257.2675990950745 193.7234654600993 L 258.99678917944567 196.02905223926095 L 260.73975185227926 198.3530024697056 L 262.4970051586703 200.69600687822705 L 264.2690814387748 203.0587752516997 L 266.05652803302195 205.4420373773626 L 267.85990802172785 207.84654402897044 L 269.6798010013273 210.2730680017697 L 271.51680389959375 212.7224051994583 L 273.371531832386 215.19537577651465 L 275.24461900463683 217.69282533951576 L 277.13671965849943 220.21562621133253 L 279.04850907177513 222.76467876236683 L 280.98068460998047 225.3409128133073 L 282.9339668356551 227.9452891142068 L 284.9091006787887 230.57880090505162 L 286.9068566725365 233.24247556338196 L 288.9280322587147 235.937376344953 L 290.973453167914 238.66460422388533 L 293.0439748794495 241.42529983926602 L 295.1404841667822 244.22064555570958 L 297.26390073449164 247.0518676459888 L 299.41517895338137 249.92023860450854 L 301.595309700828 252.82707960110403 L 303.8053223140798 255.77376308543967 L 306.04628666485246 258.7617155531366 L 308.31931536427925 261.79242048570563 L 310.6255661080395 264.86742147738596 L 312.9662441723489 267.9883255631319 L 315.3426050724209 271.1568067632278 L 317.7559573960406 274.37460986138746 L 320.20766582601954 277.64355443469276 L 322.69915436654645 280.9655391553952 L 325.23190978982313 284.34254638643085 L 327.80748532089484 287.7766470945264 L 330.4275045802545 291.270006107006 L 333.09366580566564 294.8248877408875 L 335.8077463766992 298.44366183559896 L 338.5716076677682 302.128810223691 L 341.38720025797056 305.8829336772941 L 344.25656952887744 309.70875937183655 L 347.1818616845388 313.6091489127184 L 349.5 316.6240456980788 L 349.5 316.2849263441666 L 349.5 315.95236195420097 L 349.5 315.6260996667267 L 349.5 315.3058985886567 L 349.5 314.9915290761376 L 349.5 314.68277206619206 L 349.5 314.379418454989 L 349.5 314.0812685189762 L 349.5 313.78813137545205 L 349.5 313.49982447946286 L 349.5 313.2161731541879 L 349.5 312.93701015222587 L 349.5 312.66217524542094 L 349.5 312.39151484107 L 349.5 312.1248816225369 L 349.5 311.86213421246737 L 349.5 311.6031368569452 L 349.5 311.3477591290724 L 349.5 311.09587565057564 L 349.5 310.84736583015734 L 349.5 310.6021136174101 L 349.5 310.3600072712082 L 349.5 310.1209391415752 L 349.5 309.8848054641029 L 349.5 309.6515061660692 L 349.5 309.4209446834681 L 349.5 309.1930277882212 L 349.5 308.96766542489866 L 349.5 308.7447705563241 L 349.5 308.52425901748495 L 349.5 308.3060493772116 L 349.5 308.090062807127 L 349.5 307.8762229574039 L 349.5 307.66445583889913 L 349.5 307.4546897112647 L 349.5 307.24685497666286 L 349.5 307.0408840787381 L 349.5 306.83671140652086 L 349.5 306.63427320296285 L 349.5 306.4335074778195 L 349.5 306.23435392461727 L 349.5 306.03675384145834 L 349.5 305.84065005543164 L 349.5 305.645986850415 L 349.5 305.4527098980641 L 349.5 305.26076619179884 L 349.5 305.0701039836091 L 349.5 304.88067272351043 L 349.5 304.69242300149347 L 349.5 304.5053064918177 L 349.5 304.3192758995091 L 349.5 304.13428490893125 L 349.5 303.9502881343034 L 349.5 303.7672410720491 L 349.5 303.58510005486374 L 349.5 303.4038222073951 L 349.5 303.22336540343736 L 349.5 303.04368822454427 L 349.5 302.86474991997 L 349.5 302.68651036785315 L 349.5 302.50893003756187 L 349.5 302.331969953122 L 349.5 302.1555916576538 L 349.5 301.9797571787463 L 349.5 301.8044289947005 L 349.5 301.6295700015763 L 349.5 301.4551434809796 L 349.5 301.281113068529 L 349.5 301.1074427229436 L 349.5 300.93409669569394 L 349.5 300.7610395011627 L 349.5 300.58823588725943 L 349.5 300.4156508064387 L 349.5 300.24324938706974 L 349.5 300.0709969051078 L 349.5 299.8988587560177 L 349.5 299.7268004269017 L 349.5 299.55478746878356 L 349.5 299.5" fill-opacity="1"/><path fill="#ffffff" stroke="none" paint-order="stroke fill markers" d="" fill-opacity="1"/><g><path fill="none" stroke="#ffffff" class="dcg-svg-curve" paint-order="fill stroke markers" d=" M 349.5 299.5 L 349.5 299.5 L 349.5 299.3279942664373 L 349.5 299.1559541259935 L 349.5 298.9838451442517 L 349.5 298.8116328316771 L 349.5 298.6392826159407 L 349.5 298.4667598141017 L 349.5 298.2940296046015 L 349.5 298.12105699902116 L 349.5 297.94780681355167 L 349.5 297.77424364013024 L 349.5 297.60033181718893 L 349.5 297.42603539996554 L 349.5 297.2513181303233 L 349.5 297.0761434060237 L 349.5 296.90047424939735 L 349.5 296.72427327535434 L 349.5 296.5475026586736 L 349.5 296.3701241005086 L 349.5 296.19209879404656 L 349.5 296.01338738925085 L 349.5 295.8339499566185 L 349.5 295.6537459498786 L 349.5 295.4727341675548 L 349.5 295.29087271331116 L 349.5 295.1081189549982 L 349.5 294.92442948230826 L 349.5 294.7397600629495 L 349.5 294.554065597238 L 349.5 294.3673000710058 L 349.5 294.17941650671446 L 349.5 293.99036691265974 L 349.5 293.8001022301431 L 349.5 293.60857227848334 L 349.5 293.4157256977271 L 349.5 293.22150988891667 L 349.5 293.02587095175716 L 349.5 292.8287536195194 L 349.5 292.63010119100454 L 349.5 292.42985545938194 L 349.5 292.22795663770364 L 349.5 292.0243432808819 L 349.5 291.8189522039049 L 349.5 291.61171839604845 L 349.5 291.4025749308249 L 349.5 291.19145287139486 L 349.5 290.97828117114375 L 349.5 290.762986569108 L 349.5 290.54549347991036 L 349.5 290.3257238778401 L 349.5 290.1035971746868 L 349.5 289.87903009090695 L 349.5 289.6519365196713 L 349.5 289.4222273833063 L 349.5 289.1898104816052 L 349.5 288.9545903314441 L 349.5 288.7164679970936 L 349.5 288.4753409105681 L 349.5 288.23110268130205 L 349.5 287.9836428943848 L 349.5 287.73284689652286 L 349.5 287.47859556882884 L 349.5 287.22076508546104 L 349.5 286.95922665705535 L 349.5 286.6938462577994 L 349.5 286.42448433490074 L 349.5 286.15099549908894 L 349.5 285.87322819467397 L 349.5 285.5910243475479 L 349.5 285.30421898937277 L 349.5 285.01263985603504 L 349.5 284.7161069582686 L 349.5 284.41443212215285 L 349.5 284.10741849697195 L 349.5 283.79486002768203 L 349.5 283.47654088896195 L 349.5 283.1522348775286 L 349.5 282.82170475906236 L 349.5 282.4847015657224 L 348.12576333113327 280.467684441511 L 345.18219009757115 276.5429201300949 L 342.29524559122933 272.6936607883058 L 339.4627501552822 268.917000207043 L 336.6826269676304 265.21016929017395 L 333.9528958786516 261.5705278382021 L 331.27166768280176 257.99555691040234 L 328.63713878872153 254.4828517182953 L 326.04758625574914 251.0301150076656 L 323.5013631676611 247.63515089021482 L 320.9968943170792 244.29585908943892 L 318.5326721763476 241.01022956846342 L 316.1072531328044 237.77633751040588 L 313.71925396829346 234.59233862439132 L 311.3673485644942 231.45646475265895 L 309.05026481721177 228.36701975628236 L 306.7667817441908 225.3223756589211 L 304.5157267722987 222.3209690297316 L 302.2959731910908 219.36129758812112 L 300.106437760829 216.4419170144387 L 297.94607846398674 213.5614379519823 L 295.8138923901496 210.71852318686615 L 293.7089137450183 207.9118849933577 L 291.6302119749468 205.1402826332624 L 289.57688999911386 202.4025199988185 L 287.54808254202965 199.69744338937286 L 285.5429545596362 197.02393941284828 L 283.5606997527636 194.38093300368473 L 281.6005391621715 191.76738554956205 L 279.6617198398288 189.18229311977174 L 277.743513591474 186.62468478863204 L 275.84521578585964 184.09362104781292 L 273.96614422640965 181.58819230187956 L 272.1056380813238 179.10751744176503 L 270.2630568684394 176.65074249125254 L 268.43777949141884 174.21703932189175 L 266.62920332406543 171.8056044320872 L 264.8367433397883 169.41565778638443 L 263.05983128343917 167.0464417112522 L 261.2979148829258 164.69721984390108 L 259.55045709818233 162.36727613090983 L 257.8169354052307 160.05591387364103 L 256.09684111321616 157.76245481762155 L 254.38967871243386 155.48623828324517 L 252.69496525149034 153.22662033532043 L 251.01222974185643 150.9829729891419 L 249.34101258817927 148.7546834509057 L 247.68086504281825 146.54115339042434 L 246.03134868316212 144.3417982442162 L 244.39203491037136 142.1560465471618 L 242.76250446826782 139.98333929102375 L 241.14234698116874 137.82312930822496 L 239.53116050952858 135.67488067937143 L 237.92855112231777 133.53806816309032 L 236.33413248512554 131.41217664683398 L 234.747525463027 129.2967006173693 L 233.16835773730892 127.19114364974519 L 231.5962634351917 125.09501791358889 L 230.0308827717317 123.00784369564224 L 228.47186170312716 120.92914893750287 L 226.91885159068872 118.85846878758491 L 225.37150887477003 116.79534516636 L 223.8294947579868 114.73932634398238 L 222.29247489708115 112.6899665294415 L 220.76011910281687 110.64682547042247 L 219.23210104731447 108.6094680630859 L 217.70809797826107 106.57746397101471 L 216.18779043944778 104.55038725259703 L 214.67086199710968 102.52781599614622 L 213.15699897155963 100.50933196207944 L 211.6458901736232 98.49452023149757 L 210.13722664539785 96.48296886053043 L 208.63070140487005 94.47426853982671 L 207.12600919393793 92.46801225858388 L 205.62284622939586 90.46379497252781 L 204.12090995644613 88.46121327526146 L 202.61989880431094 86.45986507241457 L 201.11951194352375 84.45934925803164 L 199.61944904448347 82.45926539264462 L 198.11941003686002 84.14078661751995 L 196.6190948694405 86.14120684074601 L 195.11820327000828 88.14239563998899 L 193.61643450484587 90.14475399353881 L 192.11348713745247 92.14868381673006 L 190.60905878606403 94.154588285248 L 189.1028458795606 96.16287216058589 L 187.59454341134136 98.17394211821147 L 186.08384469074022 100.18820707901301 L 184.57044109154964 102.20607854460047 L 183.05402179721048 104.2279709370527 L 181.5342735422161 106.25430194371188 L 180.01088034926792 108.28549286764274 L 178.4835232617063 110.32196898439156 L 176.95188007072719 112.36415990569708 L 175.41562503687865 114.41249995082848 L 173.8744286053142 116.46742852624772 L 172.3279571142603 118.52939051431957 L 170.7758724961354 120.59883667181947 L 169.21783197073393 122.6762240390214 L 167.65348772986422 124.76201636018101 L 166.08248661280305 126.85668451626265 L 164.50446977189833 128.96070697080222 L 162.9190723276225 131.0745702298367 L 161.3259230123416 133.19876931687787 L 159.72464380203124 135.33380826395836 L 158.11484953512814 137.48020061982913 L 156.49614751766447 139.63846997644737 L 154.86813711378448 141.809150514954 L 153.23040932069412 143.99278757240785 L 151.58254632703867 146.1899382306151 L 149.92412105364713 148.4011719284705 L 148.25469667551798 150.62707109930938 L 146.57382612385356 152.86823183486192 L 144.88105156687857 155.12526457749524 L 143.17590386809832 157.39879484253558 L 141.4579020205689 159.6894639725748 L 139.7265525556598 161.997929925787 L 137.98134892469116 164.32486810041178 L 136.22177085172194 166.67097219770406 L 134.44728365565066 169.03695512579907 L 132.65733753966686 171.42354994711084 L 130.85136684595713 173.83151087205715 L 129.0287892734271 176.26161430209723 L 127.18900505604135 178.71465992527823 L 125.3313960992187 181.19147186770837 L 123.45532507153195 183.69289990462406 L 121.56013444876929 186.2198207349743 L 119.64514550719349 188.77313932374204 L 117.70965726260783 191.3537903165229 L 115.75294535157984 193.96273953122687 L 113.7742608509038 196.60098553212828 L 111.77282903108029 199.26956129189296 L 109.74784803927147 201.96953594763806 L 107.69848750683083 204.70201665755891 L 105.6238870761294 207.46815056516076 L 103.52315484097299 210.26912687870268 L 101.39536569445355 213.10617907406194 L 99.2395595775735 215.980587229902 L 97.05473962143988 218.89368050474687 L 94.8398701752225 221.84683976636998 L 92.5938747114236 224.84150038476852 L 90.31563359928091 227.87915520095882 L 88.0039817363505 230.961357684866 L 85.65770602744277 234.089725296743 L 83.27554269914617 237.2659430678051 L 80.85617443712356 240.49176741716857 L 78.39822733222385 243.76903022370158 L 75.90026762018114 247.0996431730918 L 73.36079819828295 250.4856024022894 L 70.77825490084373 253.9289934655417 L 68.15100251361547 257.4319966485127 L 65.4773305053833 260.99689265948894 L 62.755448452897475 264.62606872947003 L 59.98348113297865 268.3220251560285 L 57.15946325304847 272.08738232926873 L 54.281333788478506 275.92488828202863 L 51.34692989194757 279.8374268107366 L 49.5 282.43041387564824 L 49.5 282.7684718079641 L 49.5 283.1000158808087 L 49.5 283.4252969991286 L 49.5 283.74455421761735 L 49.5 284.0580154514685 L 49.5 284.3658981370395 L 49.5 284.6684098465121 L 49.499999999999964 284.96574886025803 L 49.50000000000002 285.2581047002804 L 49.5 285.54565862780044 L 49.5 285.82858410778323 L 49.5 286.10704724295334 L 49.5 286.38120717962806 L 49.499999999999964 286.6512164874951 L 49.5 286.9172215152814 L 49.5 287.17936272409696 L 49.5 287.4377750000855 L 49.5 287.69258794788334 L 49.5 287.94392616626334 L 49.5 288.1919095072281 L 49.5 288.43665331971977 L 49.50000000000002 288.6782686790169 L 49.5 288.9168626028086 L 49.5 289.15253825485615 L 49.5 289.3853951370867 L 49.5 289.61552927089417 L 49.5 289.84303336836945 L 49.5 290.067996994124 L 49.5 290.2905067183243 L 49.5 290.51064626150986 L 49.5 290.72849663172326 L 49.5 290.94413625444616 L 49.5 291.1576410957989 L 49.5 291.3690847794278 L 49.50000000000002 291.57853869747726 L 49.5 291.78607211601536 L 49.5 291.9917522752546 L 49.50000000000002 292.1956444848912 L 49.5 292.3978122148592 L 49.5 292.59831718177963 L 49.5 292.7972194313668 L 49.5 292.9945774170333 L 49.5 293.19044807492537 L 49.5 293.3848868955998 L 49.5 293.577947992545 L 49.5 293.769684167734 L 49.5 293.960146974386 L 49.5 294.1493867771028 L 49.5 294.3374528095362 L 49.5 294.5243932297348 L 49.5 294.7102551733065 L 49.5 294.89508480453 L 49.5 295.07892736553686 L 49.5 295.2618272236822 L 49.5 295.4438279172132 L 49.5 295.62497219934096 L 49.5 295.8053020808143 L 49.5 295.984858871089 L 49.5 296.1636832181838 L 49.5 296.34181514730557 L 49.5 296.51929409832695 L 49.5 296.6961589621924 L 49.50000000000002 296.8724481163276 L 49.5 297.04819945912243 L 49.5 297.22345044355495 L 49.5 297.3982381100228 L 49.5 297.57259911844375 L 49.5 297.74656977968607 L 49.5 297.92018608638756 L 49.5 298.0934837432194 L 49.50000000000002 298.26649819664993 L 49.5 298.43926466426217 L 49.5 298.61181816367593 L 49.5 298.7841935411271 L 49.50000000000002 298.95642549975275 L 49.50000000000002 299.1285486276322 L 49.5 299.3005974256303 L 49.5 299.4726063350938 L 49.5 299.6446097654451 L 49.5 299.81664212172257 L 49.5 299.9887378321124 L 49.499999999999964 300.1609313755214 L 49.5 300.3332573092339 L 49.5 300.5057502967047 L 49.5 300.6784451355312 L 49.5 300.85137678565525 L 49.5 301.0245803978437 L 49.5 301.1980913424958 L 49.5 301.37194523882926 L 49.5 301.5461779844959 L 49.5 301.7208257856804 L 49.5 301.8959251877367 L 49.5 302.071513106417 L 49.5 302.2476268597526 L 49.5 302.4243042006457 L 49.5 302.6015833502341 L 49.5 302.7795030320933 L 49.5 302.95810250734314 L 49.50000000000002 303.1374216107284 L 49.50000000000002 303.31750078774735 L 49.5 303.4983811329026 L 49.5 303.6801044291554 L 49.5 303.86271318866807 L 49.5 304.0462506949197 L 49.5 304.2307610462908 L 49.5 304.4162892012116 L 49.5 304.6028810249795 L 49.499999999999964 304.7905833383512 L 49.5 304.979443968027 L 49.50000000000002 305.16951179914577 L 49.5 305.360836829922 L 49.50000000000002 305.55347022855733 L 49.5 305.7474643925752 L 49.5 305.9428730107278 L 49.5 306.1397511276419 L 49.5 306.3381552113739 L 49.499999999999964 306.538143224061 L 49.5 306.73977469586384 L 49.5 306.9431108024105 L 49.5 307.14821444596623 L 49.5 307.3551503405672 L 49.5 307.5639851013743 L 49.5 307.7747873385199 L 49.5 307.98762775574033 L 49.50000000000002 308.2025792541076 L 49.5 308.41971704119567 L 49.5 308.63911874604185 L 49.5 308.8608645402917 L 49.5 309.0850372659402 L 49.5 309.31172257011946 L 49.5 309.5410090474119 L 49.5 309.77298839020705 L 49.5 310.00775554766153 L 49.5 310.24540889386253 L 49.5 310.4860504058459 L 49.50000000000002 310.72978585217 L 49.5 310.97672499280486 L 49.499999999999964 311.22698179115656 L 49.5 311.4806746391171 L 49.5 311.7379265961031 L 49.5 311.99886564312646 L 49.50000000000002 312.2636249530347 L 49.5 312.53234317815065 L 49.5 312.80516475665377 L 49.5 313.0822402391616 L 49.5 313.36372663710125 L 49.5 313.649787794605 L 49.5 313.9405947858216 L 49.5 314.2363263397124 L 49.5 314.53716929459324 L 49.5 314.84331908489884 L 49.5 315.154980262884 L 49.5 315.47236705824014 L 49.5 315.79570397889734 L 49.5 316.1252264566108 L 49.5 316.46118154129033 L 50.400049207745845 315.4999343896722 L 53.35284982835737 311.5628668955235 L 56.248664650799554 307.70178046560056 L 59.08969030961563 303.91374625384583 L 61.878019580603805 300.19597389252823 L 64.61564761566129 296.54580317911825 L 67.30447773782579 292.96069634956564 L 69.9463268324075 289.43823089012335 L 72.54293036680724 285.976092844257 L 75.09594706864175 282.5720705751443 L 77.60696328913677 279.2240489478176 L 80.07749707634375 275.9300038982083 L 82.50900198058187 272.68799735922414 L 84.90287061254807 269.49617251660254 L 87.26043797278572 266.352749369619 L 89.58298456960478 263.25602057386027 L 91.87173934111169 260.2043475451844 L 94.12788239569453 257.19615680574066 L 96.35254758413195 254.22993655449073 L 98.54682491541512 251.3042334461132 L 100.71176282739877 248.4176495634683 L 102.84837032250329 245.56883956999562 L 104.9576189778859 242.75650802948547 L 107.04044483875667 239.97940688165775 L 109.09775020284732 237.23633306287024 L 111.13040530341792 234.52612626210944 L 113.13924989763352 231.8476668031553 L 115.1250947666218 229.19987364450427 L 117.08872313305768 226.58170248925643 L 119.03089200168382 223.99214399775488 L 120.95233342778619 221.4302220962851 L 122.85375571827525 218.89499237563297 L 124.73584456969701 216.3855405737373 L 126.59926414718258 213.9009811370899 L 128.444658108071 211.44045585590533 L 130.27265057367683 209.00313256843089 L 132.08384705243387 206.58820393008816 L 133.87883531743074 204.19488624342566 L 135.65818624114385 201.82241834514156 L 137.42245458999247 199.47006054667673 L 139.1721797811624 197.13709362511673 L 140.90788660398863 194.8228178613485 L 142.63008590803463 192.52655212262047 L 144.3392752598744 190.24763298683416 L 146.03593957045135 187.9854139060649 L 147.72055169477642 185.73926440696482 L 149.3935730056129 183.50856932584952 L 151.05545394269996 181.29272807640007 L 152.70663453897026 179.09115394803968 L 154.34754492513315 176.90327343315582 L 155.97860581391072 174.7285255814524 L 157.6002289651439 172.56636137980814 L 159.2128176329125 170.41624315611665 L 160.8167669957537 168.27764400566173 L 162.41246457099766 166.1500472386698 L 164.0002906141898 164.03294584774696 L 165.58061850451304 161.92584199398263 L 167.15381511708085 159.82824651055887 L 168.72024118292103 157.73967842277193 L 170.28025163743584 155.65966448341885 L 171.83419595808215 153.58773872255713 L 173.38241849198062 151.52344201069252 L 174.92525877413317 149.46632163448913 L 176.4630518368931 147.41593088414254 L 177.9961285113091 145.37182865158783 L 179.52481572093578 143.3335790387523 L 181.04943676868268 141.30075097508978 L 182.5703116172484 139.27291784366884 L 184.0877571636705 137.249657115106 L 185.60208750850097 135.23054998866542 L 187.11361422010418 133.21518103986108 L 188.62264659455494 131.20313787392678 L 190.12949191160484 129.19401078452682 L 191.63445568717196 127.18739241710404 L 193.1378419227993 125.18287743626757 L 194.63995335251636 123.18006219664488 L 196.14109168753342 121.17854441662212 L 197.64155785918953 119.17792285441396 L 199.14165226057227 117.17779698590368 L 200.64167498721974 118.222233316293 L 202.1419260773176 120.22256810309017 L 203.6427057517973 122.22360766906314 L 205.14431465474678 124.22575287299571 L 206.6470540945396 126.22940545938616 L 208.15122628609694 128.23496838146264 L 209.6571345946951 130.2428461262602 L 211.1650837817384 132.25344504231788 L 212.67538025292347 134.26717367056466 L 214.1883323092252 136.28444307896694 L 215.7042504011462 138.30566720152825 L 217.22344738667832 140.33126318223776 L 218.74623879344 142.3616517245867 L 220.27294308546 144.39725744728003 L 221.80388193509683 146.43850924679577 L 223.33938050059626 148.4858406674617 L 224.87976770980893 150.5396902797452 L 226.42537655060394 152.60050206747192 L 227.97654436854157 154.66872582472203 L 229.5336131723844 156.74481756317914 L 231.09692994805727 158.82923993074306 L 232.6668469816858 160.92246264224775 L 234.24372219237858 163.02496292317147 L 235.82791947544547 165.13722596726063 L 237.41980905678122 167.25974540904164 L 239.019767859176 169.39302381223465 L 240.62817988135978 171.53757317514635 L 242.24543659062314 173.6939154541642 L 243.87193732991184 175.86258310654912 L 245.50808974033086 178.0441196537745 L 247.15431020005852 180.2390802667447 L 248.8110242807199 182.44803237429312 L 250.47866722233508 184.67155629644674 L 252.15768442802536 186.9102459040338 L 253.84853197972714 189.16470930630283 L 255.55167717624767 191.43556956833024 L 257.2675990950745 193.7234654600993 L 258.99678917944567 196.02905223926095 L 260.73975185227926 198.3530024697056 L 262.4970051586703 200.69600687822705 L 264.2690814387748 203.0587752516997 L 266.05652803302195 205.4420373773626 L 267.85990802172785 207.84654402897044 L 269.6798010013273 210.2730680017697 L 271.51680389959375 212.7224051994583 L 273.371531832386 215.19537577651465 L 275.24461900463683 217.69282533951576 L 277.13671965849943 220.21562621133253 L 279.04850907177513 222.76467876236683 L 280.98068460998047 225.3409128133073 L 282.9339668356551 227.9452891142068 L 284.9091006787887 230.57880090505162 L 286.9068566725365 233.24247556338196 L 288.9280322587147 235.937376344953 L 290.973453167914 238.66460422388533 L 293.0439748794495 241.42529983926602 L 295.1404841667822 244.22064555570958 L 297.26390073449164 247.0518676459888 L 299.41517895338137 249.92023860450854 L 301.595309700828 252.82707960110403 L 303.8053223140798 255.77376308543967 L 306.04628666485246 258.7617155531366 L 308.31931536427925 261.79242048570563 L 310.6255661080395 264.86742147738596 L 312.9662441723489 267.9883255631319 L 315.3426050724209 271.1568067632278 L 317.7559573960406 274.37460986138746 L 320.20766582601954 277.64355443469276 L 322.69915436654645 280.9655391553952 L 325.23190978982313 284.34254638643085 L 327.80748532089484 287.7766470945264 L 330.4275045802545 291.270006107006 L 333.09366580566564 294.8248877408875 L 335.8077463766992 298.44366183559896 L 338.5716076677682 302.128810223691 L 341.38720025797056 305.8829336772941 L 344.25656952887744 309.70875937183655 L 347.1818616845388 313.6091489127184 L 349.5 316.6240456980788 L 349.5 316.2849263441666 L 349.5 315.95236195420097 L 349.5 315.6260996667267 L 349.5 315.3058985886567 L 349.5 314.9915290761376 L 349.5 314.68277206619206 L 349.5 314.379418454989 L 349.5 314.0812685189762 L 349.5 313.78813137545205 L 349.5 313.49982447946286 L 349.5 313.2161731541879 L 349.5 312.93701015222587 L 349.5 312.66217524542094 L 349.5 312.39151484107 L 349.5 312.1248816225369 L 349.5 311.86213421246737 L 349.5 311.6031368569452 L 349.5 311.3477591290724 L 349.5 311.09587565057564 L 349.5 310.84736583015734 L 349.5 310.6021136174101 L 349.5 310.3600072712082 L 349.5 310.1209391415752 L 349.5 309.8848054641029 L 349.5 309.6515061660692 L 349.5 309.4209446834681 L 349.5 309.1930277882212 L 349.5 308.96766542489866 L 349.5 308.7447705563241 L 349.5 308.52425901748495 L 349.5 308.3060493772116 L 349.5 308.090062807127 L 349.5 307.8762229574039 L 349.5 307.66445583889913 L 349.5 307.4546897112647 L 349.5 307.24685497666286 L 349.5 307.0408840787381 L 349.5 306.83671140652086 L 349.5 306.63427320296285 L 349.5 306.4335074778195 L 349.5 306.23435392461727 L 349.5 306.03675384145834 L 349.5 305.84065005543164 L 349.5 305.645986850415 L 349.5 305.4527098980641 L 349.5 305.26076619179884 L 349.5 305.0701039836091 L 349.5 304.88067272351043 L 349.5 304.69242300149347 L 349.5 304.5053064918177 L 349.5 304.3192758995091 L 349.5 304.13428490893125 L 349.5 303.9502881343034 L 349.5 303.7672410720491 L 349.5 303.58510005486374 L 349.5 303.4038222073951 L 349.5 303.22336540343736 L 349.5 303.04368822454427 L 349.5 302.86474991997 L 349.5 302.68651036785315 L 349.5 302.50893003756187 L 349.5 302.331969953122 L 349.5 302.1555916576538 L 349.5 301.9797571787463 L 349.5 301.8044289947005 L 349.5 301.6295700015763 L 349.5 301.4551434809796 L 349.5 301.281113068529 L 349.5 301.1074427229436 L 349.5 300.93409669569394 L 349.5 300.7610395011627 L 349.5 300.58823588725943 L 349.5 300.4156508064387 L 349.5 300.24324938706974 L 349.5 300.0709969051078 L 349.5 299.8988587560177 L 349.5 299.7268004269017 L 349.5 299.55478746878356 L 349.5 299.5" stroke-linecap="round" stroke-linejoin="round" stroke-miterlimit="10" stroke-width="2.5" stroke-opacity="1" stroke-dasharray=""/></g></g></g><g id="labels-99431ee9"/></g></svg>