<svg version="1.1" xmlns="http://www.w3.org/2000/svg" xmlns:xlink="http://www.w3.org/1999/xlink" width="800" height="800"><defs/><g transform="scale(2,2)"><g id="background-fca5caa4"></g><g id="background-images-fca5caa4"/><g id="graphpaper-fca5caa4"><g id="axis-fca5caa4"><g><g><path fill="none" stroke="rgb(0,0,0)" class="dcg-svg-tickmark" paint-order="fill stroke markers" d="" stroke-opacity="1" stroke-miterlimit="2" stroke-width="1.5" stroke-dasharray=""/></g></g></g></g><g id="expressions-fca5caa4"><g id="sketch-fca5caa4"><title>Expression 99</title><path fill="#ffffff" stroke="none" class="dcg-svg-region" paint-order="stroke fill markers" d=" M 349.5 299.5 L 349.5 299.28999299971997 L 349.5 299.0799439910386 L 349.5 298.8698109319352 L 349.5 298.6595517130942 L 349.5 298.44912412411367 L 349.5 298.23848581954275 L 349.5 298.02759428468795 L 349.5 297.8164068011305 L 349.5 297.6048804118945 L 349.5 297.39297188620554 L 349.5 297.18063768377715 L 349.5 296.9678339185626 L 349.5 296.75451632190635 L 349.5 296.54064020502886 L 349.5 296.3261604207758 L 349.5 296.1110313245606 L 349.5 295.895206734427 L 349.5 295.6786398901558 L 349.5 295.4612834113359 L 349.5 295.24308925431785 L 349.5 295.02400866796444 L 349.5 294.8039921481076 L 349.5 294.5829893906192 L 349.5 294.36094924299624 L 349.5 294.1378196543583 L 349.5 293.9135476237484 L 349.5 293.6880791466243 L 349.5 293.46135915941846 L 349.5 293.23333148204193 L 349.5 293.00393875819793 L 349.5 292.77312239336356 L 349.5 292.5408224902911 L 349.5 292.3069777818692 L 349.5 292.0715255611784 L 349.5 291.83440160856105 L 349.5 291.59554011551745 L 349.5 291.35487360522717 L 349.5 291.11233284948224 L 349.5 290.8678467818035 L 349.5 290.6213424064986 L 349.5 290.3727447034023 L 349.5 290.12197652802354 L 349.5 289.8689585068033 L 349.5 289.61360892716993 L 349.5 289.35584362205185 L 349.5 289.0955758484895 L 349.5 288.83271615995744 L 349.5 288.56717227198357 L 349.5 288.29884892061875 L 349.5 288.02764771328043 L 349.5 287.7534669714562 L 349.5 287.476201564715 L 349.5 287.1957427354321 L 349.5 286.9119779135877 L 349.5 286.6247905209492 L 349.5 286.3340597638933 L 349.5 286.0396604140657 L 349.5 285.7414625760083 L 349.5 285.43933144081865 L 349.5 285.1331270248245 L 349.5 284.8227038921748 L 349.5 284.50791086015596 L 349.5 284.1885906859397 L 349.5 283.8645797333598 L 349.5 283.53570761819276 L 349.5 283.20179683028306 L 349.5 282.8626623307066 L 349.5 282.51811112200613 L 349.5 282.1679417893505 L 349.5 281.81194401027534 L 349.5 281.4498980304442 L 349.5 281.0815741026285 L 349.5 280.70673188583794 L 349.5 280.3251198012397 L 349.5 279.93647434117446 L 349.5 279.5405193272152 L 349.5 279.13696511280875 L 349.5 278.7255077255913 L 348.12576333113327 276.667684441511 L 345.18219009757115 272.7429201300949 L 342.29524559122933 268.89366078830574 L 339.4627501552822 265.11700020704296 L 336.6826269676304 261.41016929017394 L 333.9528958786516 257.77052783820216 L 331.27166768280176 254.19555691040236 L 328.63713878872153 250.68285171829532 L 326.04758625574914 247.23011500766557 L 323.5013631676611 243.83515089021478 L 320.9968943170792 240.4958590894389 L 318.5326721763476 237.21022956846343 L 316.1072531328044 233.97633751040584 L 313.71925396829346 230.79233862439128 L 311.3673485644942 227.6564647526589 L 309.05026481721177 224.56701975628235 L 306.7667817441908 221.52237565892108 L 304.5157267722987 218.52096902973162 L 302.2959731910908 215.56129758812108 L 300.106437760829 212.64191701443872 L 297.94607846398674 209.76143795198226 L 295.8138923901496 206.91852318686617 L 293.7089137450183 204.1118849933577 L 291.6302119749468 201.34028263326238 L 289.57688999911386 198.60251999881848 L 287.54808254202965 195.89744338937288 L 285.5429545596362 193.22393941284827 L 283.5606997527636 190.58093300368475 L 281.6005391621715 187.96738554956204 L 279.6617198398288 185.3822931197717 L 277.743513591474 182.82468478863203 L 275.84521578585964 180.2936210478129 L 273.96614422640965 177.78819230187958 L 272.1056380813238 175.307517441765 L 270.2630568684394 172.8507424912525 L 268.43777949141884 170.41703932189176 L 266.62920332406543 168.0056044320872 L 264.8367433397883 165.61565778638445 L 263.05983128343917 163.24644171125223 L 261.2979148829258 160.89721984390104 L 259.55045709818233 158.56727613090982 L 257.8169354052307 156.25591387364102 L 256.09684111321616 153.96245481762153 L 254.38967871243386 151.68623828324516 L 252.69496525149034 149.42662033532045 L 251.01222974185643 147.1829729891419 L 249.34101258817927 144.95468345090572 L 247.68086504281825 142.74115339042436 L 246.03134868316212 140.54179824421624 L 244.39203491037136 138.35604654716184 L 242.76250446826782 136.1833392910238 L 241.14234698116874 134.023129308225 L 239.53116050952858 131.87488067937142 L 237.92855112231777 129.73806816309036 L 236.33413248512554 127.61217664683403 L 234.747525463027 125.4967006173693 L 233.16835773730892 123.39114364974523 L 231.5962634351917 121.29501791358894 L 230.0308827717317 119.20784369564223 L 228.47186170312716 117.12914893750292 L 226.91885159068872 115.05846878758496 L 225.37150887477003 112.99534516636004 L 223.8294947579868 110.93932634398237 L 222.29247489708115 108.88996652944155 L 220.76011910281687 106.84682547042252 L 219.23210104731447 104.80946806308594 L 217.70809797826107 102.77746397101475 L 216.18779043944778 100.75038725259702 L 214.67086199710968 98.72781599614626 L 213.15699897155963 96.70933196207949 L 211.6458901736232 94.69452023149762 L 210.13722664539785 92.68296886053048 L 208.63070140487005 90.67426853982676 L 207.12600919393793 88.66801225858393 L 205.62284622939586 86.6637949725278 L 204.12090995644613 84.6612132752615 L 202.61989880431094 82.65986507241456 L 201.11951194352375 80.65934925803168 L 199.61944904448347 78.65926539264461 L 198.11941003686002 80.34078661752 L 196.6190948694405 82.34120684074605 L 195.11820327000828 84.34239563998898 L 193.61643450484587 86.3447539935388 L 192.11348713745247 88.34868381673004 L 190.60905878606403 90.35458828524798 L 189.1028458795606 92.36287216058588 L 187.59454341134136 94.37394211821152 L 186.08384469074022 96.38820707901306 L 184.57044109154964 98.40607854460046 L 183.05402179721048 100.42797093705269 L 181.5342735422161 102.45430194371187 L 180.01088034926792 104.48549286764273 L 178.4835232617063 106.5219689843916 L 176.95188007072719 108.56415990569707 L 175.41562503687865 110.61249995082846 L 173.8744286053142 112.66742852624776 L 172.3279571142603 114.72939051431962 L 170.7758724961354 116.79883667181946 L 169.21783197073393 118.87622403902145 L 167.65348772986422 120.96201636018105 L 166.08248661280305 123.05668451626258 L 164.50446977189833 125.16070697080221 L 162.9190723276225 127.27457022983663 L 161.3259230123416 129.39876931687786 L 159.72464380203124 131.53380826395835 L 158.11484953512814 133.68020061982918 L 156.49614751766447 135.8384699764474 L 154.86813711378448 138.009150514954 L 153.23040932069412 140.19278757240784 L 151.58254632703867 142.3899382306151 L 149.92412105364713 144.6011719284705 L 148.25469667551798 146.8270710993094 L 146.57382612385356 149.06823183486193 L 144.88105156687857 151.32526457749526 L 143.17590386809832 153.5987948425356 L 141.4579020205689 155.88946397257482 L 139.7265525556598 158.19792992578695 L 137.98134892469116 160.5248681004118 L 136.22177085172194 162.87097219770405 L 134.44728365565066 165.23695512579908 L 132.65733753966686 167.62354994711086 L 130.85136684595713 170.03151087205717 L 129.0287892734271 172.4616143020972 L 127.18900505604135 174.91465992527822 L 125.3313960992187 177.3914718677084 L 123.45532507153195 179.89289990462404 L 121.56013444876929 182.41982073497425 L 119.64514550719349 184.97313932374206 L 117.70965726260783 187.5537903165229 L 115.75294535157984 190.1627395312269 L 113.7742608509038 192.8009855321283 L 111.77282903108029 195.46956129189297 L 109.74784803927147 198.16953594763802 L 107.69848750683083 200.90201665755893 L 105.6238870761294 203.66815056516077 L 103.52315484097299 206.4691268787027 L 101.39536569445355 209.3061790740619 L 99.2395595775735 212.18058722990196 L 97.05473962143988 215.09368050474683 L 94.8398701752225 218.04683976637 L 92.5938747114236 221.04150038476854 L 90.31563359928091 224.07915520095878 L 88.0039817363505 227.16135768486598 L 85.65770602744277 230.28972529674297 L 83.27554269914617 233.46594306780509 L 80.85617443712356 236.6917674171686 L 78.39822733222385 239.96903022370154 L 75.90026762018114 243.29964317309182 L 73.36079819828295 246.68560240228936 L 70.77825490084373 250.12899346554167 L 68.15100251361547 253.6319966485127 L 65.4773305053833 257.196892659489 L 62.755448452897475 260.8260687294701 L 59.98348113297865 264.52202515602846 L 57.15946325304847 268.2873823292687 L 54.281333788478506 272.1248882820287 L 51.34692989194757 276.03742681073663 L 49.5 278.659226243524 L 49.5 279.0719713934445 L 49.5 279.47676357540604 L 49.5 279.87390912684305 L 49.5 280.2636999168584 L 49.5 280.6464142140022 L 49.5 281.02231749289706 L 49.5 281.39166318469495 L 49.499999999999964 281.7546933758964 L 49.50000000000002 282.1116394596447 L 49.5 282.4627227432448 L 49.5 282.80815501531674 L 49.5 283.1481390756988 L 49.5 283.4828692309412 L 49.499999999999964 283.8125317579882 L 49.5 284.137305338425 L 49.5 284.4573614654672 L 49.5 284.7728648256857 L 49.5 285.08397365729945 L 49.5 285.3908400867168 L 49.5 285.6936104448715 L 49.5 285.99242556477407 L 49.50000000000002 286.2874210615904 L 49.5 286.5787275964523 L 49.5 286.8664711251151 L 49.5 287.1507731324896 L 49.5 287.4317508539987 L 49.5 287.7095174846371 L 49.5 287.9841823765467 L 49.5 288.2558512258611 L 49.5 288.5246262495179 L 49.5 288.79060635268536 L 49.5 289.0538872874052 L 49.5 289.3145618030103 L 49.5 289.57271978883625 L 49.50000000000002 289.82844840971063 L 49.5 290.0818322346699 L 49.5 290.33295335932246 L 49.50000000000002 290.5818915222509 L 49.5 290.8287242158164 L 49.5 291.0735267917077 L 49.5 291.31637256155244 L 49.5 291.5573328928895 L 49.5 291.796477300781 L 49.5 292.0338735353253 L 49.5 292.2695876653165 L 49.5 292.5036841582799 L 49.5 292.73622595709924 L 49.5 292.96727455343944 L 49.5 293.1968900581547 L 49.5 293.4251312688623 L 49.5 293.652055734851 L 49.5 293.8777198194843 L 49.5 294.10217876024853 L 49.5 294.3254867265887 L 49.5 294.54769687566727 L 49.5 294.7688614061721 L 49.5 294.9890316102965 L 49.5 295.208257924004 L 49.5 295.4265899756896 L 49.5 295.6440766333383 L 49.5 295.8607660502829 L 49.5 296.0767057096535 L 49.50000000000002 296.29194246760926 L 49.5 296.5065225954402 L 49.5 296.7204918206194 L 49.5 296.9338953668883 L 49.5 297.1467779934488 L 49.5 297.35918403333767 L 49.5 297.5711574310546 L 49.5 297.78274177951204 L 49.50000000000002 297.99398035637495 L 49.5 298.20491615985503 L 49.5 298.41559194402294 L 49.5 298.62605025370164 L 49.50000000000002 298.8363334590005 L 49.50000000000002 299.0464837895509 L 49.5 299.2565433685021 L 49.5 299.4665542463355 L 49.5 299.6765584345551 L 49.5 299.8865979393124 L 49.5 300.096714795021 L 49.499999999999964 300.30695109802025 L 49.5 300.5173490403437 L 49.5 300.72795094365114 L 49.5 300.93879929338107 L 49.5 301.14993677318375 L 49.5 301.3614062996929 L 49.5 301.57325105769837 L 49.5 301.78551453577995 L 49.5 301.99824056246587 L 49.5 302.2114733429819 L 49.5 302.42525749665526 L 49.5 302.63963809504395 L 49.5 302.8546607008607 L 49.5 303.0703714077651 L 49.5 303.28681688109975 L 49.5 303.5040443996488 L 49.5 303.7221018985003 L 49.50000000000002 303.94103801309865 L 49.50000000000002 304.1609021245753 L 49.5 304.3817444064508 L 49.5 304.603615872806 L 49.5 304.82656842802487 L 49.5 305.0506549182159 L 49.5 305.2759291844248 L 49.5 305.5024461177584 L 49.5 305.7302617165447 L 49.499999999999964 305.9594331456614 L 49.5 306.19001879817245 L 49.50000000000002 306.4220783594222 L 49.5 306.655672873742 L 49.50000000000002 306.8908648139363 L 49.5 307.1277181537255 L 49.5 307.3662984433305 L 49.5 307.6066728884 L 49.5 307.8489104324914 L 49.499999999999964 308.0930818433303 L 49.5 308.3392598030896 L 49.5 308.58751900294305 L 49.5 308.8379362421681 L 49.5 309.0905905320879 L 49.5 309.3455632051663 L 49.5 309.6029380295882 L 49.5 309.862801329683 L 49.50000000000002 310.12524211257323 L 49.5 310.3903522014598 L 49.5 310.65822637598137 L 49.5 310.92896252012355 L 49.5 311.2026617781827 L 49.5 311.4794287193319 L 49.5 311.7593715113749 L 49.5 312.04260210432255 L 49.5 312.3292364244704 L 49.5 312.61939457971584 L 49.5 312.91320107690484 L 49.50000000000002 313.21078505206805 L 49.5 313.51228051447106 L 49.499999999999964 313.8178266054818 L 49.5 314.12756787334064 L 49.5 314.4416545650095 L 49.5 314.76024293637533 L 49.50000000000002 315.0834955821935 L 49.5 315.411581787277 L 49.5 315.74467790056565 L 49.5 316.08296773386 L 49.5 316.4266429871585 L 49.5 316.77590370271537 L 49.5 317.130958750131 L 49.5 317.4920263449977 L 49.5 317.85933460386383 L 49.5 318.2331221385393 L 49.5 318.61363869305603 L 49.5 319.0011458269211 L 49.5 319.3959176486537 L 49.5 319.79824160400153 L 49.5 320.20841932366847 L 50.400049207745845 319.2999343896722 L 53.35284982835737 315.3628668955235 L 56.248664650799554 311.50178046560063 L 59.08969030961563 307.71374625384584 L 61.878019580603805 303.99597389252824 L 64.61564761566129 300.3458031791183 L 67.30447773782579 296.7606963495656 L 69.9463268324075 293.23823089012336 L 72.54293036680724 289.77609284425705 L 75.09594706864175 286.37207057514433 L 77.60696328913677 283.0240489478176 L 80.07749707634375 279.73000389820834 L 82.50900198058187 276.48799735922415 L 84.90287061254807 273.2961725166026 L 87.26043797278572 270.152749369619 L 89.58298456960478 267.05602057386034 L 91.87173934111169 264.0043475451844 L 94.12788239569453 260.9961568057406 L 96.35254758413195 258.02993655449075 L 98.54682491541512 255.10423344611317 L 100.71176282739877 252.2176495634683 L 102.84837032250329 249.36883956999563 L 104.9576189778859 246.55650802948546 L 107.04044483875667 243.77940688165776 L 109.09775020284732 241.03633306287023 L 111.13040530341792 238.32612626210943 L 113.13924989763352 235.64766680315532 L 115.1250947666218 232.99987364450428 L 117.08872313305768 230.38170248925644 L 119.03089200168382 227.7921439977549 L 120.95233342778619 225.23022209628508 L 122.85375571827525 222.69499237563298 L 124.73584456969701 220.1855405737373 L 126.59926414718258 217.7009811370899 L 128.444658108071 215.24045585590534 L 130.27265057367683 212.80313256843087 L 132.08384705243387 210.38820393008817 L 133.87883531743074 207.99488624342567 L 135.65818624114385 205.62241834514157 L 137.42245458999247 203.2700605466767 L 139.1721797811624 200.93709362511677 L 140.90788660398863 198.62281786134852 L 142.63008590803463 196.3265521226205 L 144.3392752598744 194.04763298683417 L 146.03593957045135 191.7854139060649 L 147.72055169477642 189.5392644069648 L 149.3935730056129 187.3085693258495 L 151.05545394269996 185.09272807640008 L 152.70663453897026 182.8911539480397 L 154.34754492513315 180.7032734331558 L 155.97860581391072 178.52852558145236 L 157.6002289651439 176.36636137980813 L 159.2128176329125 174.21624315611666 L 160.8167669957537 172.0776440056617 L 162.41246457099766 169.95004723866975 L 164.0002906141898 167.83294584774694 L 165.58061850451304 165.72584199398264 L 167.15381511708085 163.6282465105589 L 168.72024118292103 161.53967842277197 L 170.28025163743584 159.45966448341886 L 171.83419595808215 157.38773872255712 L 173.38241849198062 155.3234420106925 L 174.92525877413317 153.26632163448912 L 176.4630518368931 151.21593088414258 L 177.9961285113091 149.17182865158782 L 179.52481572093578 147.13357903875232 L 181.04943676868268 145.1007509750898 L 182.5703116172484 143.0729178436688 L 184.0877571636705 141.04965711510602 L 185.60208750850097 139.03054998866537 L 187.11361422010418 137.0151810398611 L 188.62264659455494 135.0031378739268 L 190.12949191160484 132.99401078452684 L 191.63445568717196 130.98739241710405 L 193.1378419227993 128.9828774362676 L 194.63995335251636 126.9800621966449 L 196.14109168753342 124.97854441662213 L 197.64155785918953 122.97792285441392 L 199.14165226057227 120.97779698590364 L 200.64167498721974 122.02223331629295 L 202.1419260773176 124.02256810309012 L 203.6427057517973 126.0236076690631 L 205.14431465474678 128.02575287299567 L 206.6470540945396 130.0294054593861 L 208.15122628609694 132.0349683814626 L 209.6571345946951 134.04284612626014 L 211.1650837817384 136.05344504231783 L 212.67538025292347 138.0671736705646 L 214.1883323092252 140.08444307896696 L 215.7042504011462 142.10566720152826 L 217.22344738667832 144.13126318223775 L 218.74623879344 146.16165172458668 L 220.27294308546 148.19725744728 L 221.80388193509683 150.2385092467958 L 223.33938050059626 152.28584066746168 L 224.87976770980893 154.3396902797452 L 226.42537655060394 156.4005020674719 L 227.97654436854157 158.46872582472207 L 229.5336131723844 160.54481756317915 L 231.09692994805727 162.62923993074304 L 232.6668469816858 164.72246264224773 L 234.24372219237858 166.82496292317146 L 235.82791947544547 168.93722596726064 L 237.41980905678122 171.05974540904162 L 239.019767859176 173.19302381223469 L 240.62817988135978 175.33757317514633 L 242.24543659062314 177.49391545416424 L 243.87193732991184 179.6625831065491 L 245.50808974033086 181.8441196537745 L 247.15431020005852 184.0390802667447 L 248.8110242807199 186.24803237429316 L 250.47866722233508 188.47155629644678 L 252.15768442802536 190.71024590403383 L 253.84853197972714 192.96470930630284 L 255.55167717624767 195.23556956833022 L 257.2675990950745 197.52346546009932 L 258.99678917944567 199.82905223926093 L 260.73975185227926 202.1530024697056 L 262.4970051586703 204.49600687822706 L 264.2690814387748 206.8587752516997 L 266.05652803302195 209.24203737736258 L 267.85990802172785 211.64654402897045 L 269.6798010013273 214.0730680017697 L 271.51680389959375 216.5224051994583 L 273.371531832386 218.99537577651466 L 275.24461900463683 221.49282533951578 L 277.13671965849943 224.01562621133255 L 279.04850907177513 226.5646787623668 L 280.98068460998047 229.14091281330732 L 282.9339668356551 231.7452891142068 L 284.9091006787887 234.37880090505163 L 286.9068566725365 237.04247556338197 L 288.9280322587147 239.73737634495302 L 290.973453167914 242.46460422388532 L 293.0439748794495 245.225299839266 L 295.1404841667822 248.0206455557096 L 297.26390073449164 250.8518676459888 L 299.41517895338137 253.72023860450852 L 301.595309700828 256.627079601104 L 303.8053223140798 259.5737630854397 L 306.04628666485246 262.5617155531366 L 308.31931536427925 265.5924204857056 L 310.6255661080395 268.6674214773859 L 312.9662441723489 271.78832556313193 L 315.3426050724209 274.95680676322786 L 317.7559573960406 278.17460986138747 L 320.20766582601954 281.4435544346927 L 322.69915436654645 284.76553915539523 L 325.23190978982313 288.1425463864308 L 327.80748532089484 291.57664709452644 L 330.4275045802545 295.070006107006 L 333.09366580566564 298.6248877408875 L 335.8077463766992 302.2436618355989 L 338.5716076677682 305.928810223691 L 341.38720025797056 309.68293367729405 L 344.25656952887744 313.50875937183656 L 347.1818616845388 317.40914891271836 L 349.5 320.4072650964916 L 349.5 319.9932240248546 L 349.5 319.5871861068733 L 349.5 319.18884261635236 L 349.5 318.797899439639 L 349.5 318.41407619760986 L 349.5 318.0371054296531 L 349.5 317.66673183457954 L 349.5 317.3027115638663 L 349.5 316.9448115630519 L 349.5 316.5928089574838 L 349.5 316.24649047895036 L 349.5 315.90565193004323 L 349.5 315.5700976833628 L 349.5 315.23964021293426 L 349.5 314.914099655423 L 349.5 314.59330339894274 L 349.5 314.27708569743317 L 349.5 313.96528730875116 L 349.5 313.65775515477253 L 349.5 313.3543420019363 L 349.5 313.05490616079135 L 349.5 312.75931120321934 L 349.5 312.4674256961092 L 349.5 312.17912295035813 L 349.5 311.8942807841543 L 349.5 311.61278129958316 L 349.5 311.33451067166544 L 349.5 311.05935894900415 L 349.5 310.78721986527944 L 349.5 310.5179906608828 L 349.5 310.2515719140374 L 349.5 309.9878673807946 L 349.5 309.726783843342 L 349.5 309.4682309660978 L 349.5 309.21212115910225 L 349.5 308.95836944825123 L 349.5 308.70689335194766 L 349.5 308.4576127637755 L 349.5 308.2104498408267 L 349.5 307.96532889733777 L 349.5 307.7221763033118 L 349.5 307.48092038782704 L 349.5 307.2414913467479 L 349.5 307.0038211545765 L 349.5 306.7678434801945 L 349.5 306.533493606266 L 349.5 306.30070835208085 L 349.5 306.06942599963475 L 349.5 305.83958622275367 L 349.5 305.6111300190797 L 349.5 305.3839996447495 L 349.5 305.1581385516021 L 349.5 304.93349132676576 L 349.5 304.71000363447854 L 349.5 304.4876221600081 L 349.5 304.2662945555405 L 349.5 304.0459693879177 L 349.5 303.8265960881064 L 349.5 303.6081249022889 L 349.5 303.3905068444719 L 349.5 303.17369365051155 L 349.5 302.9576377334629 L 349.5 302.7422921401587 L 349.5 302.52761050893446 L 349.5 302.31354702841344 L 349.5 302.1000563972734 L 349.5 301.88709378491694 L 349.5 301.67461479297145 L 349.5 301.4625754175473 L 349.5 301.25093201218453 L 349.5 301.0396412514196 L 349.5 300.82866009490976 L 349.5 300.61794575204726 L 349.5 300.40745564700376 L 349.5 300.19714738414325 L 349.5 299.9869787137426 L 349.5 299.7769074979615 L 349.5 299.5668916770031 L 349.5 299.5" fill-opacity="1"/><path fill="#ffffff" stroke="none" paint-order="stroke fill markers" d="" fill-opacity="1"/><g><path fill="none" stroke="#ffffff" class="dcg-svg-curve" paint-order="fill stroke markers" d=" M 349.5 299.5 L 349.5 299.5 L 349.5 299.28999299971997 L 349.5 299.0799439910386 L 349.5 298.8698109319352 L 349.5 298.6595517130942 L 349.5 298.44912412411367 L 349.5 298.23848581954275 L 349.5 298.02759428468795 L 349.5 297.8164068011305 L 349.5 297.6048804118945 L 349.5 297.39297188620554 L 349.5 297.18063768377715 L 349.5 296.9678339185626 L 349.5 296.75451632190635 L 349.5 296.54064020502886 L 349.5 296.3261604207758 L 349.5 296.1110313245606 L 349.5 295.895206734427 L 349.5 295.6786398901558 L 349.5 295.4612834113359 L 349.5 295.24308925431785 L 349.5 295.02400866796444 L 349.5 294.8039921481076 L 349.5 294.5829893906192 L 349.5 294.36094924299624 L 349.5 294.1378196543583 L 349.5 293.9135476237484 L 349.5 293.6880791466243 L 349.5 293.46135915941846 L 349.5 293.23333148204193 L 349.5 293.00393875819793 L 349.5 292.77312239336356 L 349.5 292.5408224902911 L 349.5 292.3069777818692 L 349.5 292.0715255611784 L 349.5 291.83440160856105 L 349.5 291.59554011551745 L 349.5 291.35487360522717 L 349.5 291.11233284948224 L 349.5 290.8678467818035 L 349.5 290.6213424064986 L 349.5 290.3727447034023 L 349.5 290.12197652802354 L 349.5 289.8689585068033 L 349.5 289.61360892716993 L 349.5 289.35584362205185 L 349.5 289.0955758484895 L 349.5 288.83271615995744 L 349.5 288.56717227198357 L 349.5 288.29884892061875 L 349.5 288.02764771328043 L 349.5 287.7534669714562 L 349.5 287.476201564715 L 349.5 287.1957427354321 L 349.5 286.9119779135877 L 349.5 286.6247905209492 L 349.5 286.3340597638933 L 349.5 286.0396604140657 L 349.5 285.7414625760083 L 349.5 285.43933144081865 L 349.5 285.1331270248245 L 349.5 284.8227038921748 L 349.5 284.50791086015596 L 349.5 284.1885906859397 L 349.5 283.8645797333598 L 349.5 283.53570761819276 L 349.5 283.20179683028306 L 349.5 282.8626623307066 L 349.5 282.51811112200613 L 349.5 282.1679417893505 L 349.5 281.81194401027534 L 349.5 281.4498980304442 L 349.5 281.0815741026285 L 349.5 280.70673188583794 L 349.5 280.3251198012397 L 349.5 279.93647434117446 L 349.5 279.5405193272152 L 349.5 279.13696511280875 L 349.5 278.7255077255913 L 348.12576333113327 276.667684441511 L 345.18219009757115 272.7429201300949 L 342.29524559122933 268.89366078830574 L 339.4627501552822 265.11700020704296 L 336.6826269676304 261.41016929017394 L 333.9528958786516 257.77052783820216 L 331.27166768280176 254.19555691040236 L 328.63713878872153 250.68285171829532 L 326.04758625574914 247.23011500766557 L 323.5013631676611 243.83515089021478 L 320.9968943170792 240.4958590894389 L 318.5326721763476 237.21022956846343 L 316.1072531328044 233.97633751040584 L 313.71925396829346 230.79233862439128 L 311.3673485644942 227.6564647526589 L 309.05026481721177 224.56701975628235 L 306.7667817441908 221.52237565892108 L 304.5157267722987 218.52096902973162 L 302.2959731910908 215.56129758812108 L 300.106437760829 212.64191701443872 L 297.94607846398674 209.76143795198226 L 295.8138923901496 206.91852318686617 L 293.7089137450183 204.1118849933577 L 291.6302119749468 201.34028263326238 L 289.57688999911386 198.60251999881848 L 287.54808254202965 195.89744338937288 L 285.5429545596362 193.22393941284827 L 283.5606997527636 190.58093300368475 L 281.6005391621715 187.96738554956204 L 279.6617198398288 185.3822931197717 L 277.743513591474 182.82468478863203 L 275.84521578585964 180.2936210478129 L 273.96614422640965 177.78819230187958 L 272.1056380813238 175.307517441765 L 270.2630568684394 172.8507424912525 L 268.43777949141884 170.41703932189176 L 266.62920332406543 168.0056044320872 L 264.8367433397883 165.61565778638445 L 263.05983128343917 163.24644171125223 L 261.2979148829258 160.89721984390104 L 259.55045709818233 158.56727613090982 L 257.8169354052307 156.25591387364102 L 256.09684111321616 153.96245481762153 L 254.38967871243386 151.68623828324516 L 252.69496525149034 149.42662033532045 L 251.01222974185643 147.1829729891419 L 249.34101258817927 144.95468345090572 L 247.68086504281825 142.74115339042436 L 246.03134868316212 140.54179824421624 L 244.39203491037136 138.35604654716184 L 242.76250446826782 136.1833392910238 L 241.14234698116874 134.023129308225 L 239.53116050952858 131.87488067937142 L 237.92855112231777 129.73806816309036 L 236.33413248512554 127.61217664683403 L 234.747525463027 125.4967006173693 L 233.16835773730892 123.39114364974523 L 231.5962634351917 121.29501791358894 L 230.0308827717317 119.20784369564223 L 228.47186170312716 117.12914893750292 L 226.91885159068872 115.05846878758496 L 225.37150887477003 112.99534516636004 L 223.8294947579868 110.93932634398237 L 222.29247489708115 108.88996652944155 L 220.76011910281687 106.84682547042252 L 219.23210104731447 104.80946806308594 L 217.70809797826107 102.77746397101475 L 216.18779043944778 100.75038725259702 L 214.67086199710968 98.72781599614626 L 213.15699897155963 96.70933196207949 L 211.6458901736232 94.69452023149762 L 210.13722664539785 92.68296886053048 L 208.63070140487005 90.67426853982676 L 207.12600919393793 88.66801225858393 L 205.62284622939586 86.6637949725278 L 204.12090995644613 84.6612132752615 L 202.61989880431094 82.65986507241456 L 201.11951194352375 80.65934925803168 L 199.61944904448347 78.65926539264461 L 198.11941003686002 80.34078661752 L 196.6190948694405 82.34120684074605 L 195.11820327000828 84.34239563998898 L 193.61643450484587 86.3447539935388 L 192.11348713745247 88.34868381673004 L 190.60905878606403 90.35458828524798 L 189.1028458795606 92.36287216058588 L 187.59454341134136 94.37394211821152 L 186.08384469074022 96.38820707901306 L 184.57044109154964 98.40607854460046 L 183.05402179721048 100.42797093705269 L 181.5342735422161 102.45430194371187 L 180.01088034926792 104.48549286764273 L 178.4835232617063 106.5219689843916 L 176.95188007072719 108.56415990569707 L 175.41562503687865 110.61249995082846 L 173.8744286053142 112.66742852624776 L 172.3279571142603 114.72939051431962 L 170.7758724961354 116.79883667181946 L 169.21783197073393 118.87622403902145 L 167.65348772986422 120.96201636018105 L 166.08248661280305 123.05668451626258 L 164.50446977189833 125.16070697080221 L 162.9190723276225 127.27457022983663 L 161.3259230123416 129.39876931687786 L 159.72464380203124 131.53380826395835 L 158.11484953512814 133.68020061982918 L 156.49614751766447 135.8384699764474 L 154.86813711378448 138.009150514954 L 153.23040932069412 140.19278757240784 L 151.58254632703867 142.3899382306151 L 149.92412105364713 144.6011719284705 L 148.25469667551798 146.8270710993094 L 146.57382612385356 149.06823183486193 L 144.88105156687857 151.32526457749526 L 143.17590386809832 153.5987948425356 L 141.4579020205689 155.88946397257482 L 139.7265525556598 158.19792992578695 L 137.98134892469116 160.5248681004118 L 136.22177085172194 162.87097219770405 L 134.44728365565066 165.23695512579908 L 132.65733753966686 167.62354994711086 L 130.85136684595713 170.03151087205717 L 129.0287892734271 172.4616143020972 L 127.18900505604135 174.91465992527822 L 125.3313960992187 177.3914718677084 L 123.45532507153195 179.89289990462404 L 121.56013444876929 182.41982073497425 L 119.64514550719349 184.97313932374206 L 117.70965726260783 187.5537903165229 L 115.75294535157984 190.1627395312269 L 113.7742608509038 192.8009855321283 L 111.77282903108029 195.46956129189297 L 109.74784803927147 198.16953594763802 L 107.69848750683083 200.90201665755893 L 105.6238870761294 203.66815056516077 L 103.52315484097299 206.4691268787027 L 101.39536569445355 209.3061790740619 L 99.2395595775735 212.18058722990196 L 97.05473962143988 215.09368050474683 L 94.8398701752225 218.04683976637 L 92.5938747114236 221.04150038476854 L 90.31563359928091 224.07915520095878 L 88.0039817363505 227.16135768486598 L 85.65770602744277 230.28972529674297 L 83.27554269914617 233.46594306780509 L 80.85617443712356 236.6917674171686 L 78.39822733222385 239.96903022370154 L 75.90026762018114 243.29964317309182 L 73.36079819828295 246.68560240228936 L 70.77825490084373 250.12899346554167 L 68.15100251361547 253.6319966485127 L 65.4773305053833 257.196892659489 L 62.755448452897475 260.8260687294701 L 59.98348113297865 264.52202515602846 L 57.15946325304847 268.2873823292687 L 54.281333788478506 272.1248882820287 L 51.34692989194757 276.03742681073663 L 49.5 278.659226243524 L 49.5 279.0719713934445 L 49.5 279.47676357540604 L 49.5 279.87390912684305 L 49.5 280.2636999168584 L 49.5 280.6464142140022 L 49.5 281.02231749289706 L 49.5 281.39166318469495 L 49.499999999999964 281.7546933758964 L 49.50000000000002 282.1116394596447 L 49.5 282.4627227432448 L 49.5 282.80815501531674 L 49.5 283.1481390756988 L 49.5 283.4828692309412 L 49.499999999999964 283.8125317579882 L 49.5 284.137305338425 L 49.5 284.4573614654672 L 49.5 284.7728648256857 L 49.5 285.08397365729945 L 49.5 285.3908400867168 L 49.5 285.6936104448715 L 49.5 285.99242556477407 L 49.50000000000002 286.2874210615904 L 49.5 286.5787275964523 L 49.5 286.8664711251151 L 49.5 287.1507731324896 L 49.5 287.4317508539987 L 49.5 287.7095174846371 L 49.5 287.9841823765467 L 49.5 288.2558512258611 L 49.5 288.5246262495179 L 49.5 288.79060635268536 L 49.5 289.0538872874052 L 49.5 289.3145618030103 L 49.5 289.57271978883625 L 49.50000000000002 289.82844840971063 L 49.5 290.0818322346699 L 49.5 290.33295335932246 L 49.50000000000002 290.5818915222509 L 49.5 290.8287242158164 L 49.5 291.0735267917077 L 49.5 291.31637256155244 L 49.5 291.5573328928895 L 49.5 291.796477300781 L 49.5 292.0338735353253 L 49.5 292.2695876653165 L 49.5 292.5036841582799 L 49.5 292.73622595709924 L 49.5 292.96727455343944 L 49.5 293.1968900581547 L 49.5 293.4251312688623 L 49.5 293.652055734851 L 49.5 293.8777198194843 L 49.5 294.10217876024853 L 49.5 294.3254867265887 L 49.5 294.54769687566727 L 49.5 294.7688614061721 L 49.5 294.9890316102965 L 49.5 295.208257924004 L 49.5 295.4265899756896 L 49.5 295.6440766333383 L 49.5 295.8607660502829 L 49.5 296.0767057096535 L 49.50000000000002 296.29194246760926 L 49.5 296.5065225954402 L 49.5 296.7204918206194 L 49.5 296.9338953668883 L 49.5 297.1467779934488 L 49.5 297.35918403333767 L 49.5 297.5711574310546 L 49.5 297.78274177951204 L 49.50000000000002 297.99398035637495 L 49.5 298.20491615985503 L 49.5 298.41559194402294 L 49.5 298.62605025370164 L 49.50000000000002 298.8363334590005 L 49.50000000000002 299.0464837895509 L 49.5 299.2565433685021 L 49.5 299.4665542463355 L 49.5 299.6765584345551 L 49.5 299.8865979393124 L 49.5 300.096714795021 L 49.499999999999964 300.30695109802025 L 49.5 300.5173490403437 L 49.5 300.72795094365114 L 49.5 300.93879929338107 L 49.5 301.14993677318375 L 49.5 301.3614062996929 L 49.5 301.57325105769837 L 49.5 301.78551453577995 L 49.5 301.99824056246587 L 49.5 302.2114733429819 L 49.5 302.42525749665526 L 49.5 302.63963809504395 L 49.5 302.8546607008607 L 49.5 303.0703714077651 L 49.5 303.28681688109975 L 49.5 303.5040443996488 L 49.5 303.7221018985003 L 49.50000000000002 303.94103801309865 L 49.50000000000002 304.1609021245753 L 49.5 304.3817444064508 L 49.5 304.603615872806 L 49.5 304.82656842802487 L 49.5 305.0506549182159 L 49.5 305.2759291844248 L 49.5 305.5024461177584 L 49.5 305.7302617165447 L 49.499999999999964 305.9594331456614 L 49.5 306.19001879817245 L 49.50000000000002 306.4220783594222 L 49.5 306.655672873742 L 49.50000000000002 306.8908648139363 L 49.5 307.1277181537255 L 49.5 307.3662984433305 L 49.5 307.6066728884 L 49.5 307.8489104324914 L 49.499999999999964 308.0930818433303 L 49.5 308.3392598030896 L 49.5 308.58751900294305 L 49.5 308.8379362421681 L 49.5 309.0905905320879 L 49.5 309.3455632051663 L 49.5 309.6029380295882 L 49.5 309.862801329683 L 49.50000000000002 310.12524211257323 L 49.5 310.3903522014598 L 49.5 310.65822637598137 L 49.5 310.92896252012355 L 49.5 311.2026617781827 L 49.5 311.4794287193319 L 49.5 311.7593715113749 L 49.5 312.04260210432255 L 49.5 312.3292364244704 L 49.5 312.61939457971584 L 49.5 312.91320107690484 L 49.50000000000002 313.21078505206805 L 49.5 313.51228051447106 L 49.499999999999964 313.8178266054818 L 49.5 314.12756787334064 L 49.5 314.4416545650095 L 49.5 314.76024293637533 L 49.50000000000002 315.0834955821935 L 49.5 315.411581787277 L 49.5 315.74467790056565 L 49.5 316.08296773386 L 49.5 316.4266429871585 L 49.5 316.77590370271537 L 49.5 317.130958750131 L 49.5 317.4920263449977 L 49.5 317.85933460386383 L 49.5 318.2331221385393 L 49.5 318.61363869305603 L 49.5 319.0011458269211 L 49.5 319.3959176486537 L 49.5 319.79824160400153 L 49.5 320.20841932366847 L 50.400049207745845 319.2999343896722 L 53.35284982835737 315.3628668955235 L 56.248664650799554 311.50178046560063 L 59.08969030961563 307.71374625384584 L 61.878019580603805 303.99597389252824 L 64.61564761566129 300.3458031791183 L 67.30447773782579 296.7606963495656 L 69.9463268324075 293.23823089012336 L 72.54293036680724 289.77609284425705 L 75.09594706864175 286.37207057514433 L 77.60696328913677 283.0240489478176 L 80.07749707634375 279.73000389820834 L 82.50900198058187 276.48799735922415 L 84.90287061254807 273.2961725166026 L 87.26043797278572 270.152749369619 L 89.58298456960478 267.05602057386034 L 91.87173934111169 264.0043475451844 L 94.12788239569453 260.9961568057406 L 96.35254758413195 258.02993655449075 L 98.54682491541512 255.10423344611317 L 100.71176282739877 252.2176495634683 L 102.84837032250329 249.36883956999563 L 104.9576189778859 246.55650802948546 L 107.04044483875667 243.77940688165776 L 109.09775020284732 241.03633306287023 L 111.13040530341792 238.32612626210943 L 113.13924989763352 235.64766680315532 L 115.1250947666218 232.99987364450428 L 117.08872313305768 230.38170248925644 L 119.03089200168382 227.7921439977549 L 120.95233342778619 225.23022209628508 L 122.85375571827525 222.69499237563298 L 124.73584456969701 220.1855405737373 L 126.59926414718258 217.7009811370899 L 128.444658108071 215.24045585590534 L 130.27265057367683 212.80313256843087 L 132.08384705243387 210.38820393008817 L 133.87883531743074 207.99488624342567 L 135.65818624114385 205.62241834514157 L 137.42245458999247 203.2700605466767 L 139.1721797811624 200.93709362511677 L 140.90788660398863 198.62281786134852 L 142.63008590803463 196.3265521226205 L 144.3392752598744 194.04763298683417 L 146.03593957045135 191.7854139060649 L 147.72055169477642 189.5392644069648 L 149.3935730056129 187.3085693258495 L 151.05545394269996 185.09272807640008 L 152.70663453897026 182.8911539480397 L 154.34754492513315 180.7032734331558 L 155.97860581391072 178.52852558145236 L 157.6002289651439 176.36636137980813 L 159.2128176329125 174.21624315611666 L 160.8167669957537 172.0776440056617 L 162.41246457099766 169.95004723866975 L 164.0002906141898 167.83294584774694 L 165.58061850451304 165.72584199398264 L 167.15381511708085 163.6282465105589 L 168.72024118292103 161.53967842277197 L 170.28025163743584 159.45966448341886 L 171.83419595808215 157.38773872255712 L 173.38241849198062 155.3234420106925 L 174.92525877413317 153.26632163448912 L 176.4630518368931 151.21593088414258 L 177.9961285113091 149.17182865158782 L 179.52481572093578 147.13357903875232 L 181.04943676868268 145.1007509750898 L 182.5703116172484 143.0729178436688 L 184.0877571636705 141.04965711510602 L 185.60208750850097 139.03054998866537 L 187.11361422010418 137.0151810398611 L 188.62264659455494 135.0031378739268 L 190.12949191160484 132.99401078452684 L 191.63445568717196 130.98739241710405 L 193.1378419227993 128.9828774362676 L 194.63995335251636 126.9800621966449 L 196.14109168753342 124.97854441662213 L 197.64155785918953 122.97792285441392 L 199.14165226057227 120.97779698590364 L 200.64167498721974 122.02223331629295 L 202.1419260773176 124.02256810309012 L 203.6427057517973 126.0236076690631 L 205.14431465474678 128.02575287299567 L 206.6470540945396 130.0294054593861 L 208.15122628609694 132.0349683814626 L 209.6571345946951 134.04284612626014 L 211.1650837817384 136.05344504231783 L 212.67538025292347 138.0671736705646 L 214.1883323092252 140.08444307896696 L 215.7042504011462 142.10566720152826 L 217.22344738667832 144.13126318223775 L 218.74623879344 146.16165172458668 L 220.27294308546 148.19725744728 L 221.80388193509683 150.2385092467958 L 223.33938050059626 152.28584066746168 L 224.87976770980893 154.3396902797452 L 226.42537655060394 156.4005020674719 L 227.97654436854157 158.46872582472207 L 229.5336131723844 160.54481756317915 L 231.09692994805727 162.62923993074304 L 232.6668469816858 164.72246264224773 L 234.24372219237858 166.82496292317146 L 235.82791947544547 168.93722596726064 L 237.41980905678122 171.05974540904162 L 239.019767859176 173.19302381223469 L 240.62817988135978 175.33757317514633 L 242.24543659062314 177.49391545416424 L 243.87193732991184 179.6625831065491 L 245.50808974033086 181.8441196537745 L 247.15431020005852 184.0390802667447 L 248.8110242807199 186.24803237429316 L 250.47866722233508 188.47155629644678 L 252.15768442802536 190.71024590403383 L 253.84853197972714 192.96470930630284 L 255.55167717624767 195.23556956833022 L 257.2675990950745 197.52346546009932 L 258.99678917944567 199.82905223926093 L 260.73975185227926 202.1530024697056 L 262.4970051586703 204.49600687822706 L 264.2690814387748 206.8587752516997 L 266.05652803302195 209.24203737736258 L 267.85990802172785 211.64654402897045 L 269.6798010013273 214.0730680017697 L 271.51680389959375 216.5224051994583 L 273.371531832386 218.99537577651466 L 275.24461900463683 221.49282533951578 L 277.13671965849943 224.01562621133255 L 279.04850907177513 226.5646787623668 L 280.98068460998047 229.14091281330732 L 282.9339668356551 231.7452891142068 L 284.9091006787887 234.37880090505163 L 286.9068566725365 237.04247556338197 L 288.9280322587147 239.73737634495302 L 290.973453167914 242.46460422388532 L 293.0439748794495 245.225299839266 L 295.1404841667822 248.0206455557096 L 297.26390073449164 250.8518676459888 L 299.41517895338137 253.72023860450852 L 301.595309700828 256.627079601104 L 303.8053223140798 259.5737630854397 L 306.04628666485246 262.5617155531366 L 308.31931536427925 265.5924204857056 L 310.6255661080395 268.6674214773859 L 312.9662441723489 271.78832556313193 L 315.3426050724209 274.95680676322786 L 317.7559573960406 278.17460986138747 L 320.20766582601954 281.4435544346927 L 322.69915436654645 284.76553915539523 L 325.23190978982313 288.1425463864308 L 327.80748532089484 291.57664709452644 L 330.4275045802545 295.070006107006 L 333.09366580566564 298.6248877408875 L 335.8077463766992 302.2436618355989 L 338.5716076677682 305.928810223691 L 341.38720025797056 309.68293367729405 L 344.25656952887744 313.50875937183656 L 347.1818616845388 317.40914891271836 L 349.5 320.4072650964916 L 349.5 319.9932240248546 L 349.5 319.5871861068733 L 349.5 319.18884261635236 L 349.5 318.797899439639 L 349.5 318.41407619760986 L 349.5 318.0371054296531 L 349.5 317.66673183457954 L 349.5 317.3027115638663 L 349.5 316.9448115630519 L 349.5 316.5928089574838 L 349.5 316.24649047895036 L 349.5 315.90565193004323 L 349.5 315.5700976833628 L 349.5 315.23964021293426 L 349.5 314.914099655423 L 349.5 314.59330339894274 L 349.5 314.27708569743317 L 349.5 313.96528730875116 L 349.5 313.65775515477253 L 349.5 313.3543420019363 L 349.5 313.05490616079135 L 349.5 312.75931120321934 L 349.5 312.4674256961092 L 349.5 312.17912295035813 L 349.5 311.8942807841543 L 349.5 311.61278129958316 L 349.5 311.33451067166544 L 349.5 311.05935894900415 L 349.5 310.78721986527944 L 349.5 310.5179906608828 L 349.5 310.2515719140374 L 349.5 309.9878673807946 L 349.5 309.726783843342 L 349.5 309.4682309660978 L 349.5 309.21212115910225 L 349.5 308.95836944825123 L 349.5 308.70689335194766 L 349.5 308.4576127637755 L 349.5 308.2104498408267 L 349.5 307.96532889733777 L 349.5 307.7221763033118 L 349.5 307.48092038782704 L 349.5 307.2414913467479 L 349.5 307.0038211545765 L 349.5 306.7678434801945 L 349.5 306.533493606266 L 349.5 306.30070835208085 L 349.5 306.06942599963475 L 349.5 305.83958622275367 L 349.5 305.6111300190797 L 349.5 305.3839996447495 L 349.5 305.1581385516021 L 349.5 304.93349132676576 L 349.5 304.71000363447854 L 349.5 304.4876221600081 L 349.5 304.2662945555405 L 349.5 304.0459693879177 L 349.5 303.8265960881064 L 349.5 303.6081249022889 L 349.5 303.3905068444719 L 349.5 303.17369365051155 L 349.5 302.9576377334629 L 349.5 302.7422921401587 L 349.5 302.52761050893446 L 349.5 302.31354702841344 L 349.5 302.1000563972734 L 349.5 301.88709378491694 L 349.5 301.67461479297145 L 349.5 301.4625754175473 L 349.5 301.25093201218453 L 349.5 301.0396412514196 L 349.5 300.82866009490976 L 349.5 300.61794575204726 L 349.5 300.40745564700376 L 349.5 300.19714738414325 L 349.5 299.9869787137426 L 349.5 299.7769074979615 L 349.5 299.5668916770031 L 349.5 299.5" stroke-linecap="round" stroke-linejoin="round" stroke-miterlimit="10" stroke-width="2.5" stroke-opacity="1" stroke-dasharray=""/></g></g></g><g id="labels-fca5caa4"/></g></svg>