<svg version="1.1" xmlns="http://www.w3.org/2000/svg" xmlns:xlink="http://www.w3.org/1999/xlink" width="800" height="800"><defs/><g transform="scale(2,2)"><g id="background-089d9a2b"></g><g id="background-images-089d9a2b"/><g id="graphpaper-089d9a2b"><g id="axis-089d9a2b"><g><g><path fill="none" stroke="rgb(0,0,0)" class="dcg-svg-tickmark" paint-order="fill stroke markers" d="" stroke-opacity="1" stroke-miterlimit="2" stroke-width="1.5" stroke-dasharray=""/></g></g></g></g><g id="expressions-089d9a2b"><g id="sketch-089d9a2b"><title>Expression 99</title><path fill="#ffffff" stroke="none" class="dcg-svg-region" paint-order="stroke fill markers" d=" M 349.5 299.5 L 349.5 299.2519917330027 L 349.5 299.0039338560836 L 349.5 298.7557767196187 L 349.5 298.50747059451123 L 349.5 298.2589656322866 L 349.5 298.0102118249838 L 349.5 297.7611589647743 L 349.5 297.5117566032398 L 349.5 297.26195401023733 L 349.5 297.01170013228085 L 349.5 296.76094355036537 L 349.5 296.50963243715967 L 349.5 296.2577145134894 L 349.5 296.0051370040341 L 349.5 295.75184659215427 L 349.5 295.49778937376675 L 349.5 295.2429108101805 L 349.5 294.9871556798031 L 349.5 294.7304680286253 L 349.5 294.4727911193849 L 349.5 294.2140673793104 L 349.5 293.95423834633664 L 349.5 293.69324461368365 L 349.5 293.43102577268127 L 349.5 293.1675203537183 L 349.5 292.9026657651886 L 349.5 292.6363982302993 L 349.5 292.36865272159895 L 349.5 292.0993628930781 L 349.5 291.82846100968135 L 349.5 291.5558778740675 L 349.5 291.281542750439 L 349.5 291.00538328525505 L 349.5 290.7273254246298 L 349.5 290.4472933282055 L 349.5 290.16520927927775 L 349.5 289.88099359093496 L 349.5 289.59456450796 L 349.5 289.30583810422513 L 349.5 289.0147281752936 L 349.5 288.7211461259227 L 349.5 288.42500085214203 L 349.5 288.1261986175582 L 349.5 287.824642923515 L 349.5 287.52023437270884 L 349.5 287.21287052583517 L 349.5 286.9024457508069 L 349.5 286.5888510640568 L 349.5 286.2719739633974 L 349.5 285.951698251874 L 349.5 285.6279038520054 L 349.5 285.3004666097586 L 349.5 284.96925808755793 L 349.5 284.63414534557023 L 349.5 284.2949907104543 L 349.5 283.9516515306931 L 349.5 283.6039799175634 L 349.5 283.2518224707146 L 349.5 282.89501998725257 L 349.5 282.53340715312606 L 349.5 282.16681221552074 L 349.5 281.7950566348508 L 349.5 281.41795471482396 L 349.5 281.0353132089201 L 349.5 280.6469309014848 L 349.5 280.2525981614772 L 349.5 279.8520964667392 L 349.5 279.4451978964644 L 349.5 279.03166458932816 L 349.5 278.61124816451564 L 349.5 278.18368910261984 L 349.5 277.7487160831041 L 349.5 277.3060452747038 L 349.5 276.8553795747973 L 349.5 276.39640779338697 L 349.5 275.9288037769017 L 349.5 275.45222546655503 L 349.5 274.9663138854602 L 348.12576333113327 272.867684441511 L 345.18219009757115 268.9429201300949 L 342.29524559122933 265.0936607883057 L 339.4627501552822 261.31700020704295 L 336.6826269676304 257.61016929017387 L 333.9528958786516 253.9705278382021 L 331.27166768280176 250.39555691040238 L 328.63713878872153 246.88285171829534 L 326.04758625574914 243.43011500766556 L 323.5013631676611 240.03515089021477 L 320.9968943170792 236.69585908943887 L 318.5326721763476 233.41022956846345 L 316.1072531328044 230.1763375104058 L 313.71925396829346 226.99233862439127 L 311.3673485644942 223.8564647526589 L 309.05026481721177 220.7670197562823 L 306.7667817441908 217.72237565892104 L 304.5157267722987 214.72096902973163 L 302.2959731910908 211.76129758812107 L 300.106437760829 208.84191701443874 L 297.94607846398674 205.96143795198225 L 295.8138923901496 203.11852318686618 L 293.7089137450183 200.31188499335775 L 291.6302119749468 197.54028263326234 L 289.57688999911386 194.80251999881844 L 287.54808254202965 192.0974433893729 L 285.5429545596362 189.42393941284826 L 283.5606997527636 186.78093300368477 L 281.6005391621715 184.16738554956203 L 279.6617198398288 181.5822931197717 L 277.743513591474 179.024684788632 L 275.84521578585964 176.49362104781287 L 273.96614422640965 173.9881923018796 L 272.1056380813238 171.50751744176497 L 270.2630568684394 169.0507424912525 L 268.43777949141884 166.61703932189178 L 266.62920332406543 164.20560443208723 L 264.8367433397883 161.81565778638446 L 263.05983128343917 159.44644171125225 L 261.2979148829258 157.09721984390103 L 259.55045709818233 154.76727613090978 L 257.8169354052307 152.45591387364098 L 256.09684111321616 150.1624548176215 L 254.38967871243386 147.88623828324512 L 252.69496525149034 145.62662033532047 L 251.01222974185643 143.38297298914188 L 249.34101258817927 141.15468345090568 L 247.68086504281825 138.94115339042435 L 246.03134868316212 136.74179824421617 L 244.39203491037136 134.55604654716183 L 242.76250446826782 132.3833392910238 L 241.14234698116874 130.223129308225 L 239.53116050952858 128.07488067937146 L 237.92855112231777 125.9380681630904 L 236.33413248512554 123.81217664683396 L 234.747525463027 121.69670061736929 L 233.16835773730892 119.59114364974522 L 231.5962634351917 117.49501791358892 L 230.0308827717317 115.40784369564221 L 228.47186170312716 113.32914893750291 L 226.91885159068872 111.25846878758495 L 225.37150887477003 109.19534516635997 L 223.8294947579868 107.13932634398242 L 222.29247489708115 105.08996652944154 L 220.76011910281687 103.04682547042245 L 219.23210104731447 101.00946806308593 L 217.70809797826107 98.97746397101474 L 216.18779043944778 96.95038725259701 L 214.67086199710968 94.92781599614625 L 213.15699897155963 92.90933196207948 L 211.6458901736232 90.89452023149761 L 210.13722664539785 88.88296886053047 L 208.63070140487005 86.87426853982669 L 207.12600919393793 84.86801225858392 L 205.62284622939586 82.86379497252784 L 204.12090995644613 80.86121327526149 L 202.61989880431094 78.8598650724146 L 201.11951194352375 76.85934925803167 L 199.61944904448347 74.85926539264466 L 198.11941003686002 76.54078661751998 L 196.6190948694405 78.54120684074599 L 195.11820327000828 80.54239563998902 L 193.61643450484587 82.54475399353885 L 192.11348713745247 84.54868381673003 L 190.60905878606403 86.55458828524797 L 189.1028458795606 88.56287216058593 L 187.59454341134136 90.57394211821156 L 186.08384469074022 92.58820707901305 L 184.57044109154964 94.60607854460045 L 183.05402179721048 96.62797093705268 L 181.5342735422161 98.65430194371186 L 180.01088034926792 100.68549286764278 L 178.4835232617063 102.7219689843916 L 176.95188007072719 104.76415990569706 L 175.41562503687865 106.81249995082851 L 173.8744286053142 108.86742852624775 L 172.3279571142603 110.9293905143196 L 170.7758724961354 112.99883667181945 L 169.21783197073393 115.07622403902144 L 167.65348772986422 117.16201636018098 L 166.08248661280305 119.25668451626262 L 164.50446977189833 121.3607069708022 L 162.9190723276225 123.47457022983667 L 161.3259230123416 125.59876931687785 L 159.72464380203124 127.73380826395834 L 158.11484953512814 129.88020061982917 L 156.49614751766447 132.03846997644735 L 154.86813711378448 134.209150514954 L 153.23040932069412 136.39278757240783 L 151.58254632703867 138.58993823061513 L 149.92412105364713 140.80117192847047 L 148.25469667551798 143.02707109930935 L 146.57382612385356 145.26823183486195 L 144.88105156687857 147.52526457749528 L 143.17590386809832 149.7987948425356 L 141.4579020205689 152.0894639725748 L 139.7265525556598 154.3979299257869 L 137.98134892469116 156.7248681004118 L 136.22177085172194 159.07097219770407 L 134.44728365565066 161.4369551257991 L 132.65733753966686 163.82354994711088 L 130.85136684595713 166.23151087205716 L 129.0287892734271 168.6616143020972 L 127.18900505604135 171.11465992527818 L 125.3313960992187 173.5914718677084 L 123.45532507153195 176.09289990462406 L 121.56013444876929 178.61982073497427 L 119.64514550719349 181.17313932374202 L 117.70965726260783 183.7537903165229 L 115.75294535157984 186.3627395312269 L 113.7742608509038 189.0009855321283 L 111.77282903108029 191.66956129189296 L 109.74784803927147 194.369535947638 L 107.69848750683083 197.1020166575589 L 105.6238870761294 199.8681505651608 L 103.52315484097299 202.66912687870268 L 101.39536569445355 205.50617907406195 L 99.2395595775735 208.380587229902 L 97.05473962143988 211.29368050474682 L 94.8398701752225 214.24683976637002 L 92.5938747114236 217.24150038476856 L 90.31563359928091 220.27915520095877 L 88.0039817363505 223.361357684866 L 85.65770602744277 226.48972529674296 L 83.27554269914617 229.6659430678051 L 80.85617443712356 232.8917674171686 L 78.39822733222385 236.16903022370153 L 75.90026762018114 239.49964317309184 L 73.36079819828295 242.88560240228938 L 70.77825490084373 246.32899346554166 L 68.15100251361547 249.8319966485127 L 65.4773305053833 253.39689265948894 L 62.755448452897475 257.02606872947 L 59.98348113297865 260.72202515602845 L 57.15946325304847 264.4873823292687 L 54.281333788478506 268.3248882820287 L 51.34692989194757 272.23742681073657 L 49.5 274.88803861139974 L 49.5 275.375470978925 L 49.5 275.85351127000325 L 49.5 276.32252125455744 L 49.5 276.7828456160994 L 49.5 277.23481297653603 L 49.5 277.67873684875457 L 49.5 278.1149165228779 L 49.499999999999964 278.5436378915348 L 49.50000000000002 278.965174219009 L 49.5 279.37978685868904 L 49.5 279.7877259228502 L 49.5 280.1892309084443 L 49.5 280.5845312822544 L 49.499999999999964 280.97384702848126 L 49.5 281.35738916156856 L 49.5 281.73536020683747 L 49.5 282.107954651286 L 49.5 282.47535936671557 L 49.5 282.83775400717036 L 49.5 283.1953113825149 L 49.5 283.5481978098285 L 49.50000000000002 283.89657344416395 L 49.5 284.24059259009607 L 49.5 284.580403995374 L 49.5 284.9161511278924 L 49.5 285.2479724371032 L 49.5 285.5760016009048 L 49.5 285.9003677589694 L 49.5 286.22119573339785 L 49.5 286.53860623752587 L 49.5 286.85271607364746 L 49.5 287.1636383203642 L 49.5 287.4714825102217 L 49.5 287.77635479824465 L 49.50000000000002 288.078358121944 L 49.5 288.3775923533244 L 49.5 288.6741544433903 L 49.50000000000002 288.96813855961057 L 49.5 289.2596362167737 L 49.5 289.5487364016358 L 49.5 289.8355256917381 L 49.5 290.12008836874566 L 49.5 290.4025065266366 L 49.5 290.68286017505085 L 49.5 290.9612273380881 L 49.5 291.2376841488258 L 49.5 291.51230493981245 L 49.5 291.7851623297761 L 49.5 292.05632730677314 L 49.5 292.3258693079897 L 49.5 292.5938562963955 L 49.5 292.86035483443857 L 49.5 293.1254301549601 L 49.5 293.3891462294952 L 49.5 293.65156583412136 L 49.5 293.91275061300325 L 49.5 294.1727611397787 L 49.5 294.43165697691904 L 49.5 294.68949673319526 L 49.5 294.94633811937086 L 49.5 295.20223800223886 L 49.5 295.4572524571146 L 49.50000000000002 295.71143681889095 L 49.5 295.9648457317579 L 49.5 296.21753319768385 L 49.5 296.46955262375377 L 49.5 296.72095686845375 L 49.5 296.9717982869892 L 49.5 297.22212877572156 L 49.5 297.4719998158047 L 49.50000000000002 297.7214625160999 L 49.5 297.97056765544784 L 49.5 298.21936572436994 L 49.5 298.46790696627625 L 49.50000000000002 298.7162414182482 L 49.50000000000002 298.96441895146967 L 49.5 299.21248931137393 L 49.5 299.4605021575771 L 49.5 299.70850710366506 L 49.5 299.9565537569023 L 49.5 300.20469175792954 L 49.499999999999964 300.45297082051917 L 49.5 300.7014407714535 L 49.5 300.95015159059756 L 49.5 301.19915345123104 L 49.5 301.44849676071226 L 49.5 301.6982322015421 L 49.5 301.94841077290096 L 49.5 302.1990838327306 L 49.5 302.45030314043595 L 49.5 302.7021209002834 L 49.5 302.95458980557385 L 49.5 303.20776308367095 L 49.5 303.46169454196877 L 49.5 303.7164386148845 L 49.5 303.9720504119654 L 49.5 304.2285857672043 L 49.5 304.4861012896575 L 49.50000000000002 304.7446544154689 L 49.50000000000002 305.0043034614032 L 49.5 305.265107679999 L 49.5 305.5271273164566 L 49.5 305.7904236673818 L 49.5 306.0550591415121 L 49.5 306.3210973225588 L 49.5 306.5886030343051 L 49.5 306.85764240810994 L 49.499999999999964 307.1282829529716 L 49.5 307.40059362831795 L 49.50000000000002 307.6746449196986 L 49.5 307.95050891756193 L 49.50000000000002 308.2282593993152 L 49.5 308.50797191487584 L 49.5 308.7897238759332 L 49.5 309.07359464915805 L 49.5 309.35966565360883 L 49.499999999999964 309.6480204625996 L 49.5 309.9387449103153 L 49.5 310.2319272034756 L 49.5 310.52765803836996 L 49.5 310.8260307236086 L 49.5 311.12714130895836 L 49.5 311.4310887206566 L 49.5 311.7379749036256 L 49.50000000000002 312.0479049710389 L 49.5 312.3609873617239 L 49.5 312.67733400592084 L 49.5 312.9970604999554 L 49.5 313.3202862904253 L 49.5 313.6471348685443 L 49.5 313.97773397533797 L 49.5 314.312215818438 L 49.5 314.6507173012793 L 49.5 314.99338026556916 L 49.5 315.34035174796384 L 49.50000000000002 315.69178425196606 L 49.5 316.0478360361372 L 49.499999999999964 316.4086714198071 L 49.5 316.7744611075642 L 49.5 317.14538253391606 L 49.5 317.5216202296242 L 49.50000000000002 317.90336621135236 L 49.5 318.2908203964033 L 49.5 318.68419104447753 L 49.5 319.08369522855855 L 49.5 319.4895593372157 L 49.5 319.9020196108258 L 49.5 320.32132271444044 L 49.5 320.747726350283 L 49.5 321.1814999131344 L 49.5 321.6229251921797 L 49.5 322.0722971232281 L 49.5 322.52992459560204 L 49.5 322.99613131841016 L 49.5 323.4712567513923 L 49.5 323.9556571060466 L 50.400049207745845 323.0999343896722 L 53.35284982835737 319.1628668955235 L 56.248664650799554 315.3017804656006 L 59.08969030961563 311.51374625384585 L 61.878019580603805 307.79597389252825 L 64.61564761566129 304.1458031791183 L 67.30447773782579 300.56069634956566 L 69.9463268324075 297.0382308901234 L 72.54293036680724 293.576092844257 L 75.09594706864175 290.17207057514435 L 77.60696328913677 286.82404894781763 L 80.07749707634375 283.53000389820835 L 82.50900198058187 280.28799735922416 L 84.90287061254807 277.09617251660256 L 87.26043797278572 273.952749369619 L 89.58298456960478 270.8560205738603 L 91.87173934111169 267.80434754518444 L 94.12788239569453 264.7961568057406 L 96.35254758413195 261.8299365544907 L 98.54682491541512 258.90423344611315 L 100.71176282739877 256.01764956346835 L 102.84837032250329 253.1688395699956 L 104.9576189778859 250.35650802948547 L 107.04044483875667 247.57940688165777 L 109.09775020284732 244.83633306287024 L 111.13040530341792 242.12612626210944 L 113.13924989763352 239.4476668031553 L 115.1250947666218 236.79987364450426 L 117.08872313305768 234.18170248925645 L 119.03089200168382 231.59214399775487 L 120.95233342778619 229.0302220962851 L 122.85375571827525 226.494992375633 L 124.73584456969701 223.9855405737373 L 126.59926414718258 221.5009811370899 L 128.444658108071 219.04045585590535 L 130.27265057367683 216.60313256843088 L 132.08384705243387 214.18820393008815 L 133.87883531743074 211.79488624342568 L 135.65818624114385 209.42241834514155 L 137.42245458999247 207.0700605466767 L 139.1721797811624 204.73709362511678 L 140.90788660398863 202.4228178613485 L 142.63008590803463 200.1265521226205 L 144.3392752598744 197.84763298683416 L 146.03593957045135 195.58541390606487 L 147.72055169477642 193.3392644069648 L 149.3935730056129 191.1085693258495 L 151.05545394269996 188.89272807640006 L 152.70663453897026 186.6911539480396 L 154.34754492513315 184.50327343315578 L 155.97860581391072 182.32852558145234 L 157.6002289651439 180.1663613798081 L 159.2128176329125 178.01624315611662 L 160.8167669957537 175.8776440056617 L 162.41246457099766 173.75004723866974 L 164.0002906141898 171.63294584774692 L 165.58061850451304 169.52584199398262 L 167.15381511708085 167.4282465105589 L 168.72024118292103 165.33967842277198 L 170.28025163743584 163.2596644834189 L 171.83419595808215 161.18773872255713 L 173.38241849198062 159.12344201069251 L 174.92525877413317 157.0663216344891 L 176.4630518368931 155.0159308841425 L 177.9961285113091 152.97182865158783 L 179.52481572093578 150.9335790387523 L 181.04943676868268 148.90075097508975 L 182.5703116172484 146.8729178436688 L 184.0877571636705 144.84965711510603 L 185.60208750850097 142.83054998866538 L 187.11361422010418 140.81518103986105 L 188.62264659455494 138.8031378739268 L 190.12949191160484 136.79401078452685 L 191.63445568717196 134.787392417104 L 193.1378419227993 132.78287743626754 L 194.63995335251636 130.78006219664485 L 196.14109168753342 128.77854441662208 L 197.64155785918953 126.77792285441393 L 199.14165226057227 124.77779698590365 L 200.64167498721974 125.82223331629302 L 202.1419260773176 127.82256810309019 L 203.6427057517973 129.8236076690631 L 205.14431465474678 131.82575287299568 L 206.6470540945396 133.82940545938612 L 208.15122628609694 135.83496838146255 L 209.6571345946951 137.84284612626016 L 211.1650837817384 139.8534450423179 L 212.67538025292347 141.86717367056463 L 214.1883323092252 143.8844430789669 L 215.7042504011462 145.90566720152827 L 217.22344738667832 147.93126318223776 L 218.74623879344 149.9616517245867 L 220.27294308546 151.99725744728 L 221.80388193509683 154.03850924679574 L 223.33938050059626 156.0858406674617 L 224.87976770980893 158.13969027974525 L 226.42537655060394 160.2005020674719 L 227.97654436854157 162.26872582472208 L 229.5336131723844 164.3448175631792 L 231.09692994805727 166.42923993074302 L 232.6668469816858 168.52246264224772 L 234.24372219237858 170.62496292317144 L 235.82791947544547 172.73722596726068 L 237.41980905678122 174.8597454090416 L 239.019767859176 176.9930238122347 L 240.62817988135978 179.13757317514631 L 242.24543659062314 181.29391545416425 L 243.87193732991184 183.4625831065491 L 245.50808974033086 185.64411965377454 L 247.15431020005852 187.83908026674467 L 248.8110242807199 190.0480323742932 L 250.47866722233508 192.2715562964468 L 252.15768442802536 194.51024590403384 L 253.84853197972714 196.76470930630288 L 255.55167717624767 199.0355695683302 L 257.2675990950745 201.32346546009933 L 258.99678917944567 203.62905223926094 L 260.73975185227926 205.9530024697056 L 262.4970051586703 208.29600687822705 L 264.2690814387748 210.6587752516997 L 266.05652803302195 213.0420373773626 L 267.85990802172785 215.44654402897044 L 269.6798010013273 217.87306800176972 L 271.51680389959375 220.3224051994583 L 273.371531832386 222.79537577651465 L 275.24461900463683 225.29282533951576 L 277.13671965849943 227.81562621133256 L 279.04850907177513 230.36467876236682 L 280.98068460998047 232.94091281330734 L 282.9339668356551 235.54528911420678 L 284.9091006787887 238.17880090505162 L 286.9068566725365 240.84247556338198 L 288.9280322587147 243.537376344953 L 290.973453167914 246.26460422388533 L 293.0439748794495 249.025299839266 L 295.1404841667822 251.82064555570958 L 297.26390073449164 254.6518676459888 L 299.41517895338137 257.52023860450856 L 301.595309700828 260.427079601104 L 303.8053223140798 263.3737630854397 L 306.04628666485246 266.3617155531366 L 308.31931536427925 269.39242048570566 L 310.6255661080395 272.467421477386 L 312.9662441723489 275.5883255631319 L 315.3426050724209 278.7568067632278 L 317.7559573960406 281.9746098613875 L 320.20766582601954 285.2435544346928 L 322.69915436654645 288.56553915539524 L 325.23190978982313 291.9425463864308 L 327.80748532089484 295.37664709452645 L 330.4275045802545 298.870006107006 L 333.09366580566564 302.4248877408875 L 335.8077463766992 306.043661835599 L 338.5716076677682 309.728810223691 L 341.38720025797056 313.4829336772941 L 344.25656952887744 317.3087593718366 L 347.1818616845388 321.20914891271843 L 349.5 324.19048449490435 L 349.5 323.7015217055426 L 349.5 323.2220102595456 L 349.5 322.751585565978 L 349.5 322.2899002906213 L 349.5 321.83662331908215 L 349.5 321.39143879311416 L 349.5 320.95404521417015 L 349.5 320.52415460875636 L 349.5 320.1014917506518 L 349.5 319.6857934355046 L 349.5 319.2768078037128 L 349.5 318.8742937078606 L 349.5 318.47802012130467 L 349.5 318.08776558479855 L 349.5 317.7033176883091 L 349.5 317.3244725854181 L 349.5 316.95103453792103 L 349.5 316.58281548843 L 349.5 316.21963465896954 L 349.5 315.8613181737153 L 349.5 315.50769870417264 L 349.5 315.15861513523043 L 349.5 314.81391225064334 L 349.5 314.47344043661343 L 349.5 314.13705540223935 L 349.5 313.8046179156982 L 349.5 313.47599355510965 L 349.5 313.15105247310964 L 349.5 312.82966917423477 L 349.5 312.5117223042806 L 349.5 312.19709445086323 L 349.5 311.8856719544622 L 349.5 311.57734472928007 L 349.5 311.27200609329645 L 349.5 310.9695526069398 L 349.5 310.66988391983955 L 349.5 310.3729026251572 L 349.5 310.0785141210301 L 349.5 309.78662647869055 L 349.5 309.49715031685605 L 349.5 309.2099986820063 L 349.5 308.92508693419575 L 349.5 308.6423326380642 L 349.5 308.3616554587379 L 349.5 308.0829770623249 L 349.5 307.8062210207332 L 349.5 307.5313127205526 L 349.5 307.2581792757592 L 349.5 306.98674944401387 L 349.5 306.71695354634176 L 349.5 306.44872338998994 L 349.5 306.181992194273 L 349.5 305.91669451922814 L 349.5 305.65276619690803 L 349.5 305.3901442651524 L 349.5 305.1287669036859 L 349.5 304.86857337239803 L 349.5 304.60950395166844 L 349.5 304.35149988460785 L 349.5 304.09450332109054 L 349.5 303.83845726346124 L 349.5 303.5833055138038 L 349.5 303.32899262266363 L 349.5 303.07546383912256 L 349.5 302.82266506212636 L 349.5 302.5705427929705 L 349.5 302.3190440888543 L 349.5 302.06811651741396 L 349.5 301.8177081121512 L 349.5 301.567767328675 L 349.5 301.31824300167654 L 349.5 301.06908430256016 L 349.5 300.8202406976558 L 349.5 300.5716619069377 L 349.5 300.3232978631787 L 349.5 300.0750986714674 L 349.5 299.8270145690212 L 349.5 299.5789958852228 L 349.5 299.5" fill-opacity="1"/><path fill="#ffffff" stroke="none" paint-order="stroke fill markers" d="" fill-opacity="1"/><g><path fill="none" stroke="#ffffff" class="dcg-svg-curve" paint-order="fill stroke markers" d=" M 349.5 299.5 L 349.5 299.5 L 349.5 299.2519917330027 L 349.5 299.0039338560836 L 349.5 298.7557767196187 L 349.5 298.50747059451123 L 349.5 298.2589656322866 L 349.5 298.0102118249838 L 349.5 297.7611589647743 L 349.5 297.5117566032398 L 349.5 297.26195401023733 L 349.5 297.01170013228085 L 349.5 296.76094355036537 L 349.5 296.50963243715967 L 349.5 296.2577145134894 L 349.5 296.0051370040341 L 349.5 295.75184659215427 L 349.5 295.49778937376675 L 349.5 295.2429108101805 L 349.5 294.9871556798031 L 349.5 294.7304680286253 L 349.5 294.4727911193849 L 349.5 294.2140673793104 L 349.5 293.95423834633664 L 349.5 293.69324461368365 L 349.5 293.43102577268127 L 349.5 293.1675203537183 L 349.5 292.9026657651886 L 349.5 292.6363982302993 L 349.5 292.36865272159895 L 349.5 292.0993628930781 L 349.5 291.82846100968135 L 349.5 291.5558778740675 L 349.5 291.281542750439 L 349.5 291.00538328525505 L 349.5 290.7273254246298 L 349.5 290.4472933282055 L 349.5 290.16520927927775 L 349.5 289.88099359093496 L 349.5 289.59456450796 L 349.5 289.30583810422513 L 349.5 289.0147281752936 L 349.5 288.7211461259227 L 349.5 288.42500085214203 L 349.5 288.1261986175582 L 349.5 287.824642923515 L 349.5 287.52023437270884 L 349.5 287.21287052583517 L 349.5 286.9024457508069 L 349.5 286.5888510640568 L 349.5 286.2719739633974 L 349.5 285.951698251874 L 349.5 285.6279038520054 L 349.5 285.3004666097586 L 349.5 284.96925808755793 L 349.5 284.63414534557023 L 349.5 284.2949907104543 L 349.5 283.9516515306931 L 349.5 283.6039799175634 L 349.5 283.2518224707146 L 349.5 282.89501998725257 L 349.5 282.53340715312606 L 349.5 282.16681221552074 L 349.5 281.7950566348508 L 349.5 281.41795471482396 L 349.5 281.0353132089201 L 349.5 280.6469309014848 L 349.5 280.2525981614772 L 349.5 279.8520964667392 L 349.5 279.4451978964644 L 349.5 279.03166458932816 L 349.5 278.61124816451564 L 349.5 278.18368910261984 L 349.5 277.7487160831041 L 349.5 277.3060452747038 L 349.5 276.8553795747973 L 349.5 276.39640779338697 L 349.5 275.9288037769017 L 349.5 275.45222546655503 L 349.5 274.9663138854602 L 348.12576333113327 272.867684441511 L 345.18219009757115 268.9429201300949 L 342.29524559122933 265.0936607883057 L 339.4627501552822 261.31700020704295 L 336.6826269676304 257.61016929017387 L 333.9528958786516 253.9705278382021 L 331.27166768280176 250.39555691040238 L 328.63713878872153 246.88285171829534 L 326.04758625574914 243.43011500766556 L 323.5013631676611 240.03515089021477 L 320.9968943170792 236.69585908943887 L 318.5326721763476 233.41022956846345 L 316.1072531328044 230.1763375104058 L 313.71925396829346 226.99233862439127 L 311.3673485644942 223.8564647526589 L 309.05026481721177 220.7670197562823 L 306.7667817441908 217.72237565892104 L 304.5157267722987 214.72096902973163 L 302.2959731910908 211.76129758812107 L 300.106437760829 208.84191701443874 L 297.94607846398674 205.96143795198225 L 295.8138923901496 203.11852318686618 L 293.7089137450183 200.31188499335775 L 291.6302119749468 197.54028263326234 L 289.57688999911386 194.80251999881844 L 287.54808254202965 192.0974433893729 L 285.5429545596362 189.42393941284826 L 283.5606997527636 186.78093300368477 L 281.6005391621715 184.16738554956203 L 279.6617198398288 181.5822931197717 L 277.743513591474 179.024684788632 L 275.84521578585964 176.49362104781287 L 273.96614422640965 173.9881923018796 L 272.1056380813238 171.50751744176497 L 270.2630568684394 169.0507424912525 L 268.43777949141884 166.61703932189178 L 266.62920332406543 164.20560443208723 L 264.8367433397883 161.81565778638446 L 263.05983128343917 159.44644171125225 L 261.2979148829258 157.09721984390103 L 259.55045709818233 154.76727613090978 L 257.8169354052307 152.45591387364098 L 256.09684111321616 150.1624548176215 L 254.38967871243386 147.88623828324512 L 252.69496525149034 145.62662033532047 L 251.01222974185643 143.38297298914188 L 249.34101258817927 141.15468345090568 L 247.68086504281825 138.94115339042435 L 246.03134868316212 136.74179824421617 L 244.39203491037136 134.55604654716183 L 242.76250446826782 132.3833392910238 L 241.14234698116874 130.223129308225 L 239.53116050952858 128.07488067937146 L 237.92855112231777 125.9380681630904 L 236.33413248512554 123.81217664683396 L 234.747525463027 121.69670061736929 L 233.16835773730892 119.59114364974522 L 231.5962634351917 117.49501791358892 L 230.0308827717317 115.40784369564221 L 228.47186170312716 113.32914893750291 L 226.91885159068872 111.25846878758495 L 225.37150887477003 109.19534516635997 L 223.8294947579868 107.13932634398242 L 222.29247489708115 105.08996652944154 L 220.76011910281687 103.04682547042245 L 219.23210104731447 101.00946806308593 L 217.70809797826107 98.97746397101474 L 216.18779043944778 96.95038725259701 L 214.67086199710968 94.92781599614625 L 213.15699897155963 92.90933196207948 L 211.6458901736232 90.89452023149761 L 210.13722664539785 88.88296886053047 L 208.63070140487005 86.87426853982669 L 207.12600919393793 84.86801225858392 L 205.62284622939586 82.86379497252784 L 204.12090995644613 80.86121327526149 L 202.61989880431094 78.8598650724146 L 201.11951194352375 76.85934925803167 L 199.61944904448347 74.85926539264466 L 198.11941003686002 76.54078661751998 L 196.6190948694405 78.54120684074599 L 195.11820327000828 80.54239563998902 L 193.61643450484587 82.54475399353885 L 192.11348713745247 84.54868381673003 L 190.60905878606403 86.55458828524797 L 189.1028458795606 88.56287216058593 L 187.59454341134136 90.57394211821156 L 186.08384469074022 92.58820707901305 L 184.57044109154964 94.60607854460045 L 183.05402179721048 96.62797093705268 L 181.5342735422161 98.65430194371186 L 180.01088034926792 100.68549286764278 L 178.4835232617063 102.7219689843916 L 176.95188007072719 104.76415990569706 L 175.41562503687865 106.81249995082851 L 173.8744286053142 108.86742852624775 L 172.3279571142603 110.9293905143196 L 170.7758724961354 112.99883667181945 L 169.21783197073393 115.07622403902144 L 167.65348772986422 117.16201636018098 L 166.08248661280305 119.25668451626262 L 164.50446977189833 121.3607069708022 L 162.9190723276225 123.47457022983667 L 161.3259230123416 125.59876931687785 L 159.72464380203124 127.73380826395834 L 158.11484953512814 129.88020061982917 L 156.49614751766447 132.03846997644735 L 154.86813711378448 134.209150514954 L 153.23040932069412 136.39278757240783 L 151.58254632703867 138.58993823061513 L 149.92412105364713 140.80117192847047 L 148.25469667551798 143.02707109930935 L 146.57382612385356 145.26823183486195 L 144.88105156687857 147.52526457749528 L 143.17590386809832 149.7987948425356 L 141.4579020205689 152.0894639725748 L 139.7265525556598 154.3979299257869 L 137.98134892469116 156.7248681004118 L 136.22177085172194 159.07097219770407 L 134.44728365565066 161.4369551257991 L 132.65733753966686 163.82354994711088 L 130.85136684595713 166.23151087205716 L 129.0287892734271 168.6616143020972 L 127.18900505604135 171.11465992527818 L 125.3313960992187 173.5914718677084 L 123.45532507153195 176.09289990462406 L 121.56013444876929 178.61982073497427 L 119.64514550719349 181.17313932374202 L 117.70965726260783 183.7537903165229 L 115.75294535157984 186.3627395312269 L 113.7742608509038 189.0009855321283 L 111.77282903108029 191.66956129189296 L 109.74784803927147 194.369535947638 L 107.69848750683083 197.1020166575589 L 105.6238870761294 199.8681505651608 L 103.52315484097299 202.66912687870268 L 101.39536569445355 205.50617907406195 L 99.2395595775735 208.380587229902 L 97.05473962143988 211.29368050474682 L 94.8398701752225 214.24683976637002 L 92.5938747114236 217.24150038476856 L 90.31563359928091 220.27915520095877 L 88.0039817363505 223.361357684866 L 85.65770602744277 226.48972529674296 L 83.27554269914617 229.6659430678051 L 80.85617443712356 232.8917674171686 L 78.39822733222385 236.16903022370153 L 75.90026762018114 239.49964317309184 L 73.36079819828295 242.88560240228938 L 70.77825490084373 246.32899346554166 L 68.15100251361547 249.8319966485127 L 65.4773305053833 253.39689265948894 L 62.755448452897475 257.02606872947 L 59.98348113297865 260.72202515602845 L 57.15946325304847 264.4873823292687 L 54.281333788478506 268.3248882820287 L 51.34692989194757 272.23742681073657 L 49.5 274.88803861139974 L 49.5 275.375470978925 L 49.5 275.85351127000325 L 49.5 276.32252125455744 L 49.5 276.7828456160994 L 49.5 277.23481297653603 L 49.5 277.67873684875457 L 49.5 278.1149165228779 L 49.499999999999964 278.5436378915348 L 49.50000000000002 278.965174219009 L 49.5 279.37978685868904 L 49.5 279.7877259228502 L 49.5 280.1892309084443 L 49.5 280.5845312822544 L 49.499999999999964 280.97384702848126 L 49.5 281.35738916156856 L 49.5 281.73536020683747 L 49.5 282.107954651286 L 49.5 282.47535936671557 L 49.5 282.83775400717036 L 49.5 283.1953113825149 L 49.5 283.5481978098285 L 49.50000000000002 283.89657344416395 L 49.5 284.24059259009607 L 49.5 284.580403995374 L 49.5 284.9161511278924 L 49.5 285.2479724371032 L 49.5 285.5760016009048 L 49.5 285.9003677589694 L 49.5 286.22119573339785 L 49.5 286.53860623752587 L 49.5 286.85271607364746 L 49.5 287.1636383203642 L 49.5 287.4714825102217 L 49.5 287.77635479824465 L 49.50000000000002 288.078358121944 L 49.5 288.3775923533244 L 49.5 288.6741544433903 L 49.50000000000002 288.96813855961057 L 49.5 289.2596362167737 L 49.5 289.5487364016358 L 49.5 289.8355256917381 L 49.5 290.12008836874566 L 49.5 290.4025065266366 L 49.5 290.68286017505085 L 49.5 290.9612273380881 L 49.5 291.2376841488258 L 49.5 291.51230493981245 L 49.5 291.7851623297761 L 49.5 292.05632730677314 L 49.5 292.3258693079897 L 49.5 292.5938562963955 L 49.5 292.86035483443857 L 49.5 293.1254301549601 L 49.5 293.3891462294952 L 49.5 293.65156583412136 L 49.5 293.91275061300325 L 49.5 294.1727611397787 L 49.5 294.43165697691904 L 49.5 294.68949673319526 L 49.5 294.94633811937086 L 49.5 295.20223800223886 L 49.5 295.4572524571146 L 49.50000000000002 295.71143681889095 L 49.5 295.9648457317579 L 49.5 296.21753319768385 L 49.5 296.46955262375377 L 49.5 296.72095686845375 L 49.5 296.9717982869892 L 49.5 297.22212877572156 L 49.5 297.4719998158047 L 49.50000000000002 297.7214625160999 L 49.5 297.97056765544784 L 49.5 298.21936572436994 L 49.5 298.46790696627625 L 49.50000000000002 298.7162414182482 L 49.50000000000002 298.96441895146967 L 49.5 299.21248931137393 L 49.5 299.4605021575771 L 49.5 299.70850710366506 L 49.5 299.9565537569023 L 49.5 300.20469175792954 L 49.499999999999964 300.45297082051917 L 49.5 300.7014407714535 L 49.5 300.95015159059756 L 49.5 301.19915345123104 L 49.5 301.44849676071226 L 49.5 301.6982322015421 L 49.5 301.94841077290096 L 49.5 302.1990838327306 L 49.5 302.45030314043595 L 49.5 302.7021209002834 L 49.5 302.95458980557385 L 49.5 303.20776308367095 L 49.5 303.46169454196877 L 49.5 303.7164386148845 L 49.5 303.9720504119654 L 49.5 304.2285857672043 L 49.5 304.4861012896575 L 49.50000000000002 304.7446544154689 L 49.50000000000002 305.0043034614032 L 49.5 305.265107679999 L 49.5 305.5271273164566 L 49.5 305.7904236673818 L 49.5 306.0550591415121 L 49.5 306.3210973225588 L 49.5 306.5886030343051 L 49.5 306.85764240810994 L 49.499999999999964 307.1282829529716 L 49.5 307.40059362831795 L 49.50000000000002 307.6746449196986 L 49.5 307.95050891756193 L 49.50000000000002 308.2282593993152 L 49.5 308.50797191487584 L 49.5 308.7897238759332 L 49.5 309.07359464915805 L 49.5 309.35966565360883 L 49.499999999999964 309.6480204625996 L 49.5 309.9387449103153 L 49.5 310.2319272034756 L 49.5 310.52765803836996 L 49.5 310.8260307236086 L 49.5 311.12714130895836 L 49.5 311.4310887206566 L 49.5 311.7379749036256 L 49.50000000000002 312.0479049710389 L 49.5 312.3609873617239 L 49.5 312.67733400592084 L 49.5 312.9970604999554 L 49.5 313.3202862904253 L 49.5 313.6471348685443 L 49.5 313.97773397533797 L 49.5 314.312215818438 L 49.5 314.6507173012793 L 49.5 314.99338026556916 L 49.5 315.34035174796384 L 49.50000000000002 315.69178425196606 L 49.5 316.0478360361372 L 49.499999999999964 316.4086714198071 L 49.5 316.7744611075642 L 49.5 317.14538253391606 L 49.5 317.5216202296242 L 49.50000000000002 317.90336621135236 L 49.5 318.2908203964033 L 49.5 318.68419104447753 L 49.5 319.08369522855855 L 49.5 319.4895593372157 L 49.5 319.9020196108258 L 49.5 320.32132271444044 L 49.5 320.747726350283 L 49.5 321.1814999131344 L 49.5 321.6229251921797 L 49.5 322.0722971232281 L 49.5 322.52992459560204 L 49.5 322.99613131841016 L 49.5 323.4712567513923 L 49.5 323.9556571060466 L 50.400049207745845 323.0999343896722 L 53.35284982835737 319.1628668955235 L 56.248664650799554 315.3017804656006 L 59.08969030961563 311.51374625384585 L 61.878019580603805 307.79597389252825 L 64.61564761566129 304.1458031791183 L 67.30447773782579 300.56069634956566 L 69.9463268324075 297.0382308901234 L 72.54293036680724 293.576092844257 L 75.09594706864175 290.17207057514435 L 77.60696328913677 286.82404894781763 L 80.07749707634375 283.53000389820835 L 82.50900198058187 280.28799735922416 L 84.90287061254807 277.09617251660256 L 87.26043797278572 273.952749369619 L 89.58298456960478 270.8560205738603 L 91.87173934111169 267.80434754518444 L 94.12788239569453 264.7961568057406 L 96.35254758413195 261.8299365544907 L 98.54682491541512 258.90423344611315 L 100.71176282739877 256.01764956346835 L 102.84837032250329 253.1688395699956 L 104.9576189778859 250.35650802948547 L 107.04044483875667 247.57940688165777 L 109.09775020284732 244.83633306287024 L 111.13040530341792 242.12612626210944 L 113.13924989763352 239.4476668031553 L 115.1250947666218 236.79987364450426 L 117.08872313305768 234.18170248925645 L 119.03089200168382 231.59214399775487 L 120.95233342778619 229.0302220962851 L 122.85375571827525 226.494992375633 L 124.73584456969701 223.9855405737373 L 126.59926414718258 221.5009811370899 L 128.444658108071 219.04045585590535 L 130.27265057367683 216.60313256843088 L 132.08384705243387 214.18820393008815 L 133.87883531743074 211.79488624342568 L 135.65818624114385 209.42241834514155 L 137.42245458999247 207.0700605466767 L 139.1721797811624 204.73709362511678 L 140.90788660398863 202.4228178613485 L 142.63008590803463 200.1265521226205 L 144.3392752598744 197.84763298683416 L 146.03593957045135 195.58541390606487 L 147.72055169477642 193.3392644069648 L 149.3935730056129 191.1085693258495 L 151.05545394269996 188.89272807640006 L 152.70663453897026 186.6911539480396 L 154.34754492513315 184.50327343315578 L 155.97860581391072 182.32852558145234 L 157.6002289651439 180.1663613798081 L 159.2128176329125 178.01624315611662 L 160.8167669957537 175.8776440056617 L 162.41246457099766 173.75004723866974 L 164.0002906141898 171.63294584774692 L 165.58061850451304 169.52584199398262 L 167.15381511708085 167.4282465105589 L 168.72024118292103 165.33967842277198 L 170.28025163743584 163.2596644834189 L 171.83419595808215 161.18773872255713 L 173.38241849198062 159.12344201069251 L 174.92525877413317 157.0663216344891 L 176.4630518368931 155.0159308841425 L 177.9961285113091 152.97182865158783 L 179.52481572093578 150.9335790387523 L 181.04943676868268 148.90075097508975 L 182.5703116172484 146.8729178436688 L 184.0877571636705 144.84965711510603 L 185.60208750850097 142.83054998866538 L 187.11361422010418 140.81518103986105 L 188.62264659455494 138.8031378739268 L 190.12949191160484 136.79401078452685 L 191.63445568717196 134.787392417104 L 193.1378419227993 132.78287743626754 L 194.63995335251636 130.78006219664485 L 196.14109168753342 128.77854441662208 L 197.64155785918953 126.77792285441393 L 199.14165226057227 124.77779698590365 L 200.64167498721974 125.82223331629302 L 202.1419260773176 127.82256810309019 L 203.6427057517973 129.8236076690631 L 205.14431465474678 131.82575287299568 L 206.6470540945396 133.82940545938612 L 208.15122628609694 135.83496838146255 L 209.6571345946951 137.84284612626016 L 211.1650837817384 139.8534450423179 L 212.67538025292347 141.86717367056463 L 214.1883323092252 143.8844430789669 L 215.7042504011462 145.90566720152827 L 217.22344738667832 147.93126318223776 L 218.74623879344 149.9616517245867 L 220.27294308546 151.99725744728 L 221.80388193509683 154.03850924679574 L 223.33938050059626 156.0858406674617 L 224.87976770980893 158.13969027974525 L 226.42537655060394 160.2005020674719 L 227.97654436854157 162.26872582472208 L 229.5336131723844 164.3448175631792 L 231.09692994805727 166.42923993074302 L 232.6668469816858 168.52246264224772 L 234.24372219237858 170.62496292317144 L 235.82791947544547 172.73722596726068 L 237.41980905678122 174.8597454090416 L 239.019767859176 176.9930238122347 L 240.62817988135978 179.13757317514631 L 242.24543659062314 181.29391545416425 L 243.87193732991184 183.4625831065491 L 245.50808974033086 185.64411965377454 L 247.15431020005852 187.83908026674467 L 248.8110242807199 190.0480323742932 L 250.47866722233508 192.2715562964468 L 252.15768442802536 194.51024590403384 L 253.84853197972714 196.76470930630288 L 255.55167717624767 199.0355695683302 L 257.2675990950745 201.32346546009933 L 258.99678917944567 203.62905223926094 L 260.73975185227926 205.9530024697056 L 262.4970051586703 208.29600687822705 L 264.2690814387748 210.6587752516997 L 266.05652803302195 213.0420373773626 L 267.85990802172785 215.44654402897044 L 269.6798010013273 217.87306800176972 L 271.51680389959375 220.3224051994583 L 273.371531832386 222.79537577651465 L 275.24461900463683 225.29282533951576 L 277.13671965849943 227.81562621133256 L 279.04850907177513 230.36467876236682 L 280.98068460998047 232.94091281330734 L 282.9339668356551 235.54528911420678 L 284.9091006787887 238.17880090505162 L 286.9068566725365 240.84247556338198 L 288.9280322587147 243.537376344953 L 290.973453167914 246.26460422388533 L 293.0439748794495 249.025299839266 L 295.1404841667822 251.82064555570958 L 297.26390073449164 254.6518676459888 L 299.41517895338137 257.52023860450856 L 301.595309700828 260.427079601104 L 303.8053223140798 263.3737630854397 L 306.04628666485246 266.3617155531366 L 308.31931536427925 269.39242048570566 L 310.6255661080395 272.467421477386 L 312.9662441723489 275.5883255631319 L 315.3426050724209 278.7568067632278 L 317.7559573960406 281.9746098613875 L 320.20766582601954 285.2435544346928 L 322.69915436654645 288.56553915539524 L 325.23190978982313 291.9425463864308 L 327.80748532089484 295.37664709452645 L 330.4275045802545 298.870006107006 L 333.09366580566564 302.4248877408875 L 335.8077463766992 306.043661835599 L 338.5716076677682 309.728810223691 L 341.38720025797056 313.4829336772941 L 344.25656952887744 317.3087593718366 L 347.1818616845388 321.20914891271843 L 349.5 324.19048449490435 L 349.5 323.7015217055426 L 349.5 323.2220102595456 L 349.5 322.751585565978 L 349.5 322.2899002906213 L 349.5 321.83662331908215 L 349.5 321.39143879311416 L 349.5 320.95404521417015 L 349.5 320.52415460875636 L 349.5 320.1014917506518 L 349.5 319.6857934355046 L 349.5 319.2768078037128 L 349.5 318.8742937078606 L 349.5 318.47802012130467 L 349.5 318.08776558479855 L 349.5 317.7033176883091 L 349.5 317.3244725854181 L 349.5 316.95103453792103 L 349.5 316.58281548843 L 349.5 316.21963465896954 L 349.5 315.8613181737153 L 349.5 315.50769870417264 L 349.5 315.15861513523043 L 349.5 314.81391225064334 L 349.5 314.47344043661343 L 349.5 314.13705540223935 L 349.5 313.8046179156982 L 349.5 313.47599355510965 L 349.5 313.15105247310964 L 349.5 312.82966917423477 L 349.5 312.5117223042806 L 349.5 312.19709445086323 L 349.5 311.8856719544622 L 349.5 311.57734472928007 L 349.5 311.27200609329645 L 349.5 310.9695526069398 L 349.5 310.66988391983955 L 349.5 310.3729026251572 L 349.5 310.0785141210301 L 349.5 309.78662647869055 L 349.5 309.49715031685605 L 349.5 309.2099986820063 L 349.5 308.92508693419575 L 349.5 308.6423326380642 L 349.5 308.3616554587379 L 349.5 308.0829770623249 L 349.5 307.8062210207332 L 349.5 307.5313127205526 L 349.5 307.2581792757592 L 349.5 306.98674944401387 L 349.5 306.71695354634176 L 349.5 306.44872338998994 L 349.5 306.181992194273 L 349.5 305.91669451922814 L 349.5 305.65276619690803 L 349.5 305.3901442651524 L 349.5 305.1287669036859 L 349.5 304.86857337239803 L 349.5 304.60950395166844 L 349.5 304.35149988460785 L 349.5 304.09450332109054 L 349.5 303.83845726346124 L 349.5 303.5833055138038 L 349.5 303.32899262266363 L 349.5 303.07546383912256 L 349.5 302.82266506212636 L 349.5 302.5705427929705 L 349.5 302.3190440888543 L 349.5 302.06811651741396 L 349.5 301.8177081121512 L 349.5 301.567767328675 L 349.5 301.31824300167654 L 349.5 301.06908430256016 L 349.5 300.8202406976558 L 349.5 300.5716619069377 L 349.5 300.3232978631787 L 349.5 300.0750986714674 L 349.5 299.8270145690212 L 349.5 299.5789958852228 L 349.5 299.5" stroke-linecap="round" stroke-linejoin="round" stroke-miterlimit="10" stroke-width="2.5" stroke-opacity="1" stroke-dasharray=""/></g></g></g><g id="labels-089d9a2b"/></g></svg>