<svg version="1.1" xmlns="http://www.w3.org/2000/svg" xmlns:xlink="http://www.w3.org/1999/xlink" width="800" height="800"><defs/><g transform="scale(2,2)"><g id="background-6bd6a984"></g><g id="background-images-6bd6a984"/><g id="graphpaper-6bd6a984"><g id="axis-6bd6a984"><g><g><path fill="none" stroke="rgb(0,0,0)" class="dcg-svg-tickmark" paint-order="fill stroke markers" d="" stroke-opacity="1" stroke-miterlimit="2" stroke-width="1.5" stroke-dasharray=""/></g></g></g></g><g id="expressions-6bd6a984"><g id="sketch-6bd6a984"><title>Expression 99</title><path fill="#ffffff" stroke="none" class="dcg-svg-region" paint-order="stroke fill markers" d=" M 349.5 299.5 L 349.5 299.21399046628534 L 349.5 298.9279237211287 L 349.5 298.64174250730224 L 349.5 298.3553894759283 L 349.5 298.0688071404596 L 349.5 297.7819378304249 L 349.5 297.49472364486076 L 349.5 297.2071064053491 L 349.5 296.9190276085801 L 349.5 296.6304283783561 L 349.5 296.34124941695364 L 349.5 296.0514309557567 L 349.5 295.7609127050724 L 349.5 295.4696338030393 L 349.5 295.1775327635328 L 349.5 294.88454742297296 L 349.5 294.5906148859339 L 349.5 294.2956714694503 L 349.5 293.99965264591464 L 349.5 293.70249298445196 L 349.5 293.40412609065635 L 349.5 293.1044845445656 L 349.5 292.8034998367481 L 349.5 292.5011023023663 L 349.5 292.19722105307835 L 349.5 291.8917839066288 L 349.5 291.5847173139741 L 349.5 291.27594628377943 L 349.5 290.9653943041142 L 349.5 290.65298326116476 L 349.5 290.33863335477133 L 349.5 290.02226301058687 L 349.5 289.70378878864085 L 349.5 289.3831252880811 L 349.5 289.06018504784987 L 349.5 288.73487844303804 L 349.5 288.4071135766427 L 349.5 288.0767961664377 L 349.5 287.7438294266467 L 349.5 287.40811394408854 L 349.5 287.06954754844315 L 349.5 286.7280251762606 L 349.5 286.38343872831314 L 349.5 286.03567691986 L 349.5 285.6846251233659 L 349.5 285.3301652031809 L 349.5 284.97217534165634 L 349.5 284.61052985613003 L 349.5 284.245099006176 L 349.5 283.8757487904676 L 349.5 283.50234073255456 L 349.5 283.1247316548023 L 349.5 282.7427734396838 L 349.5 282.3563127775528 L 349.5 281.96519089995934 L 349.5 281.56924329749285 L 349.5 281.16829942106096 L 349.5 280.76218236542087 L 349.5 280.3507085336863 L 349.5 279.93368728142764 L 349.5 279.51092053886657 L 349.5 279.08220240954574 L 349.5 278.6473187437083 L 349.5 278.2060466844804 L 349.5 277.7581541847769 L 349.5 277.30339949267125 L 349.5 276.84153060277185 L 349.5 276.3722846709227 L 349.5 275.89538738930594 L 349.5 275.41055231875595 L 349.5 274.9174801747955 L 349.5 274.4158580635798 L 349.5 273.9053586635697 L 349.5 273.38563934835497 L 349.5 272.85634124559954 L 349.5 272.3170882265882 L 349.5 271.76748582030143 L 349.5 271.20712004532913 L 348.12576333113327 269.067684441511 L 345.18219009757115 265.1429201300949 L 342.29524559122933 261.2936607883057 L 339.4627501552822 257.51700020704294 L 336.6826269676304 253.81016929017392 L 333.9528958786516 250.1705278382021 L 331.27166768280176 246.59555691040234 L 328.63713878872153 243.08285171829533 L 326.04758625574914 239.63011500766558 L 323.5013631676611 236.23515089021478 L 320.9968943170792 232.8958590894389 L 318.5326721763476 229.61022956846344 L 316.1072531328044 226.37633751040585 L 313.71925396829346 223.19233862439128 L 311.3673485644942 220.0564647526589 L 309.05026481721177 216.96701975628233 L 306.7667817441908 213.92237565892106 L 304.5157267722987 210.9209690297316 L 302.2959731910908 207.96129758812108 L 300.106437760829 205.04191701443872 L 297.94607846398674 202.16143795198226 L 295.8138923901496 199.31852318686614 L 293.7089137450183 196.5118849933577 L 291.6302119749468 193.74028263326235 L 289.57688999911386 191.00251999881846 L 287.54808254202965 188.2974433893729 L 285.5429545596362 185.62393941284827 L 283.5606997527636 182.98093300368475 L 281.6005391621715 180.36738554956204 L 279.6617198398288 177.7822931197717 L 277.743513591474 175.224684788632 L 275.84521578585964 172.69362104781288 L 273.96614422640965 170.18819230187958 L 272.1056380813238 167.707517441765 L 270.2630568684394 165.2507424912525 L 268.43777949141884 162.81703932189177 L 266.62920332406543 160.40560443208722 L 264.8367433397883 158.01565778638442 L 263.05983128343917 155.64644171125224 L 261.2979148829258 153.29721984390105 L 259.55045709818233 150.9672761309098 L 257.8169354052307 148.655913873641 L 256.09684111321616 146.3624548176215 L 254.38967871243386 144.08623828324514 L 252.69496525149034 141.82662033532046 L 251.01222974185643 139.58297298914187 L 249.34101258817927 137.35468345090572 L 247.68086504281825 135.14115339042434 L 246.03134868316212 132.94179824421622 L 244.39203491037136 130.75604654716182 L 242.76250446826782 128.58333929102378 L 241.14234698116874 126.42312930822499 L 239.53116050952858 124.27488067937139 L 237.92855112231777 122.13806816309034 L 236.33413248512554 120.012176646834 L 234.747525463027 117.89670061736933 L 233.16835773730892 115.79114364974521 L 231.5962634351917 113.69501791358891 L 230.0308827717317 111.60784369564226 L 228.47186170312716 109.5291489375029 L 226.91885159068872 107.45846878758493 L 225.37150887477003 105.39534516636002 L 223.8294947579868 103.3393263439824 L 222.29247489708115 101.28996652944153 L 220.76011910281687 99.2468254704225 L 219.23210104731447 97.20946806308592 L 217.70809797826107 95.17746397101473 L 216.18779043944778 93.150387252597 L 214.67086199710968 91.12781599614624 L 213.15699897155963 89.10933196207947 L 211.6458901736232 87.0945202314976 L 210.13722664539785 85.08296886053046 L 208.63070140487005 83.07426853982673 L 207.12600919393793 81.0680122585839 L 205.62284622939586 79.06379497252783 L 204.12090995644613 77.06121327526148 L 202.61989880431094 75.0598650724146 L 201.11951194352375 73.05934925803166 L 199.61944904448347 71.05926539264465 L 198.11941003686002 72.74078661751997 L 196.6190948694405 74.74120684074603 L 195.11820327000828 76.74239563998896 L 193.61643450484587 78.74475399353884 L 192.11348713745247 80.74868381673008 L 190.60905878606403 82.75458828524802 L 189.1028458795606 84.76287216058586 L 187.59454341134136 86.7739421182115 L 186.08384469074022 88.78820707901303 L 184.57044109154964 90.8060785446005 L 183.05402179721048 92.82797093705267 L 181.5342735422161 94.8543019437119 L 180.01088034926792 96.88549286764277 L 178.4835232617063 98.92196898439158 L 176.95188007072719 100.9641599056971 L 175.41562503687865 103.0124999508285 L 173.8744286053142 105.06742852624774 L 172.3279571142603 107.1293905143196 L 170.7758724961354 109.19883667181944 L 169.21783197073393 111.27622403902143 L 167.65348772986422 113.36201636018103 L 166.08248661280305 115.45668451626267 L 164.50446977189833 117.56070697080224 L 162.9190723276225 119.67457022983666 L 161.3259230123416 121.79876931687784 L 159.72464380203124 123.93380826395838 L 158.11484953512814 126.08020061982916 L 156.49614751766447 128.2384699764474 L 154.86813711378448 130.40915051495398 L 153.23040932069412 132.59278757240787 L 151.58254632703867 134.78993823061512 L 149.92412105364713 137.0011719284705 L 148.25469667551798 139.2270710993094 L 146.57382612385356 141.4682318348619 L 144.88105156687857 143.72526457749524 L 143.17590386809832 145.99879484253557 L 141.4579020205689 148.28946397257482 L 139.7265525556598 150.59792992578696 L 137.98134892469116 152.92486810041177 L 136.22177085172194 155.27097219770408 L 134.44728365565066 157.6369551257991 L 132.65733753966686 160.02354994711084 L 130.85136684595713 162.43151087205712 L 129.0287892734271 164.86161430209722 L 127.18900505604135 167.3146599252782 L 125.3313960992187 169.7914718677084 L 123.45532507153195 172.29289990462408 L 121.56013444876929 174.8198207349743 L 119.64514550719349 177.373139323742 L 117.70965726260783 179.95379031652286 L 115.75294535157984 182.5627395312269 L 113.7742608509038 185.20098553212827 L 111.77282903108029 187.86956129189292 L 109.74784803927147 190.56953594763803 L 107.69848750683083 193.30201665755888 L 105.6238870761294 196.06815056516078 L 103.52315484097299 198.86912687870264 L 101.39536569445355 201.70617907406196 L 99.2395595775735 204.58058722990202 L 97.05473962143988 207.49368050474683 L 94.8398701752225 210.44683976636998 L 92.5938747114236 213.44150038476855 L 90.31563359928091 216.4791552009588 L 88.0039817363505 219.561357684866 L 85.65770602744277 222.68972529674298 L 83.27554269914617 225.86594306780512 L 80.85617443712356 229.09176741716857 L 78.39822733222385 232.36903022370154 L 75.90026762018114 235.6996431730918 L 73.36079819828295 239.0856024022894 L 70.77825490084373 242.52899346554167 L 68.15100251361547 246.03199664851272 L 65.4773305053833 249.5968926594889 L 62.755448452897475 253.22606872947 L 59.98348113297865 256.92202515602844 L 57.15946325304847 260.6873823292687 L 54.281333788478506 264.52488828202866 L 51.34692989194757 268.43742681073655 L 49.5 271.1168509792755 L 49.5 271.67897056440546 L 49.5 272.2302589646006 L 49.5 272.77113338227196 L 49.5 273.30199131534044 L 49.5 273.82321173906973 L 49.5 274.33515620461213 L 49.5 274.83816986106075 L 49.499999999999964 275.33258240717316 L 49.50000000000002 275.81870897837325 L 49.5 276.29685097413335 L 49.5 276.7672968303837 L 49.5 277.2303227411898 L 49.5 277.6861933335676 L 49.499999999999964 278.13516229897436 L 49.5 278.5774729847121 L 49.5 279.0133589482077 L 49.5 279.44304447688626 L 49.5 279.8667450761317 L 49.5 280.2846679276239 L 49.5 280.6970123201583 L 49.5 281.10397005488284 L 49.50000000000002 281.50572582673743 L 49.5 281.9024575837398 L 49.5 282.29433686563294 L 49.5 282.6815291232953 L 49.5 283.06419402020776 L 49.5 283.4424857171725 L 49.5 283.8165531413922 L 49.5 284.1865402409346 L 49.5 284.5525862255339 L 49.5 284.91482579460956 L 49.5 285.27338935332324 L 49.5 285.62840321743306 L 49.5 285.9799898076531 L 49.50000000000002 286.3282678341773 L 49.5 286.673352471979 L 49.5 287.0153555274582 L 49.50000000000002 287.35438559697025 L 49.5 287.6905482177309 L 49.5 288.0239460115638 L 49.5 288.3546788219238 L 49.5 288.6828438446019 L 49.5 289.0085357524922 L 49.5 289.3318468147763 L 49.5 289.65286701085967 L 49.5 289.9716841393717 L 49.5 290.28838392252567 L 49.5 290.60305010611273 L 49.5 290.91576455539166 L 49.5 291.2266073471172 L 49.5 291.5356568579399 L 49.5 291.8429898493929 L 49.5 292.1486815496718 L 49.5 292.45280573240177 L 49.5 292.75543479257544 L 49.5 293.0566398198344 L 49.5 293.3564906692609 L 49.5 293.655056029834 L 49.5 293.952403490701 L 49.5 294.2485996054035 L 49.5 294.5437099541948 L 49.5 294.8377992045757 L 49.50000000000002 295.13093117017263 L 49.5 295.42316886807566 L 49.5 295.7145745747483 L 49.5 296.0052098806193 L 49.5 296.2951357434588 L 49.5 296.58441254064076 L 49.5 296.8731001203886 L 49.5 297.1612578520973 L 49.50000000000002 297.4489446758249 L 49.5 297.73621915104064 L 49.5 298.02313950471694 L 49.5 298.3097636788508 L 49.50000000000002 298.5961493774959 L 49.50000000000002 298.8823541133884 L 49.5 299.16843525424576 L 49.5 299.45445006881874 L 49.5 299.740455772775 L 49.5 300.02650957449214 L 49.5 300.31266872083813 L 49.499999999999964 300.59899054301803 L 49.5 300.88553250256336 L 49.5 301.172352237544 L 49.5 301.45950760908096 L 49.5 301.7470567482407 L 49.5 302.03505810339124 L 49.5 302.32357048810354 L 49.5 302.61265312968123 L 49.5 302.9023657184059 L 49.5 303.19276845758486 L 49.5 303.4839221144924 L 49.5 303.77588807229796 L 49.5 304.0687283830769 L 49.5 304.36250582200387 L 49.5 304.65728394283116 L 49.5 304.9531271347598 L 49.5 305.2501006808147 L 49.50000000000002 305.5482708178391 L 49.50000000000002 305.8477047982311 L 49.5 306.14847095354725 L 49.5 306.45063876010715 L 49.5 306.7542789067387 L 49.5 307.0594633648084 L 49.5 307.3662654606928 L 49.5 307.6747599508518 L 49.5 307.9850230996752 L 49.499999999999964 308.29713276028167 L 49.5 308.61116845846345 L 49.50000000000002 308.927211479975 L 49.5 309.24534496138193 L 49.50000000000002 309.5656539846942 L 49.5 309.8882256760262 L 49.5 310.21314930853583 L 49.5 310.54051640991617 L 49.5 310.87042087472634 L 49.499999999999964 311.2029590818689 L 49.5 311.538230017541 L 49.5 311.87633540400816 L 49.5 312.21737983457183 L 49.5 312.56147091512923 L 49.5 312.9087194127503 L 49.5 313.2592394117249 L 49.5 313.61314847756825 L 49.50000000000002 313.97056782950455 L 49.5 314.3316225219881 L 49.5 314.6964416358603 L 49.5 315.0651584797873 L 49.5 315.43791080266794 L 49.5 315.81484101775675 L 49.5 316.19609643930113 L 49.5 316.5818295325535 L 49.5 316.97219817808826 L 49.5 317.3673659514225 L 49.5 317.7675024190228 L 49.50000000000002 318.17278345186406 L 49.5 318.5833915578034 L 49.499999999999964 318.99951623413233 L 49.5 319.4213543417878 L 49.5 319.84911050282255 L 49.5 320.2829975228731 L 49.50000000000002 320.72323684051116 L 49.5 321.1700590055296 L 49.5 321.6237041883894 L 49.5 322.08442272325703 L 49.5 322.552475687273 L 49.5 323.0281355189362 L 49.5 323.5116866787498 L 49.5 324.0034263555683 L 49.5 324.50366522240506 L 49.5 325.0127282458201 L 49.5 325.53095555340013 L 49.5 326.058703364283 L 49.5 326.59634498816655 L 49.5 327.144271898783 L 49.5 327.7028948884247 L 50.400049207745845 326.89993438967224 L 53.35284982835737 322.9628668955235 L 56.248664650799554 319.10178046560054 L 59.08969030961563 315.3137462538458 L 61.878019580603805 311.59597389252826 L 64.61564761566129 307.9458031791183 L 67.30447773782579 304.3606963495656 L 69.9463268324075 300.8382308901233 L 72.54293036680724 297.376092844257 L 75.09594706864175 293.97207057514436 L 77.60696328913677 290.62404894781764 L 80.07749707634375 287.3300038982083 L 82.50900198058187 284.0879973592242 L 84.90287061254807 280.8961725166026 L 87.26043797278572 277.75274936961904 L 89.58298456960478 274.6560205738603 L 91.87173934111169 271.6043475451844 L 94.12788239569453 268.59615680574063 L 96.35254758413195 265.62993655449077 L 98.54682491541512 262.7042334461132 L 100.71176282739877 259.8176495634683 L 102.84837032250329 256.9688395699956 L 104.9576189778859 254.15650802948548 L 107.04044483875667 251.3794068816578 L 109.09775020284732 248.63633306287025 L 111.13040530341792 245.92612626210942 L 113.13924989763352 243.2476668031553 L 115.1250947666218 240.59987364450427 L 117.08872313305768 237.98170248925643 L 119.03089200168382 235.39214399775489 L 120.95233342778619 232.8302220962851 L 122.85375571827525 230.294992375633 L 124.73584456969701 227.7855405737373 L 126.59926414718258 225.3009811370899 L 128.444658108071 222.84045585590533 L 130.27265057367683 220.4031325684309 L 132.08384705243387 217.98820393008816 L 133.87883531743074 215.59488624342566 L 135.65818624114385 213.22241834514156 L 137.42245458999247 210.8700605466767 L 139.1721797811624 208.53709362511677 L 140.90788660398863 206.22281786134852 L 142.63008590803463 203.9265521226205 L 144.3392752598744 201.64763298683417 L 146.03593957045135 199.38541390606488 L 147.72055169477642 197.1392644069648 L 149.3935730056129 194.9085693258495 L 151.05545394269996 192.69272807640004 L 152.70663453897026 190.49115394803965 L 154.34754492513315 188.30327343315582 L 155.97860581391072 186.12852558145238 L 157.6002289651439 183.96636137980815 L 159.2128176329125 181.81624315611663 L 160.8167669957537 179.6776440056617 L 162.41246457099766 177.55004723866978 L 164.0002906141898 175.43294584774694 L 165.58061850451304 173.3258419939826 L 167.15381511708085 171.22824651055888 L 168.72024118292103 169.13967842277202 L 170.28025163743584 167.0596644834189 L 171.83419595808215 164.98773872255714 L 173.38241849198062 162.92344201069255 L 174.92525877413317 160.8663216344891 L 176.4630518368931 158.81593088414252 L 177.9961285113091 156.77182865158787 L 179.52481572093578 154.73357903875228 L 181.04943676868268 152.70075097508976 L 182.5703116172484 150.67291784366878 L 184.0877571636705 148.64965711510604 L 185.60208750850097 146.6305499886654 L 187.11361422010418 144.61518103986108 L 188.62264659455494 142.60313787392676 L 190.12949191160484 140.59401078452686 L 191.63445568717196 138.587392417104 L 193.1378419227993 136.58287743626755 L 194.63995335251636 134.58006219664486 L 196.14109168753342 132.5785444166221 L 197.64155785918953 130.57792285441394 L 199.14165226057227 128.57779698590366 L 200.64167498721974 129.62223331629298 L 202.1419260773176 131.62256810309015 L 203.6427057517973 133.62360766906312 L 205.14431465474678 135.6257528729957 L 206.6470540945396 137.62940545938613 L 208.15122628609694 139.6349683814626 L 209.6571345946951 141.64284612626017 L 211.1650837817384 143.65344504231786 L 212.67538025292347 145.6671736705646 L 214.1883323092252 147.68444307896695 L 215.7042504011462 149.7056672015283 L 217.22344738667832 151.73126318223774 L 218.74623879344 153.76165172458667 L 220.27294308546 155.79725744728003 L 221.80388193509683 157.83850924679575 L 223.33938050059626 159.88584066746168 L 224.87976770980893 161.93969027974524 L 226.42537655060394 164.0005020674719 L 227.97654436854157 166.06872582472207 L 229.5336131723844 168.14481756317917 L 231.09692994805727 170.22923993074306 L 232.6668469816858 172.32246264224773 L 234.24372219237858 174.42496292317145 L 235.82791947544547 176.5372259672607 L 237.41980905678122 178.65974540904162 L 239.019767859176 180.79302381223468 L 240.62817988135978 182.93757317514635 L 242.24543659062314 185.09391545416423 L 243.87193732991184 187.26258310654913 L 245.50808974033086 189.44411965377452 L 247.15431020005852 191.63908026674468 L 248.8110242807199 193.84803237429315 L 250.47866722233508 196.07155629644677 L 252.15768442802536 198.31024590403382 L 253.84853197972714 200.56470930630286 L 255.55167717624767 202.83556956833024 L 257.2675990950745 205.12346546009934 L 258.99678917944567 207.42905223926095 L 260.73975185227926 209.75300246970562 L 262.4970051586703 212.09600687822706 L 264.2690814387748 214.4587752516997 L 266.05652803302195 216.8420373773626 L 267.85990802172785 219.24654402897045 L 269.6798010013273 221.67306800176974 L 271.51680389959375 224.1224051994583 L 273.371531832386 226.59537577651466 L 275.24461900463683 229.09282533951577 L 277.13671965849943 231.61562621133254 L 279.04850907177513 234.16467876236683 L 280.98068460998047 236.74091281330732 L 282.9339668356551 239.3452891142068 L 284.9091006787887 241.97880090505163 L 286.9068566725365 244.642475563382 L 288.9280322587147 247.33737634495301 L 290.973453167914 250.06460422388534 L 293.0439748794495 252.82529983926602 L 295.1404841667822 255.6206455557096 L 297.26390073449164 258.45186764598884 L 299.41517895338137 261.3202386045085 L 301.595309700828 264.22707960110404 L 303.8053223140798 267.17376308543965 L 306.04628666485246 270.1617155531366 L 308.31931536427925 273.1924204857056 L 310.6255661080395 276.26742147738594 L 312.9662441723489 279.38832556313196 L 315.3426050724209 282.5568067632278 L 317.7559573960406 285.7746098613875 L 320.20766582601954 289.04355443469274 L 322.69915436654645 292.36553915539525 L 325.23190978982313 295.74254638643083 L 327.80748532089484 299.17664709452646 L 330.4275045802545 302.670006107006 L 333.09366580566564 306.22488774088754 L 335.8077463766992 309.84366183559894 L 338.5716076677682 313.528810223691 L 341.38720025797056 317.28293367729407 L 344.25656952887744 321.1087593718365 L 347.1818616845388 325.0091489127184 L 349.5 327.9737038933171 L 349.5 327.40981938623054 L 349.5 326.8568344122179 L 349.5 326.3143285156037 L 349.5 325.7819011416036 L 349.5 325.2591704405544 L 349.5 324.7457721565752 L 349.5 324.24135859376076 L 349.5 323.7455976536464 L 349.5 323.25817193825173 L 349.5 322.7787779135255 L 349.5 322.3071251284752 L 349.5 321.8429354856779 L 349.5 321.3859425592465 L 349.5 320.93589095666283 L 349.5 320.4925357211951 L 349.5 320.0556417718935 L 349.5 319.62498337840896 L 349.5 319.20034366810876 L 349.5 318.78151416316643 L 349.5 318.3682943454942 L 349.5 317.960491247554 L 349.5 317.5579190672415 L 349.5 317.16039880517735 L 349.5 316.7677579228687 L 349.5 316.37983002032445 L 349.5 315.99645453181324 L 349.5 315.61747643855387 L 349.5 315.2427459972152 L 349.5 314.8721184831901 L 349.5 314.50545394767846 L 349.5 314.14261698768905 L 349.5 313.78347652812977 L 349.5 313.42790561521815 L 349.5 313.07578122049506 L 349.5 312.72698405477735 L 349.5 312.3813983914278 L 349.5 312.0389118983668 L 349.5 311.69941547828466 L 349.5 311.3628031165545 L 349.5 311.0289717363743 L 349.5 310.69782106070085 L 349.5 310.36925348056445 L 349.5 310.04317392938054 L 349.5 309.71948976289934 L 349.5 309.39811064445536 L 349.5 309.07894843520035 L 349.5 308.7619170890244 L 349.5 308.44693255188355 L 349.5 308.133912665274 L 349.5 307.8227770736038 L 349.5 307.51344713523025 L 349.5 307.20584583694387 L 349.5 306.8998977116905 L 349.5 306.5955287593375 L 349.5 306.29266637029673 L 349.5 305.99123925183136 L 349.5 305.69117735687837 L 349.5 305.3924118152306 L 349.5 305.09487486692683 L 349.5 304.79849979770927 L 349.5 304.503220876411 L 349.5 304.2089732941447 L 349.5 303.91569310516854 L 349.5 303.6233171693107 L 349.5 303.3317830958392 L 349.5 303.0410291886676 L 349.5 302.75099439279165 L 349.5 302.4616182418564 L 349.5 302.17284080675495 L 349.5 301.8846026451656 L 349.5 301.5968447519334 L 349.5 301.30950851021043 L 349.5 301.02253564326435 L 349.5 300.7358681668718 L 349.5 300.4494483422141 L 349.5 300.1632186291923 L 349.5 299.8771216400808 L 349.5 299.5911000934424 L 349.5 299.5" fill-opacity="1"/><path fill="#ffffff" stroke="none" paint-order="stroke fill markers" d="" fill-opacity="1"/><g><path fill="none" stroke="#ffffff" class="dcg-svg-curve" paint-order="fill stroke markers" d=" M 349.5 299.5 L 349.5 299.5 L 349.5 299.21399046628534 L 349.5 298.9279237211287 L 349.5 298.64174250730224 L 349.5 298.3553894759283 L 349.5 298.0688071404596 L 349.5 297.7819378304249 L 349.5 297.49472364486076 L 349.5 297.2071064053491 L 349.5 296.9190276085801 L 349.5 296.6304283783561 L 349.5 296.34124941695364 L 349.5 296.0514309557567 L 349.5 295.7609127050724 L 349.5 295.4696338030393 L 349.5 295.1775327635328 L 349.5 294.88454742297296 L 349.5 294.5906148859339 L 349.5 294.2956714694503 L 349.5 293.99965264591464 L 349.5 293.70249298445196 L 349.5 293.40412609065635 L 349.5 293.1044845445656 L 349.5 292.8034998367481 L 349.5 292.5011023023663 L 349.5 292.19722105307835 L 349.5 291.8917839066288 L 349.5 291.5847173139741 L 349.5 291.27594628377943 L 349.5 290.9653943041142 L 349.5 290.65298326116476 L 349.5 290.33863335477133 L 349.5 290.02226301058687 L 349.5 289.70378878864085 L 349.5 289.3831252880811 L 349.5 289.06018504784987 L 349.5 288.73487844303804 L 349.5 288.4071135766427 L 349.5 288.0767961664377 L 349.5 287.7438294266467 L 349.5 287.40811394408854 L 349.5 287.06954754844315 L 349.5 286.7280251762606 L 349.5 286.38343872831314 L 349.5 286.03567691986 L 349.5 285.6846251233659 L 349.5 285.3301652031809 L 349.5 284.97217534165634 L 349.5 284.61052985613003 L 349.5 284.245099006176 L 349.5 283.8757487904676 L 349.5 283.50234073255456 L 349.5 283.1247316548023 L 349.5 282.7427734396838 L 349.5 282.3563127775528 L 349.5 281.96519089995934 L 349.5 281.56924329749285 L 349.5 281.16829942106096 L 349.5 280.76218236542087 L 349.5 280.3507085336863 L 349.5 279.93368728142764 L 349.5 279.51092053886657 L 349.5 279.08220240954574 L 349.5 278.6473187437083 L 349.5 278.2060466844804 L 349.5 277.7581541847769 L 349.5 277.30339949267125 L 349.5 276.84153060277185 L 349.5 276.3722846709227 L 349.5 275.89538738930594 L 349.5 275.41055231875595 L 349.5 274.9174801747955 L 349.5 274.4158580635798 L 349.5 273.9053586635697 L 349.5 273.38563934835497 L 349.5 272.85634124559954 L 349.5 272.3170882265882 L 349.5 271.76748582030143 L 349.5 271.20712004532913 L 348.12576333113327 269.067684441511 L 345.18219009757115 265.1429201300949 L 342.29524559122933 261.2936607883057 L 339.4627501552822 257.51700020704294 L 336.6826269676304 253.81016929017392 L 333.9528958786516 250.1705278382021 L 331.27166768280176 246.59555691040234 L 328.63713878872153 243.08285171829533 L 326.04758625574914 239.63011500766558 L 323.5013631676611 236.23515089021478 L 320.9968943170792 232.8958590894389 L 318.5326721763476 229.61022956846344 L 316.1072531328044 226.37633751040585 L 313.71925396829346 223.19233862439128 L 311.3673485644942 220.0564647526589 L 309.05026481721177 216.96701975628233 L 306.7667817441908 213.92237565892106 L 304.5157267722987 210.9209690297316 L 302.2959731910908 207.96129758812108 L 300.106437760829 205.04191701443872 L 297.94607846398674 202.16143795198226 L 295.8138923901496 199.31852318686614 L 293.7089137450183 196.5118849933577 L 291.6302119749468 193.74028263326235 L 289.57688999911386 191.00251999881846 L 287.54808254202965 188.2974433893729 L 285.5429545596362 185.62393941284827 L 283.5606997527636 182.98093300368475 L 281.6005391621715 180.36738554956204 L 279.6617198398288 177.7822931197717 L 277.743513591474 175.224684788632 L 275.84521578585964 172.69362104781288 L 273.96614422640965 170.18819230187958 L 272.1056380813238 167.707517441765 L 270.2630568684394 165.2507424912525 L 268.43777949141884 162.81703932189177 L 266.62920332406543 160.40560443208722 L 264.8367433397883 158.01565778638442 L 263.05983128343917 155.64644171125224 L 261.2979148829258 153.29721984390105 L 259.55045709818233 150.9672761309098 L 257.8169354052307 148.655913873641 L 256.09684111321616 146.3624548176215 L 254.38967871243386 144.08623828324514 L 252.69496525149034 141.82662033532046 L 251.01222974185643 139.58297298914187 L 249.34101258817927 137.35468345090572 L 247.68086504281825 135.14115339042434 L 246.03134868316212 132.94179824421622 L 244.39203491037136 130.75604654716182 L 242.76250446826782 128.58333929102378 L 241.14234698116874 126.42312930822499 L 239.53116050952858 124.27488067937139 L 237.92855112231777 122.13806816309034 L 236.33413248512554 120.012176646834 L 234.747525463027 117.89670061736933 L 233.16835773730892 115.79114364974521 L 231.5962634351917 113.69501791358891 L 230.0308827717317 111.60784369564226 L 228.47186170312716 109.5291489375029 L 226.91885159068872 107.45846878758493 L 225.37150887477003 105.39534516636002 L 223.8294947579868 103.3393263439824 L 222.29247489708115 101.28996652944153 L 220.76011910281687 99.2468254704225 L 219.23210104731447 97.20946806308592 L 217.70809797826107 95.17746397101473 L 216.18779043944778 93.150387252597 L 214.67086199710968 91.12781599614624 L 213.15699897155963 89.10933196207947 L 211.6458901736232 87.0945202314976 L 210.13722664539785 85.08296886053046 L 208.63070140487005 83.07426853982673 L 207.12600919393793 81.0680122585839 L 205.62284622939586 79.06379497252783 L 204.12090995644613 77.06121327526148 L 202.61989880431094 75.0598650724146 L 201.11951194352375 73.05934925803166 L 199.61944904448347 71.05926539264465 L 198.11941003686002 72.74078661751997 L 196.6190948694405 74.74120684074603 L 195.11820327000828 76.74239563998896 L 193.61643450484587 78.74475399353884 L 192.11348713745247 80.74868381673008 L 190.60905878606403 82.75458828524802 L 189.1028458795606 84.76287216058586 L 187.59454341134136 86.7739421182115 L 186.08384469074022 88.78820707901303 L 184.57044109154964 90.8060785446005 L 183.05402179721048 92.82797093705267 L 181.5342735422161 94.8543019437119 L 180.01088034926792 96.88549286764277 L 178.4835232617063 98.92196898439158 L 176.95188007072719 100.9641599056971 L 175.41562503687865 103.0124999508285 L 173.8744286053142 105.06742852624774 L 172.3279571142603 107.1293905143196 L 170.7758724961354 109.19883667181944 L 169.21783197073393 111.27622403902143 L 167.65348772986422 113.36201636018103 L 166.08248661280305 115.45668451626267 L 164.50446977189833 117.56070697080224 L 162.9190723276225 119.67457022983666 L 161.3259230123416 121.79876931687784 L 159.72464380203124 123.93380826395838 L 158.11484953512814 126.08020061982916 L 156.49614751766447 128.2384699764474 L 154.86813711378448 130.40915051495398 L 153.23040932069412 132.59278757240787 L 151.58254632703867 134.78993823061512 L 149.92412105364713 137.0011719284705 L 148.25469667551798 139.2270710993094 L 146.57382612385356 141.4682318348619 L 144.88105156687857 143.72526457749524 L 143.17590386809832 145.99879484253557 L 141.4579020205689 148.28946397257482 L 139.7265525556598 150.59792992578696 L 137.98134892469116 152.92486810041177 L 136.22177085172194 155.27097219770408 L 134.44728365565066 157.6369551257991 L 132.65733753966686 160.02354994711084 L 130.85136684595713 162.43151087205712 L 129.0287892734271 164.86161430209722 L 127.18900505604135 167.3146599252782 L 125.3313960992187 169.7914718677084 L 123.45532507153195 172.29289990462408 L 121.56013444876929 174.8198207349743 L 119.64514550719349 177.373139323742 L 117.70965726260783 179.95379031652286 L 115.75294535157984 182.5627395312269 L 113.7742608509038 185.20098553212827 L 111.77282903108029 187.86956129189292 L 109.74784803927147 190.56953594763803 L 107.69848750683083 193.30201665755888 L 105.6238870761294 196.06815056516078 L 103.52315484097299 198.86912687870264 L 101.39536569445355 201.70617907406196 L 99.2395595775735 204.58058722990202 L 97.05473962143988 207.49368050474683 L 94.8398701752225 210.44683976636998 L 92.5938747114236 213.44150038476855 L 90.31563359928091 216.4791552009588 L 88.0039817363505 219.561357684866 L 85.65770602744277 222.68972529674298 L 83.27554269914617 225.86594306780512 L 80.85617443712356 229.09176741716857 L 78.39822733222385 232.36903022370154 L 75.90026762018114 235.6996431730918 L 73.36079819828295 239.0856024022894 L 70.77825490084373 242.52899346554167 L 68.15100251361547 246.03199664851272 L 65.4773305053833 249.5968926594889 L 62.755448452897475 253.22606872947 L 59.98348113297865 256.92202515602844 L 57.15946325304847 260.6873823292687 L 54.281333788478506 264.52488828202866 L 51.34692989194757 268.43742681073655 L 49.5 271.1168509792755 L 49.5 271.67897056440546 L 49.5 272.2302589646006 L 49.5 272.77113338227196 L 49.5 273.30199131534044 L 49.5 273.82321173906973 L 49.5 274.33515620461213 L 49.5 274.83816986106075 L 49.499999999999964 275.33258240717316 L 49.50000000000002 275.81870897837325 L 49.5 276.29685097413335 L 49.5 276.7672968303837 L 49.5 277.2303227411898 L 49.5 277.6861933335676 L 49.499999999999964 278.13516229897436 L 49.5 278.5774729847121 L 49.5 279.0133589482077 L 49.5 279.44304447688626 L 49.5 279.8667450761317 L 49.5 280.2846679276239 L 49.5 280.6970123201583 L 49.5 281.10397005488284 L 49.50000000000002 281.50572582673743 L 49.5 281.9024575837398 L 49.5 282.29433686563294 L 49.5 282.6815291232953 L 49.5 283.06419402020776 L 49.5 283.4424857171725 L 49.5 283.8165531413922 L 49.5 284.1865402409346 L 49.5 284.5525862255339 L 49.5 284.91482579460956 L 49.5 285.27338935332324 L 49.5 285.62840321743306 L 49.5 285.9799898076531 L 49.50000000000002 286.3282678341773 L 49.5 286.673352471979 L 49.5 287.0153555274582 L 49.50000000000002 287.35438559697025 L 49.5 287.6905482177309 L 49.5 288.0239460115638 L 49.5 288.3546788219238 L 49.5 288.6828438446019 L 49.5 289.0085357524922 L 49.5 289.3318468147763 L 49.5 289.65286701085967 L 49.5 289.9716841393717 L 49.5 290.28838392252567 L 49.5 290.60305010611273 L 49.5 290.91576455539166 L 49.5 291.2266073471172 L 49.5 291.5356568579399 L 49.5 291.8429898493929 L 49.5 292.1486815496718 L 49.5 292.45280573240177 L 49.5 292.75543479257544 L 49.5 293.0566398198344 L 49.5 293.3564906692609 L 49.5 293.655056029834 L 49.5 293.952403490701 L 49.5 294.2485996054035 L 49.5 294.5437099541948 L 49.5 294.8377992045757 L 49.50000000000002 295.13093117017263 L 49.5 295.42316886807566 L 49.5 295.7145745747483 L 49.5 296.0052098806193 L 49.5 296.2951357434588 L 49.5 296.58441254064076 L 49.5 296.8731001203886 L 49.5 297.1612578520973 L 49.50000000000002 297.4489446758249 L 49.5 297.73621915104064 L 49.5 298.02313950471694 L 49.5 298.3097636788508 L 49.50000000000002 298.5961493774959 L 49.50000000000002 298.8823541133884 L 49.5 299.16843525424576 L 49.5 299.45445006881874 L 49.5 299.740455772775 L 49.5 300.02650957449214 L 49.5 300.31266872083813 L 49.499999999999964 300.59899054301803 L 49.5 300.88553250256336 L 49.5 301.172352237544 L 49.5 301.45950760908096 L 49.5 301.7470567482407 L 49.5 302.03505810339124 L 49.5 302.32357048810354 L 49.5 302.61265312968123 L 49.5 302.9023657184059 L 49.5 303.19276845758486 L 49.5 303.4839221144924 L 49.5 303.77588807229796 L 49.5 304.0687283830769 L 49.5 304.36250582200387 L 49.5 304.65728394283116 L 49.5 304.9531271347598 L 49.5 305.2501006808147 L 49.50000000000002 305.5482708178391 L 49.50000000000002 305.8477047982311 L 49.5 306.14847095354725 L 49.5 306.45063876010715 L 49.5 306.7542789067387 L 49.5 307.0594633648084 L 49.5 307.3662654606928 L 49.5 307.6747599508518 L 49.5 307.9850230996752 L 49.499999999999964 308.29713276028167 L 49.5 308.61116845846345 L 49.50000000000002 308.927211479975 L 49.5 309.24534496138193 L 49.50000000000002 309.5656539846942 L 49.5 309.8882256760262 L 49.5 310.21314930853583 L 49.5 310.54051640991617 L 49.5 310.87042087472634 L 49.499999999999964 311.2029590818689 L 49.5 311.538230017541 L 49.5 311.87633540400816 L 49.5 312.21737983457183 L 49.5 312.56147091512923 L 49.5 312.9087194127503 L 49.5 313.2592394117249 L 49.5 313.61314847756825 L 49.50000000000002 313.97056782950455 L 49.5 314.3316225219881 L 49.5 314.6964416358603 L 49.5 315.0651584797873 L 49.5 315.43791080266794 L 49.5 315.81484101775675 L 49.5 316.19609643930113 L 49.5 316.5818295325535 L 49.5 316.97219817808826 L 49.5 317.3673659514225 L 49.5 317.7675024190228 L 49.50000000000002 318.17278345186406 L 49.5 318.5833915578034 L 49.499999999999964 318.99951623413233 L 49.5 319.4213543417878 L 49.5 319.84911050282255 L 49.5 320.2829975228731 L 49.50000000000002 320.72323684051116 L 49.5 321.1700590055296 L 49.5 321.6237041883894 L 49.5 322.08442272325703 L 49.5 322.552475687273 L 49.5 323.0281355189362 L 49.5 323.5116866787498 L 49.5 324.0034263555683 L 49.5 324.50366522240506 L 49.5 325.0127282458201 L 49.5 325.53095555340013 L 49.5 326.058703364283 L 49.5 326.59634498816655 L 49.5 327.144271898783 L 49.5 327.7028948884247 L 50.400049207745845 326.89993438967224 L 53.35284982835737 322.9628668955235 L 56.248664650799554 319.10178046560054 L 59.08969030961563 315.3137462538458 L 61.878019580603805 311.59597389252826 L 64.61564761566129 307.9458031791183 L 67.30447773782579 304.3606963495656 L 69.9463268324075 300.8382308901233 L 72.54293036680724 297.376092844257 L 75.09594706864175 293.97207057514436 L 77.60696328913677 290.62404894781764 L 80.07749707634375 287.3300038982083 L 82.50900198058187 284.0879973592242 L 84.90287061254807 280.8961725166026 L 87.26043797278572 277.75274936961904 L 89.58298456960478 274.6560205738603 L 91.87173934111169 271.6043475451844 L 94.12788239569453 268.59615680574063 L 96.35254758413195 265.62993655449077 L 98.54682491541512 262.7042334461132 L 100.71176282739877 259.8176495634683 L 102.84837032250329 256.9688395699956 L 104.9576189778859 254.15650802948548 L 107.04044483875667 251.3794068816578 L 109.09775020284732 248.63633306287025 L 111.13040530341792 245.92612626210942 L 113.13924989763352 243.2476668031553 L 115.1250947666218 240.59987364450427 L 117.08872313305768 237.98170248925643 L 119.03089200168382 235.39214399775489 L 120.95233342778619 232.8302220962851 L 122.85375571827525 230.294992375633 L 124.73584456969701 227.7855405737373 L 126.59926414718258 225.3009811370899 L 128.444658108071 222.84045585590533 L 130.27265057367683 220.4031325684309 L 132.08384705243387 217.98820393008816 L 133.87883531743074 215.59488624342566 L 135.65818624114385 213.22241834514156 L 137.42245458999247 210.8700605466767 L 139.1721797811624 208.53709362511677 L 140.90788660398863 206.22281786134852 L 142.63008590803463 203.9265521226205 L 144.3392752598744 201.64763298683417 L 146.03593957045135 199.38541390606488 L 147.72055169477642 197.1392644069648 L 149.3935730056129 194.9085693258495 L 151.05545394269996 192.69272807640004 L 152.70663453897026 190.49115394803965 L 154.34754492513315 188.30327343315582 L 155.97860581391072 186.12852558145238 L 157.6002289651439 183.96636137980815 L 159.2128176329125 181.81624315611663 L 160.8167669957537 179.6776440056617 L 162.41246457099766 177.55004723866978 L 164.0002906141898 175.43294584774694 L 165.58061850451304 173.3258419939826 L 167.15381511708085 171.22824651055888 L 168.72024118292103 169.13967842277202 L 170.28025163743584 167.0596644834189 L 171.83419595808215 164.98773872255714 L 173.38241849198062 162.92344201069255 L 174.92525877413317 160.8663216344891 L 176.4630518368931 158.81593088414252 L 177.9961285113091 156.77182865158787 L 179.52481572093578 154.73357903875228 L 181.04943676868268 152.70075097508976 L 182.5703116172484 150.67291784366878 L 184.0877571636705 148.64965711510604 L 185.60208750850097 146.6305499886654 L 187.11361422010418 144.61518103986108 L 188.62264659455494 142.60313787392676 L 190.12949191160484 140.59401078452686 L 191.63445568717196 138.587392417104 L 193.1378419227993 136.58287743626755 L 194.63995335251636 134.58006219664486 L 196.14109168753342 132.5785444166221 L 197.64155785918953 130.57792285441394 L 199.14165226057227 128.57779698590366 L 200.64167498721974 129.62223331629298 L 202.1419260773176 131.62256810309015 L 203.6427057517973 133.62360766906312 L 205.14431465474678 135.6257528729957 L 206.6470540945396 137.62940545938613 L 208.15122628609694 139.6349683814626 L 209.6571345946951 141.64284612626017 L 211.1650837817384 143.65344504231786 L 212.67538025292347 145.6671736705646 L 214.1883323092252 147.68444307896695 L 215.7042504011462 149.7056672015283 L 217.22344738667832 151.73126318223774 L 218.74623879344 153.76165172458667 L 220.27294308546 155.79725744728003 L 221.80388193509683 157.83850924679575 L 223.33938050059626 159.88584066746168 L 224.87976770980893 161.93969027974524 L 226.42537655060394 164.0005020674719 L 227.97654436854157 166.06872582472207 L 229.5336131723844 168.14481756317917 L 231.09692994805727 170.22923993074306 L 232.6668469816858 172.32246264224773 L 234.24372219237858 174.42496292317145 L 235.82791947544547 176.5372259672607 L 237.41980905678122 178.65974540904162 L 239.019767859176 180.79302381223468 L 240.62817988135978 182.93757317514635 L 242.24543659062314 185.09391545416423 L 243.87193732991184 187.26258310654913 L 245.50808974033086 189.44411965377452 L 247.15431020005852 191.63908026674468 L 248.8110242807199 193.84803237429315 L 250.47866722233508 196.07155629644677 L 252.15768442802536 198.31024590403382 L 253.84853197972714 200.56470930630286 L 255.55167717624767 202.83556956833024 L 257.2675990950745 205.12346546009934 L 258.99678917944567 207.42905223926095 L 260.73975185227926 209.75300246970562 L 262.4970051586703 212.09600687822706 L 264.2690814387748 214.4587752516997 L 266.05652803302195 216.8420373773626 L 267.85990802172785 219.24654402897045 L 269.6798010013273 221.67306800176974 L 271.51680389959375 224.1224051994583 L 273.371531832386 226.59537577651466 L 275.24461900463683 229.09282533951577 L 277.13671965849943 231.61562621133254 L 279.04850907177513 234.16467876236683 L 280.98068460998047 236.74091281330732 L 282.9339668356551 239.3452891142068 L 284.9091006787887 241.97880090505163 L 286.9068566725365 244.642475563382 L 288.9280322587147 247.33737634495301 L 290.973453167914 250.06460422388534 L 293.0439748794495 252.82529983926602 L 295.1404841667822 255.6206455557096 L 297.26390073449164 258.45186764598884 L 299.41517895338137 261.3202386045085 L 301.595309700828 264.22707960110404 L 303.8053223140798 267.17376308543965 L 306.04628666485246 270.1617155531366 L 308.31931536427925 273.1924204857056 L 310.6255661080395 276.26742147738594 L 312.9662441723489 279.38832556313196 L 315.3426050724209 282.5568067632278 L 317.7559573960406 285.7746098613875 L 320.20766582601954 289.04355443469274 L 322.69915436654645 292.36553915539525 L 325.23190978982313 295.74254638643083 L 327.80748532089484 299.17664709452646 L 330.4275045802545 302.670006107006 L 333.09366580566564 306.22488774088754 L 335.8077463766992 309.84366183559894 L 338.5716076677682 313.528810223691 L 341.38720025797056 317.28293367729407 L 344.25656952887744 321.1087593718365 L 347.1818616845388 325.0091489127184 L 349.5 327.9737038933171 L 349.5 327.40981938623054 L 349.5 326.8568344122179 L 349.5 326.3143285156037 L 349.5 325.7819011416036 L 349.5 325.2591704405544 L 349.5 324.7457721565752 L 349.5 324.24135859376076 L 349.5 323.7455976536464 L 349.5 323.25817193825173 L 349.5 322.7787779135255 L 349.5 322.3071251284752 L 349.5 321.8429354856779 L 349.5 321.3859425592465 L 349.5 320.93589095666283 L 349.5 320.4925357211951 L 349.5 320.0556417718935 L 349.5 319.62498337840896 L 349.5 319.20034366810876 L 349.5 318.78151416316643 L 349.5 318.3682943454942 L 349.5 317.960491247554 L 349.5 317.5579190672415 L 349.5 317.16039880517735 L 349.5 316.7677579228687 L 349.5 316.37983002032445 L 349.5 315.99645453181324 L 349.5 315.61747643855387 L 349.5 315.2427459972152 L 349.5 314.8721184831901 L 349.5 314.50545394767846 L 349.5 314.14261698768905 L 349.5 313.78347652812977 L 349.5 313.42790561521815 L 349.5 313.07578122049506 L 349.5 312.72698405477735 L 349.5 312.3813983914278 L 349.5 312.0389118983668 L 349.5 311.69941547828466 L 349.5 311.3628031165545 L 349.5 311.0289717363743 L 349.5 310.69782106070085 L 349.5 310.36925348056445 L 349.5 310.04317392938054 L 349.5 309.71948976289934 L 349.5 309.39811064445536 L 349.5 309.07894843520035 L 349.5 308.7619170890244 L 349.5 308.44693255188355 L 349.5 308.133912665274 L 349.5 307.8227770736038 L 349.5 307.51344713523025 L 349.5 307.20584583694387 L 349.5 306.8998977116905 L 349.5 306.5955287593375 L 349.5 306.29266637029673 L 349.5 305.99123925183136 L 349.5 305.69117735687837 L 349.5 305.3924118152306 L 349.5 305.09487486692683 L 349.5 304.79849979770927 L 349.5 304.503220876411 L 349.5 304.2089732941447 L 349.5 303.91569310516854 L 349.5 303.6233171693107 L 349.5 303.3317830958392 L 349.5 303.0410291886676 L 349.5 302.75099439279165 L 349.5 302.4616182418564 L 349.5 302.17284080675495 L 349.5 301.8846026451656 L 349.5 301.5968447519334 L 349.5 301.30950851021043 L 349.5 301.02253564326435 L 349.5 300.7358681668718 L 349.5 300.4494483422141 L 349.5 300.1632186291923 L 349.5 299.8771216400808 L 349.5 299.5911000934424 L 349.5 299.5" stroke-linecap="round" stroke-linejoin="round" stroke-miterlimit="10" stroke-width="2.5" stroke-opacity="1" stroke-dasharray=""/></g></g></g><g id="labels-6bd6a984"/></g></svg>