<svg version="1.1" xmlns="http://www.w3.org/2000/svg" xmlns:xlink="http://www.w3.org/1999/xlink" width="800" height="800"><defs/><g transform="scale(2,2)"><g id="background-cdd97c0e"></g><g id="background-images-cdd97c0e"/><g id="graphpaper-cdd97c0e"><g id="axis-cdd97c0e"><g><g><path fill="none" stroke="rgb(0,0,0)" class="dcg-svg-tickmark" paint-order="fill stroke markers" d="" stroke-opacity="1" stroke-miterlimit="2" stroke-width="1.5" stroke-dasharray=""/></g></g></g></g><g id="expressions-cdd97c0e"><g id="sketch-cdd97c0e"><title>Expression 99</title><path fill="#ffffff" stroke="none" class="dcg-svg-region" paint-order="stroke fill markers" d=" M 349.5 299.5 L 349.5 299.175989199568 L 349.5 298.85191358617374 L 349.5 298.52770829498576 L 349.5 298.20330835734535 L 349.5 297.8786486486325 L 349.5 297.55366383586596 L 349.5 297.22828832494713 L 349.5 296.90245620745844 L 349.5 296.57610120692294 L 349.5 296.2491566244314 L 349.5 295.92155528354186 L 349.5 295.59322947435373 L 349.5 295.2641108966555 L 349.5 294.93413060204455 L 349.5 294.60321893491124 L 349.5 294.27130547217917 L 349.5 293.9383189616874 L 349.5 293.60418725909756 L 349.5 293.268837263204 L 349.5 292.932194849519 L 349.5 292.5941848020023 L 349.5 292.25473074279466 L 349.5 291.9137550598125 L 349.5 291.5711788320513 L 349.5 291.22692175243844 L 349.5 290.880902048069 L 349.5 290.533036397649 L 349.5 290.18323984596 L 349.5 289.83142571515043 L 349.5 289.47750551264824 L 349.5 289.1213888354753 L 349.5 288.7629832707348 L 349.5 288.4021942920267 L 349.5 288.03892515153245 L 349.5 287.67307676749425 L 349.5 287.30454760679834 L 349.5 286.9332335623505 L 349.5 286.55902782491546 L 349.5 286.18182074906827 L 349.5 285.8014997128836 L 349.5 285.4179489709636 L 349.5 285.03104950037914 L 349.5 284.640678839068 L 349.5 284.2467109162051 L 349.5 283.8490158740228 L 349.5 283.4474598805266 L 349.5 283.04190493250576 L 349.5 282.63220864820323 L 349.5 282.2182240489546 L 349.5 281.7997993290612 L 349.5 281.3767776131038 L 349.5 280.9489966998459 L 349.5 280.51628879180953 L 349.5 280.0784802095353 L 349.5 279.6353910894644 L 349.5 279.18683506429255 L 349.5 278.73261892455855 L 349.5 278.2725422601271 L 349.5 277.80639708012023 L 349.5 277.33396740972915 L 349.5 276.8550288622125 L 349.5 276.3693481842406 L 349.5 275.87668277259263 L 349.5 275.37678016004077 L 349.5 274.8693774680689 L 349.5 274.3542008238653 L 349.5 273.8309647388045 L 349.5 273.29937144538087 L 349.5 272.75911018928355 L 349.5 272.2098564729962 L 349.5 271.65127124697113 L 349.5 271.0830000440554 L 349.5 270.50467205243564 L 349.5 269.9158991219127 L 349.5 269.3162746978121 L 349.5 268.7053726762748 L 349.5 268.08274617404777 L 349.5 267.447926205198 L 348.12576333113327 265.26768444151094 L 345.18219009757115 261.3429201300949 L 342.29524559122933 257.49366078830576 L 339.4627501552822 253.71700020704296 L 336.6826269676304 250.01016929017393 L 333.9528958786516 246.37052783820212 L 331.27166768280176 242.79555691040233 L 328.63713878872153 239.2828517182953 L 326.04758625574914 235.8301150076656 L 323.5013631676611 232.4351508902148 L 320.9968943170792 229.0958590894389 L 318.5326721763476 225.8102295684634 L 316.1072531328044 222.57633751040586 L 313.71925396829346 219.3923386243913 L 311.3673485644942 216.25646475265893 L 309.05026481721177 213.16701975628234 L 306.7667817441908 210.12237565892107 L 304.5157267722987 207.12096902973158 L 302.2959731910908 204.1612975881211 L 300.106437760829 201.24191701443868 L 297.94607846398674 198.36143795198228 L 295.8138923901496 195.51852318686613 L 293.7089137450183 192.71188499335767 L 291.6302119749468 189.94028263326237 L 289.57688999911386 187.20251999881847 L 287.54808254202965 184.49744338937285 L 285.5429545596362 181.8239394128483 L 283.5606997527636 179.18093300368474 L 281.6005391621715 176.56738554956206 L 279.6617198398288 173.98229311977173 L 277.743513591474 171.42468478863202 L 275.84521578585964 168.8936210478129 L 273.96614422640965 166.38819230187954 L 272.1056380813238 163.907517441765 L 270.2630568684394 161.45074249125253 L 268.43777949141884 159.01703932189173 L 266.62920332406543 156.60560443208718 L 264.8367433397883 154.2156577863844 L 263.05983128343917 151.8464417112522 L 261.2979148829258 149.49721984390106 L 259.55045709818233 147.1672761309098 L 257.8169354052307 144.85591387364101 L 256.09684111321616 142.56245481762153 L 254.38967871243386 140.28623828324515 L 252.69496525149034 138.02662033532044 L 251.01222974185643 135.7829729891419 L 249.34101258817927 133.5546834509057 L 247.68086504281825 131.34115339042438 L 246.03134868316212 129.1417982442162 L 244.39203491037136 126.9560465471618 L 242.76250446826782 124.78333929102382 L 241.14234698116874 122.62312930822503 L 239.53116050952858 120.47488067937144 L 237.92855112231777 118.33806816309038 L 236.33413248512554 116.212176646834 L 234.747525463027 114.09670061736932 L 233.16835773730892 111.99114364974525 L 231.5962634351917 109.89501791358896 L 230.0308827717317 107.80784369564225 L 228.47186170312716 105.72914893750288 L 226.91885159068872 103.65846878758492 L 225.37150887477003 101.59534516636 L 223.8294947579868 99.5393263439824 L 222.29247489708115 97.48996652944157 L 220.76011910281687 95.44682547042248 L 219.23210104731447 93.40946806308597 L 217.70809797826107 91.37746397101478 L 216.18779043944778 89.35038725259705 L 214.67086199710968 87.32781599614628 L 213.15699897155963 85.30933196207951 L 211.6458901736232 83.29452023149764 L 210.13722664539785 81.2829688605305 L 208.63070140487005 79.27426853982672 L 207.12600919393793 77.26801225858395 L 205.62284622939586 75.26379497252782 L 204.12090995644613 73.26121327526153 L 202.61989880431094 71.25986507241458 L 201.11951194352375 69.2593492580317 L 199.61944904448347 67.25926539264464 L 198.11941003686002 68.94078661752002 L 196.6190948694405 70.94120684074602 L 195.11820327000828 72.942395639989 L 193.61643450484587 74.94475399353882 L 192.11348713745247 76.94868381673007 L 190.60905878606403 78.95458828524801 L 189.1028458795606 80.9628721605859 L 187.59454341134136 82.97394211821154 L 186.08384469074022 84.98820707901308 L 184.57044109154964 87.00607854460048 L 183.05402179721048 89.02797093705271 L 181.5342735422161 91.05430194371183 L 180.01088034926792 93.08549286764276 L 178.4835232617063 95.12196898439163 L 176.95188007072719 97.16415990569709 L 175.41562503687865 99.21249995082849 L 173.8744286053142 101.26742852624778 L 172.3279571142603 103.32939051431964 L 170.7758724961354 105.39883667181948 L 169.21783197073393 107.47622403902147 L 167.65348772986422 109.56201636018102 L 166.08248661280305 111.6566845162626 L 164.50446977189833 113.76070697080223 L 162.9190723276225 115.87457022983665 L 161.3259230123416 117.99876931687788 L 159.72464380203124 120.13380826395837 L 158.11484953512814 122.28020061982915 L 156.49614751766447 124.43846997644738 L 154.86813711378448 126.60915051495402 L 153.23040932069412 128.7927875724078 L 151.58254632703867 130.9899382306151 L 149.92412105364713 133.2011719284705 L 148.25469667551798 135.4270710993094 L 146.57382612385356 137.66823183486196 L 144.88105156687857 139.92526457749528 L 143.17590386809832 142.19879484253562 L 141.4579020205689 144.48946397257478 L 139.7265525556598 146.79792992578697 L 137.98134892469116 149.1248681004118 L 136.22177085172194 151.47097219770404 L 134.44728365565066 153.83695512579905 L 132.65733753966686 156.22354994711083 L 130.85136684595713 158.63151087205713 L 129.0287892734271 161.0616143020972 L 127.18900505604135 163.5146599252782 L 125.3313960992187 165.99147186770836 L 123.45532507153195 168.49289990462404 L 121.56013444876929 171.01982073497427 L 119.64514550719349 173.57313932374203 L 117.70965726260783 176.15379031652287 L 115.75294535157984 178.76273953122686 L 113.7742608509038 181.40098553212826 L 111.77282903108029 184.06956129189294 L 109.74784803927147 186.76953594763805 L 107.69848750683083 189.5020166575589 L 105.6238870761294 192.26815056516074 L 103.52315484097299 195.06912687870266 L 101.39536569445355 197.90617907406192 L 99.2395595775735 200.78058722990198 L 97.05473962143988 203.69368050474685 L 94.8398701752225 206.64683976636996 L 92.5938747114236 209.6415003847685 L 90.31563359928091 212.6791552009588 L 88.0039817363505 215.76135768486597 L 85.65770602744277 218.889725296743 L 83.27554269914617 222.06594306780508 L 80.85617443712356 225.29176741716856 L 78.39822733222385 228.56903022370156 L 75.90026762018114 231.8996431730918 L 73.36079819828295 235.28560240228938 L 70.77825490084373 238.7289934655417 L 68.15100251361547 242.23199664851273 L 65.4773305053833 245.79689265948892 L 62.755448452897475 249.42606872947002 L 59.98348113297865 253.12202515602849 L 57.15946325304847 256.8873823292687 L 54.281333788478506 260.72488828202864 L 51.34692989194757 264.63742681073654 L 49.5 267.34566334715134 L 49.5 267.9824701498859 L 49.5 268.60700665919785 L 49.5 269.2197455099864 L 49.5 269.8211370145815 L 49.5 270.4116105016035 L 49.5 270.9915755604697 L 49.5 271.5614231992437 L 49.499999999999964 272.12152692281154 L 49.50000000000002 272.6722437377375 L 49.5 273.21391508957765 L 49.5 273.7468677379172 L 49.5 274.2714145739353 L 49.5 274.7878553848808 L 49.499999999999964 275.29647756946747 L 49.5 275.79755680785564 L 49.5 276.29135768957804 L 49.5 276.7781343024866 L 49.5 277.2581307855478 L 49.5 277.73158184807744 L 49.5 278.1987132578018 L 49.5 278.6597422999372 L 49.50000000000002 279.114878209311 L 49.5 279.5643225773836 L 49.5 280.0082697358918 L 49.5 280.44690711869816 L 49.5 280.88041560331226 L 49.5 281.3089698334402 L 49.5 281.7327385238149 L 49.5 282.1518847484714 L 49.5 282.5665662135419 L 49.5 282.97693551557165 L 49.5 283.38314038628226 L 49.5 283.7853239246444 L 49.5 284.1836248170616 L 49.50000000000002 284.5781775464107 L 49.5 284.96911259063353 L 49.5 285.3565566115261 L 49.50000000000002 285.7406326343299 L 49.5 286.1214602186882 L 49.5 286.49915562149187 L 49.5 286.87383195210947 L 49.5 287.2455993204581 L 49.5 287.6145649783478 L 49.5 287.98083345450186 L 49.5 288.34450668363127 L 49.5 288.7056841299176 L 49.5 289.0644629052388 L 49.5 289.4209378824494 L 49.5 289.7752018040101 L 49.5 290.12734538624466 L 49.5 290.4774574194844 L 49.5 290.8256248643472 L 49.5 291.1719329443834 L 49.5 291.51646523530826 L 49.5 291.8593037510295 L 49.5 292.20052902666555 L 49.5 292.5402201987431 L 49.5 292.87845508274904 L 49.5 293.2153102482067 L 49.5 293.5508610914361 L 49.5 293.88518190615076 L 49.5 294.21834595203677 L 49.50000000000002 294.5504255214543 L 49.5 294.8814920043934 L 49.5 295.21161595181275 L 49.5 295.54086713748484 L 49.5 295.8693146184638 L 49.5 296.19702679429236 L 49.5 296.5240714650556 L 49.5 296.85051588838996 L 49.50000000000002 297.17642683554993 L 49.5 297.50187064663345 L 49.5 297.82691328506394 L 49.5 298.1516203914254 L 49.50000000000002 298.4760573367436 L 49.50000000000002 298.80028927530714 L 49.5 299.12438119711754 L 49.5 299.4483979800604 L 49.5 299.772404441885 L 49.5 300.096465392082 L 49.5 300.42064568374667 L 49.499999999999964 300.74501026551695 L 49.5 301.06962423367315 L 49.5 301.39455288449034 L 49.5 301.7198617669309 L 49.5 302.04561673576916 L 49.5 302.3718840052405 L 49.5 302.6987302033061 L 49.5 303.0262224266319 L 49.5 303.35442829637594 L 49.5 303.68341601488635 L 49.5 304.013254423411 L 49.5 304.34401306092496 L 49.5 304.67576222418506 L 49.5 305.0085730291233 L 49.5 305.34251747369683 L 49.5 305.6776685023153 L 49.5 306.0141000719719 L 49.50000000000002 306.3518872202094 L 49.50000000000002 306.69110613505904 L 49.5 307.0318342270955 L 49.5 307.37415020375784 L 49.5 307.71813414609557 L 49.5 308.0638675881046 L 49.5 308.41143359882676 L 49.5 308.76091686739863 L 49.5 309.1124037912404 L 49.499999999999964 309.4659825675919 L 49.5 309.82174328860896 L 49.50000000000002 310.17977804025145 L 49.5 310.54018100520193 L 49.50000000000002 310.90304857007317 L 49.5 311.26847943717655 L 49.5 311.6365747411385 L 49.5 312.0074381706742 L 49.5 312.38117609584384 L 49.499999999999964 312.7578977011382 L 49.5 313.1377151247667 L 49.5 313.5207436045407 L 49.5 313.90710163077364 L 49.5 314.2969111066499 L 49.5 314.6902975165423 L 49.5 315.0873901027932 L 49.5 315.4883220515109 L 49.50000000000002 315.89323068797023 L 49.5 316.3022576822522 L 49.5 316.71554926579984 L 49.5 317.13325645961913 L 49.5 317.5555353149105 L 49.5 317.9825471669692 L 49.5 318.4144589032642 L 49.5 318.8514432466691 L 49.5 319.2936790548972 L 49.5 319.7413516372759 L 49.5 320.1946530900817 L 49.50000000000002 320.6537826517621 L 49.5 321.11894707946954 L 49.499999999999964 321.5903610484576 L 49.5 322.0682475760113 L 49.5 322.552838471729 L 49.5 323.04437481612194 L 49.50000000000002 323.54310746967 L 49.5 324.0492976146559 L 49.5 324.5632173323013 L 49.5 325.0851502179555 L 49.5 325.61539203733025 L 49.5 326.1542514270466 L 49.5 326.70205064305924 L 49.5 327.2591263608536 L 49.5 327.82583053167565 L 49.5 328.4025312994605 L 49.5 328.9896139835722 L 49.5 329.587482132964 L 49.5 330.1965586579229 L 49.5 330.8172870461738 L 49.5 331.45013267080276 L 50.400049207745845 330.6999343896722 L 53.35284982835737 326.7628668955235 L 56.248664650799554 322.9017804656006 L 59.08969030961563 319.1137462538459 L 61.878019580603805 315.3959738925283 L 64.61564761566129 311.7458031791183 L 67.30447773782579 308.1606963495656 L 69.9463268324075 304.63823089012334 L 72.54293036680724 301.176092844257 L 75.09594706864175 297.7720705751443 L 77.60696328913677 294.4240489478176 L 80.07749707634375 291.1300038982083 L 82.50900198058187 287.8879973592242 L 84.90287061254807 284.6961725166026 L 87.26043797278572 281.55274936961905 L 89.58298456960478 278.4560205738603 L 91.87173934111169 275.4043475451844 L 94.12788239569453 272.39615680574065 L 96.35254758413195 269.4299365544907 L 98.54682491541512 266.5042334461132 L 100.71176282739877 263.6176495634683 L 102.84837032250329 260.76883956999563 L 104.9576189778859 257.95650802948546 L 107.04044483875667 255.17940688165777 L 109.09775020284732 252.43633306287023 L 111.13040530341792 249.72612626210946 L 113.13924989763352 247.04766680315532 L 115.1250947666218 244.39987364450428 L 117.08872313305768 241.78170248925642 L 119.03089200168382 239.1921439977549 L 120.95233342778619 236.63022209628508 L 122.85375571827525 234.09499237563298 L 124.73584456969701 231.58554057373732 L 126.59926414718258 229.10098113708992 L 128.444658108071 226.64045585590534 L 130.27265057367683 224.20313256843087 L 132.08384705243387 221.78820393008817 L 133.87883531743074 219.39488624342567 L 135.65818624114385 217.02241834514157 L 137.42245458999247 214.67006054667672 L 139.1721797811624 212.33709362511678 L 140.90788660398863 210.02281786134853 L 142.63008590803463 207.72655212262052 L 144.3392752598744 205.44763298683415 L 146.03593957045135 203.1854139060649 L 147.72055169477642 200.9392644069648 L 149.3935730056129 198.70856932584954 L 151.05545394269996 196.49272807640006 L 152.70663453897026 194.29115394803966 L 154.34754492513315 192.10327343315583 L 155.97860581391072 189.9285255814524 L 157.6002289651439 187.76636137980816 L 159.2128176329125 185.61624315611667 L 160.8167669957537 183.47764400566174 L 162.41246457099766 181.3500472386698 L 164.0002906141898 179.23294584774698 L 165.58061850451304 177.12584199398265 L 167.15381511708085 175.0282465105589 L 168.72024118292103 172.93967842277195 L 170.28025163743584 170.85966448341887 L 171.83419595808215 168.78773872255712 L 173.38241849198062 166.72344201069254 L 174.92525877413317 164.66632163448915 L 176.4630518368931 162.61593088414256 L 177.9961285113091 160.57182865158785 L 179.52481572093578 158.5335790387523 L 181.04943676868268 156.50075097508977 L 182.5703116172484 154.47291784366877 L 184.0877571636705 152.44965711510602 L 185.60208750850097 150.4305499886654 L 187.11361422010418 148.41518103986107 L 188.62264659455494 146.40313787392677 L 190.12949191160484 144.39401078452687 L 191.63445568717196 142.38739241710402 L 193.1378419227993 140.38287743626756 L 194.63995335251636 138.38006219664487 L 196.14109168753342 136.3785444166221 L 197.64155785918953 134.3779228544139 L 199.14165226057227 132.37779698590361 L 200.64167498721974 133.42223331629293 L 202.1419260773176 135.42256810309016 L 203.6427057517973 137.42360766906307 L 205.14431465474678 139.42575287299564 L 206.6470540945396 141.42940545938615 L 208.15122628609694 143.43496838146257 L 209.6571345946951 145.44284612626015 L 211.1650837817384 147.4534450423179 L 212.67538025292347 149.4671736705646 L 214.1883323092252 151.48444307896696 L 215.7042504011462 153.50566720152824 L 217.22344738667832 155.53126318223772 L 218.74623879344 157.56165172458665 L 220.27294308546 159.59725744728004 L 221.80388193509683 161.6385092467958 L 223.33938050059626 163.68584066746166 L 224.87976770980893 165.73969027974522 L 226.42537655060394 167.80050206747194 L 227.97654436854157 169.86872582472205 L 229.5336131723844 171.94481756317916 L 231.09692994805727 174.02923993074307 L 232.6668469816858 176.12246264224777 L 234.24372219237858 178.2249629231715 L 235.82791947544547 180.33722596726065 L 237.41980905678122 182.45974540904166 L 239.019767859176 184.59302381223466 L 240.62817988135978 186.73757317514637 L 242.24543659062314 188.89391545416422 L 243.87193732991184 191.06258310654914 L 245.50808974033086 193.2441196537745 L 247.15431020005852 195.43908026674472 L 248.8110242807199 197.64803237429314 L 250.47866722233508 199.87155629644678 L 252.15768442802536 202.11024590403383 L 253.84853197972714 204.36470930630284 L 255.55167717624767 206.63556956833023 L 257.2675990950745 208.92346546009932 L 258.99678917944567 211.22905223926094 L 260.73975185227926 213.55300246970563 L 262.4970051586703 215.89600687822707 L 264.2690814387748 218.25877525169972 L 266.05652803302195 220.6420373773626 L 267.85990802172785 223.04654402897046 L 269.6798010013273 225.47306800176972 L 271.51680389959375 227.92240519945832 L 273.371531832386 230.39537577651467 L 275.24461900463683 232.89282533951578 L 277.13671965849943 235.41562621133255 L 279.04850907177513 237.96467876236684 L 280.98068460998047 240.54091281330733 L 282.9339668356551 243.1452891142068 L 284.9091006787887 245.77880090505164 L 286.9068566725365 248.44247556338198 L 288.9280322587147 251.13737634495303 L 290.973453167914 253.86460422388535 L 293.0439748794495 256.625299839266 L 295.1404841667822 259.4206455557096 L 297.26390073449164 262.2518676459888 L 299.41517895338137 265.12023860450853 L 301.595309700828 268.02707960110405 L 303.8053223140798 270.9737630854397 L 306.04628666485246 273.96171555313657 L 308.31931536427925 276.9924204857056 L 310.6255661080395 280.06742147738595 L 312.9662441723489 283.1883255631319 L 315.3426050724209 286.35680676322784 L 317.7559573960406 289.5746098613875 L 320.20766582601954 292.84355443469275 L 322.69915436654645 296.1655391553952 L 325.23190978982313 299.5425463864308 L 327.80748532089484 302.97664709452647 L 330.4275045802545 306.470006107006 L 333.09366580566564 310.0248877408875 L 335.8077463766992 313.6436618355989 L 338.5716076677682 317.328810223691 L 341.38720025797056 321.082933677294 L 344.25656952887744 324.90875937183654 L 347.1818616845388 328.80914891271834 L 349.5 331.7569232917299 L 349.5 331.11811706691856 L 349.5 330.49165856489014 L 349.5 329.8770714652294 L 349.5 329.27390199258593 L 349.5 328.6817175620267 L 349.5 328.1001055200362 L 349.5 327.5286719733514 L 349.5 326.96704069853655 L 349.5 326.41485212585155 L 349.5 325.8717623915463 L 349.5 325.33744245323766 L 349.5 324.8115772634953 L 349.5 324.29386499718834 L 349.5 323.7840163285271 L 349.5 323.2817537540812 L 349.5 322.78681095836885 L 349.5 322.2989322188968 L 349.5 321.8178718477875 L 349.5 321.3433936673634 L 349.5 320.8752705172731 L 349.5 320.4132837909352 L 349.5 319.9572229992526 L 349.5 319.5068853597114 L 349.5 319.062075409124 L 349.5 318.6226046384095 L 349.5 318.1882911479283 L 349.5 317.7589593219981 L 349.5 317.33443952132075 L 349.5 316.9145677921454 L 349.5 316.4991855910763 L 349.5 316.08813952451493 L 349.5 315.68128110179737 L 349.5 315.27846650115623 L 349.5 314.8795563476937 L 349.5 314.4844155026149 L 349.5 314.0929128630161 L 349.5 313.70492117157636 L 349.5 313.32031683553924 L 349.5 312.93897975441837 L 349.5 312.56079315589255 L 349.5 312.1856434393954 L 349.5 311.8134200269331 L 349.5 311.4440152206968 L 349.5 311.07732406706083 L 349.5 310.7132442265858 L 349.5 310.3516758496676 L 349.5 309.99252145749614 L 349.5 309.6356858280079 L 349.5 309.28107588653427 L 349.5 308.9286006008659 L 349.5 308.5781708804707 L 349.5 308.22969947961474 L 349.5 307.8831009041529 L 349.5 307.5382913217669 L 349.5 307.19518847544106 L 349.5 306.85371159997675 L 349.5 306.51378134135877 L 349.5 306.17531967879273 L 349.5 305.8382498492458 L 349.5 305.502496274328 L 349.5 305.1679844893607 L 349.5 304.8346410744856 L 349.5 304.50239358767345 L 349.5 304.1711704994989 L 349.5 303.84090112955215 L 349.5 303.5115155843647 L 349.5 303.182944696729 L 349.5 302.85511996629884 L 349.5 302.5279735013588 L 349.5 302.2014379616561 L 349.5 301.87544650219024 L 349.5 301.5499327178608 L 349.5 301.2248305888729 L 349.5 300.9000744268058 L 349.5 300.57559882124957 L 349.5 300.2513385869171 L 349.5 299.9272287111406 L 349.5 299.60320430166206 L 349.5 299.5" fill-opacity="1"/><path fill="#ffffff" stroke="none" paint-order="stroke fill markers" d="" fill-opacity="1"/><g><path fill="none" stroke="#ffffff" class="dcg-svg-curve" paint-order="fill stroke markers" d=" M 349.5 299.5 L 349.5 299.5 L 349.5 299.175989199568 L 349.5 298.85191358617374 L 349.5 298.52770829498576 L 349.5 298.20330835734535 L 349.5 297.8786486486325 L 349.5 297.55366383586596 L 349.5 297.22828832494713 L 349.5 296.90245620745844 L 349.5 296.57610120692294 L 349.5 296.2491566244314 L 349.5 295.92155528354186 L 349.5 295.59322947435373 L 349.5 295.2641108966555 L 349.5 294.93413060204455 L 349.5 294.60321893491124 L 349.5 294.27130547217917 L 349.5 293.9383189616874 L 349.5 293.60418725909756 L 349.5 293.268837263204 L 349.5 292.932194849519 L 349.5 292.5941848020023 L 349.5 292.25473074279466 L 349.5 291.9137550598125 L 349.5 291.5711788320513 L 349.5 291.22692175243844 L 349.5 290.880902048069 L 349.5 290.533036397649 L 349.5 290.18323984596 L 349.5 289.83142571515043 L 349.5 289.47750551264824 L 349.5 289.1213888354753 L 349.5 288.7629832707348 L 349.5 288.4021942920267 L 349.5 288.03892515153245 L 349.5 287.67307676749425 L 349.5 287.30454760679834 L 349.5 286.9332335623505 L 349.5 286.55902782491546 L 349.5 286.18182074906827 L 349.5 285.8014997128836 L 349.5 285.4179489709636 L 349.5 285.03104950037914 L 349.5 284.640678839068 L 349.5 284.2467109162051 L 349.5 283.8490158740228 L 349.5 283.4474598805266 L 349.5 283.04190493250576 L 349.5 282.63220864820323 L 349.5 282.2182240489546 L 349.5 281.7997993290612 L 349.5 281.3767776131038 L 349.5 280.9489966998459 L 349.5 280.51628879180953 L 349.5 280.0784802095353 L 349.5 279.6353910894644 L 349.5 279.18683506429255 L 349.5 278.73261892455855 L 349.5 278.2725422601271 L 349.5 277.80639708012023 L 349.5 277.33396740972915 L 349.5 276.8550288622125 L 349.5 276.3693481842406 L 349.5 275.87668277259263 L 349.5 275.37678016004077 L 349.5 274.8693774680689 L 349.5 274.3542008238653 L 349.5 273.8309647388045 L 349.5 273.29937144538087 L 349.5 272.75911018928355 L 349.5 272.2098564729962 L 349.5 271.65127124697113 L 349.5 271.0830000440554 L 349.5 270.50467205243564 L 349.5 269.9158991219127 L 349.5 269.3162746978121 L 349.5 268.7053726762748 L 349.5 268.08274617404777 L 349.5 267.447926205198 L 348.12576333113327 265.26768444151094 L 345.18219009757115 261.3429201300949 L 342.29524559122933 257.49366078830576 L 339.4627501552822 253.71700020704296 L 336.6826269676304 250.01016929017393 L 333.9528958786516 246.37052783820212 L 331.27166768280176 242.79555691040233 L 328.63713878872153 239.2828517182953 L 326.04758625574914 235.8301150076656 L 323.5013631676611 232.4351508902148 L 320.9968943170792 229.0958590894389 L 318.5326721763476 225.8102295684634 L 316.1072531328044 222.57633751040586 L 313.71925396829346 219.3923386243913 L 311.3673485644942 216.25646475265893 L 309.05026481721177 213.16701975628234 L 306.7667817441908 210.12237565892107 L 304.5157267722987 207.12096902973158 L 302.2959731910908 204.1612975881211 L 300.106437760829 201.24191701443868 L 297.94607846398674 198.36143795198228 L 295.8138923901496 195.51852318686613 L 293.7089137450183 192.71188499335767 L 291.6302119749468 189.94028263326237 L 289.57688999911386 187.20251999881847 L 287.54808254202965 184.49744338937285 L 285.5429545596362 181.8239394128483 L 283.5606997527636 179.18093300368474 L 281.6005391621715 176.56738554956206 L 279.6617198398288 173.98229311977173 L 277.743513591474 171.42468478863202 L 275.84521578585964 168.8936210478129 L 273.96614422640965 166.38819230187954 L 272.1056380813238 163.907517441765 L 270.2630568684394 161.45074249125253 L 268.43777949141884 159.01703932189173 L 266.62920332406543 156.60560443208718 L 264.8367433397883 154.2156577863844 L 263.05983128343917 151.8464417112522 L 261.2979148829258 149.49721984390106 L 259.55045709818233 147.1672761309098 L 257.8169354052307 144.85591387364101 L 256.09684111321616 142.56245481762153 L 254.38967871243386 140.28623828324515 L 252.69496525149034 138.02662033532044 L 251.01222974185643 135.7829729891419 L 249.34101258817927 133.5546834509057 L 247.68086504281825 131.34115339042438 L 246.03134868316212 129.1417982442162 L 244.39203491037136 126.9560465471618 L 242.76250446826782 124.78333929102382 L 241.14234698116874 122.62312930822503 L 239.53116050952858 120.47488067937144 L 237.92855112231777 118.33806816309038 L 236.33413248512554 116.212176646834 L 234.747525463027 114.09670061736932 L 233.16835773730892 111.99114364974525 L 231.5962634351917 109.89501791358896 L 230.0308827717317 107.80784369564225 L 228.47186170312716 105.72914893750288 L 226.91885159068872 103.65846878758492 L 225.37150887477003 101.59534516636 L 223.8294947579868 99.5393263439824 L 222.29247489708115 97.48996652944157 L 220.76011910281687 95.44682547042248 L 219.23210104731447 93.40946806308597 L 217.70809797826107 91.37746397101478 L 216.18779043944778 89.35038725259705 L 214.67086199710968 87.32781599614628 L 213.15699897155963 85.30933196207951 L 211.6458901736232 83.29452023149764 L 210.13722664539785 81.2829688605305 L 208.63070140487005 79.27426853982672 L 207.12600919393793 77.26801225858395 L 205.62284622939586 75.26379497252782 L 204.12090995644613 73.26121327526153 L 202.61989880431094 71.25986507241458 L 201.11951194352375 69.2593492580317 L 199.61944904448347 67.25926539264464 L 198.11941003686002 68.94078661752002 L 196.6190948694405 70.94120684074602 L 195.11820327000828 72.942395639989 L 193.61643450484587 74.94475399353882 L 192.11348713745247 76.94868381673007 L 190.60905878606403 78.95458828524801 L 189.1028458795606 80.9628721605859 L 187.59454341134136 82.97394211821154 L 186.08384469074022 84.98820707901308 L 184.57044109154964 87.00607854460048 L 183.05402179721048 89.02797093705271 L 181.5342735422161 91.05430194371183 L 180.01088034926792 93.08549286764276 L 178.4835232617063 95.12196898439163 L 176.95188007072719 97.16415990569709 L 175.41562503687865 99.21249995082849 L 173.8744286053142 101.26742852624778 L 172.3279571142603 103.32939051431964 L 170.7758724961354 105.39883667181948 L 169.21783197073393 107.47622403902147 L 167.65348772986422 109.56201636018102 L 166.08248661280305 111.6566845162626 L 164.50446977189833 113.76070697080223 L 162.9190723276225 115.87457022983665 L 161.3259230123416 117.99876931687788 L 159.72464380203124 120.13380826395837 L 158.11484953512814 122.28020061982915 L 156.49614751766447 124.43846997644738 L 154.86813711378448 126.60915051495402 L 153.23040932069412 128.7927875724078 L 151.58254632703867 130.9899382306151 L 149.92412105364713 133.2011719284705 L 148.25469667551798 135.4270710993094 L 146.57382612385356 137.66823183486196 L 144.88105156687857 139.92526457749528 L 143.17590386809832 142.19879484253562 L 141.4579020205689 144.48946397257478 L 139.7265525556598 146.79792992578697 L 137.98134892469116 149.1248681004118 L 136.22177085172194 151.47097219770404 L 134.44728365565066 153.83695512579905 L 132.65733753966686 156.22354994711083 L 130.85136684595713 158.63151087205713 L 129.0287892734271 161.0616143020972 L 127.18900505604135 163.5146599252782 L 125.3313960992187 165.99147186770836 L 123.45532507153195 168.49289990462404 L 121.56013444876929 171.01982073497427 L 119.64514550719349 173.57313932374203 L 117.70965726260783 176.15379031652287 L 115.75294535157984 178.76273953122686 L 113.7742608509038 181.40098553212826 L 111.77282903108029 184.06956129189294 L 109.74784803927147 186.76953594763805 L 107.69848750683083 189.5020166575589 L 105.6238870761294 192.26815056516074 L 103.52315484097299 195.06912687870266 L 101.39536569445355 197.90617907406192 L 99.2395595775735 200.78058722990198 L 97.05473962143988 203.69368050474685 L 94.8398701752225 206.64683976636996 L 92.5938747114236 209.6415003847685 L 90.31563359928091 212.6791552009588 L 88.0039817363505 215.76135768486597 L 85.65770602744277 218.889725296743 L 83.27554269914617 222.06594306780508 L 80.85617443712356 225.29176741716856 L 78.39822733222385 228.56903022370156 L 75.90026762018114 231.8996431730918 L 73.36079819828295 235.28560240228938 L 70.77825490084373 238.7289934655417 L 68.15100251361547 242.23199664851273 L 65.4773305053833 245.79689265948892 L 62.755448452897475 249.42606872947002 L 59.98348113297865 253.12202515602849 L 57.15946325304847 256.8873823292687 L 54.281333788478506 260.72488828202864 L 51.34692989194757 264.63742681073654 L 49.5 267.34566334715134 L 49.5 267.9824701498859 L 49.5 268.60700665919785 L 49.5 269.2197455099864 L 49.5 269.8211370145815 L 49.5 270.4116105016035 L 49.5 270.9915755604697 L 49.5 271.5614231992437 L 49.499999999999964 272.12152692281154 L 49.50000000000002 272.6722437377375 L 49.5 273.21391508957765 L 49.5 273.7468677379172 L 49.5 274.2714145739353 L 49.5 274.7878553848808 L 49.499999999999964 275.29647756946747 L 49.5 275.79755680785564 L 49.5 276.29135768957804 L 49.5 276.7781343024866 L 49.5 277.2581307855478 L 49.5 277.73158184807744 L 49.5 278.1987132578018 L 49.5 278.6597422999372 L 49.50000000000002 279.114878209311 L 49.5 279.5643225773836 L 49.5 280.0082697358918 L 49.5 280.44690711869816 L 49.5 280.88041560331226 L 49.5 281.3089698334402 L 49.5 281.7327385238149 L 49.5 282.1518847484714 L 49.5 282.5665662135419 L 49.5 282.97693551557165 L 49.5 283.38314038628226 L 49.5 283.7853239246444 L 49.5 284.1836248170616 L 49.50000000000002 284.5781775464107 L 49.5 284.96911259063353 L 49.5 285.3565566115261 L 49.50000000000002 285.7406326343299 L 49.5 286.1214602186882 L 49.5 286.49915562149187 L 49.5 286.87383195210947 L 49.5 287.2455993204581 L 49.5 287.6145649783478 L 49.5 287.98083345450186 L 49.5 288.34450668363127 L 49.5 288.7056841299176 L 49.5 289.0644629052388 L 49.5 289.4209378824494 L 49.5 289.7752018040101 L 49.5 290.12734538624466 L 49.5 290.4774574194844 L 49.5 290.8256248643472 L 49.5 291.1719329443834 L 49.5 291.51646523530826 L 49.5 291.8593037510295 L 49.5 292.20052902666555 L 49.5 292.5402201987431 L 49.5 292.87845508274904 L 49.5 293.2153102482067 L 49.5 293.5508610914361 L 49.5 293.88518190615076 L 49.5 294.21834595203677 L 49.50000000000002 294.5504255214543 L 49.5 294.8814920043934 L 49.5 295.21161595181275 L 49.5 295.54086713748484 L 49.5 295.8693146184638 L 49.5 296.19702679429236 L 49.5 296.5240714650556 L 49.5 296.85051588838996 L 49.50000000000002 297.17642683554993 L 49.5 297.50187064663345 L 49.5 297.82691328506394 L 49.5 298.1516203914254 L 49.50000000000002 298.4760573367436 L 49.50000000000002 298.80028927530714 L 49.5 299.12438119711754 L 49.5 299.4483979800604 L 49.5 299.772404441885 L 49.5 300.096465392082 L 49.5 300.42064568374667 L 49.499999999999964 300.74501026551695 L 49.5 301.06962423367315 L 49.5 301.39455288449034 L 49.5 301.7198617669309 L 49.5 302.04561673576916 L 49.5 302.3718840052405 L 49.5 302.6987302033061 L 49.5 303.0262224266319 L 49.5 303.35442829637594 L 49.5 303.68341601488635 L 49.5 304.013254423411 L 49.5 304.34401306092496 L 49.5 304.67576222418506 L 49.5 305.0085730291233 L 49.5 305.34251747369683 L 49.5 305.6776685023153 L 49.5 306.0141000719719 L 49.50000000000002 306.3518872202094 L 49.50000000000002 306.69110613505904 L 49.5 307.0318342270955 L 49.5 307.37415020375784 L 49.5 307.71813414609557 L 49.5 308.0638675881046 L 49.5 308.41143359882676 L 49.5 308.76091686739863 L 49.5 309.1124037912404 L 49.499999999999964 309.4659825675919 L 49.5 309.82174328860896 L 49.50000000000002 310.17977804025145 L 49.5 310.54018100520193 L 49.50000000000002 310.90304857007317 L 49.5 311.26847943717655 L 49.5 311.6365747411385 L 49.5 312.0074381706742 L 49.5 312.38117609584384 L 49.499999999999964 312.7578977011382 L 49.5 313.1377151247667 L 49.5 313.5207436045407 L 49.5 313.90710163077364 L 49.5 314.2969111066499 L 49.5 314.6902975165423 L 49.5 315.0873901027932 L 49.5 315.4883220515109 L 49.50000000000002 315.89323068797023 L 49.5 316.3022576822522 L 49.5 316.71554926579984 L 49.5 317.13325645961913 L 49.5 317.5555353149105 L 49.5 317.9825471669692 L 49.5 318.4144589032642 L 49.5 318.8514432466691 L 49.5 319.2936790548972 L 49.5 319.7413516372759 L 49.5 320.1946530900817 L 49.50000000000002 320.6537826517621 L 49.5 321.11894707946954 L 49.499999999999964 321.5903610484576 L 49.5 322.0682475760113 L 49.5 322.552838471729 L 49.5 323.04437481612194 L 49.50000000000002 323.54310746967 L 49.5 324.0492976146559 L 49.5 324.5632173323013 L 49.5 325.0851502179555 L 49.5 325.61539203733025 L 49.5 326.1542514270466 L 49.5 326.70205064305924 L 49.5 327.2591263608536 L 49.5 327.82583053167565 L 49.5 328.4025312994605 L 49.5 328.9896139835722 L 49.5 329.587482132964 L 49.5 330.1965586579229 L 49.5 330.8172870461738 L 49.5 331.45013267080276 L 50.400049207745845 330.6999343896722 L 53.35284982835737 326.7628668955235 L 56.248664650799554 322.9017804656006 L 59.08969030961563 319.1137462538459 L 61.878019580603805 315.3959738925283 L 64.61564761566129 311.7458031791183 L 67.30447773782579 308.1606963495656 L 69.9463268324075 304.63823089012334 L 72.54293036680724 301.176092844257 L 75.09594706864175 297.7720705751443 L 77.60696328913677 294.4240489478176 L 80.07749707634375 291.1300038982083 L 82.50900198058187 287.8879973592242 L 84.90287061254807 284.6961725166026 L 87.26043797278572 281.55274936961905 L 89.58298456960478 278.4560205738603 L 91.87173934111169 275.4043475451844 L 94.12788239569453 272.39615680574065 L 96.35254758413195 269.4299365544907 L 98.54682491541512 266.5042334461132 L 100.71176282739877 263.6176495634683 L 102.84837032250329 260.76883956999563 L 104.9576189778859 257.95650802948546 L 107.04044483875667 255.17940688165777 L 109.09775020284732 252.43633306287023 L 111.13040530341792 249.72612626210946 L 113.13924989763352 247.04766680315532 L 115.1250947666218 244.39987364450428 L 117.08872313305768 241.78170248925642 L 119.03089200168382 239.1921439977549 L 120.95233342778619 236.63022209628508 L 122.85375571827525 234.09499237563298 L 124.73584456969701 231.58554057373732 L 126.59926414718258 229.10098113708992 L 128.444658108071 226.64045585590534 L 130.27265057367683 224.20313256843087 L 132.08384705243387 221.78820393008817 L 133.87883531743074 219.39488624342567 L 135.65818624114385 217.02241834514157 L 137.42245458999247 214.67006054667672 L 139.1721797811624 212.33709362511678 L 140.90788660398863 210.02281786134853 L 142.63008590803463 207.72655212262052 L 144.3392752598744 205.44763298683415 L 146.03593957045135 203.1854139060649 L 147.72055169477642 200.9392644069648 L 149.3935730056129 198.70856932584954 L 151.05545394269996 196.49272807640006 L 152.70663453897026 194.29115394803966 L 154.34754492513315 192.10327343315583 L 155.97860581391072 189.9285255814524 L 157.6002289651439 187.76636137980816 L 159.2128176329125 185.61624315611667 L 160.8167669957537 183.47764400566174 L 162.41246457099766 181.3500472386698 L 164.0002906141898 179.23294584774698 L 165.58061850451304 177.12584199398265 L 167.15381511708085 175.0282465105589 L 168.72024118292103 172.93967842277195 L 170.28025163743584 170.85966448341887 L 171.83419595808215 168.78773872255712 L 173.38241849198062 166.72344201069254 L 174.92525877413317 164.66632163448915 L 176.4630518368931 162.61593088414256 L 177.9961285113091 160.57182865158785 L 179.52481572093578 158.5335790387523 L 181.04943676868268 156.50075097508977 L 182.5703116172484 154.47291784366877 L 184.0877571636705 152.44965711510602 L 185.60208750850097 150.4305499886654 L 187.11361422010418 148.41518103986107 L 188.62264659455494 146.40313787392677 L 190.12949191160484 144.39401078452687 L 191.63445568717196 142.38739241710402 L 193.1378419227993 140.38287743626756 L 194.63995335251636 138.38006219664487 L 196.14109168753342 136.3785444166221 L 197.64155785918953 134.3779228544139 L 199.14165226057227 132.37779698590361 L 200.64167498721974 133.42223331629293 L 202.1419260773176 135.42256810309016 L 203.6427057517973 137.42360766906307 L 205.14431465474678 139.42575287299564 L 206.6470540945396 141.42940545938615 L 208.15122628609694 143.43496838146257 L 209.6571345946951 145.44284612626015 L 211.1650837817384 147.4534450423179 L 212.67538025292347 149.4671736705646 L 214.1883323092252 151.48444307896696 L 215.7042504011462 153.50566720152824 L 217.22344738667832 155.53126318223772 L 218.74623879344 157.56165172458665 L 220.27294308546 159.59725744728004 L 221.80388193509683 161.6385092467958 L 223.33938050059626 163.68584066746166 L 224.87976770980893 165.73969027974522 L 226.42537655060394 167.80050206747194 L 227.97654436854157 169.86872582472205 L 229.5336131723844 171.94481756317916 L 231.09692994805727 174.02923993074307 L 232.6668469816858 176.12246264224777 L 234.24372219237858 178.2249629231715 L 235.82791947544547 180.33722596726065 L 237.41980905678122 182.45974540904166 L 239.019767859176 184.59302381223466 L 240.62817988135978 186.73757317514637 L 242.24543659062314 188.89391545416422 L 243.87193732991184 191.06258310654914 L 245.50808974033086 193.2441196537745 L 247.15431020005852 195.43908026674472 L 248.8110242807199 197.64803237429314 L 250.47866722233508 199.87155629644678 L 252.15768442802536 202.11024590403383 L 253.84853197972714 204.36470930630284 L 255.55167717624767 206.63556956833023 L 257.2675990950745 208.92346546009932 L 258.99678917944567 211.22905223926094 L 260.73975185227926 213.55300246970563 L 262.4970051586703 215.89600687822707 L 264.2690814387748 218.25877525169972 L 266.05652803302195 220.6420373773626 L 267.85990802172785 223.04654402897046 L 269.6798010013273 225.47306800176972 L 271.51680389959375 227.92240519945832 L 273.371531832386 230.39537577651467 L 275.24461900463683 232.89282533951578 L 277.13671965849943 235.41562621133255 L 279.04850907177513 237.96467876236684 L 280.98068460998047 240.54091281330733 L 282.9339668356551 243.1452891142068 L 284.9091006787887 245.77880090505164 L 286.9068566725365 248.44247556338198 L 288.9280322587147 251.13737634495303 L 290.973453167914 253.86460422388535 L 293.0439748794495 256.625299839266 L 295.1404841667822 259.4206455557096 L 297.26390073449164 262.2518676459888 L 299.41517895338137 265.12023860450853 L 301.595309700828 268.02707960110405 L 303.8053223140798 270.9737630854397 L 306.04628666485246 273.96171555313657 L 308.31931536427925 276.9924204857056 L 310.6255661080395 280.06742147738595 L 312.9662441723489 283.1883255631319 L 315.3426050724209 286.35680676322784 L 317.7559573960406 289.5746098613875 L 320.20766582601954 292.84355443469275 L 322.69915436654645 296.1655391553952 L 325.23190978982313 299.5425463864308 L 327.80748532089484 302.97664709452647 L 330.4275045802545 306.470006107006 L 333.09366580566564 310.0248877408875 L 335.8077463766992 313.6436618355989 L 338.5716076677682 317.328810223691 L 341.38720025797056 321.082933677294 L 344.25656952887744 324.90875937183654 L 347.1818616845388 328.80914891271834 L 349.5 331.7569232917299 L 349.5 331.11811706691856 L 349.5 330.49165856489014 L 349.5 329.8770714652294 L 349.5 329.27390199258593 L 349.5 328.6817175620267 L 349.5 328.1001055200362 L 349.5 327.5286719733514 L 349.5 326.96704069853655 L 349.5 326.41485212585155 L 349.5 325.8717623915463 L 349.5 325.33744245323766 L 349.5 324.8115772634953 L 349.5 324.29386499718834 L 349.5 323.7840163285271 L 349.5 323.2817537540812 L 349.5 322.78681095836885 L 349.5 322.2989322188968 L 349.5 321.8178718477875 L 349.5 321.3433936673634 L 349.5 320.8752705172731 L 349.5 320.4132837909352 L 349.5 319.9572229992526 L 349.5 319.5068853597114 L 349.5 319.062075409124 L 349.5 318.6226046384095 L 349.5 318.1882911479283 L 349.5 317.7589593219981 L 349.5 317.33443952132075 L 349.5 316.9145677921454 L 349.5 316.4991855910763 L 349.5 316.08813952451493 L 349.5 315.68128110179737 L 349.5 315.27846650115623 L 349.5 314.8795563476937 L 349.5 314.4844155026149 L 349.5 314.0929128630161 L 349.5 313.70492117157636 L 349.5 313.32031683553924 L 349.5 312.93897975441837 L 349.5 312.56079315589255 L 349.5 312.1856434393954 L 349.5 311.8134200269331 L 349.5 311.4440152206968 L 349.5 311.07732406706083 L 349.5 310.7132442265858 L 349.5 310.3516758496676 L 349.5 309.99252145749614 L 349.5 309.6356858280079 L 349.5 309.28107588653427 L 349.5 308.9286006008659 L 349.5 308.5781708804707 L 349.5 308.22969947961474 L 349.5 307.8831009041529 L 349.5 307.5382913217669 L 349.5 307.19518847544106 L 349.5 306.85371159997675 L 349.5 306.51378134135877 L 349.5 306.17531967879273 L 349.5 305.8382498492458 L 349.5 305.502496274328 L 349.5 305.1679844893607 L 349.5 304.8346410744856 L 349.5 304.50239358767345 L 349.5 304.1711704994989 L 349.5 303.84090112955215 L 349.5 303.5115155843647 L 349.5 303.182944696729 L 349.5 302.85511996629884 L 349.5 302.5279735013588 L 349.5 302.2014379616561 L 349.5 301.87544650219024 L 349.5 301.5499327178608 L 349.5 301.2248305888729 L 349.5 300.9000744268058 L 349.5 300.57559882124957 L 349.5 300.2513385869171 L 349.5 299.9272287111406 L 349.5 299.60320430166206 L 349.5 299.5" stroke-linecap="round" stroke-linejoin="round" stroke-miterlimit="10" stroke-width="2.5" stroke-opacity="1" stroke-dasharray=""/></g></g></g><g id="labels-cdd97c0e"/></g></svg>