<svg version="1.1" xmlns="http://www.w3.org/2000/svg" xmlns:xlink="http://www.w3.org/1999/xlink" width="800" height="800"><defs/><g transform="scale(2,2)"><g id="background-6731c006"></g><g id="background-images-6731c006"/><g id="graphpaper-6731c006"><g id="axis-6731c006"><g><g><path fill="none" stroke="rgb(0,0,0)" class="dcg-svg-tickmark" paint-order="fill stroke markers" d="" stroke-opacity="1" stroke-miterlimit="2" stroke-width="1.5" stroke-dasharray=""/></g></g></g></g><g id="expressions-6731c006"><g id="sketch-6731c006"><title>Expression 99</title><path fill="#ffffff" stroke="none" class="dcg-svg-region" paint-order="stroke fill markers" d=" M 349.5 299.5 L 349.5 299.13798793285065 L 349.5 298.7759034512188 L 349.5 298.4136740826693 L 349.5 298.0512272387624 L 349.5 297.68849015680547 L 349.5 297.325389841307 L 349.5 296.9618530050335 L 349.5 296.59780600956776 L 349.5 296.2331748052658 L 349.5 295.8678848705067 L 349.5 295.50186115013014 L 349.5 295.13502799295077 L 349.5 294.76730908823856 L 349.5 294.39862740104974 L 349.5 294.0289051062897 L 349.5 293.6580635213854 L 349.5 293.2860230374408 L 349.5 292.91270304874485 L 349.5 292.5380218804933 L 349.5 292.1618967145861 L 349.5 291.7842435133482 L 349.5 291.4049769410236 L 349.5 291.02401028287693 L 349.5 290.64125536173634 L 349.5 290.2566224517985 L 349.5 289.8700201895092 L 349.5 289.4813554813239 L 349.5 289.09053340814046 L 349.5 288.6974571261866 L 349.5 288.30202776413165 L 349.5 287.90414431617916 L 349.5 287.5037035308827 L 349.5 287.10059979541256 L 349.5 286.69472501498376 L 349.5 286.28596848713863 L 349.5 285.87421677055863 L 349.5 285.4593535480583 L 349.5 285.0412594833932 L 349.5 284.61981207148983 L 349.5 284.1948854816785 L 349.5 283.766350393484 L 349.5 283.33407382449764 L 349.5 282.8979189498229 L 349.5 282.4577449125501 L 349.5 282.0134066246799 L 349.5 281.56475455787233 L 349.5 281.11163452335524 L 349.5 280.65388744027643 L 349.5 280.1913490917333 L 349.5 279.7238498676548 L 349.5 279.251214493653 L 349.5 278.7732617448896 L 349.5 278.2898041439354 L 349.5 277.80064764151786 L 349.5 277.3055912789695 L 349.5 276.8044268310923 L 349.5 276.29693842805614 L 349.5 275.7829021548334 L 349.5 275.26208562655404 L 349.5 274.73424753803073 L 349.5 274.19913718555847 L 349.5 273.6564939589355 L 349.5 273.10604680147696 L 349.5 272.54751363560115 L 349.5 271.98060075136095 L 349.5 271.4050021550594 L 349.5 270.8203988748371 L 349.5 270.2264582198391 L 349.5 269.6228329892613 L 349.5 269.0091606272365 L 349.5 268.38506231914675 L 349.5 267.750142024531 L 349.5 267.1039854413015 L 349.5 266.4461588954703 L 349.5 265.77620815002456 L 349.5 265.0936571259614 L 349.5 264.3980065277941 L 349.5 263.6887323650669 L 348.12576333113327 261.467684441511 L 345.18219009757115 257.5429201300949 L 342.29524559122933 253.69366078830575 L 339.4627501552822 249.91700020704295 L 336.6826269676304 246.2101692901739 L 333.9528958786516 242.5705278382021 L 331.27166768280176 238.99555691040234 L 328.63713878872153 235.4828517182953 L 326.04758625574914 232.03011500766556 L 323.5013631676611 228.63515089021476 L 320.9968943170792 225.2958590894389 L 318.5326721763476 222.01022956846342 L 316.1072531328044 218.77633751040582 L 313.71925396829346 215.5923386243913 L 311.3673485644942 212.45646475265892 L 309.05026481721177 209.36701975628233 L 306.7667817441908 206.32237565892106 L 304.5157267722987 203.3209690297316 L 302.2959731910908 200.3612975881211 L 300.106437760829 197.4419170144387 L 297.94607846398674 194.56143795198224 L 295.8138923901496 191.71852318686615 L 293.7089137450183 188.91188499335772 L 291.6302119749468 186.14028263326236 L 289.57688999911386 183.40251999881846 L 287.54808254202965 180.69744338937286 L 285.5429545596362 178.02393941284825 L 283.5606997527636 175.38093300368476 L 281.6005391621715 172.76738554956202 L 279.6617198398288 170.1822931197717 L 277.743513591474 167.624684788632 L 275.84521578585964 165.0936210478129 L 273.96614422640965 162.58819230187956 L 272.1056380813238 160.10751744176497 L 270.2630568684394 157.6507424912525 L 268.43777949141884 155.21703932189175 L 266.62920332406543 152.8056044320872 L 264.8367433397883 150.41565778638443 L 263.05983128343917 148.0464417112522 L 261.2979148829258 145.69721984390105 L 259.55045709818233 143.36727613090977 L 257.8169354052307 141.05591387364097 L 256.09684111321616 138.76245481762152 L 254.38967871243386 136.48623828324514 L 252.69496525149034 134.22662033532043 L 251.01222974185643 131.98297298914184 L 249.34101258817927 129.7546834509057 L 247.68086504281825 127.54115339042437 L 246.03134868316212 125.34179824421619 L 244.39203491037136 123.1560465471618 L 242.76250446826782 120.98333929102375 L 241.14234698116874 118.82312930822502 L 239.53116050952858 116.67488067937143 L 237.92855112231777 114.53806816309037 L 236.33413248512554 112.41217664683398 L 234.747525463027 110.29670061736931 L 233.16835773730892 108.19114364974519 L 231.5962634351917 106.09501791358889 L 230.0308827717317 104.00784369564224 L 228.47186170312716 101.92914893750287 L 226.91885159068872 99.85846878758491 L 225.37150887477003 97.79534516636 L 223.8294947579868 95.73932634398238 L 222.29247489708115 93.68996652944156 L 220.76011910281687 91.64682547042247 L 219.23210104731447 89.60946806308596 L 217.70809797826107 87.57746397101471 L 216.18779043944778 85.55038725259703 L 214.67086199710968 83.52781599614622 L 213.15699897155963 81.50933196207944 L 211.6458901736232 79.49452023149757 L 210.13722664539785 77.48296886053049 L 208.63070140487005 75.47426853982671 L 207.12600919393793 73.46801225858394 L 205.62284622939586 71.46379497252781 L 204.12090995644613 69.46121327526146 L 202.61989880431094 67.45986507241457 L 201.11951194352375 65.45934925803164 L 199.61944904448347 63.459265392644625 L 198.11941003686002 65.14078661751995 L 196.6190948694405 67.14120684074601 L 195.11820327000828 69.14239563998899 L 193.61643450484587 71.14475399353887 L 192.11348713745247 73.14868381673006 L 190.60905878606403 75.154588285248 L 189.1028458795606 77.16287216058589 L 187.59454341134136 79.17394211821153 L 186.08384469074022 81.18820707901301 L 184.57044109154964 83.20607854460047 L 183.05402179721048 85.2279709370527 L 181.5342735422161 87.25430194371188 L 180.01088034926792 89.28549286764274 L 178.4835232617063 91.32196898439156 L 176.95188007072719 93.36415990569708 L 175.41562503687865 95.41249995082848 L 173.8744286053142 97.46742852624772 L 172.3279571142603 99.52939051431963 L 170.7758724961354 101.59883667181947 L 169.21783197073393 103.6762240390214 L 167.65348772986422 105.76201636018101 L 166.08248661280305 107.85668451626265 L 164.50446977189833 109.96070697080222 L 162.9190723276225 112.0745702298367 L 161.3259230123416 114.19876931687787 L 159.72464380203124 116.33380826395836 L 158.11484953512814 118.48020061982913 L 156.49614751766447 120.63846997644737 L 154.86813711378448 122.80915051495401 L 153.23040932069412 124.99278757240785 L 151.58254632703867 127.1899382306151 L 149.92412105364713 129.4011719284705 L 148.25469667551798 131.62707109930938 L 146.57382612385356 133.86823183486194 L 144.88105156687857 136.12526457749522 L 143.17590386809832 138.39879484253555 L 141.4579020205689 140.6894639725748 L 139.7265525556598 142.99792992578693 L 137.98134892469116 145.32486810041178 L 136.22177085172194 147.6709721977041 L 134.44728365565066 150.03695512579907 L 132.65733753966686 152.42354994711084 L 130.85136684595713 154.83151087205715 L 129.0287892734271 157.26161430209723 L 127.18900505604135 159.7146599252782 L 125.3313960992187 162.19147186770837 L 123.45532507153195 164.69289990462406 L 121.56013444876929 167.2198207349743 L 119.64514550719349 169.77313932374204 L 117.70965726260783 172.35379031652292 L 115.75294535157984 174.96273953122687 L 113.7742608509038 177.60098553212828 L 111.77282903108029 180.26956129189296 L 109.74784803927147 182.969535947638 L 107.69848750683083 185.70201665755891 L 105.6238870761294 188.46815056516076 L 103.52315484097299 191.26912687870268 L 101.39536569445355 194.10617907406194 L 99.2395595775735 196.980587229902 L 97.05473962143988 199.8936805047468 L 94.8398701752225 202.84683976636998 L 92.5938747114236 205.84150038476852 L 90.31563359928091 208.8791552009588 L 88.0039817363505 211.96135768486602 L 85.65770602744277 215.08972529674296 L 83.27554269914617 218.2659430678051 L 80.85617443712356 221.49176741716857 L 78.39822733222385 224.76903022370152 L 75.90026762018114 228.0996431730918 L 73.36079819828295 231.4856024022894 L 70.77825490084373 234.92899346554168 L 68.15100251361547 238.4319966485127 L 65.4773305053833 241.99689265948894 L 62.755448452897475 245.62606872947003 L 59.98348113297865 249.32202515602845 L 57.15946325304847 253.0873823292687 L 54.281333788478506 256.92488828202863 L 51.34692989194757 260.8374268107366 L 49.5 263.57447571502706 L 49.5 264.28596973536634 L 49.5 264.9837543537951 L 49.5 265.66835763770086 L 49.5 266.34028271382255 L 49.5 267.00000926413725 L 49.5 267.6479949163272 L 49.5 268.28467653742655 L 49.499999999999964 268.91047143845 L 49.50000000000002 269.5257784971018 L 49.5 270.13097920502196 L 49.5 270.72643864545074 L 49.5 271.31250640668077 L 49.5 271.88951743619396 L 49.499999999999964 272.4577928399606 L 49.5 273.01764063099927 L 49.5 273.5693564309483 L 49.5 274.1132241280868 L 49.5 274.6495164949638 L 49.5 275.1784957685309 L 49.5 275.7004141954452 L 49.5 276.21551454499155 L 49.50000000000002 276.72403059188446 L 49.5 277.22618757102737 L 49.5 277.72220260615074 L 49.5 278.212285114101 L 49.5 278.69663718641687 L 49.5 279.17545394970784 L 49.5 279.64892390623766 L 49.5 280.1172292560081 L 49.5 280.58054620154985 L 49.5 281.03904523653375 L 49.5 281.49289141924135 L 49.5 281.9422446318558 L 49.5 282.3872598264701 L 49.50000000000002 282.8280872586441 L 49.5 283.2648727092881 L 49.5 283.69775769559396 L 49.50000000000002 284.12687967168966 L 49.5 284.55237221964546 L 49.5 284.97436523141994 L 49.5 285.3929850822951 L 49.5 285.8083547963143 L 49.5 286.2205942042034 L 49.5 286.6298200942274 L 49.5 287.0361463564028 L 49.5 287.4396841204634 L 49.5 287.840541887952 L 49.5 288.238825658786 L 49.5 288.6346390526286 L 49.5 289.0280834253721 L 49.5 289.41925798102886 L 49.5 289.8082598793015 L 49.5 290.195184339095 L 49.5 290.58012473821486 L 49.5 290.96317270948356 L 49.5 291.3444182334967 L 49.5 291.7239497282253 L 49.5 292.101854135664 L 49.5 292.4782170057124 L 49.5 292.85312257746875 L 49.5 293.2266538581067 L 49.5 293.5988926994979 L 49.50000000000002 293.969919872736 L 49.5 294.33981514071115 L 49.5 294.7086573288773 L 49.5 295.0765243943503 L 49.5 295.4434934934688 L 49.5 295.80964104794396 L 49.5 296.17504280972264 L 49.5 296.53977392468266 L 49.50000000000002 296.90390899527495 L 49.5 297.26752214222626 L 49.5 297.63068706541094 L 49.5 297.99347710399996 L 49.50000000000002 298.3559652959913 L 49.50000000000002 298.7182244372259 L 49.5 299.0803271399894 L 49.5 299.44234589130207 L 49.5 299.80435311099495 L 49.5 300.16642120967185 L 49.5 300.5286226466552 L 49.499999999999964 300.8910299880159 L 49.5 301.25371596478294 L 49.5 301.61675353143676 L 49.5 301.98021592478074 L 49.5 302.34417672329766 L 49.5 302.70870990708966 L 49.5 303.07388991850866 L 49.5 303.4397917235825 L 49.5 303.80649087434597 L 49.5 304.17406357218783 L 49.5 304.54258673232954 L 49.5 304.91213804955197 L 49.5 305.28279606529316 L 49.5 305.6546402362427 L 49.5 306.0277510045625 L 49.5 306.4022098698708 L 49.5 306.778099463129 L 49.50000000000002 307.1555036225796 L 49.50000000000002 307.53450747188697 L 49.5 307.9151975006437 L 49.5 308.2976616474084 L 49.5 308.6819893854525 L 49.5 309.0682718114008 L 49.5 309.4566017369608 L 49.5 309.84707378394535 L 49.5 310.2397844828056 L 49.499999999999964 310.634832374902 L 49.5 311.0323181187544 L 49.50000000000002 311.4323446005278 L 49.5 311.83501704902187 L 49.50000000000002 312.2404431554521 L 49.5 312.6487331983269 L 49.5 313.0600001737411 L 49.5 313.47435993143233 L 49.5 313.8919313169613 L 49.499999999999964 314.3128363204074 L 49.5 314.73720023199246 L 49.5 315.16515180507326 L 49.5 315.5968234269755 L 49.5 316.0323512981706 L 49.5 316.47187562033434 L 49.5 316.9155407938616 L 49.5 317.36349562545354 L 49.50000000000002 317.8158935464358 L 49.5 318.2728928425164 L 49.5 318.7346568957393 L 49.5 319.20135443945105 L 49.5 319.6731598271531 L 49.5 320.15025331618165 L 49.5 320.6328213672273 L 49.5 321.1210569607846 L 49.5 321.61515993170616 L 49.5 322.1153373231292 L 49.5 322.6218037611407 L 49.50000000000002 323.13478185166014 L 49.5 323.6545026011358 L 49.499999999999964 324.1812058627829 L 49.5 324.71514081023486 L 49.5 325.25656644063554 L 49.5 325.8057521093708 L 49.50000000000002 326.3629780988289 L 49.5 326.9285362237822 L 49.5 327.5027304762132 L 49.5 328.085877712654 L 49.5 328.67830838738746 L 49.5 329.280367335157 L 49.5 329.89241460736866 L 49.5 330.5148263661389 L 49.5 331.14799584094624 L 49.5 331.79233435310096 L 49.5 332.44827241374423 L 49.5 333.116260901645 L 49.5 333.79677232767926 L 49.5 334.49030219356456 L 49.5 335.1973704531809 L 50.400049207745845 334.4999343896722 L 53.35284982835737 330.5628668955235 L 56.248664650799554 326.70178046560056 L 59.08969030961563 322.91374625384583 L 61.878019580603805 319.19597389252823 L 64.61564761566129 315.54580317911825 L 67.30447773782579 311.96069634956564 L 69.9463268324075 308.43823089012335 L 72.54293036680724 304.97609284425704 L 75.09594706864175 301.5720705751443 L 77.60696328913677 298.2240489478176 L 80.07749707634375 294.9300038982083 L 82.50900198058187 291.68799735922414 L 84.90287061254807 288.4961725166026 L 87.26043797278572 285.352749369619 L 89.58298456960478 282.2560205738603 L 91.87173934111169 279.2043475451844 L 94.12788239569453 276.19615680574066 L 96.35254758413195 273.22993655449073 L 98.54682491541512 270.3042334461132 L 100.71176282739877 267.41764956346833 L 102.84837032250329 264.5688395699956 L 104.9576189778859 261.7565080294854 L 107.04044483875667 258.9794068816577 L 109.09775020284732 256.23633306287024 L 111.13040530341792 253.52612626210944 L 113.13924989763352 250.8476668031553 L 115.1250947666218 248.19987364450427 L 117.08872313305768 245.58170248925643 L 119.03089200168382 242.9921439977549 L 120.95233342778619 240.4302220962851 L 122.85375571827525 237.894992375633 L 124.73584456969701 235.38554057373733 L 126.59926414718258 232.9009811370899 L 128.444658108071 230.44045585590536 L 130.27265057367683 228.00313256843089 L 132.08384705243387 225.58820393008818 L 133.87883531743074 223.19488624342569 L 135.65818624114385 220.82241834514156 L 137.42245458999247 218.4700605466767 L 139.1721797811624 216.1370936251168 L 140.90788660398863 213.8228178613485 L 142.63008590803463 211.5265521226205 L 144.3392752598744 209.24763298683413 L 146.03593957045135 206.9854139060649 L 147.72055169477642 204.7392644069648 L 149.3935730056129 202.50856932584952 L 151.05545394269996 200.29272807640004 L 152.70663453897026 198.09115394803962 L 154.34754492513315 195.90327343315582 L 155.97860581391072 193.72852558145237 L 157.6002289651439 191.56636137980814 L 159.2128176329125 189.4162431561166 L 160.8167669957537 187.27764400566173 L 162.41246457099766 185.15004723866977 L 164.0002906141898 183.03294584774696 L 165.58061850451304 180.92584199398263 L 167.15381511708085 178.82824651055887 L 168.72024118292103 176.739678422772 L 170.28025163743584 174.65966448341888 L 171.83419595808215 172.5877387225571 L 173.38241849198062 170.52344201069252 L 174.92525877413317 168.46632163448913 L 176.4630518368931 166.41593088414248 L 177.9961285113091 164.37182865158783 L 179.52481572093578 162.33357903875228 L 181.04943676868268 160.30075097508973 L 182.5703116172484 158.2729178436688 L 184.0877571636705 156.249657115106 L 185.60208750850097 154.2305499886654 L 187.11361422010418 152.21518103986108 L 188.62264659455494 150.2031378739268 L 190.12949191160484 148.19401078452685 L 191.63445568717196 146.18739241710406 L 193.1378419227993 144.18287743626757 L 194.63995335251636 142.18006219664488 L 196.14109168753342 140.17854441662206 L 197.64155785918953 138.17792285441396 L 199.14165226057227 136.17779698590368 L 200.64167498721974 137.222233316293 L 202.1419260773176 139.22256810309017 L 203.6427057517973 141.22360766906309 L 205.14431465474678 143.2257528729957 L 206.6470540945396 145.22940545938616 L 208.15122628609694 147.2349683814626 L 209.6571345946951 149.24284612626016 L 211.1650837817384 151.25344504231788 L 212.67538025292347 153.26717367056463 L 214.1883323092252 155.28444307896694 L 215.7042504011462 157.30566720152825 L 217.22344738667832 159.33126318223776 L 218.74623879344 161.3616517245867 L 220.27294308546 163.39725744728003 L 221.80388193509683 165.43850924679572 L 223.33938050059626 167.4858406674617 L 224.87976770980893 169.53969027974523 L 226.42537655060394 171.60050206747192 L 227.97654436854157 173.66872582472206 L 229.5336131723844 175.74481756317917 L 231.09692994805727 177.82923993074306 L 232.6668469816858 179.92246264224775 L 234.24372219237858 182.02496292317147 L 235.82791947544547 184.13722596726066 L 237.41980905678122 186.25974540904164 L 239.019767859176 188.3930238122347 L 240.62817988135978 190.53757317514635 L 242.24543659062314 192.69391545416426 L 243.87193732991184 194.86258310654912 L 245.50808974033086 197.04411965377452 L 247.15431020005852 199.2390802667447 L 248.8110242807199 201.44803237429318 L 250.47866722233508 203.6715562964468 L 252.15768442802536 205.91024590403384 L 253.84853197972714 208.16470930630285 L 255.55167717624767 210.43556956833024 L 257.2675990950745 212.72346546009933 L 258.99678917944567 215.02905223926095 L 260.73975185227926 217.35300246970561 L 262.4970051586703 219.69600687822708 L 264.2690814387748 222.05877525169973 L 266.05652803302195 224.4420373773626 L 267.85990802172785 226.84654402897044 L 269.6798010013273 229.27306800176973 L 271.51680389959375 231.7224051994583 L 273.371531832386 234.19537577651468 L 275.24461900463683 236.69282533951576 L 277.13671965849943 239.21562621133256 L 279.04850907177513 241.76467876236683 L 280.98068460998047 244.34091281330734 L 282.9339668356551 246.9452891142068 L 284.9091006787887 249.57880090505162 L 286.9068566725365 252.242475563382 L 288.9280322587147 254.93737634495304 L 290.973453167914 257.66460422388536 L 293.0439748794495 260.425299839266 L 295.1404841667822 263.2206455557096 L 297.26390073449164 266.0518676459888 L 299.41517895338137 268.92023860450854 L 301.595309700828 271.82707960110406 L 303.8053223140798 274.77376308543967 L 306.04628666485246 277.7617155531366 L 308.31931536427925 280.79242048570563 L 310.6255661080395 283.86742147738596 L 312.9662441723489 286.9883255631319 L 315.3426050724209 290.15680676322785 L 317.7559573960406 293.3746098613875 L 320.20766582601954 296.64355443469276 L 322.69915436654645 299.9655391553953 L 325.23190978982313 303.34254638643085 L 327.80748532089484 306.7766470945265 L 330.4275045802545 310.270006107006 L 333.09366580566564 313.8248877408875 L 335.8077463766992 317.44366183559896 L 338.5716076677682 321.128810223691 L 341.38720025797056 324.8829336772941 L 344.25656952887744 328.70875937183655 L 347.1818616845388 332.6091489127184 L 349.5 335.5401426901426 L 349.5 334.8264147476065 L 349.5 334.1264827175625 L 349.5 333.439814414855 L 349.5 332.7659028435682 L 349.5 332.1042646834989 L 349.5 331.45443888349723 L 349.5 330.81598535294194 L 349.5 330.1884837434266 L 349.5 329.5715323134515 L 349.5 328.96474686956725 L 349.5 328.3677597780001 L 349.5 327.78021904131265 L 349.5 327.2017874351302 L 349.5 326.63214170039146 L 349.5 326.0709717869672 L 349.5 325.51798014484416 L 349.5 324.9728810593847 L 349.5 324.43540002746636 L 349.5 323.90527317156034 L 349.5 323.38224668905207 L 349.5 322.8660763343166 L 349.5 322.3565269312638 L 349.5 321.8533719142455 L 349.5 321.3563928953793 L 349.5 320.8653792564945 L 349.5 320.3801277640433 L 349.5 319.9004422054423 L 349.5 319.42613304542624 L 349.5 318.95701710110075 L 349.5 318.4929172344742 L 349.5 318.0336620613407 L 349.5 317.57908567546497 L 349.5 317.1290273870943 L 349.5 316.6833314748924 L 349.5 316.24184695045244 L 349.5 315.8044273346045 L 349.5 315.370930444786 L 349.5 314.9412181927939 L 349.5 314.5151563922822 L 349.5 314.0926145754108 L 349.5 313.6734658180899 L 349.5 313.2575865733018 L 349.5 312.8448565120131 L 349.5 312.43515837122226 L 349.5 312.02837780871624 L 349.5 311.62440326413474 L 349.5 311.22312582596794 L 349.5 310.82443910413235 L 349.5 310.4282391077944 L 349.5 310.0344241281279 L 349.5 309.64289462571105 L 349.5 309.25355312228555 L 349.5 308.86630409661524 L 349.5 308.4810538841964 L 349.5 308.0977105805854 L 349.5 307.7161839481222 L 349.5 307.3363853258391 L 349.5 306.95822754235485 L 349.5 306.58162483156474 L 349.5 306.20649275094667 L 349.5 305.8327481023104 L 349.5 305.4603088548265 L 349.5 305.08909407017836 L 349.5 304.719023829687 L 349.5 304.3500191632651 L 349.5 303.9820019800618 L 349.5 303.61489500066637 L 349.5 303.2486216907413 L 349.5 302.88310619596257 L 349.5 302.5182732781466 L 349.5 302.1540482524472 L 349.5 301.7903569255112 L 349.5 301.42712553448143 L 349.5 301.0642806867398 L 349.5 300.70174930028503 L 349.5 300.33945854464196 L 349.5 299.97733578220027 L 349.5 299.61530850988163 L 349.5 299.5" fill-opacity="1"/><path fill="#ffffff" stroke="none" paint-order="stroke fill markers" d="" fill-opacity="1"/><g><path fill="none" stroke="#ffffff" class="dcg-svg-curve" paint-order="fill stroke markers" d=" M 349.5 299.5 L 349.5 299.5 L 349.5 299.13798793285065 L 349.5 298.7759034512188 L 349.5 298.4136740826693 L 349.5 298.0512272387624 L 349.5 297.68849015680547 L 349.5 297.325389841307 L 349.5 296.9618530050335 L 349.5 296.59780600956776 L 349.5 296.2331748052658 L 349.5 295.8678848705067 L 349.5 295.50186115013014 L 349.5 295.13502799295077 L 349.5 294.76730908823856 L 349.5 294.39862740104974 L 349.5 294.0289051062897 L 349.5 293.6580635213854 L 349.5 293.2860230374408 L 349.5 292.91270304874485 L 349.5 292.5380218804933 L 349.5 292.1618967145861 L 349.5 291.7842435133482 L 349.5 291.4049769410236 L 349.5 291.02401028287693 L 349.5 290.64125536173634 L 349.5 290.2566224517985 L 349.5 289.8700201895092 L 349.5 289.4813554813239 L 349.5 289.09053340814046 L 349.5 288.6974571261866 L 349.5 288.30202776413165 L 349.5 287.90414431617916 L 349.5 287.5037035308827 L 349.5 287.10059979541256 L 349.5 286.69472501498376 L 349.5 286.28596848713863 L 349.5 285.87421677055863 L 349.5 285.4593535480583 L 349.5 285.0412594833932 L 349.5 284.61981207148983 L 349.5 284.1948854816785 L 349.5 283.766350393484 L 349.5 283.33407382449764 L 349.5 282.8979189498229 L 349.5 282.4577449125501 L 349.5 282.0134066246799 L 349.5 281.56475455787233 L 349.5 281.11163452335524 L 349.5 280.65388744027643 L 349.5 280.1913490917333 L 349.5 279.7238498676548 L 349.5 279.251214493653 L 349.5 278.7732617448896 L 349.5 278.2898041439354 L 349.5 277.80064764151786 L 349.5 277.3055912789695 L 349.5 276.8044268310923 L 349.5 276.29693842805614 L 349.5 275.7829021548334 L 349.5 275.26208562655404 L 349.5 274.73424753803073 L 349.5 274.19913718555847 L 349.5 273.6564939589355 L 349.5 273.10604680147696 L 349.5 272.54751363560115 L 349.5 271.98060075136095 L 349.5 271.4050021550594 L 349.5 270.8203988748371 L 349.5 270.2264582198391 L 349.5 269.6228329892613 L 349.5 269.0091606272365 L 349.5 268.38506231914675 L 349.5 267.750142024531 L 349.5 267.1039854413015 L 349.5 266.4461588954703 L 349.5 265.77620815002456 L 349.5 265.0936571259614 L 349.5 264.3980065277941 L 349.5 263.6887323650669 L 348.12576333113327 261.467684441511 L 345.18219009757115 257.5429201300949 L 342.29524559122933 253.69366078830575 L 339.4627501552822 249.91700020704295 L 336.6826269676304 246.2101692901739 L 333.9528958786516 242.5705278382021 L 331.27166768280176 238.99555691040234 L 328.63713878872153 235.4828517182953 L 326.04758625574914 232.03011500766556 L 323.5013631676611 228.63515089021476 L 320.9968943170792 225.2958590894389 L 318.5326721763476 222.01022956846342 L 316.1072531328044 218.77633751040582 L 313.71925396829346 215.5923386243913 L 311.3673485644942 212.45646475265892 L 309.05026481721177 209.36701975628233 L 306.7667817441908 206.32237565892106 L 304.5157267722987 203.3209690297316 L 302.2959731910908 200.3612975881211 L 300.106437760829 197.4419170144387 L 297.94607846398674 194.56143795198224 L 295.8138923901496 191.71852318686615 L 293.7089137450183 188.91188499335772 L 291.6302119749468 186.14028263326236 L 289.57688999911386 183.40251999881846 L 287.54808254202965 180.69744338937286 L 285.5429545596362 178.02393941284825 L 283.5606997527636 175.38093300368476 L 281.6005391621715 172.76738554956202 L 279.6617198398288 170.1822931197717 L 277.743513591474 167.624684788632 L 275.84521578585964 165.0936210478129 L 273.96614422640965 162.58819230187956 L 272.1056380813238 160.10751744176497 L 270.2630568684394 157.6507424912525 L 268.43777949141884 155.21703932189175 L 266.62920332406543 152.8056044320872 L 264.8367433397883 150.41565778638443 L 263.05983128343917 148.0464417112522 L 261.2979148829258 145.69721984390105 L 259.55045709818233 143.36727613090977 L 257.8169354052307 141.05591387364097 L 256.09684111321616 138.76245481762152 L 254.38967871243386 136.48623828324514 L 252.69496525149034 134.22662033532043 L 251.01222974185643 131.98297298914184 L 249.34101258817927 129.7546834509057 L 247.68086504281825 127.54115339042437 L 246.03134868316212 125.34179824421619 L 244.39203491037136 123.1560465471618 L 242.76250446826782 120.98333929102375 L 241.14234698116874 118.82312930822502 L 239.53116050952858 116.67488067937143 L 237.92855112231777 114.53806816309037 L 236.33413248512554 112.41217664683398 L 234.747525463027 110.29670061736931 L 233.16835773730892 108.19114364974519 L 231.5962634351917 106.09501791358889 L 230.0308827717317 104.00784369564224 L 228.47186170312716 101.92914893750287 L 226.91885159068872 99.85846878758491 L 225.37150887477003 97.79534516636 L 223.8294947579868 95.73932634398238 L 222.29247489708115 93.68996652944156 L 220.76011910281687 91.64682547042247 L 219.23210104731447 89.60946806308596 L 217.70809797826107 87.57746397101471 L 216.18779043944778 85.55038725259703 L 214.67086199710968 83.52781599614622 L 213.15699897155963 81.50933196207944 L 211.6458901736232 79.49452023149757 L 210.13722664539785 77.48296886053049 L 208.63070140487005 75.47426853982671 L 207.12600919393793 73.46801225858394 L 205.62284622939586 71.46379497252781 L 204.12090995644613 69.46121327526146 L 202.61989880431094 67.45986507241457 L 201.11951194352375 65.45934925803164 L 199.61944904448347 63.459265392644625 L 198.11941003686002 65.14078661751995 L 196.6190948694405 67.14120684074601 L 195.11820327000828 69.14239563998899 L 193.61643450484587 71.14475399353887 L 192.11348713745247 73.14868381673006 L 190.60905878606403 75.154588285248 L 189.1028458795606 77.16287216058589 L 187.59454341134136 79.17394211821153 L 186.08384469074022 81.18820707901301 L 184.57044109154964 83.20607854460047 L 183.05402179721048 85.2279709370527 L 181.5342735422161 87.25430194371188 L 180.01088034926792 89.28549286764274 L 178.4835232617063 91.32196898439156 L 176.95188007072719 93.36415990569708 L 175.41562503687865 95.41249995082848 L 173.8744286053142 97.46742852624772 L 172.3279571142603 99.52939051431963 L 170.7758724961354 101.59883667181947 L 169.21783197073393 103.6762240390214 L 167.65348772986422 105.76201636018101 L 166.08248661280305 107.85668451626265 L 164.50446977189833 109.96070697080222 L 162.9190723276225 112.0745702298367 L 161.3259230123416 114.19876931687787 L 159.72464380203124 116.33380826395836 L 158.11484953512814 118.48020061982913 L 156.49614751766447 120.63846997644737 L 154.86813711378448 122.80915051495401 L 153.23040932069412 124.99278757240785 L 151.58254632703867 127.1899382306151 L 149.92412105364713 129.4011719284705 L 148.25469667551798 131.62707109930938 L 146.57382612385356 133.86823183486194 L 144.88105156687857 136.12526457749522 L 143.17590386809832 138.39879484253555 L 141.4579020205689 140.6894639725748 L 139.7265525556598 142.99792992578693 L 137.98134892469116 145.32486810041178 L 136.22177085172194 147.6709721977041 L 134.44728365565066 150.03695512579907 L 132.65733753966686 152.42354994711084 L 130.85136684595713 154.83151087205715 L 129.0287892734271 157.26161430209723 L 127.18900505604135 159.7146599252782 L 125.3313960992187 162.19147186770837 L 123.45532507153195 164.69289990462406 L 121.56013444876929 167.2198207349743 L 119.64514550719349 169.77313932374204 L 117.70965726260783 172.35379031652292 L 115.75294535157984 174.96273953122687 L 113.7742608509038 177.60098553212828 L 111.77282903108029 180.26956129189296 L 109.74784803927147 182.969535947638 L 107.69848750683083 185.70201665755891 L 105.6238870761294 188.46815056516076 L 103.52315484097299 191.26912687870268 L 101.39536569445355 194.10617907406194 L 99.2395595775735 196.980587229902 L 97.05473962143988 199.8936805047468 L 94.8398701752225 202.84683976636998 L 92.5938747114236 205.84150038476852 L 90.31563359928091 208.8791552009588 L 88.0039817363505 211.96135768486602 L 85.65770602744277 215.08972529674296 L 83.27554269914617 218.2659430678051 L 80.85617443712356 221.49176741716857 L 78.39822733222385 224.76903022370152 L 75.90026762018114 228.0996431730918 L 73.36079819828295 231.4856024022894 L 70.77825490084373 234.92899346554168 L 68.15100251361547 238.4319966485127 L 65.4773305053833 241.99689265948894 L 62.755448452897475 245.62606872947003 L 59.98348113297865 249.32202515602845 L 57.15946325304847 253.0873823292687 L 54.281333788478506 256.92488828202863 L 51.34692989194757 260.8374268107366 L 49.5 263.57447571502706 L 49.5 264.28596973536634 L 49.5 264.9837543537951 L 49.5 265.66835763770086 L 49.5 266.34028271382255 L 49.5 267.00000926413725 L 49.5 267.6479949163272 L 49.5 268.28467653742655 L 49.499999999999964 268.91047143845 L 49.50000000000002 269.5257784971018 L 49.5 270.13097920502196 L 49.5 270.72643864545074 L 49.5 271.31250640668077 L 49.5 271.88951743619396 L 49.499999999999964 272.4577928399606 L 49.5 273.01764063099927 L 49.5 273.5693564309483 L 49.5 274.1132241280868 L 49.5 274.6495164949638 L 49.5 275.1784957685309 L 49.5 275.7004141954452 L 49.5 276.21551454499155 L 49.50000000000002 276.72403059188446 L 49.5 277.22618757102737 L 49.5 277.72220260615074 L 49.5 278.212285114101 L 49.5 278.69663718641687 L 49.5 279.17545394970784 L 49.5 279.64892390623766 L 49.5 280.1172292560081 L 49.5 280.58054620154985 L 49.5 281.03904523653375 L 49.5 281.49289141924135 L 49.5 281.9422446318558 L 49.5 282.3872598264701 L 49.50000000000002 282.8280872586441 L 49.5 283.2648727092881 L 49.5 283.69775769559396 L 49.50000000000002 284.12687967168966 L 49.5 284.55237221964546 L 49.5 284.97436523141994 L 49.5 285.3929850822951 L 49.5 285.8083547963143 L 49.5 286.2205942042034 L 49.5 286.6298200942274 L 49.5 287.0361463564028 L 49.5 287.4396841204634 L 49.5 287.840541887952 L 49.5 288.238825658786 L 49.5 288.6346390526286 L 49.5 289.0280834253721 L 49.5 289.41925798102886 L 49.5 289.8082598793015 L 49.5 290.195184339095 L 49.5 290.58012473821486 L 49.5 290.96317270948356 L 49.5 291.3444182334967 L 49.5 291.7239497282253 L 49.5 292.101854135664 L 49.5 292.4782170057124 L 49.5 292.85312257746875 L 49.5 293.2266538581067 L 49.5 293.5988926994979 L 49.50000000000002 293.969919872736 L 49.5 294.33981514071115 L 49.5 294.7086573288773 L 49.5 295.0765243943503 L 49.5 295.4434934934688 L 49.5 295.80964104794396 L 49.5 296.17504280972264 L 49.5 296.53977392468266 L 49.50000000000002 296.90390899527495 L 49.5 297.26752214222626 L 49.5 297.63068706541094 L 49.5 297.99347710399996 L 49.50000000000002 298.3559652959913 L 49.50000000000002 298.7182244372259 L 49.5 299.0803271399894 L 49.5 299.44234589130207 L 49.5 299.80435311099495 L 49.5 300.16642120967185 L 49.5 300.5286226466552 L 49.499999999999964 300.8910299880159 L 49.5 301.25371596478294 L 49.5 301.61675353143676 L 49.5 301.98021592478074 L 49.5 302.34417672329766 L 49.5 302.70870990708966 L 49.5 303.07388991850866 L 49.5 303.4397917235825 L 49.5 303.80649087434597 L 49.5 304.17406357218783 L 49.5 304.54258673232954 L 49.5 304.91213804955197 L 49.5 305.28279606529316 L 49.5 305.6546402362427 L 49.5 306.0277510045625 L 49.5 306.4022098698708 L 49.5 306.778099463129 L 49.50000000000002 307.1555036225796 L 49.50000000000002 307.53450747188697 L 49.5 307.9151975006437 L 49.5 308.2976616474084 L 49.5 308.6819893854525 L 49.5 309.0682718114008 L 49.5 309.4566017369608 L 49.5 309.84707378394535 L 49.5 310.2397844828056 L 49.499999999999964 310.634832374902 L 49.5 311.0323181187544 L 49.50000000000002 311.4323446005278 L 49.5 311.83501704902187 L 49.50000000000002 312.2404431554521 L 49.5 312.6487331983269 L 49.5 313.0600001737411 L 49.5 313.47435993143233 L 49.5 313.8919313169613 L 49.499999999999964 314.3128363204074 L 49.5 314.73720023199246 L 49.5 315.16515180507326 L 49.5 315.5968234269755 L 49.5 316.0323512981706 L 49.5 316.47187562033434 L 49.5 316.9155407938616 L 49.5 317.36349562545354 L 49.50000000000002 317.8158935464358 L 49.5 318.2728928425164 L 49.5 318.7346568957393 L 49.5 319.20135443945105 L 49.5 319.6731598271531 L 49.5 320.15025331618165 L 49.5 320.6328213672273 L 49.5 321.1210569607846 L 49.5 321.61515993170616 L 49.5 322.1153373231292 L 49.5 322.6218037611407 L 49.50000000000002 323.13478185166014 L 49.5 323.6545026011358 L 49.499999999999964 324.1812058627829 L 49.5 324.71514081023486 L 49.5 325.25656644063554 L 49.5 325.8057521093708 L 49.50000000000002 326.3629780988289 L 49.5 326.9285362237822 L 49.5 327.5027304762132 L 49.5 328.085877712654 L 49.5 328.67830838738746 L 49.5 329.280367335157 L 49.5 329.89241460736866 L 49.5 330.5148263661389 L 49.5 331.14799584094624 L 49.5 331.79233435310096 L 49.5 332.44827241374423 L 49.5 333.116260901645 L 49.5 333.79677232767926 L 49.5 334.49030219356456 L 49.5 335.1973704531809 L 50.400049207745845 334.4999343896722 L 53.35284982835737 330.5628668955235 L 56.248664650799554 326.70178046560056 L 59.08969030961563 322.91374625384583 L 61.878019580603805 319.19597389252823 L 64.61564761566129 315.54580317911825 L 67.30447773782579 311.96069634956564 L 69.9463268324075 308.43823089012335 L 72.54293036680724 304.97609284425704 L 75.09594706864175 301.5720705751443 L 77.60696328913677 298.2240489478176 L 80.07749707634375 294.9300038982083 L 82.50900198058187 291.68799735922414 L 84.90287061254807 288.4961725166026 L 87.26043797278572 285.352749369619 L 89.58298456960478 282.2560205738603 L 91.87173934111169 279.2043475451844 L 94.12788239569453 276.19615680574066 L 96.35254758413195 273.22993655449073 L 98.54682491541512 270.3042334461132 L 100.71176282739877 267.41764956346833 L 102.84837032250329 264.5688395699956 L 104.9576189778859 261.7565080294854 L 107.04044483875667 258.9794068816577 L 109.09775020284732 256.23633306287024 L 111.13040530341792 253.52612626210944 L 113.13924989763352 250.8476668031553 L 115.1250947666218 248.19987364450427 L 117.08872313305768 245.58170248925643 L 119.03089200168382 242.9921439977549 L 120.95233342778619 240.4302220962851 L 122.85375571827525 237.894992375633 L 124.73584456969701 235.38554057373733 L 126.59926414718258 232.9009811370899 L 128.444658108071 230.44045585590536 L 130.27265057367683 228.00313256843089 L 132.08384705243387 225.58820393008818 L 133.87883531743074 223.19488624342569 L 135.65818624114385 220.82241834514156 L 137.42245458999247 218.4700605466767 L 139.1721797811624 216.1370936251168 L 140.90788660398863 213.8228178613485 L 142.63008590803463 211.5265521226205 L 144.3392752598744 209.24763298683413 L 146.03593957045135 206.9854139060649 L 147.72055169477642 204.7392644069648 L 149.3935730056129 202.50856932584952 L 151.05545394269996 200.29272807640004 L 152.70663453897026 198.09115394803962 L 154.34754492513315 195.90327343315582 L 155.97860581391072 193.72852558145237 L 157.6002289651439 191.56636137980814 L 159.2128176329125 189.4162431561166 L 160.8167669957537 187.27764400566173 L 162.41246457099766 185.15004723866977 L 164.0002906141898 183.03294584774696 L 165.58061850451304 180.92584199398263 L 167.15381511708085 178.82824651055887 L 168.72024118292103 176.739678422772 L 170.28025163743584 174.65966448341888 L 171.83419595808215 172.5877387225571 L 173.38241849198062 170.52344201069252 L 174.92525877413317 168.46632163448913 L 176.4630518368931 166.41593088414248 L 177.9961285113091 164.37182865158783 L 179.52481572093578 162.33357903875228 L 181.04943676868268 160.30075097508973 L 182.5703116172484 158.2729178436688 L 184.0877571636705 156.249657115106 L 185.60208750850097 154.2305499886654 L 187.11361422010418 152.21518103986108 L 188.62264659455494 150.2031378739268 L 190.12949191160484 148.19401078452685 L 191.63445568717196 146.18739241710406 L 193.1378419227993 144.18287743626757 L 194.63995335251636 142.18006219664488 L 196.14109168753342 140.17854441662206 L 197.64155785918953 138.17792285441396 L 199.14165226057227 136.17779698590368 L 200.64167498721974 137.222233316293 L 202.1419260773176 139.22256810309017 L 203.6427057517973 141.22360766906309 L 205.14431465474678 143.2257528729957 L 206.6470540945396 145.22940545938616 L 208.15122628609694 147.2349683814626 L 209.6571345946951 149.24284612626016 L 211.1650837817384 151.25344504231788 L 212.67538025292347 153.26717367056463 L 214.1883323092252 155.28444307896694 L 215.7042504011462 157.30566720152825 L 217.22344738667832 159.33126318223776 L 218.74623879344 161.3616517245867 L 220.27294308546 163.39725744728003 L 221.80388193509683 165.43850924679572 L 223.33938050059626 167.4858406674617 L 224.87976770980893 169.53969027974523 L 226.42537655060394 171.60050206747192 L 227.97654436854157 173.66872582472206 L 229.5336131723844 175.74481756317917 L 231.09692994805727 177.82923993074306 L 232.6668469816858 179.92246264224775 L 234.24372219237858 182.02496292317147 L 235.82791947544547 184.13722596726066 L 237.41980905678122 186.25974540904164 L 239.019767859176 188.3930238122347 L 240.62817988135978 190.53757317514635 L 242.24543659062314 192.69391545416426 L 243.87193732991184 194.86258310654912 L 245.50808974033086 197.04411965377452 L 247.15431020005852 199.2390802667447 L 248.8110242807199 201.44803237429318 L 250.47866722233508 203.6715562964468 L 252.15768442802536 205.91024590403384 L 253.84853197972714 208.16470930630285 L 255.55167717624767 210.43556956833024 L 257.2675990950745 212.72346546009933 L 258.99678917944567 215.02905223926095 L 260.73975185227926 217.35300246970561 L 262.4970051586703 219.69600687822708 L 264.2690814387748 222.05877525169973 L 266.05652803302195 224.4420373773626 L 267.85990802172785 226.84654402897044 L 269.6798010013273 229.27306800176973 L 271.51680389959375 231.7224051994583 L 273.371531832386 234.19537577651468 L 275.24461900463683 236.69282533951576 L 277.13671965849943 239.21562621133256 L 279.04850907177513 241.76467876236683 L 280.98068460998047 244.34091281330734 L 282.9339668356551 246.9452891142068 L 284.9091006787887 249.57880090505162 L 286.9068566725365 252.242475563382 L 288.9280322587147 254.93737634495304 L 290.973453167914 257.66460422388536 L 293.0439748794495 260.425299839266 L 295.1404841667822 263.2206455557096 L 297.26390073449164 266.0518676459888 L 299.41517895338137 268.92023860450854 L 301.595309700828 271.82707960110406 L 303.8053223140798 274.77376308543967 L 306.04628666485246 277.7617155531366 L 308.31931536427925 280.79242048570563 L 310.6255661080395 283.86742147738596 L 312.9662441723489 286.9883255631319 L 315.3426050724209 290.15680676322785 L 317.7559573960406 293.3746098613875 L 320.20766582601954 296.64355443469276 L 322.69915436654645 299.9655391553953 L 325.23190978982313 303.34254638643085 L 327.80748532089484 306.7766470945265 L 330.4275045802545 310.270006107006 L 333.09366580566564 313.8248877408875 L 335.8077463766992 317.44366183559896 L 338.5716076677682 321.128810223691 L 341.38720025797056 324.8829336772941 L 344.25656952887744 328.70875937183655 L 347.1818616845388 332.6091489127184 L 349.5 335.5401426901426 L 349.5 334.8264147476065 L 349.5 334.1264827175625 L 349.5 333.439814414855 L 349.5 332.7659028435682 L 349.5 332.1042646834989 L 349.5 331.45443888349723 L 349.5 330.81598535294194 L 349.5 330.1884837434266 L 349.5 329.5715323134515 L 349.5 328.96474686956725 L 349.5 328.3677597780001 L 349.5 327.78021904131265 L 349.5 327.2017874351302 L 349.5 326.63214170039146 L 349.5 326.0709717869672 L 349.5 325.51798014484416 L 349.5 324.9728810593847 L 349.5 324.43540002746636 L 349.5 323.90527317156034 L 349.5 323.38224668905207 L 349.5 322.8660763343166 L 349.5 322.3565269312638 L 349.5 321.8533719142455 L 349.5 321.3563928953793 L 349.5 320.8653792564945 L 349.5 320.3801277640433 L 349.5 319.9004422054423 L 349.5 319.42613304542624 L 349.5 318.95701710110075 L 349.5 318.4929172344742 L 349.5 318.0336620613407 L 349.5 317.57908567546497 L 349.5 317.1290273870943 L 349.5 316.6833314748924 L 349.5 316.24184695045244 L 349.5 315.8044273346045 L 349.5 315.370930444786 L 349.5 314.9412181927939 L 349.5 314.5151563922822 L 349.5 314.0926145754108 L 349.5 313.6734658180899 L 349.5 313.2575865733018 L 349.5 312.8448565120131 L 349.5 312.43515837122226 L 349.5 312.02837780871624 L 349.5 311.62440326413474 L 349.5 311.22312582596794 L 349.5 310.82443910413235 L 349.5 310.4282391077944 L 349.5 310.0344241281279 L 349.5 309.64289462571105 L 349.5 309.25355312228555 L 349.5 308.86630409661524 L 349.5 308.4810538841964 L 349.5 308.0977105805854 L 349.5 307.7161839481222 L 349.5 307.3363853258391 L 349.5 306.95822754235485 L 349.5 306.58162483156474 L 349.5 306.20649275094667 L 349.5 305.8327481023104 L 349.5 305.4603088548265 L 349.5 305.08909407017836 L 349.5 304.719023829687 L 349.5 304.3500191632651 L 349.5 303.9820019800618 L 349.5 303.61489500066637 L 349.5 303.2486216907413 L 349.5 302.88310619596257 L 349.5 302.5182732781466 L 349.5 302.1540482524472 L 349.5 301.7903569255112 L 349.5 301.42712553448143 L 349.5 301.0642806867398 L 349.5 300.70174930028503 L 349.5 300.33945854464196 L 349.5 299.97733578220027 L 349.5 299.61530850988163 L 349.5 299.5" stroke-linecap="round" stroke-linejoin="round" stroke-miterlimit="10" stroke-width="2.5" stroke-opacity="1" stroke-dasharray=""/></g></g></g><g id="labels-6731c006"/></g></svg>