<svg version="1.1" xmlns="http://www.w3.org/2000/svg" xmlns:xlink="http://www.w3.org/1999/xlink" width="800" height="800"><defs/><g transform="scale(2,2)"><g id="background-252ee22c"></g><g id="background-images-252ee22c"/><g id="graphpaper-252ee22c"><g id="axis-252ee22c"><g><g><path fill="none" stroke="rgb(0,0,0)" class="dcg-svg-tickmark" paint-order="fill stroke markers" d="" stroke-opacity="1" stroke-miterlimit="2" stroke-width="1.5" stroke-dasharray=""/></g></g></g></g><g id="expressions-252ee22c"><g id="sketch-252ee22c"><title>Expression 99</title><path fill="#ffffff" stroke="none" class="dcg-svg-region" paint-order="stroke fill markers" d=" M 349.5 299.5 L 349.5 299.0999866661333 L 349.5 298.6998933162639 L 349.5 298.2996398703528 L 349.5 297.8991461201794 L 349.5 297.4983316649784 L 349.5 297.0971158467481 L 349.5 296.6954176851199 L 349.5 296.2931558116771 L 349.5 295.8902484036086 L 349.5 295.486613116582 L 349.5 295.08216701671836 L 349.5 294.6768265115478 L 349.5 294.2705072798216 L 349.5 293.863124200055 L 349.5 293.4545912776682 L 349.5 293.0448215705916 L 349.5 292.6337271131943 L 349.5 292.2212188383921 L 349.5 291.80720649778266 L 349.5 291.3915985796531 L 349.5 290.9743022246942 L 349.5 290.55522313925263 L 349.5 290.13426550594136 L 349.5 289.7113318914214 L 349.5 289.28632315115857 L 349.5 288.85913833094935 L 349.5 288.4296745649988 L 349.5 287.99782697032094 L 349.5 287.5634885372227 L 349.5 287.12655001561507 L 349.5 286.68689979688304 L 349.5 286.2444237910306 L 349.5 285.7990052987984 L 349.5 285.35052487843507 L 349.5 284.898860206783 L 349.5 284.4438859343189 L 349.5 283.985473533766 L 349.5 283.523491141871 L 349.5 283.05780339391146 L 349.5 282.58827125047355 L 349.5 282.1147518160044 L 349.5 281.6370981486162 L 349.5 281.1551590605778 L 349.5 280.66877890889515 L 349.5 280.17779737533687 L 349.5 279.682049235218 L 349.5 279.18136411420465 L 349.5 278.67556623234964 L 349.5 278.16447413451186 L 349.5 277.64790040624837 L 349.5 277.1256513742022 L 349.5 276.5975267899332 L 349.5 276.0633194960612 L 349.5 275.5228150735004 L 349.5 274.9757914684746 L 349.5 274.4220185978921 L 349.5 273.8612579315537 L 349.5 273.29326204953963 L 349.5 272.7177741729879 L 349.5 272.1345276663323 L 349.5 271.54324550890436 L 349.5 270.9436397336304 L 349.5 270.3354108303612 L 349.5 269.7182471111614 L 349.5 269.091824034653 L 349.5 268.45580348625344 L 349.5 267.80983301086974 L 349.5 267.15354499429736 L 349.5 266.486555789239 L 349.5 265.80846478147686 L 349.5 265.1188533913224 L 349.5 264.41728400500665 L 349.5 263.70329883016745 L 349.5 262.97641866902796 L 349.5 262.23614160223707 L 349.5 261.48194157564785 L 349.5 260.71326688154045 L 349.5 259.9295385249358 L 348.12576333113327 257.667684441511 L 345.18219009757115 253.74292013009492 L 342.29524559122933 249.89366078830577 L 339.4627501552822 246.11700020704296 L 336.6826269676304 242.41016929017394 L 333.9528958786516 238.77052783820213 L 331.27166768280176 235.19555691040236 L 328.63713878872153 231.68285171829532 L 326.04758625574914 228.23011500766557 L 323.5013631676611 224.83515089021478 L 320.9968943170792 221.4958590894389 L 318.5326721763476 218.21022956846343 L 316.1072531328044 214.97633751040584 L 313.71925396829346 211.7923386243913 L 311.3673485644942 208.65646475265893 L 309.05026481721177 205.56701975628235 L 306.7667817441908 202.52237565892108 L 304.5157267722987 199.52096902973162 L 302.2959731910908 196.5612975881211 L 300.106437760829 193.64191701443872 L 297.94607846398674 190.76143795198226 L 295.8138923901496 187.91852318686617 L 293.7089137450183 185.11188499335773 L 291.6302119749468 182.34028263326238 L 289.57688999911386 179.60251999881848 L 287.54808254202965 176.89744338937288 L 285.5429545596362 174.22393941284827 L 283.5606997527636 171.58093300368478 L 281.6005391621715 168.96738554956204 L 279.6617198398288 166.38229311977173 L 277.743513591474 163.82468478863203 L 275.84521578585964 161.2936210478129 L 273.96614422640965 158.78819230187958 L 272.1056380813238 156.307517441765 L 270.2630568684394 153.8507424912525 L 268.43777949141884 151.41703932189176 L 266.62920332406543 149.00560443208724 L 264.8367433397883 146.61565778638445 L 263.05983128343917 144.24644171125223 L 261.2979148829258 141.89721984390104 L 259.55045709818233 139.56727613090982 L 257.8169354052307 137.25591387364102 L 256.09684111321616 134.96245481762156 L 254.38967871243386 132.6862382832452 L 252.69496525149034 130.42662033532048 L 251.01222974185643 128.1829729891419 L 249.34101258817927 125.95468345090569 L 247.68086504281825 123.74115339042436 L 246.03134868316212 121.54179824421624 L 244.39203491037136 119.35604654716184 L 242.76250446826782 117.1833392910238 L 241.14234698116874 115.02312930822501 L 239.53116050952858 112.87488067937142 L 237.92855112231777 110.73806816309036 L 236.33413248512554 108.61217664683403 L 234.747525463027 106.4967006173693 L 233.16835773730892 104.39114364974523 L 231.5962634351917 102.29501791358894 L 230.0308827717317 100.20784369564223 L 228.47186170312716 98.12914893750292 L 226.91885159068872 96.05846878758496 L 225.37150887477003 93.99534516636004 L 223.8294947579868 91.93932634398237 L 222.29247489708115 89.88996652944155 L 220.76011910281687 87.84682547042252 L 219.23210104731447 85.80946806308594 L 217.70809797826107 83.77746397101475 L 216.18779043944778 81.75038725259702 L 214.67086199710968 79.72781599614626 L 213.15699897155963 77.70933196207949 L 211.6458901736232 75.69452023149762 L 210.13722664539785 73.68296886053048 L 208.63070140487005 71.67426853982676 L 207.12600919393793 69.66801225858393 L 205.62284622939586 67.66379497252785 L 204.12090995644613 65.6612132752615 L 202.61989880431094 63.65986507241456 L 201.11951194352375 61.65934925803168 L 199.61944904448347 59.65926539264467 L 198.11941003686002 61.340786617519996 L 196.6190948694405 63.341206840746054 L 195.11820327000828 65.34239563998898 L 193.61643450484587 67.3447539935388 L 192.11348713745247 69.34868381673004 L 190.60905878606403 71.35458828524798 L 189.1028458795606 73.36287216058588 L 187.59454341134136 75.37394211821152 L 186.08384469074022 77.38820707901306 L 184.57044109154964 79.40607854460046 L 183.05402179721048 81.42797093705269 L 181.5342735422161 83.45430194371187 L 180.01088034926792 85.48549286764279 L 178.4835232617063 87.5219689843916 L 176.95188007072719 89.56415990569707 L 175.41562503687865 91.61249995082846 L 173.8744286053142 93.66742852624776 L 172.3279571142603 95.72939051431962 L 170.7758724961354 97.79883667181946 L 169.21783197073393 99.87622403902145 L 167.65348772986422 101.96201636018105 L 166.08248661280305 104.05668451626264 L 164.50446977189833 106.16070697080221 L 162.9190723276225 108.27457022983663 L 161.3259230123416 110.39876931687786 L 159.72464380203124 112.53380826395835 L 158.11484953512814 114.68020061982918 L 156.49614751766447 116.83846997644741 L 154.86813711378448 119.009150514954 L 153.23040932069412 121.19278757240784 L 151.58254632703867 123.38993823061514 L 149.92412105364713 125.60117192847048 L 148.25469667551798 127.82707109930936 L 146.57382612385356 130.06823183486193 L 144.88105156687857 132.32526457749526 L 143.17590386809832 134.5987948425356 L 141.4579020205689 136.8894639725748 L 139.7265525556598 139.19792992578698 L 137.98134892469116 141.52486810041182 L 136.22177085172194 143.87097219770405 L 134.44728365565066 146.23695512579908 L 132.65733753966686 148.62354994711086 L 130.85136684595713 151.03151087205714 L 129.0287892734271 153.46161430209722 L 127.18900505604135 155.91465992527822 L 125.3313960992187 158.3914718677084 L 123.45532507153195 160.89289990462404 L 121.56013444876929 163.41982073497425 L 119.64514550719349 165.973139323742 L 117.70965726260783 168.55379031652288 L 115.75294535157984 171.16273953122692 L 113.7742608509038 173.8009855321283 L 111.77282903108029 176.46956129189294 L 109.74784803927147 179.16953594763802 L 107.69848750683083 181.90201665755887 L 105.6238870761294 184.66815056516077 L 103.52315484097299 187.46912687870267 L 101.39536569445355 190.30617907406193 L 99.2395595775735 193.180587229902 L 97.05473962143988 196.09368050474683 L 94.8398701752225 199.04683976637 L 92.5938747114236 202.04150038476854 L 90.31563359928091 205.0791552009588 L 88.0039817363505 208.16135768486598 L 85.65770602744277 211.28972529674297 L 83.27554269914617 214.46594306780509 L 80.85617443712356 217.6917674171686 L 78.39822733222385 220.96903022370154 L 75.90026762018114 224.29964317309182 L 73.36079819828295 227.6856024022894 L 70.77825490084373 231.1289934655417 L 68.15100251361547 234.6319966485127 L 65.4773305053833 238.19689265948892 L 62.755448452897475 241.82606872947002 L 59.98348113297865 245.52202515602846 L 57.15946325304847 249.28738232926872 L 54.281333788478506 253.12488828202868 L 51.34692989194757 257.0374268107366 L 49.5 259.8032880829028 L 49.5 260.5894693208468 L 49.5 261.3605020483924 L 49.5 262.11696976541526 L 49.5 262.8594284130636 L 49.5 263.58840802667095 L 49.5 264.30441427218483 L 49.5 265.0079298756095 L 49.499999999999964 265.6994159540883 L 49.50000000000002 266.37931325646605 L 49.5 267.04804332046626 L 49.5 267.70600955298426 L 49.5 268.35359823942633 L 49.5 268.9911794875071 L 49.499999999999964 269.6191081104536 L 49.5 270.23772445414284 L 49.5 270.84735517231854 L 49.5 271.44831395368715 L 49.5 272.0409022043799 L 49.5 272.6254096889845 L 49.5 273.20211513308857 L 49.5 273.7712867900459 L 49.50000000000002 274.33318297445794 L 49.5 274.8880525646711 L 49.5 275.4361354764096 L 49.5 275.97766310950385 L 49.5 276.51285876952136 L 49.5 277.0419380659755 L 49.5 277.5651092886604 L 49.5 278.08257376354493 L 49.5 278.5945261895579 L 49.5 279.10115495749585 L 49.5 279.60264245220037 L 49.5 280.09916533906716 L 49.5 280.5908948358785 L 49.50000000000002 281.0779969708774 L 49.5 281.56063282794264 L 49.5 282.0389587796618 L 49.50000000000002 282.51312670904935 L 49.5 282.9832842206027 L 49.5 283.449574841348 L 49.5 283.91213821248084 L 49.5 284.3711102721705 L 49.5 284.82662343005904 L 49.5 285.27880673395293 L 49.5 285.72778602917435 L 49.5 286.1736841110093 L 49.5 286.6166208706652 L 49.5 287.05671343512273 L 49.5 287.49407630124705 L 49.5 287.92882146449955 L 49.5 288.36105854257335 L 49.5 288.79089489425576 L 49.5 289.2184357338067 L 49.5 289.64378424112135 L 49.5 290.06704166793764 L 49.5 290.48830744032784 L 49.5 290.9076792577075 L 49.5 291.32525318857904 L 49.5 291.7411237632182 L 49.5 292.1553840635014 L 49.5 292.56812581006267 L 49.5 292.979439446959 L 49.50000000000002 293.3894142240177 L 49.5 293.7981382770289 L 49.5 294.2056987059417 L 49.5 294.6121816512158 L 49.5 295.0176723684738 L 49.5 295.4222553015955 L 49.5 295.82601415438967 L 49.5 296.2290319609753 L 49.50000000000002 296.6313911549999 L 49.5 297.03317363781906 L 49.5 297.43446084575794 L 49.5 297.8353338165746 L 49.50000000000002 298.235873255239 L 49.50000000000002 298.63615959914466 L 49.5 299.03627308286116 L 49.5 299.43629380254373 L 49.5 299.8363017801049 L 49.5 300.2363770272617 L 49.5 300.6365996095638 L 49.499999999999964 301.0370497105148 L 49.5 301.4378076958928 L 49.5 301.8389541783831 L 49.5 302.24057008263065 L 49.5 302.64273671082617 L 49.5 303.0455358089388 L 49.5 303.44904963371124 L 49.5 303.8533610205332 L 49.5 304.25855345231594 L 49.5 304.6647111294893 L 49.5 305.0719190412481 L 49.5 305.480263038179 L 49.5 305.88982990640125 L 49.5 306.30070744336206 L 49.5 306.7129845354282 L 49.5 307.12675123742633 L 49.5 307.5420988542862 L 49.50000000000002 307.9591200249498 L 49.50000000000002 308.3779088087149 L 49.5 308.79856077419197 L 49.5 309.221173091059 L 49.5 309.64584462480934 L 49.5 310.072676034697 L 49.5 310.5017698750948 L 49.5 310.9332307004921 L 49.5 311.3671651743709 L 49.499999999999964 311.8036821822121 L 49.5 312.2428929488999 L 49.50000000000002 312.68491116080423 L 49.5 313.12985309284187 L 49.50000000000002 313.5778377408311 L 49.5 314.0289869594772 L 49.5 314.48342560634376 L 49.5 314.94128169219044 L 49.5 315.4026865380788 L 49.499999999999964 315.8677749396768 L 49.5 316.3366853392182 L 49.5 316.8095600056058 L 49.5 317.28654522317737 L 49.5 317.76779148969126 L 49.5 318.2534537241263 L 49.5 318.7436914849299 L 49.5 319.23866919939616 L 49.50000000000002 319.7385564049015 L 49.5 320.2435280027806 L 49.5 320.7537645256788 L 49.5 321.26945241928297 L 49.5 321.79078433939566 L 49.5 322.3179594653941 L 49.5 322.8511838311904 L 49.5 323.3906706749001 L 49.5 323.9366408085151 L 49.5 324.4893230089825 L 49.5 325.0489544321997 L 49.50000000000002 325.61578105155814 L 49.5 326.19005812280193 L 49.499999999999964 326.77205067710815 L 49.5 327.3620340444584 L 49.5 327.96029440954203 L 49.5 328.5671294026197 L 49.50000000000002 329.1828487279877 L 49.5 329.80777483290854 L 49.5 330.44224362012505 L 49.5 331.0866052073525 L 49.5 331.7412247374447 L 49.5 332.40648324326736 L 49.5 333.0827785716781 L 49.5 333.77052637142424 L 49.5 334.4701611502169 L 49.5 335.18213740674145 L 49.5 335.90693084391626 L 49.5 336.6450396703259 L 49.5 337.3969859974357 L 49.5 338.1633173409553 L 49.5 338.944608235559 L 50.400049207745845 338.2999343896722 L 53.35284982835737 334.3628668955235 L 56.248664650799554 330.50178046560063 L 59.08969030961563 326.71374625384584 L 61.878019580603805 322.99597389252824 L 64.61564761566129 319.3458031791183 L 67.30447773782579 315.76069634956565 L 69.9463268324075 312.2382308901233 L 72.54293036680724 308.776092844257 L 75.09594706864175 305.37207057514433 L 77.60696328913677 302.0240489478176 L 80.07749707634375 298.73000389820834 L 82.50900198058187 295.4879973592242 L 84.90287061254807 292.29617251660255 L 87.26043797278572 289.1527493696191 L 89.58298456960478 286.0560205738603 L 91.87173934111169 283.00434754518443 L 94.12788239569453 279.99615680574067 L 96.35254758413195 277.02993655449075 L 98.54682491541512 274.1042334461132 L 100.71176282739877 271.21764956346834 L 102.84837032250329 268.36883956999566 L 104.9576189778859 265.5565080294855 L 107.04044483875667 262.7794068816578 L 109.09775020284732 260.0363330628702 L 111.13040530341792 257.3261262621094 L 113.13924989763352 254.64766680315532 L 115.1250947666218 251.99987364450428 L 117.08872313305768 249.38170248925644 L 119.03089200168382 246.7921439977549 L 120.95233342778619 244.23022209628508 L 122.85375571827525 241.69499237563298 L 124.73584456969701 239.18554057373728 L 126.59926414718258 236.7009811370899 L 128.444658108071 234.24045585590534 L 130.27265057367683 231.80313256843087 L 132.08384705243387 229.38820393008814 L 133.87883531743074 226.99488624342567 L 135.65818624114385 224.62241834514154 L 137.42245458999247 222.27006054667672 L 139.1721797811624 219.93709362511677 L 140.90788660398863 217.62281786134852 L 142.63008590803463 215.32655212262048 L 144.3392752598744 213.04763298683417 L 146.03593957045135 210.7854139060649 L 147.72055169477642 208.53926440696478 L 149.3935730056129 206.3085693258495 L 151.05545394269996 204.09272807640008 L 152.70663453897026 201.89115394803963 L 154.34754492513315 199.7032734331558 L 155.97860581391072 197.52852558145236 L 157.6002289651439 195.36636137980813 L 159.2128176329125 193.2162431561166 L 160.8167669957537 191.0776440056617 L 162.41246457099766 188.95004723866975 L 164.0002906141898 186.83294584774694 L 165.58061850451304 184.72584199398264 L 167.15381511708085 182.6282465105589 L 168.72024118292103 180.539678422772 L 170.28025163743584 178.45966448341892 L 171.83419595808215 176.38773872255715 L 173.38241849198062 174.32344201069253 L 174.92525877413317 172.26632163448912 L 176.4630518368931 170.21593088414252 L 177.9961285113091 168.17182865158784 L 179.52481572093578 166.13357903875232 L 181.04943676868268 164.10075097508974 L 182.5703116172484 162.0729178436688 L 184.0877571636705 160.04965711510602 L 185.60208750850097 158.03054998866537 L 187.11361422010418 156.01518103986106 L 188.62264659455494 154.00313787392673 L 190.12949191160484 151.99401078452686 L 191.63445568717196 149.987392417104 L 193.1378419227993 147.98287743626756 L 194.63995335251636 145.9800621966449 L 196.14109168753342 143.9785444166221 L 197.64155785918953 141.97792285441392 L 199.14165226057227 139.97779698590364 L 200.64167498721974 141.02223331629295 L 202.1419260773176 143.02256810309012 L 203.6427057517973 145.0236076690631 L 205.14431465474678 147.02575287299567 L 206.6470540945396 149.02940545938614 L 208.15122628609694 151.0349683814626 L 209.6571345946951 153.04284612626014 L 211.1650837817384 155.05344504231786 L 212.67538025292347 157.0671736705646 L 214.1883323092252 159.08444307896693 L 215.7042504011462 161.1056672015283 L 217.22344738667832 163.13126318223777 L 218.74623879344 165.16165172458668 L 220.27294308546 167.19725744728 L 221.80388193509683 169.23850924679573 L 223.33938050059626 171.28584066746168 L 224.87976770980893 173.3396902797452 L 226.42537655060394 175.4005020674719 L 227.97654436854157 177.46872582472204 L 229.5336131723844 179.54481756317915 L 231.09692994805727 181.62923993074304 L 232.6668469816858 183.72246264224773 L 234.24372219237858 185.82496292317146 L 235.82791947544547 187.9372259672607 L 237.41980905678122 190.05974540904162 L 239.019767859176 192.19302381223469 L 240.62817988135978 194.33757317514633 L 242.24543659062314 196.49391545416424 L 243.87193732991184 198.6625831065491 L 245.50808974033086 200.8441196537745 L 247.15431020005852 203.0390802667447 L 248.8110242807199 205.24803237429316 L 250.47866722233508 207.47155629644678 L 252.15768442802536 209.7102459040338 L 253.84853197972714 211.96470930630284 L 255.55167717624767 214.23556956833022 L 257.2675990950745 216.52346546009932 L 258.99678917944567 218.82905223926093 L 260.73975185227926 221.1530024697056 L 262.4970051586703 223.49600687822704 L 264.2690814387748 225.85877525169968 L 266.05652803302195 228.24203737736258 L 267.85990802172785 230.64654402897042 L 269.6798010013273 233.0730680017697 L 271.51680389959375 235.5224051994583 L 273.371531832386 237.99537577651466 L 275.24461900463683 240.49282533951575 L 277.13671965849943 243.01562621133255 L 279.04850907177513 245.5646787623668 L 280.98068460998047 248.14091281330732 L 282.9339668356551 250.74528911420677 L 284.9091006787887 253.3788009050516 L 286.9068566725365 256.04247556338197 L 288.9280322587147 258.737376344953 L 290.973453167914 261.4646042238853 L 293.0439748794495 264.225299839266 L 295.1404841667822 267.0206455557096 L 297.26390073449164 269.8518676459888 L 299.41517895338137 272.7202386045085 L 301.595309700828 275.627079601104 L 303.8053223140798 278.5737630854397 L 306.04628666485246 281.5617155531366 L 308.31931536427925 284.5924204857056 L 310.6255661080395 287.6674214773859 L 312.9662441723489 290.78832556313193 L 315.3426050724209 293.95680676322786 L 317.7559573960406 297.17460986138747 L 320.20766582601954 300.4435544346927 L 322.69915436654645 303.76553915539523 L 325.23190978982313 307.1425463864308 L 327.80748532089484 310.57664709452644 L 330.4275045802545 314.07000610700595 L 333.09366580566564 317.6248877408875 L 335.8077463766992 321.2436618355989 L 338.5716076677682 324.928810223691 L 341.38720025797056 328.68293367729405 L 344.25656952887744 332.5087593718365 L 347.1818616845388 336.40914891271836 L 349.5 339.32336208855537 L 349.5 338.5347124282945 L 349.5 337.76130687023476 L 349.5 337.0025573644807 L 349.5 336.2579036945505 L 349.5 335.5268118049712 L 349.5 334.80877224695826 L 349.5 334.1032987325325 L 349.5 333.40992678831674 L 349.5 332.7282125010513 L 349.5 332.0577313475881 L 349.5 331.39807710276256 L 349.5 330.74886081912996 L 349.5 330.109709873072 L 349.5 329.48026707225574 L 349.5 328.8601898198533 L 349.5 328.24914933131953 L 349.5 327.6468298998726 L 349.5 327.0529282071451 L 349.5 326.4671526757573 L 349.5 325.889222860831 L 349.5 325.3188688776978 L 349.5 324.75583086327487 L 349.5 324.19985846877955 L 349.5 323.65071038163455 L 349.5 323.1081538745796 L 349.5 322.5719643801584 L 349.5 322.0419250888865 L 349.5 321.51782656953174 L 349.5 320.9994664100561 L 349.5 320.48664887787197 L 349.5 319.9791845981665 L 349.5 319.47689024913257 L 349.5 318.9795882730324 L 349.5 318.487106602091 L 349.5 317.99927839828996 L 349.5 317.5159418061928 L 349.5 317.03693971799555 L 349.5 316.56211955004846 L 349.5 316.09133303014613 L 349.5 315.62443599492906 L 349.5 315.1612881967844 L 349.5 314.7017531196705 L 349.5 314.24569780332945 L 349.5 313.79299267538374 L 349.5 313.34351139084663 L 349.5 312.8971306786019 L 349.5 312.4537301944397 L 349.5 312.01319238025667 L 349.5 311.5754023290546 L 349.5 311.14024765539 L 349.5 310.7076183709514 L 349.5 310.2774067649565 L 349.5 309.8495072890777 L 349.5 309.42381644662584 L 349.5 309.00023268572966 L 349.5 308.5786562962676 L 349.5 308.1589893103194 L 349.5 307.7411354059169 L 349.5 307.32499981388366 L 349.5 306.9104892275654 L 349.5 306.4975117152601 L 349.5 306.0859766351674 L 349.5 305.67579455268327 L 349.5 305.26687715987515 L 349.5 304.859137196978 L 349.5 304.4524883757589 L 349.5 304.04684530460366 L 349.5 303.64212341518373 L 349.5 303.23823889056644 L 349.5 302.8351085946372 L 349.5 302.432650002704 L 349.5 302.0307811331615 L 349.5 301.62942048008995 L 349.5 301.2284869466738 L 349.5 300.82789977932043 L 349.5 300.4275785023668 L 349.5 300.0274428532599 L 349.5 299.62741271810125 L 349.5 299.5" fill-opacity="1"/><path fill="#ffffff" stroke="none" paint-order="stroke fill markers" d="" fill-opacity="1"/><g><path fill="none" stroke="#ffffff" class="dcg-svg-curve" paint-order="fill stroke markers" d=" M 349.5 299.5 L 349.5 299.5 L 349.5 299.0999866661333 L 349.5 298.6998933162639 L 349.5 298.2996398703528 L 349.5 297.8991461201794 L 349.5 297.4983316649784 L 349.5 297.0971158467481 L 349.5 296.6954176851199 L 349.5 296.2931558116771 L 349.5 295.8902484036086 L 349.5 295.486613116582 L 349.5 295.08216701671836 L 349.5 294.6768265115478 L 349.5 294.2705072798216 L 349.5 293.863124200055 L 349.5 293.4545912776682 L 349.5 293.0448215705916 L 349.5 292.6337271131943 L 349.5 292.2212188383921 L 349.5 291.80720649778266 L 349.5 291.3915985796531 L 349.5 290.9743022246942 L 349.5 290.55522313925263 L 349.5 290.13426550594136 L 349.5 289.7113318914214 L 349.5 289.28632315115857 L 349.5 288.85913833094935 L 349.5 288.4296745649988 L 349.5 287.99782697032094 L 349.5 287.5634885372227 L 349.5 287.12655001561507 L 349.5 286.68689979688304 L 349.5 286.2444237910306 L 349.5 285.7990052987984 L 349.5 285.35052487843507 L 349.5 284.898860206783 L 349.5 284.4438859343189 L 349.5 283.985473533766 L 349.5 283.523491141871 L 349.5 283.05780339391146 L 349.5 282.58827125047355 L 349.5 282.1147518160044 L 349.5 281.6370981486162 L 349.5 281.1551590605778 L 349.5 280.66877890889515 L 349.5 280.17779737533687 L 349.5 279.682049235218 L 349.5 279.18136411420465 L 349.5 278.67556623234964 L 349.5 278.16447413451186 L 349.5 277.64790040624837 L 349.5 277.1256513742022 L 349.5 276.5975267899332 L 349.5 276.0633194960612 L 349.5 275.5228150735004 L 349.5 274.9757914684746 L 349.5 274.4220185978921 L 349.5 273.8612579315537 L 349.5 273.29326204953963 L 349.5 272.7177741729879 L 349.5 272.1345276663323 L 349.5 271.54324550890436 L 349.5 270.9436397336304 L 349.5 270.3354108303612 L 349.5 269.7182471111614 L 349.5 269.091824034653 L 349.5 268.45580348625344 L 349.5 267.80983301086974 L 349.5 267.15354499429736 L 349.5 266.486555789239 L 349.5 265.80846478147686 L 349.5 265.1188533913224 L 349.5 264.41728400500665 L 349.5 263.70329883016745 L 349.5 262.97641866902796 L 349.5 262.23614160223707 L 349.5 261.48194157564785 L 349.5 260.71326688154045 L 349.5 259.9295385249358 L 348.12576333113327 257.667684441511 L 345.18219009757115 253.74292013009492 L 342.29524559122933 249.89366078830577 L 339.4627501552822 246.11700020704296 L 336.6826269676304 242.41016929017394 L 333.9528958786516 238.77052783820213 L 331.27166768280176 235.19555691040236 L 328.63713878872153 231.68285171829532 L 326.04758625574914 228.23011500766557 L 323.5013631676611 224.83515089021478 L 320.9968943170792 221.4958590894389 L 318.5326721763476 218.21022956846343 L 316.1072531328044 214.97633751040584 L 313.71925396829346 211.7923386243913 L 311.3673485644942 208.65646475265893 L 309.05026481721177 205.56701975628235 L 306.7667817441908 202.52237565892108 L 304.5157267722987 199.52096902973162 L 302.2959731910908 196.5612975881211 L 300.106437760829 193.64191701443872 L 297.94607846398674 190.76143795198226 L 295.8138923901496 187.91852318686617 L 293.7089137450183 185.11188499335773 L 291.6302119749468 182.34028263326238 L 289.57688999911386 179.60251999881848 L 287.54808254202965 176.89744338937288 L 285.5429545596362 174.22393941284827 L 283.5606997527636 171.58093300368478 L 281.6005391621715 168.96738554956204 L 279.6617198398288 166.38229311977173 L 277.743513591474 163.82468478863203 L 275.84521578585964 161.2936210478129 L 273.96614422640965 158.78819230187958 L 272.1056380813238 156.307517441765 L 270.2630568684394 153.8507424912525 L 268.43777949141884 151.41703932189176 L 266.62920332406543 149.00560443208724 L 264.8367433397883 146.61565778638445 L 263.05983128343917 144.24644171125223 L 261.2979148829258 141.89721984390104 L 259.55045709818233 139.56727613090982 L 257.8169354052307 137.25591387364102 L 256.09684111321616 134.96245481762156 L 254.38967871243386 132.6862382832452 L 252.69496525149034 130.42662033532048 L 251.01222974185643 128.1829729891419 L 249.34101258817927 125.95468345090569 L 247.68086504281825 123.74115339042436 L 246.03134868316212 121.54179824421624 L 244.39203491037136 119.35604654716184 L 242.76250446826782 117.1833392910238 L 241.14234698116874 115.02312930822501 L 239.53116050952858 112.87488067937142 L 237.92855112231777 110.73806816309036 L 236.33413248512554 108.61217664683403 L 234.747525463027 106.4967006173693 L 233.16835773730892 104.39114364974523 L 231.5962634351917 102.29501791358894 L 230.0308827717317 100.20784369564223 L 228.47186170312716 98.12914893750292 L 226.91885159068872 96.05846878758496 L 225.37150887477003 93.99534516636004 L 223.8294947579868 91.93932634398237 L 222.29247489708115 89.88996652944155 L 220.76011910281687 87.84682547042252 L 219.23210104731447 85.80946806308594 L 217.70809797826107 83.77746397101475 L 216.18779043944778 81.75038725259702 L 214.67086199710968 79.72781599614626 L 213.15699897155963 77.70933196207949 L 211.6458901736232 75.69452023149762 L 210.13722664539785 73.68296886053048 L 208.63070140487005 71.67426853982676 L 207.12600919393793 69.66801225858393 L 205.62284622939586 67.66379497252785 L 204.12090995644613 65.6612132752615 L 202.61989880431094 63.65986507241456 L 201.11951194352375 61.65934925803168 L 199.61944904448347 59.65926539264467 L 198.11941003686002 61.340786617519996 L 196.6190948694405 63.341206840746054 L 195.11820327000828 65.34239563998898 L 193.61643450484587 67.3447539935388 L 192.11348713745247 69.34868381673004 L 190.60905878606403 71.35458828524798 L 189.1028458795606 73.36287216058588 L 187.59454341134136 75.37394211821152 L 186.08384469074022 77.38820707901306 L 184.57044109154964 79.40607854460046 L 183.05402179721048 81.42797093705269 L 181.5342735422161 83.45430194371187 L 180.01088034926792 85.48549286764279 L 178.4835232617063 87.5219689843916 L 176.95188007072719 89.56415990569707 L 175.41562503687865 91.61249995082846 L 173.8744286053142 93.66742852624776 L 172.3279571142603 95.72939051431962 L 170.7758724961354 97.79883667181946 L 169.21783197073393 99.87622403902145 L 167.65348772986422 101.96201636018105 L 166.08248661280305 104.05668451626264 L 164.50446977189833 106.16070697080221 L 162.9190723276225 108.27457022983663 L 161.3259230123416 110.39876931687786 L 159.72464380203124 112.53380826395835 L 158.11484953512814 114.68020061982918 L 156.49614751766447 116.83846997644741 L 154.86813711378448 119.009150514954 L 153.23040932069412 121.19278757240784 L 151.58254632703867 123.38993823061514 L 149.92412105364713 125.60117192847048 L 148.25469667551798 127.82707109930936 L 146.57382612385356 130.06823183486193 L 144.88105156687857 132.32526457749526 L 143.17590386809832 134.5987948425356 L 141.4579020205689 136.8894639725748 L 139.7265525556598 139.19792992578698 L 137.98134892469116 141.52486810041182 L 136.22177085172194 143.87097219770405 L 134.44728365565066 146.23695512579908 L 132.65733753966686 148.62354994711086 L 130.85136684595713 151.03151087205714 L 129.0287892734271 153.46161430209722 L 127.18900505604135 155.91465992527822 L 125.3313960992187 158.3914718677084 L 123.45532507153195 160.89289990462404 L 121.56013444876929 163.41982073497425 L 119.64514550719349 165.973139323742 L 117.70965726260783 168.55379031652288 L 115.75294535157984 171.16273953122692 L 113.7742608509038 173.8009855321283 L 111.77282903108029 176.46956129189294 L 109.74784803927147 179.16953594763802 L 107.69848750683083 181.90201665755887 L 105.6238870761294 184.66815056516077 L 103.52315484097299 187.46912687870267 L 101.39536569445355 190.30617907406193 L 99.2395595775735 193.180587229902 L 97.05473962143988 196.09368050474683 L 94.8398701752225 199.04683976637 L 92.5938747114236 202.04150038476854 L 90.31563359928091 205.0791552009588 L 88.0039817363505 208.16135768486598 L 85.65770602744277 211.28972529674297 L 83.27554269914617 214.46594306780509 L 80.85617443712356 217.6917674171686 L 78.39822733222385 220.96903022370154 L 75.90026762018114 224.29964317309182 L 73.36079819828295 227.6856024022894 L 70.77825490084373 231.1289934655417 L 68.15100251361547 234.6319966485127 L 65.4773305053833 238.19689265948892 L 62.755448452897475 241.82606872947002 L 59.98348113297865 245.52202515602846 L 57.15946325304847 249.28738232926872 L 54.281333788478506 253.12488828202868 L 51.34692989194757 257.0374268107366 L 49.5 259.8032880829028 L 49.5 260.5894693208468 L 49.5 261.3605020483924 L 49.5 262.11696976541526 L 49.5 262.8594284130636 L 49.5 263.58840802667095 L 49.5 264.30441427218483 L 49.5 265.0079298756095 L 49.499999999999964 265.6994159540883 L 49.50000000000002 266.37931325646605 L 49.5 267.04804332046626 L 49.5 267.70600955298426 L 49.5 268.35359823942633 L 49.5 268.9911794875071 L 49.499999999999964 269.6191081104536 L 49.5 270.23772445414284 L 49.5 270.84735517231854 L 49.5 271.44831395368715 L 49.5 272.0409022043799 L 49.5 272.6254096889845 L 49.5 273.20211513308857 L 49.5 273.7712867900459 L 49.50000000000002 274.33318297445794 L 49.5 274.8880525646711 L 49.5 275.4361354764096 L 49.5 275.97766310950385 L 49.5 276.51285876952136 L 49.5 277.0419380659755 L 49.5 277.5651092886604 L 49.5 278.08257376354493 L 49.5 278.5945261895579 L 49.5 279.10115495749585 L 49.5 279.60264245220037 L 49.5 280.09916533906716 L 49.5 280.5908948358785 L 49.50000000000002 281.0779969708774 L 49.5 281.56063282794264 L 49.5 282.0389587796618 L 49.50000000000002 282.51312670904935 L 49.5 282.9832842206027 L 49.5 283.449574841348 L 49.5 283.91213821248084 L 49.5 284.3711102721705 L 49.5 284.82662343005904 L 49.5 285.27880673395293 L 49.5 285.72778602917435 L 49.5 286.1736841110093 L 49.5 286.6166208706652 L 49.5 287.05671343512273 L 49.5 287.49407630124705 L 49.5 287.92882146449955 L 49.5 288.36105854257335 L 49.5 288.79089489425576 L 49.5 289.2184357338067 L 49.5 289.64378424112135 L 49.5 290.06704166793764 L 49.5 290.48830744032784 L 49.5 290.9076792577075 L 49.5 291.32525318857904 L 49.5 291.7411237632182 L 49.5 292.1553840635014 L 49.5 292.56812581006267 L 49.5 292.979439446959 L 49.50000000000002 293.3894142240177 L 49.5 293.7981382770289 L 49.5 294.2056987059417 L 49.5 294.6121816512158 L 49.5 295.0176723684738 L 49.5 295.4222553015955 L 49.5 295.82601415438967 L 49.5 296.2290319609753 L 49.50000000000002 296.6313911549999 L 49.5 297.03317363781906 L 49.5 297.43446084575794 L 49.5 297.8353338165746 L 49.50000000000002 298.235873255239 L 49.50000000000002 298.63615959914466 L 49.5 299.03627308286116 L 49.5 299.43629380254373 L 49.5 299.8363017801049 L 49.5 300.2363770272617 L 49.5 300.6365996095638 L 49.499999999999964 301.0370497105148 L 49.5 301.4378076958928 L 49.5 301.8389541783831 L 49.5 302.24057008263065 L 49.5 302.64273671082617 L 49.5 303.0455358089388 L 49.5 303.44904963371124 L 49.5 303.8533610205332 L 49.5 304.25855345231594 L 49.5 304.6647111294893 L 49.5 305.0719190412481 L 49.5 305.480263038179 L 49.5 305.88982990640125 L 49.5 306.30070744336206 L 49.5 306.7129845354282 L 49.5 307.12675123742633 L 49.5 307.5420988542862 L 49.50000000000002 307.9591200249498 L 49.50000000000002 308.3779088087149 L 49.5 308.79856077419197 L 49.5 309.221173091059 L 49.5 309.64584462480934 L 49.5 310.072676034697 L 49.5 310.5017698750948 L 49.5 310.9332307004921 L 49.5 311.3671651743709 L 49.499999999999964 311.8036821822121 L 49.5 312.2428929488999 L 49.50000000000002 312.68491116080423 L 49.5 313.12985309284187 L 49.50000000000002 313.5778377408311 L 49.5 314.0289869594772 L 49.5 314.48342560634376 L 49.5 314.94128169219044 L 49.5 315.4026865380788 L 49.499999999999964 315.8677749396768 L 49.5 316.3366853392182 L 49.5 316.8095600056058 L 49.5 317.28654522317737 L 49.5 317.76779148969126 L 49.5 318.2534537241263 L 49.5 318.7436914849299 L 49.5 319.23866919939616 L 49.50000000000002 319.7385564049015 L 49.5 320.2435280027806 L 49.5 320.7537645256788 L 49.5 321.26945241928297 L 49.5 321.79078433939566 L 49.5 322.3179594653941 L 49.5 322.8511838311904 L 49.5 323.3906706749001 L 49.5 323.9366408085151 L 49.5 324.4893230089825 L 49.5 325.0489544321997 L 49.50000000000002 325.61578105155814 L 49.5 326.19005812280193 L 49.499999999999964 326.77205067710815 L 49.5 327.3620340444584 L 49.5 327.96029440954203 L 49.5 328.5671294026197 L 49.50000000000002 329.1828487279877 L 49.5 329.80777483290854 L 49.5 330.44224362012505 L 49.5 331.0866052073525 L 49.5 331.7412247374447 L 49.5 332.40648324326736 L 49.5 333.0827785716781 L 49.5 333.77052637142424 L 49.5 334.4701611502169 L 49.5 335.18213740674145 L 49.5 335.90693084391626 L 49.5 336.6450396703259 L 49.5 337.3969859974357 L 49.5 338.1633173409553 L 49.5 338.944608235559 L 50.400049207745845 338.2999343896722 L 53.35284982835737 334.3628668955235 L 56.248664650799554 330.50178046560063 L 59.08969030961563 326.71374625384584 L 61.878019580603805 322.99597389252824 L 64.61564761566129 319.3458031791183 L 67.30447773782579 315.76069634956565 L 69.9463268324075 312.2382308901233 L 72.54293036680724 308.776092844257 L 75.09594706864175 305.37207057514433 L 77.60696328913677 302.0240489478176 L 80.07749707634375 298.73000389820834 L 82.50900198058187 295.4879973592242 L 84.90287061254807 292.29617251660255 L 87.26043797278572 289.1527493696191 L 89.58298456960478 286.0560205738603 L 91.87173934111169 283.00434754518443 L 94.12788239569453 279.99615680574067 L 96.35254758413195 277.02993655449075 L 98.54682491541512 274.1042334461132 L 100.71176282739877 271.21764956346834 L 102.84837032250329 268.36883956999566 L 104.9576189778859 265.5565080294855 L 107.04044483875667 262.7794068816578 L 109.09775020284732 260.0363330628702 L 111.13040530341792 257.3261262621094 L 113.13924989763352 254.64766680315532 L 115.1250947666218 251.99987364450428 L 117.08872313305768 249.38170248925644 L 119.03089200168382 246.7921439977549 L 120.95233342778619 244.23022209628508 L 122.85375571827525 241.69499237563298 L 124.73584456969701 239.18554057373728 L 126.59926414718258 236.7009811370899 L 128.444658108071 234.24045585590534 L 130.27265057367683 231.80313256843087 L 132.08384705243387 229.38820393008814 L 133.87883531743074 226.99488624342567 L 135.65818624114385 224.62241834514154 L 137.42245458999247 222.27006054667672 L 139.1721797811624 219.93709362511677 L 140.90788660398863 217.62281786134852 L 142.63008590803463 215.32655212262048 L 144.3392752598744 213.04763298683417 L 146.03593957045135 210.7854139060649 L 147.72055169477642 208.53926440696478 L 149.3935730056129 206.3085693258495 L 151.05545394269996 204.09272807640008 L 152.70663453897026 201.89115394803963 L 154.34754492513315 199.7032734331558 L 155.97860581391072 197.52852558145236 L 157.6002289651439 195.36636137980813 L 159.2128176329125 193.2162431561166 L 160.8167669957537 191.0776440056617 L 162.41246457099766 188.95004723866975 L 164.0002906141898 186.83294584774694 L 165.58061850451304 184.72584199398264 L 167.15381511708085 182.6282465105589 L 168.72024118292103 180.539678422772 L 170.28025163743584 178.45966448341892 L 171.83419595808215 176.38773872255715 L 173.38241849198062 174.32344201069253 L 174.92525877413317 172.26632163448912 L 176.4630518368931 170.21593088414252 L 177.9961285113091 168.17182865158784 L 179.52481572093578 166.13357903875232 L 181.04943676868268 164.10075097508974 L 182.5703116172484 162.0729178436688 L 184.0877571636705 160.04965711510602 L 185.60208750850097 158.03054998866537 L 187.11361422010418 156.01518103986106 L 188.62264659455494 154.00313787392673 L 190.12949191160484 151.99401078452686 L 191.63445568717196 149.987392417104 L 193.1378419227993 147.98287743626756 L 194.63995335251636 145.9800621966449 L 196.14109168753342 143.9785444166221 L 197.64155785918953 141.97792285441392 L 199.14165226057227 139.97779698590364 L 200.64167498721974 141.02223331629295 L 202.1419260773176 143.02256810309012 L 203.6427057517973 145.0236076690631 L 205.14431465474678 147.02575287299567 L 206.6470540945396 149.02940545938614 L 208.15122628609694 151.0349683814626 L 209.6571345946951 153.04284612626014 L 211.1650837817384 155.05344504231786 L 212.67538025292347 157.0671736705646 L 214.1883323092252 159.08444307896693 L 215.7042504011462 161.1056672015283 L 217.22344738667832 163.13126318223777 L 218.74623879344 165.16165172458668 L 220.27294308546 167.19725744728 L 221.80388193509683 169.23850924679573 L 223.33938050059626 171.28584066746168 L 224.87976770980893 173.3396902797452 L 226.42537655060394 175.4005020674719 L 227.97654436854157 177.46872582472204 L 229.5336131723844 179.54481756317915 L 231.09692994805727 181.62923993074304 L 232.6668469816858 183.72246264224773 L 234.24372219237858 185.82496292317146 L 235.82791947544547 187.9372259672607 L 237.41980905678122 190.05974540904162 L 239.019767859176 192.19302381223469 L 240.62817988135978 194.33757317514633 L 242.24543659062314 196.49391545416424 L 243.87193732991184 198.6625831065491 L 245.50808974033086 200.8441196537745 L 247.15431020005852 203.0390802667447 L 248.8110242807199 205.24803237429316 L 250.47866722233508 207.47155629644678 L 252.15768442802536 209.7102459040338 L 253.84853197972714 211.96470930630284 L 255.55167717624767 214.23556956833022 L 257.2675990950745 216.52346546009932 L 258.99678917944567 218.82905223926093 L 260.73975185227926 221.1530024697056 L 262.4970051586703 223.49600687822704 L 264.2690814387748 225.85877525169968 L 266.05652803302195 228.24203737736258 L 267.85990802172785 230.64654402897042 L 269.6798010013273 233.0730680017697 L 271.51680389959375 235.5224051994583 L 273.371531832386 237.99537577651466 L 275.24461900463683 240.49282533951575 L 277.13671965849943 243.01562621133255 L 279.04850907177513 245.5646787623668 L 280.98068460998047 248.14091281330732 L 282.9339668356551 250.74528911420677 L 284.9091006787887 253.3788009050516 L 286.9068566725365 256.04247556338197 L 288.9280322587147 258.737376344953 L 290.973453167914 261.4646042238853 L 293.0439748794495 264.225299839266 L 295.1404841667822 267.0206455557096 L 297.26390073449164 269.8518676459888 L 299.41517895338137 272.7202386045085 L 301.595309700828 275.627079601104 L 303.8053223140798 278.5737630854397 L 306.04628666485246 281.5617155531366 L 308.31931536427925 284.5924204857056 L 310.6255661080395 287.6674214773859 L 312.9662441723489 290.78832556313193 L 315.3426050724209 293.95680676322786 L 317.7559573960406 297.17460986138747 L 320.20766582601954 300.4435544346927 L 322.69915436654645 303.76553915539523 L 325.23190978982313 307.1425463864308 L 327.80748532089484 310.57664709452644 L 330.4275045802545 314.07000610700595 L 333.09366580566564 317.6248877408875 L 335.8077463766992 321.2436618355989 L 338.5716076677682 324.928810223691 L 341.38720025797056 328.68293367729405 L 344.25656952887744 332.5087593718365 L 347.1818616845388 336.40914891271836 L 349.5 339.32336208855537 L 349.5 338.5347124282945 L 349.5 337.76130687023476 L 349.5 337.0025573644807 L 349.5 336.2579036945505 L 349.5 335.5268118049712 L 349.5 334.80877224695826 L 349.5 334.1032987325325 L 349.5 333.40992678831674 L 349.5 332.7282125010513 L 349.5 332.0577313475881 L 349.5 331.39807710276256 L 349.5 330.74886081912996 L 349.5 330.109709873072 L 349.5 329.48026707225574 L 349.5 328.8601898198533 L 349.5 328.24914933131953 L 349.5 327.6468298998726 L 349.5 327.0529282071451 L 349.5 326.4671526757573 L 349.5 325.889222860831 L 349.5 325.3188688776978 L 349.5 324.75583086327487 L 349.5 324.19985846877955 L 349.5 323.65071038163455 L 349.5 323.1081538745796 L 349.5 322.5719643801584 L 349.5 322.0419250888865 L 349.5 321.51782656953174 L 349.5 320.9994664100561 L 349.5 320.48664887787197 L 349.5 319.9791845981665 L 349.5 319.47689024913257 L 349.5 318.9795882730324 L 349.5 318.487106602091 L 349.5 317.99927839828996 L 349.5 317.5159418061928 L 349.5 317.03693971799555 L 349.5 316.56211955004846 L 349.5 316.09133303014613 L 349.5 315.62443599492906 L 349.5 315.1612881967844 L 349.5 314.7017531196705 L 349.5 314.24569780332945 L 349.5 313.79299267538374 L 349.5 313.34351139084663 L 349.5 312.8971306786019 L 349.5 312.4537301944397 L 349.5 312.01319238025667 L 349.5 311.5754023290546 L 349.5 311.14024765539 L 349.5 310.7076183709514 L 349.5 310.2774067649565 L 349.5 309.8495072890777 L 349.5 309.42381644662584 L 349.5 309.00023268572966 L 349.5 308.5786562962676 L 349.5 308.1589893103194 L 349.5 307.7411354059169 L 349.5 307.32499981388366 L 349.5 306.9104892275654 L 349.5 306.4975117152601 L 349.5 306.0859766351674 L 349.5 305.67579455268327 L 349.5 305.26687715987515 L 349.5 304.859137196978 L 349.5 304.4524883757589 L 349.5 304.04684530460366 L 349.5 303.64212341518373 L 349.5 303.23823889056644 L 349.5 302.8351085946372 L 349.5 302.432650002704 L 349.5 302.0307811331615 L 349.5 301.62942048008995 L 349.5 301.2284869466738 L 349.5 300.82789977932043 L 349.5 300.4275785023668 L 349.5 300.0274428532599 L 349.5 299.62741271810125 L 349.5 299.5" stroke-linecap="round" stroke-linejoin="round" stroke-miterlimit="10" stroke-width="2.5" stroke-opacity="1" stroke-dasharray=""/></g></g></g><g id="labels-252ee22c"/></g></svg>