<?xml version="1.0" encoding="UTF-8"?>
<svg xmlns="http://www.w3.org/2000/svg" xmlns:xlink="http://www.w3.org/1999/xlink" width="360pt" height="297pt" viewBox="0 0 360 297" version="1.1">
<g id="surface181">
<path style=" stroke:none;fill-rule:evenodd;fill:rgb(99.998474%,99.998474%,99.998474%);fill-opacity:1;" d="M 22.925781 213.007813 L 22.953125 214.140625 L 17.550781 211.054688 L 12.074219 207.457031 L 9.925781 206.300781 L 8.347656 209.511719 L 14.402344 213.234375 L 17.140625 215.160156 L 23.339844 218.765625 L 23.75 224.113281 L 23.777344 226.480469 L 16.78125 222.371094 L 14.40625 221.199219 L 12.730469 224.554688 L 15.234375 225.390625 L 17.671875 227.234375 L 24.160156 231.109375 L 24.5625 233.519531 L 27.867188 233.140625 L 29.09375 234.039063 L 30.335938 234.363281 L 32.644531 235.421875 L 33.417969 236.25 L 34.058594 236.363281 L 35.738281 237.203125 L 37.914063 251.0625 L 39.785156 260.261719 L 44.308594 259.019531 L 45.972656 258.308594 L 48.441406 257.492188 L 49.726563 256.878906 L 48.992188 253.234375 L 51.929688 254.144531 L 53.367188 255.003906 L 54.609375 255.347656 L 56.046875 256.203125 L 58.488281 257.085938 L 60.570313 269.164063 L 61.136719 270.878906 L 63.664063 270.242188 L 64.726563 269.578125 L 64.066406 266.898438 L 63.65625 262.375 L 63.246094 260.316406 L 63.039063 259.082031 L 63.246094 259.082031 L 67.375 261.058594 L 74.023438 263.773438 L 75.289063 264.617188 L 76.585938 273.277344 L 77.582031 278.152344 L 78.054688 279.652344 L 78.464844 280.066406 L 79.691406 279.59375 L 81.617188 279.046875 L 79.328125 266.367188 L 80.941406 266.84375 L 84.632813 268.589844 L 85.398438 268.691406 L 88.339844 270.191406 L 88.757813 270.964844 L 91.203125 284.59375 L 94.53125 283.859375 L 95.15625 283.152344 L 93.113281 272.191406 L 94.519531 272.597656 L 97.546875 274.105469 L 98.007813 274.511719 L 98.648438 274.625 L 105.605469 277.527344 L 106.421875 278.738281 L 107.46875 285.207031 L 108.085938 287.46875 L 108.484375 289.195313 L 112.195313 288.246094 L 114.054688 287.46875 L 116.730469 286.691406 L 118.664063 286.050781 L 117.6875 280.523438 L 118.785156 280.886719 L 119.183594 280.542969 L 120.433594 280.855469 L 125.570313 280.683594 L 129.066406 280.089844 L 130.339844 280.359375 L 132.566406 279.859375 L 135.855469 279.449219 L 138.117188 278.871094 L 139.359375 279.199219 L 149.644531 276.816406 L 155.007813 275.21875 L 160.128906 273.480469 L 164.878906 271.921875 L 168.550781 270.261719 L 169.808594 269.839844 L 173.101563 268.617188 L 178.390625 265.949219 L 182.160156 263.699219 L 184.632813 261.863281 L 187.601563 260.914063 L 191.621094 259.164063 L 194.933594 257.5625 L 199.890625 254.292969 L 201.683594 252.5 L 203.921875 250.351563 L 205.382813 248.59375 L 206.140625 247.78125 L 208.199219 244.898438 L 208.941406 244.128906 L 209.78125 242.789063 L 211.554688 240.160156 L 212.234375 238.777344 L 212.585938 237.277344 L 214.976563 232.183594 L 218.609375 223.078125 L 220.035156 218.898438 L 221.875 211.15625 L 222.664063 206.011719 L 223.9375 200.042969 L 225.746094 189.121094 L 226.367188 181.945313 L 227.335938 173.777344 L 227.867188 173.246094 L 232.328125 174.292969 L 233.570313 173.960938 L 237.679688 175.15625 L 241.792969 176 L 248.789063 176.78125 L 251.226563 177.519531 L 252.082031 177.253906 L 256.601563 178.40625 L 257.84375 178.074219 L 259.894531 178.84375 L 261.167969 178.566406 L 263.59375 179.230469 L 264.835938 178.902344 L 268.535156 179.65625 L 269.796875 179.371094 L 276.738281 179.992188 L 277.996094 179.683594 L 278.398438 180.027344 L 279.644531 179.683594 L 280.042969 180.027344 L 281.289063 179.683594 L 281.722656 180 L 285.375 179.371094 L 286.230469 179.640625 L 291.585938 178.511719 L 295.277344 177.625 L 295.253906 177.945313 L 296.078125 177.535156 L 296.714844 177.214844 L 298.160156 176.839844 L 301.375 175.410156 L 305.15625 173.148438 L 308.78125 170.0625 L 313.789063 164.871094 L 314.246094 163.765625 L 317.664063 158.492188 L 320.578125 153.148438 L 322.140625 148.25 L 321.902344 147.777344 L 323.183594 143.21875 L 324.050781 138.449219 L 324.789063 132.140625 L 325.503906 123.9375 L 324.714844 104.339844 L 328.742188 106.667969 L 329.8125 107.777344 L 332.734375 109.242188 L 336.035156 111.695313 L 340.5 114.375 L 344.261719 117.046875 L 347.296875 118.839844 L 348.050781 117.332031 L 351.433594 113.242188 L 351.820313 112.003906 L 349.175781 110.105469 L 345.746094 108.316406 L 345.398438 107.550781 L 341.96875 105.835938 L 341.148438 105.011719 L 337.992188 103.433594 L 337.582031 102.613281 L 335.964844 101.804688 L 335.339844 100.492188 L 334.433594 96.832031 L 336.027344 97.714844 L 339.605469 100.046875 L 340.734375 101.308594 L 344.027344 102.957031 L 345.4375 104.5 L 347.695313 105.34375 L 348.914063 103.316406 L 347.503906 102.019531 L 343.03125 98.9375 L 340.085938 97.097656 L 334.808594 93.582031 L 333.035156 92.292969 L 330.78125 85.429688 L 333.148438 86.613281 L 337.636719 89.65625 L 338.53125 90.015625 L 339.886719 88.148438 L 339.59375 87.300781 L 337.265625 85.78125 L 332.328125 82.90625 L 329.902344 81.492188 L 329.492188 80.671875 L 325.695313 78.578125 L 321.410156 76.074219 L 318.597656 58.097656 L 311.738281 57.128906 L 310.492188 57.453125 L 308.246094 56.949219 L 309.355469 63.589844 L 307.171875 62.136719 L 304.53125 59.347656 L 299.390625 55.46875 L 298.382813 49.472656 L 298.660156 48.207031 L 298.199219 45.027344 L 295.6875 44.332031 L 295.289063 44.664063 L 294.082031 44.210938 L 295.1875 51.472656 L 291.964844 49.359375 L 288.898438 46.183594 L 285.425781 43.578125 L 285.011719 42.179688 L 283.765625 34.402344 L 283.378906 33.523438 L 280 33.082031 L 280.839844 39.097656 L 279.625 38.652344 L 276.144531 35.898438 L 272.96875 32.570313 L 269.144531 30.136719 L 267.484375 20.132813 L 266.472656 20.429688 L 264.007813 19.644531 L 263.929688 19.644531 L 264.9375 26.183594 L 259.847656 22.25 L 259.472656 21.355469 L 253.039063 16.574219 L 251.605469 7.597656 L 250.019531 8.085938 L 247.589844 7.421875 L 246.316406 7.691406 L 242.617188 6.894531 L 242.203125 6.894531 L 241.632813 9.972656 L 242 11.007813 L 242.585938 12.152344 L 243.5625 17.777344 L 243.851563 21.292969 L 244.203125 21.558594 L 243.378906 22.378906 L 238.949219 21.410156 L 237.679688 21.683594 L 233.566406 20.484375 L 232.292969 20.761719 L 227.835938 19.753906 L 226.980469 20.015625 L 224.515625 19.253906 L 223.242188 19.527344 L 221.019531 19.027344 L 217.726563 18.617188 L 215.5 18.117188 L 214.226563 18.386719 L 210.527344 17.613281 L 208.875 17.949219 L 206.449219 17.296875 L 205.175781 17.5625 L 201.507813 16.875 L 200.238281 17.144531 L 198.183594 16.769531 L 185.84375 17.179688 L 185.847656 16.8125 L 183.363281 17.527344 L 181.296875 18.738281 L 176.175781 21.292969 L 173.570313 22.800781 L 173.234375 23.5625 L 169.769531 25.710938 L 165.664063 28.195313 L 161.910156 32.246094 L 157.988281 35.503906 L 157.457031 36.925781 L 155.839844 38.675781 L 152.199219 44.089844 L 150.027344 48.535156 L 149.023438 51.734375 L 148.144531 55.636719 L 147.03125 59.335938 L 146.347656 64.078125 L 145.722656 68.398438 L 146.125 93.082031 L 145.832031 95.167969 L 146.550781 106.246094 L 145.835938 124.375 L 130.300781 127.394531 L 111.378906 131.546875 L 110.351563 132.164063 L 104.019531 133.476563 L 101.960938 134.300781 L 98.210938 135.207031 L 93.683594 136.4375 L 90.191406 137.71875 L 87.097656 138.484375 L 82.785156 140.1875 L 78.886719 141.484375 L 77.632813 142.183594 L 74.148438 143.480469 L 71.800781 144.464844 L 71.390625 145.289063 L 68.796875 146.152344 L 68.039063 146.984375 L 65.269531 148.308594 L 60.332031 151.597656 L 57.5625 153.925781 L 50.457031 161.054688 L 48.960938 163 L 47.910156 165.097656 L 44.816406 169.5625 L 42.496094 172.894531 L 40.617188 176.390625 L 40.058594 178.25 L 39.175781 180.917969 L 37.53125 184.207031 L 37.085938 185.644531 L 35.828125 191.398438 L 35.042969 193.464844 L 34.183594 200.054688 L 32.796875 199.882813 L 24.125 195.019531 L 17.554688 191.300781 L 15.949219 189.890625 L 11.992188 188.308594 L 9.441406 192.605469 L 8.414063 194.308594 L 7.179688 196.777344 L 9.742188 198.515625 L 10.195313 198.289063 L 17.144531 202.816406 L 22.007813 205.425781 L 22.515625 207.246094 Z M 31.917969 210.273438 L 26.28125 207.507813 L 26.945313 216.675781 L 29.109375 217.464844 L 32 219.085938 L 34.011719 220.089844 L 33.367188 211.148438 L 32.449219 210.273438 Z M 34.019531 224.105469 L 27.453125 220.824219 L 27.246094 223.496094 L 27.84375 229.371094 L 28.296875 229.144531 L 31.132813 231.015625 L 31.636719 230.765625 L 32.375 231.59375 L 35.269531 232.753906 L 35.074219 230.492188 Z M 46.386719 206.363281 L 43.921875 205.605469 L 44.320313 219.589844 L 44.738281 222.523438 L 50.074219 224.886719 L 51.703125 225.667969 L 52.207031 225.417969 L 52.753906 225.964844 L 53.375 226.136719 L 55.023438 226.632813 L 55.625 214.035156 L 55.3125 210.308594 L 53.429688 209.449219 L 52.929688 209.410156 Z M 49.652344 228.3125 L 45.09375 226.5625 L 45.75 233.371094 L 46.378906 236.042969 L 46.753906 237.574219 L 49.050781 238.71875 L 50.09375 239.261719 L 55.039063 241.300781 L 56.230469 241.894531 L 55.839844 233.574219 L 55.820313 230.777344 L 52.140625 229.417969 L 50.898438 229.085938 Z M 54.183594 244.742188 L 47.542969 242.214844 L 47.414063 243.246094 L 48.414063 249.117188 L 48.914063 248.867188 L 49.519531 249.40625 L 53.777344 251.214844 L 55.40625 251.996094 L 56.046875 251.679688 L 55.855469 252.417969 L 57.484375 252.910156 L 57.828125 252.910156 L 56.726563 246.066406 L 54.695313 244.855469 Z M 44.792969 202.164063 L 48.023438 203.132813 L 48.414063 203.863281 L 48.914063 203.613281 L 49.394531 204.09375 L 52.824219 205.464844 L 53.164063 205.804688 L 53.789063 205.960938 L 55.875 206.71875 L 56.25 202.722656 L 56.664063 200.253906 L 58.851563 192.21875 L 59.730469 189.351563 L 54.609375 187.136719 L 53.019531 186.410156 L 52.539063 186.324219 L 48.023438 184.617188 L 47.75 184.835938 L 45.695313 192.242188 L 44.730469 197.371094 L 44.257813 201.632813 Z M 72.367188 166.671875 L 75.359375 163.25 L 68.597656 160.300781 L 67.355469 159.980469 L 64.910156 158.792969 L 64.457031 159.019531 L 56.867188 166.722656 L 55.324219 169.628906 L 52.660156 173.285156 L 50.605469 177.398438 L 49.015625 180.296875 L 48.859375 180.992188 L 52.542969 182.605469 L 53.789063 182.929688 L 59.976563 185.761719 L 60.816406 186.183594 L 61.597656 184.617188 L 62.128906 183.570313 L 65.402344 176.570313 L 67.882813 172.460938 L 71.652344 167.542969 Z M 60.34375 232.84375 L 59.335938 232.34375 L 59.347656 233.371094 L 60.386719 241.300781 L 60.839844 243.597656 L 62.945313 244.457031 L 64.089844 245.1875 L 70.664063 247.898438 L 72.957031 248.898438 L 72.023438 237.738281 L 69.210938 236.867188 L 66.742188 235.632813 L 64.46875 234.871094 Z M 60.835938 212.859375 L 59.542969 212.183594 L 58.878906 213.207031 L 59.246094 228.453125 L 60.664063 229.277344 L 61.195313 229.414063 L 63.664063 230.222656 L 68.027344 232.128906 L 68.386719 232.546875 L 69.011719 232.703125 L 71.472656 233.574219 L 72.085938 223.085938 L 71.789063 217.292969 L 70.855469 216.707031 L 69.066406 216.03125 L 68.570313 215.976563 L 61.605469 212.960938 Z M 63.246094 190.789063 L 62.496094 193.417969 L 60.300781 202.007813 L 59.46875 208.324219 L 61.164063 209.210938 L 61.621094 208.984375 L 64.898438 210.480469 L 68.589844 212.226563 L 69.355469 212.328125 L 72.296875 213.828125 L 72.707031 213.417969 L 73.230469 209.941406 L 74.046875 205.421875 L 76.183594 197.578125 L 75.917969 196.222656 L 69.007813 193.214844 L 67.765625 192.890625 Z M 62.839844 248.335938 L 61.292969 248.152344 L 61.832031 252.707031 L 62.496094 254.71875 L 64.480469 255.765625 L 68.175781 257.480469 L 69.421875 257.800781 L 72.699219 259.542969 L 74.351563 259.90625 L 74.53125 259.285156 L 73.53125 252.90625 L 71.882813 252.5 L 71.679688 251.679688 L 71.054688 251.726563 L 68.386719 250.855469 L 64.683594 249.414063 Z M 76.785156 192.550781 L 77.679688 193.144531 L 78.730469 190.59375 L 79.878906 186.878906 L 83.917969 179.859375 L 87.199219 175.398438 L 87.515625 174.332031 L 91.105469 170.859375 L 91.175781 170.089844 L 88.757813 168.941406 L 87.511719 168.625 L 85.667969 167.546875 L 83.199219 166.515625 L 78.460938 164.832031 L 77.4375 165.898438 L 72.699219 171.402344 L 67.421875 180.242188 L 65.003906 185.214844 L 64.285156 186.46875 L 64.582031 187.730469 L 68.175781 189.1875 L 69.421875 189.511719 L 75.992188 192.484375 Z M 71.679688 233.988281 L 72.089844 233.988281 L 72.089844 233.574219 L 71.679688 233.574219 Z M 76.476563 159.59375 L 77.027344 160.140625 L 77.847656 160.347656 L 78.785156 160.515625 L 80.203125 158.53125 L 81.789063 157.578125 L 88.726563 152.84375 L 92.441406 151.222656 L 94.839844 150.308594 L 94.878906 149.519531 L 92.460938 148.371094 L 91.664063 148.300781 L 90.773438 147.707031 L 89.984375 147.625 L 88.441406 146.941406 L 81.140625 149.648438 L 78.878906 150.472656 L 78.324219 151.101563 L 75.792969 152.117188 L 72.683594 153.261719 L 71.90625 154.265625 L 69.457031 155.121094 L 68.679688 156.671875 L 71.070313 157.40625 L 75.429688 159.3125 L 75.929688 159.867188 Z M 76.203125 196.550781 L 76.613281 196.550781 L 76.613281 196.136719 L 76.203125 196.136719 Z M 89.984375 203.132813 L 90.335938 202.453125 L 88.773438 201.578125 L 88.320313 201.804688 L 86.273438 200.597656 L 83.800781 199.507813 L 79.6875 197.859375 L 77.828125 205.394531 L 77.066406 209.503906 L 76.445313 215.96875 L 77.253906 215.566406 L 79.6875 217.042969 L 84.222656 218.808594 L 85.457031 219.210938 L 86.222656 219.324219 L 86.964844 215.257813 L 87.628906 211.175781 Z M 75.777344 233.78125 L 76.363281 235.914063 L 78.867188 236.800781 L 80.84375 237.929688 L 81.359375 238.023438 L 85.667969 239.746094 L 85.640625 238.71875 L 85.253906 230.078125 L 85.933594 223.558594 L 85.253906 222.878906 L 84.84375 222.675781 L 84.203125 222.558594 L 77.238281 219.542969 L 76.488281 219.425781 L 76 221.644531 Z M 78.882813 240.519531 L 76.292969 239.707031 L 77.027344 248.59375 L 77.554688 250.6875 L 79.28125 251.734375 L 83.402344 253.324219 L 86.613281 254.308594 L 85.554688 243.570313 L 81.351563 241.757813 L 80.105469 241.441406 Z M 78.855469 255.0625 L 77.882813 254.574219 L 78.671875 260.523438 L 79.402344 262.148438 L 81.734375 263.515625 L 82.238281 263.265625 L 82.71875 263.746094 L 86.277344 265.296875 L 87.046875 265.398438 L 87.722656 266.078125 L 87.722656 263.8125 L 87.128906 258.351563 L 86.625 258.601563 L 86.078125 258.054688 L 79.699219 255.792969 L 79.496094 254.96875 Z M 85.480469 163.316406 L 89.515625 165.550781 L 89.996094 165.636719 L 94.671875 167.425781 L 95.449219 165.878906 L 97.371094 163.957031 L 101.125 161.6875 L 105.636719 158.78125 L 110.71875 156.148438 L 110.441406 155.59375 L 109.71875 155.480469 L 102.753906 152.867188 L 101.507813 152.085938 L 100.71875 152.003906 L 99.824219 151.410156 L 97.726563 151.863281 L 96.554688 152.453125 L 91.246094 155.097656 L 88.480469 156.425781 L 87.414063 157.699219 L 84.121094 159.757813 L 82.375 161.167969 L 81.6875 161.855469 L 83.199219 162.816406 L 85.027344 163.546875 Z M 90.335938 198.339844 L 91.632813 199.019531 L 93.484375 195.726563 L 94.378906 193.890625 L 95.871094 190.15625 L 97.886719 187.664063 L 99.652344 184.824219 L 101.484375 182.882813 L 103.632813 180.246094 L 106.921875 176.542969 L 105.621094 175.945313 L 104.382813 175.601563 L 102.945313 174.746094 L 98.007813 173.101563 L 96.570313 172.242188 L 95.78125 172.164063 L 94.839844 171.535156 L 92.414063 173.800781 L 88.753906 178.472656 L 86.488281 182.152344 L 84.339844 186.449219 L 83.660156 188.121094 L 80.753906 194.300781 L 82.375 195.109375 L 85.046875 196.171875 L 86.285156 196.511719 L 89.566406 198.246094 Z M 92.035156 225.808594 L 89.574219 224.9375 L 88.949219 228.433594 L 89.164063 239.335938 L 89.59375 241.480469 L 93.265625 243.105469 L 96.152344 244.308594 L 97.394531 244.644531 L 102.695313 246.800781 L 102.113281 243.65625 L 102.519531 232.546875 L 102.238281 230.042969 L 99.84375 229.132813 L 93.011719 226.316406 L 92.660156 225.964844 Z M 92.59375 246.546875 L 89.425781 245.386719 L 90.625 256.210938 L 94.90625 257.925781 L 101.9375 261.046875 L 103.769531 261.964844 L 103.742188 261.34375 L 103.152344 257.847656 L 102.683594 250.714844 L 98.214844 248.765625 L 96.984375 248.351563 L 95.742188 248.011719 Z M 94.496094 261.628906 L 91.273438 260.339844 L 91.828125 265.460938 L 92.417969 267.835938 L 93.3125 268.429688 L 94.101563 268.507813 L 99.441406 271.0625 L 100.683594 271.390625 L 101.9375 272.15625 L 105.503906 273.609375 L 104.214844 265.867188 L 99.867188 263.96875 L 98.621094 263.652344 L 95.335938 262.375 L 95.128906 261.550781 Z M 101.882813 225.875 L 102.773438 226.46875 L 103.226563 220.664063 L 105.28125 212.339844 L 106.214844 209.097656 L 104.40625 208.160156 L 103.953125 208.386719 L 102.582031 207.457031 L 98.21875 205.652344 L 96.628906 204.921875 L 96.152344 204.816406 L 93.679688 203.902344 L 92.453125 207.65625 L 90.988281 212.796875 L 89.761719 221.027344 L 93.273438 222.511719 L 94.515625 222.839844 L 97.402344 224.046875 L 101.089844 225.804688 Z M 97.183594 168.984375 L 97.597656 168.984375 L 97.597656 168.574219 L 97.183594 168.574219 Z M 95.492188 198.394531 L 95.066406 200.46875 L 95.949219 201.074219 L 97.742188 201.753906 L 98.234375 201.804688 L 105.203125 204.824219 L 105.96875 204.921875 L 107.265625 205.601563 L 107.515625 205.390625 L 109.613281 200.886719 L 110.890625 197.945313 L 112.914063 194.261719 L 119.933594 184.867188 L 121.429688 183.179688 L 121.105469 182.121094 L 120.40625 182.46875 L 117.128906 180.972656 L 113.441406 179.226563 L 112.199219 178.894531 L 110.578125 178.128906 L 109.300781 178.765625 L 106.800781 181.191406 L 103.460938 185.675781 L 100.824219 189.359375 L 98.738281 192.207031 L 96.683594 196.324219 Z M 118.378906 141.878906 L 120.222656 141.214844 L 119.925781 140.359375 L 119.1875 140.246094 L 116.316406 138.953125 L 115.699219 139.570313 L 111.585938 140.597656 L 105.613281 141.789063 L 99.863281 143.523438 L 95.273438 144.566406 L 94.441406 145.398438 L 95.804688 146.214844 L 99.449219 147.589844 L 102.746094 146.816406 L 104.792969 145.902344 L 107.46875 145.125 L 109.367188 144.585938 L 111.425781 143.761719 L 113.640625 143.066406 Z M 113.429688 158.242188 L 110.957031 159.175781 L 110.144531 159.933594 L 108.066406 161.078125 L 104.773438 162.722656 L 100.570313 165.921875 L 99.058594 167.433594 L 97.597656 168.164063 L 98.304688 169.226563 L 101.910156 170.6875 L 105.148438 172.132813 L 105.628906 172.21875 L 110.308594 174.007813 L 110.796875 172.890625 L 115.894531 169.453125 L 117.941406 168.667969 L 118.765625 167.671875 L 121.675781 166.585938 L 124.605469 165.015625 L 127.902344 163.5 L 127.363281 162.960938 L 125.570313 162.199219 L 124.136719 161.546875 L 122.894531 161.214844 L 118.648438 159.386719 L 118.167969 158.90625 L 115.492188 157.871094 Z M 110.761719 151.707031 L 110.578125 152.4375 L 115.507813 154.101563 L 118.777344 152.480469 L 121.671875 151.757813 L 126.996094 149.980469 L 130.296875 148.78125 L 134.730469 147.707031 L 134.308594 146.445313 L 127.492188 143.890625 L 127.628906 143.480469 L 127.011719 143.503906 L 124.953125 143.054688 L 122.085938 144.238281 L 118.375 145.167969 L 113.640625 146.359375 L 111.425781 147.054688 L 109.367188 147.875 L 107.671875 148.367188 L 104.589844 149.238281 L 104.910156 149.878906 L 108.492188 151.246094 L 110.121094 152.027344 Z M 113.402344 227.109375 L 112.40625 226.992188 L 112.589844 239.242188 L 113.023438 238.925781 L 114.296875 239.21875 L 118.371094 238.511719 L 118.382813 237.75 L 124.136719 236.503906 L 127.019531 235.691406 L 129.886719 234.347656 L 132.648438 233.660156 L 131.890625 232.898438 L 129.273438 232.136719 L 128.453125 231.929688 L 127.484375 231.785156 L 123.515625 230.285156 L 116.109375 228.023438 L 115.285156 227.816406 L 114.292969 227.703125 Z M 118.578125 246.742188 L 112.203125 244.683594 L 112.402344 246.945313 L 113.09375 251.007813 L 115.699219 251.0625 L 117.957031 250.484375 L 118.8125 250.75 L 125.070313 249.4375 L 124.839844 248.980469 Z M 114.257813 260.316406 L 114.054688 260.316406 L 113.847656 261.109375 L 116.316406 261.550781 L 116.667969 261.285156 Z M 114.925781 265.140625 L 116.074219 272.03125 L 127.832031 271.457031 L 129.105469 271.71875 L 131.5 271.132813 L 132.773438 271.40625 L 134.789063 270.726563 L 136.0625 270.992188 L 138.179688 270.457031 L 137.605469 269.882813 L 133.585938 268.605469 L 131.132813 267.265625 L 129.886719 266.945313 L 125.367188 264.820313 L 121.15625 265.078125 L 120.015625 264.875 L 117.964844 264.875 L 116.316406 265.253906 L 116.320313 264.882813 Z M 116.519531 261.964844 L 116.933594 261.964844 L 116.933594 261.550781 L 116.519531 261.550781 Z M 121.113281 259.277344 L 121.457031 259.699219 L 122.089844 259.832031 L 126.238281 261.417969 L 130.097656 260.933594 L 132.324219 260.433594 L 133.597656 260.707031 L 141.652344 258.878906 L 142.054688 258.46875 L 145.824219 257.664063 L 146.140625 257.027344 L 137.285156 253.804688 L 131.125 251.253906 L 129.066406 251.636719 L 124.953125 252.910156 L 120.84375 253.695313 L 113.492188 254.417969 L 113.9375 256.445313 L 116.722656 257.472656 L 117.964844 257.8125 Z M 146.585938 177.417969 L 145.9375 175.980469 L 142.65625 177.691406 L 141.824219 178.449219 L 139.324219 179.578125 L 134.171875 182.773438 L 133.453125 183.992188 L 131.628906 185.203125 L 126.601563 190.378906 L 126.097656 191.441406 L 124.453125 193.910156 L 122.09375 196.875 L 119.226563 201.792969 L 118.222656 204.992188 L 115.800781 210.640625 L 113.984375 217.335938 L 120.019531 217.941406 L 124.0625 217.378906 L 129.886719 215.84375 L 132.371094 215.125 L 134.832031 213.855469 L 138.027344 211.601563 L 141.40625 208.019531 L 142.15625 206.171875 L 143.800781 204.117188 L 145.042969 200.917969 L 145.886719 197.507813 L 146.347656 192.4375 Z M 134.027344 165.785156 L 132.792969 164.964844 L 131.96875 165.375 L 130.292969 166.046875 L 127 167.273438 L 124.9375 168.492188 L 121.265625 170.289063 L 119.195313 171.042969 L 117.753906 172.484375 L 115.285156 173.921875 L 113.582031 174.773438 L 113.949219 175.800781 L 119.183594 177.699219 L 120.425781 178.480469 L 121.664063 178.832031 L 124.960938 180.132813 L 127.515625 177.386719 L 130.691406 175.066406 L 133.617188 173.601563 L 134.6875 172.492188 L 137.914063 171.042969 L 141.257813 169.347656 L 140.898438 168.339844 Z M 124.128906 225.792969 L 122.898438 226.171875 L 122.546875 226.4375 L 127.410156 228.152344 L 130.28125 228.957031 L 130.785156 228.707031 L 131.332031 229.257813 L 132.15625 229.460938 L 133.121094 229.609375 L 137.28125 231.035156 L 139.324219 229.769531 L 141.410156 228.648438 L 147.902344 223.121094 L 148.507813 222.210938 L 147.890625 221.824219 L 143.078125 220.503906 L 142.625 220.730469 L 140.609375 219.679688 L 140.15625 219.90625 L 136.480469 222.421875 L 134.011719 223.347656 L 131.542969 224.160156 L 129.6875 224.730469 L 128.863281 225.140625 L 125.371094 226.132813 Z M 150.667969 156.027344 L 153.867188 155.226563 L 153.640625 154.769531 L 147.59375 152.054688 L 141.417969 149.597656 L 139.765625 149.226563 L 138.738281 149.855469 L 134.824219 150.839844 L 129.898438 152.160156 L 128.21875 152.835938 L 122.28125 154.585938 L 120.019531 155.410156 L 119.632813 156.128906 L 122.074219 157.054688 L 124.539063 157.910156 L 125.78125 158.25 L 128.660156 159.484375 L 133.609375 161.507813 L 139.734375 159.417969 L 141.617188 158.90625 L 142.054688 158.496094 L 145.933594 157.425781 L 149.644531 156.59375 Z M 136.082031 134.925781 L 122.898438 137.71875 L 122.546875 137.984375 L 126.1875 139.375 L 130.304688 138.972656 L 132.363281 138.171875 L 139.558594 136.484375 L 138.882813 135.808594 Z M 118.367188 241.347656 L 116.613281 241.988281 L 116.839844 242.441406 L 117.972656 242.96875 L 130.714844 247.582031 L 133.597656 247.1875 L 135.648438 246.285156 L 138.125 245.558594 L 140.792969 244.273438 L 143.058594 243.449219 L 143.675781 242.832031 L 146.140625 242.011719 L 146.738281 241.300781 L 149.125 240.46875 L 150.667969 238.925781 L 143.457031 236.519531 L 142.640625 236.503906 L 141.433594 235.726563 L 140.976563 235.953125 L 138.121094 234.804688 L 135.238281 235.1875 L 134.417969 236.042969 L 132.15625 236.867188 L 129.488281 238.152344 L 127.003906 238.871094 L 124.132813 240.175781 Z M 133.625 263.914063 L 132.015625 263.472656 L 132.894531 264.347656 L 139.351563 266.9375 L 140.589844 267.277344 L 142.027344 268.132813 L 145.527344 269.328125 L 149.640625 268.167969 L 153.339844 266.859375 L 156.640625 266.128906 L 161.960938 264.339844 L 163.511719 263.835938 L 163.769531 263.324219 L 158.289063 261.078125 L 151.253906 258.78125 L 148.039063 260.1875 L 146.34375 260.683594 L 141.414063 262.007813 Z M 150.050781 143.453125 L 154.164063 142.65625 L 154.542969 142.359375 L 152.109375 141.832031 L 150.050781 141.011719 L 149.660156 140.28125 L 149.160156 140.53125 L 148.679688 140.050781 L 145.128906 138.621094 L 131.847656 141.421875 L 131.613281 141.675781 L 134.824219 143.105469 L 136.066406 143.433594 L 139.390625 145.011719 L 141 145.542969 L 148.859375 144.179688 Z M 135.035156 147.179688 L 135.445313 147.179688 L 135.445313 146.769531 L 135.035156 146.769531 Z M 137.71875 248.863281 L 136.359375 249.390625 L 136.679688 250.03125 L 137.367188 249.6875 L 137.914063 250.238281 L 138.738281 250.445313 L 139.730469 250.558594 L 140.621094 251.152344 L 141.414063 251.234375 L 150.867188 255.023438 L 152.105469 255.347656 L 153.136719 254.96875 L 155.398438 254.144531 L 159.511719 251.679688 L 161.179688 250.945313 L 165.292969 248.890625 L 166.105469 247.910156 L 168.449219 246.558594 L 169.59375 245.300781 L 169.238281 244.242188 L 168.496094 244.617188 L 167.808594 243.929688 L 167.308594 244.179688 L 159.71875 241.394531 L 157.105469 240.714844 L 156.425781 240.570313 L 154.78125 240.363281 L 153.316406 241.292969 L 148.839844 243.957031 L 146.746094 245.023438 L 142.851563 246.742188 L 140.648438 247.710938 Z M 141.617188 168.984375 L 142.027344 168.984375 L 142.027344 168.574219 L 141.617188 168.574219 Z M 142.441406 134.015625 L 142.851563 134.015625 L 142.851563 133.605469 L 142.441406 133.605469 Z M 138.789063 162.761719 L 138.058594 163.492188 L 142.230469 165.320313 L 143.472656 165.648438 L 145.929688 166.878906 L 148.824219 166.15625 L 151.695313 164.871094 L 157.03125 163.148438 L 159.917969 161.949219 L 163.628906 161.203125 L 165.210938 160.613281 L 165.753906 160.070313 L 164.242188 159.316406 L 162.808594 158.667969 L 161.566406 158.324219 L 160.128906 157.464844 L 158.6875 157.089844 L 156.589844 158.007813 L 150.457031 159.480469 L 145.730469 160.757813 L 141.828125 162.035156 Z M 145.183594 233.234375 L 145.730469 233.78125 L 146.398438 233.855469 L 154.988281 236.449219 L 157.472656 234.890625 L 158.484375 233.988281 L 165.410156 226.855469 L 165.160156 226.355469 L 162.003906 225.441406 L 161.546875 225.667969 L 157.421875 224.226563 L 156.015625 223.90625 L 155.378906 223.792969 L 151.984375 223.003906 L 150.164063 224.710938 L 149.527344 225.988281 L 146.378906 228.746094 L 141.589844 231.878906 L 141.9375 232.570313 L 144.679688 233.484375 Z M 146.351563 135.210938 L 160.042969 132.195313 L 159.8125 131.730469 L 157.457031 130.710938 L 151.28125 131.519531 L 143.269531 133.398438 L 143.566406 134.25 L 144.90625 134.839844 Z M 165.476563 147.59375 L 165.664063 146.863281 L 159.925781 144.746094 L 148.8125 147.136719 L 147.054688 147.777344 L 147.285156 148.230469 L 150.457031 149.6875 L 151.703125 150.015625 L 155.394531 151.75 L 156.640625 152.066406 L 157.859375 152.992188 L 160.339844 153.726563 L 173.296875 150.882813 L 172.976563 150.246094 L 171.445313 149.617188 L 170.203125 149.28125 L 166.644531 147.730469 L 166.164063 147.25 Z M 159.769531 205.8125 L 160.171875 204.15625 L 159.371094 203.738281 L 155.402344 202.761719 L 154.320313 203.082031 L 153.546875 205.394531 L 150.09375 210.660156 L 149.640625 211.773438 L 144.816406 216.480469 L 144.496094 217.324219 L 147.789063 218.148438 L 150.460938 219.144531 L 151.304688 218.851563 L 154.882813 214.472656 L 156.574219 211.625 Z M 156.242188 70.980469 L 155.914063 82.410156 L 158.257813 83.320313 L 159.71875 83.621094 L 160.359375 83.734375 L 163.214844 84.648438 L 163.199219 84.3125 L 166.507813 85.472656 L 166.902344 74.03125 L 164.472656 73.222656 L 162.824219 72.808594 L 162.371094 73.035156 L 157.558594 71.714844 Z M 158.074219 86.703125 L 156.222656 86.292969 L 156.023438 88.144531 L 156.609375 94.425781 L 157.980469 95.160156 L 161.042969 95.984375 L 161.777344 96.167969 L 162.792969 96.230469 L 167.714844 97.871094 L 167.328125 92.875 L 166.917969 89.171875 L 166.527344 88.855469 L 166.074219 89.082031 L 165.230469 88.636719 L 160.359375 87.207031 L 159.902344 87.4375 Z M 158.3125 98.933594 L 156.632813 98.222656 L 156.46875 98.847656 L 157.019531 109.238281 L 158.484375 109.949219 L 159.71875 110.359375 L 160.542969 110.566406 L 161.546875 110.660156 L 167.328125 112.625 L 167.351563 101.195313 L 166.851563 101.445313 L 166.164063 100.761719 L 165.664063 101.011719 L 164.792969 100.554688 L 160.222656 99.230469 L 159.308594 99.046875 Z M 160.128906 113.859375 L 157 113.164063 L 156.632813 116.324219 L 156.628906 122.042969 L 163.632813 120.484375 L 167.039063 119.433594 L 167.597656 116.523438 L 166.710938 116.121094 L 161.777344 114.476563 Z M 158.703125 190.300781 L 157.007813 189.671875 L 156.632813 192.847656 L 156.222656 196.550781 L 155.808594 198.605469 L 155.421875 199.335938 L 160.128906 200.664063 L 160.324219 200.316406 L 161.574219 200.703125 L 161.980469 199.839844 L 162.761719 197.25 L 164.039063 192.023438 L 164.445313 191.664063 L 158.691406 189.96875 Z M 159.105469 176.347656 L 156.675781 175.851563 L 157.117188 186.109375 L 161.546875 187.40625 L 162.003906 187.179688 L 164.035156 187.871094 L 164.894531 187.609375 L 165.273438 185.03125 L 165.683594 178.449219 L 166.0625 178.152344 L 164.472656 177.71875 L 164.015625 177.945313 Z M 173.605469 212.773438 L 175.371094 207.863281 L 174.527344 207.453125 L 173.109375 206.925781 L 172.65625 207.152344 L 167.761719 205.691406 L 167.308594 205.921875 L 165.671875 205.261719 L 164.003906 204.765625 L 162.691406 207.472656 L 160.632813 211.585938 L 157.957031 215.304688 L 157.570313 216.523438 L 155.132813 219.375 L 155 220.066406 L 157.84375 221.140625 L 158.300781 220.914063 L 164.429688 222.789063 L 164.882813 222.558594 L 166.507813 223.289063 L 168.175781 222.972656 L 170.097656 220.226563 L 172.0625 216.296875 L 173.089844 214.652344 Z M 165.066406 140.1875 L 174.472656 138.429688 L 174.210938 137.902344 L 171.945313 136.65625 L 171.4375 136.535156 L 168.769531 135.660156 L 166.09375 134.421875 L 158.277344 135.632813 L 152.167969 137.042969 L 151.636719 137.574219 L 156.890625 139.578125 L 158.164063 140.414063 L 158.695313 140.550781 L 160.777344 141.316406 Z M 165.273438 70.25 L 167.175781 70.25 L 167.929688 63.871094 L 169.015625 60.085938 L 170.046875 57.292969 L 170.519531 55.128906 L 164.871094 53.3125 L 159.535156 51.417969 L 159.117188 51.65625 L 157.933594 54.878906 L 157.617188 58.527344 L 156.769531 63.472656 L 156.339844 67.59375 L 158.667969 68.511719 L 159.125 68.285156 Z M 166.949219 240.464844 L 171.421875 241.710938 L 171.921875 241.460938 L 172.609375 242.148438 L 173.933594 241.484375 L 179.535156 234.671875 L 180.792969 232.15625 L 181.429688 230.921875 L 181.113281 230.285156 L 180.472656 230.605469 L 174.414063 228.808594 L 173.90625 228.6875 L 169.261719 227.527344 L 165.636719 230.976563 L 163.136719 234.148438 L 158.578125 237.460938 L 158.894531 238.101563 L 159.535156 237.78125 L 164.007813 239.03125 Z M 166.027344 174.675781 L 166.582031 168.574219 L 166.507813 168.574219 L 164.40625 169.527344 L 162.1875 170.015625 L 161.824219 170.433594 L 158.597656 171.28125 L 156.976563 172.003906 L 157.515625 172.542969 L 160.3125 173.417969 L 160.769531 173.191406 L 162.597656 173.921875 Z M 165.890625 143.890625 L 166.300781 143.890625 L 166.300781 143.480469 L 165.890625 143.480469 Z M 174.730469 246.378906 L 173.5 245.917969 L 173.449219 247.019531 L 168.179688 250.546875 L 164.066406 253.015625 L 161.363281 254.558594 L 157.46875 256.277344 L 156.632813 256.613281 L 156.257813 256.910156 L 157.660156 257.4375 L 164.875 259.832031 L 165.890625 260.523438 L 166.710938 260.730469 L 167.707031 260.84375 L 168.644531 261.46875 L 169.179688 260.933594 L 171.449219 260.273438 L 175.132813 257.777344 L 177.378906 256.96875 L 180.128906 254.6875 L 184.183594 251.601563 L 186.128906 250.894531 L 185.75 249.75 L 181.726563 248.828125 L 179.671875 247.996094 L 175.238281 246.5 Z M 171.855469 129.929688 L 177.8125 128.460938 L 177.507813 127.613281 L 175.144531 126.601563 L 169.097656 127.597656 L 166.507813 128.667969 L 163.628906 129.078125 L 163.328125 129.308594 L 165.066406 130.3125 L 166.09375 130.746094 Z M 169.042969 192.710938 L 167.609375 192.351563 L 165.859375 198.398438 L 165.402344 201.707031 L 170.1875 203.039063 L 170.640625 202.8125 L 175.054688 204.195313 L 175.761719 204.367188 L 176.378906 204.367188 L 176.792969 203.132813 L 177.445313 201.285156 L 178.644531 195.109375 L 176.175781 194.285156 L 174.34375 193.761719 L 173.890625 193.988281 L 169.410156 192.527344 Z M 170.597656 179.363281 L 169.722656 179.429688 L 169.386719 181.328125 L 168.976563 184.617188 L 168.371094 187.292969 L 168.660156 188.96875 L 171.832031 189.875 L 172.289063 189.648438 L 176.769531 191.109375 L 177.226563 190.882813 L 179.261719 191.613281 L 179.355469 191.613281 L 180.597656 182.304688 L 179.878906 181.945313 L 178.460938 181.417969 L 178.003906 181.648438 L 173.09375 180.042969 Z M 175.410156 157.664063 L 185.082031 155.675781 L 184.503906 155.101563 L 180.699219 153.765625 L 179.648438 153.03125 L 178.828125 152.621094 L 174.527344 153.558594 L 173.09375 154.21875 L 165.445313 155.785156 L 166.15625 156.5 L 168.941406 157.351563 L 170.097656 158.105469 L 170.621094 158.269531 L 173.089844 158.71875 Z M 182.921875 74.488281 L 184.644531 75.066406 L 185.019531 72.71875 L 185.539063 69.65625 L 187.535156 63.382813 L 187.992188 62.261719 L 187.398438 61.371094 L 184.9375 59.71875 L 182.347656 58.933594 L 181.429688 58.914063 L 180.195313 58.089844 L 179.464844 57.90625 L 178.460938 57.816406 L 173.652344 56.175781 L 172.914063 60.996094 L 171.679688 65.105469 L 171.066406 71.980469 L 171.875 71.574219 L 176.359375 73.035156 L 176.859375 72.785156 L 177.546875 73.472656 L 178.046875 73.222656 L 182.53125 74.683594 Z M 171.445313 118.792969 L 173.089844 118.382813 L 173.464844 118.085938 L 171.445313 117.558594 L 171.238281 118.792969 Z M 177.167969 168.6875 L 170.691406 167.308594 L 169.988281 175.773438 L 171.832031 176.300781 L 172.335938 176.046875 L 172.882813 176.597656 L 174.75 176.878906 L 177.726563 177.851563 L 178.644531 178.035156 L 179.648438 178.128906 L 181.273438 178.574219 L 180.816406 169.566406 L 177.726563 168.757813 Z M 173.535156 75.894531 L 170.671875 75.050781 L 171.117188 86.539063 L 173.890625 87.4375 L 174.390625 87.183594 L 175.078125 87.871094 L 175.578125 87.621094 L 180.195313 88.988281 L 180.921875 89.097656 L 185.429688 90.40625 L 185.199219 89.378906 L 184.554688 78.75 L 181.386719 77.792969 L 180.515625 77.335938 L 180.0625 77.5625 L 175.445313 76.191406 L 174.527344 76.007813 Z M 174.738281 103.121094 L 171.460938 102.394531 L 171.875 114.359375 L 172.699219 113.949219 L 173.925781 114.757813 L 177.089844 115.730469 L 177.820313 115.914063 L 178.8125 116.027344 L 179.707031 116.625 L 181.722656 115.871094 L 185.789063 114.957031 L 185.386719 106.167969 L 179.667969 104.847656 Z M 166.089844 50.136719 L 172.355469 51.820313 L 174.160156 47.3125 L 179.992188 40.457031 L 181.5 38.296875 L 172.265625 34.875 L 170.609375 35.210938 L 168.863281 36.742188 L 165.980469 39.621094 L 162.09375 44.925781 L 160.605469 47.90625 Z M 172.746094 90.683594 L 171.078125 90.277344 L 171.445313 93.699219 L 171.894531 98.757813 L 175.949219 100.1875 L 176.402344 99.960938 L 180.527344 101.402344 L 183.351563 102.246094 L 183.746094 102.050781 L 185.820313 102.742188 L 185.429688 95.757813 L 185.40625 93.796875 L 184.21875 93.378906 L 183.746094 93.617188 L 179.300781 92.136719 L 178.78125 92.394531 L 178.09375 91.710938 L 177.59375 91.960938 L 173.109375 90.5 Z M 184.195313 148.421875 L 193.957031 150.242188 L 193.546875 149.421875 L 191.546875 147.730469 L 185.128906 142.472656 L 180.90625 140.589844 L 174.734375 141.394531 L 166.722656 143.273438 L 167.023438 144.121094 L 169.179688 145.125 L 173.496094 146.804688 L 174.738281 147.136719 L 178.433594 148.871094 L 179.238281 148.917969 L 180.496094 149.238281 L 180.890625 148.902344 L 181.734375 149.199219 Z M 172.996094 221.886719 L 171.351563 224.355469 L 173.910156 225.347656 L 176.769531 226.078125 L 177.226563 225.851563 L 182.941406 227.722656 L 183.394531 227.496094 L 184.195313 225.757813 L 184.722656 224.710938 L 186.140625 221.871094 L 187.351563 219.804688 L 188.183594 217.339844 L 188.800781 215.3125 L 189.605469 213.273438 L 189.074219 212.738281 L 184.992188 210.023438 L 182.984375 209.394531 L 182.53125 209.621094 L 179.675781 208.515625 L 178.820313 208.785156 L 178.378906 210.390625 L 176.867188 214.492188 L 175.699219 216.511719 L 175.03125 217.757813 L 173.613281 220.59375 Z M 178.230469 128.257813 L 178.644531 128.257813 L 178.644531 127.84375 L 178.230469 127.84375 Z M 179.054688 165.695313 L 181.523438 166.105469 L 181.523438 164.871094 L 181.316406 164.871094 L 179.261719 165.28125 Z M 184.207031 196.484375 L 182.089844 195.859375 L 181.730469 197.371094 L 181.316406 199.429688 L 180.746094 202.519531 L 180.152344 205.667969 L 180.925781 205.28125 L 184.175781 206.332031 L 184.628906 206.105469 L 187.117188 207.949219 L 189.941406 209.792969 L 190.714844 209.863281 L 192.949219 202.125 L 192.722656 201.671875 L 190.480469 200.023438 L 187.105469 197.679688 L 184.503906 196.136719 Z M 187.898438 58.316406 L 188.722656 59.140625 L 189.546875 59.140625 L 191.398438 56.46875 L 193.1875 54.761719 L 197.300781 51.46875 L 198.65625 50.355469 L 197.832031 49.535156 L 196.957031 48.394531 L 193.246094 45.976563 L 192.128906 44.96875 L 188.722656 42.683594 L 187.695313 41.863281 L 186.277344 40.125 L 184.953125 39.460938 L 181.429688 42.867188 L 180.777344 44.550781 L 177.316406 49.039063 L 175.300781 53.074219 L 180.90625 54.617188 L 182.117188 55.347656 L 182.621094 55.09375 L 183.167969 55.644531 L 183.992188 55.851563 L 184.984375 55.964844 L 186.046875 56.671875 Z M 184.605469 136.097656 L 193.125 137.882813 L 192.722656 137.082031 L 188.582031 134.234375 L 188.242188 133.46875 L 187.28125 132.988281 L 185.453125 131.042969 L 183.757813 130.417969 L 172.511719 132.859375 L 172.792969 133.421875 L 173.707031 133.8125 L 180.488281 136.539063 L 182.140625 136.886719 Z M 183.167969 190.996094 L 182.683594 192.316406 L 185.863281 193.167969 L 186.769531 194.3125 L 190.339844 196.652344 L 193.667969 198.566406 L 194.277344 196.753906 L 195.375 190.105469 L 193.242188 189.195313 L 187.105469 184.515625 L 184.558594 183.023438 L 184.019531 183.5625 Z M 177.230469 30.441406 L 175.144531 31.578125 L 174.757813 32.304688 L 182.136719 34.902344 L 185.019531 35.285156 L 189.511719 33.335938 L 192.3125 32.582031 L 197.769531 31.621094 L 198.636719 31.863281 L 199.523438 31.421875 L 198.917969 30.515625 L 197.773438 29.929688 L 194.511719 27.355469 L 192.023438 25.75 L 187.054688 26.136719 L 184.605469 26.191406 L 181.703125 27.777344 Z M 188.722656 152.09375 L 184.609375 151.296875 L 184.769531 151.503906 L 188.554688 154.382813 L 189.203125 155.546875 L 190.359375 156.296875 L 204.976563 159.53125 L 204.496094 158.484375 L 199.5 154.75 L 195.714844 153.765625 L 189.75 152.734375 Z M 177.332031 242.40625 L 176.996094 243.242188 L 180.699219 244.683594 L 185.453125 246.238281 L 187.878906 248.066406 L 188.722656 248.796875 L 189.96875 248.457031 L 191.542969 247.417969 L 197.011719 241.949219 L 197.476563 240.796875 L 196.832031 239.511719 L 192.398438 236.972656 L 188.828125 234.632813 L 187.078125 232.753906 L 184.964844 231.910156 L 181.359375 237.402344 L 180.90625 238.511719 L 178.414063 240.890625 Z M 188.574219 172.390625 L 185.25 170.964844 L 184.476563 179.5 L 185.460938 179.988281 L 190.574219 183.386719 L 192.425781 185.03125 L 194.515625 186.152344 L 195.75 186.972656 L 196.332031 184.824219 L 197.003906 177.960938 L 193.226563 176.070313 L 189.246094 173.738281 Z M 193.683594 128.566406 L 199.738281 129.664063 L 198.917969 128.429688 L 197.796875 127.9375 L 196.480469 126.054688 L 195.246094 125.230469 L 193.25 124.59375 L 192.011719 124.925781 L 189.75 124.347656 L 186.253906 123.734375 L 183.371094 124.109375 L 181.019531 124.738281 L 180.671875 125.4375 L 184.59375 126.6875 L 190.339844 128.148438 Z M 188.929688 164.871094 L 185.84375 164.460938 L 185.457031 167.65625 L 188.105469 168.78125 L 189.339844 170.015625 L 191.628906 171.355469 L 196.515625 174.425781 L 196.996094 174.664063 L 197.664063 166.699219 L 196.746094 166.3125 L 193.042969 165.898438 Z M 198.695313 142.332031 L 186.953125 139.859375 L 187.695313 140.597656 L 191.28125 144.128906 L 196.449219 147.832031 L 197.363281 149.238281 L 200.449219 151.5 L 201.753906 151.898438 L 212.378906 154.175781 L 212.058594 153.535156 L 208.824219 151.027344 Z M 190.789063 82.535156 L 188.378906 81.632813 L 188.824219 83.414063 L 188.414063 83.414063 L 188.835938 84.875 L 188.835938 93.105469 L 191.632813 94.828125 L 196.640625 98.046875 L 197.773438 99.046875 L 199.417969 99.871094 L 199.832031 94.933594 L 200.4375 91.023438 L 200.128906 88.945313 L 197.785156 87.59375 L 196.96875 86.625 L 192.8125 84.335938 Z M 190.367188 97.402344 L 189.132813 96.988281 L 188.96875 97.609375 L 189.546875 105.628906 L 190.253906 106.226563 L 194.53125 109.199219 L 197.980469 111.800781 L 199.808594 113.125 L 201.269531 113.859375 L 201.253906 113.238281 L 200.824219 110.769531 L 199.828125 104 L 197.363281 102.339844 L 197.085938 101.707031 L 193.207031 99.167969 Z M 191.574219 110.671875 L 189.410156 109.332031 L 189.539063 115.867188 L 190.816406 115.621094 L 193.242188 116.285156 L 194.488281 115.957031 L 198.183594 116.738281 L 199.28125 116.738281 L 198.902344 115.683594 L 197.363281 115.09375 L 194.832031 112.890625 Z M 193.207031 65.847656 L 191.515625 64.578125 L 190.78125 65.3125 L 189.546875 69.015625 L 188.90625 71.277344 L 188.769531 77.78125 L 191.59375 79.644531 L 192.867188 80.429688 L 197.328125 83.527344 L 200.648438 85.929688 L 201.3125 86.082031 L 204.21875 79.105469 L 204.707031 77.800781 L 206.117188 75.824219 L 205.886719 75.371094 L 202.238281 72.570313 L 198.699219 70.480469 L 196.4375 67.960938 Z M 199.792969 133.074219 L 190.410156 131.011719 L 191.261719 132.625 L 196.527344 136.550781 L 196.792969 137.109375 L 198.996094 139.023438 L 204.972656 140.1875 L 211.144531 141.628906 L 214.519531 142.003906 L 214.117188 141.195313 L 212.207031 139.25 L 204.839844 133.859375 L 201.066406 132.796875 Z M 193.863281 150.472656 L 194.277344 150.472656 L 194.277344 150.0625 L 193.863281 150.0625 Z M 195.324219 216.625 L 193.214844 215.804688 L 190.339844 222.570313 L 188.609375 225.53125 L 188.199219 226.808594 L 186.898438 229.410156 L 191.984375 232.863281 L 193.65625 234.011719 L 196.507813 236.152344 L 199.640625 238.070313 L 200.449219 236.457031 L 202.164063 234.207031 L 202.84375 232.535156 L 204.355469 229.875 L 205.589844 226.171875 L 206.527344 224.296875 L 204.5625 222.878906 L 199.035156 219.484375 L 197.363281 218.355469 L 196.539063 217.53125 Z M 204.5625 47.621094 L 204.375 46.882813 L 207.214844 46.066406 L 207.714844 46.320313 L 208.402344 45.632813 L 208.902344 45.882813 L 210.933594 45.191406 L 211.792969 45.457031 L 213.613281 44.949219 L 218.640625 44.925781 L 218.230469 44.101563 L 214.183594 41.582031 L 210.566406 38.859375 L 208.011719 37.207031 L 205.1875 35.222656 L 202.296875 34.882813 L 199.625 35.074219 L 197.382813 35.597656 L 196.929688 35.371094 L 194.914063 36.011719 L 194.460938 35.78125 L 192.632813 36.308594 L 188.78125 37.480469 L 188.105469 38.160156 L 191.5625 40.75 L 196.835938 44.558594 L 197.363281 45.566406 L 201.476563 48.445313 L 203.941406 47.582031 Z M 202.746094 218.238281 L 207.683594 221.53125 L 208.71875 218.976563 L 210.265625 213.203125 L 208.265625 211.773438 L 204.148438 209.304688 L 199.4375 205.925781 L 196.949219 204.777344 L 196.53125 205.140625 L 194.390625 212.355469 L 195.054688 213.347656 L 199.039063 215.777344 L 201.125 217.386719 Z M 197.566406 240.570313 L 197.980469 240.570313 L 197.980469 240.160156 L 197.566406 240.160156 Z M 212.738281 203.332031 L 212.253906 201.652344 L 209.5 199.839844 L 205.136719 197.289063 L 204.765625 196.550781 L 200.859375 194.082031 L 198.808594 192.808594 L 197.179688 200.046875 L 197.476563 201.300781 L 198.984375 202.40625 L 202.746094 204.664063 L 208.023438 208.183594 L 210.523438 209.6875 L 211.378906 209.410156 L 212.171875 206.011719 L 212.585938 203.542969 Z M 199.625 129.902344 L 200.449219 129.902344 L 200.449219 129.492188 L 199.625 129.492188 Z M 201.148438 26.0625 L 197.453125 25.644531 L 198.34375 26.984375 L 203.144531 29.839844 L 204.5625 31.371094 L 208.027344 31.878906 L 209.296875 31.609375 L 210.960938 31.894531 L 221.226563 32.851563 L 225.75 34.046875 L 226.777344 34.046875 L 225.953125 33.222656 L 223.671875 32.082031 L 222.253906 30.546875 L 221.222656 29.914063 L 217.558594 27.167969 L 216.285156 27.4375 L 208.882813 26.253906 L 207.617188 26.53125 L 204.148438 26.023438 L 202.300781 25.851563 Z M 200.652344 180.503906 L 200.550781 180.503906 L 199.523438 188.734375 L 199.109375 188.734375 L 199.921875 190.207031 L 204.042969 192.671875 L 205.382813 193.875 L 207.851563 195.109375 L 209.085938 196.34375 L 212.234375 198.050781 L 213.289063 199.105469 L 214.789063 190.113281 L 214.433594 189.761719 L 212.925781 189.007813 L 212.515625 188.183594 L 210.117188 187.085938 L 208.082031 185.351563 L 205.15625 183.886719 L 204.148438 182.769531 L 201.476563 181.328125 Z M 203.125 125.746094 L 200.746094 125.246094 L 201.179688 126.425781 L 202.785156 128.097656 L 205.980469 130.632813 L 206.433594 130.40625 L 208.675781 130.929688 L 212.578125 131.503906 L 213.4375 131.242188 L 215.871094 131.917969 L 217.113281 131.59375 L 220.8125 132.371094 L 221.019531 132.371094 L 221.695313 131.695313 L 219.054688 129.261719 L 214.648438 125.730469 L 213.816406 125.785156 L 203.121094 125.378906 Z M 208.917969 173.808594 L 201.671875 168.910156 L 200.894531 177.4375 L 204.148438 179.066406 L 205.570313 180.597656 L 208.492188 182.058594 L 211.875 184.433594 L 212.996094 185.441406 L 215.050781 186.265625 L 215.464844 185.03125 L 216.082031 181.535156 L 215.753906 177.8125 L 214.023438 176.597656 Z M 193.382813 60.980469 L 193.003906 62.230469 L 196.449219 64.316406 L 197.355469 65.671875 L 201.917969 68.496094 L 207.644531 73.101563 L 208.492188 72.808594 L 211.554688 69.425781 L 213.199219 67.78125 L 214.21875 67.023438 L 217.632813 65.128906 L 217.40625 64.671875 L 213.035156 61.074219 L 212.234375 60.519531 L 208.910156 57.800781 L 205.179688 55.4375 L 202.710938 52.96875 L 199.417969 54.617188 L 195.097656 58.730469 L 194.277344 59.757813 Z M 205.613281 92.785156 L 204.335938 92.144531 L 203.734375 95.960938 L 204.082031 102.96875 L 204.972656 103.984375 L 205.796875 104.601563 L 208.066406 105.578125 L 214.210938 110.238281 L 215.875 110.976563 L 216.285156 105.628906 L 216.699219 101.515625 L 217.082031 100.386719 L 215.433594 99.566406 L 210.152344 96.050781 Z M 206.789063 108.625 L 204.148438 106.863281 L 204.167969 107.894531 L 204.875 113.214844 L 204.605469 114.066406 L 205.132813 116.609375 L 206.367188 117.015625 L 207.648438 116.738281 L 208.082031 117.058594 L 212.378906 116.53125 L 215.34375 116.140625 L 214.996094 113.933594 L 212.5625 112.714844 L 210.550781 110.878906 Z M 211.347656 145.085938 L 205.265625 143.742188 L 206.902344 145.785156 L 212.171875 149.648438 L 213.414063 151.238281 L 218.816406 155.144531 L 226.960938 156.964844 L 227.382813 156.714844 L 233.152344 157.878906 L 233.503906 157.199219 L 228.257813 153.433594 L 227.664063 152.335938 L 220.925781 147.410156 L 220.164063 145.886719 L 218.75 146.320313 L 212.589844 144.753906 Z M 213.375 157.769531 L 206.15625 156.132813 L 206.527344 156.871094 L 211.742188 160.839844 L 223.136719 163.347656 L 222.664063 162.402344 L 221.203125 161.671875 L 217.082031 158.191406 L 214.640625 157.488281 Z M 217.074219 170.960938 L 207.328125 168.875 L 208.117188 169.664063 L 210.933594 171.503906 L 214.207031 173.601563 L 216.644531 174.820313 Z M 210.546875 78.796875 L 209.292969 78.457031 L 208.265625 79.917969 L 206.957031 82.371094 L 206.207031 84.648438 L 204.964844 87.320313 L 205.277344 89.410156 L 207.6875 90.695313 L 213.429688 94.429688 L 214.640625 95.757813 L 217.519531 96.980469 L 218.472656 93.917969 L 220.871094 89.027344 L 221.636719 88.351563 L 222.015625 87.222656 L 220.332031 86.566406 L 219.816406 85.679688 L 214.1875 81.484375 Z M 210.9375 34.867188 L 210.734375 34.867188 L 210.5625 35.578125 L 212.515625 36.375 L 213.054688 37.453125 L 217.109375 39.804688 L 223.871094 44.945313 L 226.160156 45.976563 L 227.421875 45.671875 L 237.246094 47.9375 L 240.765625 48.238281 L 242.820313 48.855469 L 246.980469 49.566406 L 246.230469 48.203125 L 244.148438 47.027344 L 243.703125 46.191406 L 238.863281 42.820313 L 232.789063 38.289063 L 226.988281 36.96875 L 225.746094 37.296875 L 221.320313 36.339844 Z M 212.171875 134.429688 L 210.734375 134.429688 L 211.554688 135.25 L 213.488281 137.144531 L 217.480469 140.3125 L 220.769531 142.78125 L 224.101563 143.859375 L 225.339844 143.519531 L 227.777344 144.195313 L 228.632813 143.929688 L 231.058594 144.59375 L 232.332031 144.328125 L 236.421875 145.03125 L 237.0625 144.714844 L 236.09375 143.746094 L 235.761719 143.261719 L 233.210938 141.691406 L 226.667969 135.898438 L 223.722656 135.363281 L 222.453125 135.628906 L 220.605469 135.457031 L 217.113281 134.882813 L 215.871094 135.207031 Z M 212.542969 48.527344 L 205.046875 51.023438 L 205.683594 51.976563 L 208.46875 54.203125 L 212.644531 56.816406 L 213.46875 58.050781 L 216.691406 60.417969 L 220.398438 63.226563 L 221.839844 62.84375 L 228.011719 60.582031 L 228.835938 60.375 L 236.421875 60.285156 L 237.273438 60.003906 L 239.714844 60.695313 L 240.355469 60.375 L 239.53125 59.550781 L 237.246094 58.410156 L 236.148438 57.3125 L 233.183594 54.921875 L 228.183594 51.847656 L 227.371094 50.820313 L 223.757813 48.59375 L 218.78125 48.136719 L 217.519531 48.445313 L 217.085938 48.125 L 213.015625 48.765625 Z M 214.433594 142.246094 L 214.847656 142.246094 L 214.847656 141.832031 L 214.433594 141.832031 Z M 229.035156 82.539063 L 236.445313 80.121094 L 236.742188 79.484375 L 235.171875 78.601563 L 231.046875 74.910156 L 227.429688 72.1875 L 220.757813 67.507813 L 217.921875 69.492188 L 217.109375 70.25 L 216.082031 70.867188 L 214.023438 73.128906 L 212.378906 74.15625 L 211.691406 75.734375 L 213.347656 77.386719 L 217.582031 80.386719 L 222.003906 83.953125 L 224.480469 85.769531 L 225.714844 84.945313 Z M 224.535156 124.460938 L 224.082031 124.234375 L 219.691406 125.148438 L 219.464844 125.605469 L 220.808594 127.46875 L 226.960938 132.050781 L 227.8125 132.320313 L 232.125 132.164063 L 235.617188 131.597656 L 239.714844 130.816406 L 240.167969 131.042969 L 243.039063 129.972656 L 246.214844 128.976563 L 246.53125 128.027344 L 240.558594 122.910156 L 239.53125 121.878906 L 236.035156 119.222656 L 234.386719 120.027344 L 231.621094 121.859375 L 227.507813 123.503906 Z M 229.863281 160.324219 L 223.691406 159.523438 L 223.753906 159.789063 L 227.832031 162.714844 L 229.070313 164.566406 L 237.265625 166.539063 L 244.445313 167.316406 L 241.722656 164.203125 L 238.214844 161.621094 L 237.65625 161.898438 L 233.570313 160.792969 L 232.328125 161.128906 Z M 225.289063 28.566406 L 224.269531 28.203125 L 224.628906 28.925781 L 226.367188 29.726563 L 228.113281 31.34375 L 231.40625 33.402344 L 233.152344 35.28125 L 234.390625 34.910156 L 238.5 36.121094 L 245.699219 36.902344 L 244.980469 31.34375 L 243.234375 30.960938 L 241.007813 30.460938 L 239.734375 30.738281 L 235.625 29.5625 L 234.382813 29.890625 L 229.898438 28.816406 L 228.628906 29.089844 L 226.574219 28.304688 Z M 243.992188 90.601563 L 244.605469 87.800781 L 238.09375 90.023438 L 237.3125 90.125 L 231.90625 93.210938 L 229.246094 95.960938 L 227.652344 99.148438 L 227.917969 99.6875 L 227.175781 102.542969 L 226.332031 113.054688 L 227.003906 112.714844 L 229.039063 110.976563 L 229.863281 110.15625 L 231.304688 109.539063 L 232.535156 108.097656 L 235.683594 105.484375 L 237.472656 103.160156 L 240.054688 99.289063 L 240.375 98.429688 L 243.34375 93.050781 Z M 227.867188 147.449219 L 225.808594 147.035156 L 228.277344 149.503906 L 231.898438 152.210938 L 233.152344 153.351563 L 239.160156 158.492188 L 241.378906 159.070313 L 242.621094 158.746094 L 249.722656 159.75 L 254.023438 159.75 L 254.273438 159.25 L 252.695313 157.671875 L 251.734375 157.191406 L 251.429688 156.433594 L 245.929688 152.210938 L 242.160156 148.695313 L 237.273438 148.050781 L 236.417969 148.316406 L 232.335938 147.636719 L 231.09375 147.964844 L 228.632813 147.222656 Z M 246.296875 77.746094 L 246.9375 78.066406 L 247.699219 65.867188 L 246.964844 65.136719 L 241.3125 63.820313 L 237.292969 63.355469 L 236.4375 63.617188 L 234.394531 63.304688 L 229.042969 64.113281 L 228.421875 64.285156 L 224.574219 65.457031 L 224.042969 65.988281 L 229.402344 69.96875 L 233.214844 73.394531 L 235.734375 75 L 237.679688 76.832031 L 240.132813 78.554688 L 242.207031 78.867188 L 243.140625 78.703125 Z M 232.746094 135.621094 L 231.242188 135.339844 L 232.015625 136.722656 L 235.867188 139.574219 L 236.457031 140.535156 L 242.601563 145.207031 L 246.753906 144.804688 L 248.582031 145.125 L 248.789063 145.125 L 252.074219 144.34375 L 252.933594 144.605469 L 256.582031 143.570313 L 257.039063 143.796875 L 262.21875 141.808594 L 261.839844 140.78125 L 256.242188 136.347656 L 252.125 132.652344 L 250.640625 131.34375 L 249.195313 131.515625 L 242.617188 134.035156 L 240.582031 134.746094 L 240.125 134.519531 L 237.703125 135.160156 L 237.246094 134.929688 L 233.980469 135.617188 L 232.742188 135.25 Z M 233.566406 50.523438 L 231.644531 49.953125 L 232.097656 50.855469 L 236.070313 53.265625 L 237.269531 54.617188 L 241.382813 57.085938 L 241.726563 57.769531 L 242.617188 58.335938 L 246.3125 61.242188 L 247.554688 61.609375 L 247.746094 60.167969 L 247.164063 53.066406 L 246.589844 52.753906 L 240.558594 51.304688 Z M 245.851563 40.210938 L 239.195313 39.472656 L 239.796875 40.070313 L 243.410156 42.792969 L 246.683594 44.796875 Z M 266.070313 170.257813 L 267.617188 170.761719 L 267.183594 169.582031 L 260.398438 164.632813 L 259.570313 163.394531 L 252.515625 162.910156 L 251.660156 163.175781 L 249.816406 163.019531 L 245.910156 162.429688 L 244.605469 162.675781 L 244.054688 162.402344 L 244.765625 163.464844 L 248.339844 166.398438 L 251.78125 168.800781 L 254.132813 169.375 L 255.40625 169.105469 L 257.632813 169.601563 L 261.128906 170.195313 L 262.402344 169.925781 L 264.828125 170.589844 Z M 244.46875 167.75 L 245.289063 167.75 L 245.289063 167.339844 L 244.46875 167.339844 Z M 250.453125 110.0625 L 247.511719 108.140625 L 246.523438 109.332031 L 244.878906 110.976563 L 242.535156 114.105469 L 241.382813 115.09375 L 238.617188 116.921875 L 238.371094 117.410156 L 243.234375 121.058594 L 246.113281 123.9375 L 249.609375 126.59375 L 251.265625 125.851563 L 252.488281 124.144531 L 253.929688 123.527344 L 259.277344 118.175781 L 258.980469 117.320313 L 252.089844 112.148438 L 251.667969 111.390625 Z M 249.996094 148.105469 L 246.257813 148.5625 L 246.789063 149.09375 L 250.40625 151.808594 L 252.074219 153.8125 L 258.457031 158.496094 L 259.691406 159.730469 L 261.335938 159.730469 L 265.222656 159.203125 L 265.675781 159.429688 L 267.691406 158.792969 L 268.144531 159.019531 L 273.039063 157.558594 L 273.492188 157.785156 L 274.820313 156.871094 L 277.902344 155.648438 L 278.203125 154.792969 L 276.558594 152.941406 L 274.273438 151.386719 L 270.554688 148.535156 L 266.066406 144.300781 L 264.824219 144.65625 L 257.460938 147.507813 L 256.992188 147.273438 L 254.570313 147.914063 L 254.113281 147.683594 L 250.847656 148.371094 Z M 259.878906 114.757813 L 261.132813 115.128906 L 263.597656 110.976563 L 264.625 109.125 L 264.300781 107.875 L 259.460938 104.074219 L 258.660156 103.160156 L 255.050781 100.523438 L 252.96875 98.292969 L 252.285156 98.636719 L 250.703125 103.378906 L 249.75 104.589844 L 249.390625 105.835938 L 253.929688 109.742188 Z M 256.144531 22.65625 L 253.519531 20.46875 L 253.539063 21.085938 L 254.59375 27.183594 L 256.304688 28.511719 L 258.457031 30.753906 L 259.460938 31.667969 L 264.058594 35.148438 L 266.683594 37.335938 L 266.660156 36.71875 L 265.671875 30.839844 L 259.941406 25.6875 L 259.09375 24.902344 Z M 254.339844 159.933594 L 254.753906 159.933594 L 254.753906 159.523438 L 254.339844 159.523438 Z M 255.804688 31.894531 L 255.21875 31.605469 L 256.070313 38.40625 L 256.808594 38.777344 L 260.398438 42.515625 L 265.289063 46.257813 L 267.667969 48.160156 L 267.121094 44.539063 L 267.386719 43.265625 L 266.882813 41.09375 L 260.019531 35.9375 L 259.371094 34.640625 Z M 258.285156 88.238281 L 256.15625 86.820313 L 255.574219 88.351563 L 254.753906 91.640625 L 253.917969 95.550781 L 258.980469 99.289063 L 259.894531 100.691406 L 264.808594 104.488281 L 266.097656 105.128906 L 266.890625 102.75 L 267.457031 100.480469 L 267.933594 97.195313 L 266.386719 95.171875 L 259.753906 90.210938 L 259.484375 89.585938 Z M 259.523438 45.03125 L 256.398438 42.683594 L 256.425781 43.304688 L 257.015625 47.210938 L 257.457031 49.160156 L 261.492188 52.691406 L 268.101563 58.410156 L 268.925781 58.820313 L 268.09375 52.253906 L 260.671875 46.515625 Z M 259.277344 54.203125 L 257.46875 52.847656 L 257.839844 57.90625 L 258.25 60.785156 L 262.042969 64.730469 L 266.9375 68.472656 L 269.722656 70.792969 L 269.359375 64.078125 L 268.90625 62.71875 L 267.78125 62.15625 L 267.125 60.996094 L 260.007813 55.664063 Z M 259.105469 65.609375 L 257.871094 64.785156 L 258.363281 73.765625 L 260.328125 75.503906 L 264.808594 78.980469 L 268.101563 82.273438 L 269.742188 83.09375 L 270.058594 74.960938 L 264.066406 70.109375 Z M 258.683594 77.5625 L 257.640625 77.175781 L 256.835938 83.621094 L 259.214844 85.253906 L 259.550781 86.019531 L 260.605469 86.476563 L 266.433594 91.769531 L 267.277344 92.558594 L 268.742188 93.289063 L 269.496094 87.253906 L 266.457031 84.328125 L 261.972656 80.851563 Z M 254.136719 128.257813 L 253.148438 129.28125 L 253.816406 130.554688 L 258.980469 134.257813 L 260.035156 135.878906 L 265.242188 139.75 L 266.09375 139.46875 L 269.722656 136.355469 L 271.207031 135.660156 L 274.179688 132.597656 L 274.820313 131.320313 L 273.882813 129.902344 L 267.710938 125.378906 L 266.796875 123.972656 L 262.386719 120.53125 L 261.929688 120.757813 L 259.277344 123.527344 L 258.816406 124.765625 L 256.605469 126.609375 L 255.78125 127.433594 Z M 263.390625 163.226563 L 263.804688 163.226563 L 263.804688 162.816406 L 263.390625 162.816406 Z M 283.003906 158.835938 L 282.53125 157.816406 L 280.867188 158.226563 L 278.824219 159.574219 L 277.582031 159.890625 L 273.90625 161.488281 L 273.449219 161.261719 L 270.183594 162.371094 L 269.316406 162.117188 L 268.144531 162.722656 L 267.691406 162.496094 L 265.6875 163.117188 L 264.65625 162.757813 L 264.285156 163.5 L 267.800781 167.171875 L 272.640625 170.6875 L 278.402344 170.679688 L 279.257813 170.941406 L 282.90625 170.320313 L 283.761719 170.59375 L 285.792969 169.902344 L 286.246094 170.128906 L 289.90625 169.078125 L 290.546875 169.398438 L 290.546875 168.574219 L 291.167969 168.625 L 293.464844 167.804688 L 292.3125 166.269531 L 290.339844 164.460938 L 286.316406 161.820313 L 283.960938 159.316406 Z M 265.039063 116.738281 L 264.296875 118.21875 L 269.308594 122.628906 L 275.941406 128.261719 L 277.320313 127.964844 L 278.203125 126.199219 L 280.558594 121.914063 L 279.960938 121.023438 L 275.09375 117.242188 L 274.292969 116.324219 L 270.683594 113.6875 L 268.226563 111.082031 L 267.371094 111.9375 L 266.734375 114.480469 Z M 271.4375 35.597656 L 269.808594 34.785156 L 270.472656 40.097656 L 273.675781 43.300781 L 274.636719 43.78125 L 274.945313 44.539063 L 280.429688 48.972656 L 282.667969 50.53125 L 281.621094 44.082031 L 278.019531 41.359375 L 275.734375 38.980469 L 274.726563 38.066406 Z M 275.152344 47.917969 L 271.328125 45.210938 L 272.03125 51.53125 L 276.03125 55.679688 L 280.925781 59.421875 L 283.710938 61.742188 L 282.894531 55.109375 L 283.101563 54.691406 L 276.378906 49.578125 Z M 272.257813 100.1875 L 271.769531 99.945313 L 270.042969 105.4375 L 269.152344 108.304688 L 274.292969 112.246094 L 275.527344 113.890625 L 280.445313 117.652344 L 282.109375 118.382813 L 282.570313 117.28125 L 283.941406 111.183594 L 283.628906 109.933594 L 282.542969 108.828125 L 278.386719 105.722656 L 275.09375 103.253906 L 274.089844 102.339844 Z M 275.152344 58.019531 L 272.566406 56.34375 L 273.253906 62.636719 L 279.4375 67.984375 L 283.742188 71.5625 L 284.949219 72.015625 L 284.28125 66.320313 L 282.996094 64.632813 L 276.410156 59.699219 Z M 274.742188 67.667969 L 273.507813 66.84375 L 273.996094 74.179688 L 277.675781 77.894531 L 282.570313 81.632813 L 285.765625 84.371094 L 285.402344 77.652344 L 284.917969 76.261719 L 283.230469 74.957031 L 279.960938 71.652344 Z M 274.316406 90.726563 L 273.359375 90.371094 L 272.453125 96.785156 L 274.847656 98.417969 L 275.1875 99.183594 L 276.144531 99.664063 L 278.5 102.167969 L 282.664063 105 L 283.003906 105.765625 L 283.960938 106.453125 L 284.601563 106.773438 L 285.203125 104.191406 L 284.851563 100.066406 L 282.9375 97.851563 L 276.722656 93.410156 Z M 279.6875 82.875 L 274.242188 78.613281 L 273.667969 81.152344 L 273.996094 86.933594 L 275.960938 88.671875 L 280.445313 92.144531 L 283.3125 95.046875 L 285.476563 96.492188 L 286.117188 88.121094 L 285.113281 87.691406 Z M 269.746094 141.515625 L 268.769531 142.449219 L 269.054688 143.296875 L 274.292969 147.214844 L 275.527344 148.859375 L 280.449219 152.609375 L 281.699219 152.941406 L 282.542969 152.4375 L 283.367188 151.203125 L 284.375 150.679688 L 288.078125 146.769531 L 289.722656 145.125 L 290.429688 144.0625 L 287.488281 141.316406 L 282.914063 138.222656 L 281.90625 137.308594 L 279.644531 134.839844 L 277.996094 134.015625 L 275.09375 136.804688 L 274.160156 138.324219 Z M 280.671875 39.394531 L 281.082031 39.394531 L 281.082031 38.980469 L 280.671875 38.980469 Z M 283.550781 62.019531 L 283.960938 62.019531 L 283.960938 61.609375 L 283.550781 61.609375 Z M 285.769531 125.917969 L 283.710938 124.269531 L 282.792969 126.804688 L 280.265625 130.929688 L 280.589844 132.179688 L 286.84375 137.511719 L 291.148438 141.085938 L 291.984375 141.402344 L 293.011719 139.777344 L 294.707031 136.285156 L 295.363281 134.1875 L 290.730469 130.40625 L 289.929688 129.492188 Z M 287.066406 48.773438 L 285.855469 48.320313 L 286.75 54.019531 L 289.3125 56.46875 L 290.269531 56.945313 L 290.609375 57.710938 L 295.652344 61.722656 L 296.773438 62.46875 L 296.007813 56.347656 L 292.765625 53.917969 L 291.367188 52.148438 L 290.359375 51.230469 Z M 290.378906 60.746094 L 287.355469 58.730469 L 288.164063 65.195313 L 291.65625 68.851563 L 295.648438 72.015625 L 298.367188 73.984375 L 297.46875 66.738281 L 291.609375 62.550781 Z M 286.929688 115.730469 L 285.1875 121.878906 L 289.8125 125.191406 L 291.101563 126.878906 L 296.097656 130.726563 L 296.765625 130.726563 L 298.679688 123.136719 L 298.042969 121.859375 L 294.453125 118.792969 L 290.609375 116.132813 L 290.269531 115.367188 L 289.3125 114.886719 L 288.304688 113.765625 L 287.535156 113.695313 Z M 289.539063 70.15625 L 288.597656 69.804688 L 289.269531 75.808594 L 291.6875 78.292969 L 292.851563 79.175781 L 298.945313 83.9375 L 298.390625 79.507813 L 298.648438 78.148438 L 297.3125 76.921875 L 291.171875 72.242188 L 290.75 71.484375 Z M 290.546875 104.394531 L 289.480469 103.6875 L 288.925781 105.421875 L 288.421875 109.960938 L 289.722656 111.390625 L 292.191406 113.035156 L 294.132813 115.332031 L 297.746094 117.972656 L 298.566406 118.792969 L 298.980469 118.792969 L 299.59375 115.296875 L 299.242188 112.410156 L 298.394531 111.1875 L 291.277344 105.855469 Z M 296.964844 86.164063 L 289.546875 80.429688 L 290.042969 87.753906 L 293.3125 91.058594 L 298.53125 95.046875 L 299.765625 95.871094 L 299.277344 88.535156 Z M 290.785156 92.351563 L 289.550781 91.527344 L 290.042969 100.507813 L 291.59375 101.835938 L 294.089844 103.851563 L 300.007813 108.921875 L 300.160156 100.007813 L 294.070313 94.828125 Z M 285.484375 154.75 L 284.421875 156.167969 L 289.488281 160.039063 L 291.15625 162.042969 L 295.664063 165.375 L 296.921875 165.695313 L 298.132813 164.964844 L 298.957031 163.730469 L 300.417969 163.019531 L 305.035156 158.515625 L 305.699219 157.191406 L 303.296875 154.792969 L 298.546875 151.386719 L 297.539063 150.472656 L 294.863281 147.59375 L 293.054688 146.6875 L 292.191406 148.414063 L 290.546875 150.0625 L 286.636719 154.175781 Z M 300.007813 138.128906 L 298.527344 137.019531 L 298.15625 138.953125 L 297.539063 139.570313 L 296.789063 141.640625 L 295.480469 143.480469 L 295.132813 144.179688 L 301.390625 149.378906 L 306.347656 153.878906 L 307.414063 154.585938 L 309.148438 151.113281 L 311.023438 147.410156 L 310.796875 146.953125 L 307.296875 144.472656 L 306.382813 143.066406 Z M 298.773438 84.238281 L 299.183594 84.238281 L 299.183594 83.824219 L 298.773438 83.824219 Z M 299.597656 96.167969 L 300.007813 96.167969 L 300.007813 95.757813 L 299.597656 95.757813 Z M 306.425781 64.777344 L 299.878906 59.867188 L 301.152344 66.359375 L 305.996094 70.15625 L 306.796875 71.070313 L 309.46875 73.539063 L 311.113281 74.773438 L 311.097656 74.15625 L 309.675781 65.722656 L 308.648438 65.722656 L 308.449219 66.484375 L 307.597656 66.226563 Z M 304.78125 73.003906 L 301.527344 70.566406 L 302.382813 77.46875 L 304.402344 79.554688 L 307.320313 81.996094 L 311.71875 85.546875 L 312.679688 85.921875 L 311.59375 78.671875 L 307.296875 75.835938 Z M 305.101563 127.980469 L 302.140625 125.441406 L 300.023438 133.398438 L 299.632813 133.941406 L 303.070313 136.578125 L 305.355469 138.953125 L 306.363281 139.867188 L 311.304688 143.5625 L 312.144531 143.890625 L 312.648438 142.484375 L 313.992188 137.101563 L 313.660156 135.03125 L 310.085938 131.960938 L 306.242188 129.296875 L 305.902344 128.53125 Z M 306.433594 84.515625 L 302.734375 81.632813 L 303.621094 88.164063 L 309.636719 93.40625 L 312.933594 95.871094 L 313.921875 96.53125 L 313.214844 90.199219 L 306.804688 85.40625 Z M 306.335938 94.242188 L 303.550781 91.921875 L 303.914063 97.8125 L 304.359375 99.980469 L 305.355469 100.488281 L 308.851563 103.984375 L 313.765625 107.777344 L 314.589844 108.1875 L 314.023438 102.546875 L 314.28125 101.1875 L 311.230469 97.984375 Z M 304.738281 116.324219 L 303.503906 115.914063 L 302.890625 119.824219 L 303.132813 122.828125 L 304.761719 123.640625 L 306.085938 124.738281 L 306.453125 125.515625 L 307.414063 125.992188 L 309.46875 128.050781 L 312.945313 130.816406 L 314.222656 131.457031 L 314.882813 124.75 L 313.746094 123.859375 L 306.804688 118.730469 L 306.382813 117.972656 Z M 305.164063 104.316406 L 304.328125 103.984375 L 303.726563 110.359375 L 304.035156 112.4375 L 308.554688 116.097656 L 310.132813 117.429688 L 314.96875 121.402344 L 314.5 112.394531 L 312.945313 111.070313 L 309.636719 108.628906 Z M 326.105469 82.28125 L 321.683594 79.699219 L 322.085938 81.613281 L 321.835938 82.796875 L 322.378906 85.335938 L 323.664063 86.292969 L 325.753906 87.414063 L 328.515625 89.253906 L 328.027344 86.90625 L 326.609375 82.726563 Z M 324.085938 89.925781 L 322.878906 89.460938 L 323.433594 93.90625 L 326.125 95.804688 L 329.050781 97.277344 L 330.988281 98.730469 L 330.449219 96.167969 L 329.832031 94.523438 L 329.527344 93.46875 L 326.542969 91.203125 Z M 334.152344 96.988281 L 334.566406 96.988281 L 334.566406 96.578125 L 334.152344 96.578125 Z M 334.152344 96.988281 "/>
</g>
</svg>
