<?xml version="1.0" encoding="UTF-8"?>
<svg xmlns="http://www.w3.org/2000/svg" xmlns:xlink="http://www.w3.org/1999/xlink" width="360pt" height="272pt" viewBox="0 0 360 272" version="1.1">
<g id="surface185">
<path style=" stroke:none;fill-rule:evenodd;fill:rgb(99.998474%,99.998474%,99.998474%);fill-opacity:1;" d="M 8.085938 192.421875 L 7.179688 194.40625 L 7.976563 194.007813 L 12.585938 196.085938 L 15.988281 197.21875 L 22.332031 199.917969 L 22.730469 201.511719 L 23.152344 206.578125 L 23.15625 207.375 L 21.457031 207.050781 L 16.378906 204.550781 L 11.316406 202.429688 L 10.277344 202.566406 L 8.679688 205.078125 L 9.007813 205.734375 L 9.664063 205.40625 L 16.378906 208.351563 L 20.195313 209.953125 L 23.601563 211.746094 L 23.996094 216.289063 L 24.007813 218.335938 L 21.453125 217.621094 L 15.976563 215.035156 L 14.6875 215.355469 L 13.257813 217.339844 L 13.542969 218.21875 L 15.144531 218.742188 L 21.871094 221.433594 L 22.941406 221.988281 L 24.417969 222.621094 L 24.832031 224.675781 L 28.21875 223.886719 L 29.273438 224.519531 L 31.382813 224.941406 L 31.804688 225.363281 L 32.441406 225.539063 L 36.445313 226.375 L 37.273438 234.652344 L 40.03125 246.742188 L 43.203125 245.417969 L 46.582031 244.152344 L 48.941406 243.1875 L 50.246094 242.300781 L 49.484375 239.289063 L 51.863281 239.476563 L 58.359375 241.410156 L 59.035156 242.039063 L 59.617188 244.367188 L 60.9375 251.960938 L 61.527344 253.3125 L 63.46875 252.59375 L 64.84375 251.992188 L 65.117188 251.113281 L 64.285156 249.007813 L 63.125 242.65625 L 64.078125 242.554688 L 65.347656 243.210938 L 65.8125 242.976563 L 67.035156 243.632813 L 67.5 243.402344 L 70.390625 244.488281 L 70.878906 244.246094 L 72.101563 244.902344 L 72.617188 244.644531 L 73.320313 245.347656 L 73.835938 245.089844 L 75.558594 245.972656 L 78.425781 259.359375 L 79.511719 258.925781 L 82.105469 257.878906 L 79.824219 247.160156 L 80.589844 246.777344 L 81.8125 247.433594 L 82.277344 247.199219 L 85.1875 248.277344 L 85.65625 248.042969 L 86.6875 248.582031 L 87.625 248.605469 L 88.957031 249.496094 L 90.042969 255.761719 L 91.542969 261.871094 L 94.921875 260.191406 L 95.136719 259.136719 L 94.074219 254.703125 L 93.652344 250.90625 L 93.648438 250.523438 L 94.992188 250.765625 L 95.363281 250.578125 L 96.585938 251.234375 L 97.054688 251 L 99.964844 252.078125 L 100.429688 251.84375 L 101.652344 252.5 L 102.121094 252.265625 L 103.339844 252.921875 L 103.808594 252.6875 L 106.402344 253.605469 L 106.742188 254.28125 L 108.742188 263.613281 L 115.171875 260.964844 L 116.460938 260.257813 L 118.90625 259.375 L 117.96875 254.699219 L 126.585938 253.460938 L 131.222656 252.136719 L 135.453125 251.367188 L 138.804688 250.15625 L 139.269531 250.390625 L 145.992188 248.308594 L 149.816406 247.027344 L 151.074219 246.210938 L 155.300781 244.636719 L 158.878906 243.304688 L 161.410156 242.039063 L 163.324219 241.265625 L 166.6875 239.929688 L 166.707031 239.171875 L 168.167969 238.664063 L 170.480469 237.753906 L 171.777344 237.300781 L 172.660156 236.402344 L 176.609375 234.019531 L 178.109375 233.269531 L 182.308594 230.640625 L 182.660156 229.9375 L 185.898438 228.320313 L 188.195313 227.78125 L 188.664063 228.015625 L 193.769531 226.570313 L 197.953125 224.824219 L 200.019531 223.792969 L 201.253906 223.183594 L 205.550781 219.757813 L 206.582031 218.820313 L 208.519531 216.828125 L 210.253906 214.34375 L 212.808594 210.800781 L 215.546875 205.125 L 218.078125 200.058594 L 219.652344 194.546875 L 221.144531 190.921875 L 223.484375 181.878906 L 224.527344 177.449219 L 224.640625 176.414063 L 224.359375 175.542969 L 225.71875 168.742188 L 226.847656 162.039063 L 227.5625 154.484375 L 232.925781 156.253906 L 233.414063 156.011719 L 241.410156 158.90625 L 248.59375 160.527344 L 251.332031 161.617188 L 251.988281 161.734375 L 256.183594 162.722656 L 258.304688 163.472656 L 263.359375 164.402344 L 265.6875 164.996094 L 266.71875 165.53125 L 267.1875 165.300781 L 273.460938 166.773438 L 274.34375 166.511719 L 276.851563 167.222656 L 277.320313 166.988281 L 279.824219 167.695313 L 280.707031 167.429688 L 282.574219 167.949219 L 284.449219 167.832031 L 292.917969 168.15625 L 294.121094 167.886719 L 298.835938 166.957031 L 302.214844 166.113281 L 305.699219 164.59375 L 307.246094 163.421875 L 308.105469 162.738281 L 309.171875 162.460938 L 312.398438 159.867188 L 314.234375 158.027344 L 317.824219 154.230469 L 318.410156 152.757813 L 320.953125 147.683594 L 322.828125 143.101563 L 323.410156 141.386719 L 323.144531 140.503906 L 324.050781 136.679688 L 325 130.585938 L 325.621094 123.199219 L 324.808594 105.621094 L 327.980469 107.695313 L 329.433594 109.269531 L 331.757813 110.324219 L 334.6875 112.949219 L 336.84375 114.027344 L 340.167969 116.765625 L 343.183594 118.65625 L 345.242188 120.550781 L 347.445313 121.652344 L 349.109375 120.164063 L 351.46875 117.304688 L 351.820313 116.410156 L 347.679688 113.046875 L 346.53125 112.417969 L 342.097656 109.058594 L 338.089844 106.085938 L 335.957031 105.164063 L 334.890625 102.9375 L 334.367188 100.5 L 335.980469 100.992188 L 338.449219 102.875 L 340.683594 105.109375 L 346.101563 109.109375 L 348.222656 109.519531 L 349.179688 108.023438 L 348.949219 107.558594 L 346.53125 105.679688 L 344.867188 104.929688 L 344.019531 103.664063 L 342.3125 102.707031 L 338.53125 99.675781 L 336.378906 98.597656 L 333.507813 96.121094 L 332.339844 93.65625 L 331.410156 89.945313 L 332.613281 90.40625 L 336.394531 93.488281 L 338.074219 94.355469 L 338.933594 94.6875 L 339.960938 93.226563 L 339.65625 92.363281 L 336.789063 90.597656 L 331.253906 86.425781 L 330.136719 85.980469 L 329.820313 85.203125 L 322.199219 80.128906 L 321.257813 78.804688 L 318.519531 63.242188 L 311.515625 61.445313 L 311.046875 61.679688 L 308.957031 60.929688 L 308.363281 60.929688 L 309.503906 67.203125 L 308.324219 66.417969 L 307.574219 64.917969 L 303.953125 62.347656 L 302.6875 60.65625 L 300.9375 59.242188 L 299.722656 58.535156 L 299.039063 55.863281 L 297.917969 48.289063 L 294.246094 47.695313 L 295.320313 54.242188 L 292.960938 52.355469 L 292.144531 51.785156 L 291.792969 51 L 288.335938 48.414063 L 287.015625 46.644531 L 286.371094 46.367188 L 285.453125 45.535156 L 283.90625 36.414063 L 280.214844 35.675781 L 281.054688 41.210938 L 279.808594 40.761719 L 277.929688 38.554688 L 275.546875 36.71875 L 269.46875 31.589844 L 267.796875 22.300781 L 266.765625 22.417969 L 264.25 21.546875 L 265.152344 27.480469 L 258.351563 21.53125 L 256.703125 20.226563 L 253.261719 16.632813 L 251.945313 9.335938 L 248.167969 8.195313 L 245.84375 7.949219 L 244.8125 7.410156 L 244.34375 7.644531 L 242.257813 6.894531 L 241.667969 9.632813 L 241.976563 10.691406 L 242.46875 10.691406 L 244.15625 20.824219 L 243.5 21.152344 L 239.324219 19.652344 L 238.855469 19.886719 L 235.808594 18.945313 L 233.390625 17.894531 L 232.511719 18.175781 L 228.347656 16.695313 L 227.878906 16.929688 L 221.152344 14.878906 L 216.507813 14.027344 L 214.183594 13.226563 L 209.324219 12.410156 L 203.015625 10.785156 L 201.765625 10.386719 L 200.878906 10.652344 L 196.617188 9.558594 L 190.773438 8.675781 L 190.308594 8.910156 L 187.164063 8.371094 L 186.109375 8.195313 L 183.996094 8.582031 L 181.902344 10.347656 L 180.183594 11.042969 L 178.449219 12.109375 L 172.386719 16.601563 L 167.125 20.058594 L 166.648438 20.910156 L 162.890625 23.8125 L 161.65625 25.585938 L 156.558594 30.535156 L 156.09375 31.675781 L 154.109375 34.925781 L 151.589844 38.796875 L 151.246094 40.457031 L 148.65625 46.386719 L 147.339844 51.0625 L 146.519531 55.6875 L 145.78125 59.875 L 146.1875 82.25 L 145.894531 83.964844 L 146.628906 94.070313 L 145.925781 110.285156 L 140.085938 111.953125 L 129.121094 115.855469 L 125.304688 117.007813 L 112.640625 121.234375 L 109.285156 122.214844 L 105.359375 123.644531 L 104.214844 124.304688 L 97.886719 126.429688 L 94.074219 127.632813 L 94.050781 128.375 L 90.285156 129.808594 L 87.953125 130.585938 L 85.421875 131.855469 L 83.507813 132.625 L 78.433594 135.136719 L 74.679688 137.015625 L 73.367188 137.4375 L 72.542969 138.144531 L 68.113281 140.929688 L 63.238281 144.007813 L 58.128906 148.46875 L 56.292969 150.851563 L 53.078125 153.671875 L 48.480469 159.304688 L 44.164063 165.871094 L 42.183594 168.699219 L 41.726563 170.269531 L 39.679688 174.640625 L 37.667969 178.917969 L 35.984375 187.363281 L 35.035156 191.949219 L 34.5625 193.558594 L 32.433594 193.113281 L 29.507813 191.894531 L 29.039063 192.128906 L 26.6875 191.175781 L 26.175781 190.605469 L 25.664063 190.863281 L 21.445313 188.929688 L 15.554688 186.308594 L 12.589844 185.839844 L 11.4375 186.917969 L 9.941406 190.34375 Z M 28.195313 201.839844 L 26.558594 200.996094 L 26.953125 205.734375 L 27.429688 209.253906 L 29.5 209.875 L 33.304688 211.128906 L 34.464844 211.050781 L 33.78125 203.167969 L 28.851563 201.933594 L 28.664063 201.605469 Z M 29.460938 213.425781 L 27.796875 212.910156 L 27.585938 215.230469 L 28.148438 220.351563 L 30.746094 221.40625 L 35.75 222.722656 L 34.488281 214.523438 L 33.683594 214.925781 L 30.234375 213.507813 Z M 44.683594 196.867188 L 44.273438 196.867188 L 44.683594 209.53125 L 44.707031 211.964844 L 45.925781 212.394531 L 46.441406 212.136719 L 47.144531 212.839844 L 47.660156 212.582031 L 48.882813 213.238281 L 49.347656 213.003906 L 50.382813 213.542969 L 51.019531 213.703125 L 55.253906 214.519531 L 55.859375 202.988281 L 55.601563 199.324219 L 54.792969 199.730469 L 53.570313 199.074219 L 53.105469 199.304688 Z M 48.480469 216.3125 L 45.398438 215.738281 L 47.003906 225.363281 L 48.039063 225.902344 L 48.503906 225.667969 L 49.726563 226.324219 L 50.191406 226.09375 L 51.414063 226.746094 L 51.882813 226.515625 L 56.816406 227.871094 L 55.847656 218.183594 L 50.613281 216.804688 L 50.148438 217.039063 L 49.117188 216.5 Z M 55.257813 196.351563 L 56.175781 196.269531 L 56.527344 195.273438 L 57.5 190.332031 L 57.769531 187.582031 L 58.773438 184 L 59.996094 180.636719 L 59.667969 179.980469 L 59.015625 180.308594 L 56.527344 179.230469 L 56.058594 179.464844 L 54.835938 178.808594 L 54.371094 179.042969 L 49.117188 177.660156 L 47.460938 177.664063 L 46.613281 183.148438 L 45.539063 187.226563 L 44.621094 193.21875 L 45.167969 193.761719 L 53.527344 195.929688 L 53.992188 195.695313 Z M 56.035156 231.195313 L 47.351563 229.207031 L 48.585938 235.101563 L 50.992188 236.035156 L 51.296875 235.882813 L 57.769531 237.394531 L 57.976563 235.917969 L 57.375 231.589844 L 56.714844 231.273438 Z M 49.910156 172.585938 L 49.492188 174.285156 L 54.792969 175.664063 L 55.257813 175.433594 L 56.292969 175.96875 L 57.136719 176.183594 L 58.167969 176.277344 L 61.148438 177.0625 L 61.570313 176.605469 L 62.414063 174.914063 L 62.859375 172.898438 L 68.855469 162.859375 L 69.988281 161.3125 L 72.546875 158.871094 L 73.390625 157.183594 L 75.605469 154.96875 L 74.867188 154.230469 L 74.210938 154.558594 L 71.722656 153.480469 L 71.257813 153.710938 L 65.796875 152.167969 L 63.765625 153.132813 L 61.484375 156.171875 L 57.769531 159.71875 L 57.464844 160.792969 L 54.914063 163.695313 L 52.8125 167.078125 L 52.21875 168.730469 L 51.226563 170.058594 Z M 67.050781 217.597656 L 72.5625 218.777344 L 72.332031 209.320313 L 72.945313 203.527344 L 72.101563 203.949219 L 70.878906 203.292969 L 70.414063 203.527344 L 61.992188 201.109375 L 59.941406 200.816406 L 59.097656 201.660156 L 59.457031 214.597656 L 59.972656 215.617188 Z M 64.097656 220.136719 L 59.792969 219.308594 L 60.515625 226.628906 L 61.113281 228.839844 L 61.78125 229.164063 L 65.347656 230.125 L 65.8125 229.890625 L 67.035156 230.546875 L 67.550781 230.289063 L 68.113281 230.851563 L 68.769531 230.96875 L 73.359375 231.816406 L 72.96875 225.152344 L 72.960938 222.25 L 67.925781 221.027344 L 67.457031 221.257813 L 66.234375 220.605469 L 65.769531 220.835938 L 64.734375 220.296875 Z M 73.730469 235.539063 L 61.605469 232.636719 L 62.738281 238.90625 L 64.734375 239.296875 L 65.769531 239.835938 L 66.234375 239.601563 L 67.457031 240.257813 L 67.925781 240.023438 L 69.203125 240.46875 L 73.390625 241.640625 L 74.867188 242.039063 L 74.84375 241.40625 Z M 71.65625 183.066406 L 63.003906 181.089844 L 62.230469 186.105469 L 60.503906 191.589844 L 59.933594 197.25 L 63.890625 198.132813 L 70.835938 200.152344 L 71.300781 199.917969 L 72.523438 200.574219 L 72.988281 200.339844 L 73.390625 197.289063 L 74.414063 192.859375 L 76.515625 185.261719 L 76.238281 184.386719 L 75.101563 183.875 L 74.632813 184.109375 L 72.429688 183.125 Z M 88.574219 144.019531 L 88.925781 143.421875 L 89.890625 142.949219 L 94.015625 140.992188 L 94.78125 139.515625 L 88.585938 138.199219 L 86.90625 139.085938 L 84.777344 139.8125 L 79.324219 142.503906 L 78.457031 142.832031 L 78.4375 143.589844 L 77.167969 144.003906 L 74.257813 145.457031 L 73.179688 145.996094 L 71.914063 147.261719 L 70.835938 147.570313 L 68.863281 148.929688 L 68.625 149.402344 L 69.800781 149.796875 L 71.679688 150.335938 L 72.148438 150.101563 L 74.539063 151.085938 L 75.101563 151.179688 L 78.457031 151.707031 L 82.257813 148.757813 L 83.453125 148.039063 L 83.960938 147.128906 Z M 75.488281 180.46875 L 78.042969 181.199219 L 78.457031 179.136719 L 80.671875 175.097656 L 85.210938 166.910156 L 88.617188 162.582031 L 89.011719 161.40625 L 91.003906 159.527344 L 91.332031 158.660156 L 90.296875 158.121094 L 89.832031 158.355469 L 86.882813 157.527344 L 84.78125 156.824219 L 78.878906 155.488281 L 73.496094 161.644531 L 72.96875 163.09375 L 71.796875 164.113281 L 69.265625 168.339844 L 66.929688 173.03125 L 64.734375 176.816406 L 65.046875 178.113281 L 68.207031 178.949219 L 72.007813 179.792969 L 72.757813 179.980469 L 73.789063 180.074219 L 75.289063 180.824219 Z M 76.554688 184.625 L 76.976563 184.625 L 76.976563 184.203125 L 76.554688 184.203125 Z M 85.632813 222.199219 L 85.675781 222.199219 L 85.417969 213.542969 L 86.171875 207.65625 L 85.9375 207.1875 L 83.933594 206.636719 L 76.757813 204.9375 L 76.117188 207.210938 L 76.34375 218.398438 L 76.746094 219.992188 L 77.210938 219.757813 Z M 77.824219 223.675781 L 76.644531 223.085938 L 77.402344 231.273438 L 78 233.058594 L 78.601563 233.394531 L 82.5625 234.25 L 83.3125 234.441406 L 84.34375 234.535156 L 85.65625 235.191406 L 86.773438 235.09375 L 85.726563 225.574219 L 85.210938 225.574219 L 82.242188 224.652344 Z M 77.390625 196.234375 L 76.882813 201.324219 L 79.511719 202.144531 L 81.390625 202.683594 L 81.855469 202.449219 L 82.886719 202.988281 L 83.734375 203.199219 L 84.765625 203.292969 L 86.597656 203.730469 L 87.496094 198.34375 L 88.585938 194.757813 L 89.011719 192.222656 L 90.394531 188.234375 L 90.042969 187.535156 L 83.941406 186.351563 L 80.207031 185.195313 L 79.660156 185.742188 L 79.300781 187.15625 L 78.457031 190.535156 L 78.035156 193.914063 Z M 82.265625 237.75 L 78.105469 236.816406 L 78.667969 241.828125 L 79.371094 243.023438 L 80.542969 243.632813 L 81.011719 243.402344 L 82.042969 243.941406 L 82.691406 244.070313 L 88.5 245.304688 L 87.953125 241.195313 L 87.375 238.804688 L 85.84375 238.453125 L 85.1875 238.335938 L 82.253906 237.394531 Z M 110.425781 143.910156 L 110.660156 143.433594 L 109.484375 143.042969 L 107.609375 142.503906 L 107.140625 142.734375 L 105.917969 142.082031 L 105.453125 142.3125 L 102.503906 141.484375 L 99.992188 140.773438 L 93.230469 144.097656 L 92.410156 145.035156 L 90.6875 145.714844 L 88.558594 147.367188 L 85.179688 149.472656 L 82.253906 152.117188 L 82.234375 152.867188 L 82.699219 152.632813 L 85.1875 153.710938 L 85.65625 153.480469 L 94.03125 155.785156 L 96.140625 154.097656 L 99.164063 151.789063 L 100.839844 150.074219 L 106.109375 146.417969 Z M 91.542969 184.625 L 91.964844 184.625 L 93.507813 181.890625 L 94.21875 179.757813 L 95.554688 177.238281 L 98.1875 173.886719 L 99.695313 170.890625 L 101.324219 169.164063 L 107.234375 162.410156 L 106.109375 162.039063 L 102.542969 161.078125 L 102.074219 161.3125 L 98.722656 160.117188 L 94.765625 159.433594 L 89.484375 166.1875 L 88.660156 167.898438 L 86.863281 170.152344 L 84.074219 174.6875 L 83.339844 177.660156 L 81.242188 181.894531 L 83.921875 182.84375 L 84.386719 182.609375 L 85.609375 183.265625 L 86.078125 183.03125 Z M 90.675781 226.515625 L 89.71875 226.617188 L 90.882813 235.921875 L 91.402344 236.410156 L 99.542969 238.566406 L 100.007813 238.335938 L 101.042969 238.875 L 101.886719 239.085938 L 104.417969 239.507813 L 104.339844 239.28125 L 102.949219 229.746094 L 99.148438 228.894531 L 95.363281 227.78125 L 94.898438 228.015625 L 92.410156 226.9375 L 91.941406 227.167969 Z M 92.175781 208.6875 L 89.78125 208.425781 L 89.210938 211.433594 L 89.433594 220.929688 L 89.457031 222.941406 L 90.675781 223.371094 L 91.144531 223.136719 L 92.363281 223.792969 L 92.832031 223.558594 L 95.777344 224.660156 L 99.5625 225.605469 L 102.886719 226.140625 L 102.296875 223.253906 L 102.519531 213.753906 L 102.933594 211.277344 L 101.042969 210.800781 L 92.871094 208.835938 Z M 92.386719 239.929688 L 91.601563 239.929688 L 92.164063 244.363281 L 92.886719 246.421875 L 96.117188 247.386719 L 97.007813 247.855469 L 97.476563 247.621094 L 102.730469 249.003906 L 103.761719 249.542969 L 104.136719 249.355469 L 105.753906 249.761719 L 104.417969 243.09375 L 102.964844 242.554688 L 102.496094 242.789063 L 101.273438 242.132813 L 100.808594 242.367188 L 99.773438 241.828125 L 95.359375 240.851563 Z M 118.148438 129.804688 L 120.671875 128.898438 L 121.089844 128.519531 L 116.835938 127.328125 L 113.867188 128.613281 L 109.28125 130.214844 L 106.3125 130.957031 L 104.535156 132.101563 L 100.398438 133.476563 L 95.554688 135.230469 L 94.4375 135.804688 L 95.132813 136.496094 L 95.785156 136.171875 L 96.820313 136.710938 L 97.476563 136.824219 L 100.832031 137.34375 L 102.988281 136.367188 L 105.0625 135.164063 L 107.601563 134.042969 L 110.53125 132.640625 L 113.566406 131.785156 L 114.339844 131.011719 Z M 95.132813 139.875 L 95.554688 139.875 L 95.554688 139.453125 L 95.132813 139.453125 Z M 99.144531 189.667969 L 94.070313 188.796875 L 93.230469 190.957031 L 91.722656 195.386719 L 89.972656 204.699219 L 97.007813 206.484375 L 97.476563 206.25 L 98.699219 206.90625 L 99.210938 206.648438 L 99.773438 207.210938 L 100.621094 207.421875 L 103.09375 207.640625 L 104.027344 200.878906 L 104.691406 197.5625 L 105.605469 194.953125 L 106.699219 191.296875 L 105.875 191.707031 L 102.109375 190.886719 Z M 97.664063 156.761719 L 98.085938 156.761719 L 98.085938 156.339844 L 97.664063 156.339844 Z M 95.34375 185.046875 L 94.929688 185.402344 L 98.320313 186.21875 L 99.351563 186.3125 L 99.542969 186.640625 L 100.007813 186.40625 L 101.230469 187.0625 L 101.699219 186.832031 L 102.917969 187.484375 L 103.386719 187.253906 L 107.160156 188.390625 L 108.269531 188.054688 L 109.136719 185.273438 L 109.84375 183.980469 L 110.707031 181.453125 L 111.910156 179.738281 L 115.503906 174.734375 L 117.929688 171.328125 L 122 166.324219 L 121.453125 165.777344 L 119.851563 165.300781 L 119.382813 165.53125 L 118.160156 164.878906 L 117.695313 165.109375 L 116.660156 164.570313 L 116.011719 164.4375 L 110.246094 163.21875 L 108.757813 165.453125 L 104.601563 169.324219 L 102.425781 172.628906 L 99.472656 176.851563 L 96.492188 182.28125 Z M 128.15625 148.128906 L 128.402344 147.632813 L 124.070313 146.300781 L 123.605469 146.535156 L 116.660156 144.730469 L 115.609375 144.5625 L 113.0625 145.296875 L 111.078125 146.398438 L 107.15625 148.691406 L 104.453125 150.636719 L 104.207031 151.238281 L 100.722656 153.625 L 99.351563 154.652344 L 98.441406 155.695313 L 98.3125 156.417969 L 100.808594 157.511719 L 101.273438 157.277344 L 102.496094 157.933594 L 102.964844 157.699219 L 110.144531 159.617188 L 114.644531 156.152344 L 117.25 154.519531 L 119.796875 152.429688 L 126.140625 149.074219 Z M 134.710938 132.804688 L 135.511719 132.003906 L 134.203125 131.527344 L 133.738281 131.761719 L 132.703125 131.222656 L 132.066406 131.042969 L 125.316406 129.730469 L 124.054688 130.640625 L 119.839844 131.929688 L 118.550781 132.636719 L 113.707031 134.386719 L 110.960938 135.652344 L 104.992188 138.335938 L 105.6875 139.03125 L 106.339844 138.703125 L 109.578125 139.6875 L 113.472656 140.625 L 113.941406 140.390625 L 115.585938 141.046875 L 116.429688 140.625 L 117.726563 139.9375 L 119.839844 139.101563 L 124.878906 136.84375 L 127.636719 135.652344 L 130.171875 134.386719 Z M 127.410156 212.824219 L 130.382813 211.644531 L 130.402344 210.886719 L 132.070313 210.378906 L 132.28125 210.378906 L 131.585938 209.683594 L 126.183594 208.78125 L 125.714844 209.015625 L 123.417969 208.476563 L 122.746094 208.382813 L 113.074219 207 L 113.066406 217.921875 L 118.570313 216.347656 L 123.628906 214.597656 Z M 116.023438 223.515625 L 113.074219 223.042969 L 112.855469 224.941406 L 113.484375 228.605469 L 118.351563 227.6875 L 120.257813 227.203125 L 124.777344 225.808594 L 125.015625 225.335938 L 123.648438 224.824219 L 123.183594 225.058594 L 121.117188 224.402344 L 120.648438 224.636719 L 119.007813 223.980469 L 118.539063 224.214844 L 116.660156 223.675781 Z M 115.585938 237.066406 L 114.550781 236.550781 L 114.34375 237.351563 L 116.027344 237.816406 L 116.238281 236.972656 Z M 121.980469 154.351563 L 120.132813 155.261719 L 119.8125 155.839844 L 115.542969 158.722656 L 113.855469 160.414063 L 116.429688 161.3125 L 116.894531 161.078125 L 117.929688 161.617188 L 118.566406 161.792969 L 124.894531 163.082031 L 129.421875 159.527344 L 130.828125 158.121094 L 135.433594 154.996094 L 135.800781 154.371094 L 137.546875 153.3125 L 139.261719 152.617188 L 141.476563 151.085938 L 141.242188 150.617188 L 134.6875 148.910156 L 133.761719 148.769531 L 130.792969 149.519531 L 125.722656 152.035156 Z M 116.238281 220.507813 L 116.660156 220.507813 L 116.660156 220.085938 L 116.238281 220.085938 Z M 116.414063 240.46875 L 115.074219 240.949219 L 115.816406 245.628906 L 116.433594 246.769531 L 121.9375 246.261719 L 122.351563 245.898438 L 123.242188 246.144531 L 124.683594 245.628906 L 127.636719 245.207031 L 129.082031 244.691406 L 129.960938 244.96875 L 131.015625 244.363281 L 133.34375 243.769531 L 138.15625 242.847656 L 137.496094 242.1875 L 135.238281 241.828125 L 134.203125 241.289063 L 133.738281 241.523438 L 132.703125 240.984375 L 132.054688 240.851563 L 126.546875 239.625 L 120.460938 239.929688 L 119.617188 240.140625 L 117.300781 240.730469 Z M 115.359375 193.277344 L 114.621094 198.273438 L 117.414063 197.875 L 117.738281 198.039063 L 120.882813 197.5 L 122.324219 196.984375 L 123.207031 197.265625 L 125.527344 196.234375 L 129.632813 194.933594 L 133.324219 192.996094 L 135.042969 192.300781 L 138.308594 189.9375 L 140 188.25 L 144.21875 181.917969 L 145.554688 179.234375 L 146.644531 171.328125 L 146.398438 156.671875 L 144.335938 157.699219 L 143.257813 158.238281 L 135.816406 163.199219 L 135.449219 163.9375 L 131.558594 167.144531 L 125.417969 173.828125 L 124.761719 175.5625 L 120.796875 181.054688 L 119.34375 184.054688 L 116.871094 189.269531 Z M 116.660156 237.816406 L 117.085938 237.816406 L 117.085938 237.394531 L 116.660156 237.394531 Z M 150.953125 213.144531 L 151.1875 212.667969 L 150.011719 212.277344 L 148.324219 212.277344 L 146.457031 211.753906 L 145.574219 212.023438 L 140.304688 211.011719 L 138.613281 210.589844 L 137.582031 210.472656 L 136.292969 211.222656 L 135.46875 211.972656 L 133.382813 212.777344 L 129.949219 214.664063 L 127.214844 215.867188 L 124.882813 216.644531 L 118.960938 218.914063 L 117.296875 219.664063 L 116.882813 220.441406 L 118.960938 220.835938 L 119.476563 220.578125 L 120.179688 221.285156 L 120.695313 221.027344 L 122.761719 221.679688 L 123.226563 221.449219 L 127.40625 222.527344 L 127.871094 222.292969 L 129.9375 222.949219 L 130.277344 222.777344 L 132.496094 223.085938 L 137.347656 220.507813 L 140.726563 219.242188 L 144.523438 216.921875 L 146.421875 215.398438 L 148.550781 214.675781 Z M 142.414063 231.273438 L 146.214844 230.007813 L 145.851563 228.921875 L 145.136719 229.28125 L 143.070313 228.625 L 142.601563 228.859375 L 138.425781 227.78125 L 137.960938 228.015625 L 136.738281 227.359375 L 136.269531 227.589844 L 134.625 226.9375 L 134.160156 227.167969 L 132.28125 226.628906 L 131.230469 226.453125 L 129.953125 226.789063 L 125.738281 228.109375 L 120.667969 229.839844 L 118.351563 230.640625 L 114 231.46875 L 114.4375 233.417969 L 121.917969 235.191406 L 122.382813 234.957031 L 123.417969 235.496094 L 124.070313 235.613281 L 126.582031 236.113281 L 128.671875 235.378906 L 129.136719 235.613281 L 131.859375 234.652344 L 134.542969 234.167969 L 136.453125 233.378906 L 141.941406 231.691406 Z M 153.539063 137.191406 L 154.085938 136.648438 L 142.226563 133.636719 L 141.871094 133.8125 L 140.09375 133.550781 L 134.613281 135.714844 L 133.125 136.285156 L 130.804688 136.921875 L 130.789063 137.6875 L 127.839844 138.542969 L 124.261719 139.875 L 122.996094 140.507813 L 122.574219 140.929688 L 120.25 141.5625 L 119.835938 142.347656 L 124.027344 143.160156 L 124.496094 142.925781 L 129.539063 144.539063 L 134.195313 145.285156 L 137.160156 143.582031 L 138.835938 142.894531 L 141.359375 141.984375 L 141.886719 141.457031 L 146.414063 139.8125 L 149.328125 138.746094 Z M 123.691406 204.617188 L 123.144531 205.160156 L 125.292969 205.640625 L 125.761719 205.40625 L 127.636719 205.945313 L 129.175781 206.007813 L 136.652344 207.273438 L 137.523438 207.304688 L 138.789063 206.460938 L 140.445313 205.453125 L 140.820313 204.65625 L 144.699219 202.050781 L 146.859375 199.335938 L 148.019531 198.804688 L 148.640625 197.871094 L 147.902344 197.5 L 146.214844 197.5 L 143.679688 197.078125 L 141.785156 196.910156 L 139.238281 197.644531 L 138.191406 198.769531 L 137.113281 199.304688 L 134.203125 200.761719 L 128.308594 203.316406 Z M 137.347656 122.777344 L 139.730469 121.996094 L 139.035156 121.300781 L 138.382813 121.628906 L 137.113281 120.972656 L 136.082031 121.089844 L 132.28125 122.566406 L 123.207031 125.097656 L 122.820313 125.40625 L 125.738281 126.375 L 129.117188 125.945313 L 131.625 124.773438 L 132.925781 124.316406 L 135.855469 123.335938 Z M 149.8125 127.273438 L 153.601563 125.945313 L 153.988281 125.214844 L 152.78125 124.773438 L 152.3125 125.003906 L 145.5 123.15625 L 141.355469 124.214844 L 138.613281 125.097656 L 132.492188 127.210938 L 132.472656 127.960938 L 132.9375 127.726563 L 134.160156 128.382813 L 134.625 128.148438 L 141.4375 130 L 145.792969 128.476563 Z M 132.28125 237.816406 L 132.703125 237.816406 L 132.703125 237.394531 L 132.28125 237.394531 Z M 134.183594 237.371094 L 132.914063 236.972656 L 132.949219 237.699219 L 134.160156 238.144531 L 134.625 237.914063 L 137.570313 239.011719 L 141.335938 239.835938 L 141.804688 239.601563 L 143.023438 240.257813 L 143.492188 240.023438 L 145.546875 240.660156 L 147.480469 239.929688 L 152.546875 238.027344 L 154.234375 237.183594 L 156.769531 236.128906 L 160.347656 234.800781 L 161.621094 234.441406 L 161.640625 233.683594 L 163.3125 233.175781 L 163.523438 233.175781 L 162.828125 232.480469 L 158.691406 231.578125 L 158.222656 231.8125 L 154.046875 230.734375 L 153.578125 230.96875 L 151.550781 230.367188 L 151.089844 230.96875 L 149.792969 231.421875 L 146.214844 232.753906 L 142.414063 234.230469 L 140.609375 235.039063 L 136.503906 236.339844 Z M 146.433594 218.753906 L 145.589844 219.597656 L 144.714844 219.992188 L 141.992188 221.355469 L 139.035156 223.042969 L 137.199219 223.613281 L 136.652344 224.160156 L 138.382813 224.636719 L 138.847656 224.402344 L 142.929688 225.386719 L 152.269531 227.109375 L 157.191406 224.730469 L 161.140625 222.347656 L 162.042969 221.355469 L 164.160156 220.558594 L 166.84375 218.617188 L 167.539063 217.605469 L 170.191406 215.78125 L 169.433594 215.019531 L 168.777344 215.347656 L 164.179688 214.269531 L 163.710938 214.503906 L 161.222656 213.847656 L 160.757813 214.082031 L 157.84375 213.425781 L 157.507813 213.597656 L 155.289063 213.3125 L 152.757813 214.597656 L 150.601563 216.417969 L 147.703125 218.332031 Z M 162.113281 203.78125 L 165.914063 199.558594 L 160.472656 198.746094 L 158.035156 198.769531 L 155.5 198.34375 L 154.445313 198.152344 L 151.78125 198.394531 L 150.929688 200.105469 L 146.457031 203.734375 L 145.585938 204.941406 L 142.71875 206.753906 L 142.097656 207.6875 L 142.835938 208.054688 L 143.484375 208.191406 L 154.488281 209.828125 L 155.5 209.742188 L 157.917969 207.175781 L 161.476563 204.667969 Z M 152.96875 117.921875 L 160.417969 115.242188 L 159.722656 114.546875 L 159.066406 114.875 L 157.800781 114.21875 L 156.945313 114.429688 L 145.570313 117.863281 L 143.046875 118.765625 L 142.648438 119.09375 L 144.523438 119.398438 L 145.179688 119.515625 L 146.023438 119.9375 L 150.226563 118.808594 Z M 158.546875 184.433594 L 160.566406 180.191406 L 159.488281 179.652344 L 158.269531 179.886719 L 154.777344 179.410156 L 153.886719 181.894531 L 152.546875 183.78125 L 150.929688 186.960938 L 148.582031 189.824219 L 145.792969 192.433594 L 144.863281 194.292969 L 146.007813 193.957031 L 149.167969 194.546875 L 151.503906 194.414063 L 153.925781 191.621094 L 156.183594 188.558594 Z M 165.78125 140.148438 L 166.328125 139.601563 L 159.523438 137.832031 L 155.285156 139.40625 L 150.65625 141.207031 L 146.835938 142.765625 L 141.992188 144.519531 L 139.457031 145.574219 L 139.035156 145.785156 L 138.339844 146.480469 L 146 148.296875 L 148.113281 147.921875 L 153.390625 145.363281 L 156.542969 143.601563 L 161.613281 141.5 L 164.144531 140.65625 Z M 164.367188 133.332031 L 173.019531 130.585938 L 173.425781 129.828125 L 171.964844 129.53125 L 170.277344 128.898438 L 166.710938 128.148438 L 166.246094 128.382813 L 165.023438 127.726563 L 164.554688 127.960938 L 163.523438 127.421875 L 162.886719 127.238281 L 159.089844 126.777344 L 148.957031 130.164063 L 147.207031 131.160156 L 147.902344 131.855469 L 148.558594 131.527344 L 149.78125 132.183594 L 150.246094 131.949219 L 151.828125 132.445313 L 155.316406 133.226563 L 160.3125 134.683594 L 162.875 133.890625 Z M 154.234375 125.523438 L 154.65625 125.523438 L 154.65625 125.097656 L 154.234375 125.097656 Z M 157.191406 60.929688 L 156.34375 60.929688 L 156.535156 71.390625 L 157 71.15625 L 160.355469 71.90625 L 160.566406 71.90625 L 161.601563 71.578125 L 166.6875 72.328125 L 166.898438 61.773438 L 165.359375 62.046875 L 157.402344 60.929688 Z M 158.644531 167.410156 L 156.90625 167.476563 L 156.558594 170.695313 L 156.019531 175.949219 L 156.25 176.414063 L 158.035156 176.394531 L 161.179688 176.933594 L 161.644531 176.699219 L 162.46875 174.914063 L 163.128906 173.441406 L 164.28125 167.96875 L 162.488281 168.066406 Z M 160.222656 58.148438 L 167.335938 58.9375 L 168.152344 52.699219 L 169.339844 48.921875 L 170.308594 46.789063 L 170.773438 44.582031 L 159.507813 42.734375 L 158.363281 45.964844 L 157.460938 49.679688 L 156.339844 54.386719 L 156.613281 58.054688 L 157.421875 57.648438 L 159.910156 58.304688 Z M 157.191406 74.441406 L 156.34375 74.441406 L 156.144531 81.96875 L 157.613281 82.25 L 159.996094 82.1875 L 165.0625 83.15625 L 167.742188 83.304688 L 167.765625 78.871094 L 167.140625 75.8125 L 166.289063 75.378906 L 165.820313 75.613281 L 158.035156 74.652344 Z M 156.441406 85.648438 L 156.941406 95.003906 L 157.90625 95.378906 L 163.289063 96.296875 L 163.753906 96.0625 L 166.6875 96.8125 L 167.742188 96.8125 L 167.953125 86.710938 L 163.710938 85.933594 L 162.488281 86.164063 L 156.703125 85.125 Z M 158.457031 98.503906 L 156.90625 98.664063 L 156.558594 101.457031 L 156.550781 106.472656 L 160.359375 105.714844 L 163.101563 104.625 L 163.523438 104.203125 L 167.164063 103.007813 L 167.785156 100.398438 L 166.898438 99.980469 L 164.179688 99.441406 L 163.710938 99.675781 L 161.222656 99.019531 L 160.757813 99.253906 L 158.667969 98.503906 Z M 166.617188 152.960938 L 167.070313 147.351563 L 165.632813 147.898438 L 161.210938 149.644531 L 159.921875 150.082031 L 156.980469 151.273438 L 156.769531 152.117188 L 158.457031 151.90625 L 161.617188 152.496094 L 162.496094 152.222656 L 166.265625 152.960938 Z M 175.394531 182.730469 L 175.816406 181.03125 L 173.230469 181.035156 L 169.855469 180.613281 L 168.167969 180.613281 L 164.601563 180.074219 L 163.859375 180.445313 L 163.171875 182.316406 L 161.6875 185.625 L 155.828125 193.679688 L 155.171875 194.992188 L 157.191406 195.390625 L 158.878906 195.390625 L 160.988281 195.8125 L 162.867188 195.695313 L 166.289063 196.351563 L 167.976563 196.117188 L 168.777344 195.085938 L 171.082031 191.585938 Z M 158.757813 155.34375 L 156.605469 154.9375 L 157.050781 164.203125 L 161.175781 164.679688 L 162.042969 164.359375 L 162.464844 164.761719 L 165.042969 164.488281 L 165.644531 162.039063 L 166.335938 156.074219 L 159.113281 155.167969 Z M 181.292969 202.570313 L 181.675781 201.300781 L 179.730469 200.800781 L 172.660156 199.972656 L 170.933594 200.152344 L 169.214844 199.773438 L 167.109375 201.933594 L 166.59375 203.375 L 164.671875 204.640625 L 162.042969 207.421875 L 161.507813 208.457031 L 159.089844 209.953125 L 158.703125 210.261719 L 160.332031 210.703125 L 160.800781 210.472656 L 162.257813 211.011719 L 163.945313 211.011719 L 165.820313 211.550781 L 166.289063 211.316406 L 171.753906 212.472656 L 173.875 212.132813 L 174.730469 211.316406 L 175.640625 210.125 Z M 163.753906 39.917969 L 172.199219 41.445313 L 172.640625 40.371094 L 174.605469 37.53125 L 176.9375 34.144531 L 177.242188 33.066406 L 182.027344 28.28125 L 181.675781 27.578125 L 181.019531 27.90625 L 178.953125 27.25 L 178.488281 27.484375 L 176.84375 26.828125 L 176.375 27.0625 L 174.5 26.523438 L 173.445313 26.328125 L 170.898438 26.667969 L 168.816406 28.34375 L 164.789063 33.277344 L 162.128906 36.699219 L 161.472656 38.355469 L 160.90625 39.863281 L 161.644531 39.492188 L 163.289063 40.148438 Z M 164.367188 122.566406 L 174.289063 119.1875 L 174.695313 118.417969 L 166.316406 116.371094 L 160.789063 117.984375 L 156.769531 119.613281 L 151.914063 120.878906 L 151.527344 121.183594 L 156.554688 122.59375 L 161.621094 123.402344 Z M 168.777344 168.253906 L 167.859375 168.335938 L 167.304688 169.636719 L 166.476563 175.125 L 165.660156 176.390625 L 165.9375 177.273438 L 167.742188 177.027344 L 167.957031 177.027344 L 171.121094 177.660156 L 173 177.542969 L 176.558594 178.132813 L 176.820313 177.871094 L 177.386719 175.539063 L 178.847656 169.257813 L 177.6875 169.332031 L 173.84375 168.675781 L 172.621094 168.910156 Z M 176.703125 110.136719 L 178.507813 109.480469 L 178.894531 109.175781 L 175.671875 108.402344 L 174.714844 108.265625 L 171.765625 109.128906 L 167.789063 110.539063 L 167.320313 110.957031 L 163.734375 112.011719 L 163.332031 112.339844 L 165.421875 112.855469 L 168.378906 112.855469 Z M 182.046875 134.183594 L 185.265625 133.121094 L 185.664063 132.792969 L 183.785156 132.488281 L 182.941406 132.277344 L 181.910156 132.183594 L 180.410156 131.433594 L 180.203125 131.808594 L 177.664063 131.417969 L 175.53125 132.371094 L 173.855469 133.058594 L 170.921875 134.039063 L 169.433594 134.597656 L 166.75 135.378906 L 166.203125 135.925781 L 168.355469 136.824219 L 168.820313 136.59375 L 170.488281 137.359375 L 173.832031 137.039063 L 176.425781 135.972656 Z M 162.128906 224.5625 L 161.738281 225.386719 L 159.523438 226.488281 L 157.613281 227.265625 L 156.558594 227.6875 L 156.144531 228.042969 L 163.101563 229.375 L 169.222656 230.226563 L 173.003906 228.023438 L 173.867188 227.652344 L 180.175781 222.949219 L 182.332031 221.871094 L 182.882813 220.726563 L 186.203125 218.644531 L 185.59375 217.730469 L 184.628906 217.34375 L 183.089844 217.28125 L 175.617188 216.015625 L 174.710938 215.898438 L 173.421875 216.191406 L 171.238281 218.644531 L 166.730469 221.480469 L 163.3125 224.273438 Z M 171.542969 156.339844 L 169.949219 156.527344 L 168.554688 164.996094 L 171.308594 165.53125 L 171.777344 165.300781 L 176.375 165.957031 L 176.703125 165.792969 L 179.445313 166.183594 L 180.742188 157.773438 L 179.988281 157.394531 L 176 156.855469 L 175.53125 157.089844 L 172.175781 156.339844 Z M 184.84375 60.929688 L 185.832031 55.664063 L 186.542969 53.398438 L 187.832031 50.257813 L 187.679688 48.875 L 185.898438 47.210938 L 184.535156 46.808594 L 176.429688 45.421875 L 174.746094 45.003906 L 173.832031 45.613281 L 173.019531 48.265625 L 172.175781 51.640625 L 171.550781 56.496094 L 171.828125 59.503906 L 174.5 59.453125 L 177.03125 59.875 L 181.441406 60.414063 L 181.910156 60.179688 Z M 185.242188 96.488281 L 186.085938 96.910156 L 185.660156 88.277344 L 184.820313 88.699219 L 182.332031 88.042969 L 181.863281 88.277344 L 178.71875 87.738281 L 177.03125 87.738281 L 174.730469 87.199219 L 174.394531 87.367188 L 172.175781 87.105469 L 172.15625 97.5625 L 172.621094 97.332031 L 174.5 97.871094 L 176.1875 97.871094 L 178.296875 98.292969 L 179.351563 98.472656 L 182.316406 97.714844 Z M 171.542969 101.457031 L 172.386719 101.457031 L 172.386719 100.613281 L 171.542969 100.613281 Z M 170.488281 150.851563 L 170.070313 153.347656 L 172.808594 153.597656 L 175.34375 153.597656 L 178.066406 154.132813 L 178.390625 153.972656 L 181.171875 154.367188 L 181.792969 146.382813 L 178.53125 145.878906 L 178.066406 146.113281 L 172.1875 145.425781 L 170.851563 146.0625 Z M 185.265625 74.441406 L 185.476563 74.441406 L 185.433594 73.800781 L 184.886719 64.015625 L 183.183594 63.574219 L 182.304688 63.839844 L 171.332031 62.617188 L 170.921875 72.683594 L 172.386719 72.960938 L 174.078125 72.960938 L 177.644531 73.5 L 178.109375 73.265625 Z M 184.863281 85.320313 L 186.085938 85.933594 L 185.6875 79.082031 L 185.679688 77.453125 L 183.597656 77.066406 L 183.132813 77.300781 L 174.730469 76.222656 L 174.40625 76.386719 L 171.753906 76.128906 L 171.539063 78.871094 L 172.175781 83.726563 L 172.386719 83.9375 L 174.078125 83.9375 L 177.453125 84.359375 L 179.988281 84.78125 L 181.675781 84.78125 L 184.207031 85.203125 Z M 172.808594 101.035156 L 173.230469 101.035156 L 173.230469 100.613281 L 172.808594 100.613281 Z M 174.601563 191.617188 L 171.648438 196.683594 L 173.230469 197.078125 L 175.765625 197.078125 L 178.488281 197.617188 L 178.953125 197.382813 L 183.132813 198.039063 L 183.597656 197.804688 L 185.078125 194.96875 L 187.191406 192.015625 L 187.914063 190.347656 L 187.679688 189.878906 L 188.925781 187.804688 L 189.726563 185.257813 L 186.039063 182.375 L 185.054688 181.882813 L 182.519531 181.882813 L 179.796875 181.34375 L 179.144531 181.667969 L 177.375 186.085938 L 176.820313 187.582031 Z M 174.921875 118.765625 L 175.34375 118.765625 L 175.34375 118.34375 L 174.921875 118.34375 Z M 196.699219 41.394531 L 197.941406 41.023438 L 198.847656 40.082031 L 197.007813 37.875 L 193.644531 35.875 L 192.800781 34.605469 L 190.023438 32.878906 L 188.429688 31.378906 L 186.742188 29.691406 L 185.171875 28.515625 L 182.941406 30.746094 L 181.367188 33.3125 L 177.789063 37.480469 L 175.859375 41.699219 L 176.1875 42.355469 L 176.84375 42.027344 L 179.332031 42.683594 L 179.796875 42.449219 L 181.863281 43.105469 L 182.332031 42.871094 L 184.742188 43.378906 L 186.929688 44.980469 L 187.796875 45.730469 L 189.449219 46.882813 L 193.242188 43.914063 Z M 192.851563 215.511719 L 193.695313 214.664063 L 194.761719 214.386719 L 195.605469 213.332031 L 198.109375 211.433594 L 197.800781 210.417969 L 194.53125 208.78125 L 191.015625 205.515625 L 188.25 203.511719 L 185.035156 201.542969 L 183.882813 203.855469 L 182.652344 205.144531 L 181.8125 206.839844 L 176.882813 213.058594 L 178.066406 213.003906 L 185.273438 214.242188 L 187.375 215.867188 L 188.007813 216.710938 L 188.617188 217.226563 L 189.90625 217.546875 Z M 192.230469 23.570313 L 199.3125 23.167969 L 198.984375 22.511719 L 198.535156 21.878906 L 194.976563 19.101563 L 193.683594 18.617188 L 192.789063 17.285156 L 190.117188 16.8125 L 189.070313 16.652344 L 188.316406 16.851563 L 185.261719 16.585938 L 183.785156 17.234375 L 178.53125 20.917969 L 177.03125 21.667969 L 175.492188 23.207031 L 176.609375 23.570313 L 178.910156 24.105469 L 179.375 23.875 L 181.441406 24.53125 L 181.910156 24.296875 L 183.363281 24.835938 L 184.414063 24.996094 L 186.09375 24.546875 L 190.445313 23.589844 Z M 189.484375 128.089844 L 193.613281 129.035156 L 193.191406 127.808594 L 189.515625 124.992188 L 187.804688 122.9375 L 185.121094 121.035156 L 180.199219 120.035156 L 177.230469 121.230469 L 166.824219 124.480469 L 166.570313 124.910156 L 170.488281 125.542969 L 178.589844 127.890625 L 179.769531 128.003906 L 183.578125 127.246094 L 185.265625 126.367188 Z M 181.253906 143.253906 L 182.097656 143.253906 L 181.890625 142.035156 L 179.777344 142.410156 L 179.390625 142.714844 L 181.042969 143.253906 Z M 181.253906 175.96875 L 180.410156 178.082031 L 181.253906 178.503906 L 182.300781 178.664063 L 183.183594 178.402344 L 185.609375 178.976563 L 186.570313 179.859375 L 191.011719 183 L 192.300781 178.9375 L 193.363281 176.015625 L 191.941406 174.234375 L 189.910156 173.210938 L 186.121094 170.203125 L 182.761719 169.535156 Z M 185.265625 115.390625 L 193.164063 118.054688 L 192.347656 116.832031 L 188.191406 113.804688 L 186.941406 111.945313 L 185.695313 111.109375 L 183.152344 110.742188 L 176.410156 112.921875 L 172.597656 114.125 L 172.191406 114.46875 L 177.238281 115.847656 L 182.308594 116.664063 Z M 183.382813 164.996094 L 182.894531 166.265625 L 185.300781 166.777344 L 188.183594 168.699219 L 191.210938 171 L 193.742188 172.6875 L 195.191406 167.949219 L 194.847656 164.976563 L 192.464844 163 L 190.308594 161.921875 L 186.5625 158.761719 L 184.789063 157.660156 L 184.183594 158.238281 Z M 186.320313 147.050781 L 185.515625 146.648438 L 184.714844 154.457031 L 186.164063 155.355469 L 190.542969 158.871094 L 192.832031 160.675781 L 195.832031 162.613281 L 196.425781 160.773438 L 197.136719 155.125 L 196.03125 154.019531 L 193.636719 152.820313 L 193.285156 152.117188 L 191.132813 150.554688 L 188.21875 148.742188 L 187.867188 148.039063 Z M 183.992188 104.789063 L 181.464844 105.679688 L 181.046875 106.476563 L 188.648438 108.164063 L 196.277344 110.628906 L 199.890625 111.679688 L 198.867188 110.148438 L 198.308594 109.394531 L 194.761719 106.734375 L 193.308594 106.195313 L 192.839844 106.429688 L 186.109375 104.40625 Z M 189.476563 130.652344 L 185.40625 129.226563 L 186.613281 130.839844 L 189.273438 132.699219 L 191.019531 134.589844 L 197.796875 136.695313 L 199.625 137.292969 L 205.011719 139.207031 L 203.933594 137.589844 L 203.417969 136.921875 L 199.507813 134.203125 L 193.308594 132.183594 Z M 187.804688 141.511719 L 186.109375 141.140625 L 185.710938 143.996094 L 187.726563 144.800781 L 188.042969 145.578125 L 190.746094 147.527344 L 193.214844 148.601563 L 193.53125 149.378906 L 196.230469 151.34375 L 197.511719 151.746094 L 198.230469 144.710938 L 197.296875 144.308594 L 195.417969 143.769531 L 194.953125 144.003906 Z M 187.796875 119.1875 L 187.164063 119.1875 L 187.890625 120.28125 L 192.886719 124.160156 L 193.757813 124.960938 L 200.984375 131.675781 L 205.070313 132.816406 L 209.320313 134.4375 L 212.492188 135.230469 L 211.765625 134.140625 L 209.265625 132.550781 L 208 130.859375 L 204.355469 128.300781 L 201.769531 125.394531 L 198.394531 122.863281 L 194.542969 121.363281 Z M 215.230469 37.339844 L 218.429688 37.996094 L 218.066406 36.910156 L 216.480469 36.117188 L 213.078125 33.203125 L 208.515625 29.578125 L 205.132813 27.476563 L 203.628906 26.945313 L 198.804688 26.417969 L 197.507813 26.734375 L 197.0625 26.40625 L 196.03125 26.523438 L 191.617188 27.0625 L 191.152344 26.828125 L 189.085938 27.484375 L 188.429688 27.15625 L 188.0625 27.894531 L 192.007813 30.601563 L 193.25 32.105469 L 194.546875 33.105469 L 201.277344 38.660156 L 202.574219 38.976563 L 203.628906 38.34375 L 204.472656 38.34375 L 205.503906 37.804688 L 205.972656 38.039063 L 208.90625 37.28125 L 215.238281 37.710938 Z M 192.890625 69.269531 L 188.660156 66.765625 L 189.0625 74.863281 L 189.105469 77.269531 L 190.542969 78.238281 L 193.285156 79.925781 L 193.636719 80.632813 L 195.183594 81.40625 L 196.453125 82.671875 L 198.28125 83.585938 L 198.746094 84.675781 L 199.617188 84.992188 L 200.65625 76.761719 L 200.363281 75.042969 L 198.703125 74.296875 L 198.214844 73.398438 L 195.796875 72 Z M 190.78125 81.511719 L 189.484375 80.773438 L 189.3125 81.410156 L 189.914063 88.742188 L 193.324219 91.203125 L 195.769531 93.152344 L 199.152344 96.097656 L 201.410156 97.660156 L 201.507813 97.023438 L 200.882813 94.703125 L 200.460938 91.328125 L 200.039063 88.792969 L 198.351563 87.105469 L 193.316406 83.191406 Z M 191.195313 92.921875 L 189.507813 92.078125 L 189.949219 98.207031 L 191.25 97.773438 L 193.675781 98.816406 L 194.550781 98.503906 L 194.554688 98.890625 L 199.828125 99.769531 L 198.984375 98.925781 L 197.527344 97.5625 L 195.375 96.488281 Z M 189.117188 59.519531 L 188.78125 63.6875 L 191.648438 65.433594 L 196.195313 69.082031 L 198.5625 70.851563 L 201.285156 72.65625 L 201.855469 72.371094 L 202.785156 69.796875 L 203.957031 67.453125 L 204.800781 65.761719 L 206.511719 64.167969 L 206.253906 63.652344 L 203.417969 61.773438 L 202.539063 61.046875 L 198.351563 57.554688 L 196.453125 55.652344 L 194.5625 54.664063 L 193.320313 53.027344 L 192.054688 52.183594 L 191.054688 52.847656 L 190.042969 56.0625 Z M 193.289063 112.394531 L 190.464844 111.859375 L 190.867188 112.667969 L 193.347656 114.273438 L 194.613281 115.960938 L 197.929688 118.34375 L 199.628906 120.101563 L 205.070313 121.839844 L 209.320313 123.457031 L 214.652344 124.6875 L 213.457031 122.742188 L 209.285156 119.90625 L 207.617188 117.828125 L 205.070313 116.117188 L 202.152344 114.933594 L 197.925781 114.164063 Z M 193.496094 129.320313 L 193.917969 129.320313 L 193.917969 128.898438 L 193.496094 128.898438 Z M 195.414063 189.183594 L 193.28125 188.390625 L 191.902344 191.613281 L 189.792969 195.835938 L 187.550781 198.765625 L 188.324219 200.90625 L 191.152344 202.871094 L 193.308594 203.949219 L 194.140625 204.957031 L 196.699219 206.878906 L 199.6875 209.039063 L 200.882813 207.84375 L 203.542969 204.296875 L 203.300781 203.8125 L 206.617188 198.347656 L 206.269531 197.050781 L 203.769531 195.882813 L 203.417969 195.179688 L 200.503906 193.367188 L 198.636719 192.027344 L 198.351563 191.378906 Z M 206.355469 194.421875 L 208.296875 195.273438 L 209.082031 191.164063 L 209.960938 189.691406 L 210.359375 188.210938 L 208.222656 186.519531 L 204.289063 183.679688 L 203.441406 182.84375 L 200.503906 181.125 L 198.316406 179.253906 L 196.996094 178.375 L 194.46875 185.214844 L 195.480469 186.566406 L 197.125 187.453125 L 200.84375 190.238281 L 203.347656 191.660156 L 203.664063 192.4375 Z M 201.320313 18.640625 L 197.753906 17.917969 L 198.859375 19.390625 L 200.460938 20.433594 L 205.09375 24.136719 L 206.335938 24.507813 L 207.222656 24.246094 L 211.796875 25.195313 L 213.089844 25.773438 L 213.972656 25.503906 L 216.425781 26.621094 L 217.351563 26.335938 L 219.878906 27.542969 L 220.761719 27.273438 L 223.679688 28.457031 L 226.0625 28.964844 L 225.675781 28.191406 L 224.5625 27.039063 L 220.761719 24.507813 L 219.027344 23.289063 L 218.183594 22.445313 L 216.539063 21.972656 L 211.863281 20.445313 L 210.941406 20.710938 L 208.515625 19.667969 L 207.636719 19.945313 L 205.972656 19.230469 L 205.503906 19.464844 L 201.75 18.386719 Z M 198.996094 168.53125 L 198.234375 171.347656 L 198.46875 172.570313 L 197.636719 175.671875 L 203.800781 180.101563 L 208.695313 183.78125 L 211.101563 185.386719 L 211.441406 185.089844 L 212.914063 180.191406 L 212.605469 178.050781 L 210.980469 177.144531 L 208.449219 175.453125 L 205.15625 173.089844 L 201.765625 170.152344 Z M 199.828125 23.78125 L 200.25 23.78125 L 200.25 23.355469 L 199.828125 23.355469 Z M 200.25 112.011719 L 200.671875 112.011719 L 200.671875 111.589844 L 200.25 111.589844 Z M 201.328125 157.933594 L 200.835938 157.6875 L 199.617188 164.785156 L 199.230469 165.511719 L 200.070313 165.941406 L 203.449219 168.046875 L 204.285156 168.910156 L 207.175781 170.816406 L 209.042969 172.15625 L 209.464844 173.003906 L 212.257813 175.011719 L 213.550781 175.757813 L 213.972656 174.914063 L 213.972656 173.226563 L 215.003906 168.792969 L 214.691406 167.507813 L 212.28125 165.628906 L 209.773438 164.457031 L 209.058594 163.296875 L 204.050781 159.71875 Z M 214.390625 115.421875 L 221.839844 116.742188 L 221.054688 115.566406 L 214.753906 110.175781 L 212.070313 109.691406 L 211.023438 109.53125 L 210.148438 109.800781 L 205.550781 108.730469 L 205.082031 108.960938 L 201.328125 107.886719 L 200.671875 108.210938 L 200.578125 108.445313 L 206.105469 113.046875 L 210.148438 114.449219 L 210.617188 114.21875 Z M 203.871094 148.628906 L 201.921875 147.421875 L 201.09375 154.863281 L 203.488281 156.058594 L 203.910156 156.902344 L 205.738281 157.816406 L 207.003906 159.082031 L 208.835938 160 L 209.257813 160.84375 L 210.953125 161.554688 L 213.515625 163.632813 L 214.375 164.445313 L 215.238281 164.785156 L 215.660156 163.515625 L 216.296875 160.773438 L 215.984375 156.941406 L 214.324219 156.199219 L 213.972656 155.496094 L 209.765625 152.878906 L 208.917969 152.050781 Z M 214.183594 57.976563 L 217.539063 56.078125 L 217.230469 55.089844 L 213.929688 52.613281 L 212.820313 51.453125 L 209.265625 48.960938 L 208.421875 47.695313 L 205.410156 45.5 L 203.441406 43.527344 L 201.726563 43.1875 L 198.351563 44.886719 L 197.464844 45.605469 L 194.160156 48.378906 L 193.132813 49.652344 L 193.402344 50.1875 L 197.894531 53.871094 L 198.5625 54.597656 L 199.722656 55.679688 L 203.265625 57.773438 L 203.910156 58.960938 L 205.738281 59.875 L 207.636719 61.808594 L 208.917969 61.425781 L 210.992188 59.570313 Z M 207.253906 80.230469 L 204.214844 78.371094 L 203.621094 81.828125 L 203.957031 88.183594 L 205.199219 89.460938 L 208 91.175781 L 208.894531 92.105469 L 210.632813 93.3125 L 213.164063 95.003906 L 216.109375 97.132813 L 216.503906 92.171875 L 216.925781 88.792969 L 217.28125 87.683594 L 212.28125 84.148438 L 210.648438 83.164063 Z M 205.121094 92.09375 L 204.097656 91.691406 L 204.875 98.292969 L 205.59375 100.765625 L 208.460938 101.363281 L 208.925781 101.128906 L 212.070313 101.667969 L 215.449219 101.878906 L 215.632813 99.871094 L 214.464844 99.488281 L 214.109375 98.699219 L 212.070313 97.238281 L 208.875 95.234375 Z M 209.757813 126.3125 L 205.316406 125.097656 L 205.644531 125.753906 L 208.910156 128.019531 L 210.175781 129.707031 L 213.929688 132.613281 L 214.5625 133.75 L 219.125 137.09375 L 225.347656 139.125 L 227.035156 139.78125 L 227.4375 139.578125 L 233.707031 141.667969 L 233.269531 140.488281 L 229.953125 137.914063 L 220.316406 129.246094 L 216.5 128.511719 L 212.316406 126.90625 L 211.433594 127.175781 Z M 209.757813 137.292969 L 206.582031 136.496094 L 209.960938 139.875 L 211.542969 141.246094 L 218.609375 143.726563 L 223.046875 144.941406 L 221.074219 142.570313 L 220.09375 142.199219 L 217.515625 139.667969 Z M 214.382813 150.070313 L 208.273438 148.320313 L 208.105469 148.609375 L 213.167969 151.992188 L 216.8125 154.722656 L 217.222656 151.042969 Z M 210.617188 67.167969 L 209.324219 66.800781 L 208.0625 69.375 L 207.230469 70.289063 L 204.953125 75.503906 L 206.792969 76.972656 L 208.460938 77.722656 L 209.304688 78.988281 L 211.015625 79.941406 L 215.652344 83.78125 L 217.769531 84.570313 L 219.132813 80.597656 L 220.789063 78.089844 L 222.183594 77.183594 L 221.480469 75.878906 L 219.398438 74.710938 L 218.566406 73.460938 L 214.546875 70.84375 L 213.902344 69.65625 L 212.070313 68.742188 Z M 213.167969 28.71875 L 211.015625 28 L 210.628906 28.726563 L 212.703125 29.691406 L 214.371094 31.472656 L 216.527344 32.550781 L 219.214844 34.542969 L 219.613281 35.382813 L 223.152344 37.472656 L 224.789063 39.183594 L 226.980469 40.128906 L 227.90625 39.855469 L 229.582031 40.726563 L 238.453125 43.582031 L 239.328125 43.300781 L 244.785156 45.359375 L 247.207031 45.878906 L 246.382813 44.640625 L 245.246094 43.503906 L 240.53125 40.359375 L 236.769531 36.867188 L 235.148438 36.164063 L 234.539063 34.988281 L 233.179688 34.121094 L 229.605469 32.988281 L 226.660156 31.894531 L 226.191406 32.128906 L 220.761719 30.230469 L 219.878906 30.496094 L 217.351563 29.292969 L 216.46875 29.574219 L 213.570313 28.519531 Z M 213.589844 118.21875 L 211.167969 117.410156 L 211.953125 118.589844 L 213.960938 120.390625 L 221.125 126.691406 L 222.832031 127.25 L 227.476563 128.097656 L 229.800781 128.898438 L 234.660156 129.71875 L 236.769531 130.585938 L 237.085938 130.585938 L 236.242188 129.078125 L 234.234375 127.210938 L 230.511719 124.515625 L 226.828125 120.667969 L 222.015625 119.707031 L 221.546875 119.9375 L 220 119.421875 L 215.324219 118.515625 L 213.992188 118.015625 Z M 209.75 40.652344 L 205.527344 41.511719 L 205.234375 41.738281 L 212.019531 47.636719 L 214.035156 48.835938 L 214.878906 50.101563 L 218.15625 52.371094 L 219.449219 54.109375 L 220.300781 54.621094 L 226.152344 53.605469 L 227.902344 53.339844 L 231.914063 53.542969 L 233.789063 53.425781 L 240.054688 54.75 L 239.617188 53.515625 L 238.003906 52.597656 L 233.601563 49.53125 L 230.386719 46.710938 L 226.167969 43.332031 L 224.125 42.027344 L 222.859375 41.605469 L 222.390625 41.839844 L 217.371094 40.761719 L 217.09375 40.898438 Z M 215.722656 61.5 L 214.804688 61.839844 L 213.972656 62.617188 L 211.980469 64.074219 L 211.664063 64.941406 L 213.855469 66.183594 L 214.511719 67.496094 L 218.132813 70.070313 L 219.671875 71.0625 L 221.242188 72.996094 L 224.09375 74.929688 L 225.371094 75.285156 L 226.753906 74.25 L 227.839844 74.167969 L 229.585938 73.222656 L 232.945313 72.421875 L 233.414063 72.65625 L 234.867188 72.117188 L 236.652344 72.140625 L 236.886719 71.671875 L 235.5625 70.789063 L 234.71875 69.523438 L 233.394531 68.492188 L 227.484375 63.425781 L 225.0625 61.964844 L 224.527344 60.929688 L 222.007813 59.160156 L 220.300781 58.777344 Z M 242.667969 33.550781 L 245.925781 34.679688 L 245.140625 29.199219 L 241.625 28.421875 L 238.246094 27.15625 L 230.445313 25.40625 L 228.535156 24.835938 L 226.003906 23.992188 L 224.410156 23.96875 L 224.640625 24.433594 L 227.527344 26.445313 L 229.730469 27.777344 L 230.128906 28.613281 L 233.085938 30.765625 L 233.742188 31.308594 L 234.257813 31.050781 L 239.734375 32.996094 L 242.679688 33.910156 Z M 242.46875 71.695313 L 246.964844 71.332031 L 247.324219 68.527344 L 247.941406 62.410156 L 247.695313 60.210938 L 244.378906 59.171875 L 240.144531 57.554688 L 235.078125 56.707031 L 235.082031 57.109375 L 228.324219 56.714844 L 227.269531 56.917969 L 225.390625 57.457031 L 224.738281 57.128906 L 224.316406 57.976563 L 226.671875 59.546875 L 229.714844 61.964844 L 230.496094 63.191406 L 233.507813 65.386719 L 235.585938 67.515625 L 239.265625 70.335938 L 241.433594 71.8125 Z M 224.519531 109.949219 L 219.25 110.535156 L 219.578125 111.398438 L 224.550781 114.863281 L 225.804688 116.722656 L 227.691406 117.710938 L 230.859375 118.34375 L 231.070313 118.34375 L 232.96875 118.339844 L 240.988281 117.921875 L 240.777344 118.34375 L 242.65625 118.25 L 245.632813 117.5 L 246.6875 116.867188 L 246.363281 116 L 244.273438 113.875 L 240.660156 111.34375 L 239.722656 109.902344 L 236.367188 107.273438 L 235.902344 107.039063 L 233.085938 108.402344 L 228.769531 109.808594 L 228.304688 109.574219 L 225.398438 110.21875 Z M 224.949219 141.984375 L 224.632813 141.984375 L 225.445313 143.515625 L 229.148438 146.300781 L 229.980469 147.363281 L 233.824219 148.675781 L 240.539063 150.746094 L 244.367188 151.695313 L 245 151.695313 L 242.605469 148.902344 L 240 147.273438 L 239.722656 146.628906 L 238.5625 145.46875 L 237.609375 145.75 L 233.414063 144.191406 L 232.945313 144.425781 L 229.898438 143.484375 L 227.839844 142.679688 Z M 226.003906 29.269531 L 226.847656 29.269531 L 226.847656 28.84375 L 226.003906 28.84375 Z M 244.207031 83.101563 L 245.125 80.179688 L 240.988281 80.773438 L 241 80.40625 L 235.5 81.617188 L 232.378906 83.136719 L 229.589844 84.992188 L 228.957031 86.261719 L 228.035156 88.988281 L 227.253906 91.113281 L 226.371094 100.296875 L 229.605469 99.003906 L 232.914063 97.09375 L 236.734375 93.742188 L 237.03125 93.21875 L 239.195313 91.507813 L 239.816406 90.234375 L 241.742188 87.351563 Z M 230.648438 131.855469 L 226.484375 131.089844 L 227.566406 132.53125 L 229.582031 134.320313 L 236.730469 140.839844 L 240.050781 143.234375 L 246.894531 144.5625 L 253.652344 146.164063 L 254.761719 145.839844 L 253.867188 144.941406 L 251.753906 142.832031 L 249.382813 141.28125 L 241.710938 134.199219 L 239.753906 133.65625 L 238.875 133.929688 L 237.210938 133.214844 L 236.746094 133.449219 L 233.179688 132.488281 Z M 246.476563 56.285156 L 247.746094 56.707031 L 247.933594 55.652344 L 247.3125 49.039063 L 239.324219 46.480469 L 235.585938 45.5625 L 231.703125 44.042969 L 231.492188 44.042969 L 232.632813 45.5625 L 237.570313 49.234375 L 242.429688 53.125 L 244.777344 54.53125 L 245.421875 55.441406 Z M 243.40625 121.488281 L 231.609375 121.476563 L 232.21875 122.390625 L 234.496094 124.050781 L 235.089844 125.03125 L 238.011719 127.304688 L 239.933594 128.898438 L 240.777344 129.742188 L 241.675781 130.792969 L 245.191406 131.761719 L 245.65625 131.527344 L 250.699219 132.277344 L 251.332031 132.277344 L 252.367188 131.949219 L 254.078125 132.25 L 255.335938 131.90625 L 256.21875 132.167969 L 258.699219 131.527344 L 259.164063 131.761719 L 260.808594 131.105469 L 261.277344 131.335938 L 262.582031 130.859375 L 261.738281 130.015625 L 260.410156 128.476563 L 256.609375 125.523438 L 255.320313 123.925781 L 252.410156 121.628906 L 250.382813 119.71875 L 247.765625 120.550781 L 247.207031 120.644531 Z M 243.5625 39.277344 L 246.847656 41.652344 L 246.230469 37.902344 L 244.371094 36.832031 L 240.140625 36.074219 L 239.511719 35.601563 L 241.070313 37.546875 Z M 246.570313 147.722656 L 244.519531 146.960938 L 246.148438 149.410156 L 250.398438 152.308594 L 251.171875 153.519531 L 252.808594 154.265625 L 257.035156 155.035156 L 259.121094 155.824219 L 259.585938 155.589844 L 263.363281 156.800781 L 267.34375 157.558594 L 266.414063 156.164063 L 265.941406 155.578125 L 262.527344 152.910156 L 260.855469 150.945313 L 259.027344 149.820313 L 253.625 149.054688 Z M 248.988281 134.902344 L 246.265625 134.808594 L 246.222656 135.023438 L 250.105469 137.980469 L 250.710938 138.964844 L 253.632813 141.234375 L 257.113281 144.777344 L 259.984375 147.023438 L 260.859375 146.734375 L 265.023438 147.363281 L 266.320313 147.050781 L 266.765625 147.378906 L 268.640625 147.261719 L 272.207031 146.722656 L 272.675781 146.957031 L 274.742188 146.300781 L 275.207031 146.535156 L 278.679688 145.175781 L 278.351563 144.519531 L 276.851563 143.769531 L 275.574219 141.867188 L 272.292969 139.601563 L 270.941406 137.859375 L 268.03125 135.558594 L 266.066406 133.710938 L 260.433594 135.136719 L 259.964844 134.902344 L 256.65625 135.523438 L 254.5 135.253906 L 253.253906 135.558594 Z M 244 102.019531 L 239.070313 105.46875 L 239.390625 106.773438 L 243.152344 109.765625 L 249.898438 115.683594 L 255.355469 112.921875 L 256.398438 112.011719 L 256.820313 111.589844 L 259.25 109.164063 L 256.398438 106.101563 L 255.367188 105.164063 L 248.613281 99.253906 L 247.796875 98.644531 Z M 254.5625 92.019531 L 253.023438 90.480469 L 251.851563 92.824219 L 250.253906 94.796875 L 250.117188 95.34375 L 249.671875 96.605469 L 251.144531 98.410156 L 254.046875 100.722656 L 256.171875 103.070313 L 258.414063 104.648438 L 260.742188 106.855469 L 262.140625 105.804688 L 264.84375 101.667969 L 264.519531 100.800781 Z M 254.523438 21.152344 L 253.867188 20.824219 L 253.882813 21.457031 L 254.921875 26.734375 L 257.78125 29.441406 L 260.976563 32 L 261.253906 32.644531 L 262.921875 34.429688 L 266.253906 36.597656 L 265.730469 33.28125 L 266.015625 32.410156 L 265.890625 31.328125 L 262.101563 28.386719 L 260.835938 26.699219 L 256.195313 23.296875 L 255.84375 22.253906 Z M 254.710938 146.207031 L 255.132813 146.207031 L 255.132813 145.785156 L 254.710938 145.785156 Z M 257.914063 32.949219 L 255.554688 31.378906 L 255.605469 32.019531 L 255.648438 34.101563 L 256.304688 37.523438 L 257.476563 38.460938 L 260.398438 40.734375 L 260.652344 41.300781 L 267.585938 47.421875 L 267.957031 47.421875 L 267.324219 42.136719 L 266.742188 41.089844 L 264 38.34375 L 260.808594 36.117188 L 259.777344 35.179688 Z M 258.335938 82.34375 L 256.148438 80.886719 L 255.765625 82.039063 L 255.765625 83.726563 L 255.132813 84.992188 L 254.261719 88.160156 L 255.648438 89.027344 L 256.332031 90.261719 L 260.6875 93.660156 L 261.296875 94.789063 L 265.019531 97.777344 L 265.949219 98.398438 L 266.742188 96.8125 L 268.21875 92.804688 L 267.890625 91.09375 L 266.953125 90.269531 L 266.308594 89.992188 L 264.992188 88.222656 L 261.347656 85.664063 Z M 268.410156 56.804688 L 269.234375 57.214844 L 268.578125 51.84375 L 261.328125 45.570313 L 259.609375 43.496094 L 256.398438 41.089844 L 256.472656 41.3125 L 257.03125 44.886719 L 257.488281 47.109375 L 258.511719 47.632813 L 262.191406 51.46875 L 265.753906 53.976563 L 266.4375 55.207031 Z M 261.886719 54.175781 L 257.519531 50.648438 L 257.875 55.019531 L 258.359375 57.703125 L 260.316406 58.996094 L 261.769531 61.175781 L 265.476563 63.886719 L 266.699219 65.617188 L 270.054688 67.835938 L 269.699219 62.195313 L 269.234375 60.804688 L 268.011719 60.128906 L 266.039063 57.75 Z M 258.933594 61.773438 L 257.898438 61.257813 L 258.441406 69.175781 L 261.675781 71.90625 L 264.976563 74.601563 L 268.410156 78.332031 L 270.089844 79.171875 L 270.492188 72.042969 L 261.464844 64.308594 Z M 258.738281 72.667969 L 257.648438 72.25 L 256.875 77.660156 L 258.394531 79.328125 L 260.894531 80.921875 L 262.160156 82.609375 L 265.78125 85.183594 L 266.582031 86.789063 L 269.105469 88.46875 L 269.835938 82.617188 L 266.714844 80.453125 Z M 259.636719 114.6875 L 253.445313 118.554688 L 253.78125 119.417969 L 256.398438 121.300781 L 258.796875 124.09375 L 265.03125 129.414063 L 265.5 129.648438 L 268.429688 128.476563 L 268.449219 127.71875 L 270.09375 127.3125 L 275.246094 123.261719 L 272.019531 120.035156 L 270.984375 119.09375 L 267.796875 116.867188 L 265.519531 114.417969 L 262.308594 112.011719 Z M 263.574219 150.429688 L 264 150.429688 L 264 150.007813 L 263.574219 150.007813 Z M 266.109375 37.289063 L 266.53125 37.289063 L 266.53125 36.867188 L 266.109375 36.867188 Z M 271.015625 106.808594 L 268.464844 104.53125 L 267.550781 105.140625 L 266.453125 106.71875 L 264.882813 110.117188 L 266.316406 112.046875 L 269.488281 114.335938 L 272.726563 117.761719 L 276.449219 120.847656 L 277.539063 120.515625 L 280.933594 115.417969 Z M 281.917969 51.316406 L 282.574219 51.640625 L 282.550781 51.007813 L 281.457031 45.160156 L 280.25 44.464844 L 276.8125 41.785156 L 275.546875 40.09375 L 271.925781 37.523438 L 271.175781 36.023438 L 270.074219 35.289063 L 270.839844 40.898438 L 271.808594 42.355469 L 276.453125 45.699219 L 277.722656 47.386719 L 281.476563 50.292969 Z M 272.65625 46.113281 L 271.300781 45.703125 L 272.3125 51.898438 L 276.464844 54.953125 L 277.019531 56.0625 L 281.457031 59.515625 L 282.773438 61.285156 L 284.007813 61.859375 L 283.367188 56.492188 L 282.667969 55.253906 L 281.402344 54.410156 L 281.054688 53.875 L 276.492188 49.832031 L 276.210938 49.320313 Z M 280.644531 111.695313 L 282.0625 112.496094 L 283.066406 109.28125 L 284.242188 106.3125 L 283.929688 105.027344 L 281.375 103.367188 L 281.058594 102.839844 L 276.921875 99.214844 L 273.953125 96.273438 L 271.753906 94.808594 L 271.203125 95.757813 L 271.484375 96.636719 L 271.101563 98.304688 L 269.511719 101.753906 L 271.269531 102.957031 L 271.953125 104.191406 L 276.308594 107.589844 L 276.917969 108.71875 Z M 273.074219 59.664063 L 273.394531 61.171875 L 282.785156 69.796875 L 284.035156 70.71875 L 285.277344 71.1875 L 284.550781 66.101563 L 275.226563 57.425781 L 272.484375 55.441406 L 272.519531 55.667969 Z M 272.441406 150.21875 L 264.546875 150.597656 L 265.8125 152.285156 L 266.332031 152.894531 L 269.253906 155.167969 L 272.441406 158.238281 L 273.476563 158.777344 L 273.941406 158.546875 L 280.367188 159.527344 L 283.183594 159.390625 L 285.742188 159.699219 L 287 159.347656 L 287.878906 159.613281 L 291.207031 158.96875 L 291.671875 159.199219 L 293.128906 158.660156 L 293.445313 158.34375 L 291.710938 156.613281 L 287.933594 153.636719 L 284.496094 149.914063 L 281.503906 147.96875 L 278.585938 149.492188 L 278.117188 149.257813 L 274.222656 150.195313 Z M 276.066406 66.722656 L 273.53125 65.035156 L 274.035156 71.71875 L 277.8125 75.53125 L 281.375 78.039063 L 281.910156 79.195313 L 286.109375 82.175781 L 285.738281 76.550781 L 285.242188 75.121094 L 283.230469 73.691406 L 281.558594 71.609375 L 278.46875 69.128906 Z M 274.363281 86.589844 L 273.496094 86.261719 L 272.410156 91.960938 L 276.515625 94.851563 L 277.78125 96.542969 L 281.402344 99.113281 L 282.175781 100.660156 L 284.921875 102.621094 L 285.535156 100.402344 L 285.210938 96.574219 L 276.472656 88.699219 Z M 276.488281 77.277344 L 274.304688 75.824219 L 273.699219 78.027344 L 273.953125 83.1875 L 276.488281 84.875 L 277.019531 86.039063 L 281.425781 89.460938 L 282.574219 91.113281 L 283.242188 91.632813 L 285.792969 93.332031 L 286.433594 86.039063 L 282.847656 83.453125 L 281.578125 81.765625 L 278.46875 79.257813 Z M 275.820313 128.476563 L 274.824219 129.171875 L 273.449219 130.035156 L 269.0625 132.488281 L 269.402344 133.347656 L 271.851563 135.105469 L 281.035156 143.695313 L 283.21875 142.90625 L 285.105469 141.773438 L 285.949219 140.71875 L 288.617188 138.867188 L 290.460938 136.660156 L 287.945313 135.054688 L 286.488281 132.875 L 282.789063 130.128906 L 281.578125 128.625 L 278.164063 126.039063 L 277.695313 126.273438 L 277.085938 127.210938 Z M 280.886719 41.511719 L 281.308594 41.511719 L 281.308594 41.089844 L 280.886719 41.089844 Z M 283.839844 62.195313 L 284.261719 62.195313 L 284.261719 61.773438 L 283.839844 61.773438 Z M 288.0625 121.722656 L 283.949219 118.390625 L 282.019531 121.464844 L 280.476563 123.621094 L 280.753906 125.003906 L 285.78125 128.773438 L 288.351563 131.6875 L 291.210938 134.046875 L 292.128906 134.40625 L 294.066406 131.664063 L 295.609375 128.582031 L 293.785156 127.304688 L 292.222656 125.300781 Z M 287.027344 50.28125 L 286.210938 49.871094 L 287.132813 56.09375 L 290.800781 58.871094 L 292.472656 60.835938 L 293.550781 61.773438 L 297.019531 64.015625 L 296.117188 58.605469 L 294.933594 57.304688 L 292.464844 55.753906 L 290.355469 53.441406 L 287.4375 51.152344 Z M 288.71875 60.414063 L 287.289063 59.699219 L 288.378906 66.234375 L 292.03125 68.867188 L 292.640625 69.996094 L 296.992188 73.394531 L 297.539063 74.535156 L 298.226563 74.878906 L 297.277344 68.246094 L 296.632813 67.429688 L 292.050781 63.980469 L 291.015625 63.039063 Z M 288.71875 109.386719 L 287.421875 109.011719 L 286.90625 110.925781 L 287.179688 111.804688 L 285.542969 115.179688 L 285.855469 116.46875 L 287.945313 118.589844 L 291.554688 121.125 L 292.496094 122.566406 L 295.835938 125.214844 L 296.753906 125.828125 L 297.253906 124.488281 L 297.023438 124.023438 L 298.574219 118.984375 L 297.878906 117.679688 L 296.738281 116.5625 L 292.050781 112.949219 L 291.015625 112.011719 Z M 289.5625 70.125 L 288.585938 69.757813 L 289.265625 75.082031 L 292.988281 78.925781 L 297.539063 82.976563 L 299.039063 83.726563 L 299.078125 80.136719 L 298.507813 78.421875 L 292.988281 73.859375 Z M 290.417969 100.917969 L 289.503906 100.308594 L 288.90625 102.089844 L 288.359375 106.007813 L 291.859375 108.636719 L 292.609375 110.136719 L 297.023438 113.046875 L 297.773438 114.546875 L 299.203125 115.5 L 299.949219 109.679688 Z M 291.25 80.253906 L 289.5625 79.410156 L 290.078125 86.070313 L 293.410156 89.480469 L 297.523438 93.132813 L 300.058594 94.820313 L 299.527344 88.148438 L 297.167969 85.523438 L 294.089844 83.058594 Z M 291.25 90.386719 L 289.5625 89.542969 L 290.046875 97.488281 L 291.957031 98.738281 L 292.640625 99.96875 L 296.992188 103.367188 L 297.675781 104.601563 L 299.648438 106.195313 L 300.304688 106.523438 L 300.472656 98.632813 L 298.464844 97.386719 L 297.199219 95.695313 L 294.089844 93.191406 Z M 289.609375 143.113281 L 289.277344 143.890625 L 287.492188 144.792969 L 286.585938 145.785156 L 284.988281 146.382813 L 284.957031 146.902344 L 287.640625 149.585938 L 289.589844 151.136719 L 296.203125 157.214844 L 298.832031 156.390625 L 301.296875 154.925781 L 302.988281 153.234375 L 303.402344 152.679688 L 304.757813 152.023438 L 305.667969 150.683594 L 304.652344 149.332031 L 303.164063 148.507813 L 302.480469 147.273438 L 298.078125 143.851563 L 297.136719 142.410156 L 293.785156 139.78125 L 293.316406 139.546875 L 290.804688 142.441406 Z M 306.832031 147.976563 L 307.691406 148.304688 L 309.59375 145.574219 L 310.910156 143.046875 L 311.046875 142.3125 L 309.808594 141.605469 L 307.777344 139.199219 L 304.265625 136.210938 L 298.785156 131.558594 L 297.523438 133.660156 L 296.199219 136.324219 L 295.261719 137.730469 L 302.164063 143.796875 L 302.4375 144.308594 Z M 299.039063 84.148438 L 299.460938 84.148438 L 299.460938 83.726563 L 299.039063 83.726563 Z M 299.882813 95.125 L 300.304688 95.125 L 300.304688 94.703125 L 299.882813 94.703125 Z M 302.675781 64.171875 L 300.222656 62.128906 L 301.148438 67.894531 L 303.042969 70.269531 L 306.417969 72.800781 L 308.113281 74.878906 L 311.003906 76.703125 L 309.84375 68.890625 L 308.074219 69.332031 L 305.488281 66.59375 L 303.472656 65.152344 Z M 302.988281 73.320313 L 301.914063 72.25 L 302.761719 79.308594 L 307.246094 82.554688 L 308.597656 84.296875 L 311.898438 86.761719 L 312.832031 87.128906 L 311.765625 80.972656 L 307.511719 77.609375 L 307.230469 77.09375 Z M 304.433594 123.644531 L 302.648438 122.238281 L 302.183594 122.472656 L 301.148438 125.097656 L 300.3125 127.84375 L 300.613281 129.566406 L 309.871094 138.03125 L 311.375 138.84375 L 311.871094 139.789063 L 312.359375 139.546875 L 312.875 137.574219 L 312.640625 137.109375 L 313.8125 133.753906 L 313.464844 131.628906 L 312.359375 130.492188 L 307.671875 126.882813 L 306.636719 125.945313 Z M 312.386719 90.765625 L 302.671875 82.332031 L 303.351563 87.828125 L 305.65625 90.320313 L 311.867188 95.679688 L 313.753906 97.191406 L 313.03125 91.527344 Z M 307.144531 94.40625 L 303.535156 92.019531 L 303.894531 97.238281 L 304.359375 98.796875 L 310.171875 104.132813 L 313.160156 107.039063 L 314.660156 107.789063 L 314.691406 103.355469 L 314.128906 101.21875 L 313.390625 100.402344 L 312.902344 99.546875 L 308.628906 96.640625 Z M 304.332031 113.613281 L 303.421875 113.261719 L 302.722656 119.011719 L 306.398438 121.828125 L 308.109375 123.882813 L 311.484375 126.417969 L 313.179688 128.507813 L 314.445313 128.898438 L 315.167969 122.757813 L 313.390625 121.933594 L 311.28125 119.613281 L 310.261719 118.648438 Z M 305.175781 103.070313 L 304.316406 102.726563 L 303.703125 108.421875 L 304.003906 110.140625 L 307.648438 112.773438 L 308.257813 113.902344 L 312.613281 117.300781 L 313.140625 118.46875 L 315.242188 119.746094 L 314.722656 111.792969 L 312.800781 109.605469 L 309.710938 107.121094 L 306.730469 104.179688 Z M 310.859375 76.972656 L 311.28125 76.972656 L 311.28125 76.550781 L 310.859375 76.550781 Z M 322.492188 83.210938 L 321.878906 82.902344 L 322.933594 88.707031 L 324.601563 89.542969 L 327.519531 91.824219 L 328.492188 92.207031 L 327.78125 89 L 326.730469 86.386719 L 325.84375 85.839844 Z M 323.144531 94.074219 L 323.667969 96.238281 L 325.421875 97.660156 L 326.722656 98.390625 L 331.226563 101.457031 L 331.121094 100.824219 L 329.996094 97.519531 L 329.574219 96.671875 L 328.777344 96.296875 L 327.933594 95.03125 L 326.230469 93.976563 L 323.347656 92.054688 L 323.429688 93.203125 Z M 331.121094 90.058594 L 331.542969 90.058594 L 331.542969 89.636719 L 331.121094 89.636719 Z M 334.078125 100.613281 L 334.5 100.613281 L 334.5 100.191406 L 334.078125 100.191406 Z M 334.078125 100.613281 "/>
</g>
</svg>
