<?xml version="1.0" encoding="UTF-8"?>
<svg xmlns="http://www.w3.org/2000/svg" xmlns:xlink="http://www.w3.org/1999/xlink" width="360pt" height="254pt" viewBox="0 0 360 254" version="1.1">
<g id="surface189">
<path style=" stroke:none;fill-rule:evenodd;fill:rgb(99.998474%,99.998474%,99.998474%);fill-opacity:1;" d="M 7.945313 197.382813 L 7.179688 199.148438 L 8.484375 199.582031 L 11.527344 200.019531 L 13.023438 200.574219 L 13.503906 200.332031 L 19.511719 201.679688 L 22.230469 202.121094 L 22.605469 207.621094 L 22.613281 208.878906 L 18.691406 208.089844 L 12.175781 206.316406 L 9.535156 206.636719 L 8.484375 208.492188 L 8.144531 209.167969 L 10.925781 209.652344 L 20.433594 211.535156 L 22.390625 212.1875 L 23.070313 212.507813 L 23.476563 216.3125 L 23.480469 218.4375 L 18.695313 217.183594 L 14.761719 216.652344 L 13.183594 218.6875 L 12.828125 219.574219 L 17.175781 220.660156 L 22.605469 221.527344 L 23.910156 221.964844 L 24.339844 223.652344 L 26.089844 223.320313 L 27.300781 222.550781 L 35.664063 223.609375 L 38.25 234.128906 L 38.621094 237.453125 L 39.554688 240.648438 L 40.421875 240.648438 L 46.289063 237.171875 L 50.066406 235.394531 L 49.207031 232.390625 L 50.851563 232.390625 L 56.910156 233.160156 L 57.804688 232.828125 L 58.675781 233.695313 L 59.109375 235.867188 L 61.117188 243.230469 L 62.996094 242.289063 L 64.105469 241.734375 L 64.898438 241.339844 L 62.804688 233.480469 L 63.671875 233.261719 L 64.324219 233.261719 L 68.453125 233.914063 L 70.191406 233.695313 L 70.40625 233.695313 L 75.128906 234.414063 L 76.734375 239.5625 L 77.539063 245.980469 L 79.109375 245.492188 L 81.574219 244.359375 L 81.214844 240.9375 L 80.164063 237.824219 L 79.605469 234.40625 L 83.003906 234.953125 L 83.90625 234.667969 L 88.730469 235.160156 L 89.226563 237.808594 L 91.265625 245.851563 L 93.449219 245.054688 L 95 243.910156 L 92.789063 235.304688 L 94.765625 235.773438 L 96.894531 235.53125 L 101.285156 236.207031 L 103.21875 235.867188 L 103.433594 235.867188 L 106.148438 236.488281 L 106.695313 237.390625 L 108.503906 244.851563 L 113.851563 241.878906 L 116.042969 241.136719 L 118.46875 239.566406 L 117.625 235.527344 L 121.6875 234.566406 L 122.773438 233.914063 L 123.445313 233.792969 L 129.492188 231.878906 L 131.257813 231.15625 L 136.679688 229.351563 L 140 227.765625 L 148.1875 224.078125 L 150.378906 223.339844 L 154.710938 221.058594 L 155.558594 220.320313 L 158.644531 219.257813 L 159.554688 218.332031 L 165.359375 215.445313 L 166.945313 214.421875 L 167.8125 213.554688 L 169.800781 212.644531 L 173.710938 210.035156 L 175.199219 209.207031 L 176.222656 208.492188 L 177.09375 207.40625 L 178.527344 206.925781 L 178.925781 206.078125 L 181.164063 204.871094 L 185.105469 201.433594 L 187.085938 201.757813 L 189.035156 201.589844 L 189.9375 201.867188 L 194.320313 201.386719 L 198.289063 200.476563 L 201.523438 199.125 L 202.949219 198.0625 L 205.988281 196.757813 L 210.59375 192.625 L 211.277344 191.398438 L 212.078125 191.066406 L 214.371094 187.828125 L 218.316406 181.429688 L 218.039063 180.875 L 220.265625 176.179688 L 221.65625 173.195313 L 222.679688 170.039063 L 222.394531 169.136719 L 224.058594 164.386719 L 226.152344 154.382813 L 225.980469 152.433594 L 226.632813 149.609375 L 227.367188 142.703125 L 232.824219 145.425781 L 233.390625 145.144531 L 238.128906 147.308594 L 242.480469 149.460938 L 247.285156 151.0625 L 251.597656 153.207031 L 252.078125 152.964844 L 257.285156 155.386719 L 258.140625 155.441406 L 259.445313 155.875 L 264.125 157.902344 L 264.667969 158.015625 L 270.722656 159.902344 L 281.4375 163.074219 L 286.359375 164.503906 L 286.839844 164.265625 L 292.03125 165.46875 L 292.25 165.46875 L 293.3125 165.132813 L 299.855469 165.476563 L 303.3125 164.6875 L 305.933594 163.773438 L 307.6875 163.367188 L 312.03125 161.625 L 315.75 158.730469 L 316.203125 157.859375 L 318.390625 156.117188 L 321.800781 150.042969 L 322.886719 148.089844 L 324.308594 143.984375 L 324.070313 143.503906 L 324.625 139.832031 L 325.058594 137.222656 L 325.699219 130.921875 L 324.851563 115.046875 L 328.753906 118.105469 L 339.375 126.460938 L 339.667969 127.019531 L 343.746094 129.835938 L 343.996094 130.492188 L 346.785156 132.449219 L 348.535156 132.078125 L 351.441406 130.074219 L 351.820313 128.746094 L 350.480469 127.445313 L 348.546875 126.457031 L 347.753906 125.238281 L 345.917969 123.753906 L 344.25 123.027344 L 343.894531 122.222656 L 341.191406 120.566406 L 337.277344 117.09375 L 335.804688 116.171875 L 336.042969 115.691406 L 335.269531 114.410156 L 334.699219 111.90625 L 337.609375 114.332031 L 339.328125 115.351563 L 339.667969 116.15625 L 342.007813 118.105469 L 343.671875 118.828125 L 344.191406 119.773438 L 347.214844 122.066406 L 348.953125 121.632813 L 348.9375 120.613281 L 348.066406 120.179688 L 347.199219 118.875 L 345.265625 117.886719 L 342.660156 115.277344 L 340.921875 114.410156 L 338.3125 111.804688 L 336.476563 110.957031 L 335.804688 109.605469 L 333.75 108.109375 L 333.03125 107.445313 L 332.230469 105.71875 L 331.640625 102.34375 L 337.183594 106.5 L 338.96875 107.632813 L 340.019531 106.589844 L 339.71875 105.695313 L 336.335938 103.425781 L 335.269531 102.460938 L 334.640625 101.492188 L 332.421875 100.382813 L 331.359375 99.417969 L 329.621094 97.460938 L 328.523438 97.175781 L 327.449219 96.375 L 326.578125 95.289063 L 324.695313 94.347656 L 324.339844 93.539063 L 321.59375 91.527344 L 321.15625 90.664063 L 319.878906 83.460938 L 319.84375 81.601563 L 318.976563 77.253906 L 318.6875 76.59375 L 315.941406 75.464844 L 312.886719 74.699219 L 311.804688 73.996094 L 311.148438 73.816406 L 308.46875 73.242188 L 309.367188 78.261719 L 307.023438 76.386719 L 304.90625 74.4375 L 304.460938 73.566406 L 299.9375 69.601563 L 298.082031 60.628906 L 296.824219 59.804688 L 294.277344 59.078125 L 295.292969 64.652344 L 293.746094 63.882813 L 289.296875 59.675781 L 287.664063 57.601563 L 285.59375 56.128906 L 285.078125 54.660156 L 285.175781 52.738281 L 283.957031 47.484375 L 280.222656 46.023438 L 281.265625 51.230469 L 279.839844 50.417969 L 277.8125 48.769531 L 277.109375 47.5 L 273.738281 44.96875 L 272.035156 42.871094 L 270.957031 42.273438 L 269.652344 40.96875 L 267.914063 32.277344 L 266.851563 32.398438 L 264.269531 31.109375 L 264.980469 36.082031 L 262 33.933594 L 261.570313 32.84375 L 258.136719 30.324219 L 257.171875 28.839844 L 254.375 26.617188 L 253.511719 25.335938 L 252.707031 20.546875 L 252.078125 18.492188 L 250.726563 17.816406 L 249.878906 17.75 L 246.828125 16.484375 L 241.625 14.679688 L 241.9375 14.917969 L 242.222656 17.511719 L 244.039063 27.417969 L 242.050781 26.898438 L 240.539063 26.414063 L 237.0625 24.675781 L 234.246094 23.738281 L 231.316406 22.742188 L 229.460938 21.578125 L 226.40625 20.816406 L 219.484375 17.816406 L 219.003906 18.058594 L 217.28125 17.234375 L 212.53125 15.210938 L 212.050781 15.449219 L 210.117188 14.460938 L 208.589844 14.191406 L 203.914063 12.253906 L 203.375 12.125 L 195.988281 9.957031 L 194.28125 9.128906 L 193.800781 9.367188 L 192.542969 8.691406 L 192.011719 8.957031 L 191.433594 8.378906 L 189.5 7.824219 L 189.019531 8.0625 L 187.761719 7.390625 L 187.28125 7.628906 L 185.570313 6.894531 L 184.253906 7.238281 L 179.152344 10.519531 L 177.527344 12.289063 L 176.222656 12.722656 L 174.050781 14.894531 L 172.527344 15.546875 L 171.660156 16.417969 L 167.316406 19.894531 L 166.226563 20.761719 L 159.875 27.140625 L 156.566406 30.949219 L 152.238281 37.476563 L 151.511719 39.675781 L 150.667969 40.988281 L 148.375 45.746094 L 147.578125 50.53125 L 146.457031 55.09375 L 146.019531 58.570313 L 145.800781 77.90625 L 146.667969 88.769531 L 145.90625 103.136719 L 143.910156 103.917969 L 112.097656 118.433594 L 106.695313 121.144531 L 97.796875 125.566406 L 93.859375 127.148438 L 90.808594 128.871094 L 86.945313 130.804688 L 86.035156 131.488281 L 80.859375 134.273438 L 78.980469 135.246094 L 70.625 141.136719 L 65.617188 144.109375 L 64.746094 145.113281 L 61.550781 147.429688 L 61.164063 148.28125 L 59.144531 149.707031 L 56.925781 152.503906 L 55.640625 153.25 L 53.9375 155.605469 L 50.417969 158.953125 L 49.984375 160.257813 L 47.773438 162.308594 L 46.386719 164.359375 L 46.019531 165.328125 L 43.25 168.945313 L 42.042969 170.878906 L 41.171875 173.097656 L 38.804688 177.832031 L 38.167969 179.980469 L 37.164063 182.199219 L 35.644531 187.199219 L 34.773438 190.675781 L 34.363281 194.6875 L 31.738281 194.195313 L 30.835938 194.476563 L 27.605469 193.933594 L 25.683594 193.398438 L 24.777344 193.679688 L 18.695313 191.960938 L 12.167969 191.046875 L 11.308594 191.980469 L 10.824219 193.582031 Z M 28.105469 209.554688 L 34.269531 210.390625 L 33.558594 203.449219 L 30.453125 202.941406 L 30.125 203.101563 L 26.574219 202.695313 L 26.996094 209.925781 Z M 29.132813 213.21875 L 27.386719 212.835938 L 27.167969 214.792969 L 27.8125 219.292969 L 33.90625 220.226563 L 33.890625 219.871094 L 34.773438 220.226563 L 34.984375 218.703125 L 34.339844 213.707031 L 34.015625 213.378906 L 33.03125 213.660156 L 29.582031 212.933594 Z M 46.53125 212.742188 L 45.117188 212.328125 L 45.902344 217.828125 L 46.578125 220.820313 L 52.375 221.3125 L 54.304688 221.191406 L 56.414063 221.683594 L 55.339844 213.070313 L 54.351563 213.175781 L 48.65625 212.5 Z M 49.09375 209.457031 L 54.808594 209.925781 L 55.199219 199.800781 L 55.632813 196.789063 L 51.9375 196.542969 L 50.007813 196.660156 L 43.960938 196.171875 L 44.335938 207.1875 L 44.339844 209.3125 L 46.941406 209.796875 L 47.160156 209.796875 Z M 44.855469 189.199219 L 44.433594 193.101563 L 51.28125 193.667969 L 52.046875 193.464844 L 55.859375 193.886719 L 57.113281 187.410156 L 57.804688 185.460938 L 58.316406 182.253906 L 59.542969 179.375 L 59.957031 179.039063 L 58.023438 178.726563 L 55.414063 178.726563 L 50.203125 178.289063 L 48.464844 178.289063 L 47.398438 178.84375 L 46.570313 180.960938 L 46.238281 183.511719 Z M 50.875 224.472656 L 47.167969 223.96875 L 48.1875 229.0625 L 50.441406 229.6875 L 52.566406 229.449219 L 58.105469 229.976563 L 57.070313 224.769531 L 53.027344 224.136719 L 52.808594 224.136719 Z M 70.488281 159.554688 L 75.273438 153.910156 L 71.304688 153.410156 L 70.402344 153.6875 L 65.230469 152.988281 L 64.289063 153.617188 L 57.300781 161.398438 L 54.652344 165.28125 L 50.335938 171.816406 L 49.371094 174.375 L 49.648438 175.285156 L 56.042969 175.796875 L 56.9375 175.464844 L 57.371094 175.882813 L 61.3125 175.574219 L 62.175781 172.761719 L 65.027344 167.855469 L 65.628906 166.339844 L 68.234375 162.863281 L 69.546875 161.613281 Z M 59.328125 194.152344 L 59.761719 194.152344 L 59.761719 193.71875 L 59.328125 193.71875 Z M 58.738281 197.78125 L 59.191406 210.058594 L 61.933594 210.449219 L 64.542969 210.449219 L 69.949219 211.003906 L 70.40625 210.691406 L 71.710938 211.097656 L 72.144531 202.40625 L 72.167969 197.726563 L 71.6875 197.964844 L 65.84375 197.410156 L 64.765625 197.246094 L 63.863281 197.523438 L 59.609375 196.914063 Z M 60.871094 213.609375 L 59.378906 213.175781 L 60.628906 221.3125 L 61.695313 221.867188 L 62.175781 221.625 L 66.496094 222.398438 L 66.714844 222.398438 L 68.648438 222.058594 L 73.277344 222.578125 L 72.363281 214.359375 L 70.625 213.925781 L 69.546875 213.757813 L 68.644531 214.039063 L 62.804688 213.488281 Z M 63.671875 178.941406 L 62.9375 179.113281 L 61.898438 181.328125 L 61.09375 186.984375 L 59.757813 191.328125 L 60.058594 193.984375 L 65.605469 194.488281 L 66.085938 194.25 L 72.109375 194.898438 L 73.050781 194.273438 L 73.449219 189.804688 L 74.101563 186.546875 L 75.164063 183.382813 L 76.492188 180.246094 L 76.921875 179.851563 L 71.738281 179.480469 L 70.835938 179.761719 L 64.324219 178.941406 Z M 65.214844 225.34375 L 61.34375 224.851563 L 61.839844 230.023438 L 65.171875 230.558594 L 65.652344 230.316406 L 71.6875 230.984375 L 72.585938 230.695313 L 74.320313 231.089844 L 74.515625 230.4375 L 73.515625 225.59375 L 68.261719 225.109375 L 67.367188 225.441406 L 67.148438 225.003906 Z M 73.425781 176.433594 L 77.382813 176.867188 L 78.449219 174.160156 L 82.574219 166.773438 L 85.183594 163.296875 L 86.066406 161.480469 L 88.441406 158.734375 L 89.171875 157.382813 L 91.34375 154.773438 L 87.136719 154.390625 L 85.207031 154.507813 L 78.941406 153.925781 L 77.820313 154.507813 L 75.601563 157.550781 L 73.421875 159.714844 L 71.25 163.191406 L 70.386719 164.070313 L 67.921875 168.273438 L 66.183594 171.75 L 64.585938 175.242188 L 64.914063 176.367188 L 65.652344 175.996094 L 71.496094 176.550781 Z M 94.183594 138.332031 L 94.652344 137.046875 L 88.007813 137.441406 L 86.886719 137.972656 L 80.425781 141.671875 L 79.445313 142.265625 L 73.90625 146.011719 L 73.015625 146.785156 L 71.726563 147.734375 L 69.957031 148.4375 L 68.789063 149.585938 L 68.550781 150.066406 L 71.246094 150.585938 L 72.144531 150.261719 L 72.582031 150.6875 L 78.675781 150.328125 L 80.742188 148.777344 L 81.152344 148.328125 L 81.828125 146.980469 L 85.144531 144.492188 L 89.496094 141.453125 L 91.484375 140.050781 Z M 77.144531 214.140625 L 76.273438 214.140625 L 76.304688 214.796875 L 77.296875 222.675781 L 82.140625 223.265625 L 82.359375 223.265625 L 84.292969 222.929688 L 86.398438 223.421875 L 85.371094 215.195313 L 84.75 214.574219 L 83.851563 214.90625 L 79.75 214.359375 Z M 79.945313 211.195313 L 85.226563 211.664063 L 85.617188 198.929688 L 86.050781 198.53125 L 80.410156 198.109375 L 79.632813 198.320313 L 76.46875 197.960938 L 75.820313 200.015625 L 76.058594 209.796875 L 76.074219 211.019531 L 77.796875 211.535156 L 78.011719 211.535156 Z M 82.988281 195.117188 L 86.109375 195.597656 L 87.101563 190.453125 L 88.78125 185.699219 L 89.226563 183.488281 L 90.054688 180.859375 L 87.386719 180.355469 L 86.488281 180.679688 L 86.050781 180.253906 L 79.492188 180.550781 L 78.566406 183.105469 L 77.550781 186.546875 L 76.6875 194.804688 L 79.96875 195.457031 L 80.1875 195.457031 Z M 81.824219 226.125 L 77.539063 225.695313 L 78.796875 231.324219 L 83.417969 231.851563 L 84.320313 231.570313 L 88.152344 232.121094 L 87.054688 226.507813 L 82.582031 225.921875 Z M 110.265625 138.769531 L 110.507813 138.289063 L 104.742188 137.707031 L 103.992188 137.90625 L 99.523438 137.636719 L 98.003906 138.3125 L 96.796875 139.636719 L 94.90625 140.488281 L 89.59375 143.894531 L 88.007813 145.480469 L 85.582031 147.097656 L 84.75 148.089844 L 83.09375 149.128906 L 81.625 150.960938 L 86.269531 151.347656 L 89.09375 151.554688 L 94.753906 151.199219 L 97.035156 149.199219 L 97.789063 148.125 L 103.015625 143.828125 Z M 102.207031 161.292969 L 106.996094 155.648438 L 102.164063 155.15625 L 100.394531 155.476563 L 99.964844 155.101563 L 99.0625 155.371094 L 94.78125 154.726563 L 93.835938 155.355469 L 90.929688 159.132813 L 89.191406 161.742188 L 88.660156 162.863281 L 85.75 166.539063 L 85.03125 168.738281 L 82.359375 172.859375 L 81.707031 174.597656 L 81.273438 176.769531 L 80.839844 177.171875 L 86.894531 177.535156 L 87.789063 177.203125 L 88.222656 177.621094 L 92.167969 177.316406 L 93.464844 173.832031 L 96.917969 168.511719 L 97.449219 167.390625 L 99.304688 164.601563 Z M 96.054688 195.9375 L 102.679688 196.507813 L 103.632813 190.457031 L 104.835938 187.019531 L 105.171875 184.589844 L 105.824219 183.289063 L 106.257813 181.765625 L 101.480469 181.332031 L 100.398438 181.167969 L 99.496094 181.445313 L 95.394531 180.898438 L 93.503906 180.960938 L 92.390625 185.679688 L 90.597656 190.457031 L 89.734375 195.964844 L 90.859375 195.5625 L 95.152344 196.21875 Z M 91.777344 215.28125 L 89.324219 214.867188 L 90.648438 223.488281 L 96.265625 223.917969 L 97.34375 224.082031 L 98.078125 223.894531 L 103.945313 224.300781 L 102.597656 215.992188 L 101.480469 215.660156 L 100.398438 215.496094 L 99.496094 215.777344 L 93.65625 215.226563 L 92.578125 215.0625 Z M 99.742188 212.621094 L 102.457031 212.648438 L 101.902344 210.011719 L 102.132813 201.539063 L 102.140625 199.433594 L 101.234375 199.695313 L 95.613281 198.929688 L 95.394531 198.929688 L 93.460938 199.269531 L 89.496094 198.816406 L 88.863281 201.757813 L 89.09375 210.230469 L 89.097656 211.925781 L 91.917969 212.1875 L 93 212.351563 L 93.898438 212.070313 Z M 120.382813 123.753906 L 120.382813 123.332031 L 115.59375 123.695313 L 106.023438 128.011719 L 103.21875 129.402344 L 94.570313 133.835938 L 94.929688 134.554688 L 96.046875 134.183594 L 96.480469 134.585938 L 98.65625 134.183594 L 98.652344 134.589844 L 100.835938 134.246094 L 102.78125 133.3125 L 105.160156 131.5 L 107.351563 130.757813 L 110.289063 128.714844 L 113.019531 127.332031 Z M 94.960938 137.660156 L 95.394531 137.660156 L 95.394531 137.222656 L 94.960938 137.222656 Z M 96.171875 226.992188 L 91.339844 226.578125 L 92.4375 232.191406 L 96.894531 232.730469 L 97.375 232.488281 L 102.996094 233.214844 L 103.820313 232.964844 L 105.328125 233.355469 L 104.636719 227.121094 L 103.847656 227.515625 L 98.003906 226.960938 L 96.921875 226.796875 Z M 120.914063 157.828125 L 121.78125 156.527344 L 117.992188 156.128906 L 116.058594 156.246094 L 110.382813 155.871094 L 109.433594 156.496094 L 101.660156 165.785156 L 99.210938 169.574219 L 97.90625 172.183594 L 96.457031 175.128906 L 95.394531 176.550781 L 95.746094 178.171875 L 96.941406 177.742188 L 102.347656 178.289063 L 103.433594 178.496094 L 107.804688 178.171875 L 108.484375 177.425781 L 109.257813 174.335938 L 112.441406 169.621094 L 113.125 167.84375 L 114.949219 165.253906 L 116.472656 163.730469 L 116.90625 162.429688 L 120.382813 158.953125 Z M 128.085938 139.636719 L 128.324219 139.15625 L 122.335938 138.746094 L 120.40625 138.867188 L 114.730469 138.503906 L 113.210938 139.179688 L 112.003906 140.507813 L 109.53125 141.9375 L 108.710938 142.71875 L 107.257813 143.570313 L 101.730469 147.769531 L 100.828125 148.957031 L 97.472656 151.324219 L 97.230469 151.804688 L 102.109375 152.335938 L 102.589844 152.097656 L 108.433594 152.652344 L 109.511719 152.816406 L 110.410156 152.53125 L 111.605469 151.394531 L 117.535156 146.570313 L 126.09375 140.546875 Z M 123.386719 131.019531 L 124.304688 130.636719 L 125.171875 129.769531 L 126.488281 129.066406 L 134.699219 124.960938 L 135.59375 124.621094 L 136.023438 124.230469 L 131.25 123.800781 L 130.511719 123.996094 L 125.160156 123.726563 L 117.351563 128.171875 L 113.414063 129.753906 L 110.363281 131.476563 L 107.367188 132.976563 L 105.285156 133.9375 L 104.882813 135.050781 L 105.824219 135.050781 L 107.5625 134.835938 L 111.472656 135.269531 L 113.40625 135.148438 L 115.601563 135.511719 L 118.246094 133.628906 L 119.53125 132.96875 Z M 122.988281 199.367188 L 124.304688 198.863281 L 125.171875 197.992188 L 126.503906 197.507813 L 127.988281 196.757813 L 130.726563 194.847656 L 131.996094 194.390625 L 132.429688 193.523438 L 119.078125 194.152344 L 119.296875 193.71875 L 117.558594 193.933594 L 112.996094 194.152344 L 112.988281 203.660156 L 116.039063 202.871094 Z M 113.066406 208.21875 L 112.59375 213.324219 L 117.125 211.96875 L 119.964844 210.746094 L 124.511719 208.925781 L 123.796875 208.210938 L 121.691406 208.4375 L 121.035156 208.273438 L 118.214844 208.4375 L 117.316406 208.15625 L 116.042969 208.4375 L 115.144531 208.15625 Z M 122.097656 183.820313 L 122.578125 184.058594 L 129.496094 180.75 L 133.566406 178.277344 L 136.175781 176.5625 L 136.582031 175.707031 L 138.621094 174.234375 L 143.214844 168.730469 L 145.117188 164.480469 L 145.890625 161.324219 L 146.679688 156.996094 L 146.417969 144.058594 L 141.023438 147.652344 L 139.4375 149.238281 L 136.582031 150.890625 L 135.90625 152.238281 L 133.332031 154 L 125.214844 163.003906 L 124.09375 165.253906 L 120.964844 169.175781 L 120.234375 170.890625 L 118.808594 173.070313 L 116.882813 177.105469 L 115.890625 180.039063 L 114.019531 185.863281 L 114.757813 186.230469 L 120.9375 184.351563 Z M 115.972656 220.941406 L 116.6875 220.226563 L 114.082031 220.226563 L 114.082031 220.660156 Z M 140.589844 140.699219 L 141.304688 139.984375 L 138.851563 139.613281 L 136.027344 139.410156 L 132.109375 139.789063 L 130.714844 140.519531 L 124.699219 144.070313 L 123.035156 145.179688 L 114.234375 151.847656 L 113.367188 152.714844 L 116.253906 153.085938 L 117.332031 153.25 L 118.234375 152.972656 L 124.246094 153.601563 L 128.421875 150.261719 L 132.078125 146.664063 L 135.554688 144.058594 Z M 136.46875 222.457031 L 137.765625 221.964844 L 138.164063 221.648438 L 136.679688 221.3125 L 133.203125 221.3125 L 127.988281 220.875 L 126.039063 221.042969 L 124.726563 220.6875 L 123.640625 221.3125 L 122.984375 221.476563 L 114.945313 223.683594 L 116.226563 228.8125 L 121.253906 227.648438 L 127.378906 225.742188 L 133.414063 223.230469 Z M 125.171875 200.601563 L 124.304688 201.46875 L 122.988281 201.972656 L 116.589844 204.773438 L 116.253906 205.449219 L 117.558594 205.449219 L 119.511719 205.445313 L 132.558594 205.070313 L 136.058594 202.957031 L 141.640625 199.679688 L 142.574219 199.042969 L 149.5625 194.304688 L 150.738281 193.128906 L 146.238281 193.066406 L 136.984375 193.542969 L 134.503906 195.238281 L 132.429688 196.566406 L 131.515625 197.417969 L 129.484375 198.398438 L 126.488281 199.898438 Z M 146.335938 209.167969 L 146.769531 208.296875 L 129.9375 208.890625 L 128.625 209.714844 L 123.875 211.613281 L 122.773438 212.402344 L 119.957031 213.339844 L 116.914063 214.628906 L 113.863281 215.445313 L 113.429688 217.160156 L 118.617188 217.511719 L 119.519531 217.234375 L 126.902344 217.644531 L 134.277344 214.511719 L 136.472656 213.777344 L 140.359375 211.894531 L 142.121094 211.171875 Z M 135.582031 135.121094 L 136.4375 134.28125 L 138.226563 133.421875 L 142.519531 131.472656 L 146.671875 129.402344 L 150.820313 127.316406 L 153.539063 125.753906 L 153.289063 125.25 L 151.453125 125.492188 L 151.234375 125.492188 L 145.371094 124.839844 L 143.4375 124.960938 L 140.371094 124.621094 L 140.355469 124.976563 L 135.605469 126.875 L 134.699219 127.566406 L 126.488281 131.671875 L 125.171875 132.375 L 124.316406 133.214844 L 122.132813 134.253906 L 119.949219 135.050781 L 119.984375 135.367188 L 121.683594 135.886719 L 122.582031 135.589844 L 129.289063 136.136719 L 132.976563 136.300781 L 134.070313 135.921875 Z M 122.773438 120.710938 L 123.207031 120.710938 L 123.207031 120.277344 L 122.773438 120.277344 Z M 147.832031 181.40625 L 148.496094 180.078125 L 145.152344 180.679688 L 145.371094 180.246094 L 143.632813 180.464844 L 140.15625 180.898438 L 138.972656 182.238281 L 135.59375 184.617188 L 132.984375 185.894531 L 132.136719 186.667969 L 128.804688 187.84375 L 127.988281 188.71875 L 126.898438 188.902344 L 123.425781 190.242188 L 123.207031 191.109375 L 123.425781 191.109375 L 133.820313 190.351563 L 136.460938 190.65625 L 137.367188 190.359375 L 140.15625 188.503906 L 141.359375 187.4375 L 141.746094 186.617188 L 142.761719 186.113281 L 147.109375 181.765625 Z M 138.570313 115.34375 L 139.4375 114.472656 L 138.207031 114.574219 L 136.890625 114.230469 L 134.25 115.375 L 123.859375 119.84375 L 123.640625 120.277344 L 124.703125 120.375 L 126.902344 120.71875 L 128.21875 119.921875 L 132.566406 118.183594 L 134.289063 117.234375 Z M 131.898438 121.144531 L 132.332031 121.144531 L 132.332031 120.710938 L 131.898438 120.710938 Z M 163.285156 209.601563 L 163.523438 209.121094 L 158.839844 208.710938 L 156.890625 208.875 L 155.992188 208.589844 L 154.71875 208.875 L 154.058594 208.710938 L 151.605469 208.773438 L 147.976563 210.664063 L 141.261719 214.230469 L 135.179688 216.847656 L 132.550781 217.617188 L 132.152344 217.929688 L 133.636719 218.269531 L 135.585938 218.105469 L 136.503906 218.355469 L 136.917969 218.148438 L 142.761719 218.703125 L 145.371094 218.703125 L 148.179688 217.101563 L 152.121094 215.527344 L 155.796875 213.273438 L 161.449219 210.664063 Z M 138.417969 121.363281 L 140.15625 121.582031 L 140.355469 121.226563 L 141.242188 121.5625 L 149.078125 118.183594 L 151.019531 117.234375 L 153.539063 115.757813 L 153.160156 115 L 152.078125 115.394531 L 146.671875 114.84375 L 144.933594 114.84375 L 143.351563 115.777344 L 132.429688 120.472656 L 132.671875 120.953125 Z M 137.980469 136.789063 L 138.851563 136.789063 L 138.851563 136.355469 L 137.980469 136.355469 Z M 169.800781 193.089844 L 170.226563 192.238281 L 166.855469 192.75 L 163.1875 192.414063 L 162.96875 192.414063 L 154.824219 193.09375 L 153.410156 194.152344 L 151.226563 195.957031 L 148.410156 198.0625 L 144.253906 200.5625 L 141.328125 202.582031 L 140.371094 202.84375 L 140.359375 203.636719 L 137.65625 204.472656 L 136.832031 205.296875 L 143.195313 205.667969 L 146.015625 205.503906 L 146.828125 205.730469 L 148.628906 205.449219 L 148.847656 205.882813 L 150.792969 205.503906 L 151.714844 205.753906 L 154.285156 204.632813 L 160.328125 200.554688 L 162.957031 198.566406 L 163.816406 197.53125 L 166.035156 196.421875 Z M 147.324219 111.152344 L 159.492188 105.9375 L 159.515625 105.164063 L 159.167969 105.339844 L 156.886719 105.058594 L 155.558594 105.84375 L 146.890625 109.847656 L 143.535156 110.910156 L 143.292969 111.390625 L 146 111.921875 Z M 151.226563 134.25 L 152.082031 133.410156 L 153.867188 132.542969 L 156.667969 131.140625 L 165.316406 126.707031 L 165.023438 126.121094 L 161.011719 125.707031 L 159.121094 125.773438 L 152.757813 128.535156 L 150.820313 129.921875 L 146.671875 132.007813 L 142.121094 134.253906 L 140.15625 135.050781 L 138.851563 135.703125 L 139.167969 136.609375 L 146.003906 137.136719 L 149.902344 134.945313 Z M 155.796875 163.082031 L 154.679688 163.410156 L 152.664063 166.535156 L 151.019531 170.035156 L 148.628906 172.421875 L 147.59375 174.371094 L 145.238281 176.074219 L 143.933594 177.8125 L 147.011719 177.371094 L 147.347656 177.542969 L 148.410156 177.421875 L 151.453125 176.988281 L 155.660156 171.285156 L 159.3125 165.691406 L 160.207031 162.894531 L 159.46875 162.527344 Z M 156.421875 179.480469 L 152.046875 179.957031 L 147.765625 185.082031 L 143.496094 188.238281 L 141.757813 190.410156 L 150.390625 189.902344 L 154.058594 190.242188 L 154.496094 190.242188 L 156.078125 188.65625 L 157.101563 188.285156 L 162.019531 183.550781 L 165.359375 179.375 L 164.683594 179.039063 L 159.273438 179.59375 L 157.328125 179.757813 Z M 150.585938 193.28125 L 151.019531 193.28125 L 151.019531 192.847656 L 150.585938 192.847656 Z M 173.398438 116.800781 L 173.828125 116.414063 L 169.703125 116.148438 L 167.097656 116.148438 L 161.691406 115.601563 L 160.796875 115.929688 L 160.375 115.566406 L 149.957031 119.945313 L 148.847656 120.492188 L 147.976563 121.144531 L 147.261719 121.859375 L 152.539063 122.449219 L 152.757813 122.449219 L 154.6875 122.113281 L 160.796875 122.476563 L 163.1875 121.144531 L 167.53125 119.40625 L 171.214844 117.597656 Z M 171.238281 108.179688 L 174.265625 106.804688 L 174.699219 105.957031 L 168.835938 105.71875 L 166.902344 105.839844 L 166.011719 105.519531 L 152.601563 111.304688 L 152.042969 111.867188 L 153.625 112.238281 L 155.558594 112.117188 L 161.234375 112.5 L 167.292969 109.757813 Z M 154.058594 115.496094 L 154.496094 115.496094 L 154.496094 115.0625 L 154.058594 115.0625 Z M 156.472656 70.207031 L 155.796875 69.867188 L 155.800781 71.824219 L 156.378906 76.660156 L 157.101563 76.820313 L 157.972656 76.820313 L 158.839844 76.605469 L 164.246094 76.054688 L 165.148438 76.332031 L 166.226563 76.167969 L 167.316406 75.953125 L 167.554688 72.257813 L 166.914063 69.320313 L 162.535156 69.867188 L 162.75 69.433594 L 161.011719 69.652344 Z M 164.253906 94.984375 L 167.023438 93.625 L 167.664063 90.988281 L 165.582031 91.109375 L 164.683594 90.828125 L 156.8125 91.320313 L 156.449219 94.203125 L 156.433594 98.460938 Z M 158.652344 160.148438 L 161.792969 159.625 L 163.441406 155.597656 L 163.839844 152 L 164.054688 151.566406 L 159.925781 151.566406 L 156.820313 152.152344 L 156.015625 158.082031 L 155.582031 159.820313 L 155.363281 160.257813 L 156.667969 160.257813 L 157.746094 159.875 Z M 156.234375 205.882813 L 156.667969 205.882813 L 156.667969 205.449219 L 156.234375 205.449219 Z M 156.667969 138.527344 L 157.101563 138.527344 L 157.101563 138.09375 L 156.667969 138.09375 Z M 165.792969 66.609375 L 166.878906 66.390625 L 167.097656 57.265625 L 164.273438 57.265625 L 159.273438 57.917969 L 156.015625 58.136719 L 156.011719 67.21875 L 157.816406 66.980469 L 158.628906 67.207031 L 159.710938 67.042969 L 163.8125 66.496094 L 164.714844 66.773438 Z M 163.425781 148.859375 L 164.746094 148.398438 L 165.578125 143.742188 L 165.578125 140.734375 L 163.328125 140.96875 L 162.527344 140.753906 L 161.449219 140.917969 L 156.960938 141.300781 L 156.472656 149.390625 L 157.535156 149.390625 L 158.40625 149.175781 L 162.945313 148.621094 Z M 166.878906 133.3125 L 166.886719 132.9375 L 165.996094 133.234375 L 157.320313 137.660156 L 156.90625 137.996094 L 157.777344 138.429688 L 162.316406 137.875 L 165.945313 137.941406 L 166.507813 137.378906 Z M 184.914063 193.5 L 186.125 193.097656 L 185.691406 192.230469 L 181.65625 191.992188 L 176.027344 192.074219 L 173.386719 192.78125 L 172.117188 193.621094 L 171.25 195.117188 L 169.898438 195.792969 L 167.15625 197.835938 L 166.4375 198.878906 L 163.621094 200.667969 L 161.679688 202.488281 L 159.914063 203.199219 L 157.320313 205.015625 L 157.308594 205.820313 L 158.625 205.449219 L 158.625 205.878906 L 169.496094 205.503906 L 171.226563 204.582031 L 172.160156 203.558594 L 174.148438 202.648438 L 175.789063 200.886719 L 177.527344 200.019531 L 180.132813 197.410156 L 182.078125 196.394531 L 183.382813 194.65625 L 184.046875 194.367188 Z M 167.242188 87.957031 L 167.691406 78.84375 L 162.96875 79.429688 L 163.1875 78.992188 L 161.449219 79.210938 L 156.449219 79.429688 L 156.273438 80.085938 L 156.84375 87.992188 L 157.972656 88.335938 L 159.710938 88.335938 Z M 174.945313 163.953125 L 175.492188 161.394531 L 171.878906 161.777344 L 166.226563 162.210938 L 165.148438 162.375 L 163.9375 162.027344 L 163.253906 164.394531 L 162.289063 165.6875 L 160.09375 168.722656 L 159.371094 170.925781 L 158.972656 171.378906 L 155.6875 175.21875 L 155.226563 176.9375 L 159.492188 176.363281 L 160.828125 176.65625 L 165.359375 176.117188 L 167.097656 176.117188 L 168.109375 175.609375 L 168.617188 174.597656 L 169.898438 173.195313 Z M 156.449219 52.050781 L 156.085938 55.25 L 162.261719 54.847656 L 162.558594 54.996094 L 166.96875 54.484375 L 167.335938 53.453125 L 168.335938 48.78125 L 169.21875 44.875 L 170.742188 41.050781 L 169.03125 41.523438 L 159.457031 41.5 L 158.40625 43.578125 L 157.472656 47.914063 Z M 181.082031 179.175781 L 181.566406 177.898438 L 177.605469 178.328125 L 177.285156 178.171875 L 171.007813 178.726563 L 168.835938 179.160156 L 167.773438 180.34375 L 165.972656 182.972656 L 163.957031 184.398438 L 163.402344 185.460938 L 160.578125 188.066406 L 158.6875 189.960938 L 164.488281 189.589844 L 170.769531 189.707031 L 173.878906 189.070313 L 177.371094 184.746094 L 180.132813 180.679688 Z M 179.558594 27.449219 L 181.871094 24.675781 L 174.050781 24.675781 L 172.101563 24.726563 L 171.203125 25.011719 L 170.140625 26.195313 L 169.074219 26.75 L 163.910156 32.769531 L 163.292969 34.042969 L 160.441406 38.746094 L 165.707031 38.332031 L 166.453125 38.527344 L 171.972656 38.339844 L 172.71875 36.621094 L 174.988281 33.570313 L 175.570313 32.0625 L 177.765625 29.984375 Z M 165.359375 179.375 L 165.792969 179.375 L 165.792969 178.941406 L 165.359375 178.941406 Z M 165.359375 126.359375 L 166.226563 126.359375 L 166.226563 125.925781 L 165.359375 125.925781 Z M 178.179688 97.679688 L 178.179688 97.257813 L 173.8125 97.589844 L 171.214844 98.476563 L 167.460938 100.140625 L 166.902344 100.820313 L 164.382813 101.699219 L 163.46875 102.613281 L 167.601563 102.230469 Z M 172.550781 158.855469 L 176.527344 158.34375 L 177.996094 154.390625 L 178.882813 150.472656 L 176.222656 150.261719 L 176.003906 150.261719 L 172.746094 150.914063 L 171.007813 150.914063 L 167.640625 151.320313 L 167.316406 152 L 166.878906 155.042969 L 165.792969 157.648438 L 165.285156 159.386719 L 167.316406 159.386719 L 172.070313 158.613281 Z M 192.734375 115.0625 L 194.535156 115.589844 L 193.726563 114.375 L 187.835938 109.667969 L 186.132813 107.109375 L 183.804688 106.46875 L 180.132813 106.589844 L 179.046875 107.238281 L 166.796875 112.589844 L 167.378906 113.171875 L 170.140625 113.105469 L 175.355469 113.539063 L 178.175781 113.730469 L 181.21875 113.324219 L 182.949219 112.390625 L 185.566406 111.597656 L 186.886719 112.375 L 191.632813 114.273438 Z M 183.808594 118.011719 L 184.695313 117.667969 L 185.09375 117.355469 L 183.609375 117.015625 L 182.53125 116.851563 L 181.761719 117.054688 L 178.171875 116.746094 L 171.242188 120.355469 L 166.894531 122.09375 L 166.011719 122.449219 L 165.597656 122.785156 L 167.746094 123.277344 L 168.5 123.066406 L 172.53125 123.339844 L 174.972656 122.238281 L 175.789063 121.363281 L 176.875 121.167969 Z M 177.527344 137.007813 L 180.898438 136.597656 L 181.5625 129.582031 L 180.375 129.5 L 171.984375 130.433594 L 170.816406 131.035156 L 170.355469 135.484375 L 170.140625 137.660156 L 170.574219 137.660156 L 171.441406 137.441406 L 175.542969 136.894531 L 176.445313 137.171875 Z M 184.253906 65.140625 L 185.566406 65.523438 L 185.304688 64.867188 L 184.722656 56.5 L 183.804688 56.058594 L 179.050781 56.800781 L 177.714844 56.507813 L 172.988281 57.167969 L 172.507813 56.929688 L 170.890625 57.445313 L 171.246094 66.390625 L 171.660156 66.390625 L 176.417969 65.621094 L 176.898438 65.859375 L 183.175781 65.304688 Z M 171.878906 91.597656 L 172.746094 90.726563 L 171.441406 90.726563 L 171.441406 91.597656 Z M 186.652344 168.945313 L 187.304688 168.945313 L 187.851563 167.832031 L 189.992188 164.335938 L 186.011719 161.058594 L 182.523438 160.703125 L 181.226563 161.074219 L 180.316406 160.8125 L 178.992188 161.269531 L 178.613281 162.863281 L 176.65625 166.992188 L 175.632813 168.359375 L 175.015625 170.054688 L 174.148438 171.792969 L 171.800781 174.800781 L 171.371094 175.898438 L 174.265625 175.898438 L 179.894531 175.128906 L 180.375 175.367188 L 183.339844 174.742188 L 185.589844 171.21875 L 187.015625 169.671875 Z M 181.21875 75.09375 L 185.941406 75.371094 L 185.566406 69.867188 L 185.132813 68.15625 L 182.4375 68.390625 L 181.648438 68.183594 L 180.570313 68.347656 L 176.222656 68.78125 L 174.484375 68.78125 L 171.316406 69.175781 L 171.6875 75.953125 L 172.746094 75.953125 L 173.617188 75.734375 L 179.019531 75.1875 L 179.921875 75.464844 Z M 182.308594 53.570313 L 184.769531 53.191406 L 185.132813 51.617188 L 185.671875 48.820313 L 187.820313 43.625 L 186.082031 41.453125 L 174.234375 41.074219 L 173.445313 43.0625 L 171.757813 48.828125 L 171.257813 54.222656 L 173.179688 54.222656 L 174.261719 53.84375 L 175.578125 54.175781 L 180.324219 53.460938 L 181.226563 53.738281 Z M 174.289063 147.992188 L 179.121094 147.492188 L 179.722656 145.265625 L 180.460938 139.585938 L 178.832031 139.613281 L 174.726563 140.167969 L 174.246094 139.929688 L 169.78125 140.46875 L 168.367188 148.273438 L 173.992188 147.84375 Z M 174.917969 106.371094 L 175.355469 106.371094 L 175.355469 105.9375 L 174.917969 105.9375 Z M 191.636719 104.707031 L 192.796875 105.160156 L 191.746094 103.582031 L 191.390625 103.109375 L 187.480469 100.066406 L 186.796875 98.839844 L 185.574219 98.050781 L 183.394531 97.671875 L 180.351563 98.984375 L 172.527344 102.460938 L 172.101563 102.839844 L 176.003906 103.328125 L 176.222656 103.328125 L 178.15625 102.992188 L 182.09375 103.363281 L 185.15625 101.6875 Z M 198.386719 22.5 L 199.253906 22.5 L 198.484375 20.957031 L 195.679688 19.21875 L 195.289063 18.367188 L 192.953125 16.417969 L 191.3125 15.800781 L 186.5 14.398438 L 185.574219 14.296875 L 184.253906 14.625 L 178.867188 18.371094 L 178.601563 18.957031 L 175.476563 21.320313 L 176.070313 21.914063 L 178.175781 21.660156 L 179.699219 21.847656 L 181.648438 21.683594 L 182.546875 21.96875 L 183.609375 21.847656 L 185.566406 21.179688 L 191.644531 21.582031 L 192.550781 21.3125 L 197.613281 22.308594 Z M 176.414063 78.230469 L 171.660156 78.558594 L 171.660156 87.675781 L 180.273438 87.414063 L 183.386719 85.558594 L 185.898438 84.894531 L 185.492188 77.964844 L 179.800781 78.367188 L 178.609375 78.160156 L 177.316406 78.507813 Z M 180.472656 184.351563 L 177.058594 189.53125 L 179.941406 189.035156 L 185.15625 189.273438 L 186.890625 190.144531 L 187.375 191.253906 L 188.210938 191.859375 L 189.511719 192.726563 L 192.515625 191.515625 L 198.046875 188.742188 L 198.289063 188.261719 L 196.019531 186.667969 L 195.164063 185.773438 L 191.660156 183.21875 L 191.144531 182.273438 L 189.257813 181.332031 L 187.957031 179.8125 L 186.890625 178.84375 L 185.132813 178.074219 L 184.285156 179.039063 L 182.066406 182.753906 Z M 194.273438 98.464844 L 199.417969 100.429688 L 197.652344 97.851563 L 196.058594 96.964844 L 195.207031 95.675781 L 192.976563 94.734375 L 192.496094 94.976563 L 189.695313 93.550781 L 187.957031 93.117188 L 186 92.007813 L 183.820313 92.410156 L 181.871094 93.335938 L 181.089844 93.941406 L 181.339844 94.445313 L 183.371094 94.300781 L 186.875 95.027344 L 191.796875 97.472656 Z M 179.265625 126.796875 L 181.871094 126.796875 L 181.871094 125.492188 L 181.65625 125.492188 L 179.480469 126.359375 Z M 183.390625 149.84375 L 182.4375 150 L 181.65625 153.304688 L 180.007813 158.257813 L 183.828125 157.667969 L 185.578125 158.011719 L 190.324219 162.089844 L 191.191406 162.527344 L 191.074219 161.355469 L 193.128906 156.519531 L 190.128906 153.519531 L 188.390625 152.652344 L 186.023438 150.164063 Z M 191.625 152.53125 L 193.855469 153.644531 L 195.125 149.828125 L 195.246094 149.585938 L 195.03125 146.964844 L 193.171875 146.132813 L 190.695313 143.480469 L 186.011719 139.757813 L 184.25 139.324219 L 183.664063 141.347656 L 183.0625 147.035156 L 184.238281 147.121094 L 185.132813 146.8125 L 187.019531 148.292969 L 187.375 149.101563 L 188.542969 149.546875 L 191.203125 151.632813 Z M 177.09375 35.101563 L 175.433594 37.941406 L 185.15625 38.484375 L 186.890625 39.351563 L 187.375 40.460938 L 188.597656 41.253906 L 189.914063 41.652344 L 193.824219 39.015625 L 198.859375 37.335938 L 198.070313 36.152344 L 195.941406 34.378906 L 185.316406 25.132813 L 183.34375 26.710938 L 179.652344 30.96875 Z M 184.914063 114.191406 L 185.347656 114.191406 L 185.347656 113.757813 L 184.914063 113.757813 Z M 186.21875 129.835938 L 185.371094 129.414063 L 184.609375 136.179688 L 185.613281 137.089844 L 189.089844 139.695313 L 195.609375 144.910156 L 196.175781 143.527344 L 196.953125 138.703125 L 194.472656 136.789063 L 193.605469 135.703125 L 191.722656 134.761719 L 191.378906 133.957031 L 189.042969 132.007813 L 187.375 131.285156 L 186.941406 130.417969 Z M 186.882813 114.554688 L 185.738281 114.105469 L 186.121094 114.867188 L 187.761719 116.898438 L 188.824219 117.453125 L 191.035156 119.621094 L 203.808594 125.550781 L 205.402344 126.019531 L 204.589844 124.804688 L 202.242188 123.09375 L 201.644531 122.015625 L 199.054688 120.195313 L 194.910156 118.539063 L 191.226563 116.726563 L 189.464844 116.003906 Z M 187.3125 124.992188 L 186 124.621094 L 185.59375 127.125 L 186.492188 127.515625 L 194.65625 133.863281 L 195.539063 134.953125 L 197.320313 135.824219 L 198.101563 129.511719 L 191.199219 126.871094 Z M 195.976563 109.066406 L 186.972656 105.328125 L 187.835938 106.625 L 191.21875 108.941406 L 192.554688 110.835938 L 194.628906 112.300781 L 196.019531 114.09375 L 198.644531 116.0625 L 200.394531 118.246094 L 202.730469 119.40625 L 207.078125 121.144531 L 210.757813 122.957031 L 211.898438 123.40625 L 211.421875 122.449219 L 210.726563 121.492188 L 206.902344 118.625 L 206.277344 117.464844 L 203.53125 115.269531 L 202.90625 114.105469 L 199.082031 111.238281 L 198.65625 110.390625 Z M 188.824219 24.238281 L 187.957031 24.238281 L 188.292969 24.914063 L 195.121094 30.800781 L 195.441406 31.433594 L 198.105469 33.210938 L 198.917969 34.472656 L 201.195313 36.484375 L 202.515625 36.839844 L 202.949219 36.414063 L 210.074219 36.648438 L 210.359375 36.503906 L 212.484375 37.179688 L 212.964844 36.9375 L 218.066406 38.324219 L 217.601563 37.035156 L 215.117188 35.539063 L 214.671875 34.738281 L 211.164063 32.1875 L 204.621094 26.691406 L 201.234375 25.640625 L 200.753906 25.878906 L 196.886719 24.769531 L 196.40625 25.011719 L 192.976563 24.335938 L 192.613281 24.519531 L 190.777344 24.265625 Z M 189.925781 59.792969 L 188.648438 59.316406 L 189.042969 66.390625 L 189.070313 68.894531 L 191.144531 69.722656 L 191.660156 70.667969 L 194.65625 73.03125 L 195.34375 73.777344 L 196.082031 74.472656 L 198.585938 76.46875 L 199.472656 76.816406 L 200.539063 70.085938 L 200.238281 68.316406 L 199.109375 67.839844 L 198.53125 66.679688 L 196.648438 65.738281 L 194.039063 63.132813 L 192.105469 62.144531 L 191.277344 60.894531 Z M 191.6875 73.222656 L 189.257813 71.605469 L 189.300781 72.261719 L 189.9375 79.097656 L 191.144531 79.71875 L 191.460938 80.515625 L 199.871094 87.371094 L 201.140625 88.21875 L 199.769531 80.066406 L 198.640625 78.875 L 194.472656 75.953125 Z M 191.238281 82.808594 L 189.695313 82.035156 L 189.488281 86.746094 L 192.941406 87.761719 L 194.472656 88.335938 L 196.210938 89.207031 L 196.886719 89.324219 L 198.929688 89.964844 L 198.476563 88.75 Z M 199.433594 103.015625 L 190.417969 99.253906 L 193.894531 103.167969 L 196.648438 105.066406 L 199.617188 108.253906 L 202.964844 109.761719 L 206.847656 111.65625 L 211.195313 113.386719 L 214.5625 114.328125 L 213.289063 112.628906 L 211.351563 111.355469 L 210.726563 110.195313 L 206.902344 107.328125 L 206.261719 106.160156 L 201.203125 103.710938 Z M 200.339844 65.957031 L 201.644531 66.390625 L 203.980469 61.835938 L 206.304688 60.113281 L 206.640625 59.4375 L 205.097656 58.667969 L 203.285156 57.085938 L 202.449219 55.808594 L 199.15625 53.550781 L 198.792969 52.703125 L 192.117188 47.15625 L 191.289063 47.109375 L 189.59375 50.992188 L 188.820313 53.570313 L 189.085938 56.746094 L 190.804688 57.601563 L 191.433594 58.136719 L 192.121094 58.882813 L 195.113281 61.246094 L 195.632813 62.191406 L 197.515625 63.132813 Z M 194.714844 167.980469 L 193.304688 167.273438 L 189.882813 173.402344 L 188.96875 173.871094 L 188.535156 174.742188 L 187.519531 175.25 L 187.085938 176.550781 L 188.390625 177.855469 L 190.128906 178.726563 L 192.734375 181.332031 L 194.667969 182.320313 L 195.441406 183.527344 L 197.734375 185.460938 L 199.023438 186.410156 L 199.90625 186.765625 L 202.984375 183.84375 L 205.871094 179.617188 L 206.640625 177.855469 L 203.359375 175.5625 L 202.296875 174.597656 L 200.992188 173.074219 L 199.109375 172.132813 L 198.765625 171.332031 L 196.429688 169.382813 Z M 206.832031 175.574219 L 207.726563 175.898438 L 208.882813 173.957031 L 210.414063 169.984375 L 208.597656 168.511719 L 206.933594 167.789063 L 206.386719 166.894531 L 199.082031 160.996094 L 196.695313 159.347656 L 195.089844 162.984375 L 195.007813 163.539063 L 194.472656 165.253906 L 195.167969 165.777344 L 206.394531 174.707031 Z M 221.234375 29.574219 L 225.652344 31.625 L 225.894531 30.929688 L 222.773438 28.808594 L 222.382813 27.957031 L 219.339844 25.738281 L 217.734375 24.171875 L 209.683594 21.199219 L 203.398438 19.375 L 198.710938 17.96875 L 197.515625 17.285156 L 199.980469 20.164063 L 201.863281 20.980469 L 204.949219 24.015625 L 209.371094 25.289063 L 210.3125 25.878906 L 210.84375 25.617188 L 211.457031 26.191406 L 214.507813 27.109375 L 215.042969 27.644531 L 218.164063 28.53125 Z M 198.386719 188.066406 L 198.820313 188.066406 L 198.820313 187.632813 L 198.386719 187.632813 Z M 199.101563 150.847656 L 198.441406 151.511719 L 198.785156 152.652344 L 197.558594 156.125 L 197.855469 157.019531 L 199.90625 158.953125 L 202.515625 160.691406 L 204.46875 162.644531 L 206.0625 163.441406 L 206.46875 164.253906 L 210.320313 167.285156 L 211.109375 167.390625 L 212.726563 163.082031 L 212.375 161.324219 L 203.40625 154.074219 L 202.515625 153.304688 Z M 198.820313 90.292969 L 199.6875 90.292969 L 199.6875 89.859375 L 198.820313 89.859375 Z M 199.253906 100.722656 L 199.6875 100.722656 L 199.6875 100.285156 L 199.253906 100.285156 Z M 199.6875 22.9375 L 200.125 22.9375 L 200.125 22.5 L 199.6875 22.5 Z M 200.125 101.15625 L 200.558594 101.15625 L 200.558594 100.722656 L 200.125 100.722656 Z M 202.101563 142.34375 L 200.675781 141.628906 L 199.328125 148.320313 L 201.210938 149.828125 L 202.875 150.550781 L 203.390625 151.503906 L 211.617188 158.179688 L 212.941406 159.386719 L 213.84375 159.0625 L 214.246094 157.648438 L 214.679688 155.042969 L 214.871094 153.957031 L 214.609375 152.070313 L 212.050781 150.792969 L 209.683594 148.304688 L 207.945313 147.4375 L 205.773438 145.265625 L 204.035156 144.394531 Z M 200.992188 88.554688 L 201.425781 88.554688 L 201.425781 88.121094 L 200.992188 88.121094 Z M 204.230469 98.644531 L 200.4375 97.5 L 201.308594 98.800781 L 202.828125 99.65625 L 203.53125 100.925781 L 207.007813 103.535156 L 212.933594 105.570313 L 214.464844 106.152344 L 216.398438 107.144531 L 216.878906 106.902344 L 218.152344 107.726563 L 221.953125 108.675781 L 220.679688 106.980469 L 219.679688 106.589844 L 215.769531 102.460938 L 214.6875 101.542969 L 208.597656 100.3125 Z M 204.636719 134.757813 L 201.863281 132.445313 L 201.066406 138.816406 L 201.425781 139.398438 L 203.871094 140.992188 L 208.21875 144.902344 L 210.917969 146.554688 L 211.277344 147.363281 L 213.160156 148.304688 L 214.03125 149.390625 L 215.050781 150.109375 L 215.613281 149.546875 L 216.203125 146.566406 L 215.863281 143.503906 L 214.679688 142.4375 L 210.605469 139.621094 L 210.261719 138.816406 L 208.597656 138.09375 L 206.710938 136.582031 L 206.351563 135.777344 Z M 193.507813 44.421875 L 193.1875 45.316406 L 195.191406 46.554688 L 196.019531 47.800781 L 197.082031 48.355469 L 199.507813 50.625 L 202.925781 53.453125 L 203.523438 54.425781 L 206.285156 56.191406 L 206.933594 57.410156 L 208.152344 58.066406 L 211.640625 55.960938 L 215.109375 55.042969 L 217.210938 54.492188 L 217.242188 53.652344 L 215.027344 51.878906 L 213.800781 50.382813 L 211.203125 48.574219 L 210.648438 47.511719 L 209.464844 46.835938 L 206.683594 44.449219 L 206.277344 43.589844 L 203.410156 41.082031 L 202.070313 40.375 L 199.875 40.863281 L 194.976563 43.152344 Z M 205.621094 72.757813 L 204.25 72.039063 L 203.589844 74.863281 L 203.9375 80.539063 L 205.339844 81.816406 L 206.351563 82.324219 L 206.71875 83.136719 L 209.019531 84.574219 L 212.292969 87.25 L 214.03125 88.988281 L 215.097656 89.941406 L 215.984375 90.292969 L 216.417969 85.945313 L 216.855469 82.90625 L 217.1875 82.21875 L 213.378906 78.992188 L 211.664063 78.222656 L 210.867188 77 L 208.226563 75.363281 Z M 205.136719 84.121094 L 204.054688 83.707031 L 204.875 89.640625 L 205.523438 91.914063 L 206.425781 92.464844 L 209.902344 93.335938 L 209.886719 92.980469 L 215.550781 94.636719 L 215.488281 92.617188 L 207.375 86.644531 L 206.207031 85.078125 Z M 218.085938 125.347656 L 218.449219 126.15625 L 223.796875 128.597656 L 226.40625 129.46875 L 228.140625 130.195313 L 231.1875 131.628906 L 233.257813 132.144531 L 231.546875 130.007813 L 230.542969 128.96875 L 228.515625 126.957031 L 222.816406 122.253906 L 220.726563 119.71875 L 219.003906 119.070313 L 213.828125 117.148438 L 210.554688 115.496094 L 207.722656 114.679688 L 205.339844 113.324219 L 209.105469 117.507813 L 210.648438 118.34375 L 211.351563 119.613281 L 214.710938 122.125 L 216.859375 124.664063 Z M 206.640625 39.449219 L 205.773438 39.667969 L 206.695313 41.511719 L 209.464844 43.359375 L 212.992188 46.699219 L 217.675781 50.882813 L 219.050781 52.582031 L 220.320313 53.417969 L 222.070313 53.761719 L 223.371094 53.367188 L 227.71875 53.789063 L 227.710938 53.40625 L 232.503906 54.277344 L 237.289063 55.894531 L 240.691406 56.984375 L 239.820313 56.117188 L 234.574219 51.871094 L 234.238281 51.183594 L 231.628906 49.445313 L 228.804688 46.617188 L 226.871094 45.628906 L 226.078125 44.410156 L 224.339844 43.105469 L 220.789063 41.71875 L 220.308594 41.960938 L 218.136719 41.089844 L 216.007813 40.414063 L 215.527344 40.65625 L 214.03125 40.101563 L 210.988281 39.667969 L 210.117188 39.449219 Z M 211.1875 128.621094 L 222.804688 133.785156 L 222.382813 132.515625 L 218.808594 129.835938 L 218.039063 128.292969 L 216.636719 127.664063 L 211.1875 125.570313 L 206.640625 123.753906 L 208.675781 126.195313 L 210.273438 127.074219 Z M 209.449219 134.699219 L 207.726563 134.183594 L 207.308594 134.535156 L 209.03125 135.050781 Z M 206.921875 65.242188 L 204.902344 69.652344 L 206.496094 70.449219 L 206.894531 71.054688 L 213.785156 76.925781 L 215.542969 78.613281 L 217.722656 79.429688 L 218.710938 77.015625 L 219.582031 75.277344 L 222.070313 73.777344 L 222.46875 73.03125 L 221.484375 72.679688 L 215.117188 67.261719 L 214.800781 66.585938 L 212.457031 64.792969 L 209.683594 62.480469 Z M 210.78125 135.421875 L 209.164063 134.921875 L 209.996094 136.175781 L 211.183594 137.320313 L 213.402344 138.429688 L 214.03125 139.398438 L 215.09375 140.363281 L 216.78125 141.207031 L 217.210938 138.210938 L 214.667969 137.296875 Z M 214.898438 29.886719 L 210.554688 28.585938 L 210.515625 28.804688 L 218.316406 34.878906 L 219.050781 36.070313 L 220.980469 37.058594 L 224.023438 40.101563 L 225.96875 41.253906 L 229.023438 42.027344 L 236.878906 45.652344 L 240.34375 47.171875 L 247.183594 50.027344 L 244.589844 47 L 242.992188 46.121094 L 242.082031 44.761719 L 240.753906 44.230469 L 238.011719 41.855469 L 237.253906 40.65625 L 235.128906 39.546875 L 234.257813 38.046875 L 232.519531 37.179688 L 231.613281 36.492188 L 222.074219 32.441406 L 217.941406 31.191406 Z M 216.410156 109.480469 L 210.988281 107.675781 L 212.160156 109.238281 L 214.726563 110.847656 L 216.441406 112.988281 L 218.171875 114.117188 L 219.902344 116.417969 L 224.652344 118.875 L 225.132813 118.636719 L 228.128906 120.179688 L 228.609375 119.9375 L 230.542969 120.929688 L 232.070313 121.199219 L 236.84375 123.320313 L 237.132813 123.320313 L 236.71875 122.078125 L 234.199219 120.398438 L 230.601563 117.027344 L 229.769531 115.738281 L 226.015625 112.574219 L 222.71875 111.804688 L 222.140625 111.222656 L 221.609375 111.488281 L 218.09375 110 L 217.070313 109.628906 Z M 214.464844 114.628906 L 214.898438 114.628906 L 214.898438 114.191406 L 214.464844 114.191406 Z M 217.941406 38.578125 L 218.375 38.578125 L 218.375 38.144531 L 217.941406 38.144531 Z M 220.339844 102.824219 L 218.722656 102.328125 L 219.558594 103.582031 L 221.570313 104.914063 L 222.875 106.652344 L 225.992188 108.910156 L 226.5625 110.054688 L 229.414063 111.0625 L 229.964844 110.789063 L 230.6875 111.511719 L 231.21875 111.25 L 235.082031 112.359375 L 235.5625 112.117188 L 238.558594 112.792969 L 239.039063 112.550781 L 242.277344 113.105469 L 244.015625 113.105469 L 246.902344 112.734375 L 245.164063 110.996094 L 243.023438 109.230469 L 241.527344 106.984375 L 238.105469 104.546875 L 237.710938 103.761719 L 236.867188 102.796875 L 234.671875 102.460938 L 232.5 103.347656 L 222.9375 102.894531 L 222.949219 103.261719 L 220.332031 102.460938 Z M 211.75 60.496094 L 211.449219 61.394531 L 214.734375 64.074219 L 224.207031 72.15625 L 225.546875 72.449219 L 231.316406 71.410156 L 235.953125 71.269531 L 236.84375 71.605469 L 237.214844 70.890625 L 234.792969 69.671875 L 234.019531 68.128906 L 232.476563 67.359375 L 230.976563 65.523438 L 229.238281 64.652344 L 227.5 62.699219 L 226.488281 62.191406 L 225.859375 60.984375 L 223.058594 59.246094 L 222.207031 57.542969 L 219.894531 57.265625 L 218.09375 57.980469 L 212.941406 59.875 Z M 240.972656 141.789063 L 244.535156 143.046875 L 244.109375 142.199219 L 239.234375 137.441406 L 238.191406 137.09375 L 233.382813 134.691406 L 232.046875 134.269531 L 223.996094 131.085938 L 224.457031 132.007813 L 226.003906 132.78125 L 226.945313 134.363281 L 229.871094 136.882813 Z M 242.277344 38.363281 L 245.535156 39.449219 L 245.726563 37.925781 L 245.414063 36.648438 L 245.84375 35.476563 L 242.503906 33.730469 L 237.703125 32.128906 L 224.425781 26.8125 L 227.78125 30.167969 L 233.550781 34.890625 L 234.242188 35.050781 L 236.851563 35.910156 Z M 245.007813 72.195313 L 247.082031 72.609375 L 247.890625 62.914063 L 247.707031 62.914063 L 242.078125 60.214844 L 239.910156 59.101563 L 239.429688 59.339844 L 234.65625 57.621094 L 232.28125 57.046875 L 230.542969 57.046875 L 227.5 56.613281 L 224.738281 56.550781 L 224.710938 57.386719 L 226.042969 58.289063 L 226.914063 59.59375 L 230.207031 61.851563 L 230.785156 62.8125 L 237.902344 68.78125 L 238.644531 70.023438 L 241.28125 71.785156 L 244.644531 72.378906 Z M 226.195313 32.0625 L 226.632813 32.0625 L 226.632813 31.625 L 226.195313 31.625 Z M 248.792969 138.09375 L 254.878906 139.832031 L 251.246094 136.203125 L 250 134.8125 L 246.839844 132.007813 L 244.449219 130.269531 L 242.492188 128.097656 L 242.132813 127.375 L 241.210938 126.890625 L 240.730469 127.132813 L 239.472656 126.457031 L 238.992188 126.699219 L 233.867188 124.902344 L 230.332031 123.261719 L 226.324219 122.175781 L 227.800781 124.019531 L 230.160156 125.714844 L 230.769531 126.726563 L 233.777344 129.066406 L 235.167969 130.859375 L 237.214844 132.289063 L 238.550781 134.292969 L 244.710938 136.660156 L 245.535156 136.761719 Z M 244.101563 82.269531 L 244.949219 80.070313 L 239.015625 79.429688 L 234.453125 80.078125 L 232.917969 80.65625 L 230.300781 81.503906 L 228.585938 83.339844 L 227.71875 85.078125 L 227.046875 87.03125 L 226.125 94.78125 L 230.332031 93.816406 L 233.417969 92.757813 L 237.253906 90.390625 L 239.667969 88.554688 L 241.1875 86.816406 Z M 231.203125 46.34375 L 232.824219 46.945313 L 231.847656 45.96875 L 231.410156 45.96875 Z M 232.0625 114.191406 L 231.410156 114.191406 L 235.042969 117.824219 L 236.808594 119.285156 L 238.144531 121.179688 L 241.40625 123.535156 L 242.667969 124.796875 L 247.683594 126.261719 L 248.164063 126.023438 L 252.03125 127.132813 L 252.511719 126.890625 L 254.636719 127.566406 L 254.921875 127.425781 L 262.484375 127.664063 L 262.699219 127.445313 L 261.832031 126.359375 L 259.804688 124.347656 L 254.089844 119.640625 L 252.464844 117.570313 L 250.433594 116.125 L 242.710938 116.148438 L 238.800781 115.714844 Z M 233.148438 132.445313 L 233.585938 132.445313 L 233.585938 132.007813 L 233.148438 132.007813 Z M 234.246094 47.207031 L 232.59375 46.699219 L 235.613281 50.148438 L 237.640625 51.039063 L 238.179688 51.933594 L 245.058594 57.828125 L 247.882813 59.875 L 247.90625 58.785156 L 247.230469 52.792969 L 245.753906 52.050781 L 243.351563 51.246094 L 237.855469 48.804688 L 237.351563 48.210938 L 236.820313 48.476563 Z M 241.171875 40.398438 L 239.449219 39.882813 L 239.03125 40.238281 L 240.753906 40.753906 Z M 246.046875 42.324219 L 240.832031 40.585938 L 243.144531 43.359375 L 246.773438 46.082031 Z M 244.449219 143.308594 L 244.882813 143.308594 L 244.882813 142.875 L 244.449219 142.875 Z M 249.453125 140.644531 L 244.882813 139.398438 L 246.5 141.824219 L 247.492188 142.222656 L 251.035156 145.6875 L 254.640625 147.308594 L 257.695313 148.578125 L 260.746094 149.355469 L 265.949219 151.628906 L 267.542969 152.09375 L 266.609375 150.695313 L 265.683594 149.601563 L 261.425781 146.136719 L 261.167969 145.550781 L 258.480469 143.484375 L 251.183594 141.570313 Z M 250.742188 129.453125 L 246.242188 128.585938 L 247.054688 129.402344 L 250.96875 133.097656 L 251.835938 133.53125 L 254.007813 135.484375 L 254.878906 136.355469 L 258.546875 140.363281 L 260.285156 141.234375 L 263.761719 142.34375 L 264.242188 142.101563 L 266.175781 142.65625 L 269.652344 143.089844 L 277.257813 143.335938 L 278.632813 142.710938 L 275.011719 138.691406 L 269.742188 134.417969 L 268.109375 132.347656 L 265.960938 130.683594 L 263.761719 131.042969 L 260.09375 130.921875 L 255.546875 130.351563 L 251.246094 129.554688 Z M 242.074219 100.363281 L 238.753906 101.535156 L 240.402344 103.59375 L 241.601563 104.101563 L 242.972656 105.804688 L 249.824219 112.089844 L 253.363281 111.203125 L 256.769531 109.566406 L 259.09375 107.933594 L 256.746094 104.804688 L 254.164063 103.175781 L 252.859375 101.4375 L 250.847656 100.105469 L 249.148438 97.5625 L 247.269531 96.847656 L 244.230469 98.957031 Z M 253.355469 90.726563 L 252.46875 91.070313 L 250.054688 93.980469 L 249.691406 95.292969 L 250.464844 96.582031 L 253.835938 99.113281 L 255.550781 101.253906 L 257.582031 102.699219 L 258.257813 103.957031 L 260.292969 105.582031 L 261.34375 105.992188 L 264.15625 103.175781 L 264.871094 101.808594 L 259.222656 96.160156 L 258.160156 95.605469 L 256.769531 93.613281 L 254.976563 92.226563 Z M 256.433594 31.070313 L 253.847656 29.34375 L 254.78125 34.472656 L 258.355469 37.929688 L 259.222656 38.363281 L 265.5 44.761719 L 266.34375 45.183594 L 265.597656 39.957031 L 263.714844 37.871094 L 257.941406 33.148438 L 257.703125 32.496094 Z M 256.796875 39.136719 L 255.355469 38.175781 L 256.449219 44.089844 L 268.066406 54.8125 L 267.390625 49.902344 L 265.371094 47.207031 L 262.035156 44.730469 L 261.464844 43.589844 L 258.667969 41.367188 L 257.484375 39.667969 Z M 265.152344 98.828125 L 266.03125 99.707031 L 267.480469 97.027344 L 268.453125 93.410156 L 265.046875 90.855469 L 261.230469 86.675781 L 256.304688 82.574219 L 254.378906 87.023438 L 254.007813 88.335938 L 255.625 90.113281 L 257.554688 91.390625 L 258.179688 92.550781 L 261.613281 95.074219 L 262.578125 96.558594 Z M 265.914063 60.871094 L 269.390625 63.480469 L 268.453125 58.324219 L 266.175781 56.398438 L 263.414063 53.636719 L 261.722656 51.804688 L 258.136719 48.574219 L 257.289063 47.609375 L 256.617188 47.269531 L 256.6875 47.5 L 257.398438 50.945313 L 258.167969 53.464844 L 261.65625 56.09375 L 263.375 58.230469 L 265.40625 59.679688 Z M 268.976563 72.574219 L 269.84375 73.003906 L 269.402344 67.261719 L 269.652344 67.261719 L 267.621094 64.820313 L 261.910156 60.105469 L 260.285156 58.039063 L 258.160156 56.492188 L 257.679688 56.734375 L 257.867188 58.78125 L 257.597656 59.6875 L 258.136719 62.046875 L 262.265625 66.175781 L 263.132813 66.609375 Z M 259.484375 66.261719 L 257.746094 64.957031 L 258.257813 72.28125 L 262.265625 76.167969 L 263.132813 76.605469 L 268.976563 82.566406 L 269.835938 82.996094 L 270.128906 76.597656 L 269.585938 75.722656 L 266.109375 73.117188 L 265.40625 71.847656 L 263.375 70.398438 L 261.675781 68.285156 Z M 266.875 89.289063 L 269.386719 91.296875 L 269.316406 87.492188 L 269.675781 85.726563 L 265.339844 82.253906 L 265.019531 81.457031 L 263.789063 80.773438 L 261.660156 78.261719 L 259.484375 76.257813 L 257.855469 75.035156 L 257.085938 79.648438 L 258.113281 81.261719 L 259.464844 81.9375 L 263.003906 85.773438 L 265.359375 87.472656 L 266.03125 88.699219 Z M 266.609375 114.84375 L 262.570313 110.804688 L 261.214844 111.707031 L 256.660156 113.972656 L 253.574219 115.0625 L 254.441406 116.800781 L 257.746094 119.277344 L 258.257813 120.472656 L 260.285156 121.917969 L 262.003906 124.058594 L 265.523438 126.8125 L 269.011719 125.988281 L 272.816406 124.367188 L 275.148438 122.730469 L 269.652344 117.234375 L 267.480469 115.277344 Z M 264.871094 36.40625 L 265.308594 36.40625 L 265.308594 35.972656 L 264.871094 35.972656 Z M 265.089844 145.046875 L 264.003906 145.046875 L 266.46875 147.921875 L 267.480469 148.304688 L 272.738281 153.515625 L 278.996094 155.503906 L 280.710938 155.8125 L 281.191406 155.574219 L 282.691406 156.128906 L 285.296875 156.5625 L 289.425781 157.210938 L 293.039063 156.957031 L 293.554688 157.214844 L 293.652344 156.539063 L 290.945313 154.605469 L 282.535156 146.195313 L 280.734375 145.933594 L 276.171875 146.566406 L 274.433594 146.566406 L 269.917969 146.050781 Z M 266.175781 45.53125 L 266.609375 45.53125 L 266.609375 45.097656 L 266.175781 45.097656 Z M 275.925781 120.378906 L 277.261719 121.101563 L 280.082031 117.667969 L 280.878906 117.089844 L 280.515625 116.367188 L 268.5 105.207031 L 267.691406 105.554688 L 265.667969 107.878906 L 264.910156 109.632813 L 266.417969 111.683594 L 267.691406 112.410156 L 269.839844 114.949219 L 273.199219 117.464844 L 273.902344 118.734375 Z M 281.566406 59.992188 L 282.640625 60.707031 L 281.449219 55.300781 L 280.804688 54.367188 L 280.082031 54.007813 L 274.433594 48.140625 L 273.5625 47.269531 L 272.078125 45.847656 L 269.832031 44.347656 L 270.863281 49.683594 L 272.019531 50.84375 L 273.371094 51.519531 L 275.136719 53.644531 L 281.121094 59.140625 Z M 272.261719 53.789063 L 271.433594 53.375 L 272.59375 59.246094 L 279.214844 65.523438 L 281.820313 68.128906 L 284.164063 70.003906 L 283.484375 64.855469 L 281.179688 61.984375 L 277.734375 59.527344 L 277.109375 58.363281 L 274.3125 56.144531 L 273.128906 54.441406 Z M 281.019531 113.550781 L 281.601563 114.628906 L 282.039063 114.628906 L 283.175781 112.679688 L 284.449219 108.703125 L 282.507813 107.359375 L 281.191406 105.40625 L 279.84375 104.730469 L 276.875 101.453125 L 271.980469 97.371094 L 271.109375 98.828125 L 270.183594 100.960938 L 269.316406 102.699219 L 269.722656 103.558594 L 273.199219 106.164063 L 273.902344 107.433594 L 275.929688 108.882813 L 277.648438 111.019531 Z M 284.195313 77.769531 L 285.40625 78.234375 L 284.984375 77 L 285.253906 76.164063 L 284.707031 73.5 L 282.0625 71.507813 L 280.671875 69.714844 L 278.597656 68.25 L 277.261719 66.355469 L 273.824219 63.871094 L 273.371094 62.816406 L 272.695313 62.480469 L 272.773438 62.710938 L 273.347656 66.824219 L 273.878906 68.308594 L 276.726563 70.554688 L 277.765625 72.039063 L 280.710938 74.3125 L 282.101563 76.105469 Z M 275.992188 72.789063 L 273.382813 71.050781 L 273.902344 77.0625 L 276.605469 79.863281 L 277.476563 80.730469 L 279.214844 82.46875 L 281.820313 84.207031 L 284.429688 87.25 L 285.515625 88.121094 L 285.914063 88.121094 L 285.515625 83.339844 L 284.929688 81.828125 L 283.992188 81.167969 L 283.125 80.296875 L 282.253906 79.429688 L 278.34375 75.082031 L 277.476563 74.214844 Z M 273.78125 90.292969 L 273.203125 90.292969 L 273.523438 91.382813 L 272.710938 93.550781 L 273.0625 94.867188 L 273.828125 95.804688 L 279.808594 101.300781 L 281.046875 102.21875 L 281.722656 103.570313 L 284.195313 105.585938 L 285.40625 106.042969 L 285.046875 104.972656 L 285.386719 100.484375 L 281.648438 97.765625 L 281.019531 96.605469 L 278.222656 94.382813 L 277.355469 93.082031 Z M 274.671875 81.070313 L 274.191406 80.828125 L 273.550781 82.6875 L 273.902344 87.054688 L 279.214844 92.464844 L 281.820313 94.203125 L 284.429688 97.246094 L 285.515625 98.113281 L 286.167969 94.855469 L 285.789063 91.371094 L 285.070313 90.359375 L 282.0625 88.023438 L 280.671875 86.226563 L 278.597656 84.761719 L 277.269531 82.835938 Z M 277.589844 138.777344 L 281.566406 141.882813 L 284.644531 141.15625 L 288.871094 138.769531 L 290.078125 137.441406 L 289.273438 135.695313 L 281.671875 129.242188 L 278.5625 125.925781 L 276.808594 126.714844 L 271.640625 129.289063 L 269.484375 129.703125 L 269.566406 131.375 L 273.199219 133.976563 L 273.902344 135.246094 L 275.929688 136.691406 Z M 283.992188 70.300781 L 284.429688 70.300781 L 284.429688 69.867188 L 283.992188 69.867188 Z M 291.582031 135.132813 L 292.46875 135.484375 L 293.429688 133.925781 L 295.652344 130.851563 L 293.554688 128.96875 L 290.792969 126.207031 L 289.101563 124.375 L 285.515625 121.144531 L 284.667969 120.179688 L 284.1875 119.9375 L 280.582031 124.285156 L 282.132813 126.613281 L 284.148438 127.945313 L 285.449219 129.683594 L 288.84375 132.238281 L 289.546875 133.507813 Z M 287.902344 61.175781 L 286 59.75 L 286.746094 64.21875 L 287.710938 65.621094 L 288.917969 66.246094 L 289.589844 67.472656 L 293.214844 70.542969 L 294.140625 71.886719 L 295.492188 72.992188 L 296.5625 73.40625 L 296.933594 72.667969 L 296.378906 69.867188 L 295.945313 69 L 290.511719 63.785156 Z M 289.035156 69.738281 L 287.515625 68.597656 L 288.707031 74.875 L 293.011719 78.3125 L 294.703125 80.144531 L 297.464844 82.90625 L 298.382813 83.363281 L 297.128906 77.449219 L 294.953125 75.277344 L 293.457031 74.40625 L 292.753906 73.136719 L 289.859375 70.738281 Z M 289.011719 112.800781 L 287.6875 112.429688 L 285.679688 116.578125 L 285.289063 118.320313 L 288.800781 120.929688 L 289.496094 122.160156 L 290.511719 122.667969 L 295.921875 128.195313 L 296.914063 128.566406 L 297.898438 124.621094 L 298.636719 122.710938 L 297.335938 120.972656 L 296.765625 120.414063 L 290.78125 114.917969 Z M 288.773438 78.125 L 289.207031 78.125 L 289.207031 77.691406 L 288.773438 77.691406 Z M 289.882813 78.898438 L 288.992188 78.558594 L 288.992188 80.296875 L 289.488281 83.058594 L 292.371094 85.332031 L 293.167969 86.605469 L 297.660156 90.824219 L 299.375 91.683594 L 298.796875 87.03125 L 297.367188 86.140625 L 296.664063 84.871094 L 293.867188 82.652344 L 292.828125 81.167969 Z M 291.996094 106.925781 L 289.386719 105.1875 L 288.894531 106.550781 L 289.28125 107.675781 L 288.617188 107.675781 L 289.039063 110.632813 L 290.75 111.488281 L 297.683594 118.539063 L 299.421875 119.40625 L 300.070313 117.015625 L 299.808594 114.308594 L 297.210938 112.574219 L 296.664063 111.378906 L 293.867188 109.160156 L 292.683594 107.457031 Z M 291.816406 88.121094 L 289.472656 86.246094 L 289.980469 92.269531 L 292.25 94.636719 L 293.117188 95.507813 L 294.855469 97.246094 L 297.644531 99.972656 L 300.253906 101.710938 L 299.734375 95.703125 L 294.421875 90.726563 Z M 291.1875 96.277344 L 289.449219 95.410156 L 289.980469 102.265625 L 292.25 104.414063 L 292.90625 104.683594 L 294.703125 106.652344 L 297.464844 109.414063 L 300.671875 112.160156 L 300.167969 104.828125 L 298.867188 103.523438 L 297.367188 102.652344 L 296.664063 101.382813 L 293.1875 98.777344 L 292.902344 98.113281 Z M 285.199219 144.804688 L 284.960938 145.285156 L 285.320313 146.132813 L 291.089844 150.855469 L 293.117188 152.867188 L 293.988281 153.738281 L 296.371094 156.390625 L 300.738281 155.113281 L 304.546875 153.128906 L 305.589844 151.738281 L 304.792969 150.46875 L 300.539063 147.003906 L 300.214844 146.207031 L 298.988281 145.523438 L 296.890625 143.039063 L 293.773438 140.296875 L 292.886719 140.625 L 286.8125 144.222656 Z M 296.59375 73.777344 L 297.03125 73.777344 L 297.03125 73.34375 L 296.59375 73.34375 Z M 307.226563 149.90625 L 308.109375 150.261719 L 308.632813 149.132813 L 311.238281 145.65625 L 306.15625 141.136719 L 304.851563 139.832031 L 303.984375 138.960938 L 301.375 135.921875 L 300.3125 134.953125 L 298.914063 134.253906 L 297.683594 135.484375 L 296.8125 137.222656 L 295.363281 138.671875 L 295.726563 139.398438 L 300.773438 143.605469 L 301.808594 144.613281 L 305.382813 148.28125 Z M 299.203125 92.03125 L 299.636719 92.03125 L 299.636719 91.597656 L 299.203125 91.597656 Z M 300.070313 102.023438 L 300.507813 102.023438 L 300.507813 101.589844 L 300.070313 101.589844 Z M 301.375 73.777344 L 300.507813 72.910156 L 300.542969 74 L 300.886719 75.292969 L 300.617188 76.199219 L 301.171875 78.621094 L 304.636719 81.167969 L 305.601563 82.652344 L 308.398438 84.871094 L 308.9375 86.074219 L 311.101563 87.390625 L 309.957031 80.484375 L 308.074219 79.984375 L 305.285156 78.125 L 304.417969 76.386719 L 302.875 75.613281 Z M 305.015625 84.785156 L 301.703125 81.945313 L 302.574219 87.929688 L 304.515625 89.230469 L 305.21875 90.5 L 308.109375 92.898438 L 308.933594 93.902344 L 312.816406 96.945313 L 312.378906 95.238281 L 312.628906 94.414063 L 312.023438 91.597656 L 310.066406 89.640625 L 309.054688 89.132813 L 308.382813 87.910156 Z M 303.730469 126.914063 L 302.183594 125.886719 L 300.179688 131.902344 L 305.285156 137.007813 L 306.15625 137.441406 L 311.949219 143.234375 L 312.675781 142.875 L 312.335938 142.199219 L 313.109375 140.917969 L 313.976563 137.007813 L 312.460938 135.015625 L 309.023438 132.53125 L 308.398438 131.367188 L 305.601563 129.148438 L 304.417969 127.445313 Z M 304.679688 92.335938 L 302.941406 91.03125 L 303.714844 96.515625 L 308.597656 100.582031 L 309.632813 101.589844 L 313.304688 105.597656 L 313.878906 105.886719 L 313.148438 100.933594 L 312.308594 99.644531 L 308.9375 97.113281 L 307.21875 94.976563 L 305.1875 93.527344 Z M 304.65625 100.191406 L 303.796875 99.757813 L 304.300781 104.382813 L 305.101563 106.917969 L 308.589844 109.542969 L 310.308594 111.683594 L 312.335938 113.128906 L 312.851563 114.320313 L 315.015625 115.636719 L 314.628906 111.152344 L 314.09375 109.230469 L 310.359375 106.207031 L 308.328125 104.199219 L 307.460938 103.328125 Z M 304.664063 118.863281 L 303.707031 118.519531 L 303.046875 123.546875 L 305.285156 125.707031 L 306.15625 126.144531 L 313.738281 133.84375 L 314.628906 134.183594 L 315.339844 128.742188 L 313.03125 127.433594 L 312.308594 126.15625 L 308.9375 123.621094 L 307.21875 121.484375 L 305.1875 120.035156 Z M 305.441406 110 L 304.570313 109.132813 L 304.003906 113.976563 L 304.351563 115.722656 L 305.21875 117.007813 L 308.609375 119.5625 L 309.914063 121.300781 L 311.925781 122.628906 L 313.542969 125.058594 L 315.476563 126.023438 L 314.976563 118.714844 L 313.011719 117.429688 L 312.308594 116.160156 L 308.9375 113.628906 L 307.21875 111.488281 Z M 309.199219 78.558594 L 309.632813 78.558594 L 309.632813 78.125 L 309.199219 78.125 Z M 310.9375 87.683594 L 311.371094 87.683594 L 311.371094 87.25 L 310.9375 87.25 Z M 322.757813 99.519531 L 328.476563 103.914063 L 326.96875 98.308594 L 325.277344 97.460938 L 323.34375 95.410156 L 321.957031 94.714844 Z M 324.210938 103.230469 L 323.371094 102.8125 L 323.925781 106.695313 L 330.683594 112.117188 L 331.445313 112.5 L 329.96875 108.066406 L 328.511719 107.335938 L 328.089844 106.441406 L 325.09375 104.078125 Z M 331.359375 102.460938 L 331.792969 102.460938 L 331.792969 102.023438 L 331.359375 102.023438 Z M 334.402344 112.019531 L 334.835938 112.019531 L 334.835938 111.585938 L 334.402344 111.585938 Z M 334.402344 112.019531 "/>
</g>
</svg>
