<?xml version="1.0" encoding="UTF-8"?>
<svg xmlns="http://www.w3.org/2000/svg" xmlns:xlink="http://www.w3.org/1999/xlink" width="360pt" height="243pt" viewBox="0 0 360 243" version="1.1">
<g id="surface193">
<path style=" stroke:none;fill-rule:evenodd;fill:rgb(99.998474%,99.998474%,99.998474%);fill-opacity:1;" d="M 13.195313 205.96875 L 22.433594 205.335938 L 23.121094 210.710938 L 11.1875 211.121094 L 9.714844 211.613281 L 9.078125 212.5 L 8.0625 214.023438 L 23.460938 214.023438 L 23.910156 217.148438 L 24.355469 218.921875 L 15.652344 219.15625 L 14.757813 219.601563 L 13.765625 220.472656 L 12.972656 222.058594 L 24.132813 222.058594 L 24.332031 223.742188 L 27.480469 222.078125 L 36.210938 221.136719 L 37.039063 226.746094 L 39.964844 235.371094 L 45.300781 231.761719 L 46.226563 230.984375 L 48.679688 229.867188 L 49.636719 228.984375 L 49.230469 226.273438 L 52.472656 225.65625 L 53.847656 225.953125 L 57.382813 225.207031 L 58.753906 225.515625 L 60.957031 232.769531 L 61.378906 233.117188 L 62.964844 232.324219 L 64.527344 231.429688 L 64.800781 229.417969 L 63.1875 225.183594 L 62.742188 224.757813 L 75.25 222.980469 L 76.835938 227.1875 L 77.710938 232.425781 L 79.71875 231.515625 L 81.363281 230.339844 L 81.675781 229.417969 L 80.59375 226.519531 L 79.949219 223.621094 L 80.242188 222.242188 L 86.84375 221.175781 L 89.113281 221.484375 L 89.523438 222.949219 L 90.121094 225.417969 L 91.191406 230.082031 L 95.148438 227.644531 L 92.949219 220.53125 L 106.273438 218.753906 L 108.554688 225.597656 L 110.945313 224.289063 L 111.839844 223.398438 L 114.109375 222.183594 L 118.3125 219.378906 L 117.734375 215.925781 L 120.332031 214.992188 L 123.917969 213.238281 L 134.628906 207.875 L 140.421875 205.179688 L 149.804688 199.847656 L 155.171875 196.492188 L 156.058594 195.839844 L 163.582031 190.695313 L 173.894531 183.601563 L 174.820313 182.914063 L 182.339844 176.429688 L 184.136719 174.675781 L 186.378906 174.316406 L 193.128906 175.335938 L 198.875 175.644531 L 202.054688 175.046875 L 205.570313 173.867188 L 211.488281 170.476563 L 213.136719 168.84375 L 214.722656 168.050781 L 214.351563 167.304688 L 217.152344 164.378906 L 219.433594 160.5625 L 220.746094 158.230469 L 221.574219 155.710938 L 224.191406 148.613281 L 224.765625 145.285156 L 226.167969 140.089844 L 227.4375 132.300781 L 229.234375 132.734375 L 231.90625 134.574219 L 234.15625 135.378906 L 243.914063 140.953125 L 245.761719 142.070313 L 254.894531 146.625 L 272.53125 155.605469 L 274.320313 156.378906 L 278.101563 157.785156 L 280.78125 159.125 L 284.796875 160.460938 L 291.652344 162.851563 L 297.101563 164.140625 L 301.089844 164.929688 L 305.984375 164.566406 L 311.210938 163.796875 L 314.503906 162.347656 L 318.074219 160.5625 L 321.027344 157.128906 L 322.863281 153.136719 L 324.289063 149.820313 L 325.398438 139.707031 L 324.546875 126.480469 L 327.425781 128.363281 L 328.367188 129.523438 L 347.0625 145.714844 L 351.820313 143.570313 L 348.179688 139.929688 L 347.285156 139.039063 L 344.609375 137.253906 L 341.039063 133.679688 L 338.582031 131.894531 L 337.121094 130.804688 L 336.722656 129.960938 L 335.648438 129.445313 L 334.195313 125.546875 L 336.835938 127.308594 L 337.691406 128.324219 L 339.796875 129.863281 L 340.492188 131.25 L 343.144531 132.972656 L 343.960938 134.226563 L 345.054688 134.796875 L 347.0625 136.84375 L 349.070313 136.359375 L 347.425781 134.300781 L 346.195313 133.136719 L 337.328125 125.917969 L 333.226563 121.628906 L 332.058594 119.628906 L 331.105469 116.609375 L 332.445313 117.054688 L 336.128906 120.738281 L 337.21875 121.730469 L 338.605469 122.421875 L 339.796875 121.875 L 340.144531 121.183594 L 338.359375 120.292969 L 334.789063 116.71875 L 332.335938 114.933594 L 330.957031 113.917969 L 329.644531 112.1875 L 327.796875 111.214844 L 327.414063 110.542969 L 324.59375 108.472656 L 324.289063 107.863281 L 321.421875 105.785156 L 318.308594 91.945313 L 314.9375 90.3125 L 312.6875 89.554688 L 310.6875 88.601563 L 308.636719 87.351563 L 309.078125 91.414063 L 306.9375 89.804688 L 306.074219 89.195313 L 305.554688 88.152344 L 304.238281 86.714844 L 302.851563 86.023438 L 301.082031 83.636719 L 299.78125 82.914063 L 299.472656 80.335938 L 297.898438 74.171875 L 296.640625 73.347656 L 294.109375 72.4375 L 295.117188 77.480469 L 293.457031 76.238281 L 292.386719 75.210938 L 290.15625 72.976563 L 289.261719 72.085938 L 287.253906 69.855469 L 286.882813 69.109375 L 285.9375 68.613281 L 285.074219 67.320313 L 284.796875 64.945313 L 283.707031 60.378906 L 280.171875 58.613281 L 280.875 62.816406 L 279.640625 62.367188 L 277.65625 60.480469 L 273.640625 56.464844 L 269.410156 51.929688 L 268.621094 49.515625 L 268.058594 45.304688 L 267.738281 44.613281 L 265.804688 43.621094 L 264.019531 42.726563 L 264.910156 47.1875 L 264.019531 46.742188 L 252.882813 35.484375 L 252.4375 31.46875 L 251.886719 29.492188 L 249.339844 28.238281 L 245.761719 26.46875 L 243.933594 25.320313 L 242.148438 24.425781 L 241.601563 26.757813 L 241.949219 27.449219 L 242.855469 28.566406 L 243.617188 35.53125 L 239.511719 33.613281 L 237.683594 32.460938 L 233.714844 30.476563 L 230.988281 28.890625 L 224.542969 25.664063 L 217.203125 21.992188 L 208.273438 17.535156 L 202.464844 14.417969 L 196.21875 11.738281 L 187.726563 7.746094 L 184.960938 6.894531 L 181.691406 9.597656 L 177.328125 12.96875 L 167.957031 21.003906 L 165.625 23.433594 L 164.730469 24.328125 L 159.175781 29.78125 L 157.265625 32.175781 L 153.449219 37.902344 L 149.929688 43.730469 L 148.136719 49.53125 L 146.277344 55.40625 L 145.976563 84.359375 L 146.425781 88.824219 L 145.761719 97.082031 L 111.816406 116.375 L 110.921875 117.066406 L 98.671875 124.753906 L 94.007813 127.53125 L 77.929688 138.214844 L 77.035156 138.96875 L 70.8125 143.625 L 67.167969 146.054688 L 66.089844 147.296875 L 65.046875 147.816406 L 64.695313 148.640625 L 61.679688 150.859375 L 61.277344 151.734375 L 59.234375 153.164063 L 57.730469 155.292969 L 55.894531 156.65625 L 55.074219 158.0625 L 49.429688 164.648438 L 48.902344 165.816406 L 46.996094 167.851563 L 43.183594 173.578125 L 42.589844 174.585938 L 39.882813 179.027344 L 37.042969 185.230469 L 36.222656 189.703125 L 35.25 191.925781 L 34.398438 196.394531 L 33.503906 196.839844 L 29.042969 197.285156 L 12.972656 197.730469 L 11.933594 198.253906 L 11.476563 199.453125 L 9.285156 202.160156 L 7.179688 205.839844 L 9.625 205.542969 L 10.066406 205.941406 L 12.75 205.542969 Z M 33.953125 207.105469 L 33.304688 204.300781 L 26.636719 205.042969 L 27.367188 210.898438 L 27.925781 210.898438 L 33.648438 210.28125 Z M 33.503906 218.710938 L 35.066406 218.488281 L 35.296875 217.371094 L 34.21875 212.820313 L 27.480469 213.578125 L 27.257813 215.140625 L 27.925781 219.378906 Z M 58.722656 180.546875 L 59.769531 178.457031 L 51.582031 179.195313 L 48.679688 179.878906 L 47.589844 180.449219 L 46.171875 183.820313 L 45.78125 186.796875 L 44.886719 190.367188 L 44.441406 193.046875 L 44.21875 193.492188 L 45.78125 193.492188 L 55.550781 191.847656 L 56.210938 189.242188 L 58.410156 183.023438 Z M 52.921875 206.4375 L 55.152344 205.988281 L 55.375 194.382813 L 55.152344 194.382813 L 45.558594 195.945313 L 44.09375 196.355469 L 44.441406 205.542969 L 44.882813 207.277344 L 46.894531 206.882813 L 47.113281 207.28125 Z M 48.515625 223.707031 L 58.125 222.335938 L 57.0625 218.085938 L 47.308594 219.480469 Z M 56.433594 215.511719 L 55.289063 208.585938 L 45.296875 210.011719 L 46.441406 216.886719 Z M 48.964844 177.128906 L 61.085938 175.433594 L 62.316406 172.414063 L 64.351563 169.617188 L 65.117188 167.367188 L 65.953125 166.441406 L 69.78125 160.722656 L 71.753906 158.40625 L 75.507813 153.765625 L 74.347656 153.765625 L 64.910156 155.261719 L 55.953125 166.082031 L 52.988281 169.992188 L 52.003906 171.96875 L 50.019531 174.96875 Z M 75.460938 179.207031 L 76.445313 176.039063 L 63.007813 177.957031 L 61.984375 181.199219 L 61.539063 183.464844 L 60.023438 188.582031 L 59.839844 191.261719 L 61.402344 191.261719 L 72.933594 189.390625 L 73.738281 184.796875 L 74.347656 181.886719 Z M 60.726563 214.886719 L 73.257813 213.09375 L 72.242188 205.988281 L 72.113281 205.988281 L 59.472656 207.984375 Z M 59.242188 205.261719 L 71.710938 203.628906 L 72.113281 196.167969 L 72.117188 192.183594 L 59.617188 193.9375 L 58.855469 194.585938 Z M 74.46875 220.027344 L 73.929688 215.921875 L 65.417969 216.683594 L 61.933594 217.324219 L 61.609375 220.496094 L 62.292969 222.058594 L 63.632813 222.058594 L 74.222656 220.519531 Z M 64.613281 175.117188 L 77.492188 173.308594 L 79.96875 169.171875 L 81.144531 166.453125 L 84.722656 160.207031 L 87.820313 156.171875 L 91.558594 151.5 L 78.558594 153.355469 L 76.042969 156.710938 L 74.347656 158.230469 L 74.035156 159.363281 L 71.773438 162.058594 L 69.558594 165.125 L 68.765625 166.710938 L 65.136719 172.730469 Z M 94.308594 137.050781 L 94.742188 136.1875 L 91.308594 136.804688 L 91.3125 136.40625 L 87.570313 137.195313 L 85.886719 138.878906 L 81.539063 141.414063 L 75.460938 146.179688 L 69.113281 151.289063 L 68.679688 152.152344 L 77.035156 151.019531 L 78.585938 150.417969 L 82.15625 146.625 L 84.164063 144.839844 L 86.398438 143.5 L 88.40625 141.714844 L 90.925781 139.195313 Z M 84.164063 188.136719 L 86.457031 187.539063 L 86.941406 183.933594 L 89.339844 177.648438 L 90.121094 174.128906 L 80.941406 175.355469 L 79.746094 175.949219 L 77.65625 181.660156 L 76.796875 188.855469 Z M 76.179688 202.921875 L 85.539063 201.585938 L 85.28125 195.5 L 85.949219 190.8125 L 85.953125 190.398438 L 76.578125 191.707031 L 75.886719 193.714844 Z M 77.464844 212.734375 L 86.78125 211.417969 L 85.578125 204.195313 L 76.132813 205.542969 L 76.386719 206.214844 Z M 79.226563 219.765625 L 88.074219 218.503906 L 86.953125 214.007813 L 77.792969 215.316406 L 78.585938 218.710938 Z M 80.816406 172.960938 L 81.265625 172.960938 L 81.265625 172.511719 L 80.816406 172.511719 Z M 110.375 134.375 L 110.664063 133.800781 L 99.339844 135.46875 L 97.621094 136.515625 L 93.578125 140.054688 L 92.644531 140.824219 L 90.582031 141.933594 L 83.714844 148 L 82.761719 149.144531 L 81.671875 150.234375 L 94.679688 148.375 L 97.199219 145.019531 L 99.316406 142.953125 L 104.632813 138.878906 L 106.996094 136.515625 Z M 105.691406 150.828125 L 106.683594 149.339844 L 94.683594 151.054688 L 90.945313 155.726563 L 88.992188 158.40625 L 86.976563 161.152344 L 86.351563 162.558594 L 84.230469 165.976563 L 82.695313 168.738281 L 81.109375 172.675781 L 92.085938 171.128906 L 93.761719 166.933594 L 94.855469 165.71875 L 97.214844 161.988281 L 100.78125 156.632813 L 102.429688 154.535156 L 105.144531 151.980469 Z M 89.652344 187.160156 L 102.582031 185.3125 L 103.582031 179.878906 L 105.144531 175.636719 L 105.730469 173.613281 L 106.28125 171.777344 L 93.835938 173.554688 L 93.246094 174.0625 L 92.472656 177.652344 L 91.492188 179.429688 Z M 101.945313 199.574219 L 102.433594 188.019531 L 89.941406 189.816406 L 89.285156 192.375 L 89.523438 199.742188 L 89.746094 201.078125 L 90.414063 201.078125 L 96.886719 199.964844 Z M 90.839844 210.839844 L 103.867188 208.976563 L 103.082031 204.433594 L 102.464844 201.972656 L 101.574219 201.972656 L 95.101563 203.089844 L 90.046875 203.484375 L 89.738281 207.105469 L 90.414063 209.558594 Z M 92.609375 217.925781 L 105.519531 216.207031 L 104.957031 212.277344 L 104.1875 211.503906 L 91.453125 213.339844 L 91.976563 216.480469 Z M 95.101563 136.359375 L 95.546875 136.359375 L 95.546875 135.914063 L 95.101563 135.914063 Z M 119.761719 150.449219 L 121.386719 147.390625 L 109.964844 149.125 L 107.285156 152.695313 L 102.101563 159.296875 L 99.457031 162.445313 L 98.761719 164.273438 L 96.785156 166.910156 L 95.210938 170.679688 L 107.375 168.941406 L 108.28125 168.121094 L 109.285156 165.570313 L 110.722656 162.695313 L 113.203125 158.777344 L 114.515625 157.335938 L 114.8125 156.210938 Z M 120.195313 119.644531 L 120.492188 119.054688 L 115.839844 119.761719 L 115.085938 120.492188 L 105.167969 126.640625 L 101.796875 128.324219 L 100.207031 129.554688 L 95.695313 132.195313 L 94.496094 133.394531 L 97.105469 132.835938 L 98.035156 133.121094 L 100.257813 132.441406 L 102.042969 131.550781 L 105.167969 129.566406 L 106.058594 128.871094 L 108.9375 126.984375 L 114.492188 122.871094 L 117.664063 121.285156 Z M 127.335938 132.144531 L 127.769531 131.277344 L 116.292969 132.859375 L 114.605469 133.414063 L 112.691406 134.890625 L 107.773438 138.453125 L 99.238281 145.921875 L 98.796875 146.441406 L 97.800781 147.929688 L 110.054688 146.179688 L 112.953125 143.277344 L 114.046875 142.707031 L 114.789063 141.488281 L 118.496094 138.46875 L 120.804688 136.929688 Z M 134.230469 118.207031 L 135.308594 117.128906 L 125.675781 118.503906 L 122.996094 120.292969 L 118.550781 123.058594 L 117.707031 123.703125 L 113.472656 126.328125 L 105.589844 131.003906 L 105.589844 131.867188 L 115.410156 130.542969 L 117.652344 129.148438 L 118.546875 128.394531 L 126.535156 122.855469 L 127.460938 122.078125 L 129.722656 120.847656 Z M 131.253906 178.316406 L 132.304688 177.265625 L 127.90625 177.871094 L 124.113281 178.984375 L 121.652344 179.59375 L 112.507813 181.441406 L 112.71875 189.40625 L 114.980469 188.667969 L 118.3125 186.351563 L 124.753906 182.671875 L 126.570313 181.441406 L 127.449219 180.617188 L 129.679688 179.28125 Z M 123.742188 192.449219 L 124.195313 191.542969 L 119.871094 192.121094 L 112.425781 193.699219 L 113.171875 197.558594 L 114.53125 197.140625 Z M 140.628906 130.109375 L 141.601563 129.136719 L 132.371094 130.539063 L 123.480469 137.371094 L 120.320313 139.484375 L 116.078125 143.054688 L 113.253906 145.882813 L 115.410156 145.285156 L 115.40625 145.699219 L 124.859375 144.320313 L 127.015625 142.160156 L 127.355469 141.457031 L 135.890625 133.984375 L 136.769531 132.945313 L 139.191406 131.203125 Z M 115.152344 170.054688 L 114.359375 174.203125 L 116.757813 173.472656 L 120.78125 171.699219 L 123.296875 170.429688 L 129.6875 166.65625 L 130.574219 165.890625 L 132.804688 164.550781 L 133.710938 163.585938 L 136.265625 162.046875 L 136.957031 160.660156 L 138.582031 159.691406 L 141.1875 156.699219 L 143.863281 152.234375 L 145.695313 148.570313 L 146.4375 143.277344 L 146.15625 132.648438 L 143.054688 134.460938 L 139.789063 137.023438 L 139.4375 137.847656 L 138.171875 138.589844 L 130.363281 146.625 L 127.417969 149.167969 L 124.476563 153.082031 L 123.75 154.898438 L 120.890625 158.476563 L 120.195313 159.816406 L 119.105469 162 Z M 145.636719 188.382813 L 146.0625 187.53125 L 130.582031 190.332031 L 120.328125 196.671875 L 118.074219 197.433594 L 114.160156 199.382813 L 113.761719 200.980469 L 127.019531 198.898438 L 131.46875 196.109375 L 133.726563 195.363281 L 139.933594 191.605469 L 142.214844 190.46875 Z M 114.292969 203.757813 L 116.078125 203.757813 L 116.078125 203.3125 L 114.292969 203.3125 Z M 137.726563 200.632813 L 137.726563 200.210938 L 126.570313 201.527344 L 124.316406 202.324219 L 114.832031 206.363281 L 115.707031 209.859375 L 116.238281 210.390625 L 120.75 208.585938 L 122.996094 207.773438 L 127.886719 205.449219 L 129.917969 204.203125 L 133.726563 202.507813 L 134.824219 201.75 L 135.820313 201.726563 Z M 150 174.300781 L 151.050781 173.25 L 145.324219 174.363281 L 138.136719 175.761719 L 136.824219 176.15625 L 135.9375 176.933594 L 127.972656 182.492188 L 126.503906 183.960938 L 123.445313 185.902344 L 117.933594 188.792969 L 117.578125 189.316406 L 116.457031 190.4375 L 127.453125 188.527344 L 130.128906 187.761719 L 132.753906 186.953125 L 133.710938 185.902344 L 135.488281 185.066406 L 141.738281 180.503906 L 142.636719 179.65625 L 145.316406 177.871094 L 146.207031 176.976563 L 148.5625 175.390625 Z M 153.285156 115.222656 L 154.019531 114.488281 L 152.902344 114.488281 L 140.382813 116.625 L 133.933594 120.292969 L 130.363281 122.523438 L 127.4375 124.40625 L 126.570313 125.199219 L 124.558594 126.316406 L 124.003906 126.734375 L 120.441406 128.972656 L 120.046875 129.761719 L 133.265625 127.84375 L 136.410156 125.992188 L 137.304688 125.300781 L 141.074219 122.523438 L 142.613281 121.53125 L 145.785156 119.945313 L 149.207031 117.859375 Z M 122.773438 116.273438 L 123.222656 116.273438 L 123.222656 115.828125 L 122.773438 115.828125 Z M 147.894531 163.847656 L 148.75 162.558594 L 145.984375 163.140625 L 140.023438 164.796875 L 139.664063 165.605469 L 135.964844 168.597656 L 133.6875 169.734375 L 129.335938 172.691406 L 123.957031 175.796875 L 123.09375 176.65625 L 130.574219 175.121094 L 133.039063 174.523438 L 136.609375 173.628906 L 138.398438 172.738281 L 140.382813 170.628906 L 141.96875 169.835938 L 142.761719 168.25 L 145.191406 166.464844 L 146.675781 164.378906 Z M 124.113281 191.707031 L 125.007813 191.707031 L 125.007813 191.261719 L 124.113281 191.261719 Z M 139.511719 108.238281 L 139.515625 107.832031 L 135.488281 108.628906 L 125.742188 114.199219 L 124.015625 115.132813 L 123.582031 116 L 127.027344 115.449219 L 133.488281 111.808594 Z M 127.683594 131.449219 L 128.128906 131.449219 L 128.128906 131.003906 L 127.683594 131.003906 Z M 132.148438 177.421875 L 132.59375 177.421875 L 132.59375 176.976563 L 132.148438 176.976563 Z M 132.148438 198.402344 L 132.59375 198.402344 L 132.59375 197.957031 L 132.148438 197.957031 Z M 153.796875 106.453125 L 153.796875 106.039063 L 144.863281 107.300781 L 132.371094 114.488281 L 132.367188 114.90625 L 141.746094 113.617188 L 149.367188 108.804688 Z M 162.5 185.457031 L 163.503906 184.453125 L 156.027344 185.433594 L 151.515625 186.488281 L 149.320313 187.761719 L 148.40625 188.46875 L 143.753906 191.707031 L 140.082031 193.691406 L 133.777344 197.21875 L 132.882813 198.113281 L 144.394531 196.277344 L 145.316406 196.582031 L 148.910156 194.285156 L 152.492188 191.828125 L 161.421875 186.226563 Z M 136.609375 186.796875 L 137.058594 186.796875 L 137.058594 186.351563 L 136.609375 186.351563 Z M 137.949219 200.1875 L 138.398438 200.1875 L 138.398438 199.742188 L 137.949219 199.742188 Z M 168.4375 170.996094 L 169.773438 169.210938 L 155.109375 172.414063 L 152.304688 174.511719 L 152.011719 175.191406 L 149.332031 176.976563 L 149.054688 177.652344 L 145.796875 180.21875 L 143.304688 181.886719 L 137.792969 185.617188 L 136.898438 186.507813 L 144.421875 185.480469 L 151.996094 183.75 L 158.222656 179.089844 L 160.613281 177.621094 Z M 164.832031 113.84375 L 165.265625 112.972656 L 158.769531 113.753906 L 157.300781 115.222656 L 151.089844 118.398438 L 145.347656 122.191406 L 143.054688 123.75 L 138.472656 126.539063 L 138.617188 126.953125 L 146.660156 125.707031 L 157.761719 118.363281 Z M 164.382813 160.261719 L 165.246094 158.539063 L 156.46875 160.417969 L 152.605469 161.652344 L 146.207031 168.050781 L 145.929688 168.726563 L 142.761719 170.929688 L 141.96875 172.511719 L 142.636719 172.511719 L 149.308594 170.828125 L 149.800781 171.074219 L 154.65625 169.949219 L 156.25 168.941406 L 159.375 165.816406 L 160.269531 164.925781 L 161.433594 163.730469 Z M 159.597656 96.632813 L 159.601563 96.214844 L 156.46875 96.597656 L 143.59375 103.933594 L 142.703125 104.828125 L 146.449219 104.085938 L 155.582031 98.867188 Z M 156.140625 153.066406 L 160.332031 145.734375 L 158.257813 145.734375 L 155.144531 147 L 154.566406 147.765625 L 152.5 150.777344 L 151.910156 151.796875 L 149.878906 154.84375 L 147.917969 157.171875 L 144.261719 161.28125 L 151.386719 159.503906 L 153.894531 155.738281 L 154.664063 155.007813 Z M 145.984375 187.6875 L 146.429688 187.6875 L 146.429688 187.242188 L 145.984375 187.242188 Z M 172.988281 103.777344 L 172.988281 103.355469 L 159.597656 105.140625 L 148.363281 111.660156 L 147.210938 112.816406 L 160.492188 110.9375 Z M 151.785156 103.777344 L 152.234375 103.777344 L 152.234375 103.328125 L 151.785156 103.328125 Z M 173.757813 95.097656 L 174.191406 94.230469 L 165.816406 95.40625 L 152.96875 102.59375 L 152.074219 103.488281 L 158.257813 102.882813 L 160.984375 102.300781 Z M 154.910156 158.675781 L 155.359375 158.675781 L 155.359375 158.230469 L 154.910156 158.230469 Z M 162.988281 139.265625 L 164.148438 135.054688 L 156.910156 136.863281 L 156.027344 142.160156 L 155.582031 143.5 L 155.578125 143.910156 L 161.300781 142.78125 Z M 156.25 183.226563 L 156.695313 183.226563 L 156.695313 182.78125 L 156.25 182.78125 Z M 170.140625 41.070313 L 170.625 39.132813 L 159.125 41.628906 L 158.429688 42.84375 L 157.628906 46.871094 L 156.683594 49.097656 L 156.097656 53.738281 L 161.386719 52.921875 L 167.085938 51.292969 L 167.632813 50.214844 L 168.179688 45.5625 Z M 167.546875 79.945313 L 168.046875 72.179688 L 163.191406 73.078125 L 162.699219 73.324219 L 156.621094 74.464844 L 156.351563 75.011719 L 156.890625 82.242188 Z M 167.085938 84.84375 L 168.003906 82.351563 L 166.738281 82.351563 L 162.277344 83.71875 L 156.773438 84.570313 L 156.070313 90.964844 L 157.820313 90.4375 Z M 166.675781 61.660156 L 167.164063 53.734375 L 156.027344 56.464844 L 156.023438 64 Z M 165.402344 128.324219 L 165.40625 125.699219 L 156.988281 127.59375 L 156.503906 134.566406 L 164.398438 132.535156 Z M 166.070313 156 L 167.683594 155.410156 L 170.582031 151.761719 L 171.347656 149.511719 L 172.320313 148.410156 L 173.757813 145.53125 L 174.449219 144.148438 L 175.554688 141.214844 L 174.777344 141.753906 L 164.0625 144.375 L 161.660156 148.179688 L 161.230469 149.515625 L 158.105469 153.53125 L 157.8125 154.660156 L 156.25 156.222656 L 155.246094 158.230469 L 157.367188 158.230469 Z M 166.960938 69.628906 L 167.949219 69.203125 L 167.335938 63.910156 L 156.902344 66.367188 L 156.027344 66.730469 L 155.816406 67.84375 L 156.460938 72.164063 L 159.375 71.640625 L 161.605469 70.96875 Z M 166.199219 122.785156 L 166.667969 118.789063 L 164.730469 119.84375 L 162.25 121.523438 L 157.738281 124.160156 L 156.546875 125.351563 L 164.511719 123.453125 Z M 184.199219 167.460938 L 186.054688 166.960938 L 185.644531 166.136719 L 184.144531 165.839844 L 174.300781 168.15625 L 171.355469 170.515625 L 170.925781 171.40625 L 167.910156 173.621094 L 167.507813 174.5 L 164.832031 176.285156 L 164.507813 176.976563 L 161.828125 178.761719 L 161.507813 179.457031 L 158.769531 181.152344 L 156.996094 182.929688 L 169 180.660156 L 172.496094 177.730469 L 179.675781 172.011719 L 179.960938 171.390625 L 182.898438 169.210938 Z M 180.875 155.789063 L 181.328125 154.640625 L 177.019531 155.628906 L 173.957031 156.167969 L 169.109375 157.617188 L 164.507813 163.140625 L 161.828125 165.816406 L 161.261719 166.910156 L 159.699219 167.789063 L 158.894531 168.996094 L 166.515625 167.605469 L 172.664063 166.019531 L 173.808594 165.519531 L 174.328125 164.480469 L 177.003906 161.800781 L 177.320313 160.667969 L 179.230469 158.285156 Z M 170.980469 36.601563 L 172.132813 36.253906 L 173.738281 33.9375 L 174.550781 31.691406 L 176.558594 29.683594 L 177.535156 28.074219 L 181.710938 22.988281 L 181.023438 22.988281 L 171.226563 25.125 L 164.761719 32.585938 L 161.953125 36.179688 L 161.261719 37.515625 L 160.714844 38.609375 L 166.296875 37.75 Z M 163.390625 93.0625 L 163.839844 93.0625 L 163.839844 92.617188 L 163.390625 92.617188 Z M 163.390625 184.566406 L 163.839844 184.566406 L 163.839844 184.117188 L 163.390625 184.117188 Z M 165.175781 158.675781 L 165.625 158.675781 L 165.625 158.230469 L 165.175781 158.230469 Z M 165.175781 113.148438 L 166.070313 113.148438 L 166.070313 112.703125 L 165.175781 112.703125 Z M 165.625 125.648438 L 166.070313 125.648438 L 166.070313 125.199219 L 165.625 125.199219 Z M 177.609375 135.679688 L 178.578125 131.402344 L 173.878906 132.300781 L 168.125 133.988281 L 166.035156 138.8125 L 165.625 139.929688 L 165.074219 141.804688 L 172.765625 139.707031 L 176.460938 138.777344 L 177.003906 137.699219 Z M 177.328125 86.617188 L 177.761719 85.75 L 174.316406 86.300781 L 167.855469 89.941406 L 164.632813 91.925781 L 164.199219 92.789063 L 167.636719 92.222656 Z M 166.515625 118.953125 L 166.960938 118.953125 L 166.960938 118.503906 L 166.515625 118.503906 Z M 191.734375 100.652344 L 193.34375 101.1875 L 192.949219 100.40625 L 185.042969 92.589844 L 180.121094 93.441406 L 167.25 100.808594 L 166.515625 101.542969 L 180.136719 99.371094 L 182.386719 98.074219 L 185.140625 96.695313 Z M 184.082031 102.28125 L 184.855469 101.507813 L 178.34375 102.417969 L 173.210938 105.5625 L 166.804688 109.289063 L 166.007813 110.089844 L 172.550781 109.1875 L 173.464844 108.351563 Z M 176.128906 129.582031 L 179.316406 128.601563 L 179.683594 126.984375 L 180.128906 122.523438 L 180.140625 121.691406 L 176.78125 122.523438 L 169.8125 124.433594 L 168.523438 130.109375 L 168.519531 131.394531 L 174.316406 130.046875 Z M 170.109375 121.902344 L 180.648438 119.269531 L 181.398438 112.988281 L 170.859375 115.886719 Z M 171.425781 82.351563 L 172.320313 81.457031 L 170.980469 81.457031 L 170.980469 82.351563 Z M 170.980469 154.660156 L 171.425781 154.660156 L 171.425781 154.214844 L 170.980469 154.214844 Z M 182.585938 57.578125 L 185.039063 56.910156 L 185.171875 56.667969 L 184.601563 49.269531 L 181.925781 49.832031 L 180.128906 50.238281 L 171.304688 52.632813 L 170.777344 60.53125 L 180.566406 58.183594 Z M 170.8125 50.363281 L 184.640625 46.953125 L 186.054688 42.378906 L 187.867188 38.757813 L 185.957031 36.722656 L 183.253906 36.378906 L 178.566406 37.269531 L 174.1875 38.371094 L 173.433594 39.949219 L 171.835938 44.1875 Z M 172.765625 81.457031 L 173.210938 81.457031 L 173.210938 81.011719 L 172.765625 81.011719 Z M 184.589844 65.425781 L 185.933594 65.835938 L 185.753906 61.144531 L 185.09375 59.285156 L 179.90625 60.480469 L 172.765625 62.265625 L 171.203125 62.710938 L 170.972656 64.722656 L 171.628906 68.609375 L 175.222656 68.097656 L 183.199219 66.136719 Z M 184.671875 74.148438 L 185.847656 74.140625 L 185.425781 67.914063 L 181.914063 68.480469 L 173.9375 70.449219 L 171.648438 71.191406 L 171.648438 78.746094 L 175.222656 78.367188 L 179.773438 77.265625 Z M 172.441406 152.6875 L 171.425781 154.214844 L 173.433594 154.214844 L 178.78125 152.808594 L 182.785156 151.632813 L 185.488281 147.929688 L 186.488281 147.261719 L 189.757813 143.375 L 189.371094 142.367188 L 185.945313 139.410156 L 183.699219 139.042969 L 179.78125 140.117188 L 178.949219 140.589844 L 176.425781 146.421875 Z M 189.933594 91.367188 L 192.039063 92.292969 L 191.1875 91.019531 L 189.59375 89.226563 L 187.441406 87.476563 L 186.75 86.21875 L 185.496094 85.410156 L 183.699219 85.023438 L 173.5 90.988281 L 172.726563 91.761719 L 181.921875 90.4375 L 184.589844 88.5625 L 186.839844 89.410156 Z M 174.550781 94.402344 L 174.996094 94.402344 L 174.996094 93.957031 L 174.550781 93.957031 Z M 198.875 22.988281 L 199.210938 22.988281 L 198.347656 21.375 L 197.113281 20.855469 L 196.320313 19.617188 L 193.398438 17.433594 L 192.542969 16.117188 L 185.488281 13.195313 L 184.148438 13.613281 L 182.808594 14.953125 L 180.128906 16.738281 L 179.835938 17.417969 L 177.300781 19.183594 L 176.941406 19.707031 L 174.839844 21.804688 L 184.59375 19.863281 L 185.039063 19.449219 L 190.621094 20.308594 L 192.632813 21.148438 L 196.636719 22.148438 Z M 175.890625 34.59375 L 175.351563 35.667969 L 185.167969 33.601563 L 188.832031 37.269531 L 189.527344 37.617188 L 194.019531 36.234375 L 198.308594 35.730469 L 198.554688 35.238281 L 192.628906 29.683594 L 189.839844 27.257813 L 188.597656 25.59375 L 187.347656 24.921875 L 186.867188 23.75 L 184.984375 22.597656 L 183.199219 24.179688 L 179.988281 28.105469 L 179.683594 29.238281 L 178.367188 30.675781 Z M 178.121094 85.921875 L 178.566406 85.921875 L 178.566406 85.476563 L 178.121094 85.476563 Z M 177.574219 163.785156 L 177.09375 165.105469 L 185.203125 163.300781 L 188.585938 166.8125 L 192.179688 167.164063 L 194.636719 166.488281 L 197.472656 165.660156 L 198.050781 165.082031 L 192.078125 159.757813 L 187.074219 155.777344 L 186.75 154.957031 L 185.710938 154.214844 L 184.851563 153.785156 L 181.792969 158.921875 L 180.128906 160.460938 L 179.683594 161.800781 Z M 179.015625 111.363281 L 179.460938 111.363281 L 179.460938 110.917969 L 179.015625 110.917969 Z M 180.121094 110.855469 L 181.46875 110.472656 L 181.492188 109.679688 L 179.90625 110.472656 Z M 189.839844 140.933594 L 190.84375 141.261719 L 193.257813 136.988281 L 191.65625 135.191406 L 187.394531 132.144531 L 186.703125 130.757813 L 185.042969 129.695313 L 182.363281 130.558594 L 180.351563 135.914063 L 179.773438 137.878906 L 185.277344 136.375 Z M 196.632813 88.671875 L 198.875 89.492188 L 199.234375 88.777344 L 196.8125 87.03125 L 196.199219 85.921875 L 193.519531 84.136719 L 184.929688 79.839844 L 184.140625 80.066406 L 181.089844 82.0625 L 180.351563 82.796875 L 181.46875 82.796875 L 185.023438 81.992188 L 189.917969 84.699219 L 192.679688 86.066406 Z M 191.957031 133.234375 L 193.585938 134.863281 L 195.085938 131.226563 L 194.753906 128.960938 L 193.59375 128.472656 L 193.0625 127.503906 L 189.960938 125.128906 L 189.429688 124.160156 L 188.386719 123.636719 L 185.957031 121.082031 L 184.136719 120.664063 L 183.464844 122.746094 L 182.863281 127.578125 L 185.085938 127.03125 L 185.710938 127.878906 Z M 202.886719 111.863281 L 204.5 112.347656 L 204.109375 111.5625 L 199.910156 107.585938 L 189.917969 101.65625 L 185.230469 98.800781 L 185.609375 99.558594 L 190.726563 104.417969 Z M 186.15625 112.703125 L 185.292969 112.273438 L 184.476563 117.863281 L 186.976563 119.609375 L 187.3125 120.160156 L 195.558594 127.402344 L 196.265625 126.699219 L 196.730469 122.347656 L 195.222656 120.464844 L 188.609375 114.933594 L 186.824219 113.148438 Z M 187.734375 109.050781 L 185.933594 108.238281 L 185.515625 110.363281 L 186.75 110.769531 L 187.117188 111.597656 L 189.65625 113.359375 L 189.960938 113.972656 L 193.0625 116.34375 L 193.351563 116.949219 L 195.753906 118.953125 L 196.644531 119.84375 L 197.15625 119.84375 L 197.894531 114.667969 L 193.984375 112.621094 Z M 210.476563 111.414063 L 212.089844 111.898438 L 211.699219 111.117188 L 209.3125 109.347656 L 208.621094 108.089844 L 207.363281 107.402344 L 205.585938 105.035156 L 203.824219 103.898438 L 202.472656 101.890625 L 201.085938 101.199219 L 199.101563 99.3125 L 198.421875 98.472656 L 187.425781 92.066406 L 188.265625 93.324219 L 189.9375 95.226563 L 190.621094 95.519531 L 198.875 103.777344 L 199.171875 104.457031 L 201.109375 106.007813 Z M 194.414063 23.847656 L 187.996094 22.597656 L 192.40625 27.003906 L 195.527344 29.90625 L 196.210938 30.199219 L 197.550781 31.984375 L 198.800781 32.660156 L 199.285156 33.824219 L 201.964844 35.609375 L 205.796875 36.15625 L 210.960938 37.390625 L 218.070313 40.394531 L 218.292969 40.394531 L 218.425781 39.679688 L 215.835938 37.71875 L 215.019531 37.417969 L 214.457031 36.507813 L 209.636719 32.222656 L 208.820313 31.222656 L 205.847656 29.019531 L 205.496094 28.195313 L 202.671875 26.78125 L 199.992188 25.664063 Z M 191.289063 54.679688 L 189.503906 52.894531 L 188.640625 52.894531 L 189.058594 58.695313 L 189.574219 61.089844 L 191.636719 62.453125 L 194.191406 64.945313 L 197.761719 68.515625 L 199.367188 69.71875 L 200.410156 63.828125 L 200.074219 62.472656 L 199.101563 61.375 L 198.378906 61.070313 L 193.5625 56.78125 L 193.226563 56.230469 Z M 189.367188 63.847656 L 189.898438 70.15625 L 192.605469 72.183594 L 193.398438 73.226563 L 196.367188 75.425781 L 196.769531 76.300781 L 198.480469 77.75 L 201.027344 79.789063 L 199.613281 72.746094 L 198.835938 71.769531 L 190.433594 64.375 L 189.28125 63.605469 Z M 192.21875 74.195313 L 189.539063 72.40625 L 190.070313 76.796875 L 198.875 81.011719 L 199.101563 81.011719 L 199.21875 80.308594 L 194.492188 76.824219 Z M 192.1875 88.109375 L 190.539063 87.605469 L 192.265625 89.765625 L 193.296875 90.832031 L 196.421875 93.957031 L 199.324219 96.632813 L 211.804688 103.863281 L 214.351563 104.769531 L 213.070313 103.0625 L 212.042969 101.992188 L 209.8125 99.757813 L 208.917969 98.867188 L 206.6875 96.632813 L 205.59375 95.640625 L 202.023438 93.855469 L 199.300781 92.519531 Z M 192.253906 42.925781 L 190.839844 42.605469 L 189.882813 44.125 L 188.828125 47.757813 L 189.152344 50.476563 L 196.222656 56.363281 L 197.3125 57.355469 L 200.214844 60.480469 L 201.746094 60.992188 L 203.015625 58.449219 L 206.160156 56.367188 L 204.152344 53.957031 L 200.4375 51.105469 L 197.761719 48.429688 Z M 193.511719 92.679688 L 191.847656 92.058594 L 192.851563 93.0625 L 193.296875 93.0625 Z M 194.191406 101.992188 L 193.742188 101.097656 L 193.296875 101.097656 L 193.742188 101.992188 Z M 195.753906 160.910156 L 199.308594 164.402344 L 202.449219 162.726563 L 205.839844 158.90625 L 206.265625 157.492188 L 196.496094 149.09375 L 196.199219 148.410156 L 194.425781 146.996094 L 192.902344 146.527344 L 192.058594 148.210938 L 189.539063 150.765625 L 186.964844 152.484375 L 187.828125 154.023438 L 190.621094 156 L 191.957031 157.5625 L 193 158.082031 L 193.351563 158.90625 Z M 197.3125 140.375 L 196.621094 140.03125 L 195.183594 142.855469 L 194.289063 144.640625 L 197.539063 147.519531 L 199.992188 149.304688 L 201.332031 150.867188 L 202.371094 151.386719 L 202.742188 152.214844 L 205.449219 153.964844 L 206.140625 155.351563 L 207.738281 156.289063 L 208.417969 155.609375 L 210.101563 151.824219 L 209.207031 150.929688 L 208.867188 150.414063 L 205.847656 148.195313 L 205.496094 147.371094 L 204.457031 146.847656 L 203.5625 145.734375 L 202.484375 144.714844 L 199.992188 143.054688 Z M 224.304688 35.117188 L 225.523438 35.589844 L 222.902344 32.53125 L 218.492188 28.691406 L 214.523438 26.210938 L 212.695313 25.308594 L 208.917969 23.433594 L 205.550781 21.742188 L 197.410156 18.21875 L 198.082031 19.230469 L 199.285156 20.433594 L 205.570313 25.664063 L 212.285156 28.699219 L 221.417969 33.253906 Z M 199.992188 90.386719 L 199.546875 89.492188 L 199.101563 89.492188 L 199.546875 90.386719 Z M 199.546875 23.433594 L 199.992188 23.433594 L 199.992188 22.988281 L 199.546875 22.988281 Z M 200.230469 134.050781 L 198.875 133.652344 L 197.355469 137.472656 L 197.640625 138.402344 L 210.015625 149.390625 L 211.617188 149.867188 L 212.472656 145.507813 L 211.808594 144.464844 L 209.042969 142.421875 L 208.152344 141.082031 L 206.140625 139.730469 L 205.449219 138.34375 L 202.742188 136.59375 L 202.324219 135.714844 Z M 202.023438 126.441406 L 200.539063 125.695313 L 199.21875 130.980469 L 202.546875 133.421875 L 203.386719 134.4375 L 208.203125 138.730469 L 209.042969 139.746094 L 211.808594 141.785156 L 212.234375 142.722656 L 213.609375 143.101563 L 214.300781 141.492188 L 214.785156 137.464844 L 213.160156 136.359375 L 210.011719 133.78125 Z M 200.886719 80.121094 L 201.332031 80.121094 L 201.332031 79.671875 L 200.886719 79.671875 Z M 202.464844 88.515625 L 200.382813 87.597656 L 200.886719 88.601563 L 202.472656 89.394531 L 204.238281 91.777344 L 205.496094 92.46875 L 205.945313 93.363281 L 208.472656 94.402344 L 216.285156 98.867188 L 218.292969 99.757813 L 221.5 101.042969 L 220.648438 99.5 L 218.667969 98.183594 L 217.945313 96.882813 L 215.875 95.417969 L 214.59375 93.691406 L 209.121094 91.375 Z M 202.472656 118.40625 L 201.777344 118.058594 L 200.917969 123.222656 L 201.777344 124.308594 L 204.234375 126.09375 L 205.695313 127.1875 L 206.035156 127.796875 L 214.472656 135.128906 L 215.308594 135.195313 L 216.0625 132.566406 L 215.691406 129.875 L 214.53125 128.65625 L 209.078125 124.597656 L 207.132813 122.96875 L 203.5625 119.398438 Z M 194.191406 40.171875 L 193.253906 40.613281 L 193.660156 41.972656 L 200.886719 48.429688 L 207.292969 54.835938 L 209.144531 55.113281 L 213.226563 54.074219 L 217.722656 53.601563 L 217.078125 52.632813 L 215.457031 51.710938 L 214.679688 50.433594 L 208.984375 45.539063 L 207.792969 43.894531 L 206.488281 43.171875 L 205.425781 41.496094 L 202.90625 39.433594 L 197.984375 39.046875 L 195.527344 39.726563 Z M 204.902344 66.730469 L 204.210938 66.382813 L 203.550781 68.738281 L 203.910156 74.117188 L 205.449219 75.011719 L 205.867188 75.890625 L 208.574219 77.640625 L 209.265625 79.027344 L 211.972656 80.777344 L 212.390625 81.660156 L 214.097656 83.109375 L 215.882813 84.449219 L 216.285156 81.011719 L 216.90625 78.117188 L 216.597656 77.039063 L 214.921875 76.203125 L 214.457031 75.339844 L 206.058594 67.9375 L 205.644531 67.324219 Z M 210.429688 82.050781 L 204.097656 76.625 L 204.875 81.683594 L 205.570313 83.691406 L 206.179688 84.367188 L 210.023438 85.988281 L 215.269531 87.667969 L 214.777344 85.691406 L 212.167969 83.953125 L 211.351563 82.699219 Z M 204.457031 112.703125 L 204.902344 112.703125 L 204.902344 112.257813 L 204.457031 112.257813 Z M 208.714844 104.132813 L 205.6875 102.742188 L 207.132813 104.667969 L 208.71875 105.460938 L 210.488281 107.847656 L 211.746094 108.539063 L 212.4375 109.796875 L 214.5625 111.523438 L 216.347656 113.4375 L 219.027344 116.117188 L 225.652344 119.894531 L 227.902344 120.660156 L 230.996094 122.609375 L 233.078125 123.527344 L 232.675781 122.722656 L 220.078125 110.25 L 218.9375 109.679688 L 214.277344 107.347656 Z M 221.175781 122.164063 L 222.355469 122.613281 L 221.863281 121.628906 L 221.121094 120.589844 L 219.863281 119.898438 L 218.09375 117.511719 L 214.523438 115.726563 L 213.515625 115.203125 L 206.644531 111.273438 L 207.035156 112.058594 L 211.820313 116.71875 Z M 211.40625 40.042969 L 205.667969 38.898438 L 206.144531 40.332031 L 208.734375 42.054688 L 209.21875 43.222656 L 210.257813 43.742188 L 216.40625 50.015625 L 217.945313 50.90625 L 218.640625 52.199219 L 220.667969 53.613281 L 227.011719 54.761719 L 230.132813 55.941406 L 234.359375 57.355469 L 235.503906 58.144531 L 240.257813 60.175781 L 239.394531 58.882813 L 235.476563 55.570313 L 234.609375 55.222656 L 233.816406 53.984375 L 230.890625 51.800781 L 230.070313 50.800781 L 224.808594 46.0625 L 224.488281 45.519531 L 218.0625 42.679688 Z M 208.917969 121.628906 L 208.472656 120.738281 L 208.027344 120.738281 L 207.828125 121.082031 Z M 210.488281 122.023438 L 208.875 121.539063 L 209.265625 122.324219 L 215.8125 127.980469 L 216.644531 128.394531 L 217.019531 125.859375 Z M 216.28125 74.808594 L 217.625 75.191406 L 219.027344 72.820313 L 221.515625 71.441406 L 221.761719 70.945313 L 221.390625 70.074219 L 215.914063 65.671875 L 214.722656 64.496094 L 213.828125 63.605469 L 210.039063 59.550781 L 208.683594 59.964844 L 207.582031 60.703125 L 206.019531 62.265625 L 205.449219 63.40625 L 204.976563 64.347656 L 207.132813 66.507813 L 208.226563 67.074219 L 209.042969 68.328125 L 211.699219 70.054688 L 212.390625 71.441406 Z M 212.257813 31.082031 L 210.59375 30.464844 L 211.597656 31.46875 L 212.042969 31.46875 Z M 212.042969 99.3125 L 211.597656 98.421875 L 211.152344 98.421875 L 210.953125 98.765625 Z M 214.511719 100.132813 L 212.265625 99.3125 L 211.910156 100.027344 L 214.328125 101.773438 L 215.019531 103.03125 L 216.28125 103.734375 L 218.449219 106.296875 L 221.171875 108.785156 L 230.988281 113.695313 L 231.933594 114.382813 L 236.65625 116.402344 L 236.246094 115.582031 L 228.359375 107.695313 L 226.914063 105.832031 L 224.746094 104.757813 L 220.753906 102.828125 L 218.058594 102.054688 Z M 214.722656 32.359375 L 211.914063 31.285156 L 212.398438 32.605469 L 221.070313 39.703125 L 221.761719 41.089844 L 225.210938 43.964844 L 230.132813 46.128906 L 237.253906 50.71875 L 239.949219 51.496094 L 243.945313 54.300781 L 246.1875 55.125 L 246.546875 54.410156 L 243.386719 52.246094 L 242.554688 50.949219 L 240.511719 49.523438 L 240.109375 48.644531 L 237.09375 46.425781 L 236.691406 45.550781 L 234.648438 44.125 L 233.242188 42.152344 L 226.847656 38.460938 L 224.742188 37.371094 L 220.972656 35.484375 L 217.242188 33.542969 Z M 214.277344 105.117188 L 214.722656 105.117188 L 214.722656 104.667969 L 214.277344 104.667969 Z M 240.832031 108.710938 L 246.898438 109.660156 L 246.511719 108.886719 L 236.148438 98.644531 L 229.453125 98.195313 L 225.195313 97.445313 L 222.085938 96.632813 L 218.738281 95.296875 L 219.507813 96.449219 L 220.722656 96.980469 L 222.152344 99.023438 L 224.195313 100.453125 L 224.917969 101.757813 L 227.789063 104.035156 L 237.261719 107.328125 Z M 235.476563 72.085938 L 237.039063 72.085938 L 236.148438 71.191406 L 233.023438 68.070313 L 226.773438 62.710938 L 224.886719 60.726563 L 224.195313 59.339844 L 221.652344 57.285156 L 218.070313 56.910156 L 214.722656 57.578125 L 212.332031 57.960938 L 211.746094 58.546875 L 212.3125 59.449219 L 218.023438 64.632813 L 218.355469 65.175781 L 224.40625 70.476563 L 230.496094 71.03125 Z M 222.308594 122.96875 L 222.757813 122.96875 L 222.757813 122.523438 L 222.308594 122.523438 Z M 228.785156 57.765625 L 224.160156 56.996094 L 225.300781 58.515625 L 235.253906 67.621094 L 239.269531 72.085938 L 240.164063 72.976563 L 240.742188 73.335938 L 246.871094 75.085938 L 247.695313 66.839844 L 245.253906 65.074219 L 242.625 63.550781 L 236.425781 60.78125 L 231.007813 58.652344 Z M 227.449219 122.464844 L 224.460938 121.527344 L 226.1875 123.6875 L 227.367188 124.160156 L 228.058594 125.417969 L 230.210938 127.164063 L 240.332031 133.089844 L 243.5 134.648438 L 244.671875 135.109375 L 244.28125 134.328125 L 238.625 128.671875 L 236.800781 127.957031 L 233.707031 126.015625 L 231.453125 125.257813 Z M 226.558594 32.308594 L 224.765625 31.914063 L 224.488281 32.144531 L 227.566406 34.347656 L 228.359375 35.585938 L 229.453125 36.15625 L 232.316406 39.179688 L 240.355469 43.632813 L 243.089844 45.203125 L 246.015625 46.667969 L 245.152344 42.386719 L 235.140625 37.078125 L 234.132813 36.777344 L 230.691406 34.839844 Z M 225.433594 35.929688 L 225.878906 35.929688 L 225.878906 35.484375 L 225.433594 35.484375 Z M 226.328125 36.378906 L 226.773438 36.378906 L 226.773438 35.929688 L 226.328125 35.929688 Z M 250.675781 132.6875 L 254.507813 134.25 L 254.101563 133.433594 L 241.503906 120.960938 L 240.359375 120.398438 L 230.988281 115.925781 L 226.328125 113.597656 L 226.671875 114.289063 L 227.789063 115.640625 L 229.609375 117.007813 L 230.949219 118.792969 L 232.734375 120.132813 L 234.074219 121.917969 L 235.859375 123.257813 L 237.171875 125.023438 L 240.109375 127.203125 L 249.761719 132.34375 Z M 244.257813 82.140625 L 244.671875 81.101563 L 242.296875 80.367188 L 237.261719 79.214844 L 230.617188 79.53125 L 228.847656 80.410156 L 228.011719 81.257813 L 227.207031 83.46875 L 226.269531 90.566406 L 233.605469 89.761719 L 239.539063 86.949219 L 243.109375 84.269531 Z M 231.023438 49.707031 L 232.6875 50.328125 L 231.683594 49.320313 L 231.238281 49.320313 Z M 234.359375 108.6875 L 231.171875 107.699219 L 232.003906 108.945313 L 233.566406 109.824219 L 234.136719 110.917969 L 241.949219 118.730469 L 243.050781 119.476563 L 251.984375 123.023438 L 258.242188 124.753906 L 258.234375 124.355469 L 262.503906 125.25 L 262.132813 124.507813 L 250.449219 112.945313 L 244.75 111.996094 L 241.054688 111.140625 Z M 233.707031 50.582031 L 232.484375 50.109375 L 235.554688 53.617188 L 236.742188 54.082031 L 237.300781 54.996094 L 246.144531 62.847656 L 246.605469 63.714844 L 247.527344 64.050781 L 247.714844 63.378906 L 247.019531 58.09375 L 239.953125 53.714844 Z M 233.023438 123.863281 L 233.46875 123.863281 L 233.46875 123.414063 L 233.023438 123.414063 Z M 236.59375 116.71875 L 237.039063 116.71875 L 237.039063 116.273438 L 236.59375 116.273438 Z M 239.269531 45.75 L 239.71875 45.75 L 239.71875 45.304688 L 239.269531 45.304688 Z M 243.527344 47.449219 L 240.035156 46.039063 L 241.808594 48.253906 L 242.992188 48.726563 L 243.632813 49.96875 L 245.71875 51.652344 L 246.414063 52 L 246.609375 48.980469 Z M 244.628906 135.46875 L 245.074219 135.46875 L 245.074219 135.019531 L 244.628906 135.019531 Z M 246.859375 132.789063 L 244.546875 131.773438 L 245.519531 133.234375 L 246.613281 134.472656 L 247.304688 134.796875 L 250.988281 138.339844 L 254.230469 140.429688 L 255.582031 141.179688 L 267.015625 146.765625 L 266.597656 145.933594 L 259.140625 138.53125 L 248.886719 134.035156 Z M 246.414063 55.570313 L 246.859375 55.570313 L 246.859375 55.125 L 246.414063 55.125 Z M 243.960938 97.5625 L 238.824219 98.421875 L 239.839844 99.945313 L 240.234375 100.441406 L 242.105469 101.832031 L 243.445313 103.617188 L 245.230469 104.957031 L 246.511719 106.699219 L 249.757813 109.617188 L 255.585938 109.03125 L 258.578125 108.046875 L 258.941406 107.035156 L 256.390625 104.828125 L 247.464844 95.898438 Z M 249.984375 124.308594 L 246.8125 123.328125 L 247.207031 124.109375 L 259.554688 136.460938 L 262.035156 137.253906 L 268.886719 139.640625 L 274.347656 140.945313 L 278.195313 141.453125 L 277.210938 139.484375 L 274.71875 137.824219 L 274.1875 136.605469 L 272.144531 135.179688 L 270.714844 133.136719 L 269.410156 132.414063 L 268.097656 130.433594 L 266.050781 128.546875 L 261.847656 128.003906 L 256.449219 126.59375 L 252.878906 125.703125 Z M 249.855469 94.136719 L 249.527344 95.519531 L 252.058594 97.816406 L 256.835938 102.59375 L 258.140625 103.515625 L 259.90625 106.164063 L 261.816406 106.507813 L 264.710938 103.554688 L 263.933594 102.183594 L 255.605469 93.824219 L 252.855469 91.835938 Z M 261.429688 50.503906 L 266.210938 55.28125 L 265.503906 50.859375 L 265.089844 49.980469 L 263.214844 48.585938 L 261.875 46.800781 L 260.089844 45.460938 L 258.753906 43.675781 L 256.96875 42.339844 L 255.574219 40.464844 L 255.078125 40.074219 L 253.730469 39.171875 L 254.824219 43.753906 L 256.480469 45.851563 L 257.78125 46.574219 L 259.695313 49.125 Z M 257.28125 49.035156 L 255.339844 47.089844 L 255.371094 47.761719 L 256.070313 52.15625 L 258.5625 53.984375 L 259.257813 55.371094 L 260.449219 56.5625 L 261.835938 57.257813 L 263.605469 59.640625 L 264.890625 60.347656 L 265.300781 61.648438 L 266.5 62.710938 L 268.003906 63.714844 L 267.234375 58.984375 L 264.554688 56.304688 L 262.382813 54.476563 L 261.6875 53.09375 L 260.496094 51.898438 L 259.109375 51.207031 Z M 256.480469 85.375 L 255.984375 85.128906 L 255.511719 87.402344 L 254.398438 88.816406 L 254 90.164063 L 255.09375 90.730469 L 256.519531 92.773438 L 258.5625 94.203125 L 259.285156 95.507813 L 261.265625 96.820313 L 262.925781 99.3125 L 264.710938 100.207031 L 265.605469 101.992188 L 266.65625 100.941406 L 268.285156 97.304688 Z M 266.785156 69.25 L 268.886719 71.351563 L 268.148438 66.820313 L 266.050781 64.496094 L 265.160156 63.605469 L 262.925781 61.375 L 262.035156 60.480469 L 259.804688 58.472656 L 259.089844 58.113281 L 258.640625 56.777344 L 257.757813 56.140625 L 256.230469 55.125 L 256.277344 55.351563 L 257.363281 60.117188 L 258.613281 60.777344 L 259.300781 62.035156 L 261.6875 63.804688 L 262.382813 65.191406 L 263.574219 66.382813 L 264.960938 67.074219 Z M 265.605469 70.746094 L 257.414063 62.554688 L 257.792969 66.28125 L 258.363281 67.867188 L 259.257813 69.652344 L 260.449219 70.847656 L 261.835938 71.539063 L 263.605469 73.925781 L 264.863281 74.613281 L 265.550781 75.871094 L 267.9375 77.640625 L 268.730469 79.226563 L 269.8125 79.769531 L 269.367188 75.09375 L 267.589844 72.433594 L 266.5 71.863281 Z M 258.710938 71.09375 L 257.820313 70.648438 L 258.40625 76.78125 L 259.300781 78.105469 L 261.667969 79.882813 L 262.804688 81.644531 L 264.640625 83.007813 L 265.230469 84.371094 L 267.101563 85.765625 L 268.503906 87.738281 L 270.25 88.28125 L 269.691406 82.5625 L 268.082031 80.464844 L 266.699219 79.773438 L 265.503906 78.582031 L 264.8125 77.195313 L 262.425781 75.425781 L 261.738281 74.167969 L 260.480469 73.480469 Z M 259.058594 80.863281 L 258.242188 79.226563 L 257.527344 79.226563 L 256.753906 83.09375 L 268.035156 94.503906 L 268.769531 94.871094 L 269.546875 90.980469 L 269.175781 90.386719 L 268.285156 89.492188 L 266.050781 87.261719 L 265.160156 86.367188 L 262.925781 84.136719 L 262.035156 83.246094 L 259.804688 81.234375 Z M 255.785156 112.480469 L 253.207031 112.902344 L 253.453125 113.394531 L 265.371094 125.277344 L 271.191406 124.699219 L 273.191406 124.085938 L 274.578125 123.644531 L 274.214844 122.140625 L 272.300781 121.183594 L 270.640625 118.691406 L 268.660156 117.378906 L 267.9375 116.074219 L 265.894531 114.644531 L 264.464844 112.601563 L 263.375 112.035156 L 262.390625 111.050781 L 258.699219 111.886719 Z M 293.054688 156.445313 L 293.351563 156.445313 L 292.929688 155.167969 L 290.339844 153.445313 L 289.027344 151.464844 L 287.722656 150.742188 L 286.296875 148.699219 L 284.253906 147.269531 L 283.53125 145.96875 L 281.816406 144.667969 L 276.589844 144.089844 L 271.121094 142.765625 L 266.945313 141.269531 L 264.042969 140.375 L 263.820313 140.375 L 264.167969 141.070313 L 272.5 149.402344 L 274.53125 150.195313 L 277.210938 151.535156 L 281.4375 152.945313 L 289.9375 155.613281 Z M 264.710938 47.535156 L 265.160156 47.535156 L 265.160156 47.089844 L 264.710938 47.089844 Z M 266.050781 55.570313 L 266.5 55.570313 L 266.5 55.125 L 266.050781 55.125 Z M 266.945313 147.070313 L 267.390625 147.070313 L 267.390625 146.625 L 266.945313 146.625 Z M 269.363281 107.917969 L 268.023438 107.023438 L 265.472656 108.863281 L 264.710938 109.800781 L 265.484375 111.730469 L 268.097656 113.472656 L 269.410156 115.453125 L 270.714844 116.175781 L 272.144531 118.21875 L 274.1875 119.644531 L 274.753906 120.738281 L 275.871094 121.851563 L 276.957031 122.414063 L 279.777344 120.402344 L 280.667969 119.511719 L 270.738281 109.578125 L 270.21875 108.539063 Z M 271.195313 56.085938 L 269.921875 55.496094 L 270.894531 59.820313 L 271.707031 61.074219 L 272.964844 61.765625 L 274.730469 64.152344 L 276.117188 64.84375 L 277.433594 66.28125 L 277.953125 67.324219 L 279.210938 68.015625 L 280.96875 70.425781 L 282.296875 71.308594 L 281.691406 66.953125 L 280.65625 65.574219 L 278.839844 64.210938 L 277.5 62.421875 L 275.714844 61.085938 L 274.375 59.300781 L 272.589844 57.960938 Z M 273.589844 64.871094 L 271.238281 63.460938 L 271.835938 67.847656 L 274.730469 71.09375 L 276.476563 72.375 L 277.816406 74.160156 L 279.601563 75.5 L 280.96875 77.316406 L 281.941406 78.199219 L 284.074219 79.800781 L 283.324219 75.300781 L 280.78125 72.976563 L 279.886719 72.085938 L 277.65625 69.855469 L 276.765625 68.960938 L 275.300781 67.4375 Z M 272.101563 101 L 271.609375 100.75 L 270.625 103.136719 L 269.269531 105.359375 L 274.53125 110.917969 L 275.871094 112.257813 L 276.765625 113.148438 L 281.449219 117.613281 L 282.371094 117.277344 L 283.511719 115.164063 L 283.984375 112.464844 L 283.011719 112.035156 L 280.78125 110.023438 L 279.886719 109.132813 Z M 272.96875 74.765625 L 273.371094 75.96875 L 274.234375 76.398438 L 274.925781 77.660156 L 277.308594 79.425781 L 278.003906 80.8125 L 279.195313 82.003906 L 280.582031 82.699219 L 282.351563 85.082031 L 283.609375 85.773438 L 284.105469 86.914063 L 284.960938 87.34375 L 284.21875 82.886719 L 272.992188 71.539063 L 272.300781 71.191406 L 272.375 71.429688 Z M 274.347656 95.617188 L 273.289063 94.914063 L 272.34375 98.6875 L 284.105469 110.570313 L 284.605469 110.820313 L 285.261719 109.355469 L 284.898438 106.207031 L 278.550781 99.757813 L 277.65625 98.867188 L 275.425781 96.632813 Z M 275.582031 80.722656 L 273.480469 78.621094 L 274.027344 83.921875 L 274.925781 85.246094 L 277.308594 87.015625 L 278.003906 88.402344 L 279.195313 89.59375 L 280.582031 90.285156 L 282.351563 92.671875 L 283.636719 93.375 L 284.085938 94.714844 L 284.796875 95.296875 L 285.882813 95.835938 L 285.304688 90.601563 L 283.71875 88.476563 L 281.226563 86.816406 L 280.335938 85.03125 L 278.550781 84.136719 L 276.886719 81.644531 Z M 275.136719 87.867188 L 274.242188 86.972656 L 273.628906 88.824219 L 274.027344 92.847656 L 274.601563 93.746094 L 276.476563 95.136719 L 277.816406 96.921875 L 279.601563 98.261719 L 280.9375 100.046875 L 282.722656 101.386719 L 284.117188 103.257813 L 284.796875 103.777344 L 285.542969 104.148438 L 286.207031 99.078125 L 278.425781 91.539063 L 276.886719 89.234375 Z M 274.632813 127.632813 L 268.828125 128.523438 L 269.078125 129.019531 L 274.347656 134.003906 L 275.660156 135.984375 L 276.964844 136.707031 L 278.390625 138.75 L 280.433594 140.175781 L 280.988281 141.355469 L 285.46875 140.828125 L 290.171875 138.863281 L 289.804688 137.761719 L 287.214844 136.035156 L 285.902344 134.058594 L 284.597656 133.335938 L 283.171875 131.292969 L 281.128906 129.863281 L 280.433594 128.570313 L 278.351563 126.886719 L 277.855469 126.640625 Z M 282.121094 71.640625 L 282.566406 71.640625 L 282.566406 71.191406 L 282.121094 71.191406 Z M 281.574219 124.507813 L 280.378906 125.824219 L 281.992188 128.144531 L 290.15625 136.359375 L 291.714844 137.699219 L 293.085938 136.921875 L 294.304688 135.734375 L 295.414063 134.253906 L 284.128906 122.96875 L 283.21875 123.332031 Z M 288.210938 73.582031 L 286.808594 71.640625 L 286.003906 71.640625 L 286.960938 76.335938 L 289.261719 78.78125 L 290.15625 79.671875 L 292.386719 81.90625 L 293.277344 82.796875 L 295.265625 84.683594 L 296.582031 85.160156 L 296.042969 81.21875 L 294.863281 80.019531 L 293.476563 79.328125 L 291.710938 76.941406 L 290.421875 76.238281 L 290.03125 74.949219 Z M 288.992188 80.699219 L 287.03125 79.226563 L 288.289063 84.375 L 290.332031 86.679688 L 292.097656 87.996094 L 293.4375 89.78125 L 295.222656 91.121094 L 296.613281 92.992188 L 297.296875 93.511719 L 298.1875 93.957031 L 296.921875 88.8125 L 296.105469 87.558594 L 294.847656 86.871094 L 293.101563 84.71875 L 291.335938 83.402344 L 289.96875 81.582031 Z M 288.164063 117.082031 L 287.253906 116.71875 L 286.808594 118.953125 L 286.136719 119.621094 L 285.246094 121.40625 L 296.089844 132.253906 L 297.109375 131.574219 L 298.597656 128.105469 L 298.277344 127.03125 L 296.601563 126.191406 L 294.835938 123.808594 L 293.546875 123.101563 L 293.15625 121.816406 L 291.335938 120.449219 L 289.996094 118.664063 Z M 297.296875 100.207031 L 299.253906 101.183594 L 298.6875 97.296875 L 289.0625 87.609375 L 288.367188 87.261719 L 288.441406 87.496094 L 289.160156 90.585938 L 289.9375 92.226563 L 291.722656 94.457031 L 292.980469 95.148438 L 293.65625 96.398438 L 295.632813 97.714844 Z M 298.386719 124.855469 L 299.710938 125.332031 L 299.179688 120.492188 L 289.597656 111.03125 L 288.871094 111.753906 L 288.316406 114.71875 Z M 290.757813 95.898438 L 289.550781 94.691406 L 290.070313 100.890625 L 292.097656 102.28125 L 293.4375 104.066406 L 295.222656 105.402344 L 296.589844 107.222656 L 297.5625 108.105469 L 299.707031 109.710938 L 299.152344 104.433594 L 295.757813 100.550781 L 294.171875 99.757813 L 292.511719 97.265625 Z M 290.402344 103.230469 L 289.507813 102.785156 L 290.070313 109.371094 L 292.097656 110.761719 L 293.4375 112.546875 L 295.222656 113.882813 L 296.519531 115.636719 L 298.921875 117.902344 L 300.132813 119.109375 L 299.628906 112.457031 Z M 289.207031 143.71875 L 284.453125 144.59375 L 284.796875 145.285156 L 286.582031 146.179688 L 287.476563 147.964844 L 289.96875 149.625 L 290.890625 151.246094 L 292.933594 152.675781 L 293.65625 153.980469 L 296.625 156.476563 L 301.539063 155.976563 L 305.042969 154.949219 L 305.664063 154.324219 L 299.714844 148.535156 L 298.402344 146.554688 L 297.097656 145.832031 L 295.667969 143.789063 L 293.503906 142.160156 L 291.269531 142.609375 Z M 296.589844 139.359375 L 295.554688 140.59375 L 296.402344 142.386719 L 297.742188 143.722656 L 298.835938 144.292969 L 300.261719 146.335938 L 302.304688 147.765625 L 303.027344 149.070313 L 305.007813 150.382813 L 306.734375 152.96875 L 307.789063 153.289063 L 308.902344 152.203125 L 310.324219 150.4375 L 310.6875 149.527344 L 298.949219 137.789063 Z M 299.082031 101.542969 L 299.527344 101.542969 L 299.527344 101.097656 L 299.082031 101.097656 Z M 299.527344 110.472656 L 299.972656 110.472656 L 299.972656 110.023438 L 299.527344 110.023438 Z M 302.480469 87.566406 L 299.832031 85.359375 L 301.214844 90.632813 L 301.757813 91.277344 L 308.007813 97.527344 L 309.078125 98.554688 L 310.863281 99.894531 L 309.660156 93.6875 L 308.007813 93.285156 L 306.667969 91.726563 L 305.777344 90.832031 L 303.542969 88.601563 Z M 302.453125 93.855469 L 301.679688 93.46875 L 302.617188 99.09375 L 304.59375 100.492188 L 305.933594 102.28125 L 307.71875 103.617188 L 309.058594 105.402344 L 310.871094 107.023438 L 312.210938 107.917969 L 311.65625 103.09375 L 309.292969 101.316406 L 308.601563 100.058594 L 307.34375 99.367188 L 305.566406 97.003906 L 303.804688 95.867188 Z M 304.148438 133.394531 L 302.285156 131.53125 L 299.980469 135.242188 L 300.320313 136.605469 L 311.332031 147.617188 L 311.847656 147.875 L 313.363281 145.0625 L 313.910156 142.65625 L 312.226563 141.816406 L 310.457031 139.429688 L 309.199219 138.738281 L 308.679688 137.699219 L 307.363281 136.257813 L 305.976563 135.566406 Z M 303.34375 101.890625 L 302.488281 101.464844 L 303.230469 105.917969 L 313.117188 115.925781 L 313.730469 116.234375 L 312.976563 112.027344 L 311.824219 110.371094 Z M 304.238281 109.480469 L 303.355469 109.039063 L 303.769531 113.148438 L 304.214844 114.488281 L 305.777344 115.828125 L 309.792969 119.84375 L 314.011719 124.40625 L 314.886719 124.847656 L 314.480469 121.183594 L 314.035156 119.398438 Z M 304.238281 125.546875 L 303.25 125.175781 L 302.539063 129.472656 L 305.402344 131.683594 L 306.125 132.988281 L 308.167969 134.417969 L 309.59375 136.460938 L 310.898438 137.179688 L 312.210938 139.160156 L 314.890625 140.945313 L 314.332031 135.675781 L 309.792969 131.003906 Z M 304.683594 117.511719 L 304.191406 117.265625 L 303.574219 121.40625 L 303.910156 122.761719 L 305.957031 125.066406 L 307.71875 126.382813 L 309.058594 128.167969 L 310.84375 129.507813 L 312.210938 131.324219 L 313.363281 132.34375 L 314.890625 133.359375 L 314.355469 127.1875 Z M 308.902344 92.171875 L 309.347656 92.171875 L 309.347656 91.726563 L 308.902344 91.726563 Z M 310.6875 100.207031 L 311.132813 100.207031 L 311.132813 99.757813 L 310.6875 99.757813 Z M 312.027344 108.238281 L 312.472656 108.238281 L 312.472656 107.792969 L 312.027344 107.792969 Z M 326.421875 115.9375 L 327.808594 116.402344 L 327.144531 113.09375 L 323.519531 109.46875 L 321.515625 108.265625 L 322.636719 112.503906 L 323.628906 113.148438 Z M 325.589844 117.304688 L 323.011719 115.242188 L 323.617188 118.878906 L 330.058594 124.398438 L 330.898438 124.816406 L 330.324219 122.300781 L 329.582031 121.035156 L 328.328125 120.363281 L 326.988281 118.433594 Z M 327.648438 117.167969 L 328.09375 117.167969 L 328.09375 116.71875 L 327.648438 116.71875 Z M 330.773438 116.71875 L 331.21875 116.71875 L 331.21875 116.273438 L 330.773438 116.273438 Z M 333.894531 125.648438 L 334.34375 125.648438 L 334.34375 125.199219 L 333.894531 125.199219 Z M 333.894531 125.648438 "/>
</g>
</svg>
