<?xml version="1.0" encoding="UTF-8"?>
<svg xmlns="http://www.w3.org/2000/svg" xmlns:xlink="http://www.w3.org/1999/xlink" width="360pt" height="238pt" viewBox="0 0 360 238" version="1.1">
<g id="surface197">
<path style=" stroke:none;fill-rule:evenodd;fill:rgb(99.998474%,99.998474%,99.998474%);fill-opacity:1;" d="M 19.894531 209.75 L 22.445313 208.863281 L 23.207031 213.445313 L 13.804688 215.671875 L 10.257813 216.628906 L 8.832031 219.066406 L 8.808594 219.421875 L 10.066406 218.851563 L 16.191406 217.285156 L 23.535156 215.804688 L 23.992188 218.605469 L 24.445313 219.933594 L 15.722656 221.789063 L 14.726563 222.433594 L 14.117188 223.199219 L 13.230469 224.972656 L 19.628906 223.660156 L 24.449219 222.28125 L 24.886719 223.097656 L 27.640625 221.71875 L 32.253906 219.925781 L 35.949219 218.988281 L 36.851563 220.902344 L 37.589844 222.503906 L 38.410156 226.191406 L 40.023438 229.628906 L 40.527344 229.628906 L 41.0625 228.558594 L 42.902344 227.640625 L 43.359375 226.71875 L 45.121094 225.953125 L 49.972656 222.054688 L 49.652344 220.128906 L 51.449219 219.332031 L 55.699219 217.765625 L 58.761719 216.8125 L 59.535156 219.300781 L 61.160156 222.40625 L 62.023438 222.464844 L 65.078125 220.214844 L 64.570313 218.847656 L 63.367188 215.644531 L 63.632813 215.113281 L 75.445313 211.199219 L 76.332031 213.195313 L 77.25 216.410156 L 78.191406 218.144531 L 79.128906 217.773438 L 82.082031 215.621094 L 81.234375 212.855469 L 80.203125 211.492188 L 79.769531 209.644531 L 82.097656 208.730469 L 86.914063 207.074219 L 89.304688 206.554688 L 90.363281 211.027344 L 91.484375 213.035156 L 94.613281 211.058594 L 94.964844 208.730469 L 93.1875 205.046875 L 96.589844 203.804688 L 100.265625 202.886719 L 103.914063 201.113281 L 106.683594 200.617188 L 107.128906 202.070313 L 108.050781 203.90625 L 108.484375 205.640625 L 109.910156 204.929688 L 117.167969 199.152344 L 118.898438 198.171875 L 117.957031 195.277344 L 122.058594 193.34375 L 123.734375 192.261719 L 124.605469 191.59375 L 128.730469 189.136719 L 129.671875 188.40625 L 138.3125 182.628906 L 139.296875 182.246094 L 140.230469 181.511719 L 146.605469 176.695313 L 147.484375 176.050781 L 149.894531 174.1875 L 155.410156 170.0625 L 159.46875 167.058594 L 160.347656 166.402344 L 163.925781 163.707031 L 174.25 154.910156 L 181.066406 149.160156 L 181.617188 148.175781 L 182.515625 147.554688 L 185.296875 145.238281 L 190.230469 147.078125 L 194.734375 148.582031 L 198.996094 149.722656 L 207.757813 149.363281 L 212.789063 147.9375 L 215.007813 146.789063 L 217.761719 144.03125 L 218.519531 143.046875 L 220.71875 140.269531 L 223.378906 136.054688 L 223.515625 135.230469 L 225.488281 129.28125 L 226.207031 127.464844 L 225.90625 126.507813 L 227.144531 123.320313 L 226.890625 122.8125 L 227.441406 120.648438 L 228.398438 120.347656 L 237.683594 127.007813 L 241.433594 129.730469 L 246.347656 133.039063 L 253.621094 137.886719 L 259.136719 141.558594 L 263.730469 144.3125 L 267.566406 146.746094 L 268.6875 147.613281 L 272.523438 150.042969 L 278.421875 153.507813 L 279.386719 153.894531 L 283.285156 156.367188 L 294.085938 161.703125 L 299.09375 163.816406 L 303.761719 164.992188 L 306.941406 165.792969 L 314.976563 165.554688 L 317.054688 164.929688 L 319.800781 163.945313 L 322.558594 161.1875 L 323.246094 159.8125 L 324.992188 155.035156 L 324.726563 154.503906 L 325.3125 151.542969 L 325.441406 151.289063 L 325.1875 149.960938 L 325.523438 147.179688 L 325.3125 143.273438 L 324.667969 140.753906 L 324.980469 139.804688 L 324.855469 138.683594 L 324.84375 138.285156 L 325.796875 138.578125 L 327.152344 140.058594 L 327.6875 141.132813 L 328.757813 141.667969 L 332.890625 146.03125 L 336.566406 148.789063 L 337.945313 150.164063 L 347.246094 159.464844 L 351.820313 158.550781 L 350.03125 156.316406 L 348.050781 154.300781 L 345.445313 151.714844 L 340.363281 147.671875 L 338.160156 145.027344 L 335.972656 143.550781 L 335.023438 140.394531 L 338.679688 143.136719 L 342.996094 147.410156 L 343.917969 148.328125 L 346.878906 151.644531 L 349.511719 152.167969 L 349.070313 151.289063 L 348.050781 150.164063 L 345.292969 147.640625 L 344.152344 146.996094 L 341.984375 144.402344 L 335.546875 138.9375 L 334.832031 137.507813 L 332.664063 135.464844 L 332.558594 134.738281 L 331.421875 131.792969 L 332.203125 131.792969 L 333.351563 132.710938 L 335.1875 134.546875 L 336.109375 135.464844 L 338.632813 138.222656 L 340.183594 137.707031 L 338.242188 135.761719 L 336.960938 134.308594 L 330.925781 129.304688 L 329.34375 126.929688 L 323.09375 121.976563 L 321.652344 120.234375 L 320.789063 117.714844 L 320.71875 116.632813 L 319.675781 113.671875 L 319.929688 113.164063 L 318.828125 108.675781 L 316.722656 107.238281 L 308.722656 102.015625 L 309.171875 105.152344 L 308.316406 105.152344 L 302.867188 98.566406 L 300.058594 95.910156 L 299.003906 93.464844 L 299.257813 92.953125 L 298.25 88.945313 L 294.5 86.445313 L 294.410156 87.441406 L 295.226563 89.074219 L 294.84375 89.074219 L 295.320313 90.496094 L 294.515625 90.09375 L 288.082031 83.664063 L 287.164063 82.082031 L 285.835938 81.367188 L 284.304688 76.464844 L 284.558594 75.957031 L 283.835938 74.164063 L 280.210938 71.636719 L 280.855469 74.867188 L 279.824219 74.460938 L 278.394531 73.292969 L 272.015625 66.023438 L 270.667969 65.269531 L 269.359375 63.070313 L 268.816406 60.59375 L 267.738281 57.621094 L 266.976563 56.921875 L 264.707031 54.980469 L 264.125 54.691406 L 265.058594 58.425781 L 261.410156 55.234375 L 258.34375 52.144531 L 255.863281 48.835938 L 253.65625 46.816406 L 252.152344 42.476563 L 252.40625 41.96875 L 251.386719 40.488281 L 249.945313 39.589844 L 243.558594 35.277344 L 242.175781 34.871094 L 242 36.015625 L 242.480469 37.628906 L 243.09375 37.628906 L 242.917969 38.769531 L 244.265625 44.160156 L 242.15625 43.234375 L 239.832031 41.441406 L 228.429688 33.832031 L 226.066406 32.234375 L 221.273438 29.359375 L 218.707031 27.195313 L 210.503906 21.910156 L 207.242188 20.277344 L 204.457031 18.023438 L 196.714844 13.199219 L 185.679688 6.894531 L 183.816406 7.667969 L 182.921875 8.691406 L 181.476563 9.773438 L 180.578125 10.851563 L 176.070313 14.789063 L 175.699219 15.375 L 174.261719 16.335938 L 173.375 17.6875 L 170.910156 19.417969 L 169.5625 21.21875 L 168.09375 22.21875 L 167.636719 23.136719 L 166.375 23.910156 L 162.75 28.570313 L 160.375 30.152344 L 157.886719 33.265625 L 157.199219 34.871094 L 155.359375 36.710938 L 154.800781 37.898438 L 152.707031 41.035156 L 152.042969 42.414063 L 149.914063 45.734375 L 149.246094 47.519531 L 147.742188 50.714844 L 146.863281 56.003906 L 146.175781 58.757813 L 145.941406 72.308594 L 146.855469 80.117188 L 146.015625 90.695313 L 143.878906 92.289063 L 142.5 92.75 L 141.550781 93.554688 L 135.179688 98.371094 L 133.742188 99.066406 L 127.371094 103.882813 L 125.933594 104.578125 L 119.5625 109.394531 L 118.125 110.09375 L 111.3125 114.933594 L 108.574219 116.796875 L 101.226563 122.308594 L 99.714844 123.820313 L 96.519531 125.683594 L 88.339844 132.382813 L 87.402344 133.273438 L 85.058594 134.445313 L 84.113281 135.324219 L 71.761719 145.570313 L 71.429688 146.285156 L 69.398438 147.570313 L 68.523438 148.890625 L 67.398438 149.476563 L 64.640625 152.460938 L 63.722656 153.378906 L 56.550781 160.125 L 51.066406 166.804688 L 47.070313 171.953125 L 44.433594 176.347656 L 42.917969 178.828125 L 41.027344 181.527344 L 40.488281 183.109375 L 38.40625 186.214844 L 37.597656 189.445313 L 35.664063 193.109375 L 34.820313 198.855469 L 34.097656 198.855469 L 23.046875 202.171875 L 16.644531 203.921875 L 12.152344 205.09375 L 11.714844 206.457031 L 10.210938 208.5 L 8.71875 210.597656 L 7.179688 213.09375 L 7.457031 213.09375 L 11.628906 211.589844 Z M 32.949219 210.796875 L 34.421875 210.128906 L 33.773438 205.332031 L 32.488281 205.972656 L 30.191406 206.433594 L 27.304688 207.3125 L 26.972656 210.109375 L 27.65625 212.238281 Z M 35.25 214.242188 L 34.601563 212.308594 L 31.816406 213.179688 L 29.734375 213.78125 L 28.355469 214.242188 L 27.667969 214.472656 L 27.425781 216.078125 L 28.074219 218.917969 L 31.347656 218.195313 L 34.910156 217.035156 Z M 50.863281 191.964844 L 56.175781 190.007813 L 57.210938 185.75 L 58.296875 182.105469 L 58.902344 180.023438 L 60.050781 177.726563 L 59.359375 177.726563 L 53.378906 179.960938 L 48.449219 181.746094 L 47.863281 182.246094 L 46.230469 185.761719 L 45.3125 191.273438 L 44.707031 193.941406 L 46.726563 193.34375 L 48.105469 192.882813 Z M 55.683594 194.261719 L 55.691406 192.476563 L 53.839844 192.828125 L 48.800781 194.777344 L 45.574219 195.582031 L 44.316406 196.296875 L 44.660156 203.90625 L 45.109375 205.214844 L 49.484375 203.90625 L 55.183594 201.742188 Z M 49.167969 211.996094 L 56.472656 209.671875 L 56.015625 203.878906 L 50.640625 205.351563 L 49.238281 206.125 L 45.644531 207.253906 L 46.203125 212.273438 L 47.875 212.632813 Z M 57.0625 215.390625 L 58.265625 214.707031 L 57.160156 211.320313 L 55.789063 211.90625 L 51.539063 213.476563 L 48.0625 214.5625 L 47.75 215.183594 L 48.75 218.007813 L 51.535156 217.148438 L 53.160156 216.308594 Z M 59.804688 175.808594 L 61.230469 175.308594 L 63.101563 171.589844 L 66.101563 166.945313 L 66.847656 165.074219 L 69.859375 161.027344 L 72.3125 158.15625 L 75.78125 153.726563 L 74.050781 154.234375 L 71.589844 155.453125 L 65.617188 157.292969 L 64.640625 158.203125 L 63.949219 158.476563 L 59.007813 164.140625 L 54.421875 170.574219 L 52.804688 173.386719 L 49.386719 179.132813 L 54.757813 177.660156 L 56.160156 176.886719 Z M 59.589844 188.75 L 60.050781 188.75 L 60.050781 188.289063 L 59.589844 188.289063 Z M 66.480469 197.9375 L 71.804688 195.964844 L 72.222656 189.667969 L 72.234375 186.523438 L 64.480469 188.910156 L 61.265625 190.289063 L 59.71875 190.777344 L 59.082031 191.730469 L 59.382813 200.222656 Z M 76.191406 173.832031 L 76.71875 172.027344 L 72.910156 173.132813 L 64.453125 176.21875 L 63.191406 177.046875 L 61.554688 180.75 L 60.472656 184.84375 L 59.878906 188.445313 L 62.578125 187.871094 L 72.996094 183.910156 L 74.25 179.796875 L 74.5625 177.402344 Z M 64.878906 206.71875 L 73.386719 203.679688 L 72.464844 198.007813 L 62.589844 201.226563 L 59.644531 202.292969 L 61 207.703125 Z M 74.644531 208.707031 L 74.066406 205.6875 L 69 207.0625 L 67.398438 208.042969 L 61.3125 209.992188 L 62.386719 213.214844 L 66.257813 212.230469 L 69.234375 211.257813 L 73.371094 209.648438 L 74.390625 209.214844 Z M 87.925781 153.101563 L 91.828125 148.222656 L 89.6875 148.863281 L 85.542969 150.164063 L 81.710938 151.785156 L 78.234375 153.25 L 75.347656 156.875 L 71.828125 161.8125 L 70.011719 164.582031 L 68.316406 166.703125 L 64.550781 174.003906 L 67.613281 173.054688 L 73.152344 170.910156 L 77.734375 169.484375 L 79.371094 166.933594 L 80.621094 164.152344 L 82.429688 160.921875 L 84.519531 157.78125 L 85.082031 156.597656 L 86.230469 155.449219 Z M 94.730469 135.464844 L 94.734375 135.058594 L 89.675781 136.386719 L 87.761719 137.457031 L 87.304688 138.375 L 85.160156 139.449219 L 84.699219 140.367188 L 83.015625 141.207031 L 81.636719 142.816406 L 78.882813 144.652344 L 76.125 147.410156 L 74.058594 149.246094 L 71.660156 150.816406 L 70.820313 152.105469 L 69.582031 152.660156 L 69.121094 153.953125 L 74.984375 152.066406 L 79.101563 150.238281 L 80.003906 148.683594 L 83.476563 145.113281 L 88.769531 140.445313 Z M 76.585938 172.214844 L 77.042969 172.214844 L 77.042969 171.753906 L 76.585938 171.753906 Z M 85.3125 185.761719 L 85.933594 181.695313 L 76.878906 184.914063 L 76.355469 186.453125 L 75.964844 193.179688 L 76.882813 194.097656 L 81.636719 192.652344 L 84.097656 191.800781 L 85.578125 190.921875 Z M 86.847656 198.878906 L 85.613281 193.320313 L 80.960938 194.796875 L 77.859375 195.84375 L 76.941406 196.304688 L 76.6875 196.8125 L 77.207031 201.3125 L 77.808594 201.917969 L 80.960938 200.769531 Z M 89.5 170.152344 L 90.050781 167.578125 L 84.632813 169.0625 L 83.230469 169.835938 L 80.03125 170.835938 L 78.917969 174.742188 L 77.347656 178.476563 L 76.867188 182.320313 L 78.652344 182.320313 L 86.425781 179.171875 L 86.910156 178.113281 L 87.757813 173.875 Z M 81.398438 206.605469 L 87.839844 204.824219 L 88.070313 203.675781 L 87.421875 200.824219 L 84.851563 201.609375 L 77.964844 204.136719 L 78.972656 207.167969 L 79.59375 207.480469 Z M 104.011719 146.679688 L 106.480469 143.265625 L 102.988281 144.136719 L 98.632813 146.03125 L 94.703125 147.304688 L 92.890625 149.246094 L 91.972656 151.082031 L 90.136719 152.921875 L 89.675781 154.300781 L 87.839844 156.136719 L 87.277344 157.324219 L 85.183594 160.460938 L 83.476563 163.945313 L 82.484375 165.082031 L 81.660156 167.996094 L 85.988281 166.625 L 91.6875 164.628906 L 92.445313 164.019531 L 93.941406 160.9375 L 95.878906 157.285156 L 97 156.035156 L 98.503906 154.03125 L 101.390625 149.707031 Z M 91.226563 146.253906 L 94.773438 144.976563 L 97.890625 140.832031 L 99.09375 139.601563 L 104.605469 135.007813 L 106.441406 132.941406 L 107.566406 132.355469 L 108.441406 131.035156 L 110.679688 129.75 L 111.105469 128.894531 L 105.3125 130.964844 L 100.699219 132.6875 L 98.414063 134.015625 L 96.578125 135.851563 L 90.605469 140.90625 L 88.988281 141.898438 L 87.609375 143.273438 L 86.691406 144.195313 L 82.453125 148.535156 L 82.050781 149.339844 L 85.527344 148.25 Z M 89.90625 167.621094 L 90.363281 167.621094 L 90.363281 167.160156 L 89.90625 167.160156 Z M 97.0625 175.761719 L 103.070313 173.421875 L 103.507813 169.773438 L 104.644531 167.394531 L 106.097656 161.925781 L 97.933594 164.339844 L 93.96875 166.023438 L 92.851563 167.953125 L 91.222656 172.894531 L 89.785156 178.148438 L 92.878906 177.191406 Z M 102.289063 177.496094 L 102.914063 175.761719 L 96.796875 177.726563 L 90.082031 180.167969 L 89.433594 182.546875 L 89.742188 189.722656 L 92.957031 188.453125 L 95.519531 187.578125 L 98.734375 186.65625 L 102.421875 185.335938 L 102.734375 183.921875 Z M 103.457031 191.046875 L 103.007813 187.304688 L 94.269531 190.128906 L 90.246094 191.703125 L 89.902344 194.492188 L 90.59375 196.558594 L 91.054688 197.476563 L 92.441406 197.082031 L 94.957031 195.867188 L 99.335938 194.335938 L 103.914063 192.882813 L 104.105469 192.648438 Z M 100.285156 200.554688 L 105.589844 198.632813 L 105.0625 195.179688 L 104.351563 194.824219 L 99.496094 196.792969 L 93.71875 198.671875 L 91.691406 199.539063 L 92.683594 203.058594 L 96.09375 201.996094 Z M 94.5 132.710938 L 94.957031 132.710938 L 94.957031 132.25 L 94.5 132.25 Z M 119.304688 116.175781 L 119.828125 115.125 L 116.851563 115.867188 L 115.332031 117.390625 L 111.761719 119.976563 L 110.804688 120.769531 L 109.390625 121.558594 L 105.0625 124.441406 L 103.019531 126.382813 L 100.675781 127.554688 L 99.742188 128.449219 L 95.714844 131.496094 L 94.804688 132.40625 L 97.488281 131.824219 L 100.808594 130.148438 L 108.484375 123.878906 L 110.828125 122.707031 L 111.769531 121.824219 L 115.359375 118.804688 Z M 100.25 161.714844 L 107.835938 159.121094 L 108.644531 156.804688 L 110.445313 154.488281 L 114.96875 147.0625 L 115.730469 146.285156 L 116.902344 143.941406 L 120.761719 139.84375 L 121.292969 138.070313 L 118.84375 138.683594 L 117.230469 139.195313 L 113.542969 140.886719 L 110.441406 141.710938 L 105.878906 146.695313 L 104.707031 149.042969 L 100.574219 154.046875 L 100.242188 155.21875 L 98.886719 156.699219 L 96.335938 160.730469 L 95.25 163.183594 Z M 125.273438 125.820313 L 128.144531 122.949219 L 126.414063 123.460938 L 123.980469 124.6875 L 116.691406 127.019531 L 113.636719 128.421875 L 113.230469 129.289063 L 111.199219 130.578125 L 110.300781 131.652344 L 106.144531 135.304688 L 102.308594 139.140625 L 101.183594 140.164063 L 99.714844 141.734375 L 97.550781 143.898438 L 104.359375 141.8125 L 107.257813 140.773438 L 110.679688 139.347656 L 111.136719 138.429688 L 112.574219 137.464844 L 114.042969 135.363281 L 115.375 134.652344 L 116.214844 133.359375 L 118.714844 131.601563 L 119.558594 130.3125 L 120.679688 129.726563 L 122.519531 127.65625 Z M 105.0625 129.035156 L 105.523438 129.035156 L 105.523438 128.578125 L 105.0625 128.578125 Z M 108.976563 127.714844 L 115.871094 125.289063 L 117.925781 123.523438 L 119.761719 121.6875 L 122.335938 119.988281 L 127.273438 116.011719 L 132.785156 111.878906 L 134.230469 111.121094 L 134.238281 110.261719 L 126.421875 112.480469 L 123.976563 114.09375 L 123.589844 114.949219 L 121.789063 116.046875 L 119.035156 117.882813 L 111.757813 123.640625 L 110.828125 124.546875 L 108.484375 125.71875 L 106.3125 127.390625 L 105.523438 128.578125 Z M 105.980469 162.109375 L 106.441406 162.109375 L 106.441406 161.648438 L 105.980469 161.648438 Z M 130.925781 161.925781 L 132.242188 160.167969 L 129.167969 161.121094 L 118.625 165.851563 L 116.085938 166.703125 L 113.195313 167.804688 L 112.667969 175.046875 L 116.351563 172.792969 L 118.15625 171.292969 L 119.0625 170.449219 L 122.285156 168.050781 L 123.742188 167.464844 L 124.203125 166.546875 L 125.4375 166.078125 L 128.695313 163.382813 L 129.101563 162.71875 Z M 123.105469 175.238281 L 123.96875 173.941406 L 113.210938 177.851563 L 112.917969 178.878906 L 113.535156 181.292969 L 120.941406 176.6875 L 121.828125 175.886719 Z M 137.675781 122.144531 L 141.503906 118.316406 L 139.277344 118.875 L 132.851563 121.226563 L 129.179688 123.984375 L 128.222656 124.773438 L 120.554688 131.523438 L 118.28125 133.835938 L 116.710938 135.304688 L 113.628906 138.386719 L 117.464844 137.304688 L 119.0625 136.320313 L 125.054688 134.609375 L 126.472656 133.3125 L 129.070313 129.691406 L 133.3125 125.820313 Z M 115.9375 157.800781 L 114.171875 161.75 L 115.867188 161.246094 L 123.710938 156.457031 L 124.613281 155.789063 L 128.894531 152.699219 L 133.679688 149.0625 L 139.335938 143.421875 L 142.183594 139.847656 L 142.5 138.683594 L 143.75 137.558594 L 146.09375 131.964844 L 146.871094 128.347656 L 146.558594 119.679688 L 144.761719 120.648438 L 143.878906 121.6875 L 142.433594 122.769531 L 141.554688 124.085938 L 140.660156 124.441406 L 136.820313 127.878906 L 136.042969 129.136719 L 135.125 129.597656 L 126.871094 139.070313 L 121.242188 146.695313 L 120.863281 147.730469 L 119.027344 150.488281 L 118.488281 151.796875 L 116.902344 154.964844 Z M 146.046875 166.035156 L 146.449219 165.230469 L 144.785156 165.71875 L 140.660156 167.621094 L 134.683594 169.402344 L 131.144531 171.089844 L 129.179688 172.214844 L 128.230469 173.019531 L 121.859375 177.835938 L 120.941406 178.527344 L 114.152344 182.523438 L 113.65625 183.882813 L 122.28125 180.886719 L 126.5 179.277344 L 134.253906 174.613281 L 140.667969 169.859375 L 141.964844 169.152344 L 142.421875 168.230469 L 143.878906 167.621094 Z M 114.25 186.453125 L 115.167969 186.453125 L 115.167969 185.992188 L 114.25 185.992188 Z M 115.167969 185.992188 L 116.085938 185.992188 L 116.085938 185.535156 L 115.167969 185.535156 Z M 116.546875 174.511719 L 117.007813 174.511719 L 117.007813 174.050781 L 116.546875 174.050781 Z M 116.085938 185.535156 L 117.007813 185.535156 L 117.007813 185.074219 L 116.085938 185.074219 Z M 122.058594 188.289063 L 123.667969 187.371094 L 123.71875 186.597656 L 125.632813 185.738281 L 134.648438 180.351563 L 136.886719 178.910156 L 137.742188 177.625 L 135.839844 178.183594 L 126.652344 181.859375 L 125.273438 182.089844 L 120.5 184.757813 L 119.074219 185.535156 L 119.054688 186.359375 L 117.671875 186.808594 L 115.628906 187.832031 L 115.273438 188.542969 L 116.316406 191.078125 L 117.707031 190.65625 Z M 147.929688 155.5 L 150.226563 152.746094 L 140.21875 156.683594 L 136.847656 158.183594 L 136.511719 158.8125 L 125.503906 167.59375 L 124.203125 168.386719 L 123.742188 169.304688 L 122.25 170.25 L 117.925781 173.132813 L 117.417969 174.140625 L 119.082031 173.652344 L 121.824219 172.15625 L 131.859375 168.691406 L 138.800781 162.921875 L 140.253906 162.25 Z M 119.761719 115.257813 L 120.679688 115.257813 L 120.679688 114.796875 L 119.761719 114.796875 Z M 120.222656 123.523438 L 121.140625 123.523438 L 121.140625 123.066406 L 120.222656 123.066406 Z M 121.140625 138.222656 L 121.601563 138.222656 L 121.601563 137.761719 L 121.140625 137.761719 Z M 152.042969 104.960938 L 152.960938 103.582031 L 143.648438 106.527344 L 140.738281 107.617188 L 137.492188 110.339844 L 136.527344 111.121094 L 134.765625 111.886719 L 134.308594 112.804688 L 133.3125 113.445313 L 124.179688 119.996094 L 121.371094 122.144531 L 121.363281 123.007813 L 126.421875 121.6875 L 127.734375 121.066406 L 133.839844 118.632813 L 140.136719 113.714844 L 141.964844 112.652344 L 142.421875 111.734375 L 144.003906 110.867188 L 148.699219 106.988281 Z M 123.4375 111.582031 L 123.894531 111.582031 L 123.894531 111.121094 L 123.4375 111.121094 Z M 123.4375 161.648438 L 123.894531 161.648438 L 123.894531 161.1875 L 123.4375 161.1875 Z M 141.042969 152.75 L 148.335938 144.542969 L 145.25 145.515625 L 142.269531 147.179688 L 140.269531 147.707031 L 139.328125 149.109375 L 134.667969 152.820313 L 133.726563 153.703125 L 129.707031 156.757813 L 128.03125 158.433594 L 126.191406 159.351563 L 124.253906 160.476563 L 123.816406 161.347656 L 133.785156 157.597656 L 136.117188 156.453125 L 139.136719 154.515625 L 139.820313 153.226563 Z M 123.894531 174.050781 L 124.816406 174.050781 L 124.816406 173.589844 L 123.894531 173.589844 Z M 138.296875 102.230469 L 139.214844 101.3125 L 136.058594 102.320313 L 129.667969 107.097656 L 128.230469 107.796875 L 124.125 110.664063 L 124.121094 111.078125 L 126.558594 110.570313 L 129.59375 108.691406 L 131.488281 107.375 L 132.417969 106.632813 Z M 132.164063 160.269531 L 132.625 160.269531 L 132.625 159.8125 L 132.164063 159.8125 Z M 132.164063 108.367188 L 133.082031 108.367188 L 133.082031 107.90625 L 132.164063 107.90625 Z M 132.625 177.265625 L 133.542969 177.265625 L 133.542969 176.804688 L 132.625 176.804688 Z M 152.503906 97.609375 L 153.292969 96.421875 L 152.605469 96.421875 L 147.78125 98.03125 L 144.730469 99.476563 L 141.074219 102.253906 L 134.816406 106.273438 L 134 106.988281 L 132.929688 108.058594 L 135.613281 107.496094 L 138.953125 106.324219 L 142.074219 104.8125 L 149.617188 99.640625 Z M 134 176.804688 L 134.460938 176.804688 L 134.460938 176.347656 L 134 176.347656 Z M 134.460938 110.203125 L 134.921875 110.203125 L 134.921875 109.742188 L 134.460938 109.742188 Z M 135.378906 109.742188 L 135.839844 109.742188 L 135.839844 109.285156 L 135.378906 109.285156 Z M 162.160156 160.546875 L 163.511719 158.742188 L 151.199219 163.375 L 144.003906 169.203125 L 142.421875 170.070313 L 141.964844 170.988281 L 140.667969 171.699219 L 134.816406 175.632813 L 134.378906 176.507813 L 139.742188 174.96875 L 142.730469 173.820313 L 146.945313 171.96875 L 147.402344 171.050781 L 149.433594 169.59375 L 152.191406 167.757813 L 158.070313 163.347656 L 159.878906 162.261719 L 160.335938 161.34375 Z M 136.757813 166.703125 L 137.21875 166.703125 L 137.21875 166.242188 L 136.757813 166.242188 Z M 168.910156 146.03125 L 169.914063 144.527344 L 166.863281 145.664063 L 165.910156 146.410156 L 155.589844 150.394531 L 154.464844 151.644531 L 152.835938 152.460938 L 152.019531 154.09375 L 149.78125 155.378906 L 148.90625 156.699219 L 147.78125 157.285156 L 145.484375 159.8125 L 143.867188 160.800781 L 138.46875 165.054688 L 137.601563 166.355469 L 152.613281 160.785156 L 154.800781 159.160156 L 156.507813 157.054688 L 158.140625 156.238281 L 165.53125 149.542969 L 166.453125 148.164063 L 167.828125 147.246094 Z M 138.136719 177.726563 L 138.59375 177.726563 L 138.59375 177.265625 L 138.136719 177.265625 Z M 138.59375 117.09375 L 139.054688 117.09375 L 139.054688 116.632813 L 138.59375 116.632813 Z M 139.054688 101.476563 L 139.511719 101.476563 L 139.511719 101.015625 L 139.054688 101.015625 Z M 163.859375 101.015625 L 165.808594 99.066406 L 162.265625 100.175781 L 159.316406 101.253906 L 153.753906 105.609375 L 148.699219 109.285156 L 143.003906 113.554688 L 142.0625 114.441406 L 139.511719 115.714844 L 138.972656 116.800781 L 146.042969 114.625 L 150.699219 110.960938 L 152.222656 110.050781 L 152.679688 109.132813 L 154.824219 108.058594 L 155.285156 107.140625 L 157.121094 106.222656 L 157.507813 105.367188 L 159.53125 103.898438 Z M 141.808594 118.472656 L 142.269531 118.472656 L 142.269531 118.011719 L 141.808594 118.011719 Z M 141.808594 154.300781 L 142.269531 154.300781 L 142.269531 153.839844 L 141.808594 153.839844 Z M 142.730469 97.800781 L 143.1875 97.800781 L 143.1875 97.34375 L 142.730469 97.34375 Z M 164.457031 138.5 L 165.769531 136.746094 L 154.460938 141.53125 L 152.429688 142.59375 L 150.640625 144.449219 L 146.082031 149.980469 L 143.1875 152.230469 L 142.730469 152.921875 L 142.222656 153.933594 L 144.808594 152.996094 L 155.382813 148.429688 L 157.199219 146.492188 L 157.734375 145.417969 L 158.804688 144.882813 Z M 143.648438 97.34375 L 144.566406 97.34375 L 144.566406 96.882813 L 143.648438 96.882813 Z M 159.351563 129.742188 L 160.347656 127.035156 L 154.847656 129.808594 L 152.652344 133.308594 L 152.089844 134.398438 L 148.699219 139.140625 L 145.945313 141.898438 L 144.488281 143.835938 L 147.105469 142.890625 L 151.222656 141.015625 L 154.792969 136.652344 L 156.621094 133.890625 L 158.347656 130.875 Z M 159.367188 87.492188 L 159.792969 86.636719 L 156.25 88.042969 L 153.101563 90.578125 L 151.65625 91.257813 L 146.175781 95.535156 L 144.796875 95.964844 L 144.785156 96.820313 L 147.109375 96.054688 L 149.402344 94.511719 L 150.335938 93.777344 L 156.710938 88.960938 L 157.65625 88.15625 Z M 147.320313 103.3125 L 147.78125 103.3125 L 147.78125 102.855469 L 147.320313 102.855469 Z M 148.242188 144.652344 L 148.699219 144.652344 L 148.699219 144.195313 L 148.242188 144.195313 Z M 172.6875 90.246094 L 173.042969 89.535156 L 172.355469 89.535156 L 166.359375 91.726563 L 159.003906 94.472656 L 155.859375 97.011719 L 154.414063 97.691406 L 149.949219 100.75 L 148.699219 101.933594 L 147.617188 103.015625 L 156.273438 100.042969 L 160.414063 98.75 L 162.722656 97.269531 L 163.65625 96.535156 L 170.03125 91.71875 L 170.976563 90.910156 Z M 150.078125 152.921875 L 150.996094 152.921875 L 150.996094 152.460938 L 150.078125 152.460938 Z M 151.914063 94.585938 L 152.375 94.585938 L 152.375 94.125 L 151.914063 94.125 Z M 172.710938 83.371094 L 173.609375 82.023438 L 170.515625 82.613281 L 165.925781 84.480469 L 164.136719 85.539063 L 158.144531 90.105469 L 156.710938 90.800781 L 152.605469 93.667969 L 152.601563 94.082031 L 154.90625 93.707031 L 160.941406 91.074219 L 162.710938 90.453125 L 163.65625 89.644531 L 170.03125 84.828125 L 170.976563 84.019531 Z M 152.835938 103.773438 L 153.753906 103.773438 L 153.753906 103.3125 L 152.835938 103.3125 Z M 153.753906 96.421875 L 154.210938 96.421875 L 154.210938 95.964844 L 153.753906 95.964844 Z M 155.589844 127.199219 L 156.050781 127.199219 L 156.050781 126.738281 L 155.589844 126.738281 Z M 173.882813 124.199219 L 175.441406 120.769531 L 174.191406 120.769531 L 163.933594 125.578125 L 162.453125 128.34375 L 160.257813 131.550781 L 159.847656 132.515625 L 155.085938 139.273438 L 159.050781 137.84375 L 166.367188 134.460938 L 167.710938 133.777344 L 168.65625 132.148438 L 170.519531 130.414063 L 170.921875 128.886719 L 173.273438 125.820313 Z M 165.90625 56.828125 L 166.84375 56.460938 L 166.855469 50.101563 L 165.234375 50.488281 L 164.066406 51.316406 L 156.332031 54.3125 L 155.851563 61.042969 L 160.398438 59.140625 L 161.804688 58.675781 Z M 163.183594 64.8125 L 168.101563 62.691406 L 167.492188 58.234375 L 165.695313 58.757813 L 163.148438 60.042969 L 156.277344 62.890625 L 156.054688 64.039063 L 156.675781 67.328125 Z M 167.183594 75.550781 L 168.144531 73.304688 L 165.917969 73.859375 L 157.023438 77.59375 L 156.332031 83.144531 L 161.816406 79.53125 Z M 156.507813 159.351563 L 156.96875 159.351563 L 156.96875 158.890625 L 156.507813 158.890625 Z M 166.367188 48.105469 L 167.59375 47.511719 L 168.410156 41.988281 L 170.367188 38.332031 L 170.875 37.023438 L 168.21875 37.597656 L 164.9375 39.304688 L 162.941406 40.15625 L 160.183594 41.074219 L 159.035156 42.222656 L 157.886719 44.289063 L 156.332031 52.472656 L 159.050781 51.492188 Z M 167.652344 71.421875 L 168.191406 64.738281 L 165.695313 65.648438 L 162.941406 67.027344 L 160.183594 67.945313 L 158.804688 68.632813 L 157.199219 69.324219 L 157.179688 75.667969 L 160.398438 74.289063 L 162.710938 73.457031 Z M 165.464844 113.417969 L 165.871094 109.597656 L 163.621094 110.148438 L 157.230469 113.078125 L 156.773438 118.917969 L 163.613281 116.09375 L 164.949219 115.410156 Z M 163.332031 120.988281 L 164.011719 117.859375 L 160.183594 119.390625 L 157.175781 120.867188 L 156.277344 125.359375 L 156.269531 126.671875 L 159.496094 125.839844 L 161.894531 124.25 L 162.761719 122.917969 Z M 166.273438 107.308594 L 166.777344 103.773438 L 165.925781 103.773438 L 165.390625 104.84375 L 163.628906 105.585938 L 157.324219 110.410156 L 156.921875 111.214844 L 158.804688 110.664063 L 159.96875 109.828125 Z M 157.425781 158.890625 L 157.886719 158.890625 L 157.886719 158.433594 L 157.425781 158.433594 Z M 185.101563 139.257813 L 186.429688 139.699219 L 185.445313 138.222656 L 178.34375 141.0625 L 175.800781 142.125 L 175.339844 142.585938 L 173.734375 142.816406 L 173.699219 144.074219 L 172.585938 144.421875 L 164.464844 152.746094 L 160.414063 155.675781 L 159.128906 156.78125 L 157.75 158.617188 L 161.5625 157.054688 L 167.992188 155.066406 L 170.519531 153.378906 L 170.851563 152.667969 L 173.148438 151.335938 L 173.859375 149.910156 L 178.464844 146.28125 L 179.742188 144.527344 L 181.148438 143.570313 L 182.027344 142.253906 L 183.304688 141.589844 L 183.839844 140.519531 Z M 159.265625 146.949219 L 159.722656 146.949219 L 159.722656 146.492188 L 159.265625 146.492188 Z M 159.722656 146.492188 L 160.183594 146.492188 L 160.183594 146.03125 L 159.722656 146.03125 Z M 178.867188 24.484375 L 181.433594 21.40625 L 178.78125 21.964844 L 175.636719 23.09375 L 171.285156 24.984375 L 163.089844 34.699219 L 161.933594 36.464844 L 160.925781 38.671875 L 168.695313 35.867188 L 172.246094 34.214844 L 175.574219 28.855469 L 178.097656 25.914063 Z M 180.941406 131.578125 L 181.414063 130.003906 L 174.636719 132.628906 L 169.390625 135.238281 L 164.625 141.148438 L 162.734375 143.378906 L 160.949219 144.269531 L 160.011719 146.183594 L 162.714844 145.621094 L 165.695313 144.195313 L 168.234375 143.355469 L 173.160156 141.09375 L 175.113281 139.140625 Z M 163.398438 158.890625 L 163.859375 158.890625 L 163.859375 158.433594 L 163.398438 158.433594 Z M 177.339844 74.671875 L 178.261719 73.753906 L 174.652344 74.824219 L 170.0625 78.539063 L 168.296875 79.273438 L 167.839844 80.195313 L 166.15625 81.035156 L 165.234375 81.726563 L 164.15625 82.804688 L 167.320313 81.808594 L 170.953125 78.867188 L 173.296875 77.695313 Z M 165.695313 96.882813 L 166.15625 96.882813 L 166.15625 96.421875 L 165.695313 96.421875 Z M 165.695313 99.179688 L 166.15625 99.179688 L 166.15625 98.71875 L 165.695313 98.71875 Z M 178.132813 114.570313 L 178.722656 111.449219 L 175.5625 112.433594 L 168.132813 115.898438 L 166.097656 120.53125 L 165.554688 122.703125 L 173.261719 119.3125 L 175.578125 118.527344 L 176.605469 117.839844 Z M 166.613281 103.773438 L 167.074219 103.773438 L 167.074219 103.3125 L 166.613281 103.3125 Z M 182 87.207031 L 183.378906 86.777344 L 183.386719 85.921875 L 179.933594 86.777344 L 178.417969 87.511719 L 171.503906 92.453125 L 169.992188 93.964844 L 166.972656 95.710938 L 166.566406 96.515625 L 168.664063 95.878906 L 170.75 95.273438 L 173.273438 94.125 L 174.191406 93.207031 L 175.570313 92.289063 L 176.519531 91.480469 Z M 167.074219 89.074219 L 167.992188 89.074219 L 167.992188 88.613281 L 167.074219 88.613281 Z M 192.550781 86.402344 L 193.804688 86.882813 L 191.417969 84.019531 L 188.660156 81.265625 L 185.257813 77.632813 L 179.292969 80.207031 L 177.839844 81.152344 L 171.464844 85.96875 L 170.519531 86.777344 L 168.785156 87.429688 L 167.992188 88.613281 L 169.601563 88.613281 L 174.652344 86.296875 L 179.203125 85.074219 L 184.285156 81.648438 L 185.675781 81.273438 L 189.582031 84.480469 Z M 179.953125 107.21875 L 180.566406 103.160156 L 178.777344 103.707031 L 175.09375 105.523438 L 169.996094 107.472656 L 168.679688 112.5 L 168.671875 113.355469 L 171.894531 112.5 L 173.257813 111.496094 L 179.136719 109.023438 Z M 180.964844 100.816406 L 181.492188 95.820313 L 178.785156 96.421875 L 176.558594 97.503906 L 173.289063 99.253906 L 170.976563 100.097656 L 170.519531 103.773438 L 170.496094 105.507813 L 171.414063 105.046875 L 175.570313 103.3125 Z M 181.148438 41.464844 L 184.777344 39.835938 L 186.222656 36.429688 L 188.101563 34.082031 L 185.699219 31.554688 L 184.296875 31.199219 L 182.929688 32.183594 L 174.050781 35.527344 L 171.640625 41.992188 L 171.042969 45.960938 L 175.800781 44.058594 Z M 171.667969 72.539063 L 172.125 71.621094 L 171.207031 71.621094 L 171.207031 72.539063 Z M 171.207031 132.25 L 171.667969 132.25 L 171.667969 131.792969 L 171.207031 131.792969 Z M 185.285156 47.898438 L 184.769531 42.152344 L 181.542969 43.140625 L 180.203125 43.726563 L 173.292969 46.90625 L 171.085938 47.929688 L 170.589844 54.332031 L 176.042969 52.40625 L 181.070313 49.953125 L 183.386719 49.167969 L 184.691406 48.492188 Z M 184.824219 55.378906 L 186.039063 55.355469 L 185.535156 49.988281 L 183.402344 51.050781 L 172.832031 55.628906 L 171.539063 56.191406 L 171.222656 58.070313 L 171.878906 60.96875 L 176.046875 59.304688 L 182.921875 56.460938 Z M 184.609375 62.675781 L 186.019531 62.234375 L 185.613281 57.222656 L 180.183594 59.3125 L 179.015625 60.136719 L 173.726563 61.910156 L 171.894531 62.890625 L 171.882813 69.242188 L 179.976563 66.351563 Z M 178.785156 129.035156 L 183.414063 127.09375 L 183.964844 126.027344 L 184.882813 124.1875 L 186.136719 123.523438 L 187.03125 122.707031 L 187.539063 122.960938 L 190.015625 121 L 189.683594 120.054688 L 186.160156 116.53125 L 184.296875 116.175781 L 178.78125 118.886719 L 178.199219 120.972656 L 176.1875 124.203125 L 175.421875 126.523438 L 173.632813 128.769531 L 173.183594 129.769531 L 171.589844 131.894531 L 176.039063 130.46875 Z M 172.585938 71.621094 L 173.042969 71.621094 L 173.042969 71.160156 L 172.585938 71.160156 Z M 173.042969 79.886719 L 173.503906 79.886719 L 173.503906 79.429688 L 173.042969 79.429688 Z M 173.503906 82.183594 L 174.421875 82.183594 L 174.421875 81.726563 L 173.503906 81.726563 Z M 190.265625 78.101563 L 191.960938 78.613281 L 188.347656 74.09375 L 186.167969 71.960938 L 184.710938 71.136719 L 180.117188 74.695313 L 173.859375 78.714844 L 173.414063 79.613281 L 177.179688 78.507813 L 181.503906 76.800781 L 184.285156 74.757813 L 185.675781 74.378906 Z M 175.339844 120.769531 L 175.800781 120.769531 L 175.800781 120.308594 L 175.339844 120.308594 Z M 196.257813 21.921875 L 199.8125 23.542969 L 197.390625 20.632813 L 194.824219 18.921875 L 193.714844 17.648438 L 192.527344 15.914063 L 191.1875 15.582031 L 191.136719 14.804688 L 189.121094 13.742188 L 188.203125 13.515625 L 187.03125 12.925781 L 185.191406 12.007813 L 183.773438 12.988281 L 182.894531 14.304688 L 181.773438 14.890625 L 177.890625 18.898438 L 176.167969 19.761719 L 175.71875 21.105469 L 184.757813 17.414063 L 187.976563 17.839844 L 191.636719 19.78125 L 193.957031 20.558594 Z M 176.71875 30.507813 L 175.636719 32.734375 L 185.316406 29.003906 L 189.65625 33.339844 L 194.863281 33.03125 L 198.054688 33.851563 L 198.765625 33.496094 L 198.410156 32.78125 L 193.714844 28.441406 L 192.796875 27.523438 L 189.453125 24.117188 L 187.871094 21.742188 L 186.621094 20.53125 L 184.988281 19.714844 L 182.230469 23.390625 L 178.925781 27.273438 L 178.199219 29.15625 Z M 177.179688 139.601563 L 177.636719 139.601563 L 177.636719 139.140625 L 177.179688 139.140625 Z M 191.011719 140.722656 L 198.445313 141.164063 L 197.066406 139.324219 L 192.335938 135.464844 L 188.660156 131.792969 L 187.742188 130.875 L 185.292969 128.195313 L 184.679688 128.5 L 182.804688 132.050781 L 180.851563 134.777344 L 178.785156 136.84375 L 178.199219 138.015625 L 177.59375 139.234375 L 182.007813 137.820313 L 184.296875 136.386719 L 185.6875 136.773438 L 186.621094 137.40625 L 187.539063 138.578125 L 190.589844 140.933594 Z M 179.015625 94.585938 L 179.476563 94.585938 L 179.476563 94.125 L 179.015625 94.125 Z M 179.933594 94.125 L 180.394531 94.125 L 180.394531 93.667969 L 179.933594 93.667969 Z M 180.394531 103.3125 L 180.851563 103.3125 L 180.851563 102.855469 L 180.394531 102.855469 Z M 180.9375 114.125 L 180.316406 116.175781 L 180.625 116.175781 L 183.148438 114.796875 L 185.21875 113.878906 L 187.285156 116.175781 L 190.25 119.019531 L 191.25 119.410156 L 192.859375 117.332031 L 193 115.613281 L 192.105469 115.21875 L 189.339844 111.96875 L 187.179688 110.410156 L 186.59375 109.285156 L 184.753906 108.402344 L 182.484375 109.640625 L 181.628906 111.863281 Z M 180.851563 70.699219 L 181.3125 70.699219 L 181.3125 70.242188 L 180.851563 70.242188 Z M 180.394531 93.667969 L 181.3125 93.667969 L 181.3125 93.207031 L 180.394531 93.207031 Z M 181.3125 93.207031 L 181.773438 93.207031 L 181.773438 92.75 L 181.3125 92.75 Z M 181.3125 129.953125 L 181.773438 129.953125 L 181.773438 129.496094 L 181.3125 129.496094 Z M 196.738281 77.003906 L 199.785156 79.035156 L 199.328125 77.796875 L 197.746094 76.878906 L 197.160156 75.753906 L 194.632813 73.226563 L 192.070313 71.746094 L 185.179688 67.152344 L 183.839844 67.945313 L 182.691406 68.863281 L 182.230469 69.324219 L 181.148438 70.402344 L 185.1875 68.972656 L 195.277344 75.890625 Z M 183.378906 106.527344 L 183.375 106.9375 L 185.683594 106.472656 L 186.824219 107.449219 L 194.019531 114.644531 L 194.632813 113.878906 L 195.4375 111.839844 L 194.734375 109.949219 L 190.5 105.609375 L 189.582031 104.691406 L 185.679688 100.980469 L 184.261719 101.351563 L 183.839844 102.855469 Z M 183.609375 85.859375 L 184.527344 85.859375 L 184.527344 85.398438 L 183.609375 85.398438 Z M 195.304688 108.453125 L 196.242188 108.824219 L 197.285156 104.945313 L 197.03125 104.4375 L 192.566406 100.558594 L 191.703125 99.488281 L 185.453125 94.097656 L 184.613281 99.136719 L 185.242188 98.824219 L 189.550781 102.621094 L 189.886719 103.464844 L 190.742188 103.84375 L 192.175781 105.773438 Z M 184.988281 83.101563 L 185.445313 83.101563 L 185.445313 82.644531 L 184.988281 82.644531 Z M 184.988281 85.398438 L 185.445313 85.398438 L 185.445313 84.941406 L 184.988281 84.941406 Z M 195.746094 97.464844 L 185.828125 90.453125 L 185.761719 92.570313 L 188.660156 94.585938 L 192.796875 99.179688 L 194.632813 101.015625 L 195.78125 101.933594 L 197.617188 102.855469 L 197.746094 102.601563 L 197.492188 101.269531 L 198.207031 99.84375 L 198.125 98.859375 Z M 202.65625 97.425781 L 203.933594 97.917969 L 200.535156 93.542969 L 192.335938 88.15625 L 189.808594 86.316406 L 188.890625 85.398438 L 186.367188 83.5625 L 186.976563 84.785156 L 187.949219 85.296875 L 189.519531 87.457031 L 193.058594 90.332031 L 199.863281 95.191406 Z M 188.269531 79.066406 L 189.625 79.519531 L 189.121094 78.507813 L 187.285156 77.589844 Z M 214.59375 40.019531 L 217.664063 41.429688 L 217.242188 40.589844 L 213.464844 36.941406 L 212.699219 36.558594 L 211.933594 35.027344 L 211.167969 34.644531 L 205.425781 28.902344 L 202.671875 27.0625 L 193.070313 22.332031 L 191.632813 21.632813 L 188.707031 20.726563 L 189.121094 21.550781 L 189.609375 22.242188 L 193.769531 25.921875 L 195.347656 28.085938 L 196.695313 28.855469 L 198.945313 31.800781 L 201.597656 34.171875 L 205.035156 35.628906 L 209.628906 37.464844 Z M 190.039063 46.355469 L 189.121094 45.898438 L 189.085938 50.261719 L 189.699219 52.589844 L 194.175781 56.460938 L 198.972656 61.617188 L 199.914063 61.972656 L 200.144531 60.136719 L 200.21875 59 L 200.890625 57.496094 L 200.375 56.460938 L 196.265625 52.226563 L 194.839844 51.511719 L 192.957031 49.273438 Z M 200.261719 69.898438 L 201.464844 70.300781 L 200.742188 68.128906 L 200.960938 67.691406 L 200.375 66.109375 L 200.335938 65.0625 L 198.929688 63.515625 L 193.253906 57.839844 L 189.753906 54.777344 L 189.867188 59.367188 L 193.550781 63.1875 Z M 190.753906 79.785156 L 189.464844 79.3125 L 189.9375 80.601563 L 194.632813 84.941406 L 196.472656 87.007813 L 199.882813 91.492188 L 203.179688 93.984375 L 210.003906 98.808594 L 211.214844 99.269531 L 210.710938 98.261719 L 208.871094 96.421875 L 204.507813 91.828125 L 203.847656 90.683594 L 199.714844 87.007813 L 199.300781 86.101563 L 195.550781 83.5625 Z M 191.210938 62.789063 L 189.808594 62.433594 L 189.683594 62.6875 L 189.902344 65.464844 L 192.609375 67.351563 L 195.300781 68.957031 L 197.511719 69.921875 L 197.03125 68.609375 L 195.550781 67.027344 L 194.632813 66.109375 Z M 192.082031 75.398438 L 190.957031 74.835938 L 190.753906 75.191406 L 191.878906 75.753906 Z M 204.738281 53.015625 L 206.472656 52.582031 L 206.21875 52.074219 L 196.472656 42.679688 L 193.714844 39.925781 L 191.648438 37.628906 L 190.703125 37.984375 L 189.65625 39.160156 L 189.9375 39.71875 L 189.113281 41.53125 L 189.476563 43.855469 L 195.550781 50.03125 L 196.472656 50.949219 L 198.765625 53.015625 L 199.53125 53.398438 L 199.992188 54.316406 L 201.285156 55.140625 L 202.109375 55.273438 L 203.105469 53.808594 L 203.667969 54.089844 Z M 193.492188 76.160156 L 191.761719 75.636719 L 192.242188 76.921875 L 195.589844 79.660156 L 196.242188 80.804688 L 200.375 84.941406 L 206.765625 89.664063 L 210.972656 92.171875 L 213.671875 94.230469 L 214.539063 94.664063 L 213.585938 92.945313 L 212.546875 91.828125 L 209.332031 89.074219 L 207.296875 86.199219 L 201.6875 82.023438 L 199.398438 80.5 Z M 193.253906 79.886719 L 192.796875 78.96875 L 192.335938 78.96875 L 192.796875 79.886719 Z M 193.253906 116.632813 L 193.714844 116.632813 L 193.714844 116.175781 L 193.253906 116.175781 Z M 190.292969 126.84375 L 186.875 127.761719 L 187.179688 128.371094 L 188.203125 128.804688 L 191.878906 132.25 L 192.796875 133.171875 L 195.550781 135.925781 L 199.433594 140.164063 L 200.839844 140.117188 L 203.582031 139.085938 L 204.441406 138.84375 L 206.871094 136.683594 L 205.953125 135.761719 L 204.054688 133.683594 L 203.359375 133.398438 L 199.019531 128.933594 L 197.59375 128.21875 L 195.714844 125.984375 L 193.714844 123.984375 L 192.082031 124.800781 L 190.957031 125.820313 Z M 194.839844 87.339844 L 193.714844 86.777344 L 194.175781 87.695313 L 194.632813 87.695313 Z M 195.550781 111.121094 L 196.011719 111.121094 L 196.011719 110.664063 L 195.550781 110.664063 Z M 197.160156 36.273438 L 193.289063 36.78125 L 193.613281 37.421875 L 197.390625 40.84375 L 198.308594 41.761719 L 202.210938 45.898438 L 202.75 46.96875 L 204.046875 47.707031 L 207.722656 51.839844 L 208.414063 52.097656 L 211.167969 51.867188 L 211.398438 51.867188 L 215.304688 52.558594 L 217.371094 53.246094 L 218.058594 53.246094 L 217.269531 52.058594 L 216.070313 51.5625 L 215.347656 50.265625 L 212.734375 48.058594 L 209.167969 43.761719 L 205.566406 40.597656 L 203.027344 37.4375 L 198.46875 36.414063 Z M 197.636719 120.222656 L 196.699219 119.871094 L 195.003906 121.898438 L 194.632813 122.835938 L 201.523438 129.496094 L 203.523438 131.496094 L 205.359375 133.46875 L 207.71875 135.421875 L 209.390625 134.632813 L 210.214844 132.476563 L 209.289063 131.097656 L 202.796875 125.613281 L 202.085938 124.1875 L 200.605469 122.605469 L 199.457031 121.6875 Z M 197.847656 19.714844 L 198.308594 19.714844 L 198.308594 19.253906 L 197.847656 19.253906 Z M 198.722656 70.148438 L 197.34375 69.691406 L 197.894531 70.792969 L 199.273438 71.253906 Z M 202.230469 21.460938 L 198.722656 19.808594 L 199.125 20.886719 L 200.605469 22.472656 L 201.523438 23.390625 L 204.28125 26.144531 L 205.410156 27.15625 L 207.277344 27.90625 L 209.613281 29.675781 L 217.789063 34.542969 L 220.574219 36.636719 L 223.785156 39.09375 L 225.984375 40.097656 L 225.078125 38.738281 L 224.03125 37.628906 L 220.816406 34.414063 L 218.1875 31.847656 L 215.992188 30.28125 L 213.660156 29.027344 Z M 198.765625 33.953125 L 199.226563 33.953125 L 199.226563 33.496094 L 198.765625 33.496094 Z M 199.226563 71.621094 L 199.6875 71.621094 L 199.6875 71.160156 L 199.226563 71.160156 Z M 199.933594 115.167969 L 198.996094 114.796875 L 198.539063 115.714844 L 197.953125 116.886719 L 197.464844 117.859375 L 203.359375 123.984375 L 204.28125 124.902344 L 206.574219 126.738281 L 208.574219 128.738281 L 210.472656 130.816406 L 211.695313 131.367188 L 212.878906 127.847656 L 212.050781 126.507813 L 205.285156 120.554688 L 203.097656 117.894531 Z M 199.6875 79.429688 L 200.144531 79.429688 L 200.144531 78.96875 L 199.6875 78.96875 Z M 201.0625 77.589844 L 200.605469 76.671875 L 200.144531 76.671875 L 199.941406 77.027344 Z M 200.605469 79.886719 L 201.0625 79.886719 L 201.0625 79.429688 L 200.605469 79.429688 Z M 202.257813 109.605469 L 200.789063 108.503906 L 199.890625 111.683594 L 200.042969 113.214844 L 203.359375 116.632813 L 204.28125 117.550781 L 209.332031 122.605469 L 211.167969 123.523438 L 212.191406 124.648438 L 213.039063 126.34375 L 214.195313 125.949219 L 214.28125 125.105469 L 215.1875 122.261719 L 211.882813 118.828125 L 210.457031 118.113281 L 208.574219 115.878906 L 203.359375 110.664063 Z M 203.09375 78.636719 L 201.351563 77.476563 L 202.59375 79.964844 L 204.074219 80.703125 L 207.609375 84.367188 L 215.492188 89.203125 L 220.570313 92.832031 L 221.800781 93.304688 L 220.941406 92.019531 L 215.488281 86.183594 L 208.226563 82.050781 L 204.140625 79.246094 Z M 214.15625 119.390625 L 215.53125 119.847656 L 215.992188 118.929688 L 216.222656 118.011719 L 216.398438 116.027344 L 213.324219 113.699219 L 212.089844 112.5 L 211.167969 111.582031 L 207.035156 107.21875 L 205.898438 106.601563 L 204.601563 104.875 L 202.28125 103.015625 L 201.6875 103.609375 L 201.160156 106.277344 L 202.367188 108.316406 L 205.007813 110.074219 L 207.496094 112.5 L 208.414063 113.417969 L 211.167969 116.632813 L 212.089844 117.550781 Z M 204.992188 69.21875 L 204.28125 68.863281 L 204.28125 69.550781 L 205.542969 74.117188 L 205.199219 75.0625 L 206.117188 75.753906 L 210.914063 78.152344 L 211.875 78.882813 L 215.476563 80.496094 L 215.496094 79.300781 L 213.273438 77.71875 L 211.882813 75.652344 L 210.457031 74.9375 L 206.117188 70.242188 Z M 205.417969 98.324219 L 204.050781 97.800781 L 203.597656 98.199219 L 204.96875 98.71875 Z M 212.546875 67.945313 L 204.96875 60.59375 L 204.507813 60.59375 L 204.050781 62.890625 L 203.921875 63.144531 L 204.117188 66.269531 L 208.144531 70.828125 L 210.519531 72.410156 L 212.191406 74.121094 L 212.902344 75.546875 L 215.515625 77.679688 L 216.453125 78.050781 L 216.578125 76.925781 L 216.222656 75.984375 L 216.910156 75.292969 L 217.066406 73.238281 L 216.339844 71.816406 L 215.304688 70.699219 Z M 236.640625 61.613281 L 238.5 62.433594 L 238.832031 61.71875 L 237.8125 60.59375 L 235.972656 58.757813 L 224.234375 47.835938 L 219.71875 44.835938 L 213.710938 41.226563 L 211.386719 40.457031 L 205.65625 38.089844 L 206.015625 38.800781 L 209.894531 42.425781 L 210.605469 43.855469 L 212.386719 45.273438 L 220.976563 53.867188 L 222.445313 54.265625 L 228.390625 56.890625 Z M 206.574219 91.371094 L 206.117188 90.453125 L 205.65625 90.453125 L 206.117188 91.371094 Z M 206.117188 100.097656 L 206.574219 100.097656 L 206.574219 99.640625 L 206.117188 99.640625 Z M 207.742188 91.746094 L 206.488281 91.265625 L 208.871094 94.125 L 210.710938 95.964844 L 215.074219 100.558594 L 215.707031 101.699219 L 217.957031 103.519531 L 218.773438 104.792969 L 220.589844 105.566406 L 227.429688 110.34375 L 230.667969 113.0625 L 232.816406 113.992188 L 232.402344 113.164063 L 227.011719 107.410156 L 226.097656 106.960938 L 222.019531 101.785156 L 220.484375 100.289063 L 209.332031 92.75 Z M 221.015625 110.316406 L 222.730469 111.273438 L 222.296875 110.410156 L 218.058594 106.527344 L 217.304688 105.449219 L 207.75 98.617188 L 206.921875 98.203125 L 208.738281 100.828125 L 212.765625 104.765625 Z M 209.078125 106.632813 L 207.953125 106.070313 L 207.75 106.425781 L 208.871094 106.988281 Z M 210.457031 107.550781 L 209.332031 106.988281 L 209.332031 107.90625 L 210.25 107.90625 Z M 216.222656 70.242188 L 217.371094 71.160156 L 217.828125 71.160156 L 219.261719 69.175781 L 221.480469 68.507813 L 222.191406 68.863281 L 222.382813 68.070313 L 221.121094 67.636719 L 220.410156 66.34375 L 218.113281 64.507813 L 217.828125 63.8125 L 213.464844 59.21875 L 212.546875 58.296875 L 210.503906 56.359375 L 208.632813 55.933594 L 205.730469 58.058594 L 205.300781 58.964844 L 205.554688 59.472656 L 213.464844 67.484375 Z M 211.882813 108.722656 L 210.160156 107.859375 L 210.605469 109.078125 L 212.25 110.039063 L 213.09375 111.367188 L 215.976563 113.964844 L 217.304688 114.46875 L 216.785156 112.246094 L 215.761719 111.351563 Z M 210.710938 88.613281 L 211.167969 88.613281 L 211.167969 88.15625 L 210.710938 88.15625 Z M 211.167969 99.640625 L 211.628906 99.640625 L 211.628906 99.179688 L 211.167969 99.179688 Z M 212.753906 33.136719 L 211.628906 32.578125 L 211.421875 32.933594 L 212.546875 33.496094 Z M 212.753906 89.175781 L 211.628906 88.613281 L 212.089844 89.535156 L 212.546875 89.535156 Z M 211.628906 131.792969 L 212.089844 131.792969 L 212.089844 131.332031 L 211.628906 131.332031 Z M 215.097656 90.808594 L 212.457031 89.488281 L 212.894531 90.710938 L 214.078125 91.21875 L 214.613281 92.289063 L 218.058594 95.503906 L 222.445313 100.199219 L 226.144531 102.714844 L 232.035156 106.648438 L 233.898438 107.96875 L 236.515625 108.949219 L 234.722656 106.261719 L 231.710938 104.039063 L 226.804688 98.03125 L 224.949219 96.882813 L 224.03125 96.421875 L 220.5625 94.6875 Z M 214.632813 34.324219 L 212.421875 33.355469 L 212.914063 34.828125 L 214.636719 35.6875 L 217.828125 39.007813 L 218.113281 39.703125 L 220.410156 41.539063 L 221.09375 42.539063 L 226.621094 47.578125 L 236.160156 53.839844 L 241.296875 57.707031 L 244.449219 59.769531 L 245.734375 60.25 L 245.25 58.96875 L 244.242188 57.839844 L 240.105469 53.933594 L 239.035156 53.398438 L 238.5 52.328125 L 235.054688 48.882813 L 233.984375 48.347656 L 233.296875 47.058594 L 230.652344 45.109375 L 215.578125 35.195313 Z M 215.304688 80.804688 L 215.761719 80.804688 L 215.761719 80.347656 L 215.304688 80.347656 Z M 216.222656 118.472656 L 216.679688 118.472656 L 216.679688 118.011719 L 216.222656 118.011719 Z M 217.140625 55.773438 L 211.859375 55.542969 L 211.628906 55.773438 L 214.382813 58.757813 L 217.140625 61.515625 L 219.898438 64.269531 L 222.191406 66.566406 L 223.113281 67.484375 L 224.25 68.46875 L 232.996094 71.09375 L 234.59375 72.078125 L 236.546875 72.652344 L 236.074219 71.367188 L 234.59375 69.78125 L 233.675781 68.863281 L 224.949219 60.59375 L 222.191406 57.839844 L 221.273438 56.691406 L 219.898438 56.230469 Z M 218.722656 41.867188 L 217.601563 41.304688 L 217.394531 41.660156 L 218.519531 42.222656 Z M 219.4375 43.140625 L 219.898438 43.140625 L 219.898438 42.679688 L 219.4375 42.679688 Z M 223.761719 90.121094 L 219.851563 88.246094 L 220.253906 89.328125 L 222.921875 91.703125 L 224.273438 93.738281 L 225.5625 94.433594 L 226.253906 95.722656 L 228.164063 97.113281 L 230.460938 98.71875 L 241.484375 104.117188 L 247.117188 106.230469 L 245.621094 104.230469 L 244.101563 102.578125 L 241.890625 100.78125 L 241.253906 99.640625 L 235.789063 94.171875 L 230.6875 93.257813 Z M 223.777344 111.683594 L 222.652344 111.121094 L 222.445313 111.480469 L 223.570313 112.039063 Z M 223.570313 112.5 L 224.03125 112.5 L 224.03125 112.039063 L 223.570313 112.039063 Z M 225.15625 110.765625 L 224.03125 110.203125 L 224.488281 111.121094 L 224.949219 111.121094 Z M 225.613281 36.8125 L 224.488281 36.25 L 224.285156 36.609375 L 225.410156 37.167969 Z M 246.292969 77.210938 L 247.226563 77.589844 L 247.457031 75.753906 L 247.527344 73.699219 L 248.210938 72.242188 L 248.105469 71.03125 L 246.078125 69.324219 L 241.300781 66.433594 L 236.226563 62.789063 L 231.632813 60.492188 L 228.402344 58.691406 L 224.554688 57.480469 L 225.535156 58.949219 L 226.175781 59.828125 L 227.246094 60.367188 L 230.003906 62.890625 L 235.515625 69.324219 L 241.109375 74.589844 Z M 227.246094 112.15625 L 225.179688 111.121094 L 224.949219 111.351563 L 225.867188 112.5 L 231.378906 117.78125 L 233.023438 118.808594 L 244.125 126.28125 L 244.34375 125.566406 L 243.324219 124.441406 L 238.859375 120.039063 L 233.449219 116.140625 L 231.082031 114.960938 Z M 228.886719 38.890625 L 225.753906 37.054688 L 226.214844 38.347656 L 227.398438 38.855469 L 228.121094 40.152344 L 230.757813 42.382813 L 233.039063 45.121094 L 235.78125 47.148438 L 245.972656 53.707031 L 246.058594 53.015625 L 245.445313 50.179688 L 237.351563 44.519531 Z M 226.785156 40.84375 L 226.328125 39.925781 L 225.867188 39.925781 L 226.328125 40.84375 Z M 227.5 85.503906 L 229.738281 86.195313 L 230.695313 85.90625 L 234.136719 86.546875 L 236.890625 86.546875 L 240.730469 85.5625 L 242.148438 84.582031 L 242.863281 84.941406 L 245.226563 82.101563 L 242.105469 80.507813 L 233.449219 77.558594 L 228.828125 77.949219 L 227.933594 78.96875 L 227.015625 81.726563 L 226.375 84.707031 L 226.722656 85.890625 Z M 251.332031 126.390625 L 254.945313 128.300781 L 253.429688 126.28125 L 251.796875 125.464844 L 245.386719 117.980469 L 244.46875 117.515625 L 241.710938 114.300781 L 240.351563 113.339844 L 238.484375 112.582031 L 232.953125 108.945313 L 227.246094 105.152344 L 228.0625 106.78125 L 230.921875 109.285156 L 231.839844 110.203125 L 235.34375 113.726563 L 239.492188 118.640625 L 247.1875 123.648438 Z M 232.296875 53.246094 L 231.839844 52.328125 L 231.378906 52.328125 L 231.175781 52.683594 Z M 231.378906 101.476563 L 231.839844 101.476563 L 231.839844 101.015625 L 231.378906 101.015625 Z M 247.203125 68.507813 L 248.421875 68.957031 L 247.8125 67.738281 L 247.789063 64.078125 L 247.125 63.082031 L 237.648438 56.625 L 236.160156 55.675781 L 232.242188 53.132813 L 232.65625 53.960938 L 240.566406 61.972656 L 244.242188 65.648438 L 244.699219 66.109375 L 245.621094 67.027344 Z M 253.191406 118.988281 L 262.292969 122.789063 L 261.796875 121.433594 L 257.332031 117.09375 L 256.871094 116.175781 L 250.464844 109.640625 L 244.457031 107.523438 L 240.789063 106.011719 L 232.527344 101.476563 L 232.296875 101.476563 L 233.113281 103.109375 L 235.972656 106.070313 L 241.648438 111.742188 L 244.480469 113.816406 Z M 233.675781 114.796875 L 233.21875 113.878906 L 232.757813 113.878906 L 233.21875 114.796875 Z M 236.433594 72.996094 L 236.890625 72.996094 L 236.890625 72.539063 L 236.433594 72.539063 Z M 237.351563 109.742188 L 236.890625 108.824219 L 236.433594 108.824219 L 236.226563 109.183594 Z M 239.648438 63.351563 L 239.1875 62.433594 L 238.730469 62.433594 L 238.523438 62.789063 Z M 240.105469 51.867188 L 239.648438 50.949219 L 239.1875 50.949219 L 239.648438 51.867188 Z M 240.105469 63.8125 L 240.566406 63.8125 L 240.566406 63.351563 L 240.105469 63.351563 Z M 241.734375 52.695313 L 240.476563 52.21875 L 243.171875 55.367188 L 244.242188 56.460938 L 244.699219 56.921875 L 245.832031 57.929688 L 246.894531 58.339844 L 246.207031 55.734375 Z M 242.65625 95.402344 L 239.0625 94.859375 L 240.105469 96.421875 L 241.945313 98.261719 L 247.226563 103.773438 L 247.8125 104.898438 L 249.191406 105.816406 L 249.632813 106.722656 L 252.253906 107.34375 L 252.761719 107.089844 L 255.722656 107.675781 L 258.644531 107.746094 L 259.285156 107.101563 L 258.019531 105.839844 L 257.308594 105.507813 L 255.46875 102.75 L 254.578125 102.394531 L 251.589844 99.410156 L 248.152344 94.984375 L 243.78125 95.273438 Z M 245.367188 126.84375 L 244.242188 126.28125 L 244.035156 126.636719 L 245.160156 127.199219 Z M 266.042969 141.066406 L 267.253906 141.53125 L 266.851563 140.726563 L 262.027344 136.195313 L 260.265625 133.550781 L 253.238281 129.367188 L 252.253906 128.933594 L 250.285156 127.441406 L 246.332031 124.800781 L 244.699219 123.984375 L 247.914063 127.65625 L 249.753906 129.496094 L 251.796875 131.894531 L 254.347656 133.171875 L 256.449219 134.886719 Z M 246.996094 61.515625 L 246.308594 60.136719 L 245.621094 60.136719 L 246.078125 61.054688 Z M 275.703125 139.175781 L 278.839844 139.769531 L 275.015625 135.464844 L 271.34375 131.792969 L 270.570313 131.050781 L 266.164063 126.089844 L 264.140625 125.539063 L 257.027344 122.757813 L 256.414063 122.144531 L 253.886719 121.226563 L 252.714844 120.410156 L 246.996094 117.550781 L 248.511719 119.574219 L 249.5 120.664063 L 250.210938 120.996094 L 253.253906 123.832031 L 257.296875 128.914063 L 260.0625 131.433594 L 262.613281 132.710938 L 270.125 136.546875 Z M 247.457031 76.210938 L 247.914063 76.210938 L 247.914063 75.753906 L 247.457031 75.753906 Z M 257.277344 97.492188 L 253.222656 92.390625 L 251.589844 93.207031 L 249.625 94.316406 L 249.546875 95.148438 L 250.878906 95.863281 L 251.753906 97.179688 L 253.070313 98.054688 L 253.65625 99.179688 L 257.101563 102.394531 L 258.019531 103.3125 L 261.464844 107.027344 L 263.300781 106.492188 L 264.15625 106.367188 L 264.996094 104.75 L 262.347656 102.980469 L 261.238281 101.246094 L 258.480469 98.71875 Z M 270.507813 124.171875 L 274.703125 124.617188 L 274.199219 122.8125 L 273.636719 122.144531 L 272.71875 121.457031 L 268.871094 116.941406 L 265.828125 113.878906 L 264.910156 112.960938 L 262.613281 110.890625 L 261.46875 110.699219 L 259.621094 111.066406 L 254.578125 110.203125 L 254.347656 110.203125 L 253.542969 110.402344 L 255.582031 113.238281 L 256.796875 113.726563 L 257.460938 115.003906 L 258.71875 115.777344 L 262.15625 119.621094 L 263.316406 121.300781 L 264.605469 121.992188 L 265.25 123.257813 L 270.167969 124.339844 Z M 253.886719 49.570313 L 254.347656 49.570313 L 254.347656 49.113281 L 253.886719 49.113281 Z M 255.265625 50.488281 L 254.347656 50.03125 L 254.382813 51.183594 L 254.578125 53.246094 L 259.628906 58.296875 L 260.089844 59.21875 L 265.574219 64.832031 L 266.519531 65.1875 L 266.289063 63.351563 L 266.109375 62.578125 L 263.769531 59.273438 L 262.867188 58.859375 L 261.992188 57.542969 L 260.613281 56.625 L 259.859375 55.3125 L 255.957031 50.976563 Z M 256.4375 57.277344 L 255.632813 56.875 L 256.105469 58.296875 L 255.839844 58.296875 L 256.570313 60.835938 L 257.332031 61.972656 L 263.992188 68.402344 L 265.085938 70.386719 L 267.667969 72.539063 L 268.023438 71.824219 L 267.4375 69.324219 L 266.976563 68.402344 L 262.15625 63.8125 L 261.238281 61.972656 Z M 266.683594 103.871094 L 268.457031 101.207031 L 267.460938 99.535156 L 261.464844 93.667969 L 261.007813 92.75 L 256.898438 88.511719 L 256.390625 88.257813 L 254.730469 90.210938 L 254.289063 92.066406 L 255.265625 93.207031 L 258.941406 96.882813 L 261.964844 99.511719 L 263.316406 101.546875 L 264.605469 102.242188 L 265.109375 103.429688 Z M 266.929688 77.734375 L 269.210938 79.558594 L 268.722656 77.132813 L 269.046875 77.132813 L 268.230469 75.5 L 265.472656 72.332031 L 262.328125 69.632813 L 258.761719 65.046875 L 256.644531 63.351563 L 256.714844 63.59375 L 257.460938 66.773438 L 257.101563 67.484375 L 258.734375 68.300781 L 262.34375 72.863281 L 265.054688 75.113281 Z M 269.25 86.421875 L 270.152344 86.871094 L 269.558594 82.40625 L 268.617188 81.039063 L 265.085938 77.898438 L 261.0625 72.847656 L 257.734375 69.933594 L 257.664063 71.824219 L 258.378906 74.628906 L 260.628906 76.957031 L 265.507813 82.367188 L 266.515625 83.066406 Z M 257.734375 83.21875 L 257.332031 84.019531 L 257.160156 86.082031 L 257.472656 87.023438 L 260.039063 90.136719 L 267.4375 97.34375 L 267.859375 98.386719 L 268.984375 99.136719 L 269.933594 96.191406 L 263.753906 89.46875 L 262.375 88.550781 L 258.75 83.894531 Z M 259.207031 77.464844 L 257.832031 76.542969 L 258.378906 81.980469 L 263.992188 87.238281 L 264.910156 89.074219 L 269.25 93.3125 L 270.195313 93.667969 L 270.320313 89.789063 L 269.605469 88.359375 L 268.023438 87.441406 L 267.4375 86.316406 L 263.992188 83.101563 Z M 288.550781 153.921875 L 293.933594 155.78125 L 292.15625 153.558594 L 291.09375 152.460938 L 287.648438 149.246094 L 286.992188 148.101563 L 283.375 144.902344 L 282.074219 143.117188 L 279.835938 142.769531 L 273.855469 140.59375 L 270.632813 138.78125 L 264.679688 135.925781 L 264.453125 135.925781 L 266.289063 138.222656 L 268.125 140.058594 L 272.925781 145.214844 L 274.558594 146.03125 L 278.90625 148.867188 L 280.773438 149.625 Z M 268.332031 142 L 267.207031 141.4375 L 267.003906 141.792969 L 268.125 142.355469 Z M 268.792969 73.101563 L 267.667969 72.539063 L 267.460938 72.894531 L 268.585938 73.457031 Z M 268.355469 108.824219 L 264.871094 110.316406 L 265.285156 111.367188 L 266.75 113.1875 L 267.667969 114.335938 L 274.097656 120.308594 L 276.148438 123.144531 L 278.460938 123.53125 L 280.886719 122.398438 L 280.632813 121.890625 L 279.609375 121.226563 L 278.5625 120.117188 L 273.765625 114.070313 L 269.964844 110.203125 Z M 271.136719 67.382813 L 270.195313 67.027344 L 270.066406 68.148438 L 270.835938 70.476563 L 272.910156 73.125 L 275.285156 74.707031 L 275.78125 75.90625 L 276.625 76.242188 L 280.722656 81.386719 L 282.519531 82.355469 L 282.058594 79.429688 L 282.367188 79.429688 L 281.285156 78.347656 L 279.816406 76.773438 L 277.3125 74.375 L 272.71875 68.863281 Z M 282.5625 88.734375 L 283.972656 89.535156 L 283.742188 87.695313 L 283.515625 86.777344 L 283.054688 85.398438 L 279.609375 82.183594 L 272.996094 74.695313 L 271.414063 73.511719 L 272.542969 77.738281 L 277.941406 84.175781 L 279.609375 85.859375 L 281.445313 87.695313 Z M 270.882813 105.609375 L 269.933594 108.597656 L 271.195313 109.566406 L 276.074219 114.980469 L 277.058594 115.613281 L 277.933594 116.929688 L 279.253906 117.804688 L 279.839844 118.929688 L 281.675781 120.769531 L 283.515625 119.847656 L 283.6875 119.152344 L 284.171875 117.78125 L 283.078125 116.070313 L 275.707031 108.824219 L 275.246094 107.90625 L 272.121094 104.785156 Z M 273.179688 127.429688 L 269.410156 127.007813 L 270.320313 128.832031 L 271.203125 129.3125 L 275.773438 134.386719 L 280.691406 139.304688 L 281.769531 140.242188 L 284.890625 140.980469 L 285.121094 140.980469 L 289.878906 140.816406 L 290.519531 140.175781 L 283.515625 133.171875 L 283.054688 132.25 L 278.691406 127.886719 Z M 273.882813 81.640625 L 272.949219 81.265625 L 272.824219 82.390625 L 273.554688 84.265625 L 275.269531 86.214844 L 279.609375 90.453125 L 280.699219 92.441406 L 285.289063 96.574219 L 284.625 92.976563 L 283.148438 91.09375 L 280.933594 89.296875 L 280.300781 88.15625 L 275.707031 83.5625 L 275.375 82.847656 Z M 283.46875 114.933594 L 284.9375 116.035156 L 285.589844 114.566406 L 285.199219 112.257813 L 283.121094 109.90625 L 280.933594 108.128906 L 280.300781 106.988281 L 273.523438 100.210938 L 272.882813 100.855469 L 272.765625 102.160156 L 273.535156 104.484375 L 275.476563 106.527344 L 280.335938 110.996094 L 281.6875 113.03125 L 282.976563 113.726563 Z M 276.394531 89.535156 L 273.636719 86.777344 L 273.667969 88.386719 L 273.84375 90.554688 L 277.980469 95.867188 L 281.933594 99.410156 L 282.59375 100.558594 L 285.273438 103.238281 L 285.835938 102.957031 L 285.984375 100.792969 L 285.582031 99.410156 L 283.285156 97.34375 L 282.367188 95.503906 Z M 276.675781 95.816406 L 274.273438 93.8125 L 273.867188 95.046875 L 274.027344 98.5 L 277.945313 103.003906 L 279.609375 104.691406 L 280.527344 105.609375 L 285.273438 110.125 L 285.835938 109.847656 L 286.039063 108.824219 L 286.144531 107.703125 L 286.46875 106.757813 L 282.988281 102.691406 L 280.734375 100.914063 Z M 275.015625 124.441406 L 275.476563 124.441406 L 275.476563 123.984375 L 275.015625 123.984375 Z M 278.691406 140.058594 L 279.152344 140.058594 L 279.152344 139.601563 L 278.691406 139.601563 Z M 287.246094 128.425781 L 284.125 125.515625 L 280.496094 127.328125 L 280.886719 128.371094 L 282.367188 129.953125 L 283.285156 130.875 L 286.644531 133.808594 L 290.03125 138.042969 L 291.09375 139.140625 L 292.164063 139.984375 L 294.054688 139.039063 L 294.910156 138.960938 L 295.28125 137.066406 L 292.011719 133.859375 L 291.320313 133.601563 Z M 285.582031 103.773438 L 286.039063 103.773438 L 286.039063 103.3125 L 285.582031 103.3125 Z M 285.582031 110.664063 L 286.039063 110.664063 L 286.039063 110.203125 L 285.582031 110.203125 Z M 287.242188 84.34375 L 285.925781 83.90625 L 286.882813 86.777344 L 286.5 86.777344 L 287.417969 88.15625 L 289.050781 90.09375 L 289.945313 90.484375 L 293.601563 95.136719 L 295.429688 96.535156 L 297.179688 97.515625 L 296.144531 95.964844 L 296.683594 95.964844 L 295.789063 93.414063 L 294.769531 92.519531 L 293.984375 92.015625 Z M 293.996094 144.015625 L 284.765625 143.941406 L 285.019531 144.449219 L 288.335938 147.410156 L 289.253906 148.328125 L 292.300781 151.390625 L 296.425781 156.277344 L 299.359375 156.824219 L 305.933594 157.234375 L 302.261719 152.640625 L 300.28125 151.082031 L 297.523438 148.328125 L 296.324219 147.09375 Z M 297.730469 104.792969 L 298.441406 105.152344 L 298.441406 104.460938 L 297.753906 102.394531 L 297.6875 101.3125 L 296.503906 100.351563 L 292.113281 94.792969 L 288.132813 90.808594 L 287.570313 90.527344 L 288.453125 94.929688 L 289.253906 95.734375 L 289.96875 96.066406 L 291.847656 98.558594 L 295.6875 102.394531 Z M 292.929688 126.96875 L 288.109375 121.6875 L 287.648438 121.6875 L 285.992188 123.75 L 285.582031 125.132813 L 292.242188 131.792969 L 292.699219 132.710938 L 296.742188 136.753906 L 297.792969 136.054688 L 297.921875 135.226563 L 298.972656 132.757813 L 296.335938 131 Z M 298.195313 110.753906 L 299.132813 111.121094 L 299.304688 109.980469 L 298.558594 107.5625 L 294.605469 103.609375 L 293.390625 102.164063 L 289.96875 98.15625 L 288.429688 97.386719 L 289.179688 99.640625 L 288.871094 99.640625 L 289.613281 101.730469 L 292.472656 104.230469 Z M 298.171875 130.546875 L 299.589844 131.332031 L 299.589844 129.496094 L 300.136719 128.398438 L 298.441406 126.28125 L 294.769531 122.605469 L 294.027344 122.289063 L 289.554688 116.796875 L 288.957031 117.390625 L 288.796875 118.472656 L 288.613281 120.445313 L 290.597656 121.914063 L 294.363281 126.503906 L 295.433594 127.097656 L 296.351563 128.472656 L 297.269531 128.933594 Z M 290.941406 104.84375 L 289.714844 104.230469 L 289.742188 105.839844 L 289.945313 107.90625 L 290.402344 108.824219 L 295.226563 113.417969 L 296.320313 115.40625 L 299.992188 118.621094 L 300.175781 115.511719 L 299.359375 113.878906 L 298.847656 113.183594 L 296.550781 111.34375 L 295.917969 110.203125 L 291.324219 105.609375 Z M 299.566406 125.921875 L 300.480469 126.378906 L 299.886719 120.988281 L 298.902344 119.621094 L 297.984375 118.472656 L 291.324219 112.039063 L 290.941406 111.273438 L 289.921875 110.765625 L 289.816406 114.542969 L 291.882813 117.820313 L 294.871094 120.054688 Z M 308.777344 156.152344 L 310.890625 154.992188 L 310.46875 153.59375 L 307.910156 150.480469 L 301.070313 144.003906 L 299.304688 141.351563 L 295.640625 143.183594 L 296.503906 144.90625 L 301.007813 149.121094 L 302.414063 150.921875 L 306.25 154.757813 L 306.914063 155.78125 Z M 299.820313 118.929688 L 300.28125 118.929688 L 300.28125 118.472656 L 299.820313 118.472656 Z M 299.820313 129.953125 L 300.28125 129.953125 L 300.28125 129.496094 L 299.820313 129.496094 Z M 302.859375 100.871094 L 300.28125 98.71875 L 301.566406 103.5625 L 305.363281 106.761719 L 306.019531 107.90625 L 310.132813 112.144531 L 310.84375 112.5 L 310.808594 111.347656 L 310.386719 109.285156 L 310.0625 107.632813 L 308.546875 107.21875 L 303.953125 102.855469 Z M 308.800781 116.070313 L 311.992188 120.308594 L 312.453125 120.308594 L 312.453125 118.472656 L 311.839844 117.859375 L 312.121094 117.296875 L 311.417969 115.515625 L 309.207031 113.765625 L 305.621094 109.132813 L 301.65625 105.609375 L 301.761719 105.863281 L 301.886719 106.988281 L 302.347656 108.367188 L 302.382813 109.40625 L 307.375 115.359375 Z M 305.152344 139.457031 L 302.4375 136.9375 L 301.199219 137.761719 L 301.582031 138.527344 L 300.242188 139.828125 L 300.636719 141.234375 L 306.480469 146.949219 L 306.941406 147.867188 L 311.992188 152.921875 L 313.371094 152.460938 L 313.269531 151.351563 L 314.027344 149.472656 L 313.171875 148.101563 L 309.449219 144.882813 Z M 306.539063 116.023438 L 302.867188 112.8125 L 303.464844 115.945313 L 304.3125 117.296875 L 305.570313 118.074219 L 309.179688 122.753906 L 310.386719 123.984375 L 311.484375 125.046875 L 313.78125 126.882813 L 313.242188 123.269531 L 312.222656 122.605469 Z M 306.535156 134.859375 L 303.667969 132.402344 L 303.054688 134.316406 L 303.421875 135.707031 L 304.058594 136.640625 L 305.183594 137.589844 L 311.457031 144.363281 L 313.804688 147.050781 L 314.722656 147.511719 L 314.621094 146.285156 L 315.335938 144.859375 L 315.230469 143.835938 L 314.519531 143.503906 L 312.222656 141.4375 Z M 304.875 119.847656 L 303.769531 119.296875 L 304.230469 122.972656 L 304.03125 123.371094 L 309.007813 128.117188 L 313.8125 133.71875 L 314.75 134.089844 L 314.75 131.332031 L 314.132813 129.738281 L 310.386719 126.28125 L 309.179688 125.050781 L 305.5625 120.339844 Z M 305.121094 126.652344 L 304.183594 126.28125 L 303.992188 129.261719 L 304.3125 130.667969 L 306.480469 132.710938 L 307.066406 133.835938 L 308.328125 134.609375 L 311.972656 139.230469 L 313.800781 140.628906 L 315.207031 141.4375 L 315.207031 137.761719 L 314.464844 136.148438 L 312.167969 134.3125 L 311.535156 133.171875 L 306.941406 128.578125 L 306.609375 127.863281 Z M 309.007813 106.070313 L 309.464844 106.070313 L 309.464844 105.152344 L 309.007813 105.152344 Z M 310.84375 113.417969 L 311.304688 113.417969 L 311.304688 112.960938 L 310.84375 112.960938 Z M 312.683594 120.769531 L 313.140625 120.769531 L 313.140625 120.308594 L 312.683594 120.308594 Z M 313.601563 127.199219 L 314.058594 127.199219 L 314.058594 126.738281 L 313.601563 126.738281 Z M 314.519531 147.867188 L 314.976563 147.867188 L 314.976563 147.410156 L 314.519531 147.410156 Z M 323.707031 123.984375 L 322.167969 122.957031 L 322.621094 125.230469 L 322.402344 125.667969 L 327.125 130.515625 L 327.929688 130.917969 L 327.457031 129.496094 L 327.761719 129.496094 L 326.921875 126.96875 L 325.542969 125.820313 Z M 323.246094 149.246094 L 323.707031 149.246094 L 323.707031 148.789063 L 323.246094 148.789063 Z M 324.414063 129.40625 L 323.226563 128.953125 L 324.0625 132.046875 L 325.851563 133.914063 L 330.339844 137.660156 L 331.054688 137.304688 L 329.90625 135.007813 L 328.300781 133.171875 L 325.542969 130.414063 Z M 328.757813 131.792969 L 328.300781 130.875 L 327.839844 130.875 L 328.300781 131.792969 Z M 331.71875 138.324219 L 330.59375 137.761719 L 331.054688 138.683594 L 331.515625 138.683594 Z M 334.730469 140.519531 L 335.1875 140.519531 L 335.1875 140.058594 L 334.730469 140.058594 Z M 334.730469 140.519531 "/>
</g>
</svg>
