<?xml version="1.0" encoding="UTF-8"?>
<svg xmlns="http://www.w3.org/2000/svg" xmlns:xlink="http://www.w3.org/1999/xlink" width="360pt" height="236pt" viewBox="0 0 360 236" version="1.1">
<g id="surface201">
<path style=" stroke:none;fill-rule:evenodd;fill:rgb(99.998474%,99.998474%,99.998474%);fill-opacity:1;" d="M 8.886719 217.960938 L 7.179688 220.234375 L 9.945313 219.191406 L 13.699219 217.113281 L 19.382813 214.738281 L 20.375 213.992188 L 22.648438 212.855469 L 23.0625 216.515625 L 21.75 217.105469 L 16.070313 219.484375 L 12.058594 221.464844 L 10.007813 222.730469 L 9.347656 223.636719 L 8.152344 225.433594 L 16.519531 221.335938 L 21.285156 219.015625 L 23.238281 218.289063 L 23.859375 220.277344 L 23.570313 221.277344 L 19.640625 223.359375 L 14.769531 225.453125 L 12.941406 228.199219 L 14.207031 227.707031 L 21.746094 224.203125 L 22.957031 223.359375 L 24.140625 222.886719 L 24.589844 223.730469 L 25.113281 223.464844 L 28.167969 220.753906 L 30.0625 219.570313 L 35.988281 216.761719 L 38.195313 220.742188 L 39.183594 223.480469 L 40.246094 223.835938 L 40.957031 223.359375 L 41.667969 222.414063 L 43.089844 221.464844 L 46.878906 217.675781 L 49.96875 215.070313 L 49.597656 213.378906 L 58.746094 208.296875 L 61.054688 212.332031 L 63.011719 211.148438 L 64.304688 209.898438 L 65.023438 208.816406 L 64.050781 207.996094 L 63.105469 205.476563 L 65.355469 204.882813 L 65.378906 204.03125 L 66.804688 203.570313 L 71.015625 201.460938 L 72 201.019531 L 75.238281 198.894531 L 76.136719 199.792969 L 77.105469 202.707031 L 78.625 203.417969 L 79.804688 202.515625 L 81.703125 200.382813 L 80.753906 198.015625 L 79.804688 197.066406 L 80.164063 196.089844 L 88.53125 191.277344 L 89.652344 192.023438 L 90.621094 194.714844 L 91.367188 195.789063 L 91.914063 195.515625 L 92.835938 194.460938 L 94.515625 193.277344 L 94.9375 191.855469 L 93.488281 189.496094 L 93.378906 188.609375 L 97.625 186.082031 L 105.625 181.65625 L 106.988281 181.988281 L 107.992188 184.546875 L 109.496094 184.195313 L 114.863281 178.828125 L 118.609375 175.753906 L 117.863281 174.167969 L 118.761719 173.40625 L 121.261719 171.722656 L 122.21875 170.699219 L 125.535156 168.332031 L 126.707031 167.457031 L 129.382813 164.78125 L 133.105469 161.773438 L 134.605469 161.140625 L 135.023438 160.457031 L 142.507813 154.5 L 145.015625 151.992188 L 150.132813 147.929688 L 150.65625 147.191406 L 154.398438 144.136719 L 154.921875 143.402344 L 158.652344 140.328125 L 159.484375 139.253906 L 163.292969 136.453125 L 164.027344 134.980469 L 166.742188 132.875 L 175.976563 124.347656 L 179.058594 121.03125 L 179.402344 120.292969 L 180.882813 119.300781 L 181.832031 117.882813 L 183.253906 116.933594 L 184.269531 115.320313 L 185.691406 114.894531 L 190.664063 117.949219 L 192.558594 118.660156 L 196.183594 120.722656 L 202.746094 123.386719 L 207.007813 124.835938 L 214.828125 124.582031 L 216.722656 124.109375 L 219.5625 122.6875 L 222.683594 119.738281 L 224.351563 117.480469 L 225.320313 114.644531 L 227.671875 107.746094 L 231.21875 110.464844 L 238.820313 117.074219 L 245.90625 122.78125 L 249.621094 125.875 L 249.925781 126.480469 L 253.96875 129.878906 L 263.8125 137.753906 L 277.074219 148.179688 L 281.519531 151.613281 L 288.492188 156.582031 L 290.425781 157.855469 L 298.207031 162.601563 L 302.679688 164.726563 L 308.890625 167.558594 L 314.109375 168.996094 L 317.867188 169.828125 L 320.660156 169.027344 L 323.050781 167.570313 L 324.855469 164.820313 L 325.449219 161.773438 L 325.6875 155.378906 L 325.027344 151.199219 L 327.871094 153.566406 L 329 154.667969 L 330.421875 156.085938 L 331.371094 157.035156 L 332.789063 158.457031 L 333.878906 159.59375 L 336.4375 163.003906 L 340.84375 166.984375 L 347.671875 174.425781 L 351.03125 175.039063 L 351.820313 175.039063 L 351.375 173.828125 L 346.53125 169.351563 L 342.738281 164.617188 L 336.105469 158.21875 L 335.015625 155.488281 L 338.769531 158.773438 L 340.84375 161.773438 L 347.714844 168.40625 L 349.417969 168.972656 L 349.003906 168.144531 L 342.738281 162.246094 L 341.792969 160.351563 L 335.34375 154.339844 L 332.882813 151.132813 L 332.316406 149.929688 L 331.75 147.988281 L 332.578125 148.402344 L 337.054688 152.773438 L 338.222656 154.753906 L 339.964844 155.277344 L 339.054688 153.457031 L 330.183594 144.71875 L 329.632813 143.613281 L 328.292969 142.867188 L 325.972656 139.832031 L 321.65625 135.714844 L 320.710938 132.875 L 320.386719 130.726563 L 318.8125 125.738281 L 309.855469 118.53125 L 308.796875 117.824219 L 309.746094 121.140625 L 308.351563 120.214844 L 300.574219 111.316406 L 300.019531 110.386719 L 298.175781 104.210938 L 296.09375 102.464844 L 294.722656 101.945313 L 295.304688 104.863281 L 291.574219 101.132813 L 289.832031 98.945313 L 285.335938 93.867188 L 284.496094 89.523438 L 283.917969 88.566406 L 281.863281 86.917969 L 280.914063 85.972656 L 280.558594 85.972656 L 281.300781 88.933594 L 278.96875 87.066406 L 276.886719 84.078125 L 275.171875 82.808594 L 269.714844 76.25 L 268.027344 71.097656 L 266.9375 70.339844 L 266.253906 69.285156 L 264.570313 68.441406 L 265.1875 70.90625 L 263.820313 69.996094 L 260.160156 65.886719 L 256.386719 61.140625 L 253.921875 58.425781 L 252.023438 53.230469 L 244.949219 47.464844 L 242.140625 45.59375 L 242.824219 48.777344 L 243.488281 51.386719 L 243.960938 52.808594 L 243.972656 53.21875 L 242.996094 52.90625 L 235.488281 46.5 L 220.789063 34.203125 L 216.917969 31.621094 L 214.0625 28.800781 L 189.902344 9.847656 L 185.691406 6.894531 L 184.265625 7.296875 L 182.777344 9.058594 L 168.398438 23.4375 L 167.308594 24.574219 L 162.605469 30.28125 L 159.871094 33.148438 L 155.492188 38.804688 L 153.710938 41.914063 L 151.816406 44.28125 L 150.761719 46.390625 L 149.660156 48.652344 L 148.332031 50.746094 L 147.660156 53.019531 L 146.710938 55.390625 L 145.894531 58.96875 L 145.652344 69.628906 L 146.589844 75.785156 L 145.722656 84.324219 L 138.078125 90.234375 L 130.535156 96.628906 L 130.222656 97.214844 L 123.101563 102.878906 L 114.894531 109.894531 L 114.59375 110.484375 L 110.398438 114.046875 L 110.019531 114.660156 L 107.996094 115.820313 L 106.808594 116.765625 L 105.390625 118.660156 L 102.734375 120.414063 L 92.902344 129.25 L 91.175781 130.980469 L 88.808594 133.347656 L 87.648438 134.402344 L 81.441406 139.402344 L 80.28125 140.453125 L 78.386719 142.824219 L 68.910156 151.351563 L 65.59375 154.667969 L 60.988281 160.15625 L 54.382813 167.285156 L 47.660156 175.738281 L 47.355469 176.933594 L 45.433594 178.722656 L 44.394531 180.519531 L 41.789063 184.71875 L 40.585938 186.667969 L 36.546875 194.648438 L 35.214844 198.007813 L 34.21875 202 L 31.707031 202.90625 L 30.535156 203.464844 L 19.164063 209.148438 L 14.660156 211.460938 L 12.246094 213.085938 L 9.660156 216.488281 Z M 27.207031 214.289063 L 34.394531 210.34375 L 33.746094 206.953125 L 28.386719 209.535156 L 26.6875 210.800781 Z M 35.351563 215.265625 L 34.210938 212.414063 L 31.734375 213.496094 L 30.535156 214.121094 L 29.589844 214.359375 L 27.929688 215.308594 L 27.90625 218.992188 L 31.484375 217.203125 Z M 56.96875 184.730469 L 59.59375 177.800781 L 56.378906 179.40625 L 54.460938 180.25 L 54.441406 181.101563 L 52.96875 181.503906 L 47.828125 184.511719 L 47.25 186.132813 L 46.300781 187.550781 L 45.648438 189.007813 L 44.664063 194.503906 L 45.90625 193.882813 L 46.90625 193.148438 L 51.121094 191.039063 L 52.1875 190.386719 L 55.382813 188.195313 L 56.25 187.550781 Z M 52.582031 199.285156 L 54.996094 197.617188 L 55.40625 192.09375 L 55.429688 190.300781 L 53.277344 191.144531 L 49.199219 193.839844 L 44.164063 196.566406 L 44.578125 203.429688 L 48.539063 201.566406 L 50.65625 200.0625 Z M 52.433594 205.621094 L 53.988281 204.882813 L 54.007813 204.03125 L 56.683594 203.355469 L 55.625 199.125 L 54.445313 199.585938 L 45.578125 204.613281 L 45.222656 206.070313 L 46.375 208.316406 L 47.355469 208.636719 Z M 49.011719 182.144531 L 49.484375 182.144531 L 49.484375 181.671875 L 49.011719 181.671875 Z M 52.113281 210.191406 L 58.054688 207.113281 L 57.113281 204.761719 L 53.964844 206.210938 L 50.195313 208.199219 L 50.175781 209.050781 L 47.472656 209.742188 L 47.960938 212.183594 L 50.90625 211.042969 Z M 49.484375 181.671875 L 49.960938 181.671875 L 49.960938 181.195313 L 49.484375 181.195313 Z M 74.210938 156.34375 L 74.726563 154.980469 L 71.027344 156.484375 L 64.902344 160.257813 L 56.738281 170.589844 L 53.902344 173.910156 L 52.714844 175.730469 L 51.941406 177.660156 L 50.339844 179.519531 L 49.808594 181.378906 L 54.222656 179.300781 L 56.226563 178.140625 L 60.726563 175.316406 L 62.75 171.722656 L 68.070313 163.929688 L 69.488281 162.507813 L 70.242188 160.570313 Z M 59.433594 177.878906 L 59.910156 177.878906 L 59.910156 177.40625 L 59.433594 177.40625 Z M 74.832031 171.722656 L 76.550781 168.285156 L 74.339844 169.257813 L 70.527344 171.589844 L 63.460938 175.511719 L 61.292969 179.535156 L 59.707031 186.035156 L 60.855469 185.460938 L 62.972656 183.957031 L 65.363281 183.148438 L 70.625 179.625 L 72.421875 178.960938 L 74.488281 173.878906 Z M 61.804688 193.988281 L 65.355469 192.09375 L 65.378906 191.242188 L 66.804688 190.777344 L 71.015625 188.671875 L 71.988281 188.304688 L 72 180.796875 L 70.074219 181.578125 L 62.582031 186.101563 L 61.542969 186.777344 L 59.222656 187.933594 L 58.777344 195.082031 L 60.632813 194.535156 Z M 69.128906 195.796875 L 73.253906 193.832031 L 72.246094 189.796875 L 70.074219 190.578125 L 62.582031 195.101563 L 61.542969 195.777344 L 59.503906 196.796875 L 60.808594 200.714844 Z M 74.722656 197.816406 L 74.042969 195.09375 L 68.671875 197.777344 L 65.855469 199.777344 L 61.261719 202.074219 L 61.921875 204.054688 L 62.992188 204.375 L 66.292969 202.117188 L 67.320313 201.734375 L 72.445313 198.632813 Z M 89.839844 147.339844 L 90.355469 145.992188 L 87.859375 147.085938 L 85.726563 148.035156 L 85.707031 148.886719 L 84.28125 149.347656 L 81.015625 150.984375 L 78.992188 152.019531 L 72.699219 160.351563 L 70.007813 163.484375 L 67.71875 167.042969 L 66.542969 168.878906 L 64.527344 173.144531 L 70.988281 169.679688 L 74.964844 167.195313 L 78.097656 165.238281 L 79.226563 162.933594 L 80.28125 160.824219 L 81.9375 158.457031 L 83.359375 156.5625 L 84.542969 154.667969 L 86.328125 151.558594 Z M 93.203125 135.519531 L 94.113281 134.152344 L 90.917969 135.621094 L 89.042969 136.664063 L 85.816406 139.21875 L 82.175781 143.296875 L 77.4375 147.085938 L 73.648438 150.875 L 69.277344 155.351563 L 68.832031 156.246094 L 71.058594 155.226563 L 78.632813 150.800781 L 80.753906 148.269531 L 83.597656 144.71875 L 87.859375 140.925781 L 88.808594 139.980469 L 92.125 136.664063 Z M 74.59375 155.140625 L 75.070313 155.140625 L 75.070313 154.667969 L 74.59375 154.667969 Z M 75.070313 154.667969 L 75.542969 154.667969 L 75.542969 154.191406 L 75.070313 154.191406 Z M 88.210938 165.292969 L 90.363281 160.285156 L 87.175781 161.878906 L 86.132813 162.554688 L 81.015625 165.667969 L 79.28125 166.535156 L 78.4375 170.542969 L 76.933594 173.378906 L 76.359375 176.40625 L 80.0625 174.660156 L 86.175781 170.882813 L 87.445313 167.214844 Z M 81.007813 183.175781 L 85.253906 180.722656 L 85.28125 173.25 L 82.4375 174.671875 L 81.453125 175.113281 L 76.40625 178.101563 L 75.835938 185.140625 L 78.160156 184.582031 Z M 80.519531 189.683594 L 86.484375 186.175781 L 85.570313 182.222656 L 78.132813 185.847656 L 76.433594 187.113281 L 76.925781 190.4375 L 77.59375 191.066406 L 79.542969 190.09375 Z M 78.070313 192.882813 L 79.097656 194.9375 L 81.007813 194.078125 L 87.542969 190.492188 L 87.875 188.539063 L 87.195313 187.449219 L 85.28125 188.410156 L 84.238281 189.082031 L 78.691406 192.261719 Z M 81.703125 148.980469 L 82.175781 148.980469 L 82.175781 148.507813 L 81.703125 148.507813 Z M 105.476563 138.339844 L 105.921875 137.195313 L 103.714844 137.996094 L 96.695313 142.042969 L 95.164063 142.953125 L 90.335938 148.71875 L 89.40625 150.203125 L 85.847656 155.34375 L 85.113281 156.34375 L 83.253906 159.679688 L 81.089844 163.347656 L 83.367188 162.777344 L 87.386719 160.113281 L 91.757813 157.722656 L 92.230469 156.300781 L 93.4375 154.40625 L 97.933594 148.304688 L 100.050781 144.917969 Z M 108.835938 126.519531 L 109.738281 125.164063 L 107.0625 126.324219 L 106.101563 126.714844 L 106.078125 127.566406 L 104.441406 127.898438 L 99.703125 130.742188 L 97.808594 132.875 L 94.964844 134.769531 L 92.125 137.613281 L 91.175781 138.558594 L 90.230469 139.507813 L 89.125 140.632813 L 82.058594 148.625 L 83.378906 148.128906 L 88.5 145.023438 L 89.53125 144.644531 L 94.285156 141.757813 L 99.40625 135.558594 L 105.863281 129.558594 L 106.808594 128.609375 L 107.757813 127.664063 Z M 85.492188 173.144531 L 85.964844 173.144531 L 85.964844 172.667969 L 85.492188 172.667969 Z M 101.597656 171.246094 L 102.421875 170.597656 L 102.058594 164.851563 L 102.683594 163.125 L 101.8125 163.5625 L 96.695313 166.679688 L 95.257813 167.304688 L 90.113281 170.570313 L 89.257813 172.429688 L 89.609375 177.953125 L 90.914063 177.300781 L 91.957031 176.625 L 97.503906 173.449219 L 98.542969 172.773438 Z M 90.230469 146.140625 L 90.703125 146.140625 L 90.703125 145.664063 L 90.230469 145.664063 Z M 90.464844 168.40625 L 91.886719 167.929688 L 91.9375 167.132813 L 95.914063 165.089844 L 99.941406 163.195313 L 103.125 161.085938 L 103.929688 156.320313 L 105.445313 153.964844 L 106.011719 151.640625 L 103.234375 152.671875 L 98.117188 155.78125 L 97.074219 156.457031 L 94.230469 157.875 L 92.304688 160.671875 L 91.117188 164.371094 L 90.050781 168.40625 Z M 90.703125 145.664063 L 91.175781 145.664063 L 91.175781 145.191406 L 90.703125 145.191406 Z M 103.507813 173.851563 L 102.832031 172.335938 L 100.875 173.058594 L 99.703125 174.089844 L 96.648438 175.617188 L 95.652344 176.351563 L 91.4375 178.460938 L 90.371094 179.015625 L 89.925781 179.910156 L 90.675781 183.660156 L 96.585938 180.589844 L 98.390625 179.5625 L 103.125 176.722656 Z M 99.921875 182.996094 L 105.910156 180.105469 L 104.746094 177.714844 L 104.097656 177.683594 L 96.644531 182.238281 L 94.714844 183.007813 L 91.605469 184.746094 L 92.253906 187.398438 L 94.492188 186.40625 L 96.675781 185.3125 Z M 94.019531 134.296875 L 94.492188 134.296875 L 94.492188 133.820313 L 94.019531 133.820313 Z M 94.492188 131.925781 L 94.964844 131.925781 L 94.964844 131.453125 L 94.492188 131.453125 Z M 94.492188 133.820313 L 94.964844 133.820313 L 94.964844 133.347656 L 94.492188 133.347656 Z M 94.964844 131.453125 L 95.914063 131.453125 L 95.914063 130.980469 L 94.964844 130.980469 Z M 106.546875 149.347656 L 107.589844 148.8125 L 108.042969 147.703125 L 109.9375 144.859375 L 110.363281 143.296875 L 112.257813 141.402344 L 112.570313 140.203125 L 116.375 135.496094 L 117.140625 133.566406 L 121.113281 129.339844 L 121.625 127.984375 L 114.195313 132.058594 L 113.179688 132.769531 L 110.339844 134.1875 L 103.570313 142.574219 L 102.203125 144.519531 L 97.203125 152.019531 L 95.257813 155.765625 L 101.324219 152.167969 L 103.28125 150.984375 Z M 118.308594 112.777344 L 119.285156 111.003906 L 116.496094 112.398438 L 114.757813 114.136719 L 110.339844 117.609375 L 109.179688 118.660156 L 106.167969 121.671875 L 105.757813 122.238281 L 103.730469 123.398438 L 102.546875 124.347656 L 100.179688 127.1875 L 98.132813 128.316406 L 95.761719 131.160156 L 98.046875 130.03125 L 100.886719 128.136719 L 103.789063 125.449219 L 109.839844 119.9375 L 110.386719 119.242188 L 114.117188 116.167969 L 114.96875 115.082031 Z M 98.28125 139.507813 L 98.757813 139.507813 L 98.757813 139.03125 L 98.28125 139.03125 Z M 98.757813 139.03125 L 99.230469 139.03125 L 99.230469 138.558594 L 98.757813 138.558594 Z M 120.074219 122.453125 L 127.773438 114.753906 L 125.992188 115.289063 L 120.65625 118.921875 L 118.488281 119.914063 L 112.929688 123.640625 L 112.179688 124.976563 L 110.863281 125.660156 L 110.0625 126.960938 L 106.503906 130.335938 L 99.585938 137.257813 L 99.097656 138.722656 L 103.277344 136.761719 L 109.546875 133.085938 L 112.023438 130.980469 L 116.757813 125.292969 Z M 105.390625 125.765625 L 105.863281 125.765625 L 105.863281 125.292969 L 105.390625 125.292969 Z M 105.863281 125.292969 L 106.335938 125.292969 L 106.335938 124.820313 L 105.863281 124.820313 Z M 105.863281 137.136719 L 106.335938 137.136719 L 106.335938 136.664063 L 105.863281 136.664063 Z M 105.863281 151.351563 L 106.335938 151.351563 L 106.335938 150.875 L 105.863281 150.875 Z M 132.535156 104.734375 L 133.8125 103.027344 L 132.394531 103.027344 L 132.609375 103.878906 L 131.183594 104.34375 L 126.96875 106.449219 L 125.984375 106.890625 L 124.8125 107.765625 L 122.445313 110.132813 L 120.714844 111.859375 L 110.882813 120.699219 L 108.082031 122.636719 L 106.25 124.925781 L 108.003906 124.410156 L 110.601563 122.6875 L 116.347656 119.363281 L 116.796875 118.421875 L 121.128906 115.132813 L 121.863281 113.660156 L 130.332031 106.648438 Z M 109.652344 125.292969 L 110.125 125.292969 L 110.125 124.820313 L 109.652344 124.820313 Z M 110.125 124.820313 L 110.601563 124.820313 L 110.601563 124.347656 L 110.125 124.347656 Z M 129.226563 145.484375 L 131.535156 142.714844 L 130.246094 143.214844 L 128.128906 144.71875 L 124.554688 146.515625 L 121.277344 149.066406 L 119.347656 149.84375 L 112.867188 153.933594 L 112.289063 159.507813 L 114.707031 158.296875 L 115.125 157.613281 L 118.867188 154.5625 L 119.390625 153.824219 L 123.128906 150.769531 L 123.464844 150.152344 L 125.484375 148.375 L 127.933594 146.742188 Z M 122.445313 157.035156 L 123.550781 155.929688 L 121.722656 156.492188 L 118.90625 158.539063 L 116.976563 159.3125 L 112.515625 162.007813 L 113.207031 164.140625 L 114.632813 163.714844 L 115.574219 162.71875 L 120.691406 158.742188 Z M 113.917969 130.503906 L 114.863281 130.503906 L 114.863281 129.558594 L 114.390625 129.558594 Z M 114.390625 148.507813 L 114.863281 148.507813 L 114.863281 148.035156 L 114.390625 148.035156 Z M 115.117188 165.644531 L 118.890625 163.667969 L 118.921875 162.835938 L 121.328125 161.941406 L 124.339844 159.878906 L 127.347656 158.148438 L 128.367188 157.035156 L 130.183594 156.246094 L 130.574219 155.363281 L 132.628906 153.71875 L 138.789063 148.980469 L 139.734375 148.035156 L 141.226563 146.917969 L 142.128906 145.558594 L 143.050781 145.191406 L 145.421875 143.296875 L 145.453125 142.464844 L 130.703125 151.230469 L 128.472656 152.96875 L 126.707031 155.140625 L 125.523438 156.085938 L 123.496094 157.246094 L 123.128906 157.875 L 115.644531 163.835938 L 115.101563 164.140625 L 114.152344 165.089844 L 114.144531 165.96875 Z M 114.390625 167.929688 L 114.863281 167.929688 L 114.863281 167.457031 L 114.390625 167.457031 Z M 115.28125 145.421875 L 114.691406 148.183594 L 118.300781 146.019531 L 119.90625 144.410156 L 122.679688 142.347656 L 123.628906 141.402344 L 125.050781 140.453125 L 125.972656 139.402344 L 130.300781 136.320313 L 131.445313 135.242188 L 137.128906 129.558594 L 138.210938 128.414063 L 139.839844 125.964844 L 141.15625 124.820313 L 141.632813 123.398438 L 143.527344 121.503906 L 144.132813 120.292969 L 145.289063 117.976563 L 146.621094 113.214844 L 146.300781 106.175781 L 137.4375 115.039063 L 137.128906 115.582031 L 134.558594 118.539063 L 133.007813 119.890625 L 126.582031 127.390625 L 124.460938 130.777344 L 119.945313 137.335938 L 118.960938 139.199219 L 117.140625 141.621094 L 116.359375 144.019531 Z M 114.863281 167.457031 L 115.8125 167.457031 L 115.8125 166.984375 L 114.863281 166.984375 Z M 140.554688 108.027344 L 140.980469 107.171875 L 138.769531 108.148438 L 134.289063 111.082031 L 132.628906 111.554688 L 129.550781 114.398438 L 126.707031 117.714844 L 119.128906 125.292969 L 117.707031 126.476563 L 116.972656 126.820313 L 115.8125 128.136719 L 114.769531 129.699219 L 116.535156 129.160156 L 119.601563 127.664063 L 121.496094 126.476563 L 125.257813 124.109375 L 128.816406 119.503906 L 130.285156 118.765625 L 134.949219 113.121094 L 138.585938 109.894531 L 139.339844 108.554688 Z M 115.8125 166.984375 L 116.285156 166.984375 L 116.285156 166.511719 L 115.8125 166.511719 Z M 135.839844 156.363281 L 136.773438 154.960938 L 132.394531 157.035156 L 130.5 158.21875 L 124.894531 161.519531 L 119.90625 165.257813 L 118.347656 166.816406 L 114.96875 169.089844 L 116.046875 171.246094 L 117.019531 170.875 L 125.929688 163.972656 L 128.046875 162.5 L 128.445313 161.613281 L 130.261719 160.824219 L 131.222656 159.804688 Z M 117.234375 157.507813 L 117.707031 157.507813 L 117.707031 157.035156 L 117.234375 157.035156 Z M 119.363281 156.5625 L 118.898438 156.152344 L 117.46875 156.5625 L 117.933594 156.96875 Z M 119.601563 111.082031 L 120.074219 111.082031 L 120.074219 110.609375 L 119.601563 110.609375 Z M 120.074219 110.609375 L 120.550781 110.609375 L 120.550781 110.132813 L 120.074219 110.132813 Z M 149.554688 132.1875 L 149.980469 131.335938 L 147.769531 132.308594 L 146.367188 133.347656 L 145.433594 134.21875 L 144.445313 134.660156 L 137.8125 138.449219 L 135.128906 140.664063 L 134.394531 142.136719 L 133.128906 142.714844 L 132.316406 144.019531 L 128.203125 147.3125 L 127.394531 148.613281 L 126.234375 149.21875 L 124.339844 151.351563 L 121.734375 153.246094 L 119.5 154.878906 L 119 156.238281 L 120.796875 155.683594 L 123.613281 153.636719 L 125.539063 152.851563 L 128.351563 150.796875 L 130.28125 150.023438 L 134.476563 146.707031 L 134.800781 145.898438 L 138.316406 142.824219 L 142.816406 139.03125 Z M 120.074219 117.238281 L 121.023438 117.238281 L 121.023438 116.765625 L 120.074219 116.765625 Z M 121.023438 116.765625 L 121.496094 116.765625 L 121.496094 116.292969 L 121.023438 116.292969 Z M 121.496094 128.136719 L 121.96875 128.136719 L 121.96875 127.664063 L 121.496094 127.664063 Z M 151.949219 93.355469 L 152.882813 91.953125 L 150.613281 92.980469 L 141.65625 98.394531 L 139.238281 99.605469 L 138.765625 100.550781 L 135.023438 103.605469 L 134.5 104.34375 L 130.761719 107.398438 L 130.226563 108.117188 L 126.03125 111.675781 L 125.722656 112.269531 L 121.734375 115.34375 L 121.722656 116.222656 L 123.160156 115.875 L 128.496094 112.242188 L 130.5 111.082031 L 132.605469 110.238281 L 136.917969 106.921875 L 139.734375 103.976563 L 141.226563 102.859375 L 142.128906 101.5 L 143.050781 101.132813 L 145.550781 99.027344 L 146.40625 97.941406 L 150.132813 94.867188 L 150.710938 93.867188 Z M 122.917969 107.292969 L 123.390625 107.292969 L 123.390625 106.816406 L 122.917969 106.816406 Z M 123.390625 106.816406 L 123.867188 106.816406 L 123.867188 106.34375 L 123.390625 106.34375 Z M 123.390625 145.664063 L 124.339844 145.664063 L 124.339844 145.191406 L 123.390625 145.191406 Z M 123.390625 155.613281 L 124.339844 155.613281 L 124.339844 155.140625 L 123.390625 155.140625 Z M 123.867188 106.34375 L 124.8125 106.34375 L 124.8125 105.871094 L 123.867188 105.871094 Z M 124.339844 145.191406 L 124.8125 145.191406 L 124.8125 144.71875 L 124.339844 144.71875 Z M 124.339844 155.140625 L 124.8125 155.140625 L 124.8125 154.667969 L 124.339844 154.667969 Z M 137.261719 96.199219 L 138.195313 94.796875 L 135.929688 95.839844 L 130.535156 100.417969 L 130.234375 101.027344 L 125.207031 105.082031 L 124.765625 105.964844 L 126.027344 105.507813 L 129.746094 102.421875 L 131.445313 100.660156 L 132.605469 99.605469 Z M 124.8125 144.71875 L 125.761719 144.71875 L 125.761719 144.242188 L 124.8125 144.242188 Z M 146.921875 126.558594 L 147.789063 126.242188 L 147.816406 125.398438 L 145.394531 126.609375 L 142.15625 128.757813 L 139.273438 131.054688 L 138.789063 131.925781 L 136.183594 134.769531 L 131.445313 138.558594 L 130.023438 140.21875 L 128.863281 140.820313 L 127.960938 142.179688 L 125.996094 143.296875 L 125.976563 144.148438 L 127.910156 143.390625 L 137.402344 137.261719 L 142.554688 131.820313 Z M 131.445313 142.824219 L 131.917969 142.824219 L 131.917969 142.347656 L 131.445313 142.347656 Z M 132.394531 101.605469 L 132.867188 101.605469 L 132.867188 101.132813 L 132.394531 101.132813 Z M 132.867188 155.140625 L 133.8125 155.140625 L 133.8125 154.667969 L 132.867188 154.667969 Z M 150.5625 88.507813 L 152.527344 87.394531 L 152.554688 86.554688 L 144.933594 90.632813 L 139.261719 95.449219 L 138.304688 96.46875 L 133.105469 100.660156 L 133.097656 101.085938 L 134.542969 100.75 L 141.660156 96.507813 L 143.050781 95.449219 L 145.601563 93.324219 L 145.921875 92.710938 L 149.648438 89.636719 Z M 133.8125 154.667969 L 134.289063 154.667969 L 134.289063 154.191406 L 133.8125 154.191406 Z M 133.8125 103.027344 L 134.761719 103.027344 L 134.761719 102.554688 L 133.8125 102.554688 Z M 137.605469 152.773438 L 141.15625 150.875 L 141.1875 150.046875 L 143.675781 149.203125 L 147.742188 146.234375 L 148.132813 145.402344 L 150.160156 144.242188 L 151.34375 143.296875 L 153.710938 140.453125 L 154.871094 139.402344 L 159.183594 136.296875 L 161.433594 134.105469 L 162.855469 132.210938 L 160.566406 133.257813 L 153.457031 137.523438 L 150.632813 139.507813 L 149.449219 140.453125 L 147.554688 142.824219 L 144.710938 144.71875 L 142.816406 146.847656 L 141.710938 147.402344 L 141.289063 148.296875 L 139.261719 149.457031 L 137.367188 151.351563 L 135.132813 152.984375 L 134.667969 154.238281 Z M 136.65625 146.140625 L 137.128906 146.140625 L 137.128906 145.664063 L 136.65625 145.664063 Z M 136.65625 155.140625 L 137.128906 155.140625 L 137.128906 154.667969 L 136.65625 154.667969 Z M 137.128906 145.664063 L 137.605469 145.664063 L 137.605469 145.191406 L 137.128906 145.191406 Z M 137.128906 154.667969 L 137.605469 154.667969 L 137.605469 154.191406 L 137.128906 154.191406 Z M 139.261719 144.71875 L 138.796875 144.308594 L 137.367188 144.71875 L 137.832031 145.125 Z M 138.078125 154.191406 L 138.550781 154.191406 L 138.550781 153.71875 L 138.078125 153.71875 Z M 138.078125 94.972656 L 139.027344 94.972656 L 139.027344 94.5 L 138.078125 94.5 Z M 138.550781 106.816406 L 139.027344 106.816406 L 139.027344 106.34375 L 138.550781 106.34375 Z M 163.285156 87.175781 L 163.804688 85.78125 L 159.632813 87.867188 L 157.976563 89.761719 L 156.792969 90.710938 L 154.765625 91.871094 L 154.398438 92.5 L 150.65625 95.554688 L 150.125 96.273438 L 145.929688 99.832031 L 145.601563 100.429688 L 143.050781 102.554688 L 141.15625 104.449219 L 139.261719 105.394531 L 139.238281 106.238281 L 141.867188 104.921875 L 145.894531 102.554688 L 149.449219 99.710938 L 156.082031 93.078125 L 158.6875 91.183594 Z M 141.394531 143.296875 L 143.550781 142.242188 L 144.476563 141.449219 L 149.449219 138.085938 L 152.042969 136.738281 L 153.710938 135.714844 L 158.449219 130.503906 L 159.398438 129.558594 L 162.714844 126.476563 L 163.449219 126.136719 L 164.441406 124.652344 L 165.816406 123.765625 L 168.015625 121.285156 L 168.515625 119.964844 L 166.734375 120.5 L 161.070313 124.429688 L 159.144531 125.207031 L 154.441406 128.519531 L 152.574219 130.835938 L 150.792969 132.175781 L 150.078125 133.503906 L 148.761719 134.1875 L 147.859375 135.550781 L 146.4375 136.496094 L 145.617188 137.851563 L 139.261719 143.296875 L 139.25 144.164063 Z M 140.921875 107.292969 L 141.394531 107.292969 L 141.394531 106.816406 L 140.921875 106.816406 Z M 141.394531 106.816406 L 141.867188 106.816406 L 141.867188 106.34375 L 141.394531 106.34375 Z M 141.394531 134.769531 L 141.867188 134.769531 L 141.867188 134.296875 L 141.394531 134.296875 Z M 141.867188 134.296875 L 142.816406 134.296875 L 142.816406 133.820313 L 141.867188 133.820313 Z M 142.816406 133.820313 L 143.289063 133.820313 L 143.289063 133.347656 L 142.816406 133.347656 Z M 143.761719 89.761719 L 144.238281 89.761719 L 144.238281 89.289063 L 143.761719 89.289063 Z M 164.242188 115.605469 L 164.6875 114.714844 L 162.070313 116.125 L 161.066406 117.164063 L 160.078125 117.597656 L 152.976563 121.871094 L 151.011719 124.15625 L 147.429688 128.339844 L 146.394531 128.976563 L 144.585938 131.179688 L 143.152344 133.496094 L 145.441406 132.496094 L 153.390625 127.480469 L 156.640625 124.84375 Z M 144.238281 89.289063 L 144.710938 89.289063 L 144.710938 88.816406 L 144.238281 88.816406 Z M 144.710938 125.765625 L 145.183594 125.765625 L 145.183594 125.292969 L 144.710938 125.292969 Z M 144.710938 88.816406 L 145.65625 88.816406 L 145.65625 88.339844 L 144.710938 88.339844 Z M 145.183594 125.292969 L 145.65625 125.292969 L 145.65625 124.820313 L 145.183594 124.820313 Z M 158.6875 77.917969 L 158.691406 77.492188 L 157.238281 77.8125 L 149.605469 84.847656 L 146.03125 87.132813 L 145.539063 88.460938 L 146.863281 87.960938 L 153.925781 81.601563 L 154.871094 80.65625 Z M 158.449219 111.792969 L 160.25 108.191406 L 159.144531 108.628906 L 155.027344 111.292969 L 153.710938 113.921875 L 152.550781 115.925781 L 150.632813 117.714844 L 149.921875 119.371094 L 146.042969 123.617188 L 145.53125 124.964844 L 147.808594 123.96875 L 151.0625 121.636719 L 154.167969 117.476563 L 154.894531 116.292969 L 156.792969 114.398438 L 157.265625 112.976563 Z M 147.554688 93.078125 L 148.027344 93.078125 L 148.027344 92.605469 L 147.554688 92.605469 Z M 148.027344 125.292969 L 148.5 125.292969 L 148.5 124.820313 L 148.027344 124.820313 Z M 157.238281 87.761719 L 159.183594 86.8125 L 160.34375 85.972656 L 162.070313 84.246094 L 168.113281 79.199219 L 169.347656 78.390625 L 172.347656 75.390625 L 169.570313 76.421875 L 165.339844 79.4375 L 159.632813 82.183594 L 159.136719 83.023438 L 154.007813 87.074219 L 153 87.867188 L 152.054688 88.816406 L 148.84375 91.378906 L 147.960938 92.707031 L 149.691406 92.1875 L 152.988281 89.835938 L 153.972656 89.394531 Z M 149.921875 131.453125 L 150.394531 131.453125 L 150.394531 130.980469 L 149.921875 130.980469 Z M 150.394531 130.980469 L 150.871094 130.980469 L 150.871094 130.503906 L 150.394531 130.503906 Z M 152.289063 85.023438 L 152.765625 85.023438 L 152.765625 84.550781 L 152.289063 84.550781 Z M 152.765625 84.550781 L 153.238281 84.550781 L 153.238281 84.078125 L 152.765625 84.078125 Z M 152.765625 92.132813 L 153.238281 92.132813 L 153.238281 91.65625 L 152.765625 91.65625 Z M 152.765625 86.445313 L 153.710938 86.445313 L 153.710938 85.972656 L 152.765625 85.972656 Z M 154.894531 83.601563 L 154.433594 83.195313 L 153 83.601563 L 153.464844 84.011719 Z M 153.710938 91.65625 L 154.1875 91.65625 L 154.1875 91.183594 L 153.710938 91.183594 Z M 154.886719 83.058594 L 156.792969 82.65625 L 156.824219 81.824219 L 159.398438 80.996094 L 165.816406 76.128906 L 166.742188 75.074219 L 168.160156 74.128906 L 169.109375 73.179688 L 172.332031 70.621094 L 173.6875 68.8125 L 172.410156 69.308594 L 168.628906 71.226563 L 165.332031 73.578125 L 163.425781 75.550781 L 162.003906 76.496094 L 161.054688 77.445313 L 154.894531 82.183594 Z M 174.167969 101.386719 L 175.203125 98.601563 L 169.550781 101.960938 L 164.476563 105.238281 L 160.222656 111.285156 L 155.519531 117.933594 L 155.058594 119.121094 L 161.96875 114.75 L 162.714844 114.160156 L 167.679688 111.148438 L 169.460938 108.976563 L 171.714844 105.394531 Z M 163.246094 102.796875 L 163.816406 100.007813 L 161.507813 101.039063 L 157.398438 103.714844 L 155.960938 109.1875 L 156.316406 109.1875 L 161.160156 106.148438 L 162.238281 104.683594 Z M 156.460938 51.007813 L 157.253906 50.042969 L 158.449219 49.730469 L 167.207031 43.867188 L 168.074219 41.625 L 168.75 39.273438 L 170.464844 35.117188 L 168.140625 36.128906 L 160.109375 40.9375 L 158.316406 43.609375 L 157.453125 45.460938 Z M 162.925781 53.175781 L 163.886719 52.410156 L 165.308594 51.9375 L 166.742188 50.914063 L 166.78125 45.835938 L 165.359375 46.78125 L 164.335938 47.472656 L 156.355469 52.460938 L 155.917969 57.71875 L 158.226563 56.683594 L 160.140625 55.300781 Z M 167.183594 56.007813 L 168.007813 55.429688 L 167.511719 52.234375 L 166.25 52.726563 L 164.132813 53.992188 L 163.574219 54.449219 L 156.316406 58.96875 L 156.074219 60.152344 L 156.75 62.625 L 159.59375 60.730469 L 160.609375 60.03125 Z M 167.082031 65.863281 L 167.992188 64.042969 L 166.253906 64.578125 L 161.523438 67.4375 L 157.386719 70.070313 L 156.363281 74.746094 L 160.34375 71.757813 L 163.1875 68.917969 L 164.132813 67.96875 Z M 156.554688 134.296875 L 157.027344 134.296875 L 157.027344 133.820313 L 156.554688 133.820313 Z M 157.027344 96.394531 L 157.503906 96.394531 L 157.503906 95.921875 L 157.027344 95.921875 Z M 165.082031 97.105469 L 166.207031 92.449219 L 161.023438 95.332031 L 157.265625 97.816406 L 157.238281 102.449219 L 158.6875 101.605469 L 159.621094 100.734375 L 164.027344 98.027344 Z M 157.027344 133.820313 L 157.503906 133.820313 L 157.503906 133.347656 L 157.027344 133.347656 Z M 167.550781 62.542969 L 168.125 57.023438 L 158.71875 62.878906 L 156.921875 63.917969 L 156.660156 64.441406 L 157.265625 68.441406 L 158.695313 68.027344 L 163.429688 65.183594 Z M 157.503906 95.921875 L 158.449219 95.921875 L 158.449219 95.449219 L 157.503906 95.449219 Z M 165.25 125.601563 L 157.335938 133.515625 L 161.082031 131.5625 L 169.109375 126.714844 L 170.386719 125.039063 L 174.84375 121.359375 L 179.53125 115.84375 L 180.46875 115.417969 L 182.960938 112.300781 L 185.820313 109.921875 L 185.429688 109.140625 L 181.457031 111.671875 L 180.445313 112.378906 L 173.289063 117.058594 L 167.769531 123.105469 L 166.160156 124.542969 Z M 158.921875 77.445313 L 159.398438 77.445313 L 159.398438 76.972656 L 158.921875 76.972656 Z M 166.105469 90.960938 L 166.671875 87.699219 L 165.386719 88.980469 L 162.042969 91.789063 L 161.292969 92.132813 L 160.195313 93.261719 L 158.300781 95.632813 L 160.601563 94.59375 Z M 159.398438 76.972656 L 159.871094 76.972656 L 159.871094 76.496094 L 159.398438 76.496094 Z M 161.054688 122.925781 L 161.074219 122.074219 L 162.9375 121.578125 L 164.382813 120.480469 L 165.792969 120.082031 L 165.855469 119.296875 L 173.308594 115.03125 L 177.03125 110.871094 L 178.242188 108.449219 L 181.296875 104.710938 L 181.710938 103.878906 L 180.460938 104.359375 L 174.355469 108.363281 L 169.898438 111.175781 L 162.605469 119.820313 L 161.460938 120.722656 L 160.34375 121.976563 L 159.328125 123.5 Z M 160.816406 39.070313 L 161.292969 39.070313 L 161.292969 38.597656 L 160.816406 38.597656 Z M 181.296875 19.910156 L 181.710938 19.078125 L 180 19.59375 L 170.90625 25.613281 L 164.917969 33.082031 L 161.6875 36.925781 L 161.136719 38.777344 L 167.449219 35.28125 L 170.515625 32.828125 L 172.449219 32.070313 L 173.460938 30.253906 L 175.621094 27.019531 Z M 162.714844 132.398438 L 163.660156 132.398438 L 163.660156 131.925781 L 162.714844 131.925781 Z M 163.660156 100.183594 L 164.132813 100.183594 L 164.132813 99.710938 L 163.660156 99.710938 Z M 164.132813 72.234375 L 164.609375 72.234375 L 164.609375 71.757813 L 164.132813 71.757813 Z M 165.320313 85.5 L 164.855469 85.089844 L 163.425781 85.5 L 163.886719 85.90625 Z M 164.609375 114.871094 L 165.082031 114.871094 L 165.082031 114.398438 L 164.609375 114.398438 Z M 165.082031 71.757813 L 165.554688 71.757813 L 165.554688 71.285156 L 165.082031 71.285156 Z M 165.554688 85.023438 L 166.03125 85.023438 L 166.03125 84.550781 L 165.554688 84.550781 Z M 165.554688 103.027344 L 166.03125 103.027344 L 166.03125 102.554688 L 165.554688 102.554688 Z M 177.164063 62.285156 L 177.171875 61.875 L 175.664063 62.3125 L 170.125 66.714844 L 165.386719 71.453125 L 167.703125 70.417969 L 170.234375 68.214844 L 170.566406 67.621094 Z M 166.03125 82.65625 L 166.503906 82.65625 L 166.503906 82.183594 L 166.03125 82.183594 Z M 176.589844 96.203125 L 178.515625 90.542969 L 176.214844 91.65625 L 172.929688 94.140625 L 168.164063 96.90625 L 166.433594 100.410156 L 165.871094 102.730469 L 172.664063 98.761719 Z M 166.503906 82.183594 L 166.976563 82.183594 L 166.976563 81.707031 L 166.503906 81.707031 Z M 166.503906 87.867188 L 166.976563 87.867188 L 166.976563 87.394531 L 166.503906 87.394531 Z M 166.976563 76.496094 L 167.449219 76.496094 L 167.449219 76.023438 L 166.976563 76.023438 Z M 167.449219 76.023438 L 168.398438 76.023438 L 168.398438 75.550781 L 167.449219 75.550781 Z M 182.609375 70.339844 L 183.085938 69.390625 L 181.664063 69.390625 L 181.871094 70.222656 L 179.351563 71.054688 L 178.347656 72.234375 L 177.164063 73.179688 L 175.136719 74.339844 L 174.761719 74.953125 L 170.5625 78.515625 L 170.234375 79.109375 L 167.214844 81.234375 L 167.210938 81.660156 L 168.65625 81.328125 L 171.425781 79.664063 L 174.832031 77.101563 L 175.976563 76.023438 L 178.820313 73.179688 Z M 191.808594 70.46875 L 193.136719 71.355469 L 192.664063 70.078125 L 189.898438 67.648438 L 186.183594 62.667969 L 184.269531 62.285156 L 184.21875 63.085938 L 180.347656 64.914063 L 178.347656 67.023438 L 177.164063 67.96875 L 175.136719 69.128906 L 174.769531 69.757813 L 169.640625 73.808594 L 168.636719 74.601563 L 168.609375 75.445313 L 172.925781 73.285156 L 179.53125 69.390625 L 184.230469 65.46875 L 185.320313 64.742188 Z M 168.398438 120.082031 L 168.871094 120.082031 L 168.871094 119.609375 L 168.398438 119.609375 Z M 179.808594 86.6875 L 180.410156 83.46875 L 179.039063 83.988281 L 174.289063 86.804688 L 170.191406 89.5 L 168.28125 95.09375 L 170.0625 94.546875 L 171.039063 93.675781 L 179.042969 88.257813 Z M 168.871094 119.609375 L 169.820313 119.609375 L 169.820313 119.136719 L 168.871094 119.136719 Z M 169.820313 119.136719 L 170.292969 119.136719 L 170.292969 118.660156 L 169.820313 118.660156 Z M 180.847656 81.511719 L 181.875 76.867188 L 179.53125 77.917969 L 178.578125 78.820313 L 173.820313 81.601563 L 170.6875 83.828125 L 170.125 88.03125 L 175.773438 84.671875 Z M 180.015625 35.679688 L 181.4375 35.207031 L 182.398438 34.4375 L 184.792969 32.765625 L 185.765625 30.371094 L 188.140625 28.941406 L 185.382813 25.722656 L 183.316406 26.695313 L 174.324219 32.46875 L 173.085938 34.574219 L 171.671875 38.355469 L 171.082031 41.519531 L 172.925781 40.597656 L 179.097656 36.570313 Z M 185.347656 38.808594 L 184.796875 34.484375 L 178.613281 38.238281 L 177.398438 38.832031 L 176.714844 39.648438 L 171.058594 43.011719 L 170.574219 48.210938 L 171.96875 47.683594 L 177.621094 43.722656 L 179.546875 42.945313 L 185.085938 39.332031 Z M 171.242188 61.8125 L 172.1875 61.8125 L 172.1875 61.335938 L 171.242188 61.335938 Z M 184.738281 44.792969 L 186.101563 45.207031 L 185.503906 40.414063 L 183.085938 41.914063 L 178.113281 45.277344 L 177.175781 46.101563 L 173.265625 48.269531 L 171.226563 49.730469 L 171.953125 52.808594 L 173.847656 51.863281 L 176.664063 49.859375 L 177.625 49.09375 Z M 185.136719 50.046875 L 186.121094 50.539063 L 185.613281 46.003906 L 174.820313 52.914063 L 171.984375 54.332031 L 171.550781 59.613281 L 173.863281 58.582031 L 178.601563 55.738281 L 181.496094 53.589844 L 182.398438 52.230469 L 183.558594 51.625 Z M 172.1875 61.335938 L 172.664063 61.335938 L 172.664063 60.863281 L 172.1875 60.863281 Z M 172.1875 75.550781 L 172.664063 75.550781 L 172.664063 75.074219 L 172.1875 75.074219 Z M 174.320313 106.816406 L 175.253906 105.945313 L 176.675781 105.472656 L 177.625 104.523438 L 182.347656 101.5 L 183.820313 100.765625 L 184.75 98.707031 L 186.117188 97.957031 L 187.113281 98.25 L 189.480469 97.34375 L 189.847656 96.117188 L 185.691406 92.132813 L 184.257813 92.53125 L 182.375 93.550781 L 179.253906 95.679688 L 176.453125 101.132813 L 175.976563 102.078125 L 174.082031 104.449219 L 172.03125 108.316406 L 173.136719 107.765625 Z M 172.664063 60.863281 L 173.136719 60.863281 L 173.136719 60.390625 L 172.664063 60.390625 Z M 172.664063 67.496094 L 173.136719 67.496094 L 173.136719 67.023438 L 172.664063 67.023438 Z M 172.664063 75.074219 L 173.136719 75.074219 L 173.136719 74.601563 L 172.664063 74.601563 Z M 173.136719 67.023438 L 174.082031 67.023438 L 174.082031 66.546875 L 173.136719 66.546875 Z M 173.609375 68.917969 L 174.082031 68.917969 L 174.082031 68.441406 L 173.609375 68.441406 Z M 177.398438 65.128906 L 179.058594 64.179688 L 179.078125 63.328125 L 180.941406 62.832031 L 182.609375 61.8125 L 184.980469 59.441406 L 186.664063 60.285156 L 189.53125 63.085938 L 192.195313 65.214844 L 191.71875 63.917969 L 189.242188 61.8125 L 187.347656 58.96875 L 185.214844 57.074219 L 184.25 57.453125 L 179.507813 61.230469 L 178.585938 62.285156 L 175.832031 64.363281 L 173.996094 66.65625 L 175.28125 66.15625 Z M 174.558594 68.441406 L 175.03125 68.441406 L 175.03125 67.96875 L 174.558594 67.96875 Z M 175.03125 21.066406 L 175.503906 21.066406 L 175.503906 20.59375 L 175.03125 20.59375 Z M 175.03125 98.761719 L 175.503906 98.761719 L 175.503906 98.289063 L 175.03125 98.289063 Z M 196.917969 22.441406 L 198.765625 23.058594 L 198.351563 22.226563 L 195.269531 19.449219 L 193.507813 16.804688 L 185.257813 10.777344 L 184.230469 11.460938 L 183.085938 12.539063 L 181.898438 13.960938 L 181.558594 14.699219 L 180.074219 15.6875 L 179.128906 17.109375 L 177.765625 18.011719 L 177.082031 19.332031 L 176.214844 19.648438 L 176.191406 20.488281 L 177.660156 19.753906 L 185.214844 14.933594 L 186.644531 15.332031 L 193.035156 19.527344 Z M 175.976563 29.59375 L 176.453125 29.59375 L 176.453125 29.121094 L 175.976563 29.121094 Z M 197.296875 31.492188 L 199.269531 32.070313 L 197.914063 30.257813 L 191.136719 22.726563 L 189.066406 20.4375 L 185.117188 16.925781 L 180.523438 22.625 L 178.238281 25.542969 L 176.285156 29.289063 L 178.585938 28.175781 L 179.292969 27.464844 L 180.507813 26.867188 L 185.277344 23.96875 L 187.113281 25.804688 L 187.664063 26.910156 L 188.558594 27.332031 L 189.558594 28.824219 L 191.859375 29.527344 L 195.648438 30.480469 Z M 177.398438 61.8125 L 177.875 61.8125 L 177.875 61.335938 L 177.398438 61.335938 Z M 194.6875 114.445313 L 197.921875 115.054688 L 195.402344 112.027344 L 191.613281 108.238281 L 185.3125 101.699219 L 184.230469 102.421875 L 183.796875 103.976563 L 181.898438 105.871094 L 181.425781 107.292969 L 179.492188 109.054688 L 177.785156 111.300781 L 177.28125 112.621094 L 179.976563 110.964844 L 181.191406 110.371094 L 182.136719 109.421875 L 184.253906 108.15625 L 185.214844 107.765625 L 189.71875 112.265625 L 191.613281 113.214844 Z M 178.347656 90.710938 L 178.820313 90.710938 L 178.820313 90.234375 L 178.347656 90.234375 Z M 179.769531 76.496094 L 180.242188 76.496094 L 180.242188 76.023438 L 179.769531 76.023438 Z M 180.242188 83.601563 L 180.714844 83.601563 L 180.714844 83.128906 L 180.242188 83.128906 Z M 180.242188 93.550781 L 180.714844 93.550781 L 180.714844 93.078125 L 180.242188 93.078125 Z M 180.714844 58.019531 L 181.191406 58.019531 L 181.191406 57.546875 L 180.714844 57.546875 Z M 180.242188 76.023438 L 181.191406 76.023438 L 181.191406 75.550781 L 180.242188 75.550781 Z M 181.191406 75.550781 L 181.664063 75.550781 L 181.664063 75.074219 L 181.191406 75.074219 Z M 192.660156 95.515625 L 193.035156 93.789063 L 192.085938 92.605469 L 185.214844 85.972656 L 184.253906 86.359375 L 182.164063 88.007813 L 180.675781 93.214844 L 182.878906 91.777344 L 185.277344 90.296875 L 188.902344 93.75 L 190.722656 96.484375 Z M 197.515625 65.691406 L 198.785156 66.175781 L 197.902344 64.851563 L 195.15625 61.871094 L 185.300781 53.871094 L 183.558594 55.179688 L 181.496094 57.242188 L 185.390625 55.328125 L 191.914063 61.175781 Z M 183.085938 69.390625 L 184.03125 69.390625 L 184.03125 68.917969 L 183.085938 68.917969 Z M 193.71875 93.183594 L 194.242188 93.445313 L 195.34375 91.425781 L 194.453125 89.523438 L 187.824219 83.128906 L 185.691406 80.289063 L 184.226563 80.625 L 183.796875 83.601563 L 183.320313 85.023438 L 183.3125 85.433594 L 184.742188 85.023438 L 184.738281 84.597656 L 186.179688 84.9375 L 187.347656 86.917969 Z M 184.507813 68.441406 L 184.980469 68.441406 L 184.980469 67.96875 L 184.507813 67.96875 Z M 184.507813 78.867188 L 184.980469 78.867188 L 184.980469 78.390625 L 184.507813 78.390625 Z M 195.613281 89.394531 L 196.308594 89.742188 L 196.941406 86.5625 L 193.980469 83.601563 L 185.808594 75.195313 L 184.84375 76.160156 L 185.347656 78.652344 L 186.875 79.8125 L 188.769531 82.65625 Z M 186.875 67.496094 L 186.402344 66.546875 L 185.925781 66.546875 L 186.402344 67.496094 Z M 188.296875 74.128906 L 185.777344 72.113281 L 186.320313 73.90625 L 187.558594 75.65625 L 196.113281 84.078125 L 196.507813 84.867188 L 197.566406 85.398438 L 198.246094 83.839844 L 197.867188 81.925781 L 192.144531 77.6875 L 191.824219 77.078125 Z M 185.925781 110.609375 L 186.402344 110.609375 L 186.402344 110.132813 L 185.925781 110.132813 Z M 203.199219 83.226563 L 204.488281 83.710938 L 202.359375 81.050781 L 199.890625 78.316406 L 198.957031 77.917969 L 196.40625 75.792969 L 196.089844 75.183594 L 190.972656 71.117188 L 188.296875 68.441406 L 186.875 67.496094 L 187.714844 69.179688 L 193.800781 74.925781 Z M 189.242188 19.171875 L 188.769531 18.226563 L 188.296875 18.226563 L 188.769531 19.171875 Z M 189.503906 38.492188 L 188.558594 38.015625 L 189.632813 43.585938 L 192.269531 46.796875 L 198.480469 52.808594 L 198.925781 53.875 L 199.902344 54.230469 L 201.046875 51.15625 L 200.71875 50.179688 L 198.71875 48.546875 L 194.929688 43.808594 Z M 189.980469 64.546875 L 188.671875 64.066406 L 195.558594 71.9375 L 200.960938 78.191406 L 207.4375 83.746094 L 211.140625 86.523438 L 210.664063 85.238281 L 200.933594 74.894531 L 199.953125 73.035156 L 192.253906 66.855469 L 191.136719 66.074219 Z M 190.90625 19.59375 L 189.125 19.054688 L 195.285156 26.160156 L 198.246094 29.121094 L 200.851563 31.964844 L 201.503906 33.140625 L 205.992188 35.585938 L 213.535156 40.214844 L 215.0625 41.914063 L 216.957031 42.859375 L 217.363281 42.554688 L 213.238281 38.429688 L 212.195313 37.542969 L 209.898438 34.476563 L 208.117188 33.136719 L 207.484375 31.964844 L 205.351563 29.832031 L 199.667969 25.570313 L 193.980469 21.542969 Z M 190.453125 46.070313 L 189.523438 45.605469 L 190.085938 49.753906 L 193.035156 52.335938 L 194.929688 55.179688 L 200.351563 60.496094 L 201.085938 60.863281 L 201.144531 58.25 L 200.28125 56.789063 L 197.441406 53 L 196.351563 51.863281 Z M 191.902344 52.660156 L 189.53125 50.765625 L 190.089844 54.015625 L 195.097656 57.714844 L 197.769531 60.390625 L 198.8125 60.910156 L 198.351563 59.652344 L 192.324219 53.757813 Z M 200.140625 47.597656 L 201.324219 49.492188 L 204.140625 48.914063 L 204.878906 48.78125 L 206.195313 48.34375 L 205.929688 47.808594 L 202.035156 44.28125 L 201.085938 42.386719 L 197.769531 39.542969 L 195.875 36.703125 L 191.453125 32.515625 L 189.835938 33.328125 L 188.804688 35.992188 L 189.71875 37.414063 L 192.558594 40.492188 L 198.71875 46.175781 Z M 191.136719 62.285156 L 191.613281 62.285156 L 191.613281 61.8125 L 191.136719 61.8125 Z M 193.296875 63.125 L 191.96875 62.640625 L 197.449219 69.097656 L 199.902344 71.757813 L 205.183594 76.328125 L 212.195313 82.285156 L 213.472656 82.757813 L 212.457031 81.234375 L 210.5625 79.339844 L 207.902344 76.648438 L 205.070313 73.320313 L 199.480469 68.296875 L 198.507813 67.390625 L 194.929688 64.890625 Z M 194.683594 71.824219 L 192.914063 71.167969 L 193.980469 72.234375 L 194.453125 72.234375 Z M 190.917969 101.214844 L 187.585938 101.605469 L 187.242188 102.339844 L 191.136719 106.34375 L 196.351563 111.082031 L 199.414063 114.949219 L 205.113281 115.363281 L 207.113281 114.675781 L 206.429688 113.648438 L 205.351563 112.503906 L 202.980469 110.132813 L 196.585938 103.976563 L 196.113281 103.027344 L 193.746094 100.621094 Z M 197.535156 33.351563 L 192.964844 32.300781 L 193.402344 33.171875 L 194.453125 34.097656 L 202.980469 43.570313 L 205.824219 46.652344 L 208.667969 49.257813 L 210.824219 49.597656 L 216 51.933594 L 217.765625 52.445313 L 210.878906 44.578125 L 208.953125 42.246094 L 204.878906 38.597656 L 202.273438 35.753906 L 200.917969 35.113281 Z M 195.570313 99.070313 L 194.574219 100.066406 L 198.71875 103.976563 L 201.5625 107.765625 L 207.953125 113.960938 L 209.859375 113.507813 L 210.457031 112.289063 L 210.195313 111.765625 L 202.035156 103.976563 L 201.085938 102.078125 L 197.058594 98.289063 Z M 198.71875 21.066406 L 198.246094 20.121094 L 197.769531 20.121094 L 197.558594 20.488281 Z M 197.769531 115.34375 L 198.71875 115.34375 L 198.71875 114.871094 L 197.769531 114.871094 Z M 224.511719 43.914063 L 225.769531 44.375 L 225.355469 43.546875 L 215.921875 34.042969 L 200.402344 21.910156 L 198.71875 21.066406 L 200.464844 23.25 L 205.136719 28.074219 L 218.441406 38.914063 Z M 199.191406 22.964844 L 198.71875 22.964844 L 198.71875 23.910156 L 199.667969 23.910156 Z M 199.878906 66.652344 L 198.71875 66.074219 L 199.191406 67.023438 L 199.667969 67.023438 Z M 199.929688 95.339844 L 198.957031 94.972656 L 198.171875 96.144531 L 197.730469 97.582031 L 202.980469 102.554688 L 208.667969 109.1875 L 210.773438 111.1875 L 211.746094 111.539063 L 212.890625 109.902344 L 212.058594 107.988281 L 210.089844 105.871094 L 202.980469 99.238281 L 201.085938 96.394531 Z M 200.824219 24.488281 L 199.667969 23.910156 L 199.453125 24.277344 L 200.613281 24.859375 Z M 199.667969 61.8125 L 200.140625 61.8125 L 200.140625 61.335938 L 199.667969 61.335938 Z M 199.667969 67.496094 L 200.140625 67.496094 L 200.140625 67.023438 L 199.667969 67.023438 Z M 200.140625 55.179688 L 200.613281 55.179688 L 200.613281 54.703125 L 200.140625 54.703125 Z M 201.773438 66.652344 L 200.613281 66.074219 L 201.085938 67.023438 L 201.5625 67.023438 Z M 200.613281 68.441406 L 201.085938 68.441406 L 201.085938 67.96875 L 200.613281 67.96875 Z M 201.347656 91.078125 L 200.816406 90.8125 L 199.820313 93.730469 L 202.507813 96.867188 L 208.195313 102.554688 L 213.144531 107.871094 L 214.117188 108.226563 L 215.195313 105.65625 L 214.933594 105.132813 L 210.089844 100.660156 L 209 99.523438 L 206.441406 96.109375 Z M 201.085938 61.8125 L 201.5625 61.8125 L 201.5625 61.335938 L 201.085938 61.335938 Z M 201.5625 67.023438 L 202.273438 68.441406 L 202.980469 68.441406 L 202.507813 67.496094 Z M 202.769531 87.289063 L 201.796875 86.917969 L 201.132813 89.046875 L 201.457031 90.023438 L 207.71875 95.921875 L 213.40625 102.554688 L 215.457031 104.371094 L 216.035156 104.082031 L 216.734375 102.789063 L 216.351563 100.871094 L 215.300781 99.710938 L 214.351563 98.761719 Z M 204.1875 68.820313 L 202.863281 68.324219 L 203.351563 69.652344 L 208.667969 74.839844 L 209.4375 75.394531 L 221.113281 84.703125 L 220.601563 83.347656 L 218.425781 80.617188 L 214.011719 76.21875 L 211.984375 74.601563 Z M 208.195313 58.019531 L 204.570313 54.398438 L 203.914063 55.886719 L 204.296875 59.230469 L 207.246094 61.8125 L 210.089844 65.601563 L 215.984375 71.390625 L 216.507813 71.652344 L 217.054688 67.78125 L 215.773438 66.074219 L 213.15625 63.15625 L 212.140625 62.601563 L 211.746094 61.8125 Z M 205.140625 61.230469 L 204.269531 60.796875 L 205.683594 66.453125 L 210.285156 69.523438 L 210.847656 70.195313 L 215.726563 73.65625 L 215.90625 72.429688 L 211.035156 67.496094 L 205.589844 62.285156 Z M 205.5625 84.183594 L 204.402344 83.601563 L 204.191406 83.972656 L 205.351563 84.550781 Z M 206.511719 78.5 L 205.351563 77.917969 L 205.140625 78.285156 L 206.296875 78.867188 Z M 206.773438 38.125 L 206.296875 37.175781 L 205.824219 37.175781 L 205.613281 37.542969 Z M 207.324219 78.867188 L 206.296875 78.867188 L 206.773438 79.8125 L 207.816406 80.335938 Z M 208.921875 38.976563 L 207.007813 38.125 L 206.667969 38.859375 L 207.71875 40.019531 L 210.863281 42.699219 L 216.894531 50.128906 L 221.34375 54.496094 L 226.953125 57.878906 L 232.660156 61.644531 L 237.773438 65.714844 L 239.035156 66.167969 L 238.621094 65.339844 L 234.25 61.335938 L 233.300781 59.441406 L 229.039063 55.652344 L 227.144531 52.808594 L 223.722656 49.753906 L 220.695313 47.273438 L 212.734375 41.308594 L 211.746094 40.492188 Z M 218.339844 96.050781 L 221.085938 97.882813 L 220.601563 96.613281 L 218.414063 93.902344 L 212.007813 89.054688 L 211.667969 88.183594 L 210.761719 87.519531 L 207.625 85.355469 L 208.535156 86.722656 L 211.308594 89.640625 Z M 208.921875 80.671875 L 207.652344 80.1875 L 208.535156 81.511719 L 212.351563 86.234375 L 213.40625 87.394531 L 216.539063 90.085938 L 219.351563 93.660156 L 222.644531 96.394531 L 223.566406 97.238281 L 231.152344 103.589844 L 232.445313 104.085938 L 227.617188 98.289063 L 221.695313 91.65625 L 211.1875 82.363281 Z M 209.351563 91.761719 L 208.195313 91.183594 L 208.667969 92.132813 L 209.140625 92.132813 Z M 210.089844 93.078125 L 209.613281 92.132813 L 209.140625 92.132813 L 209.613281 93.078125 Z M 218.84375 66.007813 L 221.828125 65.390625 L 221.566406 64.863281 L 213.074219 55.367188 L 211.984375 54.230469 L 209.867188 52.253906 L 205.921875 52.613281 L 205.457031 53.546875 L 208.375 57.226563 L 216.351563 64.863281 L 217.230469 66.617188 Z M 211.292969 93.460938 L 210.042969 92.984375 L 210.457031 93.8125 L 216.460938 99.816406 L 217.332031 100.253906 L 216.828125 98.5 L 214.019531 95.636719 Z M 212.195313 34.914063 L 211.035156 34.332031 L 210.824219 34.699219 L 211.984375 35.28125 Z M 211.035156 86.917969 L 211.511719 86.917969 L 211.511719 86.445313 L 211.035156 86.445313 Z M 235.414063 72.800781 L 236.710938 73.289063 L 232.03125 67.679688 L 229.039063 65.128906 L 227.144531 62.285156 L 222.238281 57.378906 L 219.792969 55.585938 L 216.035156 53.863281 L 214.574219 53.367188 L 211.597656 52.445313 L 213.40625 54.703125 L 216.246094 57.546875 L 220.511719 61.8125 L 222.40625 64.652344 L 225.175781 67.269531 L 228.789063 68.996094 L 230.714844 69.769531 Z M 212.667969 78.972656 L 211.511719 78.390625 L 211.984375 79.339844 L 212.457031 79.339844 Z M 245.359375 66.648438 L 246.613281 67.117188 L 246.199219 66.285156 L 242.304688 62.757813 L 241.355469 60.863281 L 237.09375 57.074219 L 234.25 53.285156 L 231.621094 51.019531 L 225.746094 46.414063 L 225.40625 45.546875 L 224.300781 44.992188 L 218.449219 40.324219 L 213.667969 36.121094 L 211.984375 35.28125 L 212.351563 36.015625 L 216.722656 40.019531 L 217.667969 41.914063 L 223.355469 47.125 L 224.300781 48.070313 L 224.773438 48.546875 L 226.472656 50.308594 L 232.355469 55.179688 L 238.214844 60.074219 Z M 211.984375 87.867188 L 212.457031 87.867188 L 212.457031 87.394531 L 211.984375 87.394531 Z M 213.40625 80.289063 L 212.929688 79.339844 L 212.457031 79.339844 L 212.246094 79.707031 Z M 234.476563 100.734375 L 236.699219 101.765625 L 236.25 100.871094 L 233.300781 98.289063 L 232.355469 97.105469 L 225.945313 89.84375 L 221.71875 86.339844 L 220.816406 85.664063 L 216.996094 82.527344 L 213.335938 80.1875 L 215.167969 82.933594 L 217.015625 84.394531 L 221.21875 89.734375 L 221.742188 90.09375 L 230.648438 97.015625 L 233.539063 99.710938 Z M 214.5625 83.234375 L 213.40625 82.65625 L 213.191406 83.023438 L 214.351563 83.601563 Z M 215.300781 84.550781 L 214.828125 83.601563 L 214.351563 83.601563 L 214.140625 83.972656 Z M 218.355469 43.441406 L 217.195313 42.859375 L 217.667969 43.808594 L 218.140625 43.808594 Z M 218.140625 44.28125 L 218.617188 44.28125 L 218.617188 43.808594 L 218.140625 43.808594 Z M 232.457031 88.613281 L 219.976563 80.8125 L 220.40625 81.96875 L 224.59375 85.820313 L 227.394531 89.214844 L 233.515625 94.132813 L 234.417969 94.804688 L 240.15625 98.847656 L 242.085938 99.613281 L 244.910156 101.605469 L 246.648438 102.183594 L 245.003906 99.996094 L 244.355469 99.078125 L 243.480469 98.707031 L 241.355469 95.683594 L 239.460938 93.789063 L 237.816406 91.730469 L 236.933594 91.339844 L 236.382813 90.234375 L 233.777344 89.289063 Z M 220.984375 85.023438 L 221.457031 85.023438 L 221.457031 84.550781 L 220.984375 84.550781 Z M 221.933594 98.761719 L 221.457031 97.816406 L 220.984375 97.816406 L 220.773438 98.183594 Z M 221.933594 66.074219 L 222.40625 66.074219 L 222.40625 65.601563 L 221.933594 65.601563 Z M 221.933594 85.5 L 222.40625 85.5 L 222.40625 85.023438 L 221.933594 85.023438 Z M 225.722656 58.96875 L 225.25 58.019531 L 224.773438 58.019531 L 224.5625 58.386719 Z M 225.722656 100.660156 L 225.25 99.710938 L 224.773438 99.710938 L 225.25 100.660156 Z M 226.882813 42.964844 L 225.722656 42.386719 L 225.722656 43.335938 L 226.671875 43.335938 Z M 225.722656 45.230469 L 226.195313 45.230469 L 226.195313 44.753906 L 225.722656 44.753906 Z M 227.386719 59.382813 L 225.605469 58.851563 L 226.089844 60.175781 L 229.988281 63.707031 L 232.828125 67.496094 L 234.011719 68.441406 L 234.566406 69.546875 L 235.4375 69.890625 L 240.171875 75.523438 L 241.039063 75.867188 L 241.488281 76.773438 L 247.296875 80.25 L 248.027344 79.105469 L 247.621094 74.8125 L 242.777344 70.8125 L 237.851563 66.878906 L 235.433594 65.128906 L 234.480469 64.710938 Z M 226.929688 101.035156 L 225.65625 100.558594 L 226.671875 102.078125 L 229.679688 105.089844 L 235.847656 110.289063 L 242.992188 116.863281 L 244.339844 117.367188 L 237.726563 109.835938 L 235.433594 108.238281 L 233.027344 106.476563 Z M 229.316406 45.097656 L 226.570313 43.265625 L 227.039063 44.542969 L 232.59375 49.96875 L 233.066406 50.914063 L 242.011719 58.175781 L 245.359375 60.96875 L 246.09375 61.335938 L 245.25 58.234375 L 237.394531 52.175781 Z M 252.46875 120.652344 L 253.753906 121.136719 L 250.972656 117.429688 L 245.546875 111.304688 L 244.671875 110.132813 L 240.539063 106.066406 L 236.890625 103.375 L 234.011719 101.605469 L 233.703125 100.882813 L 229.789063 97.683594 L 227.144531 95.921875 L 227.984375 97.605469 L 229.039063 98.761719 L 230.222656 99.710938 L 239.136719 109.371094 L 240.6875 110.949219 L 247.515625 116.765625 Z M 227.101563 76.730469 L 226.59375 80.535156 L 233.460938 83.429688 L 240.171875 85.007813 L 245.210938 83.734375 L 244.777344 82.867188 L 239.722656 79.707031 L 235.933594 77.8125 L 232.601563 75.949219 L 228.800781 75.058594 L 227.777344 75.707031 Z M 231.40625 56.597656 L 231.882813 56.597656 L 231.882813 56.125 L 231.40625 56.125 Z M 231.40625 94.5 L 231.882813 94.5 L 231.882813 94.027344 L 231.40625 94.027344 Z M 233.515625 57.652344 L 232.355469 57.074219 L 232.828125 58.019531 L 233.300781 58.019531 Z M 233.300781 104.921875 L 232.828125 103.976563 L 232.355469 103.976563 L 232.828125 104.921875 Z M 233.554688 95.363281 L 232.230469 94.851563 L 242.617188 106.644531 L 246.765625 109.792969 L 250.832031 112.503906 L 256.726563 116.871094 L 261.472656 119.703125 L 262.761719 120.191406 L 260.78125 117.714844 L 256.992188 113.214844 L 256.042969 112.027344 L 252.253906 108.710938 L 249.636719 105.796875 L 248.15625 105.089844 L 242.980469 102.199219 L 238.988281 99.472656 L 236.015625 97.066406 Z M 234.460938 58.601563 L 233.300781 58.019531 L 233.089844 58.386719 L 234.25 58.96875 Z M 233.300781 105.394531 L 233.777344 105.394531 L 233.777344 104.921875 L 233.300781 104.921875 Z M 235.457031 59.339844 L 234.164063 58.859375 L 236.144531 61.335938 L 239.933594 65.128906 L 243.25 68.441406 L 246.285156 72.375 L 248.179688 73.796875 L 247.710938 69.523438 L 244.671875 67.496094 L 243.488281 66.546875 L 242.5 65.730469 Z M 236.617188 73.65625 L 237.09375 73.65625 L 237.09375 73.179688 L 236.617188 73.179688 Z M 239.933594 67.023438 L 239.460938 66.074219 L 238.988281 66.074219 L 238.777344 66.441406 Z M 240.410156 58.496094 L 239.933594 57.546875 L 239.460938 57.546875 L 239.933594 58.496094 Z M 244.199219 93.316406 L 238.894531 91.546875 L 241.832031 94.972656 L 247.042969 100.183594 L 247.988281 102.078125 L 250.359375 104.210938 L 252.253906 105.160156 L 255.324219 106.402344 L 258.972656 107.3125 L 258.5 106.089844 L 256.792969 103.84375 L 253.675781 101.132813 L 251.777344 98.289063 L 248.9375 95.921875 L 247.777344 94.132813 Z M 241.566406 59.074219 L 240.410156 58.496094 L 240.882813 59.441406 L 241.355469 59.441406 Z M 241.566406 68.074219 L 240.410156 67.496094 L 240.882813 68.441406 L 241.355469 68.441406 Z M 242.304688 60.863281 L 247.160156 65.71875 L 246.226563 62.957031 L 243.039063 60.285156 L 241.355469 59.441406 Z M 245.144531 118.1875 L 244.671875 117.238281 L 244.199219 117.238281 L 244.671875 118.1875 Z M 245.832031 116.398438 L 244.671875 115.820313 L 245.144531 116.765625 L 245.621094 116.765625 Z M 245.144531 118.660156 L 245.621094 118.660156 L 245.621094 118.1875 L 245.144531 118.1875 Z M 263.148438 133.347656 L 266.128906 135.410156 L 265.609375 134.039063 L 263.433594 131.308594 L 258.082031 125.957031 L 251.070313 120.574219 L 247.785156 118.0625 L 245.566406 116.6875 L 246.566406 118.1875 L 248.460938 120.082031 L 251.070313 122.925781 L 251.550781 123.808594 L 261.429688 131.613281 Z M 247.515625 67.96875 L 247.042969 67.023438 L 246.566406 67.023438 L 247.042969 67.96875 Z M 246.566406 102.554688 L 247.042969 102.554688 L 247.042969 102.078125 L 246.566406 102.078125 Z M 249.191406 112.890625 L 247.902344 112.394531 L 251.632813 117.054688 L 254.003906 119.417969 L 258.886719 125.199219 L 263.441406 128.929688 L 272.726563 134.984375 L 278.152344 138.085938 L 278.507813 137.269531 L 277.203125 136.820313 L 276.652344 135.714844 L 268.191406 126.074219 L 265.683594 123.566406 L 259.113281 120.140625 Z M 250.226563 94.222656 L 249.882813 95.210938 L 250.988281 95.761719 L 251.542969 96.867188 L 254.621094 99.710938 L 255.675781 100.871094 L 260.976563 107.425781 L 265.214844 107.929688 L 263.316406 105.089844 L 257.9375 99.710938 L 256.992188 97.816406 L 254.988281 96.183594 L 254.0625 94.328125 L 251.539063 94.050781 Z M 254.621094 121.976563 L 254.148438 121.03125 L 253.675781 121.03125 L 253.460938 121.398438 Z M 254.929688 61.167969 L 254.148438 60.390625 L 254.160156 61.101563 L 254.917969 63.550781 L 261.253906 71.285156 L 263.804688 74.28125 L 266.613281 76.621094 L 265.832031 73.496094 L 264.265625 71.925781 Z M 255.09375 108.238281 L 253.605469 107.664063 L 255.4375 110.410156 L 257.9375 112.503906 L 258.886719 113.6875 L 261.4375 117.386719 L 266.074219 121.726563 L 271.90625 124.289063 L 274.648438 124.972656 L 274.136719 123.617188 L 272.625 121.742188 L 271.601563 120.78125 L 264.496094 112.726563 L 263.40625 111.460938 L 256.515625 109.1875 Z M 254.621094 122.453125 L 255.09375 122.453125 L 255.09375 121.976563 L 254.621094 121.976563 Z M 265.703125 80.910156 L 268.070313 82.800781 L 267.496094 79.5625 L 265.519531 77.917969 L 264.570313 76.734375 L 257.753906 68.296875 L 255.570313 66.546875 L 255.636719 66.796875 L 256.230469 69.535156 L 258.75 72.988281 Z M 255.789063 92.042969 L 254.285156 93.269531 L 258.292969 98.171875 L 261.253906 101.132813 L 266.042969 106.878906 L 267.828125 106.285156 L 268.328125 104.683594 L 262.441406 97.855469 L 261.851563 97.546875 L 256.878906 91.617188 Z M 258.214844 73.523438 L 256.828125 72.597656 L 257.40625 75.320313 L 258.175781 76.496094 L 262.054688 80.574219 L 268.042969 87.5 L 269.449219 88.4375 L 268.753906 85.65625 L 267.175781 84.078125 L 266.625 82.972656 L 265.746094 82.597656 L 263.433594 79.199219 L 260.304688 76.496094 Z M 261.726563 81.707031 L 257.769531 77.75 L 258.335938 81.484375 L 266.609375 90.425781 L 269.308594 94.027344 L 270.4375 94.589844 L 269.871094 90.929688 L 267.886719 89.289063 L 266.9375 87.394531 L 264.570313 85.5 L 263.621094 83.601563 Z M 258.671875 83.023438 L 257.738281 82.554688 L 258.304688 87.179688 L 262.484375 91.042969 L 264.570313 93.789063 L 265.519531 94.738281 L 269.542969 99.710938 L 270.441406 99.710938 L 269.886719 95.660156 L 265.707031 91.800781 L 263.621094 89.050781 L 262.675781 88.105469 Z M 257.871094 88.273438 L 257.027344 90.476563 L 257.9375 91.421875 L 268.121094 103.066406 L 269.542969 103.5 L 270.101563 101.898438 L 267.257813 98.582031 L 266.625 97.65625 L 265.746094 97.285156 L 263.433594 93.882813 L 260.78125 91.183594 Z M 262.675781 120.554688 L 263.148438 120.554688 L 263.148438 120.082031 L 262.675781 120.082031 Z M 265.519531 131.925781 L 265.042969 130.980469 L 264.570313 130.980469 L 265.042969 131.925781 Z M 265.042969 71.285156 L 265.519531 71.285156 L 265.519531 70.8125 L 265.042969 70.8125 Z M 265.78125 111.449219 L 264.429688 110.953125 L 272.78125 120.734375 L 273.570313 121.742188 L 274.519531 122.925781 L 276.625 124.925781 L 279.023438 125.730469 L 280.578125 125.089844 L 279.835938 123.609375 L 276.886719 121.03125 L 275.941406 119.84375 L 269.089844 111.464844 L 267.175781 111.109375 Z M 272.34375 136.328125 L 265.382813 131.757813 L 265.886719 133.136719 L 267.648438 134.769531 L 268.203125 135.875 L 269.074219 136.222656 L 272.84375 140.835938 L 274.714844 142.480469 L 283.246094 148.632813 L 289.417969 152.871094 L 292.652344 154.351563 L 292.152344 152.984375 L 289.207031 150.402344 L 288.257813 149.21875 L 285.703125 145.515625 L 281.863281 141.875 L 278.050781 140.078125 Z M 265.992188 135.714844 L 266.464844 135.714844 L 266.464844 135.242188 L 265.992188 135.242188 Z M 272.4375 80.613281 L 270.105469 78.746094 L 270.839844 81.679688 L 276.570313 88.519531 L 281.367188 94.121094 L 282.722656 94.628906 L 282.09375 91.894531 Z M 271.445313 126.183594 L 269.214844 125.625 L 270.125 126.992188 L 279.40625 136.847656 L 280.203125 137.847656 L 281.019531 139.230469 L 285.15625 141.027344 L 289.441406 142.347656 L 290.230469 142.347656 L 289.785156 141.140625 L 286.503906 137.800781 L 281.625 131.925781 L 279.039063 128.988281 L 275.699219 128.183594 Z M 272.414063 84.917969 L 271.542969 84.484375 L 272.152344 87.15625 L 273.335938 89.289063 L 274.757813 90.710938 L 283.214844 100.351563 L 284.054688 101.191406 L 283.152344 97.082031 L 279.871094 93.742188 L 274.992188 87.867188 Z M 273.570313 111.082031 L 272.390625 109.234375 L 270.175781 110.292969 L 269.859375 110.921875 L 271.675781 112.503906 L 272.46875 114.21875 L 282.285156 124.835938 L 283.304688 124.441406 L 284.433594 123.164063 L 284.101563 122.1875 L 281.152344 119.609375 L 280.203125 118.425781 L 278.078125 115.402344 L 277.203125 115.027344 L 276.652344 113.921875 Z M 272.769531 90.34375 L 273.570313 93.789063 L 274.371094 94.789063 L 283.230469 104.597656 L 285.414063 106.34375 L 284.550781 103.25 L 279.074219 96.71875 L 274.757813 92.605469 L 274.328125 91.515625 Z M 274.308594 95.816406 L 273.65625 95.492188 L 274.4375 99.964844 L 274.992188 100.660156 L 275.808594 101.410156 L 284.664063 111.210938 L 286.082031 112.15625 L 285.519531 108.449219 L 283.519531 106.816406 L 282.574219 104.921875 L 279.433594 102.238281 Z M 274.308594 106.238281 L 273.667969 105.917969 L 272.667969 108.007813 L 282.574219 119.371094 L 283.710938 120.699219 L 285.242188 121.847656 L 285.902344 120.792969 L 285.519531 118.875 L 281.339844 115.011719 L 279.257813 112.265625 L 278.308594 111.316406 Z M 274.78125 101.5 L 273.851563 101.035156 L 274.441406 105.171875 L 277.074219 108.386719 L 280.203125 111.082031 L 281.152344 112.265625 L 283.707031 115.964844 L 285.703125 117.566406 L 286.363281 116.054688 L 285.964844 114.148438 L 284.730469 112.609375 L 283.835938 112.1875 L 283.285156 111.082031 Z M 274.992188 125.292969 L 275.464844 125.292969 L 275.464844 124.820313 L 274.992188 124.820313 Z M 282.574219 95.449219 L 283.046875 95.449219 L 283.046875 94.972656 L 282.574219 94.972656 Z M 283.996094 101.605469 L 284.46875 101.605469 L 284.46875 101.132813 L 283.996094 101.132813 Z M 284.730469 129.453125 L 280.582031 128.890625 L 281.519531 130.765625 L 285.703125 134.621094 L 288.441406 138.707031 L 292.273438 142.425781 L 295.441406 142.03125 L 294.523438 140.191406 L 292.523438 138.558594 L 291.574219 137.375 L 288.078125 132.71875 Z M 286.835938 143.769531 L 284.863281 143.191406 L 286.222656 145 L 290.382813 149.871094 L 291.257813 150.246094 L 291.8125 151.351563 L 294.890625 154.191406 L 295.839844 155.378906 L 296.5625 156.636719 L 300.800781 158.527344 L 305.875 159.898438 L 305.40625 158.675781 L 297.59375 150.683594 L 293.941406 145.902344 L 291.101563 145.429688 Z M 290.335938 101.757813 L 287.074219 97.34375 L 286.285156 97.34375 L 287.261719 100.425781 L 289.394531 103.167969 L 292.523438 105.871094 L 294.601563 108.859375 L 296.953125 110.742188 L 296.371094 107.992188 L 294.695313 105.738281 Z M 288.5625 103.332031 L 287.726563 102.496094 L 288.625 106.605469 L 291.90625 109.945313 L 296.964844 115.9375 L 298.402344 116.898438 L 297.375 113.183594 Z M 287.953125 126.882813 L 285.875 128.371094 L 286.257813 129.820313 L 288.457031 132.058594 L 292.890625 137.398438 L 293.941406 138.558594 L 296.546875 140.964844 L 298.113281 140.597656 L 299.058594 139.175781 L 296.785156 137.136719 L 295.839844 135.953125 L 292.34375 131.296875 L 288.730469 127.664063 Z M 296.019531 119.289063 L 299.335938 122.132813 L 298.785156 119.347656 L 290.519531 110.394531 L 289.679688 108.710938 L 288.902344 108.324219 L 289.601563 111.804688 L 294.964844 117.960938 Z M 289.941406 123.765625 L 289.417969 123.503906 L 288.777344 125.527344 L 289.082031 126.511719 L 298.847656 137.304688 L 299.535156 137.992188 L 300.113281 135.480469 L 291.347656 125.691406 Z M 290.625 114.398438 L 289.679688 113.449219 L 289.679688 114.632813 L 290.421875 117.835938 L 291.34375 118.246094 L 293.46875 120.792969 L 295.363281 123.398438 L 300.269531 128.304688 L 299.703125 124.570313 L 294.707031 118.507813 Z M 292.335938 120.882813 L 290.339844 119.28125 L 289.839844 122.152344 L 297.886719 131.632813 L 299.351563 133.480469 L 300.574219 134.296875 L 300.785156 130.140625 L 299.46875 129.714844 L 298.917969 128.609375 L 295.839844 125.765625 L 294.890625 124.582031 Z M 292.292969 154.601563 L 294.0625 155.257813 L 292.996094 154.191406 L 292.523438 154.191406 Z M 298.207031 117.238281 L 298.679688 117.238281 L 298.679688 116.765625 L 298.207031 116.765625 Z M 297.96875 145.683594 L 295.9375 146.351563 L 298.816406 150.121094 L 299.46875 151.035156 L 300.339844 151.382813 L 307.386719 160.03125 L 307.761719 160.195313 L 311.0625 159.535156 L 310.15625 157.722656 L 307.917969 155.613281 L 299.417969 146.03125 Z M 299.15625 122.925781 L 299.628906 122.925781 L 299.628906 122.453125 L 299.15625 122.453125 Z M 300.101563 128.609375 L 300.574219 128.609375 L 300.574219 128.136719 L 300.101563 128.136719 Z M 301.3125 113.34375 L 300.441406 112.910156 L 301.191406 115.914063 L 308.78125 124.527344 L 310.261719 126.347656 L 311 126.714844 L 310.980469 126.003906 L 310.230469 122.769531 L 308.011719 121.21875 L 302.578125 114.609375 Z M 302.734375 119.027344 L 301.863281 118.59375 L 302.886719 122.695313 L 305.550781 125.292969 L 306.101563 126.398438 L 306.972656 126.75 L 310.714844 131.59375 L 312.609375 133.015625 L 312.023438 129.78125 L 310.523438 127.898438 L 309.410156 126.882813 Z M 302.902344 143.230469 L 301.734375 143.664063 L 300.574219 144.953125 L 301.523438 146.847656 L 303.890625 148.980469 L 304.839844 150.875 L 307.683594 153.246094 L 309.578125 156.085938 L 312.183594 158.457031 L 313.886719 157.605469 L 314.316406 156.324219 L 310.703125 152.925781 L 304.707031 145.941406 Z M 311.65625 136.8125 L 314.011719 138.695313 L 313.4375 135.941406 L 306.574219 127.960938 L 303.679688 124.714844 L 302.945313 124.347656 L 303.011719 124.59375 L 303.742188 127.375 L 306.015625 130.449219 L 306.890625 130.820313 L 307.445313 131.925781 L 310.523438 134.769531 Z M 305.597656 131.308594 L 303.710938 129.894531 L 304.269531 133.253906 L 306.261719 135.242188 L 309.578125 138.558594 L 310.523438 139.742188 L 312.605469 142.96875 L 314.972656 144.867188 L 314.421875 141.140625 Z M 304.628906 140.820313 L 303.511719 140.40625 L 302.945313 142.113281 L 305.171875 144.527344 L 308.75 148.710938 L 309.34375 149.019531 L 312.605469 153.394531 L 314.691406 155.0625 L 315.300781 152.53125 L 311.472656 148.980469 L 310.523438 147.796875 L 307.972656 144.097656 Z M 305.589844 136.058594 L 304.367188 135.242188 L 304.367188 137.613281 L 303.417969 137.613281 L 305.460938 140.164063 L 306.101563 141.085938 L 306.976563 141.449219 L 309.707031 144.441406 L 311.472656 147.085938 L 315.429688 151.042969 L 314.855469 146.367188 L 313.839844 145.191406 L 311.183594 142.96875 L 306.839844 137.347656 Z M 309.578125 121.503906 L 310.050781 121.503906 L 310.050781 121.03125 L 309.578125 121.03125 Z M 313.839844 139.03125 L 314.316406 139.03125 L 314.316406 138.558594 L 313.839844 138.558594 Z M 318.578125 163.667969 L 319.050781 163.667969 L 319.050781 163.195313 L 318.578125 163.195313 Z M 323.199219 141.28125 L 328.210938 146.296875 L 327.636719 144 L 325.683594 141.164063 L 324.738281 139.980469 L 323.601563 138.890625 L 322 137.691406 Z M 324.261719 143.769531 L 323.316406 142.824219 L 324.15625 145.925781 L 329.6875 151.457031 L 330.578125 151.902344 L 330.054688 149.667969 Z M 328.054688 146.613281 L 328.527344 146.613281 L 328.527344 146.140625 L 328.054688 146.140625 Z M 331.582031 152.402344 L 330.421875 151.824219 L 330.894531 152.773438 L 331.371094 152.773438 Z M 331.582031 152.402344 "/>
</g>
</svg>
