<?xml version="1.0" encoding="UTF-8"?>
<svg xmlns="http://www.w3.org/2000/svg" xmlns:xlink="http://www.w3.org/1999/xlink" width="360pt" height="239pt" viewBox="0 0 360 239" version="1.1">
<g id="surface205">
<path style=" stroke:none;fill-rule:evenodd;fill:rgb(99.998474%,99.998474%,99.998474%);fill-opacity:1;" d="M 20.582031 218.164063 L 22.558594 217.289063 L 23.117188 218.925781 L 22.476563 219.566406 L 10.3125 228.382813 L 9.023438 230.199219 L 8.644531 230.957031 L 10.3125 229.847656 L 11.816406 229.003906 L 13.039063 228.027344 L 14.992188 226.074219 L 16.941406 225.101563 L 18.894531 223.148438 L 20.105469 222.246094 L 22.539063 220.617188 L 23.535156 220.21875 L 23.992188 222.539063 L 22.070313 223.148438 L 21.050781 223.988281 L 16.210938 227.539063 L 14.855469 228.71875 L 13.039063 231.445313 L 13.796875 231.066406 L 23.777344 223.390625 L 24.753906 223.390625 L 28.023438 219.925781 L 34.757813 214.800781 L 35.683594 214.023438 L 38.125 215.976563 L 40.136719 217.242188 L 49.160156 208.257813 L 49.621094 207.285156 L 49.289063 206.269531 L 56.214844 200.800781 L 57.214844 199.714844 L 58.191406 199.226563 L 59.667969 199.636719 L 61.097656 200.582031 L 61.855469 200.203125 L 62.597656 199.636719 L 64.363281 197.527344 L 64.496094 196.652344 L 62.9375 195.59375 L 63.210938 195.050781 L 66.492188 192.882813 L 67.710938 191.90625 L 69.664063 189.953125 L 75.523438 185.558594 L 77.476563 187.511719 L 78.234375 187.890625 L 79.210938 186.425781 L 80.171875 185.96875 L 81.695313 183.921875 L 80.890625 183.117188 L 79.914063 182.386719 L 80.757813 180.882813 L 87.476563 175.746094 L 88.457031 174.820313 L 89.191406 174.820313 L 91.144531 176.773438 L 93.882813 174.488281 L 94.9375 173.136719 L 94.667969 172.597656 L 93.585938 171.644531 L 93.964844 170.644531 L 95.046875 169.449219 L 96.78125 168.363281 L 105.03125 161.75 L 106.03125 160.699219 L 107.035156 161.042969 L 107.984375 162.128906 L 109.449219 161.640625 L 110.074219 160.445313 L 111.410156 159.628906 L 115.792969 154.347656 L 116.746094 153.9375 L 118.308594 151.703125 L 117.625 151.023438 L 118.480469 149.921875 L 122.386719 146.996094 L 126.289063 142.601563 L 138.007813 131.863281 L 150.699219 119.167969 L 161.4375 107.453125 L 165.34375 104.035156 L 170.226563 98.179688 L 173.886719 94.761719 L 174.507813 93.566406 L 175.863281 92.699219 L 178.035156 90.125 L 178.792969 88.792969 L 179.75 88.355469 L 181.941406 85.242188 L 183.894531 83.046875 L 185.066406 82.117188 L 187.625 83.847656 L 189.75 85.972656 L 193.851563 89.050781 L 201.671875 94.898438 L 202.675781 95.660156 L 203.691406 96.117188 L 207.054688 97.800781 L 208.078125 98.566406 L 212.433594 100.535156 L 216.355469 101.605469 L 219.800781 101.214844 L 221.742188 101.199219 L 225.109375 98.789063 L 227.023438 95.078125 L 227.65625 94.445313 L 228.804688 95.25 L 232.710938 99.15625 L 254.1875 121.121094 L 264.929688 130.886719 L 271.761719 138.207031 L 275.667969 141.136719 L 280.550781 146.507813 L 283.476563 148.457031 L 285.429688 150.898438 L 288.359375 152.851563 L 293.242188 157.734375 L 294.460938 158.710938 L 299.832031 162.617188 L 300.878906 163.765625 L 303.808594 165.71875 L 304.726563 166.445313 L 313.570313 172.695313 L 315.933594 173.785156 L 317.414063 174.265625 L 320.824219 175.265625 L 323.777344 174.929688 L 324.726563 173.84375 L 325.476563 171.648438 L 325.214844 167.007813 L 325.144531 164.742188 L 326.121094 165.71875 L 326.761719 166.195313 L 327.175781 166.949219 L 343.1875 184.773438 L 344.144531 185.761719 L 345.960938 188.488281 L 347.074219 189.75 L 350.585938 191.496094 L 351.574219 191.90625 L 351.820313 191.660156 L 350.84375 190.683594 L 348.695313 187.851563 L 345.363281 184.851563 L 344.863281 183.484375 L 346.402344 183.996094 L 347.425781 186.046875 L 348.429688 186.046875 L 344.839844 181.457031 L 344.171875 180.515625 L 343.269531 180.128906 L 341.082031 177.503906 L 333.207031 168.726563 L 332.160156 165.945313 L 333.757813 167.007813 L 336.6875 170.914063 L 339.617188 173.355469 L 338.75 171.621094 L 336.6875 169.9375 L 334.734375 167.253906 L 332.546875 164.628906 L 331.644531 164.242188 L 331.074219 163.105469 L 328.875 161.152344 L 327.898438 159.929688 L 325.269531 156.117188 L 321.554688 152.609375 L 320.496094 149.203125 L 318.867188 144.59375 L 310.816406 136.253906 L 309.636719 135.144531 L 308.519531 134.398438 L 309.007813 136.351563 L 307.601563 135.414063 L 306.3125 134.082031 L 300.871094 126.816406 L 299.046875 123.800781 L 297.878906 120.632813 L 295.464844 118.082031 L 294.328125 117.660156 L 294.867188 119.820313 L 293.902344 118.855469 L 288.738281 112.605469 L 286.894531 110.625 L 284.882813 107.703125 L 283.964844 104.035156 L 280.550781 101.105469 L 280.355469 102.425781 L 278.792969 101.253906 L 271.667969 92.09375 L 271.015625 91.753906 L 269.242188 89.136719 L 268.097656 85.527344 L 264.804688 82.191406 L 264.074219 82.921875 L 262.488281 81.582031 L 261.402344 80.386719 L 256.628906 73.769531 L 254.441406 71.390625 L 253.480469 70.949219 L 252.308594 67.191406 L 250.457031 65.15625 L 242.472656 57.171875 L 241.902344 57.171875 L 242.472656 59.125 L 243.203125 60.589844 L 243.230469 62.433594 L 242.472656 62.054688 L 230.757813 50.339844 L 219.039063 38.625 L 211.230469 31.789063 L 203.417969 23.488281 L 198.539063 19.585938 L 193.65625 14.214844 L 190.726563 12.261719 L 185.601563 6.894531 L 184.136719 7.34375 L 181.722656 10.90625 L 180.207031 11.664063 L 171.992188 21.699219 L 168.894531 24.75 L 165.722656 28.589844 L 164.660156 29.203125 L 164.210938 30.625 L 163.03125 31.582031 L 156.863281 39.273438 L 156.3125 40.574219 L 154.847656 42.039063 L 151.015625 48.070313 L 147.226563 54.480469 L 146.25 59.363281 L 145.808594 66.691406 L 146.765625 70.597656 L 145.90625 76.472656 L 114.574219 107.453125 L 97.976563 125.027344 L 90.167969 132.347656 L 84.308594 139.183594 L 78.449219 144.554688 L 74.546875 149.433594 L 70.882813 152.851563 L 70.261719 154.046875 L 68.90625 154.914063 L 66.515625 158.332031 L 65 159.089844 L 60.660156 164.945313 L 59.542969 165.824219 L 49.46875 178.398438 L 49.0625 179.476563 L 45.398438 184.386719 L 42.707031 187.730469 L 39.769531 192.605469 L 39.261719 193.65625 L 37.691406 195.808594 L 35.570313 200.433594 L 35.132813 202.363281 L 33.785156 204.597656 L 25.949219 210.5625 L 24.753906 211.429688 L 22.800781 213.382813 L 21.050781 214.226563 L 14.816406 218.925781 L 12.867188 220.878906 L 11.085938 222.660156 L 7.179688 228.515625 L 11.28125 225.441406 L 13.804688 223.761719 Z M 27.925781 212.40625 L 26.707031 213.628906 L 27.195313 215.824219 L 27.4375 215.824219 L 31.34375 212.894531 L 32.320313 211.917969 L 33.378906 211.269531 L 34.027344 210.210938 L 33.628906 208.363281 L 29.839844 210.8125 Z M 28.464844 215.972656 L 27.925781 216.3125 L 27.902344 218.648438 L 29.433594 217.914063 L 35.40625 213.207031 L 34.515625 211.429688 Z M 44.28125 195.320313 L 44.769531 195.320313 L 44.769531 194.832031 L 44.28125 194.832031 Z M 58.515625 179.957031 L 59.082031 178.101563 L 57.679688 178.621094 L 50.421875 184.71875 L 47.609375 186.761719 L 45.683594 190.675781 L 44.617188 194.945313 L 48.429688 191.90625 L 49.378906 191.039063 L 56.148438 185.75 L 57.191406 182.03125 Z M 55.261719 188.976563 L 55.335938 187.683594 L 54.777344 188.488281 L 53.800781 188.976563 L 52.847656 189.84375 L 46.015625 195.210938 L 44.230469 196.535156 L 44.585938 201.300781 L 46.234375 200.203125 L 48.183594 198.25 L 49.40625 197.273438 L 50.433594 196.449219 L 54.765625 193.308594 Z M 56.484375 196.054688 L 55.585938 193.804688 L 54.042969 194.832031 L 52.261719 196.613281 L 45.644531 201.402344 L 45.148438 203.078125 L 46.992188 204 L 48.917969 202.644531 L 49.90625 201.589844 L 54.679688 198.054688 Z M 55.996094 199.714844 L 57.867188 198.089844 L 57.410156 197.175781 L 55.25 198.164063 L 53.3125 199.714844 L 52.308594 200.582031 L 47.3125 204.804688 L 47.75 205.683594 L 49.417969 205.164063 L 50.625 204.351563 L 52.089844 202.644531 L 54.042969 201.667969 Z M 49.160156 184.09375 L 49.648438 184.09375 L 49.648438 183.605469 L 49.160156 183.605469 Z M 74.15625 156.535156 L 74.667969 155.171875 L 72.226563 156.636719 L 69.347656 159.515625 L 65.269531 162.492188 L 55.328125 174.984375 L 54.777344 176.285156 L 53.3125 177.75 L 49.585938 183.710938 L 50.894531 183.226563 L 52.089844 182.140625 L 54.042969 180.1875 L 55.777344 179.320313 L 60.632813 175.308594 L 62.210938 172.582031 L 66.246094 166.519531 L 69.066406 162.34375 Z M 58.925781 177.75 L 59.414063 177.75 L 59.414063 177.261719 L 58.925781 177.261719 Z M 65.015625 184.660156 L 71.941406 179.519531 L 72.347656 175.796875 L 72.375 173.953125 L 71.617188 174.332031 L 69.664063 176.285156 L 63.804688 180.675781 L 61.855469 182.628906 L 59.902344 183.605469 L 59.304688 184.3125 L 58.753906 189.640625 L 62.613281 187.132813 L 63.804688 185.558594 Z M 59.414063 183.117188 L 59.902344 183.117188 L 59.902344 182.628906 L 59.414063 182.628906 Z M 75.902344 165.273438 L 76.546875 163.980469 L 74.785156 164.519531 L 73.8125 165.542969 L 68.933594 169.449219 L 67.710938 170.425781 L 65.757813 172.378906 L 63.03125 174.195313 L 60.96875 178.464844 L 60.144531 181.652344 L 60.097656 182.484375 L 65.757813 178.238281 L 67.710938 176.285156 L 68.957031 175.417969 L 72.328125 172.769531 Z M 73.023438 182.378906 L 72.375 180.296875 L 71.617188 180.675781 L 69.664063 182.628906 L 68.445313 183.605469 L 63.5625 187.511719 L 62.585938 188.488281 L 61.121094 188.976563 L 59.792969 190.171875 L 59.523438 190.710938 L 60.632813 192.375 L 62.105469 191.957031 L 66.503906 188.410156 L 67.480469 187.433594 L 72.238281 183.890625 Z M 62.683594 192.101563 L 61.367188 193.859375 L 62.628906 194.699219 L 63.566406 193.90625 L 72.355469 187.070313 L 73.695313 185.835938 L 74.683594 184.058594 L 73.324219 183.605469 L 71.617188 185.558594 L 70.402344 186.582031 Z M 89.789063 143.847656 L 90.214844 142.992188 L 88.453125 143.53125 L 87.457031 144.445313 L 81.648438 149.542969 L 78.9375 151.386719 L 76.742188 153.828125 L 76.191406 155.128906 L 70.949219 161.800781 L 70.398438 163.105469 L 68.933594 164.566406 L 68.445313 166.03125 L 66.980469 167.496094 L 66.367188 168.75 L 64.660156 171.523438 L 66.023438 171.011719 L 71.835938 165.921875 L 73.339844 164.980469 L 77.804688 161.453125 L 79.914063 157.976563 L 83.910156 152.136719 L 84.707031 150.148438 Z M 68.6875 158.222656 L 69.175781 158.222656 L 69.175781 157.734375 L 68.6875 157.734375 Z M 69.664063 157.734375 L 70.152344 157.734375 L 70.152344 157.246094 L 69.664063 157.246094 Z M 70.152344 157.246094 L 70.640625 157.246094 L 70.640625 156.757813 L 70.152344 156.757813 Z M 90.496094 136.929688 L 93.683594 133.210938 L 92.34375 133.722656 L 90.410156 135.277344 L 89.191406 136.253906 L 84.308594 141.136719 L 79.425781 146.75 L 76.265625 150.335938 L 74.925781 151.167969 L 74.300781 152.363281 L 71.019531 155.511719 L 70.5 156.933594 L 73.398438 154.976563 L 75.523438 152.851563 L 77.476563 151.875 L 79.78125 149.148438 L 83.667969 144.257813 L 88.941406 138.253906 L 89.839844 137.882813 Z M 85.308594 167.742188 L 85.875 163.476563 L 84.53125 163.976563 L 79.210938 168.582031 L 77.476563 169.449219 L 76.402344 170.648438 L 75.8125 175.449219 L 77.722656 174.855469 L 83.550781 169.828125 L 85.363281 168.730469 Z M 89.191406 155.050781 L 90.355469 152.695313 L 87.933594 154.191406 L 85.53125 156.269531 L 83.089844 158.222656 L 79.839844 160.917969 L 78.695313 163.105469 L 78.082031 164.84375 L 76.335938 169.097656 L 77.738281 168.570313 L 83.550781 163.484375 L 85.410156 162.40625 L 87.363281 158.5 L 88.445313 155.703125 Z M 76.457031 177.011719 L 77.003906 179.289063 L 78.222656 178.816406 L 80.023438 177.53125 L 81.378906 176.285156 L 83.332031 174.332031 L 85.285156 173.355469 L 85.882813 172.648438 L 86.382813 170.546875 L 85.457031 169.621094 L 79.195313 174.742188 L 77.476563 175.796875 Z M 78.847656 179.4375 L 78.289063 181.328125 L 80.175781 180.761719 L 82.113281 179.210938 L 83.113281 178.34375 L 88.109375 174.121094 L 87.617188 173.136719 L 86.691406 173.117188 L 81.648438 177.371094 Z M 80.890625 158.710938 L 81.378906 158.710938 L 81.378906 158.222656 L 80.890625 158.222656 Z M 81.378906 158.222656 L 81.867188 158.222656 L 81.867188 157.734375 L 81.378906 157.734375 Z M 81.867188 147.96875 L 82.355469 147.96875 L 82.355469 147.484375 L 81.867188 147.484375 Z M 81.867188 157.734375 L 82.355469 157.734375 L 82.355469 157.246094 L 81.867188 157.246094 Z M 105.410156 131.15625 L 105.835938 130.300781 L 104.550781 130.792969 L 100.28125 134.015625 L 98.953125 135.765625 L 97 136.742188 L 94.875 138.867188 L 90.964844 143.746094 L 88.839844 146.304688 L 84.675781 152.574219 L 84.171875 153.625 L 82.75 155.515625 L 82.21875 157.316406 L 84.089844 156.378906 L 89.363281 152.191406 L 91.316406 150.238281 L 94.746094 145.199219 L 99.574219 138.976563 L 102.246094 134.511719 Z M 82.84375 146.996094 L 83.332031 146.996094 L 83.332031 146.507813 L 82.84375 146.507813 Z M 83.332031 146.507813 L 84.308594 146.507813 L 84.308594 145.53125 L 83.820313 145.53125 Z M 108.230469 122.097656 L 109.273438 120.527344 L 107.960938 121.011719 L 106.765625 122.585938 L 105.542969 123.5625 L 100.664063 127.46875 L 95.046875 133.082031 L 91.902344 136.851563 L 90.386719 137.609375 L 87.976563 141.078125 L 87.019531 141.515625 L 85.167969 143.792969 L 84.113281 145.675781 L 85.546875 145.132813 L 90.898438 140.648438 L 93.585938 138.695313 L 95.046875 136.988281 L 98.953125 132.105469 L 99.691406 131.800781 L 102.078125 128.296875 L 105.300781 125.027344 Z M 101.902344 153.585938 L 102.253906 150 L 99.441406 151.875 L 96.6875 154.632813 L 89.914063 159.617188 L 89.171875 161.394531 L 89.511719 165.167969 L 91.144531 164.078125 L 93.097656 162.128906 L 94.316406 161.152344 L 99.199219 157.246094 L 100.175781 156.269531 L 102.019531 155.578125 Z M 90.167969 142.601563 L 90.65625 142.601563 L 90.65625 142.113281 L 90.167969 142.113281 Z M 101.664063 149.324219 L 102.75 148.242188 L 103.726563 145.800781 L 104.078125 144.066406 L 105.378906 141.882813 L 105.925781 140.089844 L 104.8125 140.648438 L 102.859375 142.601563 L 101.644531 143.625 L 94.238281 149.128906 L 92.363281 151.875 L 91.144531 154.804688 L 89.972656 158.320313 L 91.144531 157.734375 L 93.097656 155.78125 L 94.832031 154.695313 Z M 103.835938 157.976563 L 102.769531 155.847656 L 96.804688 160.320313 L 96.269531 160.664063 L 95.28125 161.714844 L 90.519531 165.257813 L 89.8125 166.316406 L 90.363281 168.132813 L 91.316406 168.15625 L 92.855469 167.058594 L 101.644531 160.222656 L 102.859375 159.199219 Z M 105.410156 160.445313 L 105.84375 159.578125 L 104.042969 159.128906 L 98.78125 163.277344 L 97 165.054688 L 95.78125 166.03125 L 92.476563 168.191406 L 91.492188 169.972656 L 92.851563 170.40625 L 99.125 165.371094 L 100.90625 163.589844 L 102.125 162.617188 Z M 93.585938 133.324219 L 94.070313 133.324219 L 94.070313 132.835938 L 93.585938 132.835938 Z M 94.558594 130.886719 L 95.046875 130.886719 L 95.046875 130.398438 L 94.558594 130.398438 Z M 95.046875 131.863281 L 95.535156 131.863281 L 95.535156 131.375 L 95.046875 131.375 Z M 95.535156 146.996094 L 96.023438 146.996094 L 96.023438 146.507813 L 95.535156 146.507813 Z M 106.03125 138.207031 L 107.546875 137.574219 L 108.085938 136.453125 L 114.441406 127.183594 L 118.480469 121.121094 L 120.542969 118.949219 L 120.96875 118.09375 L 119.675781 118.578125 L 114.355469 123.183594 L 113.355469 124.050781 L 110.152344 126.246094 L 104.226563 133.550781 L 103.441406 135.539063 L 100.324219 138.921875 L 99.550781 140.917969 L 98.222656 142.113281 L 97.734375 143.578125 L 96.402344 144.773438 L 95.886719 146.574219 L 97 146.019531 L 98.953125 144.066406 L 100.175781 143.089844 L 105.054688 139.183594 Z M 97.441406 129.03125 L 98.027344 127.859375 L 96.5625 128.347656 L 95.976563 129.519531 Z M 113.21875 113.09375 L 113.695313 111.796875 L 112.839844 112.226563 L 99.929688 125.027344 L 98.828125 126.210938 L 97.816406 128.039063 L 99.710938 127.089844 L 101.882813 125.027344 L 107.742188 118.191406 Z M 97.976563 134.789063 L 98.464844 134.789063 L 98.464844 134.300781 L 97.976563 134.300781 Z M 123.703125 110.089844 L 125.394531 107.832031 L 123.601563 108.382813 L 122.605469 109.296875 L 116.796875 114.398438 L 111.15625 120.144531 L 107.984375 123.074219 L 107.363281 124.269531 L 106.007813 125.136719 L 103.835938 127.710938 L 103.457031 128.664063 L 101.992188 129.640625 L 101.542969 130.203125 L 98.382813 134.410156 L 99.710938 133.921875 L 100.90625 132.347656 L 102.121094 131.324219 L 110.535156 124.742188 L 115.785156 118.261719 L 116.863281 117.40625 L 122.042969 111.652344 L 123.035156 111.035156 Z M 105.789063 121.609375 L 106.277344 121.609375 L 106.277344 121.121094 L 105.789063 121.121094 Z M 105.789063 129.910156 L 106.277344 129.910156 L 106.277344 129.421875 L 105.789063 129.421875 Z M 105.789063 140.160156 L 106.277344 140.160156 L 106.277344 139.671875 L 105.789063 139.671875 Z M 107.984375 120.632813 L 107.507813 120.210938 L 106.03125 120.632813 L 106.511719 121.054688 Z M 130.320313 98.945313 L 131.367188 97.054688 L 129.929688 97.585938 L 125.53125 101 L 115.550781 111.847656 L 113.597656 113.800781 L 108.121094 118.898438 L 107.636719 120.214844 L 110.667969 118.191406 L 112.621094 116.242188 L 121.410156 107.453125 L 127.265625 102.082031 L 128.242188 101.105469 L 129.21875 100.132813 Z M 109.207031 120.632813 L 109.691406 120.632813 L 109.691406 120.144531 L 109.207031 120.144531 Z M 112.4375 142.601563 L 113.355469 142.601563 L 113.914063 141.796875 L 118.164063 137.546875 L 119.347656 136.523438 L 119.835938 135.546875 L 121.238281 134.617188 L 122.167969 133.214844 L 123.121094 132.804688 L 126.875 128.707031 L 127.390625 127.347656 L 126.027344 127.863281 L 123.714844 129.625 L 122.386719 131.375 L 121.164063 132.347656 L 115.796875 136.253906 L 114.574219 137.230469 L 113 138.914063 Z M 119.835938 139.453125 L 121.164063 138.695313 L 121.191406 137.828125 L 119.675781 138.585938 L 117.746094 140.160156 L 116.773438 141.136719 L 113.941406 143.285156 L 112.621094 145.042969 L 113.476563 145.894531 L 118.480469 140.890625 L 119.292969 140.484375 Z M 113.597656 146.996094 L 114.085938 146.996094 L 114.085938 146.507813 L 113.597656 146.507813 Z M 115.125 111.417969 L 115.65625 109.824219 L 114.085938 110.871094 L 113.550781 111.945313 Z M 114.085938 134.789063 L 114.574219 134.789063 L 114.574219 134.300781 L 114.085938 134.300781 Z M 114.574219 121.609375 L 115.0625 121.609375 L 115.0625 121.121094 L 114.574219 121.121094 Z M 146.550781 97.203125 L 146.992188 92.179688 L 145.546875 92.699219 L 143.132813 95.25 L 142.507813 96.445313 L 141.136719 97.335938 L 139.472656 99.398438 L 137.410156 101.324219 L 132.746094 107.722656 L 131.808594 108.722656 L 123.667969 118.84375 L 123.117188 120.144531 L 121.898438 121.367188 L 117.796875 127.613281 L 117.125 128.714844 L 115.929688 131.101563 L 115.0625 132.347656 L 114.464844 134.382813 L 116.527344 132.835938 L 122.386719 126.980469 L 131.171875 118.679688 L 132.285156 117.5 L 133.964844 114.980469 L 136.40625 112.539063 L 142.582031 104.847656 L 143.132813 103.546875 L 144.460938 102.355469 L 145.328125 100.132813 Z M 142.644531 121.121094 L 142.65625 120.21875 L 141.648438 120.542969 L 139.335938 122.300781 L 138.007813 124.050781 L 136.785156 125.027344 L 129.878906 130.710938 L 119.945313 140.648438 L 114.464844 145.75 L 114.039063 146.605469 L 115.332031 146.128906 L 116.527344 144.554688 L 117.722656 143.6875 L 126.097656 137.378906 L 129.171875 134.550781 L 129.597656 133.597656 L 131 132.664063 L 131.929688 131.265625 L 132.878906 130.886719 Z M 114.574219 147.96875 L 115.0625 147.96875 L 115.0625 147.484375 L 114.574219 147.484375 Z M 115.0625 121.121094 L 115.550781 121.121094 L 115.550781 120.632813 L 115.0625 120.632813 Z M 115.0625 147.484375 L 115.550781 147.484375 L 115.550781 146.996094 L 115.0625 146.996094 Z M 138.589844 97.953125 L 139.105469 96.59375 L 136.746094 98.042969 L 131.855469 101.9375 L 126.777344 107.941406 L 123.605469 110.871094 L 122.984375 112.066406 L 121.628906 112.933594 L 119.457031 115.507813 L 118.699219 116.835938 L 117.734375 117.292969 L 115.945313 119.394531 L 115.445313 120.703125 L 118.480469 118.679688 L 120.433594 116.726563 L 121.207031 116.375 L 124.878906 113.367188 L 129.816406 107.234375 L 130.574219 106.695313 L 133.742188 102.851563 L 134.875 101.949219 L 136.542969 99.886719 Z M 117.078125 109.46875 L 117.601563 107.894531 L 116.527344 108.429688 L 115.796875 108.917969 L 115.785156 109.824219 Z M 116.039063 140.648438 L 116.527344 140.648438 L 116.527344 140.160156 L 116.039063 140.160156 Z M 116.039063 146.507813 L 116.527344 146.507813 L 116.527344 146.019531 L 116.039063 146.019531 Z M 134.210938 132.621094 L 134.636719 131.765625 L 133.351563 132.257813 L 129.464844 135.277344 L 128.488281 136.253906 L 125.65625 138.402344 L 122.386719 142.113281 L 118.480469 145.042969 L 115.144531 148.621094 L 115.585938 149.503906 L 117.265625 148.996094 L 118.480469 147.96875 L 122.386719 143.578125 L 129.21875 137.71875 Z M 117.503906 107.941406 L 117.992188 107.941406 L 117.992188 107.453125 L 117.503906 107.453125 Z M 117.503906 139.183594 L 117.992188 139.183594 L 117.992188 138.695313 L 117.503906 138.695313 Z M 117.992188 107.453125 L 118.96875 107.453125 L 118.96875 106.964844 L 117.992188 106.964844 Z M 119.699219 138.207031 L 119.222656 137.785156 L 117.746094 138.207031 L 118.226563 138.628906 Z M 118.96875 106.964844 L 119.457031 106.964844 L 119.457031 106.476563 L 118.96875 106.476563 Z M 120.433594 137.230469 L 121.164063 136.742188 L 121.175781 135.839844 L 119.882813 136.195313 L 119.359375 137.769531 Z M 119.945313 110.382813 L 120.433594 110.382813 L 120.433594 109.894531 L 119.945313 109.894531 Z M 120.433594 105.5 L 120.921875 105.5 L 120.921875 105.011719 L 120.433594 105.011719 Z M 120.921875 118.191406 L 121.410156 118.191406 L 121.410156 117.703125 L 120.921875 117.703125 Z M 121.410156 137.71875 L 121.898438 137.71875 L 121.898438 137.230469 L 121.410156 137.230469 Z M 122.824219 108.527344 L 123.410156 107.355469 L 121.945313 107.84375 L 121.359375 109.015625 Z M 147.28125 111.359375 L 148.828125 109.296875 L 147.507813 109.800781 L 145.195313 111.5625 L 143.863281 113.3125 L 142.644531 114.289063 L 137.234375 118.328125 L 134.101563 121.855469 L 129.21875 127.46875 L 123.363281 132.835938 L 122.261719 134.023438 L 121.214844 135.914063 L 122.648438 135.371094 L 126.046875 132.347656 L 128.488281 130.398438 L 130.820313 128.730469 L 137.03125 122.585938 L 140.933594 117.703125 L 144.351563 114.289063 Z M 121.898438 137.230469 L 122.386719 137.230469 L 122.386719 136.742188 L 121.898438 136.742188 Z M 122.386719 136.742188 L 123.363281 136.742188 L 123.363281 136.253906 L 122.386719 136.253906 Z M 123.363281 101.59375 L 123.851563 101.59375 L 123.851563 101.105469 L 123.363281 101.105469 Z M 150.320313 82.339844 L 150.796875 81.042969 L 149.722656 81.582031 L 147.769531 83.535156 L 146.453125 84.804688 L 139.644531 90.195313 L 126.777344 103.058594 L 123.742188 106.207031 L 123.265625 107.503906 L 125.097656 106.585938 L 127.023438 105.011719 L 128.011719 103.960938 L 132.785156 100.425781 L 136.054688 97.203125 L 144.839844 87.4375 Z M 123.363281 135.765625 L 123.851563 135.765625 L 123.851563 135.277344 L 123.363281 135.277344 Z M 123.851563 128.445313 L 124.339844 128.445313 L 124.339844 127.957031 L 123.851563 127.957031 Z M 124.339844 101.105469 L 124.828125 101.105469 L 124.828125 100.621094 L 124.339844 100.621094 Z M 124.339844 127.957031 L 124.828125 127.957031 L 124.828125 127.46875 L 124.339844 127.46875 Z M 124.828125 100.621094 L 125.3125 100.621094 L 125.3125 100.132813 L 124.828125 100.132813 Z M 124.828125 134.789063 L 125.3125 134.789063 L 125.3125 134.300781 L 124.828125 134.300781 Z M 126.289063 99.644531 L 126.289063 99.15625 L 125.3125 99.15625 L 125.53125 100.023438 Z M 126.289063 107.453125 L 126.289063 106.964844 L 125.3125 106.964844 L 125.53125 107.832031 Z M 125.3125 126.980469 L 125.800781 126.980469 L 125.800781 126.492188 L 125.3125 126.492188 Z M 126.289063 106.964844 L 126.777344 106.964844 L 126.777344 106.476563 L 126.289063 106.476563 Z M 125.800781 126.492188 L 126.777344 126.492188 L 126.777344 126.003906 L 125.800781 126.003906 Z M 126.289063 99.15625 L 127.265625 99.15625 L 127.046875 98.289063 L 126.289063 98.667969 Z M 126.777344 106.476563 L 127.265625 106.476563 L 127.265625 105.988281 L 126.777344 105.988281 Z M 126.777344 126.003906 L 127.265625 126.003906 L 127.265625 125.515625 L 126.777344 125.515625 Z M 127.753906 98.179688 L 128.242188 97.203125 L 127.265625 97.203125 L 127.265625 98.179688 Z M 146.414063 107.234375 L 146.914063 105.867188 L 145.546875 106.367188 L 143.863281 108.429688 L 141.910156 109.40625 L 138.984375 112.335938 L 137.871094 113.515625 L 136.1875 116.039063 L 131.417969 120.632813 L 131.0625 121.390625 L 129.597656 122.367188 L 128.894531 123.726563 L 127.632813 124.261719 L 127.144531 125.636719 L 129.5 124.179688 L 134.847656 119.582031 L 136.054688 118.679688 L 138.984375 115.753906 L 140.09375 114.574219 L 143.863281 109.648438 Z M 127.753906 105.5 L 128.242188 105.5 L 128.242188 105.011719 L 127.753906 105.011719 Z M 128.792969 127.039063 L 129.316406 125.464844 L 127.265625 126.492188 L 127.5 127.394531 Z M 128.242188 97.203125 L 129.21875 97.203125 L 129 96.335938 L 128.242188 96.714844 Z M 129.707031 96.226563 L 130.195313 95.25 L 129.21875 95.25 L 129.21875 96.226563 Z M 129.21875 125.515625 L 129.707031 125.515625 L 129.707031 125.027344 L 129.21875 125.027344 Z M 131.417969 124.539063 L 130.9375 124.117188 L 129.464844 124.539063 L 129.941406 124.960938 Z M 130.195313 95.25 L 131.171875 95.25 L 130.953125 94.382813 L 130.195313 94.761719 Z M 131.660156 94.273438 L 132.148438 93.296875 L 131.171875 93.296875 L 131.171875 94.273438 Z M 133.125 96.226563 L 132.90625 95.359375 L 132.148438 95.738281 L 131.417969 96.226563 L 131.390625 97.09375 Z M 131.171875 123.5625 L 131.660156 123.5625 L 131.660156 123.074219 L 131.171875 123.074219 Z M 132.148438 94.761719 L 132.636719 94.761719 L 132.636719 94.273438 L 132.148438 94.273438 Z M 132.148438 132.347656 L 132.636719 132.347656 L 132.636719 131.863281 L 132.148438 131.863281 Z M 133.613281 93.785156 L 132.929688 92.417969 L 132.148438 92.808594 L 133.125 93.785156 Z M 132.636719 94.273438 L 133.125 94.273438 L 133.125 93.785156 L 132.636719 93.785156 Z M 133.613281 92.320313 L 134.101563 91.34375 L 133.125 91.34375 L 133.125 92.320313 Z M 133.125 95.25 L 133.613281 95.25 L 133.613281 94.761719 L 133.125 94.761719 Z M 133.125 131.375 L 133.613281 131.375 L 133.613281 130.886719 L 133.125 130.886719 Z M 133.613281 93.296875 L 134.101563 93.296875 L 134.101563 92.808594 L 133.613281 92.808594 Z M 133.613281 130.886719 L 134.101563 130.886719 L 134.101563 130.398438 L 133.613281 130.398438 Z M 134.101563 91.34375 L 134.589844 91.34375 L 134.589844 90.855469 L 134.101563 90.855469 Z M 133.613281 94.761719 L 134.589844 94.761719 L 134.589844 94.273438 L 133.613281 94.273438 Z M 134.589844 90.855469 L 135.078125 90.855469 L 135.078125 90.367188 L 134.589844 90.367188 Z M 150.320313 78.433594 L 150.746094 77.578125 L 149.453125 78.058594 L 144.597656 82.070313 L 134.480469 92.050781 L 134.050781 92.90625 L 135.339844 92.410156 L 136.785156 91.34375 L 137.761719 90.367188 L 140.59375 88.21875 Z M 134.589844 94.273438 L 135.078125 94.273438 L 135.078125 93.785156 L 134.589844 93.785156 Z M 134.589844 130.398438 L 135.078125 130.398438 L 135.078125 129.910156 L 134.589844 129.910156 Z M 134.589844 131.863281 L 135.078125 131.863281 L 135.078125 131.375 L 134.589844 131.375 Z M 136.054688 89.878906 L 136.054688 89.390625 L 135.078125 89.390625 L 135.296875 90.257813 Z M 135.078125 131.375 L 135.566406 131.375 L 135.566406 130.886719 L 135.078125 130.886719 Z M 136.785156 128.933594 L 136.308594 128.511719 L 134.832031 128.933594 L 135.3125 129.355469 Z M 135.566406 130.886719 L 136.054688 130.886719 L 136.054688 130.398438 L 135.566406 130.398438 Z M 136.054688 89.390625 L 136.542969 89.390625 L 136.542969 88.902344 L 136.054688 88.902344 Z M 136.542969 88.902344 L 137.03125 88.902344 L 137.03125 88.414063 L 136.542969 88.414063 Z M 136.542969 128.445313 L 137.03125 128.445313 L 137.03125 127.957031 L 136.542969 127.957031 Z M 136.542969 130.398438 L 137.03125 130.398438 L 137.03125 129.910156 L 136.542969 129.910156 Z M 137.03125 88.414063 L 137.519531 88.414063 L 137.519531 87.925781 L 137.03125 87.925781 Z M 137.03125 123.074219 L 137.519531 123.074219 L 137.519531 122.585938 L 137.03125 122.585938 Z M 160.082031 106.746094 L 160.558594 105.453125 L 158.726563 106.367188 L 156.800781 107.941406 L 155.824219 108.917969 L 152.992188 111.066406 L 144.839844 119.167969 L 141.421875 122.585938 L 137.421875 126.714844 L 136.890625 128.128906 L 140.730469 125.648438 L 142.644531 124.050781 L 143.621094 123.074219 L 146.390625 120.894531 L 147.550781 119.058594 L 148.582031 118.519531 L 149.125 117.488281 L 150.527344 116.554688 L 151.457031 115.15625 L 152.488281 114.613281 L 152.894531 113.800781 Z M 137.519531 87.925781 L 138.007813 87.925781 L 138.007813 87.4375 L 137.519531 87.4375 Z M 138.007813 122.585938 L 138.496094 122.585938 L 138.496094 122.097656 L 138.007813 122.097656 Z M 138.496094 122.097656 L 138.984375 122.097656 L 138.984375 121.609375 L 138.496094 121.609375 Z M 138.984375 94.761719 L 139.472656 94.761719 L 139.472656 94.273438 L 138.984375 94.273438 Z M 138.984375 96.714844 L 139.472656 96.714844 L 139.472656 96.226563 L 138.984375 96.226563 Z M 139.960938 121.121094 L 140.691406 120.632813 L 140.703125 119.730469 L 139.410156 120.085938 L 138.886719 121.660156 Z M 139.472656 96.226563 L 139.960938 96.226563 L 139.960938 95.738281 L 139.472656 95.738281 Z M 139.472656 94.273438 L 140.449219 94.273438 L 140.449219 93.785156 L 139.472656 93.785156 Z M 139.960938 95.738281 L 140.449219 95.738281 L 140.449219 95.25 L 139.960938 95.25 Z M 140.449219 93.785156 L 140.933594 93.785156 L 140.933594 93.296875 L 140.449219 93.296875 Z M 141.910156 92.808594 L 142.644531 92.320313 L 142.65625 91.417969 L 141.363281 91.769531 L 140.835938 93.34375 Z M 140.933594 94.761719 L 141.421875 94.761719 L 141.421875 94.273438 L 140.933594 94.273438 Z M 141.421875 113.800781 L 141.910156 113.800781 L 141.910156 113.3125 L 141.421875 113.3125 Z M 167.90625 94.0625 L 168.371094 92.761719 L 166.539063 93.675781 L 164.609375 95.25 L 163.636719 96.226563 L 158.753906 100.132813 L 157.777344 101.105469 L 154.757813 103.738281 L 152.433594 106.855469 L 151.339844 107.753906 L 146.160156 113.507813 L 145.167969 114.125 L 144.597656 115.265625 L 141.316406 118.410156 L 140.8125 119.78125 L 142.175781 119.261719 L 144.488281 117.5 L 145.816406 115.753906 L 147.039063 114.777344 L 152.59375 110.632813 L 153.03125 109.675781 L 154.367188 108.859375 L 158.507813 104.28125 L 158.886719 103.328125 L 160.242188 102.460938 L 162.632813 99.265625 L 163.75 98.386719 L 166.917969 94.542969 Z M 141.910156 113.3125 L 142.398438 113.3125 L 142.398438 112.824219 L 141.910156 112.824219 Z M 142.886719 82.070313 L 143.375 82.070313 L 143.375 81.582031 L 142.886719 81.582031 Z M 142.886719 112.335938 L 143.375 112.335938 L 143.375 111.847656 L 142.886719 111.847656 Z M 143.863281 119.65625 L 143.863281 119.167969 L 142.886719 119.167969 L 143.105469 120.035156 Z M 161.5625 73.5625 L 162.578125 71.738281 L 160.679688 72.683594 L 158.585938 74.492188 L 158.265625 75.234375 L 144.839844 88.414063 L 143.738281 89.601563 L 142.691406 91.492188 L 144.601563 90.902344 L 145.816406 89.878906 L 150.699219 85 L 155.582031 79.140625 L 160.460938 74.746094 Z M 164.121094 91.832031 L 164.15625 90.976563 L 162.132813 92.191406 L 156.789063 96.792969 L 155.824219 97.691406 L 152.859375 100.261719 L 148.109375 105.695313 L 143.253906 111.96875 L 144.613281 111.449219 L 146.550781 109.894531 L 147.527344 108.917969 L 152.59375 104.777344 L 152.976563 103.875 L 154.117188 103.304688 L 155.582031 101.839844 L 159.484375 96.957031 L 160.226563 96.65625 Z M 144.351563 81.09375 L 144.839844 81.09375 L 144.839844 80.605469 L 144.351563 80.605469 Z M 143.863281 119.167969 L 144.839844 119.167969 L 144.839844 118.191406 L 144.351563 118.191406 Z M 144.839844 105.988281 L 145.328125 105.988281 L 145.328125 105.5 L 144.839844 105.5 Z M 144.839844 118.191406 L 145.328125 118.191406 L 145.328125 117.703125 L 144.839844 117.703125 Z M 144.839844 80.117188 L 145.816406 80.117188 L 145.816406 79.628906 L 144.839844 79.628906 Z M 145.328125 105.5 L 145.816406 105.5 L 145.816406 105.011719 L 145.328125 105.011719 Z M 145.816406 79.628906 L 146.304688 79.628906 L 146.304688 79.140625 L 145.816406 79.140625 Z M 146.304688 79.140625 L 146.792969 79.140625 L 146.792969 78.652344 L 146.304688 78.652344 Z M 147.660156 105.230469 L 146.574219 104.144531 L 145.816406 104.523438 L 145.816406 104.769531 L 147.039063 105.988281 L 147.28125 105.988281 Z M 147.28125 78.652344 L 147.769531 77.675781 L 146.792969 77.675781 L 146.792969 78.652344 Z M 159.570313 89.164063 L 160.09375 87.804688 L 154.789063 92.164063 L 153.519531 94.003906 L 152.273438 96.496094 L 147.191406 102.796875 L 146.695313 104.085938 L 148.527344 103.167969 L 150.503906 101.449219 L 154.359375 96.714844 L 158.113281 91.605469 Z M 147.769531 77.675781 L 148.257813 77.675781 L 148.257813 77.1875 L 147.769531 77.1875 Z M 147.769531 82.070313 L 148.257813 82.070313 L 148.257813 81.582031 L 147.769531 81.582031 Z M 147.769531 105.011719 L 148.257813 105.011719 L 148.257813 104.523438 L 147.769531 104.523438 Z M 148.257813 77.1875 L 148.746094 77.1875 L 148.746094 76.699219 L 148.257813 76.699219 Z M 148.257813 81.582031 L 148.746094 81.582031 L 148.746094 81.09375 L 148.257813 81.09375 Z M 148.257813 104.523438 L 148.746094 104.523438 L 148.746094 104.035156 L 148.257813 104.035156 Z M 149.722656 76.210938 L 149.722656 75.722656 L 148.746094 75.722656 L 148.964844 76.589844 Z M 148.746094 81.09375 L 149.234375 81.09375 L 149.234375 80.605469 L 148.746094 80.605469 Z M 150.453125 108.429688 L 149.976563 108.007813 L 148.5 108.429688 L 148.980469 108.851563 Z M 149.722656 75.722656 L 150.210938 75.722656 L 150.210938 75.234375 L 149.722656 75.234375 Z M 169.980469 62.542969 L 170.023438 61.703125 L 167.296875 63.519531 L 165.34375 65.472656 L 159.679688 69.71875 L 149.613281 79.847656 L 149.183594 80.703125 L 150.480469 80.226563 L 151.675781 79.140625 L 153.628906 77.1875 L 154.847656 76.210938 L 159.730469 72.304688 Z M 150.210938 75.234375 L 150.699219 75.234375 L 150.699219 74.746094 L 150.210938 74.746094 Z M 150.210938 107.941406 L 150.699219 107.941406 L 150.699219 107.453125 L 150.210938 107.453125 Z M 151.1875 74.746094 L 151.675781 73.769531 L 150.699219 73.769531 L 150.699219 74.746094 Z M 151.1875 77.675781 L 151.675781 76.699219 L 150.699219 76.699219 L 150.699219 77.675781 Z M 152.40625 80.605469 L 151.929688 80.183594 L 150.453125 80.605469 L 150.933594 81.027344 Z M 151.675781 73.769531 L 152.164063 73.769531 L 152.164063 73.28125 L 151.675781 73.28125 Z M 151.675781 76.699219 L 152.164063 76.699219 L 152.164063 76.210938 L 151.675781 76.210938 Z M 152.164063 73.28125 L 152.652344 73.28125 L 152.652344 72.792969 L 152.164063 72.792969 Z M 152.164063 74.746094 L 152.652344 74.746094 L 152.652344 74.257813 L 152.164063 74.257813 Z M 152.164063 76.210938 L 152.652344 76.210938 L 152.652344 75.722656 L 152.164063 75.722656 Z M 152.164063 80.117188 L 152.652344 80.117188 L 152.652344 79.628906 L 152.164063 79.628906 Z M 153.140625 72.792969 L 153.628906 71.816406 L 152.652344 71.816406 L 152.652344 72.792969 Z M 152.652344 75.722656 L 153.140625 75.722656 L 153.140625 75.234375 L 152.652344 75.234375 Z M 153.140625 73.769531 L 153.628906 73.769531 L 153.628906 73.28125 L 153.140625 73.28125 Z M 153.140625 75.234375 L 153.628906 75.234375 L 153.628906 74.746094 L 153.140625 74.746094 Z M 153.140625 79.140625 L 153.628906 79.140625 L 153.628906 78.652344 L 153.140625 78.652344 Z M 153.628906 71.816406 L 154.117188 71.816406 L 154.117188 71.328125 L 153.628906 71.328125 Z M 153.628906 73.28125 L 154.117188 73.28125 L 154.117188 72.792969 L 153.628906 72.792969 Z M 154.117188 71.328125 L 154.605469 71.328125 L 154.605469 70.839844 L 154.117188 70.839844 Z M 154.117188 72.792969 L 154.605469 72.792969 L 154.605469 72.304688 L 154.117188 72.304688 Z M 155.09375 70.839844 L 155.582031 69.867188 L 154.605469 69.867188 L 154.605469 70.839844 Z M 171.308594 57.441406 L 171.738281 56.585938 L 170.449219 57.074219 L 166.320313 60.347656 L 154.984375 71.546875 L 154.554688 72.402344 L 155.84375 71.910156 L 160.109375 68.6875 Z M 155.09375 97.203125 L 155.582031 97.203125 L 155.582031 96.714844 L 155.09375 96.714844 Z M 155.582031 69.867188 L 156.070313 69.867188 L 156.070313 69.378906 L 155.582031 69.378906 Z M 155.582031 96.714844 L 156.070313 96.714844 L 156.070313 96.226563 L 155.582031 96.226563 Z M 157.796875 53.847656 L 156.800781 54.246094 L 156.417969 53.46875 L 160.21875 50.828125 L 161.195313 49.851563 L 164.023438 47.703125 L 166.429688 45.238281 L 167.007813 41.417969 L 165.34375 42.527344 L 161.4375 46.433594 L 160.21875 47.410156 L 158.289063 48.984375 L 156.355469 49.953125 L 155.878906 54.246094 L 156.636719 54.246094 L 156.203125 55.503906 L 156.765625 57.070313 L 157.53125 56.683594 L 158.265625 56.195313 L 159.3125 55.046875 L 164.195313 51.144531 L 165.34375 50.339844 L 167.40625 48.167969 L 167.914063 46.394531 L 166.5625 45.945313 L 165.996094 47.085938 L 164.855469 47.652344 L 163.878906 48.875 L 161.195313 50.828125 Z M 156.070313 69.378906 L 156.554688 69.378906 L 156.554688 68.890625 L 156.070313 68.890625 Z M 156.070313 89.878906 L 156.554688 89.878906 L 156.554688 89.390625 L 156.070313 89.390625 Z M 156.070313 96.226563 L 156.554688 96.226563 L 156.554688 95.738281 L 156.070313 95.738281 Z M 169.25 34.960938 L 170.398438 32.59375 L 166.539063 35.097656 L 165.34375 36.183594 L 162.414063 39.109375 L 158.632813 42.25 L 156.992188 45.695313 L 156.378906 48.964844 L 157.53125 48.386719 L 159.484375 46.433594 L 164.121094 42.527344 L 166.523438 40.710938 L 167.9375 38.324219 L 168.515625 35.695313 Z M 167.378906 53.039063 L 167.980469 49.21875 L 166.546875 49.757813 L 164.609375 51.316406 L 163.390625 52.292969 L 161.4375 54.730469 L 160.21875 55.707031 L 156.949219 57.886719 L 156.386719 61.742188 L 159.3125 59.785156 L 161.4375 57.660156 L 163.390625 56.195313 L 165.34375 54.246094 Z M 166.917969 55.492188 L 167.378906 54.246094 L 166.5625 54.246094 L 165.996094 55.382813 L 164.855469 55.953125 L 163.390625 57.660156 L 162.171875 58.636719 L 156.800781 62.542969 L 156.773438 65.363281 L 157.316406 65.09375 Z M 157.042969 68.890625 L 157.53125 67.914063 L 156.554688 67.914063 L 156.554688 68.890625 Z M 156.554688 81.09375 L 157.042969 81.09375 L 157.042969 80.605469 L 156.554688 80.605469 Z M 162.96875 82.808594 L 163.511719 81.09375 L 162.660156 81.09375 L 161.4375 82.070313 L 160.949219 83.046875 L 156.960938 86.203125 L 156.367188 89.484375 L 157.53125 88.902344 L 159.484375 86.949219 L 160.949219 85.488281 L 162.003906 84.742188 Z M 174.617188 76.210938 L 175.214844 74.664063 L 173.347656 76.066406 L 168.515625 80.117188 L 166.5625 82.070313 L 164.445313 83.765625 L 164.023438 84.316406 L 159.34375 91.542969 L 157.53125 93.785156 L 156.394531 95.820313 L 158.507813 94.761719 L 162.414063 90.855469 L 164.609375 88.902344 L 167.871094 86.722656 L 173.835938 77.53125 Z M 164.292969 79.179688 L 166.007813 74.605469 L 164.589844 75.140625 L 163.636719 76.210938 L 158.570313 80.351563 L 158.183594 81.253906 L 156.914063 81.789063 L 156.359375 85.144531 L 157.800781 84.621094 L 159.484375 82.558594 L 160.707031 81.582031 L 162.632813 80.007813 Z M 157.53125 67.914063 L 158.019531 67.914063 L 158.019531 67.425781 L 157.53125 67.425781 Z M 157.53125 106.476563 L 158.019531 106.476563 L 158.019531 105.988281 L 157.53125 105.988281 Z M 158.019531 67.425781 L 158.507813 67.425781 L 158.507813 66.9375 L 158.019531 66.9375 Z M 158.019531 80.117188 L 158.507813 80.117188 L 158.507813 79.628906 L 158.019531 79.628906 Z M 158.019531 105.988281 L 158.507813 105.988281 L 158.507813 105.5 L 158.019531 105.5 Z M 158.507813 66.9375 L 158.996094 66.9375 L 158.996094 66.449219 L 158.507813 66.449219 Z M 158.507813 105.5 L 158.996094 105.5 L 158.996094 105.011719 L 158.507813 105.011719 Z M 158.996094 66.449219 L 159.484375 66.449219 L 159.484375 65.960938 L 158.996094 65.960938 Z M 159.925781 78.75 L 160.511719 77.578125 L 159.046875 78.066406 L 158.460938 79.238281 Z M 158.996094 99.15625 L 159.484375 99.15625 L 159.484375 98.667969 L 158.996094 98.667969 Z M 158.996094 105.011719 L 159.484375 105.011719 L 159.484375 104.523438 L 158.996094 104.523438 Z M 159.484375 98.667969 L 159.972656 98.667969 L 159.972656 98.179688 L 159.484375 98.179688 Z M 159.972656 98.179688 L 160.460938 98.179688 L 160.460938 97.691406 L 159.972656 97.691406 Z M 159.484375 104.523438 L 160.460938 104.523438 L 160.460938 103.546875 L 159.972656 103.546875 Z M 165.929688 73.546875 L 166.484375 71.25 L 165.5625 71.707031 L 160.839844 76.429688 L 160.363281 77.726563 L 161.4375 77.1875 L 162.171875 76.699219 L 163.148438 75.722656 Z M 179.011719 79.871094 L 180.183594 77.53125 L 178.742188 78.054688 L 177.058594 80.117188 L 175.839844 81.09375 L 174.128906 82.3125 L 168.507813 87.011719 L 166.417969 89.613281 L 165.988281 91.042969 L 164.585938 91.941406 L 160.707031 96.714844 L 160.679688 97.582031 L 161.4375 97.203125 L 162.171875 96.714844 L 163.148438 95.738281 L 167.539063 91.832031 L 168.515625 90.855469 L 173.042969 87.167969 Z M 183.519531 80.875 L 183.996094 79.558594 L 180.964844 81.582031 L 179.011719 83.535156 L 177.058594 85 L 174.933594 87.125 L 167.125 95.910156 L 162.414063 100.621094 L 161.3125 101.804688 L 160.265625 103.695313 L 161.703125 103.15625 L 167.515625 98.070313 L 169.382813 97 Z M 162.171875 105.011719 L 161.691406 104.589844 L 160.21875 105.011719 L 160.695313 105.433594 Z M 179.589844 19.359375 L 180.085938 18.070313 L 179.011719 18.609375 L 177.058594 20.5625 L 171.398438 24.808594 L 163.207031 35.367188 L 161.4375 37.648438 L 160.902344 38.722656 L 162.292969 38.257813 L 166.148438 34.402344 L 171.960938 29.726563 L 173.734375 27.65625 L 174.527344 25.667969 Z M 161.925781 104.523438 L 162.414063 104.523438 L 162.414063 104.035156 L 161.925781 104.035156 Z M 164.121094 71.328125 L 163.644531 70.910156 L 162.171875 71.328125 L 162.648438 71.75 Z M 163.390625 81.09375 L 163.878906 81.09375 L 163.878906 80.605469 L 163.390625 80.605469 Z M 163.878906 70.839844 L 164.367188 70.839844 L 164.367188 70.351563 L 163.878906 70.351563 Z M 163.878906 80.605469 L 164.367188 80.605469 L 164.367188 80.117188 L 163.878906 80.117188 Z M 164.367188 60.589844 L 164.855469 60.589844 L 164.855469 60.101563 L 164.367188 60.101563 Z M 165.34375 60.101563 L 165.832031 60.101563 L 165.832031 59.613281 L 165.34375 59.613281 Z M 165.34375 69.378906 L 165.832031 69.378906 L 165.832031 68.890625 L 165.34375 68.890625 Z M 165.34375 82.070313 L 165.832031 82.070313 L 165.832031 81.582031 L 165.34375 81.582031 Z M 165.832031 59.613281 L 166.320313 59.613281 L 166.320313 59.125 L 165.832031 59.125 Z M 165.832031 81.582031 L 166.320313 81.582031 L 166.320313 81.09375 L 165.832031 81.09375 Z M 166.808594 59.125 L 167.296875 58.148438 L 166.320313 58.148438 L 166.320313 59.125 Z M 166.320313 66.9375 L 166.808594 66.9375 L 166.808594 66.449219 L 166.320313 66.449219 Z M 177.605469 70.605469 L 178.175781 68.332031 L 177.058594 68.890625 L 175.105469 70.839844 L 174.128906 71.816406 L 171.203125 73.769531 L 169.25 75.722656 L 168.027344 76.699219 L 166.734375 78.886719 L 166.144531 81.230469 L 171.390625 77.035156 L 171.933594 76.699219 L 172.910156 75.722656 L 175.679688 73.542969 Z M 167.296875 54.246094 L 167.785156 54.246094 L 167.785156 53.757813 L 167.296875 53.757813 Z M 167.296875 58.148438 L 167.785156 58.148438 L 167.785156 57.660156 L 167.296875 57.660156 Z M 167.296875 62.542969 L 167.785156 62.542969 L 167.785156 62.054688 L 167.296875 62.054688 Z M 167.296875 66.449219 L 167.785156 66.449219 L 167.785156 65.960938 L 167.296875 65.960938 Z M 167.785156 57.660156 L 168.273438 57.660156 L 168.273438 57.171875 L 167.785156 57.171875 Z M 167.785156 62.054688 L 168.273438 62.054688 L 168.273438 61.566406 L 167.785156 61.566406 Z M 167.785156 65.960938 L 168.273438 65.960938 L 168.273438 65.472656 L 167.785156 65.472656 Z M 169.738281 56.195313 L 170.273438 55.121094 L 168.699219 55.648438 L 168.167969 57.242188 Z M 168.273438 61.566406 L 168.761719 61.566406 L 168.761719 61.078125 L 168.273438 61.078125 Z M 168.761719 65.472656 L 169.25 64.496094 L 168.273438 64.496094 L 168.273438 65.472656 Z M 168.273438 75.234375 L 168.761719 75.234375 L 168.761719 74.746094 L 168.273438 74.746094 Z M 168.273438 92.808594 L 168.761719 92.808594 L 168.761719 92.320313 L 168.273438 92.320313 Z M 179.566406 65.726563 L 180.164063 62.453125 L 179.011719 63.03125 L 177.058594 64.984375 L 172.421875 68.890625 L 170.117188 70.625 L 169.25 72.0625 L 168.636719 74.746094 L 169.25 74.746094 L 171.203125 72.792969 L 173.152344 70.839844 L 175.105469 69.867188 L 176.570313 67.914063 Z M 168.761719 92.320313 L 169.25 92.320313 L 169.25 91.832031 L 168.761719 91.832031 Z M 189.75 51.804688 L 190.824219 52.339844 L 190.335938 51.050781 L 186.628906 46.773438 L 184.871094 45.457031 L 182.917969 47.410156 L 180.964844 48.386719 L 169.140625 60.320313 L 168.710938 61.175781 L 170 60.683594 L 171.933594 59.125 L 172.921875 58.074219 L 179.242188 52.855469 L 184.121094 47.808594 L 185.605469 47.371094 L 186.578125 48.386719 L 186.929688 49.144531 L 188.394531 50.121094 L 188.9375 51.152344 Z M 169.25 91.832031 L 169.738281 91.832031 L 169.738281 91.34375 L 169.25 91.34375 Z M 169.25 64.496094 L 170.226563 64.496094 L 170.226563 63.519531 L 169.738281 63.519531 Z M 171.691406 54.246094 L 172.226563 53.171875 L 170.652344 53.695313 L 170.121094 55.289063 Z M 170.226563 61.566406 L 170.714844 61.566406 L 170.714844 61.078125 L 170.226563 61.078125 Z M 180.886719 60.414063 L 181.609375 57.527344 L 180.109375 58.027344 L 175.105469 63.03125 L 173.152344 64.007813 L 170.605469 66.667969 L 170.046875 69.464844 L 171.203125 68.890625 L 172.980469 67.109375 Z M 185.183594 29.03125 L 184.625 26.417969 L 184.136719 26.417969 L 183.113281 27.25 L 174.910156 34.863281 L 173.886719 35.695313 L 170.957031 37.648438 L 170.910156 41.40625 L 172.859375 39.941406 L 173.804688 39.273438 L 174.1875 38.371094 L 179.929688 33.992188 L 180.3125 33.089844 L 181.453125 32.519531 L 182.429688 31.789063 Z M 181.074219 53.539063 L 181.535156 52.617188 L 179.671875 53.582031 L 173.46875 59.785156 L 172.285156 60.808594 L 171.796875 61.785156 L 170.46875 62.542969 L 170.457031 63.449219 L 171.933594 63.054688 L 172.9375 61.457031 L 173.96875 60.914063 L 174.375 60.101563 Z M 187.027344 23.136719 L 188.335938 23.585938 L 187.90625 22.730469 L 186.628906 21.390625 L 184.871094 20.074219 L 182.917969 22.027344 L 180.964844 23.003906 L 179.5 24.710938 L 178.359375 25.28125 L 177.976563 26.183594 L 174.53125 28.601563 L 173.078125 30.554688 L 171.007813 36.769531 L 171.960938 36.292969 L 172.910156 35.207031 L 177.976563 31.0625 L 178.359375 30.160156 L 179.671875 29.664063 L 185.53125 23.804688 Z M 171.203125 50.828125 L 171.691406 50.828125 L 171.691406 50.339844 L 171.203125 50.339844 Z M 170.714844 61.078125 L 171.691406 61.078125 L 171.691406 60.589844 L 170.714844 60.589844 Z M 184.625 33.253906 L 186.003906 33.710938 L 185.429688 30.277344 L 184.097656 31.164063 L 176.886719 37.332031 L 175.105469 39.109375 L 174.128906 40.085938 L 171.234375 42.28125 L 171.890625 44.347656 L 172.949219 43.640625 L 177.304688 39.597656 L 178.28125 38.625 L 183.160156 34.71875 L 183.894531 33.742188 Z M 184.234375 37.453125 L 185.9375 36.933594 L 185.519531 34.230469 L 184.871094 34.230469 L 180.964844 38.136719 L 179.742188 39.109375 L 174.375 43.015625 L 172.09375 45.199219 L 171.507813 49.035156 L 174.984375 46.554688 L 177.058594 44.480469 L 183.894531 38.378906 Z M 171.691406 56.683594 L 172.175781 56.683594 L 172.175781 56.195313 L 171.691406 56.195313 Z M 171.691406 60.589844 L 172.175781 60.589844 L 172.175781 60.101563 L 171.691406 60.101563 Z M 172.175781 49.851563 L 172.664063 49.851563 L 172.664063 49.363281 L 172.175781 49.363281 Z M 173.152344 52.78125 L 174.199219 51.210938 L 172.605469 51.742188 L 172.078125 53.316406 Z M 172.175781 56.195313 L 172.664063 56.195313 L 172.664063 55.707031 L 172.175781 55.707031 Z M 185.597656 70.882813 L 189.351563 71.507813 L 188.394531 69.59375 L 186.113281 66.835938 L 184.621094 66.40625 L 183.40625 67.425781 L 179.328125 71.503906 L 176.484375 75.464844 L 175.683594 77.449219 L 173.039063 80.820313 L 172.015625 82.640625 L 173.152344 82.070313 L 173.886719 81.582031 L 174.863281 80.605469 L 179.929688 76.460938 L 180.3125 75.558594 L 181.453125 74.992188 L 183.136719 73.171875 L 185.089844 70.460938 Z M 172.664063 55.707031 L 173.152344 55.707031 L 173.152344 55.21875 L 172.664063 55.21875 Z M 173.152344 53.757813 L 173.640625 53.757813 L 173.640625 53.269531 L 173.152344 53.269531 Z M 173.152344 55.21875 L 173.640625 55.21875 L 173.640625 54.730469 L 173.152344 54.730469 Z M 173.152344 59.125 L 173.640625 59.125 L 173.640625 58.636719 L 173.152344 58.636719 Z M 173.640625 53.269531 L 174.128906 53.269531 L 174.128906 52.78125 L 173.640625 52.78125 Z M 175.105469 50.828125 L 175.105469 50.339844 L 174.128906 50.339844 L 174.347656 51.207031 Z M 174.128906 52.78125 L 174.617188 52.78125 L 174.617188 52.292969 L 174.128906 52.292969 Z M 174.128906 54.246094 L 174.617188 54.246094 L 174.617188 53.757813 L 174.128906 53.757813 Z M 174.617188 52.292969 L 175.105469 52.292969 L 175.105469 51.804688 L 174.617188 51.804688 Z M 175.105469 50.339844 L 175.59375 50.339844 L 175.59375 49.851563 L 175.105469 49.851563 Z M 175.59375 26.90625 L 176.082031 26.90625 L 176.082031 26.417969 L 175.59375 26.417969 Z M 175.59375 49.851563 L 176.082031 49.851563 L 176.082031 49.363281 L 175.59375 49.363281 Z M 184.996094 43.621094 L 190.84375 48.980469 L 190.347656 47.628906 L 188.285156 45.945313 L 187.308594 43.992188 L 185.628906 42.417969 L 184.625 42.039063 L 175.484375 51.046875 L 175.023438 51.964844 L 176.886719 51 L 179.011719 48.875 L 181.738281 47.058594 Z M 176.082031 19.585938 L 176.570313 19.585938 L 176.570313 19.097656 L 176.082031 19.097656 Z M 176.082031 49.363281 L 176.570313 49.363281 L 176.570313 48.875 L 176.082031 48.875 Z M 196.8125 28.457031 L 198.132813 28.96875 L 196.4375 26.710938 L 195.773438 25.769531 L 194.875 25.40625 L 189.648438 18.875 L 189.011719 18.550781 L 186.628906 15.046875 L 184.992188 13.820313 L 180.78125 19.257813 L 179.230469 21.429688 L 178.414063 22.242188 L 176 25.929688 L 176.816406 25.929688 L 181.882813 21.789063 L 182.265625 20.886719 L 183.210938 20.21875 L 185.296875 18.65625 L 189.390625 23.699219 L 193.546875 26.199219 L 194.632813 27.152344 Z M 176.570313 48.875 L 177.058594 48.875 L 177.058594 48.386719 L 176.570313 48.386719 Z M 195.339844 21.160156 L 196.707031 21.660156 L 196.207031 20.292969 L 193.4375 17.523438 L 191.875 15.851563 L 188.773438 12.75 L 185.601563 9.820313 L 184.136719 10.273438 L 181.703125 13.667969 L 180.746094 14.105469 L 179.167969 15.980469 L 176.476563 19.210938 L 177.816406 18.71875 L 179.011719 17.144531 L 180.230469 16.167969 L 184.097656 13.101563 L 185.210938 12.359375 L 185.847656 13.238281 L 186.996094 14.042969 L 191.875 17.949219 L 193.65625 19.097656 Z M 177.058594 84.023438 L 177.546875 84.023438 L 177.546875 83.535156 L 177.058594 83.535156 Z M 177.546875 83.535156 L 178.035156 83.535156 L 178.035156 83.046875 L 177.546875 83.046875 Z M 178.035156 68.402344 L 178.523438 68.402344 L 178.523438 67.914063 L 178.035156 67.914063 Z M 194.871094 86.027344 L 196.78125 86.609375 L 195.726563 84.722656 L 193.875 82.449219 L 192.917969 82.011719 L 190.726563 79.382813 L 186.628906 74.113281 L 184.871094 72.792969 L 183.515625 75.503906 L 181.25 78.789063 L 178.429688 81.808594 L 177.9375 83.09375 L 179.011719 82.558594 L 180.964844 80.605469 L 182.917969 79.140625 L 184.871094 77.1875 L 186.628906 78.503906 L 188.992188 81.960938 Z M 179.988281 18.121094 L 180.476563 18.121094 L 180.476563 17.632813 L 179.988281 17.632813 Z M 179.988281 57.171875 L 180.476563 57.171875 L 180.476563 56.683594 L 179.988281 56.683594 Z M 179.988281 69.378906 L 180.476563 69.378906 L 180.476563 68.890625 L 179.988281 68.890625 Z M 180.964844 77.1875 L 180.964844 76.699219 L 179.988281 76.699219 L 180.207031 77.566406 Z M 180.476563 17.632813 L 180.964844 17.632813 L 180.964844 17.144531 L 180.476563 17.144531 Z M 180.476563 56.683594 L 180.964844 56.683594 L 180.964844 56.195313 L 180.476563 56.195313 Z M 186.640625 66.289063 L 190.96875 71.789063 L 193.023438 71.132813 L 191.851563 69.574219 L 187.933594 64.699219 L 186.628906 63.371094 L 184.871094 62.054688 L 182.917969 64.007813 L 182.183594 64.496094 L 181.535156 66.21875 L 180.332031 69.003906 L 185.222656 65.09375 Z M 180.964844 43.992188 L 181.453125 43.992188 L 181.453125 43.503906 L 180.964844 43.503906 Z M 180.964844 76.699219 L 181.453125 76.699219 L 181.453125 76.210938 L 180.964844 76.210938 Z M 181.453125 43.503906 L 181.941406 43.503906 L 181.941406 43.015625 L 181.453125 43.015625 Z M 181.453125 52.78125 L 181.941406 52.78125 L 181.941406 52.292969 L 181.453125 52.292969 Z M 181.453125 56.195313 L 181.941406 56.195313 L 181.941406 55.707031 L 181.453125 55.707031 Z M 181.941406 43.015625 L 182.429688 43.015625 L 182.429688 42.527344 L 181.941406 42.527344 Z M 181.941406 52.292969 L 182.429688 52.292969 L 182.429688 51.804688 L 181.941406 51.804688 Z M 182.429688 51.804688 L 182.917969 51.804688 L 182.917969 51.316406 L 182.429688 51.316406 Z M 195.828125 51.425781 L 196.683594 51.851563 L 196.144531 50.089844 L 188.285156 43.015625 L 185.21875 39.703125 L 183.40625 41.0625 L 182.359375 42.632813 L 183.675781 42.148438 L 185.03125 40.65625 L 185.628906 40.953125 Z M 182.917969 51.316406 L 183.40625 51.316406 L 183.40625 50.828125 L 182.917969 50.828125 Z M 182.917969 62.542969 L 183.894531 62.542969 L 183.660156 61.636719 L 185.113281 61.078125 L 188.097656 63.851563 L 193.390625 70.457031 L 194.589844 70.90625 L 195.472656 69.582031 L 194.785156 68.589844 L 186.824219 59.859375 L 185.113281 58.148438 L 184.101563 58.507813 L 183.648438 61.078125 Z M 183.894531 50.339844 L 184.382813 50.339844 L 184.382813 49.851563 L 183.894531 49.851563 Z M 183.894531 79.628906 L 184.382813 79.628906 L 184.382813 79.140625 L 183.894531 79.140625 Z M 184.382813 57.171875 L 184.871094 57.171875 L 184.871094 56.683594 L 184.382813 56.683594 Z M 186.550781 48.984375 L 185.359375 48.386719 L 185.140625 48.765625 L 186.335938 49.363281 Z M 186.574219 79.1875 L 184.625 78.652344 L 184.179688 79.003906 L 186.089844 79.628906 L 186.335938 79.628906 Z M 186.414063 52.78125 L 185.765625 52.78125 L 186.253906 54.246094 L 186.902344 54.246094 Z M 188.050781 57.113281 L 186.089844 54.730469 L 184.722656 54.730469 L 185.253906 56.953125 L 194.144531 67.179688 L 195.339844 68.511719 L 196.773438 69.03125 L 196.183594 66.1875 Z M 186.335938 49.851563 L 186.824219 49.851563 L 186.824219 49.363281 L 186.335938 49.363281 Z M 188.503906 50.9375 L 187.308594 50.339844 L 187.09375 50.71875 L 188.285156 51.316406 Z M 188.566406 55.09375 L 186.675781 54.050781 L 187.21875 55.484375 L 188.976563 57.527344 L 190.347656 58.417969 L 190.972656 59.613281 L 192.679688 61.078125 L 194.632813 63.761719 L 196.828125 66.421875 L 198.179688 65.996094 L 197.671875 64.226563 L 195.609375 62.054688 L 189.75 56.195313 Z M 189.4375 52.464844 L 188.164063 51.191406 L 188.695313 52.78125 L 189.261719 52.78125 Z M 189.96875 74.855469 L 187.730469 74.152344 L 189.75 77.1875 L 192.507813 79.945313 L 200.097656 88.640625 L 202.6875 89.878906 L 206.394531 90.746094 L 205.953125 89.617188 L 203.671875 87.011719 L 203.039063 86.679688 L 199.875 82.839844 L 198.757813 81.960938 L 194.828125 77.042969 L 192.875 75.578125 L 190.726563 74.992188 Z M 189.96875 17.253906 L 188.773438 16.65625 L 189.261719 17.632813 L 189.75 17.632813 Z M 190.289063 31.332031 L 188.582031 30.195313 L 189.164063 34.003906 L 199.6875 45.773438 L 200.613281 44.847656 L 200.085938 42.757813 L 197.226563 39.789063 Z M 189.96875 48.984375 L 188.773438 48.386719 L 188.558594 48.765625 L 189.75 49.363281 Z M 198.734375 49.019531 L 200.6875 50.484375 L 200.113281 47.140625 L 197.5625 44.726563 L 193.65625 39.84375 L 192.917969 39.539063 L 190.523438 36.046875 L 189.445313 35.328125 L 190.167969 38.878906 L 190.890625 39.925781 L 191.578125 40.367188 L 196.742188 46.621094 Z M 190.507813 39.976563 L 189.589844 39.519531 L 190.128906 41.820313 L 195.828125 47.519531 L 196.75 47.980469 L 195.726563 46.160156 L 193.875 43.882813 L 192.917969 43.445313 Z M 190.945313 49.960938 L 189.75 49.363281 L 190.238281 50.339844 L 190.726563 50.339844 Z M 190.320313 52.78125 L 189.261719 52.78125 L 189.75 53.757813 L 190.824219 54.292969 Z M 189.75 71.816406 L 190.238281 71.816406 L 190.238281 71.328125 L 189.75 71.328125 Z M 191.703125 18.609375 L 190.484375 17.632813 L 189.75 17.632813 L 191.570313 20.359375 L 193.386719 22.136719 L 198.917969 29.128906 L 200.003906 30.324219 L 202.730469 32.628906 L 209.921875 38.324219 L 212.425781 41.171875 L 214.257813 42.089844 L 213.761719 40.800781 L 212.003906 38.488281 L 209.765625 36.671875 L 208.679688 35.476563 L 205.507813 31.015625 L 202.445313 28.859375 L 198.195313 24.171875 L 194.691406 21.789063 L 194.308594 20.886719 L 193.167969 20.316406 Z M 205.617188 44.480469 L 206.347656 44.480469 L 205.03125 42.722656 L 199.761719 36.71875 L 199.136719 36.402344 L 192.988281 28.695313 L 190.46875 26.992188 L 189.136719 27.605469 L 188.734375 29.105469 L 191.507813 31.640625 L 197.734375 39.285156 L 201.640625 43.1875 Z M 190.726563 47.898438 L 191.214844 47.898438 L 191.214844 47.410156 L 190.726563 47.410156 Z M 191.703125 49.851563 L 191.214844 48.875 L 190.726563 48.875 L 191.214844 49.851563 Z M 191.484375 50.71875 L 190.566406 50.257813 L 191.585938 52.078125 L 193.058594 54.027344 L 194.253906 55.003906 L 200.726563 62.972656 L 202.0625 63.789063 L 202.550781 64.765625 L 204.015625 65.742188 L 204.503906 66.71875 L 205.96875 67.695313 L 206.511719 68.726563 L 207.324219 69.378906 L 208.398438 69.914063 L 207.921875 68.617188 L 206.105469 66.9375 L 205.535156 65.796875 L 204.632813 65.414063 L 200.296875 59.46875 Z M 191.214844 52.292969 L 190.726563 52.292969 L 190.726563 53.269531 L 191.703125 53.269531 Z M 192.460938 55.113281 L 190.628906 54.195313 L 191.105469 55.492188 L 201.683594 66.070313 L 202.542969 66.496094 L 202.0625 65.203125 L 200.492188 64.007813 Z M 192.679688 50.828125 L 192.191406 49.851563 L 191.703125 49.851563 L 191.484375 50.230469 Z M 192.679688 54.246094 L 192.191406 53.269531 L 191.703125 53.269531 L 191.484375 53.648438 Z M 193.386719 49.472656 L 192.191406 48.875 L 192.679688 49.851563 L 193.167969 49.851563 Z M 192.679688 55.21875 L 193.167969 55.21875 L 193.167969 54.730469 L 192.679688 54.730469 Z M 194.144531 50.828125 L 193.65625 49.851563 L 193.167969 49.851563 L 192.949219 50.230469 Z M 194.894531 28.769531 L 193.535156 28.25 L 195.953125 31.589844 L 202.597656 38.8125 L 208.148438 45.753906 L 213.46875 49.222656 L 215.851563 50.917969 L 217.210938 51.4375 L 214.789063 48.097656 L 207.660156 40.382813 L 202.730469 34.09375 L 199.800781 32.140625 Z M 194.902344 51.207031 L 194.046875 50.777344 L 194.539063 52.066406 L 198.734375 57.320313 L 211.449219 69.972656 L 212.304688 70.402344 L 211.816406 69.113281 L 207.054688 63.628906 L 205.859375 62.542969 L 200.980469 57.660156 Z M 197.78125 22.136719 L 196.585938 21.539063 L 196.585938 22.515625 L 197.5625 22.515625 Z M 197.5625 48.875 L 197.074219 47.898438 L 196.585938 47.898438 L 196.367188 48.277344 Z M 207.558594 90.4375 L 210.375 91.039063 L 209.414063 89.59375 L 205.507813 84.714844 L 204.546875 83.722656 L 196.832031 75.199219 L 194.632813 75.722656 L 195.609375 77.1875 L 198.539063 80.117188 L 202.445313 85 L 206.585938 89.820313 Z M 197.78125 87.058594 L 196.585938 86.460938 L 197.074219 87.4375 L 197.5625 87.4375 Z M 197.644531 51.804688 L 196.585938 51.804688 L 197.074219 52.78125 L 198.148438 53.316406 Z M 198.539063 23.488281 L 198.050781 22.515625 L 197.5625 22.515625 L 198.050781 23.488281 Z M 198.050781 22.027344 L 198.539063 22.027344 L 198.539063 21.539063 L 198.050781 21.539063 Z M 198.050781 29.347656 L 198.539063 29.347656 L 198.539063 28.859375 L 198.050781 28.859375 Z M 199.246094 53.863281 L 198.050781 53.269531 L 198.539063 54.246094 L 199.027344 54.246094 Z M 198.050781 87.925781 L 198.539063 87.925781 L 198.539063 87.4375 L 198.050781 87.4375 Z M 199.515625 50.828125 L 199.027344 49.851563 L 198.539063 49.851563 L 198.320313 50.230469 Z M 200.003906 23.488281 L 199.515625 22.515625 L 199.027344 22.515625 L 199.515625 23.488281 Z M 200.003906 55.21875 L 199.515625 54.246094 L 199.027344 54.246094 L 198.808594 54.625 Z M 199.273438 74.21875 L 197.492188 74.640625 L 199.378906 77.472656 L 201.769531 79.472656 L 210.984375 90.382813 L 212.75 89.988281 L 211.828125 88.144531 L 209.277344 85.730469 L 205.371094 80.847656 L 204.632813 80.546875 L 202.25 77.042969 Z M 223.164063 47.519531 L 224.019531 47.945313 L 223.527344 46.660156 L 219.832031 42.371094 L 211.230469 33.742188 L 204.394531 27.882813 L 200.761719 23.871094 L 199.933594 23.457031 L 201.34375 25.808594 L 204.394531 28.859375 L 209.277344 34.230469 L 217.089844 41.0625 Z M 200.003906 55.707031 L 200.492188 55.707031 L 200.492188 55.21875 L 200.003906 55.21875 Z M 201.640625 51.488281 L 200.367188 50.21875 L 200.898438 51.804688 L 201.46875 51.804688 Z M 211.230469 86.949219 L 213.988281 89.707031 L 214.605469 88.175781 L 214.160156 86.707031 L 211.230469 83.777344 L 207.324219 78.894531 L 206.566406 78.542969 L 205.371094 77.1875 L 203.554688 74.460938 L 202.25 73.136719 L 200.386719 71.742188 L 199.933594 73.5625 L 203.039063 77.40625 L 203.664063 77.707031 L 209.414063 84.226563 Z M 203.148438 56.792969 L 201.957031 56.195313 L 201.738281 56.574219 L 202.929688 57.171875 Z M 214.34375 83.695313 L 202.199219 69.378906 L 201.546875 69.378906 L 200.980469 71.085938 L 202.796875 73.078125 L 214.859375 86.585938 L 216.285156 87.089844 L 215.734375 84.726563 Z M 203.417969 67.425781 L 202.929688 66.449219 L 202.445313 66.449219 L 202.226563 66.828125 Z M 204.628906 57.734375 L 202.882813 57.074219 L 203.417969 58.148438 L 204.394531 58.636719 Z M 204.613281 68.023438 L 203.417969 67.425781 L 203.90625 68.402344 L 204.394531 68.402344 Z M 204.882813 48.386719 L 203.71875 47.804688 L 204.304688 51.578125 L 208.105469 55.074219 L 210.492188 58.578125 L 211.394531 58.964844 L 211.960938 60.101563 L 213.183594 61.566406 L 215.9375 64.324219 L 216.980469 62.324219 L 216.601563 61.566406 L 213.671875 58.636719 L 210.886719 54.925781 L 205.621094 48.921875 Z M 205.65625 53.621094 L 204.191406 52.644531 L 205.496094 56.5625 L 206.347656 57.660156 L 209.277344 59.613281 L 212.425781 63.140625 L 214.257813 64.054688 L 213.765625 62.769531 L 207.640625 55.882813 Z M 206.128906 59.503906 L 204.296875 58.589844 L 204.792969 59.875 L 206.550781 61.917969 L 207.921875 62.8125 L 208.464844 63.84375 L 209.277344 64.25 L 218.769531 73.878906 L 220.105469 74.371094 L 214.3125 67.125 L 211.230469 64.984375 L 207.324219 60.589844 Z M 207.054688 37.269531 L 205.859375 36.671875 L 205.640625 37.050781 L 206.835938 37.648438 Z M 207.324219 66.9375 L 206.835938 65.960938 L 206.347656 65.960938 L 206.835938 66.9375 Z M 208.546875 47.867188 L 205.257813 47.242188 L 207.324219 50.339844 L 208.472656 51.628906 L 209.636719 52.574219 L 212.804688 56.414063 L 213.433594 56.734375 L 216.113281 59.859375 L 216.925781 61.257813 L 219.300781 61.964844 L 221.5625 62.652344 L 218.40625 58.441406 L 217.683594 57.441406 L 216.347656 56.625 L 210.007813 48.84375 Z M 208.078125 38.039063 L 206.714844 37.523438 L 211.570313 43.800781 L 218.304688 51.765625 L 219.203125 52.128906 L 219.980469 53.507813 L 225.546875 57.84375 L 235.832031 67.570313 L 237.699219 68.96875 L 237.210938 67.644531 L 234.320313 64.691406 L 230.632813 60.382813 L 230.015625 60.042969 L 225.875 54.976563 L 219.039063 48.386719 L 217.089844 45.945313 L 215.894531 44.859375 Z M 208.519531 67.535156 L 207.324219 66.9375 L 207.105469 67.316406 L 208.300781 67.914063 Z M 208.519531 70.949219 L 207.324219 70.351563 L 207.8125 71.328125 L 208.300781 71.328125 Z M 209.058594 68.292969 L 208.203125 67.863281 L 208.679688 69.160156 L 212.011719 72.160156 L 216.308594 78.308594 L 229.023438 90.964844 L 229.878906 91.394531 L 229.390625 90.105469 L 225.496094 85.214844 L 219.636719 78.382813 L 212.695313 72.304688 Z M 209.496094 70.460938 L 208.300781 69.867188 L 208.300781 70.839844 L 209.277344 70.839844 Z M 208.789063 72.792969 L 210.253906 73.769531 L 210.472656 72.902344 L 208.300781 71.816406 Z M 209.765625 76.699219 L 209.277344 75.722656 L 208.789063 75.722656 L 209.277344 76.699219 Z M 210.472656 71.4375 L 209.277344 70.839844 L 209.058594 71.21875 L 210.253906 71.816406 Z M 209.765625 77.1875 L 210.253906 77.1875 L 210.253906 76.699219 L 209.765625 76.699219 Z M 210.253906 72.792969 L 210.742188 72.792969 L 210.742188 72.304688 L 210.253906 72.304688 Z M 211.988281 74.636719 L 210.253906 73.769531 L 210.050781 74.613281 L 211.394531 75.074219 L 211.960938 76.210938 L 219.257813 83.644531 L 220.113281 84.070313 L 219.652344 82.679688 L 215.449219 78.480469 L 214.402344 77.675781 Z M 211.953125 78.230469 L 210.5 77.675781 L 210.019531 78.097656 L 211.472656 78.652344 Z M 212.425781 37.269531 L 211.230469 36.671875 L 211.011719 37.050781 L 212.207031 37.648438 Z M 211.960938 78.652344 L 211.636719 78.652344 L 212.097656 80.035156 L 214.355469 81.726563 L 213.308594 79.835938 Z M 211.972656 38.554688 L 213.792969 39.234375 L 212.695313 38.136719 L 212.207031 38.136719 Z M 213.183594 69.378906 L 212.695313 68.402344 L 212.207031 68.402344 L 212.695313 69.378906 Z M 213.183594 71.328125 L 212.695313 70.351563 L 212.207031 70.351563 L 212.695313 71.328125 Z M 213.917969 50.785156 L 212.117188 50.226563 L 214.160156 52.78125 L 220.015625 59.371094 L 221.101563 60.320313 L 224.378906 64.742188 L 232.917969 71.457031 L 235.273438 72.917969 L 234.757813 71.554688 L 233.6875 70.597656 L 227.828125 64.007813 L 222.121094 56.875 L 220.015625 54.976563 Z M 214.378906 69.972656 L 213.183594 69.378906 L 212.964844 69.757813 L 214.160156 70.351563 Z M 213.914063 39.109375 L 213.589844 39.109375 L 214.050781 40.496094 L 216.308594 42.1875 L 215.261719 40.296875 Z M 215.828125 42.664063 L 214.160156 42.039063 L 213.957031 42.882813 L 215.625 43.503906 Z M 215.355469 64.605469 L 214.160156 64.007813 L 214.160156 64.984375 L 215.136719 64.984375 Z M 214.917969 70.734375 L 214.0625 70.304688 L 214.550781 71.59375 L 218.445313 76.480469 L 219.527344 77.433594 L 222.210938 80.558594 L 223.164063 80.984375 L 224.140625 82.449219 L 224.898438 82.800781 L 233.902344 91.941406 L 235.230469 92.429688 L 232.367188 88.609375 L 227.636719 82.894531 L 222.945313 78.164063 L 219.039063 75.234375 Z M 215.136719 73.28125 L 214.648438 72.304688 L 214.160156 72.304688 L 213.941406 72.683594 Z M 215.902344 82.433594 L 214.011719 81.386719 L 214.550781 82.820313 L 215.828125 84.15625 L 217.089844 85 L 217.222656 83.738281 Z M 215.136719 65.472656 L 215.625 65.472656 L 215.625 64.984375 L 215.136719 64.984375 Z M 216.601563 44.480469 L 216.113281 43.503906 L 215.625 43.503906 L 216.113281 44.480469 Z M 217.359375 42.417969 L 215.988281 41.917969 L 216.507813 43.277344 L 218.296875 45.378906 L 218.914063 45.734375 L 222.605469 50.046875 L 225.875 53.269531 L 226.851563 54.246094 L 242.691406 70.460938 L 243.546875 70.890625 L 243.054688 69.601563 L 241.496094 67.667969 L 238.816406 64.542969 L 238.1875 64.226563 L 235.015625 60.386719 Z M 217.578125 45.457031 L 217.089844 44.480469 L 216.601563 44.480469 L 216.382813 44.859375 Z M 218.066406 52.292969 L 217.578125 51.316406 L 217.089844 51.316406 L 216.871094 51.695313 Z M 217.578125 45.945313 L 218.066406 45.945313 L 218.066406 45.457031 L 217.578125 45.457031 Z M 220.503906 73.28125 L 220.015625 72.304688 L 219.527344 72.304688 L 220.015625 73.28125 Z M 221.210938 75.34375 L 220.015625 74.746094 L 220.503906 75.722656 L 220.992188 75.722656 Z M 221.210938 84.621094 L 220.015625 84.023438 L 220.503906 85 L 220.992188 85 Z M 221.480469 74.257813 L 220.992188 73.28125 L 220.503906 73.28125 L 220.285156 73.660156 Z M 222.1875 85.59375 L 220.992188 85 L 221.480469 85.972656 L 221.96875 85.972656 Z M 221.480469 63.03125 L 221.96875 63.03125 L 221.96875 62.542969 L 221.480469 62.542969 Z M 244.15625 96.824219 L 245.574219 97.339844 L 243.585938 94.472656 L 237.589844 87.683594 L 234.660156 85 L 232.882813 83.21875 L 229.046875 80.117188 L 224.207031 76.074219 L 221.480469 74.257813 L 222.347656 75.992188 L 224.125 78.300781 L 225.875 79.628906 L 228.804688 82.558594 L 232.980469 86.839844 Z M 223.164063 86.570313 L 221.96875 85.972656 L 221.75 86.351563 L 222.945313 86.949219 Z M 222.945313 87.4375 L 223.433594 87.4375 L 223.433594 86.949219 L 222.945313 86.949219 Z M 224.898438 48.875 L 224.410156 47.898438 L 223.921875 47.898438 L 223.703125 48.277344 Z M 223.921875 58.636719 L 224.410156 58.636719 L 224.410156 58.148438 L 223.921875 58.148438 Z M 225.386719 88.414063 L 224.898438 87.4375 L 224.410156 87.4375 L 224.898438 88.414063 Z M 225.875 48.386719 L 225.386719 47.410156 L 224.898438 47.410156 L 225.386719 48.386719 Z M 226.09375 49.472656 L 224.898438 48.875 L 224.679688 49.253906 L 225.875 49.851563 Z M 226.851563 60.101563 L 225.632813 59.125 L 224.898438 59.125 L 225.277344 59.882813 L 232.371094 67.617188 L 236.953125 73.578125 L 239.726563 76.863281 L 247.15625 83.390625 L 247.792969 80.855469 L 247.464844 79.847656 L 234.660156 66.9375 L 233.441406 65.960938 L 229.828125 63.28125 L 229.453125 62.378906 L 228.316406 61.8125 Z M 225.386719 88.902344 L 225.875 88.902344 L 225.875 88.414063 L 225.386719 88.414063 Z M 226.851563 85.972656 L 226.363281 85 L 225.875 85 L 225.65625 85.378906 Z M 227.339844 49.851563 L 226.851563 48.875 L 226.363281 48.875 L 226.851563 49.851563 Z M 227.574219 89.945313 L 226.121094 89.390625 L 225.640625 89.8125 L 227.09375 90.367188 Z M 227.339844 50.339844 L 227.828125 50.339844 L 227.828125 49.851563 L 227.339844 49.851563 Z M 228.535156 87.058594 L 227.339844 86.460938 L 227.828125 87.4375 L 228.316406 87.4375 Z M 228.097656 90.746094 L 227.242188 90.320313 L 227.734375 91.605469 L 229.976563 94.417969 L 241.714844 106.097656 L 243.042969 106.585938 L 241.496094 104.523438 L 238.566406 101.59375 Z M 229.074219 51.207031 L 227.738281 50.714844 L 231.734375 55.707031 L 233.902344 58.039063 L 235.257813 58.90625 L 235.746094 59.882813 L 237.210938 60.859375 L 237.699219 61.835938 L 239.164063 62.8125 L 239.707031 63.84375 L 240.738281 64.386719 L 241.632813 65.757813 L 243.449219 67.425781 L 245.550781 69 L 245.023438 67.15625 Z M 229.292969 88.414063 L 228.804688 87.4375 L 228.316406 87.4375 L 228.804688 88.414063 Z M 230.042969 72.699219 L 227.492188 72.167969 L 226.382813 74.992188 L 227.828125 76.210938 L 235.824219 81.253906 L 241.242188 84.085938 L 245.085938 84.683594 L 242.472656 82.070313 L 241.253906 81.09375 L 236.371094 77.1875 L 235.394531 76.210938 L 233.929688 75.722656 L 232.925781 74.855469 Z M 232.710938 91.34375 L 229.179688 88.316406 L 229.6875 89.652344 L 235.875 97.144531 L 236.777344 97.527344 L 237.347656 98.667969 L 239.542969 100.621094 L 242.472656 103.546875 L 244.425781 105.5 L 251.476563 112.933594 L 252.8125 113.421875 L 248.820313 108.429688 L 247.039063 106.648438 L 242.824219 101.390625 L 238.566406 97.203125 Z M 230.976563 91.941406 L 229.78125 91.34375 L 229.5625 91.722656 L 230.757813 92.320313 Z M 231.734375 93.296875 L 231.246094 92.320313 L 230.757813 92.320313 L 231.246094 93.296875 Z M 232.710938 61.566406 L 232.222656 60.589844 L 231.734375 60.589844 L 232.222656 61.566406 Z M 232.925781 87.546875 L 231.734375 86.949219 L 231.515625 87.328125 L 232.710938 87.925781 Z M 232.710938 94.273438 L 232.222656 93.296875 L 231.734375 93.296875 L 232.222656 94.273438 Z M 233.902344 62.164063 L 232.710938 61.566406 L 232.492188 61.945313 L 233.6875 62.542969 Z M 233.6875 88.902344 L 233.199219 87.925781 L 232.710938 87.925781 L 232.492188 88.304688 Z M 233.902344 94.871094 L 232.710938 94.273438 L 232.492188 94.652344 L 233.6875 95.25 Z M 234.878906 63.140625 L 233.6875 62.542969 L 233.6875 63.519531 L 234.660156 63.519531 Z M 234.660156 89.390625 L 233.523438 88.820313 L 234.539063 90.644531 L 241.699219 99.289063 L 253.398438 110.050781 L 255.410156 111.847656 L 260.265625 115.863281 L 261.121094 116.289063 L 260.632813 115 L 255.542969 109.1875 L 250.570313 102.917969 L 244.253906 98.007813 L 236.441406 91.171875 Z M 247.109375 78.164063 L 247.515625 78.164063 L 246.976563 75.453125 L 235.421875 63.898438 L 234.660156 63.519531 L 235.527344 65.253906 Z M 236.125 73.769531 L 235.636719 72.792969 L 235.148438 72.792969 L 234.933594 73.171875 Z M 235.148438 92.808594 L 235.636719 92.808594 L 235.636719 92.320313 L 235.148438 92.320313 Z M 236.613281 94.273438 L 236.125 93.296875 L 235.636719 93.296875 L 236.125 94.273438 Z M 236.125 74.257813 L 236.613281 74.257813 L 236.613281 73.769531 L 236.125 73.769531 Z M 238.566406 69.867188 L 238.078125 68.890625 L 237.589844 68.890625 L 238.078125 69.867188 Z M 239.542969 70.839844 L 239.054688 69.867188 L 238.566406 69.867188 L 238.347656 70.246094 Z M 239.542969 88.414063 L 239.054688 87.4375 L 238.566406 87.4375 L 238.347656 87.816406 Z M 257.335938 106.097656 L 258.664063 106.585938 L 255.800781 102.765625 L 247.539063 93.144531 L 245.609375 91.960938 L 239.46875 88.320313 L 249.445313 100.792969 Z M 240.03125 71.816406 L 240.519531 71.816406 L 240.519531 71.328125 L 240.03125 71.328125 Z M 241.714844 66.070313 L 240.519531 65.472656 L 240.300781 65.851563 L 241.496094 66.449219 Z M 243.195313 67.492188 L 241.738281 66.9375 L 241.261719 67.355469 L 242.714844 67.914063 Z M 243.203125 67.914063 L 242.878906 67.914063 L 243.339844 69.296875 L 245.597656 70.988281 L 244.550781 69.097656 Z M 242.960938 106.964844 L 243.449219 106.964844 L 243.449219 106.476563 L 242.960938 106.476563 Z M 243.449219 63.03125 L 243.9375 63.03125 L 243.9375 62.542969 L 243.449219 62.542969 Z M 244.425781 71.816406 L 243.9375 70.839844 L 243.449219 70.839844 L 243.230469 71.21875 Z M 244.425781 108.429688 L 243.9375 107.453125 L 243.449219 107.453125 L 243.230469 107.832031 Z M 245.402344 72.792969 L 244.914063 71.816406 L 244.425781 71.816406 L 244.207031 72.195313 Z M 245.402344 107.941406 L 244.914063 106.964844 L 244.425781 106.964844 L 244.207031 107.34375 Z M 245.402344 69.378906 L 245.890625 69.378906 L 245.890625 68.890625 L 245.402344 68.890625 Z M 246.597656 73.390625 L 245.402344 72.792969 L 245.183594 73.171875 L 246.378906 73.769531 Z M 246.597656 97.800781 L 245.402344 97.203125 L 245.402344 98.179688 L 246.378906 98.179688 Z M 246.964844 72.84375 L 246.296875 70.839844 L 245.320313 70.839844 L 245.792969 72.257813 Z M 247.085938 109.027344 L 245.890625 108.429688 L 246.378906 109.40625 L 246.867188 109.40625 Z M 247.574219 74.367188 L 246.378906 73.769531 L 246.867188 74.746094 L 247.355469 74.746094 Z M 246.378906 98.667969 L 246.867188 98.667969 L 246.867188 98.179688 L 246.378906 98.179688 Z M 247.109375 109.40625 L 246.785156 109.40625 L 247.261719 110.644531 L 251.476563 115.644531 L 252.832031 116.511719 L 253.375 117.542969 L 254.1875 117.949219 L 264.167969 128.066406 L 265.027344 128.492188 L 264.535156 127.203125 L 259.777344 121.71875 L 256.140625 117.703125 L 252.234375 114.777344 L 248.332031 110.382813 Z M 247.355469 79.140625 L 247.84375 79.140625 L 247.84375 78.652344 L 247.355469 78.652344 Z M 248.546875 106.097656 L 247.355469 105.5 L 247.84375 106.476563 L 248.332031 106.476563 Z M 249.308594 107.453125 L 248.820313 106.476563 L 248.332031 106.476563 L 248.113281 106.855469 Z M 250.066406 107.832031 L 249.210938 107.40625 L 249.6875 108.699219 L 256.277344 115.957031 L 259.910156 120.917969 L 262 122.097656 L 265.414063 125.757813 L 266.554688 126.328125 L 266.929688 127.230469 L 272.945313 132.480469 L 276.78125 134.964844 L 276.253906 133.550781 L 272.03125 128.335938 L 269.808594 126.246094 L 266.039063 121.324219 L 264.753906 120.316406 L 259.875 116.414063 L 258.289063 115.410156 Z M 252 94.703125 L 249.632813 94.109375 L 256.480469 102.867188 L 259.261719 106.140625 L 261.753906 108.429688 L 265.015625 109.515625 L 261.023438 104.523438 L 253.449219 95.679688 Z M 252.722656 113.800781 L 253.210938 113.800781 L 253.210938 113.3125 L 252.722656 113.3125 Z M 272.976563 125.082031 L 274.78125 125.625 L 270.785156 120.632813 L 262.738281 110.929688 L 260.792969 109.808594 L 258.808594 109.007813 L 254.945313 105.878906 L 253.210938 105.011719 L 253.210938 105.257813 L 257.355469 110.324219 L 258 110.644531 L 265.15625 119.578125 L 267.125 121.121094 Z M 254.1875 115.265625 L 253.699219 114.289063 L 253.210938 114.289063 L 252.992188 114.667969 Z M 254.945313 73.171875 L 254.089844 72.746094 L 255.070313 75.496094 L 262.976563 85.242188 L 265.128906 87.574219 L 266.496094 88.484375 L 265.902344 86.707031 L 260.195313 79.332031 Z M 266.59375 92.457031 L 267.960938 93.367188 L 267.296875 91.378906 L 259.710938 81.773438 L 256.921875 78.503906 L 255.304688 77.292969 L 256.539063 80.378906 L 257.824219 81.691406 L 265.308594 91.125 Z M 255.894531 94.800781 L 254.292969 95.457031 L 254.675781 96.226563 L 255.488281 97.363281 L 256.464844 97.851563 L 257.28125 99.480469 L 258 99.90625 L 265.167969 108.886719 L 265.902344 109.40625 L 266.660156 109.785156 L 268.214844 109.207031 L 263.3125 102.867188 L 262.269531 101.703125 L 261.347656 101.269531 L 261.023438 100.375 L 256.894531 95.148438 Z M 257.433594 82.386719 L 256.628906 81.582031 L 257.515625 84.773438 L 258.582031 85.972656 L 259.777344 87.058594 L 265.308594 94.054688 L 266.582031 95.402344 L 268.984375 97.324219 L 268.4375 95.476563 L 264.25 90.214844 Z M 258.867188 86.816406 L 257.457031 85.875 L 258.035156 88.1875 L 267.007813 99.433594 L 269.050781 101.703125 L 269.972656 102.164063 L 269.441406 99.855469 L 261.660156 90.070313 Z M 258.359375 93.683594 L 256.960938 93.164063 L 257.523438 95.019531 L 259.398438 97.015625 L 264.441406 103.546875 L 268.589844 108.429688 L 269.441406 108.429688 L 268.890625 106.226563 L 263.195313 99.753906 Z M 258.851563 90.257813 L 257.917969 89.789063 L 258.496094 93.066406 L 260.398438 95.046875 L 265.523438 101.324219 L 266.152344 101.644531 L 269.054688 105.601563 L 270.472656 106.128906 L 269.910156 103.769531 L 264.101563 96.417969 Z M 258.582031 106.964844 L 259.070313 106.964844 L 259.070313 106.476563 L 258.582031 106.476563 Z M 261.023438 116.726563 L 261.511719 116.726563 L 261.511719 116.242188 L 261.023438 116.242188 Z M 264.441406 84.023438 L 264.929688 84.023438 L 264.929688 83.046875 L 264.441406 83.046875 Z M 277.855469 127.527344 L 280.195313 128.113281 L 279.667969 126.714844 L 278.597656 125.757813 L 272.542969 118.046875 L 270.296875 116.242188 L 268.136719 113.4375 L 264.683594 111.847656 L 264.441406 111.847656 L 265.089844 113.148438 L 265.808594 113.574219 L 272.980469 122.554688 L 273.605469 122.855469 L 276.753906 126.710938 Z M 265.902344 127.46875 L 265.414063 126.492188 L 264.929688 126.492188 L 265.414063 127.46875 Z M 266.121094 129.042969 L 264.929688 128.445313 L 265.414063 129.421875 L 265.902344 129.421875 Z M 267.097656 128.066406 L 265.902344 127.46875 L 266.390625 128.445313 L 266.878906 128.445313 Z M 269.113281 129.78125 L 266.757813 128.320313 L 267.277344 129.683594 L 269.003906 132.035156 L 277.621094 140.648438 L 281.523438 144.554688 L 283.476563 145.53125 L 285.429688 147.96875 L 287.382813 148.945313 L 291.289063 152.851563 L 292.363281 153.390625 L 291.871094 152.101563 L 287.871094 147.726563 L 286.027344 145.261719 L 282.0625 140.398438 L 275.449219 135.386719 L 274.460938 134.378906 Z M 267.855469 131.375 L 267.367188 130.398438 L 266.878906 130.398438 L 267.367188 131.375 Z M 288.09375 143.183594 L 289.9375 143.726563 L 288.214844 141.429688 L 287.546875 140.484375 L 286.648438 140.128906 L 278.320313 130.027344 L 269.152344 123.875 L 274.539063 130.695313 L 281.164063 138.417969 L 285.222656 141.007813 Z M 271.101563 92.636719 L 270.125 91.660156 L 271.15625 94.546875 L 279.230469 104.230469 L 281.523438 106.964844 L 282.675781 108.113281 L 281.640625 105.226563 L 277.460938 99.945313 L 275.925781 98.253906 L 275.289063 97.910156 Z M 281.253906 128.066406 L 284.605469 128.636719 L 280.394531 123.371094 L 279.734375 122.421875 L 278.832031 122.039063 L 272.511719 113.707031 L 269.636719 113.625 L 273.570313 118.972656 L 280.738281 127.621094 Z M 275.574219 102.835938 L 282.746094 111.847656 L 283.601563 111.847656 L 283.109375 110.109375 L 277.972656 103.832031 L 276.15625 102.082031 L 275.070313 100.890625 L 272.03125 96.605469 L 271.394531 96.285156 L 273.121094 100.398438 L 274.921875 102.496094 Z M 274 101.949219 L 272.535156 100.972656 L 273.617188 103.8125 L 274.910156 105.390625 L 275.574219 105.765625 L 282.691406 114.929688 L 285.054688 116.816406 L 284.058594 114.027344 L 282.296875 111.710938 L 280.0625 109.894531 L 278.976563 108.699219 Z M 284.164063 127.121094 L 285.585938 127.601563 L 285.0625 125.730469 L 281.878906 121.894531 L 280.0625 120.144531 L 278.976563 118.949219 L 273.984375 112.226563 L 273.117188 111.792969 L 272.699219 113.558594 L 275.398438 116.347656 L 276.972656 118.007813 Z M 273.957031 105.011719 L 273.550781 105.011719 L 274.132813 107.707031 L 274.855469 108.753906 L 275.535156 109.199219 L 284.601563 120.242188 L 286.085938 121.234375 L 285.53125 118.902344 L 281.523438 114.042969 L 280.0625 112.824219 L 278.976563 111.628906 Z M 275.007813 109.722656 L 274.082031 108.796875 L 273.699219 111.117188 L 274.910156 112.714844 L 275.574219 113.085938 L 282.609375 121.878906 L 284.65625 124.1875 L 286.023438 125.097656 L 286.40625 123.320313 L 282.5 118.4375 L 279.820313 115.3125 L 279.195313 114.996094 Z M 277.621094 135.765625 L 277.132813 134.789063 L 276.644531 134.789063 L 276.425781 135.167969 Z M 277.621094 136.253906 L 278.109375 136.253906 L 278.109375 135.765625 L 277.621094 135.765625 Z M 280.0625 128.445313 L 280.550781 128.445313 L 280.550781 127.957031 L 280.0625 127.957031 Z M 283.242188 131.800781 L 280.402344 131.199219 L 283.144531 134.488281 L 284.785156 136.070313 L 291.820313 144.976563 L 295.316406 146.140625 L 292.898438 142.796875 L 287.5 135.980469 L 286.40625 135.035156 L 284.21875 132.410156 Z M 283.476563 112.335938 L 283.964844 112.335938 L 283.964844 111.847656 L 283.476563 111.847656 Z M 283.964844 113.3125 L 284.453125 113.3125 L 284.453125 112.824219 L 283.964844 112.824219 Z M 286.625 143.6875 L 285.429688 143.089844 L 285.210938 143.46875 L 286.40625 144.066406 Z M 285.917969 122.097656 L 286.40625 122.097656 L 286.40625 121.609375 L 285.917969 121.609375 Z M 285.917969 126.003906 L 286.40625 126.003906 L 286.40625 125.515625 L 285.917969 125.515625 Z M 288.164063 112.675781 L 286.210938 111.210938 L 287.285156 114.066406 L 288.578125 115.863281 L 291.289063 118.4375 L 295.410156 123.671875 L 296.332031 124.132813 L 295.789063 121.828125 L 293.972656 120.144531 L 293.402344 119.007813 L 292.5 118.621094 Z M 288.625 144.941406 L 286.273438 143.914063 L 286.796875 145.304688 L 290.691406 150.191406 L 296.695313 157.003906 L 300.316406 159.714844 L 301.820313 160.535156 L 305.632813 162.773438 L 304.589844 160.875 L 297.4375 152.21875 L 294.460938 149.433594 L 293.902344 148.320313 Z M 296.859375 128.578125 L 298.324219 129.554688 L 297.269531 126.703125 L 293.351563 121.828125 L 292.265625 120.878906 L 288.140625 115.644531 L 287.382813 115.265625 L 288.699219 118.484375 L 291.628906 122.390625 Z M 288.21875 132.664063 L 285.75 132.171875 L 286.785156 134.570313 L 291.140625 139.96875 L 296.414063 146.042969 L 298.675781 145.664063 L 297.742188 143.796875 L 296.015625 142.410156 Z M 298.339844 133.433594 L 299.292969 133.910156 L 298.214844 131.113281 L 297.308594 129.746094 L 296.40625 129.363281 L 290.117188 120.976563 L 288.164063 119.511719 L 290.3125 123.808594 L 291.476563 125.179688 Z M 289.554688 130.996094 L 288.359375 131.617188 L 288.753906 132.613281 L 290.515625 134.925781 L 292.753906 136.742188 L 293.804688 138.464844 L 298.34375 144.167969 L 299.636719 144.652344 L 300.074219 143.332031 L 297.878906 141.136719 L 297.308594 139.996094 L 296.40625 139.613281 L 290.09375 131.265625 Z M 292.074219 126.339844 L 289.648438 124.398438 L 290.234375 127.234375 L 297.84375 135.695313 L 298.316406 136.890625 L 300.261719 138.347656 L 299.695313 135.496094 L 297.878906 133.8125 L 297.308594 132.675781 L 296.40625 132.289063 Z M 292.074219 129.757813 L 289.636719 127.804688 L 290.226563 131.144531 L 291.476563 132.503906 L 298.316406 140.792969 L 300.074219 142.113281 L 300.222656 139.867188 L 297.035156 136.035156 L 296.40625 135.707031 Z M 289.824219 144.066406 L 290.3125 144.066406 L 290.3125 143.578125 L 289.824219 143.578125 Z M 293.242188 154.316406 L 292.753906 153.339844 L 292.265625 153.339844 L 292.753906 154.316406 Z M 294.707031 120.144531 L 295.195313 120.144531 L 295.195313 119.65625 L 294.707031 119.65625 Z M 307.53125 163.636719 L 310.988281 164.742188 L 307.042969 159.402344 L 304.957031 157.488281 L 299.039063 150.175781 L 295.683594 148.945313 L 296.550781 150.679688 L 300.78125 155.890625 L 303.355469 158.507813 Z M 296.167969 125.027344 L 296.65625 125.027344 L 296.65625 124.050781 L 296.167969 124.050781 Z M 299.097656 134.300781 L 299.585938 134.300781 L 299.585938 133.8125 L 299.097656 133.8125 Z M 310.058594 141.246094 L 310.914063 141.671875 L 310.242188 139.445313 L 309.636719 137.855469 L 308.121094 137.171875 L 303.796875 131.210938 L 300.074219 127.957031 L 301.429688 130.667969 L 306.53125 136.960938 L 307.160156 137.277344 Z M 301.730469 149.585938 L 300.074219 150.167969 L 300.46875 151.164063 L 301.539063 152.363281 L 303.355469 154.113281 L 308.484375 160.394531 L 309.1875 160.824219 L 309.839844 162.371094 L 312.035156 164.566406 L 313.855469 164.171875 L 313.351563 162.839844 L 307.527344 155.5 L 303.789063 151.234375 Z M 303.289063 133.679688 L 301.859375 132.726563 L 302.425781 135.050781 L 308.238281 142.398438 L 311.519531 146.128906 L 312.375 146.554688 L 311.398438 143.800781 Z M 303.761719 137.609375 L 302.871094 137.164063 L 304.355469 140.433594 L 310.21875 147.753906 L 311.492188 149.097656 L 313.894531 151.023438 L 313.363281 149.164063 L 311.980469 148.125 L 305.066406 139.453125 Z M 303.492188 141.136719 L 303.980469 141.136719 L 303.980469 140.648438 L 303.492188 140.648438 Z M 307.632813 152.785156 L 303.761719 148.078125 L 302.90625 148.507813 L 303.898438 150.671875 L 309.839844 157.488281 L 310.925781 158.441406 L 314.40625 162.929688 L 315.289063 162.046875 L 314.351563 160.386719 Z M 305.738281 142.941406 L 303.808594 141.496094 L 304.378906 143.839844 L 310.195313 151.183594 L 313.960938 155.402344 L 314.859375 155.851563 L 314.234375 153.097656 Z M 305.738281 146.359375 L 303.792969 144.902344 L 304.378906 147.742188 L 309.1875 153.503906 L 314.964844 160.175781 L 315.371094 160.175781 L 314.820313 157.46875 L 310.640625 152.191406 Z M 308.863281 136.742188 L 309.351563 136.742188 L 309.351563 136.253906 L 308.863281 136.253906 Z M 326.4375 160.664063 L 327.585938 161.8125 L 326.542969 158.929688 L 323.3125 155.148438 L 321.433594 153.738281 L 323.757813 157.675781 Z M 325.265625 160.027344 L 323.355469 158.597656 L 323.886719 160.445313 L 327.21875 163.445313 L 329.585938 167.113281 L 330.953125 167.617188 L 328.996094 164.292969 Z M 328.386719 162.617188 L 327.898438 161.640625 L 327.410156 161.640625 L 327.195313 162.019531 Z M 330.828125 168.472656 L 331.316406 168.472656 L 331.316406 167.984375 L 330.828125 167.984375 Z M 332.511719 165.652344 L 331.316406 165.054688 L 331.804688 166.03125 L 332.292969 166.03125 Z M 334.734375 171.890625 L 335.222656 171.890625 L 335.222656 171.402344 L 334.734375 171.402344 Z M 336.464844 172.765625 L 335.101563 172.257813 L 335.597656 173.625 L 343.722656 182.765625 L 345.089844 183.675781 L 344.589844 182.367188 L 342.828125 180.054688 L 339.320313 176.925781 Z M 336.464844 172.765625 "/>
</g>
</svg>
